G04 (created by PCBNEW (2012-nov-02)-testing) date Wed 09 Jan 2013 11:48:40 PM PST*
%MOIN*%
G04 Gerber Fmt 3.4, Leading zero omitted, Abs format*
%FSLAX34Y34*%
G01*
G70*
G90*
G04 APERTURE LIST*
%ADD10C,0.0137795*%
%ADD11R,0.055X0.055*%
%ADD12C,0.055*%
%ADD13C,0.2*%
%ADD14C,0.07*%
%ADD15R,0.07X0.07*%
%ADD16R,0.06X0.06*%
%ADD17C,0.06*%
%ADD18R,0.075X0.075*%
%ADD19C,0.075*%
%ADD20C,0.045*%
%ADD21C,0.02*%
%ADD22C,0.012*%
%ADD23C,0.015*%
%ADD24C,0.0137795*%
G04 APERTURE END LIST*
G54D10*
G54D11*
X30450Y14050D03*
G54D12*
X29450Y14050D03*
X28450Y14050D03*
G54D11*
X2850Y4050D03*
G54D12*
X3850Y4050D03*
X4850Y4050D03*
X5850Y4050D03*
X5850Y7050D03*
X4850Y7050D03*
X3850Y7050D03*
X2850Y7050D03*
G54D11*
X21500Y5250D03*
G54D12*
X20500Y5250D03*
X19500Y5250D03*
X18500Y5250D03*
X17500Y5250D03*
X16500Y5250D03*
X15500Y5250D03*
X14500Y5250D03*
X13500Y5250D03*
X12500Y5250D03*
X12500Y2250D03*
X13500Y2250D03*
X14500Y2250D03*
X15500Y2250D03*
X16500Y2250D03*
X17500Y2250D03*
X18500Y2250D03*
X19500Y2250D03*
X20500Y2250D03*
X21500Y2250D03*
G54D11*
X21500Y9500D03*
G54D12*
X20500Y9500D03*
X19500Y9500D03*
X18500Y9500D03*
X17500Y9500D03*
X16500Y9500D03*
X15500Y9500D03*
X14500Y9500D03*
X13500Y9500D03*
X12500Y9500D03*
X12500Y6500D03*
X13500Y6500D03*
X14500Y6500D03*
X15500Y6500D03*
X16500Y6500D03*
X17500Y6500D03*
X18500Y6500D03*
X19500Y6500D03*
X20500Y6500D03*
X21500Y6500D03*
G54D11*
X475Y8575D03*
G54D12*
X475Y11575D03*
X3850Y1800D03*
X4850Y1800D03*
G54D11*
X5850Y550D03*
G54D12*
X2850Y550D03*
X1600Y6050D03*
X1600Y5050D03*
G54D13*
X31250Y1250D03*
G54D14*
X5025Y10450D03*
G54D15*
X7025Y10450D03*
G54D12*
X7350Y1800D03*
X7350Y800D03*
X8750Y13900D03*
X9750Y13900D03*
X23250Y3250D03*
X23250Y4250D03*
X23250Y7500D03*
X23250Y8500D03*
G54D13*
X1250Y1250D03*
G54D16*
X31500Y8250D03*
G54D17*
X31500Y7250D03*
X30500Y8250D03*
X30500Y7250D03*
X29500Y8250D03*
X29500Y7250D03*
X28500Y8250D03*
X28500Y7250D03*
G54D16*
X31500Y11500D03*
G54D17*
X31500Y10500D03*
X30500Y11500D03*
X30500Y10500D03*
X29500Y11500D03*
X29500Y10500D03*
X28500Y11500D03*
X28500Y10500D03*
G54D16*
X31500Y5000D03*
G54D17*
X31500Y4000D03*
X30500Y5000D03*
X30500Y4000D03*
X29500Y5000D03*
X29500Y4000D03*
X28500Y5000D03*
X28500Y4000D03*
G54D12*
X500Y7300D03*
X500Y4300D03*
X20000Y11250D03*
X23000Y11250D03*
X21000Y1500D03*
X24000Y1500D03*
X11100Y13800D03*
X11100Y10800D03*
X850Y3050D03*
X3850Y3050D03*
X7825Y3050D03*
X4825Y3050D03*
X7100Y4050D03*
X7100Y7050D03*
G54D14*
X5025Y8450D03*
X6025Y8450D03*
G54D15*
X7025Y8450D03*
G54D16*
X9000Y11250D03*
G54D17*
X9000Y10250D03*
X9000Y9250D03*
X9000Y8250D03*
X9000Y7250D03*
X9000Y6250D03*
X9000Y5250D03*
X9000Y4250D03*
X9000Y3250D03*
X9000Y2250D03*
G54D16*
X10000Y11250D03*
G54D17*
X10000Y10250D03*
X10000Y9250D03*
X10000Y8250D03*
X10000Y7250D03*
X10000Y6250D03*
X10000Y5250D03*
X10000Y4250D03*
X10000Y3250D03*
X10000Y2250D03*
G54D16*
X26000Y11250D03*
G54D17*
X26000Y10250D03*
X26000Y9250D03*
X26000Y8250D03*
X26000Y7250D03*
X26000Y6250D03*
X26000Y5250D03*
X26000Y4250D03*
X26000Y3250D03*
X26000Y2250D03*
G54D16*
X27000Y11250D03*
G54D17*
X27000Y10250D03*
X27000Y9250D03*
X27000Y8250D03*
X27000Y7250D03*
X27000Y6250D03*
X27000Y5250D03*
X27000Y4250D03*
X27000Y3250D03*
X27000Y2250D03*
G54D16*
X19500Y1000D03*
G54D17*
X18500Y1000D03*
X17500Y1000D03*
X16500Y1000D03*
G54D16*
X17000Y12250D03*
G54D17*
X17000Y13250D03*
X18000Y12250D03*
X18000Y13250D03*
X19000Y12250D03*
X19000Y13250D03*
X20000Y12250D03*
X20000Y13250D03*
X21000Y12250D03*
X21000Y13250D03*
X22000Y12250D03*
X22000Y13250D03*
X23000Y12250D03*
X23000Y13250D03*
G54D12*
X27350Y12750D03*
X30350Y12750D03*
G54D11*
X2250Y13875D03*
G54D12*
X2250Y12375D03*
G54D11*
X6700Y13300D03*
G54D12*
X5200Y13300D03*
G54D18*
X2400Y10600D03*
G54D19*
X2400Y8600D03*
G54D11*
X14500Y13650D03*
G54D12*
X13500Y13650D03*
X12500Y13650D03*
X12500Y10650D03*
X13500Y10650D03*
X14500Y10650D03*
G54D20*
X19437Y8174D03*
X20151Y8096D03*
X13750Y11750D03*
X22500Y9975D03*
X22200Y7925D03*
X23700Y5000D03*
X17575Y5875D03*
X29980Y9509D03*
X11550Y8750D03*
X11626Y1340D03*
X29000Y2750D03*
X21025Y8375D03*
X16018Y9045D03*
X28550Y6250D03*
X19375Y14325D03*
G54D21*
X9000Y11250D02*
X9000Y11687D01*
X11800Y11550D02*
X11800Y9499D01*
X11362Y11987D02*
X11800Y11550D01*
X9300Y11987D02*
X11362Y11987D01*
X9000Y11687D02*
X9300Y11987D01*
X22150Y1000D02*
X19500Y1000D01*
X22405Y1205D02*
X22150Y1000D01*
X22405Y3405D02*
X22405Y1205D01*
X23250Y4250D02*
X22405Y3405D01*
X13124Y8174D02*
X19437Y8174D01*
X11789Y9509D02*
X11800Y9499D01*
X11800Y9499D02*
X13124Y8174D01*
X8750Y13900D02*
X7300Y13900D01*
X7300Y13900D02*
X6700Y13300D01*
X13368Y10518D02*
X14000Y9736D01*
X14000Y9736D02*
X14000Y9295D01*
X14000Y9295D02*
X14746Y8550D01*
X14746Y8550D02*
X18575Y8550D01*
X18575Y8550D02*
X19100Y8649D01*
X19100Y8649D02*
X19598Y8649D01*
X19598Y8649D02*
X20151Y8096D01*
X13368Y10518D02*
X13500Y10650D01*
X7025Y10450D02*
X7725Y10450D01*
X7725Y10450D02*
X7725Y7675D01*
X7725Y7675D02*
X7100Y7050D01*
X22500Y7500D02*
X23250Y7500D01*
X21500Y6500D02*
X22500Y7500D01*
X7100Y7050D02*
X5850Y7050D01*
G54D22*
X17795Y12750D02*
X19500Y12750D01*
X17795Y12750D02*
X17504Y12458D01*
X17504Y12458D02*
X17504Y11881D01*
X17504Y11881D02*
X17383Y11761D01*
X17383Y11761D02*
X13761Y11761D01*
X13750Y11750D02*
X13761Y11761D01*
X20000Y13250D02*
X19500Y12750D01*
X19500Y11800D02*
X20000Y11250D01*
X19500Y12750D02*
X19500Y11800D01*
X9468Y6718D02*
X9000Y6250D01*
X10385Y6718D02*
X9468Y6718D01*
X12325Y4778D02*
X10385Y6718D01*
X16028Y4778D02*
X12325Y4778D01*
X16500Y5250D02*
X16028Y4778D01*
X20519Y12769D02*
X21000Y13250D01*
X20519Y10373D02*
X20519Y12769D01*
X19646Y9500D02*
X20519Y10373D01*
X19500Y9500D02*
X19646Y9500D01*
X13500Y6250D02*
X14500Y5250D01*
X13500Y6500D02*
X13500Y6250D01*
X15044Y10044D02*
X14500Y9500D01*
X16007Y10044D02*
X15044Y10044D01*
X18000Y12036D02*
X16007Y10044D01*
X18000Y12250D02*
X18000Y12036D01*
X13000Y5750D02*
X12500Y5250D01*
X13000Y6660D02*
X13000Y5750D01*
X13313Y6973D02*
X13000Y6660D01*
X15026Y6973D02*
X13313Y6973D01*
X15500Y6500D02*
X15026Y6973D01*
X16500Y9750D02*
X16500Y9500D01*
X19000Y12250D02*
X16500Y9750D01*
X22000Y11000D02*
X20500Y9500D01*
X22000Y12250D02*
X22000Y11000D01*
X14500Y13650D02*
X14550Y13800D01*
X21000Y6861D02*
X22200Y7925D01*
X21000Y5750D02*
X21000Y6861D01*
X20500Y5250D02*
X21000Y5750D01*
X15333Y13878D02*
X14550Y13800D01*
X21083Y13878D02*
X15333Y13878D01*
X21519Y13441D02*
X21083Y13878D01*
X21519Y13047D02*
X21519Y13441D01*
X21836Y12730D02*
X21519Y13047D01*
X22202Y12730D02*
X21836Y12730D01*
X22485Y12447D02*
X22202Y12730D01*
X22475Y10350D02*
X22485Y12447D01*
X22500Y9975D02*
X22475Y10350D01*
X16987Y4737D02*
X17787Y4737D01*
X18000Y6000D02*
X18500Y6500D01*
X18000Y4950D02*
X18000Y6000D01*
X17787Y4737D02*
X18000Y4950D01*
X17000Y4750D02*
X16987Y4737D01*
X16987Y4737D02*
X14500Y2250D01*
X12581Y1524D02*
X17500Y1524D01*
X12044Y2061D02*
X12581Y1524D01*
X12044Y3859D02*
X12044Y2061D01*
X10153Y5750D02*
X12044Y3859D01*
X8801Y5750D02*
X10153Y5750D01*
X8531Y6019D02*
X8801Y5750D01*
X8531Y6781D02*
X8531Y6019D01*
X9000Y7250D02*
X8531Y6781D01*
X17500Y1000D02*
X17500Y1524D01*
X17500Y1524D02*
X17500Y2250D01*
X20000Y1500D02*
X21000Y1500D01*
X20000Y2395D02*
X20000Y1500D01*
X19687Y2708D02*
X20000Y2395D01*
X17958Y2708D02*
X19687Y2708D01*
X17500Y2250D02*
X17958Y2708D01*
X24964Y3737D02*
X23700Y5000D01*
X27237Y3737D02*
X24964Y3737D01*
X28500Y5000D02*
X27237Y3737D01*
X15600Y5250D02*
X15500Y5250D01*
X16200Y5875D02*
X15600Y5250D01*
X17575Y5875D02*
X16200Y5875D01*
X29500Y5000D02*
X30500Y5000D01*
X30500Y5000D02*
X31500Y5000D01*
X28500Y5000D02*
X29500Y5000D01*
X29500Y8250D02*
X30500Y8250D01*
X30500Y8250D02*
X31500Y8250D01*
X29500Y8250D02*
X28500Y8250D01*
X17782Y3532D02*
X16500Y2250D01*
X20977Y3532D02*
X17782Y3532D01*
X24195Y6750D02*
X20977Y3532D01*
X27168Y6750D02*
X24195Y6750D01*
X28500Y8081D02*
X27168Y6750D01*
X28500Y8250D02*
X28500Y8081D01*
X29500Y11500D02*
X28500Y11500D01*
X29500Y11500D02*
X30500Y11500D01*
X30500Y11500D02*
X31500Y11500D01*
X15500Y2404D02*
X16917Y3822D01*
X15500Y2250D02*
X15500Y2404D01*
X16917Y3822D02*
X16917Y3822D01*
X20901Y3822D02*
X16917Y3822D01*
X24829Y7750D02*
X20901Y3822D01*
X27279Y7750D02*
X24829Y7750D01*
X29139Y9509D02*
X27279Y7750D01*
X29980Y9509D02*
X29139Y9509D01*
X18500Y1000D02*
X18500Y2250D01*
X19950Y5600D02*
X19500Y5250D01*
X19950Y6898D02*
X19950Y5600D01*
X19550Y7250D02*
X19950Y6898D01*
X13266Y7266D02*
X19550Y7250D01*
X12500Y6500D02*
X13266Y7266D01*
X11388Y8750D02*
X8725Y8750D01*
X6631Y4518D02*
X8048Y5935D01*
X8048Y5935D02*
X8048Y8073D01*
X8048Y8073D02*
X8700Y8725D01*
X11388Y8750D02*
X11550Y8750D01*
X8725Y8750D02*
X8700Y8725D01*
X7100Y4050D02*
X6631Y4518D01*
X5318Y4518D02*
X4850Y4050D01*
X6631Y4518D02*
X5318Y4518D01*
X3850Y1800D02*
X3850Y3050D01*
X3850Y3050D02*
X4850Y3050D01*
X3850Y3050D02*
X3850Y4050D01*
X7850Y2300D02*
X7850Y3050D01*
X7350Y1800D02*
X7850Y2300D01*
X6850Y3050D02*
X5850Y4050D01*
X7850Y3050D02*
X6850Y3050D01*
G54D21*
X4850Y7050D02*
X4850Y7075D01*
X7025Y8000D02*
X7025Y8450D01*
X6750Y7725D02*
X7025Y8000D01*
X5500Y7725D02*
X6750Y7725D01*
X4850Y7075D02*
X5500Y7725D01*
X6029Y9120D02*
X6600Y9120D01*
X5025Y10450D02*
X6029Y9120D01*
X7025Y8450D02*
X6600Y9120D01*
G54D22*
X1350Y5050D02*
X1600Y5050D01*
X500Y4300D02*
X1350Y5050D01*
X2850Y550D02*
X2850Y4050D01*
X29750Y2250D02*
X27000Y2250D01*
X31500Y4000D02*
X29750Y2250D01*
X28301Y5551D02*
X27000Y4250D01*
X28493Y5551D02*
X28301Y5551D01*
X30000Y7057D02*
X28493Y5551D01*
X30000Y7433D02*
X30000Y7057D01*
X30297Y7730D02*
X30000Y7433D01*
X31835Y7730D02*
X30297Y7730D01*
X31980Y7874D02*
X31835Y7730D01*
X31980Y10019D02*
X31980Y7874D01*
X31500Y10500D02*
X31980Y10019D01*
X8290Y4960D02*
X9000Y4250D01*
X8290Y7209D02*
X8290Y4960D01*
X8849Y7768D02*
X8290Y7209D01*
X19874Y7768D02*
X8849Y7768D01*
X19952Y7691D02*
X19874Y7768D01*
X20983Y7691D02*
X19952Y7691D01*
X24037Y10744D02*
X20983Y7691D01*
X27969Y10744D02*
X24037Y10744D01*
X28216Y10991D02*
X27969Y10744D01*
X31721Y10991D02*
X28216Y10991D01*
X32243Y10470D02*
X31721Y10991D01*
X32243Y7798D02*
X32243Y10470D01*
X31694Y7250D02*
X32243Y7798D01*
X31500Y7250D02*
X31694Y7250D01*
X28721Y9971D02*
X27000Y8250D01*
X29971Y9971D02*
X28721Y9971D01*
X30500Y10500D02*
X29971Y9971D01*
X11859Y390D02*
X10000Y2250D01*
X22341Y390D02*
X11859Y390D01*
X23650Y2750D02*
X22341Y390D01*
X27943Y2750D02*
X23650Y2750D01*
X29000Y3806D02*
X27943Y2750D01*
X29000Y4183D02*
X29000Y3806D01*
X29297Y4480D02*
X29000Y4183D01*
X31862Y4480D02*
X29297Y4480D01*
X31980Y4597D02*
X31862Y4480D01*
X31980Y5769D02*
X31980Y4597D01*
X30500Y7250D02*
X31980Y5769D01*
X9000Y5250D02*
X9500Y4750D01*
X10400Y4750D02*
X9500Y4750D01*
X10950Y4200D02*
X10400Y4750D01*
X10950Y2016D02*
X10950Y4200D01*
X10950Y2016D02*
X11626Y1340D01*
X29500Y4000D02*
X29500Y3250D01*
X29500Y3250D02*
X29000Y2750D01*
X27519Y6769D02*
X27000Y6250D01*
X29019Y6769D02*
X27519Y6769D01*
X29500Y7250D02*
X29019Y6769D01*
X20337Y9000D02*
X21025Y8375D01*
X16064Y9000D02*
X20337Y9000D01*
X16018Y9045D02*
X16064Y9000D01*
X10278Y7528D02*
X10000Y7250D01*
X19775Y7528D02*
X10278Y7528D01*
X19871Y7432D02*
X19775Y7528D01*
X21064Y7432D02*
X19871Y7432D01*
X23382Y9750D02*
X21064Y7432D01*
X27750Y9750D02*
X23382Y9750D01*
X28500Y10500D02*
X27750Y9750D01*
X10187Y6250D02*
X10000Y6250D01*
X14000Y2437D02*
X10187Y6250D01*
X14000Y2078D02*
X14000Y2437D01*
X14291Y1787D02*
X14000Y2078D01*
X16684Y1787D02*
X14291Y1787D01*
X17000Y2102D02*
X16684Y1787D01*
X17000Y2410D02*
X17000Y2102D01*
X17668Y3078D02*
X17000Y2410D01*
X20863Y3078D02*
X17668Y3078D01*
X23526Y5741D02*
X20863Y3078D01*
X28057Y5741D02*
X23526Y5741D01*
X28550Y6250D02*
X28057Y5741D01*
X30350Y12750D02*
X30350Y13950D01*
X30350Y13950D02*
X30450Y14050D01*
X27675Y14325D02*
X28000Y14050D01*
X28000Y14050D02*
X28450Y14050D01*
X28450Y14050D02*
X29450Y14050D01*
X27675Y14325D02*
X19375Y14325D01*
X23000Y12250D02*
X23000Y11250D01*
X4600Y7800D02*
X5025Y8450D01*
X3850Y7050D02*
X4600Y7800D01*
X12988Y14300D02*
X13500Y13650D01*
X11877Y14300D02*
X12988Y14300D01*
X11100Y13600D02*
X11877Y14300D01*
G54D23*
X475Y11575D02*
X475Y11000D01*
X625Y7300D02*
X1225Y7900D01*
X1225Y7900D02*
X1225Y10250D01*
X625Y7300D02*
X500Y7300D01*
X475Y11000D02*
X1225Y10250D01*
X475Y11575D02*
X475Y12050D01*
X475Y12050D02*
X800Y12375D01*
X775Y12375D02*
X800Y12375D01*
X800Y12375D02*
X2250Y12375D01*
X2250Y12375D02*
X4350Y12375D01*
X4350Y12375D02*
X4425Y12450D01*
X9128Y12450D02*
X9528Y12850D01*
X4425Y12450D02*
X9128Y12450D01*
X13538Y12850D02*
X9528Y12850D01*
X13913Y12949D02*
X13538Y12850D01*
X16799Y12949D02*
X13913Y12949D01*
X16799Y12949D02*
X17000Y13250D01*
X475Y11575D02*
X475Y11700D01*
X500Y7300D02*
X1201Y7300D01*
X1201Y7300D02*
X2216Y6284D01*
X2216Y6284D02*
X2216Y4416D01*
X2216Y4416D02*
X850Y3050D01*
G54D24*
X19437Y8174D03*
X20151Y8096D03*
X13750Y11750D03*
X22500Y9975D03*
X22200Y7925D03*
X23700Y5000D03*
X17575Y5875D03*
X29980Y9509D03*
X11550Y8750D03*
X11626Y1340D03*
X29000Y2750D03*
X21025Y8375D03*
X16018Y9045D03*
X28550Y6250D03*
X19375Y14325D03*
X30450Y14050D03*
X29450Y14050D03*
X28450Y14050D03*
X2850Y4050D03*
X3850Y4050D03*
X4850Y4050D03*
X5850Y4050D03*
X5850Y7050D03*
X4850Y7050D03*
X3850Y7050D03*
X2850Y7050D03*
X21500Y5250D03*
X20500Y5250D03*
X19500Y5250D03*
X18500Y5250D03*
X17500Y5250D03*
X16500Y5250D03*
X15500Y5250D03*
X14500Y5250D03*
X13500Y5250D03*
X12500Y5250D03*
X12500Y2250D03*
X13500Y2250D03*
X14500Y2250D03*
X15500Y2250D03*
X16500Y2250D03*
X17500Y2250D03*
X18500Y2250D03*
X19500Y2250D03*
X20500Y2250D03*
X21500Y2250D03*
X21500Y9500D03*
X20500Y9500D03*
X19500Y9500D03*
X18500Y9500D03*
X17500Y9500D03*
X16500Y9500D03*
X15500Y9500D03*
X14500Y9500D03*
X13500Y9500D03*
X12500Y9500D03*
X12500Y6500D03*
X13500Y6500D03*
X14500Y6500D03*
X15500Y6500D03*
X16500Y6500D03*
X17500Y6500D03*
X18500Y6500D03*
X19500Y6500D03*
X20500Y6500D03*
X21500Y6500D03*
X475Y8575D03*
X475Y11575D03*
X3850Y1800D03*
X4850Y1800D03*
X5850Y550D03*
X2850Y550D03*
X1600Y6050D03*
X1600Y5050D03*
X31250Y1250D03*
X5025Y10450D03*
X7025Y10450D03*
X7350Y1800D03*
X7350Y800D03*
X8750Y13900D03*
X9750Y13900D03*
X23250Y3250D03*
X23250Y4250D03*
X23250Y7500D03*
X23250Y8500D03*
X1250Y1250D03*
X31500Y8250D03*
X31500Y7250D03*
X30500Y8250D03*
X30500Y7250D03*
X29500Y8250D03*
X29500Y7250D03*
X28500Y8250D03*
X28500Y7250D03*
X31500Y11500D03*
X31500Y10500D03*
X30500Y11500D03*
X30500Y10500D03*
X29500Y11500D03*
X29500Y10500D03*
X28500Y11500D03*
X28500Y10500D03*
X31500Y5000D03*
X31500Y4000D03*
X30500Y5000D03*
X30500Y4000D03*
X29500Y5000D03*
X29500Y4000D03*
X28500Y5000D03*
X28500Y4000D03*
X500Y7300D03*
X500Y4300D03*
X20000Y11250D03*
X23000Y11250D03*
X21000Y1500D03*
X24000Y1500D03*
X11100Y13800D03*
X11100Y10800D03*
X850Y3050D03*
X3850Y3050D03*
X7825Y3050D03*
X4825Y3050D03*
X7100Y4050D03*
X7100Y7050D03*
X5025Y8450D03*
X6025Y8450D03*
X7025Y8450D03*
X9000Y11250D03*
X9000Y10250D03*
X9000Y9250D03*
X9000Y8250D03*
X9000Y7250D03*
X9000Y6250D03*
X9000Y5250D03*
X9000Y4250D03*
X9000Y3250D03*
X9000Y2250D03*
X10000Y11250D03*
X10000Y10250D03*
X10000Y9250D03*
X10000Y8250D03*
X10000Y7250D03*
X10000Y6250D03*
X10000Y5250D03*
X10000Y4250D03*
X10000Y3250D03*
X10000Y2250D03*
X26000Y11250D03*
X26000Y10250D03*
X26000Y9250D03*
X26000Y8250D03*
X26000Y7250D03*
X26000Y6250D03*
X26000Y5250D03*
X26000Y4250D03*
X26000Y3250D03*
X26000Y2250D03*
X27000Y11250D03*
X27000Y10250D03*
X27000Y9250D03*
X27000Y8250D03*
X27000Y7250D03*
X27000Y6250D03*
X27000Y5250D03*
X27000Y4250D03*
X27000Y3250D03*
X27000Y2250D03*
X19500Y1000D03*
X18500Y1000D03*
X17500Y1000D03*
X16500Y1000D03*
X17000Y12250D03*
X17000Y13250D03*
X18000Y12250D03*
X18000Y13250D03*
X19000Y12250D03*
X19000Y13250D03*
X20000Y12250D03*
X20000Y13250D03*
X21000Y12250D03*
X21000Y13250D03*
X22000Y12250D03*
X22000Y13250D03*
X23000Y12250D03*
X23000Y13250D03*
X27350Y12750D03*
X30350Y12750D03*
X2250Y13875D03*
X2250Y12375D03*
X6700Y13300D03*
X5200Y13300D03*
X2400Y10600D03*
X2400Y8600D03*
X14500Y13650D03*
X13500Y13650D03*
X12500Y13650D03*
X12500Y10650D03*
X13500Y10650D03*
X14500Y10650D03*
M02*
