M48
;DRILL file {Pcbnew (2012-nov-02)-testing} date Wed 09 Jan 2013 11:52:18 PM PST
;FORMAT={-:-/ absolute / inch / decimal}
FMAT,2
INCH,TZ
T1C0.025
T2C0.032
T3C0.040
T4C0.110
%
G90
G05
M72
T1
X1.155Y0.875
X1.1626Y0.134
X1.375Y1.175
X1.6019Y0.9045
X1.7575Y0.5875
X1.9375Y1.4325
X1.9437Y0.8175
X2.0151Y0.8096
X2.1025Y0.8375
X2.22Y0.7925
X2.25Y0.9975
X2.37Y0.5
X2.855Y0.625
X2.9Y0.275
X2.998Y0.9509
T2
X0.0475Y1.1575
X0.0475Y0.8575
X0.05Y0.73
X0.05Y0.43
X0.085Y0.305
X0.16Y0.605
X0.16Y0.505
X0.225Y1.3875
X0.225Y1.2375
X0.285Y0.705
X0.285Y0.405
X0.285Y0.055
X0.385Y0.705
X0.385Y0.405
X0.385Y0.305
X0.385Y0.18
X0.4825Y0.305
X0.485Y0.705
X0.485Y0.405
X0.485Y0.18
X0.52Y1.33
X0.585Y0.705
X0.585Y0.405
X0.585Y0.055
X0.67Y1.33
X0.71Y0.705
X0.71Y0.405
X0.735Y0.18
X0.735Y0.08
X0.7825Y0.305
X0.875Y1.39
X0.975Y1.39
X1.11Y1.38
X1.11Y1.08
X1.25Y1.365
X1.25Y1.065
X1.25Y0.95
X1.25Y0.65
X1.25Y0.525
X1.25Y0.225
X1.35Y1.365
X1.35Y1.065
X1.35Y0.95
X1.35Y0.65
X1.35Y0.525
X1.35Y0.225
X1.45Y1.365
X1.45Y1.065
X1.45Y0.95
X1.45Y0.65
X1.45Y0.525
X1.45Y0.225
X1.55Y0.95
X1.55Y0.65
X1.55Y0.525
X1.55Y0.225
X1.65Y0.95
X1.65Y0.65
X1.65Y0.525
X1.65Y0.225
X1.75Y0.95
X1.75Y0.65
X1.75Y0.525
X1.75Y0.225
X1.85Y0.95
X1.85Y0.65
X1.85Y0.525
X1.85Y0.225
X1.95Y0.95
X1.95Y0.65
X1.95Y0.525
X1.95Y0.225
X2.Y1.125
X2.05Y0.95
X2.05Y0.65
X2.05Y0.525
X2.05Y0.225
X2.1Y0.15
X2.15Y0.95
X2.15Y0.65
X2.15Y0.525
X2.15Y0.225
X2.3Y1.125
X2.325Y0.85
X2.325Y0.75
X2.325Y0.425
X2.325Y0.325
X2.4Y0.15
X2.735Y1.275
X2.845Y1.405
X2.945Y1.405
X3.035Y1.275
X3.045Y1.405
T3
X0.24Y1.06
X0.24Y0.86
X0.5025Y1.045
X0.5025Y0.845
X0.6025Y0.845
X0.7025Y1.045
X0.7025Y0.845
X0.9Y1.125
X0.9Y1.025
X0.9Y0.925
X0.9Y0.825
X0.9Y0.725
X0.9Y0.625
X0.9Y0.525
X0.9Y0.425
X0.9Y0.325
X0.9Y0.225
X1.Y1.125
X1.Y1.025
X1.Y0.925
X1.Y0.825
X1.Y0.725
X1.Y0.625
X1.Y0.525
X1.Y0.425
X1.Y0.325
X1.Y0.225
X1.65Y0.1
X1.7Y1.325
X1.7Y1.225
X1.75Y0.1
X1.8Y1.325
X1.8Y1.225
X1.85Y0.1
X1.9Y1.325
X1.9Y1.225
X1.95Y0.1
X2.Y1.325
X2.Y1.225
X2.1Y1.325
X2.1Y1.225
X2.2Y1.325
X2.2Y1.225
X2.3Y1.325
X2.3Y1.225
X2.6Y1.125
X2.6Y1.025
X2.6Y0.925
X2.6Y0.825
X2.6Y0.725
X2.6Y0.625
X2.6Y0.525
X2.6Y0.425
X2.6Y0.325
X2.6Y0.225
X2.7Y1.125
X2.7Y1.025
X2.7Y0.925
X2.7Y0.825
X2.7Y0.725
X2.7Y0.625
X2.7Y0.525
X2.7Y0.425
X2.7Y0.325
X2.7Y0.225
X2.85Y1.15
X2.85Y1.05
X2.85Y0.825
X2.85Y0.725
X2.85Y0.5
X2.85Y0.4
X2.95Y1.15
X2.95Y1.05
X2.95Y0.825
X2.95Y0.725
X2.95Y0.5
X2.95Y0.4
X3.05Y1.15
X3.05Y1.05
X3.05Y0.825
X3.05Y0.725
X3.05Y0.5
X3.05Y0.4
X3.15Y1.15
X3.15Y1.05
X3.15Y0.825
X3.15Y0.725
X3.15Y0.5
X3.15Y0.4
T4
X0.125Y0.125
X3.125Y0.125
T0
M30
