G04 (created by PCBNEW (2012-nov-02)-testing) date Wed 09 Jan 2013 11:48:40 PM PST*
%MOIN*%
G04 Gerber Fmt 3.4, Leading zero omitted, Abs format*
%FSLAX34Y34*%
G01*
G70*
G90*
G04 APERTURE LIST*
%ADD10C,0.0137795*%
%ADD11R,0.055X0.055*%
%ADD12C,0.055*%
%ADD13C,0.2*%
%ADD14C,0.07*%
%ADD15R,0.07X0.07*%
%ADD16R,0.06X0.06*%
%ADD17C,0.06*%
%ADD18R,0.075X0.075*%
%ADD19C,0.075*%
G04 APERTURE END LIST*
G54D10*
G54D11*
X30450Y14050D03*
G54D12*
X29450Y14050D03*
X28450Y14050D03*
G54D11*
X2850Y4050D03*
G54D12*
X3850Y4050D03*
X4850Y4050D03*
X5850Y4050D03*
X5850Y7050D03*
X4850Y7050D03*
X3850Y7050D03*
X2850Y7050D03*
G54D11*
X21500Y5250D03*
G54D12*
X20500Y5250D03*
X19500Y5250D03*
X18500Y5250D03*
X17500Y5250D03*
X16500Y5250D03*
X15500Y5250D03*
X14500Y5250D03*
X13500Y5250D03*
X12500Y5250D03*
X12500Y2250D03*
X13500Y2250D03*
X14500Y2250D03*
X15500Y2250D03*
X16500Y2250D03*
X17500Y2250D03*
X18500Y2250D03*
X19500Y2250D03*
X20500Y2250D03*
X21500Y2250D03*
G54D11*
X21500Y9500D03*
G54D12*
X20500Y9500D03*
X19500Y9500D03*
X18500Y9500D03*
X17500Y9500D03*
X16500Y9500D03*
X15500Y9500D03*
X14500Y9500D03*
X13500Y9500D03*
X12500Y9500D03*
X12500Y6500D03*
X13500Y6500D03*
X14500Y6500D03*
X15500Y6500D03*
X16500Y6500D03*
X17500Y6500D03*
X18500Y6500D03*
X19500Y6500D03*
X20500Y6500D03*
X21500Y6500D03*
G54D11*
X475Y8575D03*
G54D12*
X475Y11575D03*
X3850Y1800D03*
X4850Y1800D03*
G54D11*
X5850Y550D03*
G54D12*
X2850Y550D03*
X1600Y6050D03*
X1600Y5050D03*
G54D13*
X31250Y1250D03*
G54D14*
X5025Y10450D03*
G54D15*
X7025Y10450D03*
G54D12*
X7350Y1800D03*
X7350Y800D03*
X8750Y13900D03*
X9750Y13900D03*
X23250Y3250D03*
X23250Y4250D03*
X23250Y7500D03*
X23250Y8500D03*
G54D13*
X1250Y1250D03*
G54D16*
X31500Y8250D03*
G54D17*
X31500Y7250D03*
X30500Y8250D03*
X30500Y7250D03*
X29500Y8250D03*
X29500Y7250D03*
X28500Y8250D03*
X28500Y7250D03*
G54D16*
X31500Y11500D03*
G54D17*
X31500Y10500D03*
X30500Y11500D03*
X30500Y10500D03*
X29500Y11500D03*
X29500Y10500D03*
X28500Y11500D03*
X28500Y10500D03*
G54D16*
X31500Y5000D03*
G54D17*
X31500Y4000D03*
X30500Y5000D03*
X30500Y4000D03*
X29500Y5000D03*
X29500Y4000D03*
X28500Y5000D03*
X28500Y4000D03*
G54D12*
X500Y7300D03*
X500Y4300D03*
X20000Y11250D03*
X23000Y11250D03*
X21000Y1500D03*
X24000Y1500D03*
X11100Y13800D03*
X11100Y10800D03*
X850Y3050D03*
X3850Y3050D03*
X7825Y3050D03*
X4825Y3050D03*
X7100Y4050D03*
X7100Y7050D03*
G54D14*
X5025Y8450D03*
X6025Y8450D03*
G54D15*
X7025Y8450D03*
G54D16*
X9000Y11250D03*
G54D17*
X9000Y10250D03*
X9000Y9250D03*
X9000Y8250D03*
X9000Y7250D03*
X9000Y6250D03*
X9000Y5250D03*
X9000Y4250D03*
X9000Y3250D03*
X9000Y2250D03*
G54D16*
X10000Y11250D03*
G54D17*
X10000Y10250D03*
X10000Y9250D03*
X10000Y8250D03*
X10000Y7250D03*
X10000Y6250D03*
X10000Y5250D03*
X10000Y4250D03*
X10000Y3250D03*
X10000Y2250D03*
G54D16*
X26000Y11250D03*
G54D17*
X26000Y10250D03*
X26000Y9250D03*
X26000Y8250D03*
X26000Y7250D03*
X26000Y6250D03*
X26000Y5250D03*
X26000Y4250D03*
X26000Y3250D03*
X26000Y2250D03*
G54D16*
X27000Y11250D03*
G54D17*
X27000Y10250D03*
X27000Y9250D03*
X27000Y8250D03*
X27000Y7250D03*
X27000Y6250D03*
X27000Y5250D03*
X27000Y4250D03*
X27000Y3250D03*
X27000Y2250D03*
G54D16*
X19500Y1000D03*
G54D17*
X18500Y1000D03*
X17500Y1000D03*
X16500Y1000D03*
G54D16*
X17000Y12250D03*
G54D17*
X17000Y13250D03*
X18000Y12250D03*
X18000Y13250D03*
X19000Y12250D03*
X19000Y13250D03*
X20000Y12250D03*
X20000Y13250D03*
X21000Y12250D03*
X21000Y13250D03*
X22000Y12250D03*
X22000Y13250D03*
X23000Y12250D03*
X23000Y13250D03*
G54D12*
X27350Y12750D03*
X30350Y12750D03*
G54D11*
X2250Y13875D03*
G54D12*
X2250Y12375D03*
G54D11*
X6700Y13300D03*
G54D12*
X5200Y13300D03*
G54D18*
X2400Y10600D03*
G54D19*
X2400Y8600D03*
G54D11*
X14500Y13650D03*
G54D12*
X13500Y13650D03*
X12500Y13650D03*
X12500Y10650D03*
X13500Y10650D03*
X14500Y10650D03*
M02*
