G04 (created by PCBNEW (2012-nov-02)-testing) date Wed 09 Jan 2013 11:48:40 PM PST*
%MOIN*%
G04 Gerber Fmt 3.4, Leading zero omitted, Abs format*
%FSLAX34Y34*%
G01*
G70*
G90*
G04 APERTURE LIST*
%ADD10C,0.0137795*%
%ADD11C,0.00738189*%
%ADD12C,0.012*%
%ADD13C,0.01*%
%ADD14C,0.015*%
%ADD15C,0.008*%
%ADD16C,0.00590551*%
%ADD17R,0.055X0.055*%
%ADD18C,0.055*%
%ADD19C,0.2*%
%ADD20C,0.07*%
%ADD21R,0.07X0.07*%
%ADD22R,0.06X0.06*%
%ADD23C,0.06*%
%ADD24R,0.075X0.075*%
%ADD25C,0.075*%
G04 APERTURE END LIST*
G54D10*
G54D11*
X24755Y3447D02*
X24769Y3489D01*
X24769Y3559D01*
X24755Y3587D01*
X24741Y3601D01*
X24713Y3616D01*
X24685Y3616D01*
X24657Y3601D01*
X24642Y3587D01*
X24628Y3559D01*
X24614Y3503D01*
X24600Y3475D01*
X24586Y3461D01*
X24558Y3447D01*
X24530Y3447D01*
X24502Y3461D01*
X24488Y3475D01*
X24474Y3503D01*
X24474Y3573D01*
X24488Y3616D01*
X24572Y3700D02*
X24572Y3812D01*
X24474Y3742D02*
X24727Y3742D01*
X24755Y3756D01*
X24769Y3784D01*
X24769Y3812D01*
X24755Y4023D02*
X24769Y3995D01*
X24769Y3939D01*
X24755Y3911D01*
X24727Y3897D01*
X24614Y3897D01*
X24586Y3911D01*
X24572Y3939D01*
X24572Y3995D01*
X24586Y4023D01*
X24614Y4037D01*
X24642Y4037D01*
X24671Y3897D01*
X24769Y4206D02*
X24755Y4178D01*
X24727Y4164D01*
X24474Y4164D01*
X24769Y4361D02*
X24755Y4333D01*
X24727Y4319D01*
X24474Y4319D01*
X24769Y4600D02*
X24614Y4600D01*
X24586Y4586D01*
X24572Y4558D01*
X24572Y4501D01*
X24586Y4473D01*
X24755Y4600D02*
X24769Y4572D01*
X24769Y4501D01*
X24755Y4473D01*
X24727Y4459D01*
X24699Y4459D01*
X24671Y4473D01*
X24657Y4501D01*
X24657Y4572D01*
X24642Y4600D01*
X24769Y4740D02*
X24572Y4740D01*
X24628Y4740D02*
X24600Y4754D01*
X24586Y4768D01*
X24572Y4797D01*
X24572Y4825D01*
X24769Y4923D02*
X24572Y4923D01*
X24474Y4923D02*
X24488Y4909D01*
X24502Y4923D01*
X24488Y4937D01*
X24474Y4923D01*
X24502Y4923D01*
X24755Y5050D02*
X24769Y5078D01*
X24769Y5134D01*
X24755Y5162D01*
X24727Y5176D01*
X24713Y5176D01*
X24685Y5162D01*
X24671Y5134D01*
X24671Y5092D01*
X24657Y5064D01*
X24628Y5050D01*
X24614Y5050D01*
X24586Y5064D01*
X24572Y5092D01*
X24572Y5134D01*
X24586Y5162D01*
X24769Y5668D02*
X24769Y5528D01*
X24474Y5528D01*
X24741Y5936D02*
X24755Y5921D01*
X24769Y5879D01*
X24769Y5851D01*
X24755Y5809D01*
X24727Y5781D01*
X24699Y5767D01*
X24642Y5753D01*
X24600Y5753D01*
X24544Y5767D01*
X24516Y5781D01*
X24488Y5809D01*
X24474Y5851D01*
X24474Y5879D01*
X24488Y5921D01*
X24502Y5936D01*
X24769Y6062D02*
X24474Y6062D01*
X24474Y6132D01*
X24488Y6175D01*
X24516Y6203D01*
X24544Y6217D01*
X24600Y6231D01*
X24642Y6231D01*
X24699Y6217D01*
X24727Y6203D01*
X24755Y6175D01*
X24769Y6132D01*
X24769Y6062D01*
X24769Y6582D02*
X24474Y6582D01*
X24474Y6653D01*
X24488Y6695D01*
X24516Y6723D01*
X24544Y6737D01*
X24600Y6751D01*
X24642Y6751D01*
X24699Y6737D01*
X24727Y6723D01*
X24755Y6695D01*
X24769Y6653D01*
X24769Y6582D01*
X24769Y6878D02*
X24572Y6878D01*
X24628Y6878D02*
X24600Y6892D01*
X24586Y6906D01*
X24572Y6934D01*
X24572Y6962D01*
X24769Y7060D02*
X24572Y7060D01*
X24474Y7060D02*
X24488Y7046D01*
X24502Y7060D01*
X24488Y7074D01*
X24474Y7060D01*
X24502Y7060D01*
X24572Y7173D02*
X24769Y7243D01*
X24572Y7313D01*
X24755Y7538D02*
X24769Y7510D01*
X24769Y7454D01*
X24755Y7426D01*
X24727Y7412D01*
X24614Y7412D01*
X24586Y7426D01*
X24572Y7454D01*
X24572Y7510D01*
X24586Y7538D01*
X24614Y7553D01*
X24642Y7553D01*
X24671Y7412D01*
X24769Y7679D02*
X24572Y7679D01*
X24628Y7679D02*
X24600Y7693D01*
X24586Y7707D01*
X24572Y7735D01*
X24572Y7763D01*
X24657Y8087D02*
X24657Y8312D01*
X24769Y8846D02*
X24628Y8748D01*
X24769Y8677D02*
X24474Y8677D01*
X24474Y8790D01*
X24488Y8818D01*
X24502Y8832D01*
X24530Y8846D01*
X24572Y8846D01*
X24600Y8832D01*
X24614Y8818D01*
X24628Y8790D01*
X24628Y8677D01*
X24755Y9085D02*
X24769Y9057D01*
X24769Y9001D01*
X24755Y8973D01*
X24727Y8959D01*
X24614Y8959D01*
X24586Y8973D01*
X24572Y9001D01*
X24572Y9057D01*
X24586Y9085D01*
X24614Y9099D01*
X24642Y9099D01*
X24671Y8959D01*
X24572Y9198D02*
X24769Y9268D01*
X24572Y9338D01*
X24685Y9662D02*
X24685Y9802D01*
X24769Y9633D02*
X24474Y9732D01*
X24769Y9830D01*
X25369Y3573D02*
X25355Y3559D01*
X25312Y3531D01*
X25284Y3517D01*
X25242Y3503D01*
X25172Y3489D01*
X25116Y3489D01*
X25045Y3503D01*
X25003Y3517D01*
X24975Y3531D01*
X24933Y3559D01*
X24919Y3573D01*
X25242Y3812D02*
X25256Y3784D01*
X25256Y3728D01*
X25242Y3700D01*
X25228Y3686D01*
X25200Y3672D01*
X25116Y3672D01*
X25087Y3686D01*
X25073Y3700D01*
X25059Y3728D01*
X25059Y3784D01*
X25073Y3812D01*
X25369Y3911D02*
X25355Y3925D01*
X25312Y3953D01*
X25284Y3967D01*
X25242Y3981D01*
X25172Y3995D01*
X25116Y3995D01*
X25045Y3981D01*
X25003Y3967D01*
X24975Y3953D01*
X24933Y3925D01*
X24919Y3911D01*
X24989Y4347D02*
X24975Y4361D01*
X24961Y4389D01*
X24961Y4459D01*
X24975Y4487D01*
X24989Y4501D01*
X25017Y4515D01*
X25045Y4515D01*
X25087Y4501D01*
X25256Y4333D01*
X25256Y4515D01*
X24961Y4698D02*
X24961Y4726D01*
X24975Y4754D01*
X24989Y4768D01*
X25017Y4783D01*
X25073Y4797D01*
X25144Y4797D01*
X25200Y4783D01*
X25228Y4768D01*
X25242Y4754D01*
X25256Y4726D01*
X25256Y4698D01*
X25242Y4670D01*
X25228Y4656D01*
X25200Y4642D01*
X25144Y4628D01*
X25073Y4628D01*
X25017Y4642D01*
X24989Y4656D01*
X24975Y4670D01*
X24961Y4698D01*
X25256Y5078D02*
X25256Y4909D01*
X25256Y4993D02*
X24961Y4993D01*
X25003Y4965D01*
X25031Y4937D01*
X25045Y4909D01*
X24989Y5190D02*
X24975Y5204D01*
X24961Y5232D01*
X24961Y5303D01*
X24975Y5331D01*
X24989Y5345D01*
X25017Y5359D01*
X25045Y5359D01*
X25087Y5345D01*
X25256Y5176D01*
X25256Y5359D01*
X25256Y5711D02*
X24961Y5711D01*
X25102Y5711D02*
X25102Y5879D01*
X25256Y5879D02*
X24961Y5879D01*
X25242Y6132D02*
X25256Y6104D01*
X25256Y6048D01*
X25242Y6020D01*
X25214Y6006D01*
X25102Y6006D01*
X25073Y6020D01*
X25059Y6048D01*
X25059Y6104D01*
X25073Y6132D01*
X25102Y6146D01*
X25130Y6146D01*
X25158Y6006D01*
X25059Y6273D02*
X25256Y6273D01*
X25087Y6273D02*
X25073Y6287D01*
X25059Y6315D01*
X25059Y6357D01*
X25073Y6385D01*
X25102Y6400D01*
X25256Y6400D01*
X25256Y6540D02*
X25059Y6540D01*
X25116Y6540D02*
X25087Y6554D01*
X25073Y6568D01*
X25059Y6596D01*
X25059Y6625D01*
X25059Y6695D02*
X25256Y6765D01*
X25059Y6835D02*
X25256Y6765D01*
X25327Y6737D01*
X25341Y6723D01*
X25355Y6695D01*
X25059Y7145D02*
X25256Y7215D01*
X25059Y7285D01*
X25256Y7440D02*
X25242Y7412D01*
X25228Y7398D01*
X25200Y7384D01*
X25116Y7384D01*
X25087Y7398D01*
X25073Y7412D01*
X25059Y7440D01*
X25059Y7482D01*
X25073Y7510D01*
X25087Y7524D01*
X25116Y7538D01*
X25200Y7538D01*
X25228Y7524D01*
X25242Y7510D01*
X25256Y7482D01*
X25256Y7440D01*
X25059Y7665D02*
X25256Y7665D01*
X25087Y7665D02*
X25073Y7679D01*
X25059Y7707D01*
X25059Y7749D01*
X25073Y7777D01*
X25102Y7792D01*
X25256Y7792D01*
X24961Y8115D02*
X24961Y8284D01*
X25256Y8199D02*
X24961Y8199D01*
X25256Y8382D02*
X25059Y8382D01*
X25116Y8382D02*
X25087Y8396D01*
X25073Y8410D01*
X25059Y8438D01*
X25059Y8466D01*
X25242Y8677D02*
X25256Y8649D01*
X25256Y8593D01*
X25242Y8565D01*
X25214Y8551D01*
X25102Y8551D01*
X25073Y8565D01*
X25059Y8593D01*
X25059Y8649D01*
X25073Y8677D01*
X25102Y8691D01*
X25130Y8691D01*
X25158Y8551D01*
X25242Y8804D02*
X25256Y8832D01*
X25256Y8888D01*
X25242Y8916D01*
X25214Y8930D01*
X25200Y8930D01*
X25172Y8916D01*
X25158Y8888D01*
X25158Y8846D01*
X25144Y8818D01*
X25116Y8804D01*
X25102Y8804D01*
X25073Y8818D01*
X25059Y8846D01*
X25059Y8888D01*
X25073Y8916D01*
X25242Y9184D02*
X25256Y9155D01*
X25256Y9099D01*
X25242Y9071D01*
X25228Y9057D01*
X25200Y9043D01*
X25116Y9043D01*
X25087Y9057D01*
X25073Y9071D01*
X25059Y9099D01*
X25059Y9155D01*
X25073Y9184D01*
X25256Y9310D02*
X24961Y9310D01*
X25144Y9338D02*
X25256Y9423D01*
X25059Y9423D02*
X25172Y9310D01*
X25256Y9591D02*
X25242Y9563D01*
X25228Y9549D01*
X25200Y9535D01*
X25116Y9535D01*
X25087Y9549D01*
X25073Y9563D01*
X25059Y9591D01*
X25059Y9633D01*
X25073Y9662D01*
X25087Y9676D01*
X25116Y9690D01*
X25200Y9690D01*
X25228Y9676D01*
X25242Y9662D01*
X25256Y9633D01*
X25256Y9591D01*
X25059Y9788D02*
X25256Y9844D01*
X25116Y9901D01*
X25256Y9957D01*
X25059Y10013D01*
G54D12*
X30950Y14550D02*
X30950Y13550D01*
X30950Y13550D02*
X27950Y13550D01*
X27950Y13550D02*
X27950Y14550D01*
X27950Y14550D02*
X30950Y14550D01*
X29950Y13550D02*
X29950Y14550D01*
G54D13*
X2350Y6050D02*
X2850Y6050D01*
X2850Y6050D02*
X2850Y5050D01*
X2850Y5050D02*
X2350Y5050D01*
X2350Y6550D02*
X6350Y6550D01*
X6350Y6550D02*
X6350Y4550D01*
X6350Y4550D02*
X2350Y4550D01*
X2350Y4550D02*
X2350Y6550D01*
G54D14*
X22500Y3250D02*
X22000Y3250D01*
X22000Y3250D02*
X22000Y4250D01*
X22000Y4250D02*
X22500Y4250D01*
X22500Y2750D02*
X11500Y2750D01*
X11500Y2750D02*
X11500Y4750D01*
X11500Y4750D02*
X22500Y4750D01*
X22500Y4750D02*
X22500Y2750D01*
X22500Y7500D02*
X22000Y7500D01*
X22000Y7500D02*
X22000Y8500D01*
X22000Y8500D02*
X22500Y8500D01*
X22500Y7000D02*
X11500Y7000D01*
X11500Y7000D02*
X11500Y9000D01*
X11500Y9000D02*
X22500Y9000D01*
X22500Y9000D02*
X22500Y7000D01*
G54D12*
X475Y8575D02*
X475Y8875D01*
X475Y8875D02*
X875Y8875D01*
X875Y8875D02*
X875Y11275D01*
X875Y11275D02*
X475Y11275D01*
X475Y11275D02*
X475Y11575D01*
X475Y11275D02*
X75Y11275D01*
X75Y11275D02*
X75Y8875D01*
X75Y8875D02*
X475Y8875D01*
X875Y9075D02*
X75Y9075D01*
X75Y9175D02*
X875Y9175D01*
X3370Y2300D02*
X5350Y2300D01*
X5350Y2300D02*
X5350Y1300D01*
X5350Y1300D02*
X3350Y1300D01*
X3350Y1300D02*
X3350Y2300D01*
X3350Y2050D02*
X3600Y2300D01*
X5850Y550D02*
X5550Y550D01*
X5550Y550D02*
X5550Y950D01*
X5550Y950D02*
X3150Y950D01*
X3150Y950D02*
X3150Y550D01*
X3150Y550D02*
X2850Y550D01*
X3150Y550D02*
X3150Y150D01*
X3150Y150D02*
X5550Y150D01*
X5550Y150D02*
X5550Y550D01*
X5350Y950D02*
X5350Y150D01*
X5250Y150D02*
X5250Y950D01*
X2100Y6530D02*
X2100Y4550D01*
X2100Y4550D02*
X1100Y4550D01*
X1100Y4550D02*
X1100Y6550D01*
X1100Y6550D02*
X2100Y6550D01*
X1850Y6550D02*
X2100Y6300D01*
G54D14*
X4025Y11200D02*
X4025Y11450D01*
X4025Y11450D02*
X8025Y11450D01*
X8025Y11450D02*
X8025Y11200D01*
X4025Y9700D02*
X4025Y11200D01*
X4025Y11200D02*
X8025Y11200D01*
X8025Y11200D02*
X8025Y9700D01*
X8025Y9700D02*
X4025Y9700D01*
G54D12*
X7850Y2280D02*
X7850Y300D01*
X7850Y300D02*
X6850Y300D01*
X6850Y300D02*
X6850Y2300D01*
X6850Y2300D02*
X7850Y2300D01*
X7600Y2300D02*
X7850Y2050D01*
X8270Y14400D02*
X10250Y14400D01*
X10250Y14400D02*
X10250Y13400D01*
X10250Y13400D02*
X8250Y13400D01*
X8250Y13400D02*
X8250Y14400D01*
X8250Y14150D02*
X8500Y14400D01*
X22750Y2770D02*
X22750Y4750D01*
X22750Y4750D02*
X23750Y4750D01*
X23750Y4750D02*
X23750Y2750D01*
X23750Y2750D02*
X22750Y2750D01*
X23000Y2750D02*
X22750Y3000D01*
X22750Y7020D02*
X22750Y9000D01*
X22750Y9000D02*
X23750Y9000D01*
X23750Y9000D02*
X23750Y7000D01*
X23750Y7000D02*
X22750Y7000D01*
X23000Y7000D02*
X22750Y7250D01*
X32000Y6750D02*
X28000Y6750D01*
X28000Y6750D02*
X28000Y8750D01*
X28000Y8750D02*
X32000Y8750D01*
X32000Y8750D02*
X32000Y6750D01*
X32000Y10000D02*
X28000Y10000D01*
X28000Y10000D02*
X28000Y12000D01*
X28000Y12000D02*
X32000Y12000D01*
X32000Y12000D02*
X32000Y10000D01*
X32000Y3500D02*
X28000Y3500D01*
X28000Y3500D02*
X28000Y5500D01*
X28000Y5500D02*
X32000Y5500D01*
X32000Y5500D02*
X32000Y3500D01*
G54D15*
X500Y7300D02*
X500Y7100D01*
X500Y4300D02*
X500Y4500D01*
X500Y4500D02*
X900Y4500D01*
X900Y4500D02*
X900Y7100D01*
X900Y7100D02*
X100Y7100D01*
X100Y7100D02*
X100Y4500D01*
X100Y4500D02*
X500Y4500D01*
X700Y7100D02*
X900Y6900D01*
X20000Y11250D02*
X20200Y11250D01*
X23000Y11250D02*
X22800Y11250D01*
X22800Y11250D02*
X22800Y11650D01*
X22800Y11650D02*
X20200Y11650D01*
X20200Y11650D02*
X20200Y10850D01*
X20200Y10850D02*
X22800Y10850D01*
X22800Y10850D02*
X22800Y11250D01*
X20200Y11450D02*
X20400Y11650D01*
X21000Y1500D02*
X21200Y1500D01*
X24000Y1500D02*
X23800Y1500D01*
X23800Y1500D02*
X23800Y1900D01*
X23800Y1900D02*
X21200Y1900D01*
X21200Y1900D02*
X21200Y1100D01*
X21200Y1100D02*
X23800Y1100D01*
X23800Y1100D02*
X23800Y1500D01*
X21200Y1700D02*
X21400Y1900D01*
X11100Y13800D02*
X11100Y13600D01*
X11100Y10800D02*
X11100Y11000D01*
X11100Y11000D02*
X11500Y11000D01*
X11500Y11000D02*
X11500Y13600D01*
X11500Y13600D02*
X10700Y13600D01*
X10700Y13600D02*
X10700Y11000D01*
X10700Y11000D02*
X11100Y11000D01*
X11300Y13600D02*
X11500Y13400D01*
X850Y3050D02*
X1050Y3050D01*
X3850Y3050D02*
X3650Y3050D01*
X3650Y3050D02*
X3650Y3450D01*
X3650Y3450D02*
X1050Y3450D01*
X1050Y3450D02*
X1050Y2650D01*
X1050Y2650D02*
X3650Y2650D01*
X3650Y2650D02*
X3650Y3050D01*
X1050Y3250D02*
X1250Y3450D01*
X7825Y3050D02*
X7625Y3050D01*
X4825Y3050D02*
X5025Y3050D01*
X5025Y3050D02*
X5025Y2650D01*
X5025Y2650D02*
X7625Y2650D01*
X7625Y2650D02*
X7625Y3450D01*
X7625Y3450D02*
X5025Y3450D01*
X5025Y3450D02*
X5025Y3050D01*
X7625Y2850D02*
X7425Y2650D01*
X7100Y4050D02*
X7100Y4250D01*
X7100Y7050D02*
X7100Y6850D01*
X7100Y6850D02*
X6700Y6850D01*
X6700Y6850D02*
X6700Y4250D01*
X6700Y4250D02*
X7500Y4250D01*
X7500Y4250D02*
X7500Y6850D01*
X7500Y6850D02*
X7100Y6850D01*
X6900Y4250D02*
X6700Y4450D01*
G54D14*
X4025Y9200D02*
X4025Y9450D01*
X4025Y9450D02*
X8025Y9450D01*
X8025Y9450D02*
X8025Y9200D01*
X4025Y7700D02*
X4025Y9200D01*
X4025Y9200D02*
X8025Y9200D01*
X8025Y9200D02*
X8025Y7700D01*
X8025Y7700D02*
X4025Y7700D01*
G54D12*
X8500Y11750D02*
X9500Y11750D01*
X9500Y11750D02*
X9500Y1750D01*
X9500Y1750D02*
X8500Y1750D01*
X8500Y1750D02*
X8500Y11750D01*
X8500Y10750D02*
X9500Y10750D01*
X9500Y11750D02*
X10500Y11750D01*
X10500Y11750D02*
X10500Y1750D01*
X10500Y1750D02*
X9500Y1750D01*
X9500Y1750D02*
X9500Y11750D01*
X9500Y10750D02*
X10500Y10750D01*
X25500Y11750D02*
X26500Y11750D01*
X26500Y11750D02*
X26500Y1750D01*
X26500Y1750D02*
X25500Y1750D01*
X25500Y1750D02*
X25500Y11750D01*
X25500Y10750D02*
X26500Y10750D01*
X26500Y11750D02*
X27500Y11750D01*
X27500Y11750D02*
X27500Y1750D01*
X27500Y1750D02*
X26500Y1750D01*
X26500Y1750D02*
X26500Y11750D01*
X26500Y10750D02*
X27500Y10750D01*
X20000Y500D02*
X20000Y500D01*
X20000Y1500D02*
X20000Y500D01*
X20000Y500D02*
X20000Y500D01*
X20000Y500D02*
X16000Y500D01*
X16000Y500D02*
X16000Y1500D01*
X16000Y1500D02*
X20000Y1500D01*
X19000Y1500D02*
X19000Y500D01*
G54D15*
X27350Y12750D02*
X27550Y12750D01*
X30350Y12750D02*
X30150Y12750D01*
X30150Y12750D02*
X30150Y13150D01*
X30150Y13150D02*
X27550Y13150D01*
X27550Y13150D02*
X27550Y12350D01*
X27550Y12350D02*
X30150Y12350D01*
X30150Y12350D02*
X30150Y12750D01*
X27550Y12950D02*
X27750Y13150D01*
G54D14*
X4000Y13125D02*
G75*
G03X4000Y13125I-1750J0D01*
G74*
G01*
X7700Y13300D02*
G75*
G03X7700Y13300I-1750J0D01*
G74*
G01*
X3900Y9600D02*
G75*
G03X3900Y9600I-1500J0D01*
G74*
G01*
X15250Y11150D02*
X11750Y11150D01*
X11750Y11150D02*
X11750Y13150D01*
X11750Y13150D02*
X15250Y13150D01*
X15250Y13150D02*
X15250Y11150D01*
X15250Y11900D02*
X14750Y11900D01*
X14750Y11900D02*
X14750Y12400D01*
X14750Y12400D02*
X15250Y12400D01*
G54D16*
X31224Y13580D02*
X31125Y13721D01*
X31055Y13580D02*
X31055Y13875D01*
X31167Y13875D01*
X31196Y13861D01*
X31210Y13847D01*
X31224Y13819D01*
X31224Y13777D01*
X31210Y13749D01*
X31196Y13735D01*
X31167Y13721D01*
X31055Y13721D01*
X31308Y13875D02*
X31407Y13580D01*
X31505Y13875D01*
X31758Y13580D02*
X31589Y13580D01*
X31674Y13580D02*
X31674Y13875D01*
X31646Y13833D01*
X31617Y13805D01*
X31589Y13791D01*
X31232Y14475D02*
X31091Y14475D01*
X31077Y14335D01*
X31091Y14349D01*
X31119Y14363D01*
X31189Y14363D01*
X31217Y14349D01*
X31232Y14335D01*
X31246Y14307D01*
X31246Y14236D01*
X31232Y14208D01*
X31217Y14194D01*
X31189Y14180D01*
X31119Y14180D01*
X31091Y14194D01*
X31077Y14208D01*
X31428Y14475D02*
X31457Y14475D01*
X31485Y14461D01*
X31499Y14447D01*
X31513Y14419D01*
X31527Y14363D01*
X31527Y14292D01*
X31513Y14236D01*
X31499Y14208D01*
X31485Y14194D01*
X31457Y14180D01*
X31428Y14180D01*
X31400Y14194D01*
X31386Y14208D01*
X31372Y14236D01*
X31358Y14292D01*
X31358Y14363D01*
X31372Y14419D01*
X31386Y14447D01*
X31400Y14461D01*
X31428Y14475D01*
X31653Y14180D02*
X31653Y14475D01*
X31822Y14180D02*
X31696Y14349D01*
X31822Y14475D02*
X31653Y14307D01*
X1924Y3825D02*
X2163Y3825D01*
X2191Y3839D01*
X2205Y3853D01*
X2219Y3881D01*
X2219Y3937D01*
X2205Y3965D01*
X2191Y3979D01*
X2163Y3993D01*
X1924Y3993D01*
X2219Y4289D02*
X2219Y4120D01*
X2219Y4204D02*
X1924Y4204D01*
X1966Y4176D01*
X1994Y4148D01*
X2008Y4120D01*
X3562Y5430D02*
X3562Y5725D01*
X3661Y5514D01*
X3759Y5725D01*
X3759Y5430D01*
X3885Y5514D02*
X4026Y5514D01*
X3857Y5430D02*
X3956Y5725D01*
X4054Y5430D01*
X4125Y5725D02*
X4321Y5430D01*
X4321Y5725D02*
X4125Y5430D01*
X4406Y5725D02*
X4603Y5725D01*
X4476Y5430D01*
X4687Y5725D02*
X4884Y5725D01*
X4757Y5430D01*
X5123Y5627D02*
X5123Y5430D01*
X5053Y5739D02*
X4982Y5528D01*
X5165Y5528D01*
X10775Y3925D02*
X10775Y3686D01*
X10789Y3658D01*
X10803Y3644D01*
X10831Y3630D01*
X10887Y3630D01*
X10915Y3644D01*
X10929Y3658D01*
X10943Y3686D01*
X10943Y3925D01*
X11056Y3925D02*
X11239Y3925D01*
X11140Y3813D01*
X11182Y3813D01*
X11210Y3799D01*
X11224Y3785D01*
X11239Y3757D01*
X11239Y3686D01*
X11224Y3658D01*
X11210Y3644D01*
X11182Y3630D01*
X11098Y3630D01*
X11070Y3644D01*
X11056Y3658D01*
X15731Y3380D02*
X15731Y3675D01*
X15829Y3464D01*
X15928Y3675D01*
X15928Y3380D01*
X16054Y3394D02*
X16097Y3380D01*
X16167Y3380D01*
X16195Y3394D01*
X16209Y3408D01*
X16223Y3436D01*
X16223Y3464D01*
X16209Y3492D01*
X16195Y3507D01*
X16167Y3521D01*
X16111Y3535D01*
X16082Y3549D01*
X16068Y3563D01*
X16054Y3591D01*
X16054Y3619D01*
X16068Y3647D01*
X16082Y3661D01*
X16111Y3675D01*
X16181Y3675D01*
X16223Y3661D01*
X16350Y3380D02*
X16350Y3675D01*
X16462Y3675D01*
X16490Y3661D01*
X16504Y3647D01*
X16518Y3619D01*
X16518Y3577D01*
X16504Y3549D01*
X16490Y3535D01*
X16462Y3521D01*
X16350Y3521D01*
X16771Y3577D02*
X16771Y3380D01*
X16701Y3689D02*
X16631Y3478D01*
X16814Y3478D01*
X16898Y3675D02*
X17081Y3675D01*
X16982Y3563D01*
X17025Y3563D01*
X17053Y3549D01*
X17067Y3535D01*
X17081Y3507D01*
X17081Y3436D01*
X17067Y3408D01*
X17053Y3394D01*
X17025Y3380D01*
X16940Y3380D01*
X16912Y3394D01*
X16898Y3408D01*
X17264Y3675D02*
X17292Y3675D01*
X17320Y3661D01*
X17334Y3647D01*
X17348Y3619D01*
X17362Y3563D01*
X17362Y3492D01*
X17348Y3436D01*
X17334Y3408D01*
X17320Y3394D01*
X17292Y3380D01*
X17264Y3380D01*
X17235Y3394D01*
X17221Y3408D01*
X17207Y3436D01*
X17193Y3492D01*
X17193Y3563D01*
X17207Y3619D01*
X17221Y3647D01*
X17235Y3661D01*
X17264Y3675D01*
X17643Y3661D02*
X17615Y3675D01*
X17573Y3675D01*
X17531Y3661D01*
X17503Y3633D01*
X17489Y3605D01*
X17474Y3549D01*
X17474Y3507D01*
X17489Y3450D01*
X17503Y3422D01*
X17531Y3394D01*
X17573Y3380D01*
X17601Y3380D01*
X17643Y3394D01*
X17657Y3408D01*
X17657Y3507D01*
X17601Y3507D01*
X17770Y3647D02*
X17784Y3661D01*
X17812Y3675D01*
X17882Y3675D01*
X17910Y3661D01*
X17924Y3647D01*
X17938Y3619D01*
X17938Y3591D01*
X17924Y3549D01*
X17756Y3380D01*
X17938Y3380D01*
X18192Y3577D02*
X18192Y3380D01*
X18121Y3689D02*
X18051Y3478D01*
X18234Y3478D01*
X18487Y3675D02*
X18346Y3675D01*
X18332Y3535D01*
X18346Y3549D01*
X18374Y3563D01*
X18445Y3563D01*
X18473Y3549D01*
X18487Y3535D01*
X18501Y3507D01*
X18501Y3436D01*
X18487Y3408D01*
X18473Y3394D01*
X18445Y3380D01*
X18374Y3380D01*
X18346Y3394D01*
X18332Y3408D01*
X18613Y3647D02*
X18627Y3661D01*
X18656Y3675D01*
X18726Y3675D01*
X18754Y3661D01*
X18768Y3647D01*
X18782Y3619D01*
X18782Y3591D01*
X18768Y3549D01*
X18599Y3380D01*
X18782Y3380D01*
X10775Y8175D02*
X10775Y7936D01*
X10789Y7908D01*
X10803Y7894D01*
X10831Y7880D01*
X10887Y7880D01*
X10915Y7894D01*
X10929Y7908D01*
X10943Y7936D01*
X10943Y8175D01*
X11070Y8147D02*
X11084Y8161D01*
X11112Y8175D01*
X11182Y8175D01*
X11210Y8161D01*
X11224Y8147D01*
X11239Y8119D01*
X11239Y8091D01*
X11224Y8049D01*
X11056Y7880D01*
X11239Y7880D01*
X15329Y8175D02*
X15525Y8175D01*
X15399Y7880D01*
X15764Y8077D02*
X15764Y7880D01*
X15694Y8189D02*
X15624Y7978D01*
X15807Y7978D01*
X16060Y7880D02*
X15919Y7880D01*
X15919Y8175D01*
X16144Y7894D02*
X16186Y7880D01*
X16257Y7880D01*
X16285Y7894D01*
X16299Y7908D01*
X16313Y7936D01*
X16313Y7964D01*
X16299Y7992D01*
X16285Y8007D01*
X16257Y8021D01*
X16200Y8035D01*
X16172Y8049D01*
X16158Y8063D01*
X16144Y8091D01*
X16144Y8119D01*
X16158Y8147D01*
X16172Y8161D01*
X16200Y8175D01*
X16271Y8175D01*
X16313Y8161D01*
X16425Y8147D02*
X16439Y8161D01*
X16467Y8175D01*
X16538Y8175D01*
X16566Y8161D01*
X16580Y8147D01*
X16594Y8119D01*
X16594Y8091D01*
X16580Y8049D01*
X16411Y7880D01*
X16594Y7880D01*
X16847Y8077D02*
X16847Y7880D01*
X16777Y8189D02*
X16706Y7978D01*
X16889Y7978D01*
X17142Y8175D02*
X17002Y8175D01*
X16988Y8035D01*
X17002Y8049D01*
X17030Y8063D01*
X17100Y8063D01*
X17128Y8049D01*
X17142Y8035D01*
X17156Y8007D01*
X17156Y7936D01*
X17142Y7908D01*
X17128Y7894D01*
X17100Y7880D01*
X17030Y7880D01*
X17002Y7894D01*
X16988Y7908D01*
X1032Y10980D02*
X1032Y11275D01*
X1102Y11275D01*
X1144Y11261D01*
X1172Y11233D01*
X1186Y11205D01*
X1200Y11149D01*
X1200Y11107D01*
X1186Y11050D01*
X1172Y11022D01*
X1144Y10994D01*
X1102Y10980D01*
X1032Y10980D01*
X1482Y10980D02*
X1313Y10980D01*
X1397Y10980D02*
X1397Y11275D01*
X1369Y11233D01*
X1341Y11205D01*
X1313Y11191D01*
X5650Y1458D02*
X5636Y1444D01*
X5594Y1430D01*
X5566Y1430D01*
X5524Y1444D01*
X5496Y1472D01*
X5482Y1500D01*
X5467Y1557D01*
X5467Y1599D01*
X5482Y1655D01*
X5496Y1683D01*
X5524Y1711D01*
X5566Y1725D01*
X5594Y1725D01*
X5636Y1711D01*
X5650Y1697D01*
X5903Y1725D02*
X5847Y1725D01*
X5819Y1711D01*
X5805Y1697D01*
X5777Y1655D01*
X5763Y1599D01*
X5763Y1486D01*
X5777Y1458D01*
X5791Y1444D01*
X5819Y1430D01*
X5875Y1430D01*
X5903Y1444D01*
X5917Y1458D01*
X5932Y1486D01*
X5932Y1557D01*
X5917Y1585D01*
X5903Y1599D01*
X5875Y1613D01*
X5819Y1613D01*
X5791Y1599D01*
X5777Y1585D01*
X5763Y1557D01*
X2582Y1080D02*
X2582Y1375D01*
X2652Y1375D01*
X2694Y1361D01*
X2722Y1333D01*
X2736Y1305D01*
X2750Y1249D01*
X2750Y1207D01*
X2736Y1150D01*
X2722Y1122D01*
X2694Y1094D01*
X2652Y1080D01*
X2582Y1080D01*
X2863Y1347D02*
X2877Y1361D01*
X2905Y1375D01*
X2975Y1375D01*
X3003Y1361D01*
X3017Y1347D01*
X3032Y1319D01*
X3032Y1291D01*
X3017Y1249D01*
X2849Y1080D01*
X3032Y1080D01*
X1550Y6958D02*
X1536Y6944D01*
X1494Y6930D01*
X1466Y6930D01*
X1424Y6944D01*
X1396Y6972D01*
X1382Y7000D01*
X1367Y7057D01*
X1367Y7099D01*
X1382Y7155D01*
X1396Y7183D01*
X1424Y7211D01*
X1466Y7225D01*
X1494Y7225D01*
X1536Y7211D01*
X1550Y7197D01*
X1649Y7225D02*
X1846Y7225D01*
X1719Y6930D01*
X4275Y11580D02*
X4177Y11721D01*
X4107Y11580D02*
X4107Y11875D01*
X4219Y11875D01*
X4247Y11861D01*
X4261Y11847D01*
X4275Y11819D01*
X4275Y11777D01*
X4261Y11749D01*
X4247Y11735D01*
X4219Y11721D01*
X4107Y11721D01*
X4528Y11875D02*
X4472Y11875D01*
X4444Y11861D01*
X4430Y11847D01*
X4402Y11805D01*
X4388Y11749D01*
X4388Y11636D01*
X4402Y11608D01*
X4416Y11594D01*
X4444Y11580D01*
X4500Y11580D01*
X4528Y11594D01*
X4542Y11608D01*
X4557Y11636D01*
X4557Y11707D01*
X4542Y11735D01*
X4528Y11749D01*
X4500Y11763D01*
X4444Y11763D01*
X4416Y11749D01*
X4402Y11735D01*
X4388Y11707D01*
X5800Y10625D02*
X5828Y10625D01*
X5856Y10611D01*
X5870Y10597D01*
X5884Y10569D01*
X5898Y10513D01*
X5898Y10442D01*
X5884Y10386D01*
X5870Y10358D01*
X5856Y10344D01*
X5828Y10330D01*
X5800Y10330D01*
X5771Y10344D01*
X5757Y10358D01*
X5743Y10386D01*
X5729Y10442D01*
X5729Y10513D01*
X5743Y10569D01*
X5757Y10597D01*
X5771Y10611D01*
X5800Y10625D01*
X6025Y10358D02*
X6039Y10344D01*
X6025Y10330D01*
X6010Y10344D01*
X6025Y10358D01*
X6025Y10330D01*
X6151Y10597D02*
X6165Y10611D01*
X6193Y10625D01*
X6264Y10625D01*
X6292Y10611D01*
X6306Y10597D01*
X6320Y10569D01*
X6320Y10541D01*
X6306Y10499D01*
X6137Y10330D01*
X6320Y10330D01*
X8291Y500D02*
X8305Y486D01*
X8319Y444D01*
X8319Y416D01*
X8305Y374D01*
X8277Y346D01*
X8249Y332D01*
X8192Y317D01*
X8150Y317D01*
X8094Y332D01*
X8066Y346D01*
X8038Y374D01*
X8024Y416D01*
X8024Y444D01*
X8038Y486D01*
X8052Y500D01*
X8024Y599D02*
X8024Y782D01*
X8136Y683D01*
X8136Y725D01*
X8150Y753D01*
X8164Y767D01*
X8192Y782D01*
X8263Y782D01*
X8291Y767D01*
X8305Y753D01*
X8319Y725D01*
X8319Y641D01*
X8305Y613D01*
X8291Y599D01*
X10591Y13850D02*
X10605Y13836D01*
X10619Y13794D01*
X10619Y13766D01*
X10605Y13724D01*
X10577Y13696D01*
X10549Y13682D01*
X10492Y13667D01*
X10450Y13667D01*
X10394Y13682D01*
X10366Y13696D01*
X10338Y13724D01*
X10324Y13766D01*
X10324Y13794D01*
X10338Y13836D01*
X10352Y13850D01*
X10619Y14132D02*
X10619Y13963D01*
X10619Y14047D02*
X10324Y14047D01*
X10366Y14019D01*
X10394Y13991D01*
X10408Y13963D01*
X24141Y3750D02*
X24155Y3736D01*
X24169Y3694D01*
X24169Y3666D01*
X24155Y3624D01*
X24127Y3596D01*
X24099Y3582D01*
X24042Y3567D01*
X24000Y3567D01*
X23944Y3582D01*
X23916Y3596D01*
X23888Y3624D01*
X23874Y3666D01*
X23874Y3694D01*
X23888Y3736D01*
X23902Y3750D01*
X23972Y4003D02*
X24169Y4003D01*
X23860Y3933D02*
X24071Y3863D01*
X24071Y4046D01*
X24141Y7950D02*
X24155Y7936D01*
X24169Y7894D01*
X24169Y7866D01*
X24155Y7824D01*
X24127Y7796D01*
X24099Y7782D01*
X24042Y7767D01*
X24000Y7767D01*
X23944Y7782D01*
X23916Y7796D01*
X23888Y7824D01*
X23874Y7866D01*
X23874Y7894D01*
X23888Y7936D01*
X23902Y7950D01*
X23874Y8217D02*
X23874Y8077D01*
X24014Y8063D01*
X24000Y8077D01*
X23986Y8105D01*
X23986Y8175D01*
X24000Y8203D01*
X24014Y8217D01*
X24042Y8232D01*
X24113Y8232D01*
X24141Y8217D01*
X24155Y8203D01*
X24169Y8175D01*
X24169Y8105D01*
X24155Y8077D01*
X24141Y8063D01*
X30860Y8905D02*
X30860Y9200D01*
X30959Y8989D01*
X31057Y9200D01*
X31057Y8905D01*
X31198Y8905D02*
X31198Y9200D01*
X31325Y8919D02*
X31367Y8905D01*
X31437Y8905D01*
X31465Y8919D01*
X31479Y8933D01*
X31493Y8961D01*
X31493Y8989D01*
X31479Y9017D01*
X31465Y9032D01*
X31437Y9046D01*
X31381Y9060D01*
X31353Y9074D01*
X31339Y9088D01*
X31325Y9116D01*
X31325Y9144D01*
X31339Y9172D01*
X31353Y9186D01*
X31381Y9200D01*
X31451Y9200D01*
X31493Y9186D01*
X31676Y9200D02*
X31732Y9200D01*
X31760Y9186D01*
X31789Y9158D01*
X31803Y9102D01*
X31803Y9003D01*
X31789Y8947D01*
X31760Y8919D01*
X31732Y8905D01*
X31676Y8905D01*
X31648Y8919D01*
X31620Y8947D01*
X31606Y9003D01*
X31606Y9102D01*
X31620Y9158D01*
X31648Y9186D01*
X31676Y9200D01*
X27958Y6625D02*
X28141Y6625D01*
X28043Y6513D01*
X28085Y6513D01*
X28113Y6499D01*
X28127Y6485D01*
X28141Y6457D01*
X28141Y6386D01*
X28127Y6358D01*
X28113Y6344D01*
X28085Y6330D01*
X28000Y6330D01*
X27972Y6344D01*
X27958Y6358D01*
X28478Y6639D02*
X28225Y6260D01*
X28732Y6330D02*
X28563Y6330D01*
X28647Y6330D02*
X28647Y6625D01*
X28619Y6583D01*
X28591Y6555D01*
X28563Y6541D01*
X28956Y6485D02*
X28999Y6471D01*
X29013Y6457D01*
X29027Y6428D01*
X29027Y6386D01*
X29013Y6358D01*
X28999Y6344D01*
X28971Y6330D01*
X28858Y6330D01*
X28858Y6625D01*
X28956Y6625D01*
X28985Y6611D01*
X28999Y6597D01*
X29013Y6569D01*
X29013Y6541D01*
X28999Y6513D01*
X28985Y6499D01*
X28956Y6485D01*
X28858Y6485D01*
X29415Y6597D02*
X29429Y6611D01*
X29457Y6625D01*
X29528Y6625D01*
X29556Y6611D01*
X29570Y6597D01*
X29584Y6569D01*
X29584Y6541D01*
X29570Y6499D01*
X29401Y6330D01*
X29584Y6330D01*
X30457Y6330D02*
X30289Y6330D01*
X30373Y6330D02*
X30373Y6625D01*
X30345Y6583D01*
X30317Y6555D01*
X30289Y6541D01*
X30570Y6414D02*
X30710Y6414D01*
X30542Y6330D02*
X30640Y6625D01*
X30739Y6330D01*
X31485Y6675D02*
X31514Y6675D01*
X31542Y6661D01*
X31556Y6647D01*
X31570Y6619D01*
X31584Y6563D01*
X31584Y6492D01*
X31570Y6436D01*
X31556Y6408D01*
X31542Y6394D01*
X31514Y6380D01*
X31485Y6380D01*
X31457Y6394D01*
X31443Y6408D01*
X31429Y6436D01*
X31415Y6492D01*
X31415Y6563D01*
X31429Y6619D01*
X31443Y6647D01*
X31457Y6661D01*
X31485Y6675D01*
X30960Y12180D02*
X30960Y12475D01*
X31059Y12264D01*
X31157Y12475D01*
X31157Y12180D01*
X31354Y12475D02*
X31410Y12475D01*
X31439Y12461D01*
X31467Y12433D01*
X31481Y12377D01*
X31481Y12278D01*
X31467Y12222D01*
X31439Y12194D01*
X31410Y12180D01*
X31354Y12180D01*
X31326Y12194D01*
X31298Y12222D01*
X31284Y12278D01*
X31284Y12377D01*
X31298Y12433D01*
X31326Y12461D01*
X31354Y12475D01*
X31593Y12194D02*
X31635Y12180D01*
X31706Y12180D01*
X31734Y12194D01*
X31748Y12208D01*
X31762Y12236D01*
X31762Y12264D01*
X31748Y12292D01*
X31734Y12307D01*
X31706Y12321D01*
X31649Y12335D01*
X31621Y12349D01*
X31607Y12363D01*
X31593Y12391D01*
X31593Y12419D01*
X31607Y12447D01*
X31621Y12461D01*
X31649Y12475D01*
X31720Y12475D01*
X31762Y12461D01*
X31889Y12180D02*
X31889Y12475D01*
X27958Y9875D02*
X28141Y9875D01*
X28043Y9763D01*
X28085Y9763D01*
X28113Y9749D01*
X28127Y9735D01*
X28141Y9707D01*
X28141Y9636D01*
X28127Y9608D01*
X28113Y9594D01*
X28085Y9580D01*
X28000Y9580D01*
X27972Y9594D01*
X27958Y9608D01*
X28478Y9889D02*
X28225Y9510D01*
X28732Y9580D02*
X28563Y9580D01*
X28647Y9580D02*
X28647Y9875D01*
X28619Y9833D01*
X28591Y9805D01*
X28563Y9791D01*
X28956Y9735D02*
X28999Y9721D01*
X29013Y9707D01*
X29027Y9678D01*
X29027Y9636D01*
X29013Y9608D01*
X28999Y9594D01*
X28971Y9580D01*
X28858Y9580D01*
X28858Y9875D01*
X28956Y9875D01*
X28985Y9861D01*
X28999Y9847D01*
X29013Y9819D01*
X29013Y9791D01*
X28999Y9763D01*
X28985Y9749D01*
X28956Y9735D01*
X28858Y9735D01*
X29415Y9847D02*
X29429Y9861D01*
X29457Y9875D01*
X29528Y9875D01*
X29556Y9861D01*
X29570Y9847D01*
X29584Y9819D01*
X29584Y9791D01*
X29570Y9749D01*
X29401Y9580D01*
X29584Y9580D01*
X30457Y9580D02*
X30289Y9580D01*
X30373Y9580D02*
X30373Y9875D01*
X30345Y9833D01*
X30317Y9805D01*
X30289Y9791D01*
X30570Y9664D02*
X30710Y9664D01*
X30542Y9580D02*
X30640Y9875D01*
X30739Y9580D01*
X31485Y9925D02*
X31514Y9925D01*
X31542Y9911D01*
X31556Y9897D01*
X31570Y9869D01*
X31584Y9813D01*
X31584Y9742D01*
X31570Y9686D01*
X31556Y9658D01*
X31542Y9644D01*
X31514Y9630D01*
X31485Y9630D01*
X31457Y9644D01*
X31443Y9658D01*
X31429Y9686D01*
X31415Y9742D01*
X31415Y9813D01*
X31429Y9869D01*
X31443Y9897D01*
X31457Y9911D01*
X31485Y9925D01*
X30925Y5719D02*
X30968Y5705D01*
X31038Y5705D01*
X31066Y5719D01*
X31080Y5733D01*
X31094Y5761D01*
X31094Y5789D01*
X31080Y5817D01*
X31066Y5832D01*
X31038Y5846D01*
X30982Y5860D01*
X30953Y5874D01*
X30939Y5888D01*
X30925Y5916D01*
X30925Y5944D01*
X30939Y5972D01*
X30953Y5986D01*
X30982Y6000D01*
X31052Y6000D01*
X31094Y5986D01*
X31389Y5733D02*
X31375Y5719D01*
X31333Y5705D01*
X31305Y5705D01*
X31263Y5719D01*
X31235Y5747D01*
X31221Y5775D01*
X31207Y5832D01*
X31207Y5874D01*
X31221Y5930D01*
X31235Y5958D01*
X31263Y5986D01*
X31305Y6000D01*
X31333Y6000D01*
X31375Y5986D01*
X31389Y5972D01*
X31657Y5705D02*
X31516Y5705D01*
X31516Y6000D01*
X31755Y5705D02*
X31755Y6000D01*
X31924Y5705D02*
X31797Y5874D01*
X31924Y6000D02*
X31755Y5832D01*
X27958Y3375D02*
X28141Y3375D01*
X28043Y3263D01*
X28085Y3263D01*
X28113Y3249D01*
X28127Y3235D01*
X28141Y3207D01*
X28141Y3136D01*
X28127Y3108D01*
X28113Y3094D01*
X28085Y3080D01*
X28000Y3080D01*
X27972Y3094D01*
X27958Y3108D01*
X28478Y3389D02*
X28225Y3010D01*
X28732Y3080D02*
X28563Y3080D01*
X28647Y3080D02*
X28647Y3375D01*
X28619Y3333D01*
X28591Y3305D01*
X28563Y3291D01*
X28956Y3235D02*
X28999Y3221D01*
X29013Y3207D01*
X29027Y3178D01*
X29027Y3136D01*
X29013Y3108D01*
X28999Y3094D01*
X28971Y3080D01*
X28858Y3080D01*
X28858Y3375D01*
X28956Y3375D01*
X28985Y3361D01*
X28999Y3347D01*
X29013Y3319D01*
X29013Y3291D01*
X28999Y3263D01*
X28985Y3249D01*
X28956Y3235D01*
X28858Y3235D01*
X29415Y3347D02*
X29429Y3361D01*
X29457Y3375D01*
X29528Y3375D01*
X29556Y3361D01*
X29570Y3347D01*
X29584Y3319D01*
X29584Y3291D01*
X29570Y3249D01*
X29401Y3080D01*
X29584Y3080D01*
X30457Y3080D02*
X30289Y3080D01*
X30373Y3080D02*
X30373Y3375D01*
X30345Y3333D01*
X30317Y3305D01*
X30289Y3291D01*
X30570Y3164D02*
X30710Y3164D01*
X30542Y3080D02*
X30640Y3375D01*
X30739Y3080D01*
X31485Y3425D02*
X31514Y3425D01*
X31542Y3411D01*
X31556Y3397D01*
X31570Y3369D01*
X31584Y3313D01*
X31584Y3242D01*
X31570Y3186D01*
X31556Y3158D01*
X31542Y3144D01*
X31514Y3130D01*
X31485Y3130D01*
X31457Y3144D01*
X31443Y3158D01*
X31429Y3186D01*
X31415Y3242D01*
X31415Y3313D01*
X31429Y3369D01*
X31443Y3397D01*
X31457Y3411D01*
X31485Y3425D01*
X1319Y4100D02*
X1178Y4002D01*
X1319Y3932D02*
X1024Y3932D01*
X1024Y4044D01*
X1038Y4072D01*
X1052Y4086D01*
X1080Y4100D01*
X1122Y4100D01*
X1150Y4086D01*
X1164Y4072D01*
X1178Y4044D01*
X1178Y3932D01*
X1319Y4241D02*
X1319Y4297D01*
X1305Y4325D01*
X1291Y4339D01*
X1249Y4367D01*
X1192Y4382D01*
X1080Y4382D01*
X1052Y4367D01*
X1038Y4353D01*
X1024Y4325D01*
X1024Y4269D01*
X1038Y4241D01*
X1052Y4227D01*
X1080Y4213D01*
X1150Y4213D01*
X1178Y4227D01*
X1192Y4241D01*
X1207Y4269D01*
X1207Y4325D01*
X1192Y4353D01*
X1178Y4367D01*
X1150Y4382D01*
X569Y5736D02*
X569Y5567D01*
X569Y5652D02*
X274Y5652D01*
X316Y5624D01*
X344Y5596D01*
X358Y5567D01*
X569Y5863D02*
X274Y5863D01*
X569Y6032D02*
X400Y5905D01*
X274Y6032D02*
X442Y5863D01*
X21150Y11880D02*
X21052Y12021D01*
X20982Y11880D02*
X20982Y12175D01*
X21094Y12175D01*
X21122Y12161D01*
X21136Y12147D01*
X21150Y12119D01*
X21150Y12077D01*
X21136Y12049D01*
X21122Y12035D01*
X21094Y12021D01*
X20982Y12021D01*
X21432Y11880D02*
X21263Y11880D01*
X21347Y11880D02*
X21347Y12175D01*
X21319Y12133D01*
X21291Y12105D01*
X21263Y12091D01*
X21570Y11375D02*
X21429Y11375D01*
X21415Y11235D01*
X21429Y11249D01*
X21457Y11263D01*
X21528Y11263D01*
X21556Y11249D01*
X21570Y11235D01*
X21584Y11207D01*
X21584Y11136D01*
X21570Y11108D01*
X21556Y11094D01*
X21528Y11080D01*
X21457Y11080D01*
X21429Y11094D01*
X21415Y11108D01*
X23150Y730D02*
X23052Y871D01*
X22982Y730D02*
X22982Y1025D01*
X23094Y1025D01*
X23122Y1011D01*
X23136Y997D01*
X23150Y969D01*
X23150Y927D01*
X23136Y899D01*
X23122Y885D01*
X23094Y871D01*
X22982Y871D01*
X23263Y997D02*
X23277Y1011D01*
X23305Y1025D01*
X23375Y1025D01*
X23403Y1011D01*
X23417Y997D01*
X23432Y969D01*
X23432Y941D01*
X23417Y899D01*
X23249Y730D01*
X23432Y730D01*
X22267Y1527D02*
X22267Y1330D01*
X22197Y1639D02*
X22127Y1428D01*
X22310Y1428D01*
X22422Y1330D02*
X22422Y1625D01*
X22591Y1330D02*
X22464Y1499D01*
X22591Y1625D02*
X22422Y1457D01*
X22689Y1625D02*
X22886Y1625D01*
X22760Y1330D01*
X10569Y12825D02*
X10428Y12727D01*
X10569Y12657D02*
X10274Y12657D01*
X10274Y12769D01*
X10288Y12797D01*
X10302Y12811D01*
X10330Y12825D01*
X10372Y12825D01*
X10400Y12811D01*
X10414Y12797D01*
X10428Y12769D01*
X10428Y12657D01*
X10274Y12924D02*
X10274Y13107D01*
X10386Y13008D01*
X10386Y13050D01*
X10400Y13078D01*
X10414Y13092D01*
X10442Y13107D01*
X10513Y13107D01*
X10541Y13092D01*
X10555Y13078D01*
X10569Y13050D01*
X10569Y12966D01*
X10555Y12938D01*
X10541Y12924D01*
X11169Y12103D02*
X11169Y11934D01*
X11169Y12018D02*
X10874Y12018D01*
X10916Y11990D01*
X10944Y11962D01*
X10958Y11934D01*
X10874Y12285D02*
X10874Y12314D01*
X10888Y12342D01*
X10902Y12356D01*
X10930Y12370D01*
X10986Y12384D01*
X11057Y12384D01*
X11113Y12370D01*
X11141Y12356D01*
X11155Y12342D01*
X11169Y12314D01*
X11169Y12285D01*
X11155Y12257D01*
X11141Y12243D01*
X11113Y12229D01*
X11057Y12215D01*
X10986Y12215D01*
X10930Y12229D01*
X10902Y12243D01*
X10888Y12257D01*
X10874Y12285D01*
X10874Y12567D02*
X10874Y12595D01*
X10888Y12623D01*
X10902Y12637D01*
X10930Y12651D01*
X10986Y12665D01*
X11057Y12665D01*
X11113Y12651D01*
X11141Y12637D01*
X11155Y12623D01*
X11169Y12595D01*
X11169Y12567D01*
X11155Y12539D01*
X11141Y12524D01*
X11113Y12510D01*
X11057Y12496D01*
X10986Y12496D01*
X10930Y12510D01*
X10902Y12524D01*
X10888Y12539D01*
X10874Y12567D01*
X2300Y2280D02*
X2202Y2421D01*
X2132Y2280D02*
X2132Y2575D01*
X2244Y2575D01*
X2272Y2561D01*
X2286Y2547D01*
X2300Y2519D01*
X2300Y2477D01*
X2286Y2449D01*
X2272Y2435D01*
X2244Y2421D01*
X2132Y2421D01*
X2399Y2575D02*
X2596Y2575D01*
X2469Y2280D01*
X1885Y3147D02*
X1900Y3161D01*
X1928Y3175D01*
X1998Y3175D01*
X2026Y3161D01*
X2040Y3147D01*
X2054Y3119D01*
X2054Y3091D01*
X2040Y3049D01*
X1871Y2880D01*
X2054Y2880D01*
X2181Y2908D02*
X2195Y2894D01*
X2181Y2880D01*
X2167Y2894D01*
X2181Y2908D01*
X2181Y2880D01*
X2293Y3175D02*
X2490Y3175D01*
X2364Y2880D01*
X2603Y2880D02*
X2603Y3175D01*
X2701Y2964D01*
X2799Y3175D01*
X2799Y2880D01*
X5975Y2230D02*
X5877Y2371D01*
X5807Y2230D02*
X5807Y2525D01*
X5919Y2525D01*
X5947Y2511D01*
X5961Y2497D01*
X5975Y2469D01*
X5975Y2427D01*
X5961Y2399D01*
X5947Y2385D01*
X5919Y2371D01*
X5807Y2371D01*
X6242Y2525D02*
X6102Y2525D01*
X6088Y2385D01*
X6102Y2399D01*
X6130Y2413D01*
X6200Y2413D01*
X6228Y2399D01*
X6242Y2385D01*
X6257Y2357D01*
X6257Y2286D01*
X6242Y2258D01*
X6228Y2244D01*
X6200Y2230D01*
X6130Y2230D01*
X6102Y2244D01*
X6088Y2258D01*
X5980Y2980D02*
X5811Y2980D01*
X5896Y2980D02*
X5896Y3275D01*
X5868Y3233D01*
X5839Y3205D01*
X5811Y3191D01*
X6247Y3275D02*
X6107Y3275D01*
X6092Y3135D01*
X6107Y3149D01*
X6135Y3163D01*
X6205Y3163D01*
X6233Y3149D01*
X6247Y3135D01*
X6261Y3107D01*
X6261Y3036D01*
X6247Y3008D01*
X6233Y2994D01*
X6205Y2980D01*
X6135Y2980D01*
X6107Y2994D01*
X6092Y3008D01*
X6444Y3275D02*
X6472Y3275D01*
X6500Y3261D01*
X6514Y3247D01*
X6528Y3219D01*
X6542Y3163D01*
X6542Y3092D01*
X6528Y3036D01*
X6514Y3008D01*
X6500Y2994D01*
X6472Y2980D01*
X6444Y2980D01*
X6416Y2994D01*
X6402Y3008D01*
X6388Y3036D01*
X6374Y3092D01*
X6374Y3163D01*
X6388Y3219D01*
X6402Y3247D01*
X6416Y3261D01*
X6444Y3275D01*
X6669Y2980D02*
X6669Y3275D01*
X6838Y2980D02*
X6711Y3149D01*
X6838Y3275D02*
X6669Y3107D01*
X7869Y4500D02*
X7728Y4402D01*
X7869Y4332D02*
X7574Y4332D01*
X7574Y4444D01*
X7588Y4472D01*
X7602Y4486D01*
X7630Y4500D01*
X7672Y4500D01*
X7700Y4486D01*
X7714Y4472D01*
X7728Y4444D01*
X7728Y4332D01*
X7672Y4753D02*
X7869Y4753D01*
X7560Y4683D02*
X7771Y4613D01*
X7771Y4796D01*
X7072Y5317D02*
X7269Y5317D01*
X6960Y5247D02*
X7171Y5177D01*
X7171Y5360D01*
X7269Y5472D02*
X6974Y5472D01*
X7269Y5641D02*
X7100Y5514D01*
X6974Y5641D02*
X7142Y5472D01*
X6974Y5739D02*
X6974Y5936D01*
X7269Y5810D01*
X3696Y7452D02*
X3668Y7466D01*
X3640Y7494D01*
X3598Y7536D01*
X3570Y7550D01*
X3542Y7550D01*
X3556Y7480D02*
X3528Y7494D01*
X3500Y7522D01*
X3485Y7578D01*
X3485Y7677D01*
X3500Y7733D01*
X3528Y7761D01*
X3556Y7775D01*
X3612Y7775D01*
X3640Y7761D01*
X3668Y7733D01*
X3682Y7677D01*
X3682Y7578D01*
X3668Y7522D01*
X3640Y7494D01*
X3612Y7480D01*
X3556Y7480D01*
X3964Y7480D02*
X3795Y7480D01*
X3879Y7480D02*
X3879Y7775D01*
X3851Y7733D01*
X3823Y7705D01*
X3795Y7691D01*
X7690Y7944D02*
X7732Y7930D01*
X7803Y7930D01*
X7831Y7944D01*
X7845Y7958D01*
X7859Y7986D01*
X7859Y8014D01*
X7845Y8042D01*
X7831Y8057D01*
X7803Y8071D01*
X7746Y8085D01*
X7718Y8099D01*
X7704Y8113D01*
X7690Y8141D01*
X7690Y8169D01*
X7704Y8197D01*
X7718Y8211D01*
X7746Y8225D01*
X7817Y8225D01*
X7859Y8211D01*
X5447Y7880D02*
X5447Y8175D01*
X5517Y8175D01*
X5560Y8161D01*
X5588Y8133D01*
X5602Y8105D01*
X5616Y8049D01*
X5616Y8007D01*
X5602Y7950D01*
X5588Y7922D01*
X5560Y7894D01*
X5517Y7880D01*
X5447Y7880D01*
X4452Y8211D02*
X4424Y8225D01*
X4382Y8225D01*
X4339Y8211D01*
X4311Y8183D01*
X4297Y8155D01*
X4283Y8099D01*
X4283Y8057D01*
X4297Y8000D01*
X4311Y7972D01*
X4339Y7944D01*
X4382Y7930D01*
X4410Y7930D01*
X4452Y7944D01*
X4466Y7958D01*
X4466Y8057D01*
X4410Y8057D01*
X8901Y12175D02*
X8901Y11964D01*
X8887Y11922D01*
X8859Y11894D01*
X8817Y11880D01*
X8789Y11880D01*
X9196Y11880D02*
X9028Y11880D01*
X9112Y11880D02*
X9112Y12175D01*
X9084Y12133D01*
X9056Y12105D01*
X9028Y12091D01*
X9901Y12175D02*
X9901Y11964D01*
X9887Y11922D01*
X9859Y11894D01*
X9817Y11880D01*
X9789Y11880D01*
X10014Y12175D02*
X10196Y12175D01*
X10098Y12063D01*
X10140Y12063D01*
X10168Y12049D01*
X10182Y12035D01*
X10196Y12007D01*
X10196Y11936D01*
X10182Y11908D01*
X10168Y11894D01*
X10140Y11880D01*
X10056Y11880D01*
X10028Y11894D01*
X10014Y11908D01*
X25901Y12175D02*
X25901Y11964D01*
X25887Y11922D01*
X25859Y11894D01*
X25817Y11880D01*
X25789Y11880D01*
X26168Y12077D02*
X26168Y11880D01*
X26098Y12189D02*
X26028Y11978D01*
X26210Y11978D01*
X26901Y12175D02*
X26901Y11964D01*
X26887Y11922D01*
X26859Y11894D01*
X26817Y11880D01*
X26789Y11880D01*
X27028Y12147D02*
X27042Y12161D01*
X27070Y12175D01*
X27140Y12175D01*
X27168Y12161D01*
X27182Y12147D01*
X27196Y12119D01*
X27196Y12091D01*
X27182Y12049D01*
X27014Y11880D01*
X27196Y11880D01*
X20182Y530D02*
X20182Y825D01*
X20294Y825D01*
X20322Y811D01*
X20336Y797D01*
X20350Y769D01*
X20350Y727D01*
X20336Y699D01*
X20322Y685D01*
X20294Y671D01*
X20182Y671D01*
X20463Y797D02*
X20477Y811D01*
X20505Y825D01*
X20575Y825D01*
X20603Y811D01*
X20617Y797D01*
X20632Y769D01*
X20632Y741D01*
X20617Y699D01*
X20449Y530D01*
X20632Y530D01*
X16275Y461D02*
X16246Y475D01*
X16204Y475D01*
X16162Y461D01*
X16134Y433D01*
X16120Y405D01*
X16106Y349D01*
X16106Y307D01*
X16120Y250D01*
X16134Y222D01*
X16162Y194D01*
X16204Y180D01*
X16232Y180D01*
X16275Y194D01*
X16289Y208D01*
X16289Y307D01*
X16232Y307D01*
X16415Y180D02*
X16415Y475D01*
X16584Y180D01*
X16584Y475D01*
X16724Y180D02*
X16724Y475D01*
X16795Y475D01*
X16837Y461D01*
X16865Y433D01*
X16879Y405D01*
X16893Y349D01*
X16893Y307D01*
X16879Y250D01*
X16865Y222D01*
X16837Y194D01*
X16795Y180D01*
X16724Y180D01*
X17338Y180D02*
X17239Y321D01*
X17169Y180D02*
X17169Y475D01*
X17282Y475D01*
X17310Y461D01*
X17324Y447D01*
X17338Y419D01*
X17338Y377D01*
X17324Y349D01*
X17310Y335D01*
X17282Y321D01*
X17169Y321D01*
X17450Y194D02*
X17492Y180D01*
X17563Y180D01*
X17591Y194D01*
X17605Y208D01*
X17619Y236D01*
X17619Y264D01*
X17605Y292D01*
X17591Y307D01*
X17563Y321D01*
X17507Y335D01*
X17478Y349D01*
X17464Y363D01*
X17450Y391D01*
X17450Y419D01*
X17464Y447D01*
X17478Y461D01*
X17507Y475D01*
X17577Y475D01*
X17619Y461D01*
X17703Y475D02*
X17872Y475D01*
X17788Y180D02*
X17788Y475D01*
X18262Y475D02*
X18431Y475D01*
X18346Y180D02*
X18346Y475D01*
X18515Y194D02*
X18557Y180D01*
X18628Y180D01*
X18656Y194D01*
X18670Y208D01*
X18684Y236D01*
X18684Y264D01*
X18670Y292D01*
X18656Y307D01*
X18628Y321D01*
X18571Y335D01*
X18543Y349D01*
X18529Y363D01*
X18515Y391D01*
X18515Y419D01*
X18529Y447D01*
X18543Y461D01*
X18571Y475D01*
X18642Y475D01*
X18684Y461D01*
X18768Y475D02*
X18937Y475D01*
X18853Y180D02*
X18853Y475D01*
X19310Y292D02*
X19535Y292D01*
X19423Y180D02*
X19423Y405D01*
X19634Y475D02*
X19732Y180D01*
X19831Y475D01*
X23682Y12630D02*
X23682Y12925D01*
X23794Y12925D01*
X23822Y12911D01*
X23836Y12897D01*
X23850Y12869D01*
X23850Y12827D01*
X23836Y12799D01*
X23822Y12785D01*
X23794Y12771D01*
X23682Y12771D01*
X24132Y12630D02*
X23963Y12630D01*
X24047Y12630D02*
X24047Y12925D01*
X24019Y12883D01*
X23991Y12855D01*
X23963Y12841D01*
X27200Y13230D02*
X27102Y13371D01*
X27032Y13230D02*
X27032Y13525D01*
X27144Y13525D01*
X27172Y13511D01*
X27186Y13497D01*
X27200Y13469D01*
X27200Y13427D01*
X27186Y13399D01*
X27172Y13385D01*
X27144Y13371D01*
X27032Y13371D01*
X27369Y13399D02*
X27341Y13413D01*
X27327Y13427D01*
X27313Y13455D01*
X27313Y13469D01*
X27327Y13497D01*
X27341Y13511D01*
X27369Y13525D01*
X27425Y13525D01*
X27453Y13511D01*
X27467Y13497D01*
X27482Y13469D01*
X27482Y13455D01*
X27467Y13427D01*
X27453Y13413D01*
X27425Y13399D01*
X27369Y13399D01*
X27341Y13385D01*
X27327Y13371D01*
X27313Y13342D01*
X27313Y13286D01*
X27327Y13258D01*
X27341Y13244D01*
X27369Y13230D01*
X27425Y13230D01*
X27453Y13244D01*
X27467Y13258D01*
X27482Y13286D01*
X27482Y13342D01*
X27467Y13371D01*
X27453Y13385D01*
X27425Y13399D01*
X28617Y12777D02*
X28617Y12580D01*
X28547Y12889D02*
X28477Y12678D01*
X28660Y12678D01*
X28744Y12875D02*
X28941Y12875D01*
X28814Y12580D01*
X29053Y12580D02*
X29053Y12875D01*
X29222Y12580D02*
X29096Y12749D01*
X29222Y12875D02*
X29053Y12707D01*
X3900Y14333D02*
X3886Y14319D01*
X3844Y14305D01*
X3816Y14305D01*
X3774Y14319D01*
X3746Y14347D01*
X3732Y14375D01*
X3717Y14432D01*
X3717Y14474D01*
X3732Y14530D01*
X3746Y14558D01*
X3774Y14586D01*
X3816Y14600D01*
X3844Y14600D01*
X3886Y14586D01*
X3900Y14572D01*
X4041Y14305D02*
X4097Y14305D01*
X4125Y14319D01*
X4139Y14333D01*
X4167Y14375D01*
X4182Y14432D01*
X4182Y14544D01*
X4167Y14572D01*
X4153Y14586D01*
X4125Y14600D01*
X4069Y14600D01*
X4041Y14586D01*
X4027Y14572D01*
X4013Y14544D01*
X4013Y14474D01*
X4027Y14446D01*
X4041Y14432D01*
X4069Y14417D01*
X4125Y14417D01*
X4153Y14432D01*
X4167Y14446D01*
X4182Y14474D01*
X1758Y13149D02*
X1730Y13163D01*
X1716Y13177D01*
X1702Y13205D01*
X1702Y13219D01*
X1716Y13247D01*
X1730Y13261D01*
X1758Y13275D01*
X1814Y13275D01*
X1843Y13261D01*
X1857Y13247D01*
X1871Y13219D01*
X1871Y13205D01*
X1857Y13177D01*
X1843Y13163D01*
X1814Y13149D01*
X1758Y13149D01*
X1730Y13135D01*
X1716Y13121D01*
X1702Y13092D01*
X1702Y13036D01*
X1716Y13008D01*
X1730Y12994D01*
X1758Y12980D01*
X1814Y12980D01*
X1843Y12994D01*
X1857Y13008D01*
X1871Y13036D01*
X1871Y13092D01*
X1857Y13121D01*
X1843Y13135D01*
X1814Y13149D01*
X1983Y13247D02*
X1997Y13261D01*
X2025Y13275D01*
X2096Y13275D01*
X2124Y13261D01*
X2138Y13247D01*
X2152Y13219D01*
X2152Y13191D01*
X2138Y13149D01*
X1969Y12980D01*
X2152Y12980D01*
X2630Y13177D02*
X2630Y12980D01*
X2503Y13177D02*
X2503Y13022D01*
X2517Y12994D01*
X2546Y12980D01*
X2588Y12980D01*
X2616Y12994D01*
X2630Y13008D01*
X2869Y13135D02*
X2771Y13135D01*
X2771Y12980D02*
X2771Y13275D01*
X2911Y13275D01*
X2307Y14362D02*
X2307Y14587D01*
X2419Y14475D02*
X2194Y14475D01*
X7700Y14508D02*
X7686Y14494D01*
X7644Y14480D01*
X7616Y14480D01*
X7574Y14494D01*
X7546Y14522D01*
X7532Y14550D01*
X7517Y14607D01*
X7517Y14649D01*
X7532Y14705D01*
X7546Y14733D01*
X7574Y14761D01*
X7616Y14775D01*
X7644Y14775D01*
X7686Y14761D01*
X7700Y14747D01*
X7813Y14747D02*
X7827Y14761D01*
X7855Y14775D01*
X7925Y14775D01*
X7953Y14761D01*
X7967Y14747D01*
X7982Y14719D01*
X7982Y14691D01*
X7967Y14649D01*
X7799Y14480D01*
X7982Y14480D01*
X5172Y14075D02*
X5355Y14075D01*
X5257Y13963D01*
X5299Y13963D01*
X5327Y13949D01*
X5341Y13935D01*
X5355Y13907D01*
X5355Y13836D01*
X5341Y13808D01*
X5327Y13794D01*
X5299Y13780D01*
X5214Y13780D01*
X5186Y13794D01*
X5172Y13808D01*
X5453Y14075D02*
X5636Y14075D01*
X5538Y13963D01*
X5580Y13963D01*
X5608Y13949D01*
X5622Y13935D01*
X5636Y13907D01*
X5636Y13836D01*
X5622Y13808D01*
X5608Y13794D01*
X5580Y13780D01*
X5496Y13780D01*
X5468Y13794D01*
X5453Y13808D01*
X5819Y14075D02*
X5847Y14075D01*
X5875Y14061D01*
X5889Y14047D01*
X5903Y14019D01*
X5917Y13963D01*
X5917Y13892D01*
X5903Y13836D01*
X5889Y13808D01*
X5875Y13794D01*
X5847Y13780D01*
X5819Y13780D01*
X5791Y13794D01*
X5777Y13808D01*
X5763Y13836D01*
X5749Y13892D01*
X5749Y13963D01*
X5763Y14019D01*
X5777Y14047D01*
X5791Y14061D01*
X5819Y14075D01*
X6396Y13977D02*
X6396Y13780D01*
X6269Y13977D02*
X6269Y13822D01*
X6283Y13794D01*
X6311Y13780D01*
X6353Y13780D01*
X6381Y13794D01*
X6396Y13808D01*
X6635Y13935D02*
X6536Y13935D01*
X6536Y13780D02*
X6536Y14075D01*
X6677Y14075D01*
X7187Y13242D02*
X7412Y13242D01*
X7300Y13130D02*
X7300Y13355D01*
X3525Y11005D02*
X3385Y11005D01*
X3385Y11300D01*
X3778Y11005D02*
X3610Y11005D01*
X3694Y11005D02*
X3694Y11300D01*
X3666Y11258D01*
X3638Y11230D01*
X3610Y11216D01*
X1824Y9772D02*
X1838Y9786D01*
X1866Y9800D01*
X1936Y9800D01*
X1964Y9786D01*
X1978Y9772D01*
X1993Y9744D01*
X1993Y9716D01*
X1978Y9674D01*
X1810Y9505D01*
X1993Y9505D01*
X2105Y9772D02*
X2119Y9786D01*
X2147Y9800D01*
X2217Y9800D01*
X2246Y9786D01*
X2260Y9772D01*
X2274Y9744D01*
X2274Y9716D01*
X2260Y9674D01*
X2091Y9505D01*
X2274Y9505D01*
X2752Y9702D02*
X2752Y9505D01*
X2625Y9702D02*
X2625Y9547D01*
X2639Y9519D01*
X2667Y9505D01*
X2710Y9505D01*
X2738Y9519D01*
X2752Y9533D01*
X2892Y9505D02*
X2892Y9800D01*
X2892Y9660D02*
X3061Y9660D01*
X3061Y9505D02*
X3061Y9800D01*
X15824Y11925D02*
X16063Y11925D01*
X16091Y11939D01*
X16105Y11953D01*
X16119Y11981D01*
X16119Y12037D01*
X16105Y12065D01*
X16091Y12079D01*
X16063Y12093D01*
X15824Y12093D01*
X15824Y12374D02*
X15824Y12234D01*
X15964Y12220D01*
X15950Y12234D01*
X15936Y12262D01*
X15936Y12332D01*
X15950Y12360D01*
X15964Y12374D01*
X15992Y12389D01*
X16063Y12389D01*
X16091Y12374D01*
X16105Y12360D01*
X16119Y12332D01*
X16119Y12262D01*
X16105Y12234D01*
X16091Y12220D01*
X13120Y12227D02*
X13120Y12030D01*
X13050Y12339D02*
X12979Y12128D01*
X13162Y12128D01*
X13275Y12030D02*
X13275Y12325D01*
X13443Y12030D01*
X13443Y12325D01*
X13570Y12297D02*
X13584Y12311D01*
X13612Y12325D01*
X13682Y12325D01*
X13710Y12311D01*
X13724Y12297D01*
X13739Y12269D01*
X13739Y12241D01*
X13724Y12199D01*
X13556Y12030D01*
X13739Y12030D01*
X13992Y12325D02*
X13935Y12325D01*
X13907Y12311D01*
X13893Y12297D01*
X13865Y12255D01*
X13851Y12199D01*
X13851Y12086D01*
X13865Y12058D01*
X13879Y12044D01*
X13907Y12030D01*
X13964Y12030D01*
X13992Y12044D01*
X14006Y12058D01*
X14020Y12086D01*
X14020Y12157D01*
X14006Y12185D01*
X13992Y12199D01*
X13964Y12213D01*
X13907Y12213D01*
X13879Y12199D01*
X13865Y12185D01*
X13851Y12157D01*
%LPC*%
G54D17*
X30450Y14050D03*
G54D18*
X29450Y14050D03*
X28450Y14050D03*
G54D17*
X2850Y4050D03*
G54D18*
X3850Y4050D03*
X4850Y4050D03*
X5850Y4050D03*
X5850Y7050D03*
X4850Y7050D03*
X3850Y7050D03*
X2850Y7050D03*
G54D17*
X21500Y5250D03*
G54D18*
X20500Y5250D03*
X19500Y5250D03*
X18500Y5250D03*
X17500Y5250D03*
X16500Y5250D03*
X15500Y5250D03*
X14500Y5250D03*
X13500Y5250D03*
X12500Y5250D03*
X12500Y2250D03*
X13500Y2250D03*
X14500Y2250D03*
X15500Y2250D03*
X16500Y2250D03*
X17500Y2250D03*
X18500Y2250D03*
X19500Y2250D03*
X20500Y2250D03*
X21500Y2250D03*
G54D17*
X21500Y9500D03*
G54D18*
X20500Y9500D03*
X19500Y9500D03*
X18500Y9500D03*
X17500Y9500D03*
X16500Y9500D03*
X15500Y9500D03*
X14500Y9500D03*
X13500Y9500D03*
X12500Y9500D03*
X12500Y6500D03*
X13500Y6500D03*
X14500Y6500D03*
X15500Y6500D03*
X16500Y6500D03*
X17500Y6500D03*
X18500Y6500D03*
X19500Y6500D03*
X20500Y6500D03*
X21500Y6500D03*
G54D17*
X475Y8575D03*
G54D18*
X475Y11575D03*
X3850Y1800D03*
X4850Y1800D03*
G54D17*
X5850Y550D03*
G54D18*
X2850Y550D03*
X1600Y6050D03*
X1600Y5050D03*
G54D19*
X31250Y1250D03*
G54D20*
X5025Y10450D03*
G54D21*
X7025Y10450D03*
G54D18*
X7350Y1800D03*
X7350Y800D03*
X8750Y13900D03*
X9750Y13900D03*
X23250Y3250D03*
X23250Y4250D03*
X23250Y7500D03*
X23250Y8500D03*
G54D19*
X1250Y1250D03*
G54D22*
X31500Y8250D03*
G54D23*
X31500Y7250D03*
X30500Y8250D03*
X30500Y7250D03*
X29500Y8250D03*
X29500Y7250D03*
X28500Y8250D03*
X28500Y7250D03*
G54D22*
X31500Y11500D03*
G54D23*
X31500Y10500D03*
X30500Y11500D03*
X30500Y10500D03*
X29500Y11500D03*
X29500Y10500D03*
X28500Y11500D03*
X28500Y10500D03*
G54D22*
X31500Y5000D03*
G54D23*
X31500Y4000D03*
X30500Y5000D03*
X30500Y4000D03*
X29500Y5000D03*
X29500Y4000D03*
X28500Y5000D03*
X28500Y4000D03*
G54D18*
X500Y7300D03*
X500Y4300D03*
X20000Y11250D03*
X23000Y11250D03*
X21000Y1500D03*
X24000Y1500D03*
X11100Y13800D03*
X11100Y10800D03*
X850Y3050D03*
X3850Y3050D03*
X7825Y3050D03*
X4825Y3050D03*
X7100Y4050D03*
X7100Y7050D03*
G54D20*
X5025Y8450D03*
X6025Y8450D03*
G54D21*
X7025Y8450D03*
G54D22*
X9000Y11250D03*
G54D23*
X9000Y10250D03*
X9000Y9250D03*
X9000Y8250D03*
X9000Y7250D03*
X9000Y6250D03*
X9000Y5250D03*
X9000Y4250D03*
X9000Y3250D03*
X9000Y2250D03*
G54D22*
X10000Y11250D03*
G54D23*
X10000Y10250D03*
X10000Y9250D03*
X10000Y8250D03*
X10000Y7250D03*
X10000Y6250D03*
X10000Y5250D03*
X10000Y4250D03*
X10000Y3250D03*
X10000Y2250D03*
G54D22*
X26000Y11250D03*
G54D23*
X26000Y10250D03*
X26000Y9250D03*
X26000Y8250D03*
X26000Y7250D03*
X26000Y6250D03*
X26000Y5250D03*
X26000Y4250D03*
X26000Y3250D03*
X26000Y2250D03*
G54D22*
X27000Y11250D03*
G54D23*
X27000Y10250D03*
X27000Y9250D03*
X27000Y8250D03*
X27000Y7250D03*
X27000Y6250D03*
X27000Y5250D03*
X27000Y4250D03*
X27000Y3250D03*
X27000Y2250D03*
G54D22*
X19500Y1000D03*
G54D23*
X18500Y1000D03*
X17500Y1000D03*
X16500Y1000D03*
G54D22*
X17000Y12250D03*
G54D23*
X17000Y13250D03*
X18000Y12250D03*
X18000Y13250D03*
X19000Y12250D03*
X19000Y13250D03*
X20000Y12250D03*
X20000Y13250D03*
X21000Y12250D03*
X21000Y13250D03*
X22000Y12250D03*
X22000Y13250D03*
X23000Y12250D03*
X23000Y13250D03*
G54D18*
X27350Y12750D03*
X30350Y12750D03*
G54D17*
X2250Y13875D03*
G54D18*
X2250Y12375D03*
G54D17*
X6700Y13300D03*
G54D18*
X5200Y13300D03*
G54D24*
X2400Y10600D03*
G54D25*
X2400Y8600D03*
G54D17*
X14500Y13650D03*
G54D18*
X13500Y13650D03*
X12500Y13650D03*
X12500Y10650D03*
X13500Y10650D03*
X14500Y10650D03*
M02*
