G04 (created by PCBNEW (2012-nov-02)-testing) date Wed 09 Jan 2013 11:48:40 PM PST*
%MOIN*%
G04 Gerber Fmt 3.4, Leading zero omitted, Abs format*
%FSLAX34Y34*%
G01*
G70*
G90*
G04 APERTURE LIST*
%ADD10C,0.0137795*%
%ADD11R,0.055X0.055*%
%ADD12C,0.055*%
%ADD13C,0.2*%
%ADD14C,0.07*%
%ADD15R,0.07X0.07*%
%ADD16R,0.06X0.06*%
%ADD17C,0.06*%
%ADD18R,0.075X0.075*%
%ADD19C,0.075*%
%ADD20C,0.045*%
%ADD21C,0.02*%
%ADD22C,0.012*%
%ADD23C,0.01*%
%ADD24C,0.0137795*%
G04 APERTURE END LIST*
G54D10*
G54D11*
X30450Y14050D03*
G54D12*
X29450Y14050D03*
X28450Y14050D03*
G54D11*
X2850Y4050D03*
G54D12*
X3850Y4050D03*
X4850Y4050D03*
X5850Y4050D03*
X5850Y7050D03*
X4850Y7050D03*
X3850Y7050D03*
X2850Y7050D03*
G54D11*
X21500Y5250D03*
G54D12*
X20500Y5250D03*
X19500Y5250D03*
X18500Y5250D03*
X17500Y5250D03*
X16500Y5250D03*
X15500Y5250D03*
X14500Y5250D03*
X13500Y5250D03*
X12500Y5250D03*
X12500Y2250D03*
X13500Y2250D03*
X14500Y2250D03*
X15500Y2250D03*
X16500Y2250D03*
X17500Y2250D03*
X18500Y2250D03*
X19500Y2250D03*
X20500Y2250D03*
X21500Y2250D03*
G54D11*
X21500Y9500D03*
G54D12*
X20500Y9500D03*
X19500Y9500D03*
X18500Y9500D03*
X17500Y9500D03*
X16500Y9500D03*
X15500Y9500D03*
X14500Y9500D03*
X13500Y9500D03*
X12500Y9500D03*
X12500Y6500D03*
X13500Y6500D03*
X14500Y6500D03*
X15500Y6500D03*
X16500Y6500D03*
X17500Y6500D03*
X18500Y6500D03*
X19500Y6500D03*
X20500Y6500D03*
X21500Y6500D03*
G54D11*
X475Y8575D03*
G54D12*
X475Y11575D03*
X3850Y1800D03*
X4850Y1800D03*
G54D11*
X5850Y550D03*
G54D12*
X2850Y550D03*
X1600Y6050D03*
X1600Y5050D03*
G54D13*
X31250Y1250D03*
G54D14*
X5025Y10450D03*
G54D15*
X7025Y10450D03*
G54D12*
X7350Y1800D03*
X7350Y800D03*
X8750Y13900D03*
X9750Y13900D03*
X23250Y3250D03*
X23250Y4250D03*
X23250Y7500D03*
X23250Y8500D03*
G54D13*
X1250Y1250D03*
G54D16*
X31500Y8250D03*
G54D17*
X31500Y7250D03*
X30500Y8250D03*
X30500Y7250D03*
X29500Y8250D03*
X29500Y7250D03*
X28500Y8250D03*
X28500Y7250D03*
G54D16*
X31500Y11500D03*
G54D17*
X31500Y10500D03*
X30500Y11500D03*
X30500Y10500D03*
X29500Y11500D03*
X29500Y10500D03*
X28500Y11500D03*
X28500Y10500D03*
G54D16*
X31500Y5000D03*
G54D17*
X31500Y4000D03*
X30500Y5000D03*
X30500Y4000D03*
X29500Y5000D03*
X29500Y4000D03*
X28500Y5000D03*
X28500Y4000D03*
G54D12*
X500Y7300D03*
X500Y4300D03*
X20000Y11250D03*
X23000Y11250D03*
X21000Y1500D03*
X24000Y1500D03*
X11100Y13800D03*
X11100Y10800D03*
X850Y3050D03*
X3850Y3050D03*
X7825Y3050D03*
X4825Y3050D03*
X7100Y4050D03*
X7100Y7050D03*
G54D14*
X5025Y8450D03*
X6025Y8450D03*
G54D15*
X7025Y8450D03*
G54D16*
X9000Y11250D03*
G54D17*
X9000Y10250D03*
X9000Y9250D03*
X9000Y8250D03*
X9000Y7250D03*
X9000Y6250D03*
X9000Y5250D03*
X9000Y4250D03*
X9000Y3250D03*
X9000Y2250D03*
G54D16*
X10000Y11250D03*
G54D17*
X10000Y10250D03*
X10000Y9250D03*
X10000Y8250D03*
X10000Y7250D03*
X10000Y6250D03*
X10000Y5250D03*
X10000Y4250D03*
X10000Y3250D03*
X10000Y2250D03*
G54D16*
X26000Y11250D03*
G54D17*
X26000Y10250D03*
X26000Y9250D03*
X26000Y8250D03*
X26000Y7250D03*
X26000Y6250D03*
X26000Y5250D03*
X26000Y4250D03*
X26000Y3250D03*
X26000Y2250D03*
G54D16*
X27000Y11250D03*
G54D17*
X27000Y10250D03*
X27000Y9250D03*
X27000Y8250D03*
X27000Y7250D03*
X27000Y6250D03*
X27000Y5250D03*
X27000Y4250D03*
X27000Y3250D03*
X27000Y2250D03*
G54D16*
X19500Y1000D03*
G54D17*
X18500Y1000D03*
X17500Y1000D03*
X16500Y1000D03*
G54D16*
X17000Y12250D03*
G54D17*
X17000Y13250D03*
X18000Y12250D03*
X18000Y13250D03*
X19000Y12250D03*
X19000Y13250D03*
X20000Y12250D03*
X20000Y13250D03*
X21000Y12250D03*
X21000Y13250D03*
X22000Y12250D03*
X22000Y13250D03*
X23000Y12250D03*
X23000Y13250D03*
G54D12*
X27350Y12750D03*
X30350Y12750D03*
G54D11*
X2250Y13875D03*
G54D12*
X2250Y12375D03*
G54D11*
X6700Y13300D03*
G54D12*
X5200Y13300D03*
G54D18*
X2400Y10600D03*
G54D19*
X2400Y8600D03*
G54D11*
X14500Y13650D03*
G54D12*
X13500Y13650D03*
X12500Y13650D03*
X12500Y10650D03*
X13500Y10650D03*
X14500Y10650D03*
G54D20*
X19437Y8174D03*
X20151Y8096D03*
X13750Y11750D03*
X22500Y9975D03*
X22200Y7925D03*
X23700Y5000D03*
X17575Y5875D03*
X29980Y9509D03*
X11550Y8750D03*
X11626Y1340D03*
X29000Y2750D03*
X21025Y8375D03*
X16018Y9045D03*
X28550Y6250D03*
X19375Y14325D03*
G54D21*
X21500Y5250D02*
X21500Y5745D01*
X22995Y4250D02*
X21995Y5250D01*
X23250Y4250D02*
X22995Y4250D01*
X21500Y5250D02*
X21995Y5250D01*
X21004Y6240D02*
X21500Y5745D01*
X21004Y6716D02*
X21004Y6240D01*
X20671Y7049D02*
X21004Y6716D01*
X20562Y7049D02*
X20671Y7049D01*
X19437Y8174D02*
X20562Y7049D01*
X6700Y13300D02*
X6700Y11425D01*
X6700Y11425D02*
X7025Y11100D01*
X9450Y12100D02*
X8025Y12100D01*
X10000Y11550D02*
X9450Y12100D01*
X7025Y11100D02*
X7025Y10450D01*
X8025Y12100D02*
X7025Y11100D01*
X10700Y12250D02*
X14000Y12250D01*
X14300Y11300D02*
X13500Y10650D01*
X14300Y11950D02*
X14300Y11300D01*
X14000Y12250D02*
X14300Y11950D01*
X10000Y11550D02*
X10700Y12250D01*
X10000Y11550D02*
X10000Y11250D01*
X10000Y11250D02*
X10000Y11550D01*
X21500Y6500D02*
X21500Y6747D01*
X21500Y6747D02*
X20151Y8096D01*
G54D22*
X12500Y10650D02*
X13750Y11750D01*
X18500Y9500D02*
X18500Y9750D01*
X21000Y11400D02*
X21000Y12250D01*
X20350Y10750D02*
X21000Y11400D01*
X19500Y10750D02*
X20350Y10750D01*
X18500Y9750D02*
X19500Y10750D01*
X16000Y4750D02*
X13500Y2250D01*
X16000Y5394D02*
X16000Y4750D01*
X16650Y6044D02*
X16000Y5394D01*
X17044Y6044D02*
X16650Y6044D01*
X17500Y6500D02*
X17044Y6044D01*
X13500Y5500D02*
X13500Y5250D01*
X14500Y6500D02*
X13500Y5500D01*
X15500Y13178D02*
X15500Y9500D01*
X16186Y13865D02*
X15500Y13178D01*
X17384Y13865D02*
X16186Y13865D01*
X18000Y13250D02*
X17384Y13865D01*
X15000Y4750D02*
X12500Y2250D01*
X15000Y5406D02*
X15000Y4750D01*
X15423Y5830D02*
X15000Y5406D01*
X15830Y5830D02*
X15423Y5830D01*
X16500Y6500D02*
X15830Y5830D01*
X18519Y10519D02*
X17500Y9500D01*
X18519Y12703D02*
X18519Y10519D01*
X19000Y13184D02*
X18519Y12703D01*
X19000Y13250D02*
X19000Y13184D01*
X19005Y3744D02*
X20500Y2250D01*
X19000Y6000D02*
X19005Y3744D01*
X19500Y6500D02*
X19000Y6000D01*
X22328Y8708D02*
X22200Y7925D01*
X22500Y9975D02*
X22328Y8708D01*
X18000Y6911D02*
X18000Y6275D01*
X18000Y7340D02*
X18000Y6911D01*
X19249Y8589D02*
X18000Y7340D01*
X20231Y8589D02*
X19249Y8589D01*
X23504Y5315D02*
X20231Y8589D01*
X23700Y5000D02*
X23504Y5315D01*
X18000Y6275D02*
X17575Y5875D01*
X29980Y11019D02*
X29500Y11500D01*
X29980Y9509D02*
X29980Y11019D01*
X12925Y8750D02*
X13500Y9500D01*
X12925Y8750D02*
X11550Y8750D01*
G54D21*
X6025Y8450D02*
X6000Y8450D01*
X3525Y8600D02*
X2400Y8600D01*
X4075Y9150D02*
X3525Y8600D01*
X5300Y9150D02*
X4075Y9150D01*
X6000Y8450D02*
X5300Y9150D01*
X475Y8575D02*
X2375Y8575D01*
X2375Y8575D02*
X2400Y8600D01*
G54D22*
X2394Y4255D02*
X1600Y5050D01*
X2394Y4050D02*
X2394Y4255D01*
X2850Y4050D02*
X2394Y4050D01*
X26113Y10794D02*
X26000Y10794D01*
X26505Y10403D02*
X26113Y10794D01*
X26505Y5048D02*
X26505Y10403D01*
X26788Y4764D02*
X26505Y5048D01*
X27484Y4764D02*
X26788Y4764D01*
X27749Y4500D02*
X27484Y4764D01*
X30000Y4500D02*
X27749Y4500D01*
X30500Y4000D02*
X30000Y4500D01*
X26000Y11250D02*
X26000Y10794D01*
X26500Y150D02*
X13100Y150D01*
X13100Y150D02*
X11626Y1340D01*
X29000Y2750D02*
X26500Y150D01*
X27544Y5794D02*
X27000Y5250D01*
X27544Y8544D02*
X27544Y5794D01*
X29500Y10500D02*
X27544Y8544D01*
X11062Y8187D02*
X10000Y9250D01*
X15160Y8187D02*
X11062Y8187D01*
X16018Y9045D02*
X15160Y8187D01*
X25564Y3772D02*
X21025Y8375D01*
X28272Y3772D02*
X25564Y3772D01*
X28500Y4000D02*
X28272Y3772D01*
X28550Y6750D02*
X28550Y6250D01*
X28500Y7250D02*
X28550Y6750D01*
X17000Y12250D02*
X17480Y12250D01*
X18480Y13418D02*
X19375Y14325D01*
X18480Y13018D02*
X18480Y13418D01*
X18191Y12730D02*
X18480Y13018D01*
X17780Y12730D02*
X18191Y12730D01*
X17480Y12430D02*
X17780Y12730D01*
X17480Y12250D02*
X17480Y12430D01*
G54D10*
G36*
X32320Y1670D02*
X32225Y1900D01*
X31950Y2176D01*
X31950Y4089D01*
X31950Y7339D01*
X31950Y10589D01*
X31950Y10589D01*
X31950Y11229D01*
X31950Y11829D01*
X31927Y11884D01*
X31885Y11927D01*
X31829Y11949D01*
X31770Y11950D01*
X31170Y11950D01*
X31115Y11927D01*
X31072Y11885D01*
X31050Y11829D01*
X31049Y11770D01*
X31049Y11170D01*
X31072Y11115D01*
X31114Y11072D01*
X31170Y11050D01*
X31229Y11049D01*
X31829Y11049D01*
X31884Y11072D01*
X31927Y11114D01*
X31949Y11170D01*
X31950Y11229D01*
X31950Y10589D01*
X31881Y10754D01*
X31755Y10881D01*
X31589Y10949D01*
X31410Y10950D01*
X31245Y10881D01*
X31118Y10755D01*
X31050Y10589D01*
X31049Y10410D01*
X31118Y10245D01*
X31244Y10118D01*
X31410Y10050D01*
X31589Y10049D01*
X31754Y10118D01*
X31881Y10244D01*
X31949Y10410D01*
X31950Y10589D01*
X31950Y7339D01*
X31950Y7339D01*
X31950Y7979D01*
X31950Y8579D01*
X31927Y8634D01*
X31885Y8677D01*
X31829Y8699D01*
X31770Y8700D01*
X31170Y8700D01*
X31115Y8677D01*
X31072Y8635D01*
X31050Y8579D01*
X31049Y8520D01*
X31049Y7920D01*
X31072Y7865D01*
X31114Y7822D01*
X31170Y7800D01*
X31229Y7799D01*
X31829Y7799D01*
X31884Y7822D01*
X31927Y7864D01*
X31949Y7920D01*
X31950Y7979D01*
X31950Y7339D01*
X31881Y7504D01*
X31755Y7631D01*
X31589Y7699D01*
X31410Y7700D01*
X31245Y7631D01*
X31118Y7505D01*
X31050Y7339D01*
X31049Y7160D01*
X31118Y6995D01*
X31244Y6868D01*
X31410Y6800D01*
X31589Y6799D01*
X31754Y6868D01*
X31881Y6994D01*
X31949Y7160D01*
X31950Y7339D01*
X31950Y4089D01*
X31950Y4089D01*
X31950Y4729D01*
X31950Y5329D01*
X31927Y5384D01*
X31885Y5427D01*
X31829Y5449D01*
X31770Y5450D01*
X31170Y5450D01*
X31115Y5427D01*
X31072Y5385D01*
X31050Y5329D01*
X31049Y5270D01*
X31049Y4670D01*
X31072Y4615D01*
X31114Y4572D01*
X31170Y4550D01*
X31229Y4549D01*
X31829Y4549D01*
X31884Y4572D01*
X31927Y4614D01*
X31949Y4670D01*
X31950Y4729D01*
X31950Y4089D01*
X31881Y4254D01*
X31755Y4381D01*
X31589Y4449D01*
X31410Y4450D01*
X31245Y4381D01*
X31118Y4255D01*
X31050Y4089D01*
X31049Y3910D01*
X31118Y3745D01*
X31244Y3618D01*
X31410Y3550D01*
X31589Y3549D01*
X31754Y3618D01*
X31881Y3744D01*
X31949Y3910D01*
X31950Y4089D01*
X31950Y2176D01*
X31902Y2224D01*
X31479Y2399D01*
X31022Y2400D01*
X30950Y2370D01*
X30950Y4089D01*
X30950Y5089D01*
X30950Y7339D01*
X30950Y8339D01*
X30881Y8504D01*
X30755Y8631D01*
X30589Y8699D01*
X30410Y8700D01*
X30245Y8631D01*
X30118Y8505D01*
X30050Y8339D01*
X30049Y8160D01*
X30118Y7995D01*
X30244Y7868D01*
X30410Y7800D01*
X30589Y7799D01*
X30754Y7868D01*
X30881Y7994D01*
X30949Y8160D01*
X30950Y8339D01*
X30950Y7339D01*
X30881Y7504D01*
X30755Y7631D01*
X30589Y7699D01*
X30410Y7700D01*
X30245Y7631D01*
X30118Y7505D01*
X30050Y7339D01*
X30049Y7160D01*
X30118Y6995D01*
X30244Y6868D01*
X30410Y6800D01*
X30589Y6799D01*
X30754Y6868D01*
X30881Y6994D01*
X30949Y7160D01*
X30950Y7339D01*
X30950Y5089D01*
X30881Y5254D01*
X30755Y5381D01*
X30589Y5449D01*
X30410Y5450D01*
X30245Y5381D01*
X30118Y5255D01*
X30050Y5089D01*
X30049Y4910D01*
X30118Y4745D01*
X30244Y4618D01*
X30410Y4550D01*
X30589Y4549D01*
X30754Y4618D01*
X30881Y4744D01*
X30949Y4910D01*
X30950Y5089D01*
X30950Y4089D01*
X30881Y4254D01*
X30755Y4381D01*
X30589Y4449D01*
X30410Y4450D01*
X30365Y4431D01*
X30148Y4648D01*
X30080Y4694D01*
X30000Y4710D01*
X29846Y4710D01*
X29881Y4744D01*
X29949Y4910D01*
X29950Y5089D01*
X29950Y7339D01*
X29950Y8339D01*
X29881Y8504D01*
X29755Y8631D01*
X29589Y8699D01*
X29410Y8700D01*
X29245Y8631D01*
X29118Y8505D01*
X29050Y8339D01*
X29049Y8160D01*
X29118Y7995D01*
X29244Y7868D01*
X29410Y7800D01*
X29589Y7799D01*
X29754Y7868D01*
X29881Y7994D01*
X29949Y8160D01*
X29950Y8339D01*
X29950Y7339D01*
X29881Y7504D01*
X29755Y7631D01*
X29589Y7699D01*
X29410Y7700D01*
X29245Y7631D01*
X29118Y7505D01*
X29050Y7339D01*
X29049Y7160D01*
X29118Y6995D01*
X29244Y6868D01*
X29410Y6800D01*
X29589Y6799D01*
X29754Y6868D01*
X29881Y6994D01*
X29949Y7160D01*
X29950Y7339D01*
X29950Y5089D01*
X29881Y5254D01*
X29755Y5381D01*
X29589Y5449D01*
X29410Y5450D01*
X29245Y5381D01*
X29118Y5255D01*
X29050Y5089D01*
X29049Y4910D01*
X29118Y4745D01*
X29153Y4710D01*
X28846Y4710D01*
X28881Y4744D01*
X28949Y4910D01*
X28950Y5089D01*
X28950Y7339D01*
X28950Y8339D01*
X28881Y8504D01*
X28755Y8631D01*
X28589Y8699D01*
X28410Y8700D01*
X28245Y8631D01*
X28118Y8505D01*
X28050Y8339D01*
X28049Y8160D01*
X28118Y7995D01*
X28244Y7868D01*
X28410Y7800D01*
X28589Y7799D01*
X28754Y7868D01*
X28881Y7994D01*
X28949Y8160D01*
X28950Y8339D01*
X28950Y7339D01*
X28881Y7504D01*
X28755Y7631D01*
X28589Y7699D01*
X28410Y7700D01*
X28245Y7631D01*
X28118Y7505D01*
X28050Y7339D01*
X28049Y7160D01*
X28118Y6995D01*
X28244Y6868D01*
X28330Y6833D01*
X28340Y6738D01*
X28340Y6568D01*
X28337Y6568D01*
X28232Y6462D01*
X28175Y6324D01*
X28174Y6175D01*
X28231Y6037D01*
X28337Y5932D01*
X28475Y5875D01*
X28624Y5874D01*
X28762Y5931D01*
X28867Y6037D01*
X28924Y6175D01*
X28925Y6324D01*
X28868Y6462D01*
X28762Y6567D01*
X28760Y6568D01*
X28760Y6750D01*
X28757Y6760D01*
X28758Y6770D01*
X28749Y6866D01*
X28754Y6868D01*
X28881Y6994D01*
X28949Y7160D01*
X28950Y7339D01*
X28950Y5089D01*
X28881Y5254D01*
X28755Y5381D01*
X28589Y5449D01*
X28410Y5450D01*
X28245Y5381D01*
X28118Y5255D01*
X28050Y5089D01*
X28049Y4910D01*
X28118Y4745D01*
X28153Y4710D01*
X27836Y4710D01*
X27633Y4913D01*
X27565Y4958D01*
X27484Y4974D01*
X27361Y4974D01*
X27381Y4994D01*
X27449Y5160D01*
X27450Y5339D01*
X27431Y5384D01*
X27693Y5646D01*
X27738Y5714D01*
X27754Y5794D01*
X27754Y8457D01*
X29365Y10068D01*
X29410Y10050D01*
X29589Y10049D01*
X29754Y10118D01*
X29770Y10133D01*
X29770Y9828D01*
X29768Y9827D01*
X29662Y9721D01*
X29605Y9584D01*
X29605Y9434D01*
X29662Y9296D01*
X29767Y9191D01*
X29905Y9134D01*
X30054Y9134D01*
X30192Y9191D01*
X30297Y9296D01*
X30355Y9434D01*
X30355Y9583D01*
X30298Y9721D01*
X30192Y9826D01*
X30190Y9827D01*
X30190Y10173D01*
X30244Y10118D01*
X30410Y10050D01*
X30589Y10049D01*
X30754Y10118D01*
X30881Y10244D01*
X30949Y10410D01*
X30950Y10589D01*
X30950Y11589D01*
X30881Y11754D01*
X30875Y11761D01*
X30875Y13804D01*
X30875Y14354D01*
X30852Y14409D01*
X30810Y14452D01*
X30754Y14474D01*
X30695Y14475D01*
X30145Y14475D01*
X30090Y14452D01*
X30047Y14410D01*
X30025Y14354D01*
X30024Y14295D01*
X30024Y13745D01*
X30047Y13690D01*
X30089Y13647D01*
X30145Y13625D01*
X30204Y13624D01*
X30754Y13624D01*
X30809Y13647D01*
X30852Y13689D01*
X30874Y13745D01*
X30875Y13804D01*
X30875Y11761D01*
X30775Y11861D01*
X30775Y12834D01*
X30710Y12990D01*
X30591Y13110D01*
X30434Y13174D01*
X30265Y13175D01*
X30109Y13110D01*
X29989Y12991D01*
X29925Y12834D01*
X29924Y12665D01*
X29989Y12509D01*
X30108Y12389D01*
X30265Y12325D01*
X30434Y12324D01*
X30590Y12389D01*
X30710Y12508D01*
X30774Y12665D01*
X30775Y12834D01*
X30775Y11861D01*
X30755Y11881D01*
X30589Y11949D01*
X30410Y11950D01*
X30245Y11881D01*
X30118Y11755D01*
X30050Y11589D01*
X30049Y11410D01*
X30118Y11245D01*
X30244Y11118D01*
X30410Y11050D01*
X30589Y11049D01*
X30754Y11118D01*
X30881Y11244D01*
X30949Y11410D01*
X30950Y11589D01*
X30950Y10589D01*
X30881Y10754D01*
X30755Y10881D01*
X30589Y10949D01*
X30410Y10950D01*
X30245Y10881D01*
X30190Y10826D01*
X30190Y11019D01*
X30190Y11019D01*
X30190Y11019D01*
X30186Y11035D01*
X30174Y11100D01*
X30174Y11100D01*
X30128Y11168D01*
X30128Y11168D01*
X29931Y11365D01*
X29949Y11410D01*
X29950Y11589D01*
X29881Y11754D01*
X29875Y11761D01*
X29875Y14134D01*
X29810Y14290D01*
X29691Y14410D01*
X29534Y14474D01*
X29365Y14475D01*
X29209Y14410D01*
X29089Y14291D01*
X29025Y14134D01*
X29024Y13965D01*
X29089Y13809D01*
X29208Y13689D01*
X29365Y13625D01*
X29534Y13624D01*
X29690Y13689D01*
X29810Y13808D01*
X29874Y13965D01*
X29875Y14134D01*
X29875Y11761D01*
X29755Y11881D01*
X29589Y11949D01*
X29410Y11950D01*
X29245Y11881D01*
X29118Y11755D01*
X29050Y11589D01*
X29049Y11410D01*
X29118Y11245D01*
X29244Y11118D01*
X29410Y11050D01*
X29589Y11049D01*
X29634Y11068D01*
X29770Y10932D01*
X29770Y10866D01*
X29755Y10881D01*
X29589Y10949D01*
X29410Y10950D01*
X29245Y10881D01*
X29118Y10755D01*
X29050Y10589D01*
X29049Y10410D01*
X29068Y10365D01*
X28950Y10247D01*
X28950Y10589D01*
X28950Y11589D01*
X28881Y11754D01*
X28875Y11761D01*
X28875Y14134D01*
X28810Y14290D01*
X28691Y14410D01*
X28534Y14474D01*
X28365Y14475D01*
X28209Y14410D01*
X28089Y14291D01*
X28025Y14134D01*
X28024Y13965D01*
X28089Y13809D01*
X28208Y13689D01*
X28365Y13625D01*
X28534Y13624D01*
X28690Y13689D01*
X28810Y13808D01*
X28874Y13965D01*
X28875Y14134D01*
X28875Y11761D01*
X28755Y11881D01*
X28589Y11949D01*
X28410Y11950D01*
X28245Y11881D01*
X28118Y11755D01*
X28050Y11589D01*
X28049Y11410D01*
X28118Y11245D01*
X28244Y11118D01*
X28410Y11050D01*
X28589Y11049D01*
X28754Y11118D01*
X28881Y11244D01*
X28949Y11410D01*
X28950Y11589D01*
X28950Y10589D01*
X28881Y10754D01*
X28755Y10881D01*
X28589Y10949D01*
X28410Y10950D01*
X28245Y10881D01*
X28118Y10755D01*
X28050Y10589D01*
X28049Y10410D01*
X28118Y10245D01*
X28244Y10118D01*
X28410Y10050D01*
X28589Y10049D01*
X28754Y10118D01*
X28881Y10244D01*
X28949Y10410D01*
X28950Y10589D01*
X28950Y10247D01*
X27830Y9127D01*
X27830Y12686D01*
X27817Y12874D01*
X27769Y12992D01*
X27690Y13019D01*
X27619Y12948D01*
X27619Y13090D01*
X27592Y13169D01*
X27413Y13230D01*
X27225Y13217D01*
X27107Y13169D01*
X27080Y13090D01*
X27350Y12820D01*
X27619Y13090D01*
X27619Y12948D01*
X27420Y12750D01*
X27690Y12480D01*
X27769Y12507D01*
X27830Y12686D01*
X27830Y9127D01*
X27619Y8916D01*
X27619Y12409D01*
X27350Y12679D01*
X27279Y12608D01*
X27279Y12750D01*
X27009Y13019D01*
X26930Y12992D01*
X26869Y12813D01*
X26882Y12625D01*
X26930Y12507D01*
X27009Y12480D01*
X27279Y12750D01*
X27279Y12608D01*
X27080Y12409D01*
X27107Y12330D01*
X27286Y12269D01*
X27474Y12282D01*
X27592Y12330D01*
X27619Y12409D01*
X27619Y8916D01*
X27500Y8797D01*
X27500Y10910D01*
X27500Y11589D01*
X27469Y11663D01*
X27413Y11719D01*
X27339Y11749D01*
X27260Y11750D01*
X27100Y11750D01*
X27050Y11700D01*
X27050Y11300D01*
X27450Y11300D01*
X27500Y11350D01*
X27500Y11589D01*
X27500Y10910D01*
X27500Y11150D01*
X27450Y11200D01*
X27050Y11200D01*
X27050Y10800D01*
X27100Y10750D01*
X27260Y10749D01*
X27339Y10750D01*
X27413Y10780D01*
X27469Y10836D01*
X27500Y10910D01*
X27500Y8797D01*
X27396Y8693D01*
X27350Y8625D01*
X27335Y8550D01*
X27255Y8631D01*
X27089Y8699D01*
X26910Y8700D01*
X26745Y8631D01*
X26715Y8601D01*
X26715Y8898D01*
X26744Y8868D01*
X26910Y8800D01*
X27089Y8799D01*
X27254Y8868D01*
X27381Y8994D01*
X27449Y9160D01*
X27450Y9339D01*
X27381Y9504D01*
X27255Y9631D01*
X27089Y9699D01*
X26910Y9700D01*
X26745Y9631D01*
X26715Y9601D01*
X26715Y9898D01*
X26744Y9868D01*
X26910Y9800D01*
X27089Y9799D01*
X27254Y9868D01*
X27381Y9994D01*
X27449Y10160D01*
X27450Y10339D01*
X27381Y10504D01*
X27255Y10631D01*
X27089Y10699D01*
X26950Y10700D01*
X26950Y10800D01*
X26950Y11200D01*
X26950Y11300D01*
X26950Y11700D01*
X26900Y11750D01*
X26739Y11750D01*
X26660Y11749D01*
X26586Y11719D01*
X26530Y11663D01*
X26499Y11589D01*
X26500Y11350D01*
X26550Y11300D01*
X26950Y11300D01*
X26950Y11200D01*
X26550Y11200D01*
X26500Y11150D01*
X26499Y10910D01*
X26530Y10836D01*
X26586Y10780D01*
X26660Y10750D01*
X26739Y10749D01*
X26900Y10750D01*
X26950Y10800D01*
X26950Y10700D01*
X26910Y10700D01*
X26745Y10631D01*
X26658Y10544D01*
X26653Y10552D01*
X26653Y10552D01*
X26383Y10822D01*
X26384Y10822D01*
X26427Y10864D01*
X26449Y10920D01*
X26450Y10979D01*
X26450Y11579D01*
X26427Y11634D01*
X26385Y11677D01*
X26329Y11699D01*
X26270Y11700D01*
X25670Y11700D01*
X25615Y11677D01*
X25572Y11635D01*
X25550Y11579D01*
X25549Y11520D01*
X25549Y10920D01*
X25572Y10865D01*
X25614Y10822D01*
X25670Y10800D01*
X25729Y10799D01*
X25790Y10799D01*
X25790Y10794D01*
X25805Y10714D01*
X25836Y10669D01*
X25745Y10631D01*
X25618Y10505D01*
X25550Y10339D01*
X25549Y10160D01*
X25618Y9995D01*
X25744Y9868D01*
X25910Y9800D01*
X26089Y9799D01*
X26254Y9868D01*
X26295Y9908D01*
X26295Y9591D01*
X26255Y9631D01*
X26089Y9699D01*
X25910Y9700D01*
X25745Y9631D01*
X25618Y9505D01*
X25550Y9339D01*
X25549Y9160D01*
X25618Y8995D01*
X25744Y8868D01*
X25910Y8800D01*
X26089Y8799D01*
X26254Y8868D01*
X26295Y8908D01*
X26295Y8591D01*
X26255Y8631D01*
X26089Y8699D01*
X25910Y8700D01*
X25745Y8631D01*
X25618Y8505D01*
X25550Y8339D01*
X25549Y8160D01*
X25618Y7995D01*
X25744Y7868D01*
X25910Y7800D01*
X26089Y7799D01*
X26254Y7868D01*
X26295Y7908D01*
X26295Y7591D01*
X26255Y7631D01*
X26089Y7699D01*
X25910Y7700D01*
X25745Y7631D01*
X25618Y7505D01*
X25550Y7339D01*
X25549Y7160D01*
X25618Y6995D01*
X25744Y6868D01*
X25910Y6800D01*
X26089Y6799D01*
X26254Y6868D01*
X26295Y6908D01*
X26295Y6591D01*
X26255Y6631D01*
X26089Y6699D01*
X25910Y6700D01*
X25745Y6631D01*
X25618Y6505D01*
X25550Y6339D01*
X25549Y6160D01*
X25618Y5995D01*
X25744Y5868D01*
X25910Y5800D01*
X26089Y5799D01*
X26254Y5868D01*
X26295Y5908D01*
X26295Y5591D01*
X26255Y5631D01*
X26089Y5699D01*
X25910Y5700D01*
X25745Y5631D01*
X25618Y5505D01*
X25550Y5339D01*
X25549Y5160D01*
X25618Y4995D01*
X25744Y4868D01*
X25910Y4800D01*
X26089Y4799D01*
X26254Y4868D01*
X26328Y4942D01*
X26356Y4899D01*
X26640Y4616D01*
X26694Y4580D01*
X26618Y4505D01*
X26550Y4339D01*
X26549Y4160D01*
X26618Y3995D01*
X26630Y3982D01*
X26369Y3982D01*
X26381Y3994D01*
X26449Y4160D01*
X26450Y4339D01*
X26381Y4504D01*
X26255Y4631D01*
X26089Y4699D01*
X25910Y4700D01*
X25745Y4631D01*
X25618Y4505D01*
X25550Y4339D01*
X25549Y4160D01*
X25603Y4031D01*
X23730Y5930D01*
X23730Y8436D01*
X23717Y8624D01*
X23669Y8742D01*
X23590Y8769D01*
X23519Y8698D01*
X23519Y8840D01*
X23492Y8919D01*
X23450Y8933D01*
X23450Y12339D01*
X23450Y13339D01*
X23381Y13504D01*
X23255Y13631D01*
X23089Y13699D01*
X22910Y13700D01*
X22745Y13631D01*
X22618Y13505D01*
X22550Y13339D01*
X22549Y13160D01*
X22618Y12995D01*
X22744Y12868D01*
X22910Y12800D01*
X23089Y12799D01*
X23254Y12868D01*
X23381Y12994D01*
X23449Y13160D01*
X23450Y13339D01*
X23450Y12339D01*
X23381Y12504D01*
X23255Y12631D01*
X23089Y12699D01*
X22910Y12700D01*
X22745Y12631D01*
X22618Y12505D01*
X22550Y12339D01*
X22549Y12160D01*
X22618Y11995D01*
X22744Y11868D01*
X22910Y11800D01*
X23089Y11799D01*
X23254Y11868D01*
X23381Y11994D01*
X23449Y12160D01*
X23450Y12339D01*
X23450Y8933D01*
X23425Y8942D01*
X23425Y11334D01*
X23360Y11490D01*
X23241Y11610D01*
X23084Y11674D01*
X22915Y11675D01*
X22759Y11610D01*
X22639Y11491D01*
X22575Y11334D01*
X22574Y11165D01*
X22639Y11009D01*
X22758Y10889D01*
X22915Y10825D01*
X23084Y10824D01*
X23240Y10889D01*
X23360Y11008D01*
X23424Y11165D01*
X23425Y11334D01*
X23425Y8942D01*
X23313Y8980D01*
X23125Y8967D01*
X23007Y8919D01*
X22980Y8840D01*
X23250Y8570D01*
X23519Y8840D01*
X23519Y8698D01*
X23320Y8500D01*
X23590Y8230D01*
X23669Y8257D01*
X23730Y8436D01*
X23730Y5930D01*
X23675Y5986D01*
X23675Y7584D01*
X23610Y7740D01*
X23519Y7831D01*
X23519Y8159D01*
X23250Y8429D01*
X23179Y8358D01*
X23179Y8500D01*
X22909Y8769D01*
X22830Y8742D01*
X22769Y8563D01*
X22782Y8375D01*
X22830Y8257D01*
X22909Y8230D01*
X23179Y8500D01*
X23179Y8358D01*
X22980Y8159D01*
X23007Y8080D01*
X23186Y8019D01*
X23374Y8032D01*
X23492Y8080D01*
X23519Y8159D01*
X23519Y7831D01*
X23491Y7860D01*
X23334Y7924D01*
X23165Y7925D01*
X23009Y7860D01*
X22889Y7741D01*
X22825Y7584D01*
X22824Y7415D01*
X22889Y7259D01*
X23008Y7139D01*
X23165Y7075D01*
X23334Y7074D01*
X23490Y7139D01*
X23610Y7258D01*
X23674Y7415D01*
X23675Y7584D01*
X23675Y5986D01*
X22133Y7550D01*
X22274Y7549D01*
X22412Y7606D01*
X22517Y7712D01*
X22574Y7850D01*
X22575Y7999D01*
X22518Y8137D01*
X22457Y8197D01*
X22535Y8674D01*
X22535Y8676D01*
X22536Y8680D01*
X22666Y9638D01*
X22712Y9656D01*
X22817Y9762D01*
X22874Y9900D01*
X22875Y10049D01*
X22818Y10187D01*
X22712Y10292D01*
X22574Y10349D01*
X22504Y10349D01*
X22504Y13180D01*
X22493Y13378D01*
X22439Y13507D01*
X22358Y13537D01*
X22287Y13467D01*
X22287Y13608D01*
X22257Y13689D01*
X22069Y13754D01*
X21871Y13743D01*
X21742Y13689D01*
X21712Y13608D01*
X22000Y13320D01*
X22287Y13608D01*
X22287Y13467D01*
X22070Y13250D01*
X22358Y12962D01*
X22439Y12992D01*
X22504Y13180D01*
X22504Y10349D01*
X22450Y10350D01*
X22450Y12339D01*
X22381Y12504D01*
X22287Y12598D01*
X22287Y12891D01*
X22000Y13179D01*
X21929Y13108D01*
X21929Y13250D01*
X21641Y13537D01*
X21560Y13507D01*
X21495Y13319D01*
X21506Y13121D01*
X21560Y12992D01*
X21641Y12962D01*
X21929Y13250D01*
X21929Y13108D01*
X21712Y12891D01*
X21742Y12810D01*
X21930Y12745D01*
X22128Y12756D01*
X22257Y12810D01*
X22287Y12891D01*
X22287Y12598D01*
X22255Y12631D01*
X22089Y12699D01*
X21910Y12700D01*
X21745Y12631D01*
X21618Y12505D01*
X21550Y12339D01*
X21549Y12160D01*
X21618Y11995D01*
X21744Y11868D01*
X21910Y11800D01*
X22089Y11799D01*
X22254Y11868D01*
X22381Y11994D01*
X22449Y12160D01*
X22450Y12339D01*
X22450Y10350D01*
X22425Y10350D01*
X22287Y10293D01*
X22182Y10187D01*
X22125Y10049D01*
X22124Y9900D01*
X22181Y9762D01*
X22250Y9694D01*
X22121Y8744D01*
X22121Y8742D01*
X22043Y8265D01*
X21987Y8243D01*
X21975Y8230D01*
X21975Y9264D01*
X21975Y9735D01*
X21974Y9814D01*
X21944Y9888D01*
X21888Y9944D01*
X21814Y9975D01*
X21600Y9975D01*
X21550Y9925D01*
X21550Y9550D01*
X21925Y9550D01*
X21975Y9600D01*
X21975Y9735D01*
X21975Y9264D01*
X21975Y9400D01*
X21925Y9450D01*
X21550Y9450D01*
X21550Y9075D01*
X21600Y9025D01*
X21814Y9024D01*
X21888Y9055D01*
X21944Y9111D01*
X21974Y9185D01*
X21975Y9264D01*
X21975Y8230D01*
X21882Y8137D01*
X21825Y7999D01*
X21824Y7862D01*
X21450Y8243D01*
X21450Y12339D01*
X21450Y13339D01*
X21381Y13504D01*
X21255Y13631D01*
X21089Y13699D01*
X20910Y13700D01*
X20745Y13631D01*
X20618Y13505D01*
X20550Y13339D01*
X20549Y13160D01*
X20618Y12995D01*
X20744Y12868D01*
X20910Y12800D01*
X21089Y12799D01*
X21254Y12868D01*
X21381Y12994D01*
X21449Y13160D01*
X21450Y13339D01*
X21450Y12339D01*
X21381Y12504D01*
X21255Y12631D01*
X21089Y12699D01*
X20910Y12700D01*
X20745Y12631D01*
X20618Y12505D01*
X20550Y12339D01*
X20549Y12160D01*
X20618Y11995D01*
X20744Y11868D01*
X20790Y11849D01*
X20790Y11486D01*
X20504Y11201D01*
X20504Y12180D01*
X20493Y12378D01*
X20450Y12483D01*
X20450Y13339D01*
X20381Y13504D01*
X20255Y13631D01*
X20089Y13699D01*
X19910Y13700D01*
X19750Y13633D01*
X19750Y14399D01*
X19693Y14537D01*
X19587Y14642D01*
X19449Y14699D01*
X19300Y14700D01*
X19162Y14643D01*
X19057Y14537D01*
X19000Y14399D01*
X18999Y14250D01*
X19001Y14246D01*
X18330Y13566D01*
X18326Y13559D01*
X18255Y13631D01*
X18089Y13699D01*
X17910Y13700D01*
X17865Y13681D01*
X17533Y14013D01*
X17465Y14059D01*
X17384Y14075D01*
X16186Y14075D01*
X16186Y14075D01*
X16170Y14071D01*
X16106Y14059D01*
X16038Y14013D01*
X16038Y14013D01*
X15351Y13326D01*
X15305Y13258D01*
X15290Y13178D01*
X15290Y9873D01*
X15259Y9860D01*
X15139Y9741D01*
X15075Y9584D01*
X15074Y9415D01*
X15139Y9259D01*
X15258Y9139D01*
X15415Y9075D01*
X15584Y9074D01*
X15644Y9099D01*
X15643Y8971D01*
X15645Y8968D01*
X15073Y8397D01*
X14925Y8397D01*
X14925Y9584D01*
X14925Y10734D01*
X14925Y10734D01*
X14925Y13404D01*
X14925Y13954D01*
X14902Y14009D01*
X14860Y14052D01*
X14804Y14074D01*
X14745Y14075D01*
X14195Y14075D01*
X14140Y14052D01*
X14097Y14010D01*
X14075Y13954D01*
X14074Y13895D01*
X14074Y13345D01*
X14097Y13290D01*
X14139Y13247D01*
X14195Y13225D01*
X14254Y13224D01*
X14804Y13224D01*
X14859Y13247D01*
X14902Y13289D01*
X14924Y13345D01*
X14925Y13404D01*
X14925Y10734D01*
X14860Y10890D01*
X14741Y11010D01*
X14584Y11074D01*
X14419Y11075D01*
X14457Y11106D01*
X14465Y11115D01*
X14476Y11123D01*
X14497Y11154D01*
X14519Y11181D01*
X14523Y11193D01*
X14530Y11204D01*
X14538Y11240D01*
X14548Y11274D01*
X14547Y11287D01*
X14550Y11300D01*
X14550Y11950D01*
X14549Y11950D01*
X14550Y11950D01*
X14546Y11969D01*
X14530Y12045D01*
X14530Y12045D01*
X14476Y12126D01*
X14476Y12126D01*
X14176Y12426D01*
X14095Y12480D01*
X14000Y12500D01*
X13925Y12500D01*
X13925Y13734D01*
X13860Y13890D01*
X13741Y14010D01*
X13584Y14074D01*
X13415Y14075D01*
X13259Y14010D01*
X13139Y13891D01*
X13075Y13734D01*
X13074Y13565D01*
X13139Y13409D01*
X13258Y13289D01*
X13415Y13225D01*
X13584Y13224D01*
X13740Y13289D01*
X13860Y13408D01*
X13924Y13565D01*
X13925Y13734D01*
X13925Y12500D01*
X12925Y12500D01*
X12925Y13734D01*
X12860Y13890D01*
X12741Y14010D01*
X12584Y14074D01*
X12415Y14075D01*
X12259Y14010D01*
X12139Y13891D01*
X12075Y13734D01*
X12074Y13565D01*
X12139Y13409D01*
X12258Y13289D01*
X12415Y13225D01*
X12584Y13224D01*
X12740Y13289D01*
X12860Y13408D01*
X12924Y13565D01*
X12925Y13734D01*
X12925Y12500D01*
X11525Y12500D01*
X11525Y13884D01*
X11460Y14040D01*
X11341Y14160D01*
X11184Y14224D01*
X11015Y14225D01*
X10859Y14160D01*
X10739Y14041D01*
X10675Y13884D01*
X10674Y13715D01*
X10739Y13559D01*
X10858Y13439D01*
X11015Y13375D01*
X11184Y13374D01*
X11340Y13439D01*
X11460Y13558D01*
X11524Y13715D01*
X11525Y13884D01*
X11525Y12500D01*
X10700Y12500D01*
X10699Y12500D01*
X10680Y12496D01*
X10604Y12480D01*
X10523Y12426D01*
X10523Y12426D01*
X10230Y12133D01*
X10230Y13836D01*
X10217Y14024D01*
X10169Y14142D01*
X10090Y14169D01*
X10019Y14098D01*
X10019Y14240D01*
X9992Y14319D01*
X9813Y14380D01*
X9625Y14367D01*
X9507Y14319D01*
X9480Y14240D01*
X9750Y13970D01*
X10019Y14240D01*
X10019Y14098D01*
X9820Y13900D01*
X10090Y13630D01*
X10169Y13657D01*
X10230Y13836D01*
X10230Y12133D01*
X10019Y11923D01*
X10019Y13559D01*
X9750Y13829D01*
X9679Y13758D01*
X9679Y13900D01*
X9409Y14169D01*
X9330Y14142D01*
X9269Y13963D01*
X9282Y13775D01*
X9330Y13657D01*
X9409Y13630D01*
X9679Y13900D01*
X9679Y13758D01*
X9480Y13559D01*
X9507Y13480D01*
X9686Y13419D01*
X9874Y13432D01*
X9992Y13480D01*
X10019Y13559D01*
X10019Y11923D01*
X10000Y11903D01*
X9626Y12276D01*
X9545Y12330D01*
X9450Y12350D01*
X9175Y12350D01*
X9175Y13984D01*
X9110Y14140D01*
X8991Y14260D01*
X8834Y14324D01*
X8665Y14325D01*
X8509Y14260D01*
X8389Y14141D01*
X8325Y13984D01*
X8324Y13815D01*
X8389Y13659D01*
X8508Y13539D01*
X8665Y13475D01*
X8834Y13474D01*
X8990Y13539D01*
X9110Y13658D01*
X9174Y13815D01*
X9175Y13984D01*
X9175Y12350D01*
X8025Y12350D01*
X7929Y12330D01*
X7896Y12309D01*
X7848Y12276D01*
X7848Y12276D01*
X7025Y11453D01*
X6950Y11528D01*
X6950Y12874D01*
X7004Y12874D01*
X7059Y12897D01*
X7102Y12939D01*
X7124Y12995D01*
X7125Y13054D01*
X7125Y13604D01*
X7102Y13659D01*
X7060Y13702D01*
X7004Y13724D01*
X6945Y13725D01*
X6395Y13725D01*
X6340Y13702D01*
X6297Y13660D01*
X6275Y13604D01*
X6274Y13545D01*
X6274Y12995D01*
X6297Y12940D01*
X6339Y12897D01*
X6395Y12875D01*
X6450Y12874D01*
X6450Y11425D01*
X6469Y11329D01*
X6523Y11248D01*
X6775Y10996D01*
X6775Y10950D01*
X6645Y10950D01*
X6590Y10927D01*
X6547Y10885D01*
X6525Y10829D01*
X6524Y10770D01*
X6524Y10070D01*
X6547Y10015D01*
X6589Y9972D01*
X6645Y9950D01*
X6704Y9949D01*
X7404Y9949D01*
X7459Y9972D01*
X7502Y10014D01*
X7524Y10070D01*
X7525Y10129D01*
X7525Y10829D01*
X7502Y10884D01*
X7460Y10927D01*
X7404Y10949D01*
X7345Y10950D01*
X7275Y10950D01*
X7275Y10996D01*
X8128Y11850D01*
X9346Y11850D01*
X9569Y11626D01*
X9550Y11579D01*
X9549Y11520D01*
X9549Y10920D01*
X9572Y10865D01*
X9614Y10822D01*
X9670Y10800D01*
X9729Y10799D01*
X10329Y10799D01*
X10384Y10822D01*
X10427Y10864D01*
X10449Y10920D01*
X10450Y10979D01*
X10450Y11579D01*
X10430Y11626D01*
X10803Y12000D01*
X13469Y12000D01*
X13432Y11962D01*
X13375Y11824D01*
X13374Y11698D01*
X12639Y11052D01*
X12584Y11074D01*
X12415Y11075D01*
X12259Y11010D01*
X12139Y10891D01*
X12075Y10734D01*
X12074Y10565D01*
X12139Y10409D01*
X12258Y10289D01*
X12415Y10225D01*
X12584Y10224D01*
X12740Y10289D01*
X12860Y10408D01*
X12924Y10565D01*
X12925Y10734D01*
X12922Y10741D01*
X13653Y11383D01*
X13675Y11375D01*
X13824Y11374D01*
X13962Y11431D01*
X14050Y11519D01*
X14050Y11419D01*
X13612Y11063D01*
X13584Y11074D01*
X13415Y11075D01*
X13259Y11010D01*
X13139Y10891D01*
X13075Y10734D01*
X13074Y10565D01*
X13139Y10409D01*
X13258Y10289D01*
X13415Y10225D01*
X13584Y10224D01*
X13740Y10289D01*
X13860Y10408D01*
X13924Y10565D01*
X13925Y10673D01*
X14112Y10825D01*
X14075Y10734D01*
X14074Y10565D01*
X14139Y10409D01*
X14258Y10289D01*
X14415Y10225D01*
X14584Y10224D01*
X14740Y10289D01*
X14860Y10408D01*
X14924Y10565D01*
X14925Y10734D01*
X14925Y9584D01*
X14860Y9740D01*
X14741Y9860D01*
X14584Y9924D01*
X14415Y9925D01*
X14259Y9860D01*
X14139Y9741D01*
X14075Y9584D01*
X14074Y9415D01*
X14139Y9259D01*
X14258Y9139D01*
X14415Y9075D01*
X14584Y9074D01*
X14740Y9139D01*
X14860Y9258D01*
X14924Y9415D01*
X14925Y9584D01*
X14925Y8397D01*
X11677Y8397D01*
X11762Y8431D01*
X11867Y8537D01*
X11868Y8540D01*
X12925Y8540D01*
X12938Y8542D01*
X12952Y8541D01*
X12978Y8550D01*
X13005Y8555D01*
X13016Y8563D01*
X13030Y8568D01*
X13050Y8586D01*
X13073Y8601D01*
X13081Y8613D01*
X13091Y8622D01*
X13439Y9075D01*
X13584Y9074D01*
X13740Y9139D01*
X13860Y9258D01*
X13924Y9415D01*
X13925Y9584D01*
X13860Y9740D01*
X13741Y9860D01*
X13584Y9924D01*
X13415Y9925D01*
X13259Y9860D01*
X13139Y9741D01*
X13075Y9584D01*
X13074Y9415D01*
X13108Y9334D01*
X12980Y9166D01*
X12980Y9436D01*
X12967Y9624D01*
X12919Y9742D01*
X12840Y9769D01*
X12769Y9698D01*
X12769Y9840D01*
X12742Y9919D01*
X12563Y9980D01*
X12375Y9967D01*
X12257Y9919D01*
X12230Y9840D01*
X12500Y9570D01*
X12769Y9840D01*
X12769Y9698D01*
X12570Y9500D01*
X12840Y9230D01*
X12919Y9257D01*
X12980Y9436D01*
X12980Y9166D01*
X12821Y8960D01*
X12769Y8960D01*
X12769Y9159D01*
X12500Y9429D01*
X12429Y9358D01*
X12429Y9500D01*
X12159Y9769D01*
X12080Y9742D01*
X12019Y9563D01*
X12032Y9375D01*
X12080Y9257D01*
X12159Y9230D01*
X12429Y9500D01*
X12429Y9358D01*
X12230Y9159D01*
X12257Y9080D01*
X12436Y9019D01*
X12624Y9032D01*
X12742Y9080D01*
X12769Y9159D01*
X12769Y8960D01*
X11868Y8960D01*
X11868Y8962D01*
X11762Y9067D01*
X11624Y9124D01*
X11580Y9124D01*
X11580Y10736D01*
X11567Y10924D01*
X11519Y11042D01*
X11440Y11069D01*
X11369Y10998D01*
X11369Y11140D01*
X11342Y11219D01*
X11163Y11280D01*
X10975Y11267D01*
X10857Y11219D01*
X10830Y11140D01*
X11100Y10870D01*
X11369Y11140D01*
X11369Y10998D01*
X11170Y10800D01*
X11440Y10530D01*
X11519Y10557D01*
X11580Y10736D01*
X11580Y9124D01*
X11475Y9125D01*
X11369Y9081D01*
X11369Y10459D01*
X11100Y10729D01*
X11029Y10658D01*
X11029Y10800D01*
X10759Y11069D01*
X10680Y11042D01*
X10619Y10863D01*
X10632Y10675D01*
X10680Y10557D01*
X10759Y10530D01*
X11029Y10800D01*
X11029Y10658D01*
X10830Y10459D01*
X10857Y10380D01*
X11036Y10319D01*
X11224Y10332D01*
X11342Y10380D01*
X11369Y10459D01*
X11369Y9081D01*
X11337Y9068D01*
X11232Y8962D01*
X11175Y8824D01*
X11174Y8675D01*
X11231Y8537D01*
X11337Y8432D01*
X11422Y8397D01*
X11149Y8397D01*
X10504Y9041D01*
X10504Y10180D01*
X10493Y10378D01*
X10439Y10507D01*
X10358Y10537D01*
X10287Y10467D01*
X10287Y10608D01*
X10257Y10689D01*
X10069Y10754D01*
X9871Y10743D01*
X9742Y10689D01*
X9712Y10608D01*
X10000Y10320D01*
X10287Y10608D01*
X10287Y10467D01*
X10070Y10250D01*
X10358Y9962D01*
X10439Y9992D01*
X10504Y10180D01*
X10504Y9041D01*
X10431Y9115D01*
X10449Y9160D01*
X10450Y9339D01*
X10381Y9504D01*
X10287Y9598D01*
X10287Y9891D01*
X10000Y10179D01*
X9929Y10108D01*
X9929Y10250D01*
X9641Y10537D01*
X9560Y10507D01*
X9495Y10319D01*
X9506Y10121D01*
X9560Y9992D01*
X9641Y9962D01*
X9929Y10250D01*
X9929Y10108D01*
X9712Y9891D01*
X9742Y9810D01*
X9930Y9745D01*
X10128Y9756D01*
X10257Y9810D01*
X10287Y9891D01*
X10287Y9598D01*
X10255Y9631D01*
X10089Y9699D01*
X9910Y9700D01*
X9745Y9631D01*
X9618Y9505D01*
X9550Y9339D01*
X9549Y9160D01*
X9618Y8995D01*
X9744Y8868D01*
X9910Y8800D01*
X10089Y8799D01*
X10134Y8818D01*
X10914Y8038D01*
X10914Y8038D01*
X10982Y7993D01*
X10982Y7993D01*
X11046Y7980D01*
X11062Y7977D01*
X11062Y7977D01*
X11062Y7977D01*
X15160Y7977D01*
X15240Y7993D01*
X15309Y8038D01*
X15941Y8671D01*
X15944Y8670D01*
X16093Y8670D01*
X16231Y8727D01*
X16336Y8832D01*
X16393Y8970D01*
X16394Y9083D01*
X16415Y9075D01*
X16584Y9074D01*
X16740Y9139D01*
X16860Y9258D01*
X16924Y9415D01*
X16925Y9584D01*
X16860Y9740D01*
X16741Y9860D01*
X16584Y9924D01*
X16415Y9925D01*
X16259Y9860D01*
X16139Y9741D01*
X16075Y9584D01*
X16074Y9420D01*
X15944Y9420D01*
X15923Y9411D01*
X15924Y9415D01*
X15925Y9584D01*
X15860Y9740D01*
X15741Y9860D01*
X15710Y9872D01*
X15710Y13091D01*
X16273Y13655D01*
X16556Y13655D01*
X16491Y13590D01*
X16400Y13369D01*
X16399Y13131D01*
X16491Y12910D01*
X16659Y12741D01*
X16759Y12700D01*
X16670Y12700D01*
X16615Y12677D01*
X16572Y12635D01*
X16550Y12579D01*
X16549Y12520D01*
X16549Y11920D01*
X16572Y11865D01*
X16614Y11822D01*
X16670Y11800D01*
X16729Y11799D01*
X17329Y11799D01*
X17384Y11822D01*
X17427Y11864D01*
X17449Y11920D01*
X17450Y11979D01*
X17450Y12040D01*
X17480Y12040D01*
X17560Y12055D01*
X17586Y12073D01*
X17618Y11995D01*
X17744Y11868D01*
X17910Y11800D01*
X18089Y11799D01*
X18254Y11868D01*
X18309Y11923D01*
X18309Y10606D01*
X17615Y9912D01*
X17584Y9924D01*
X17415Y9925D01*
X17259Y9860D01*
X17139Y9741D01*
X17075Y9584D01*
X17074Y9415D01*
X17139Y9259D01*
X17258Y9139D01*
X17415Y9075D01*
X17584Y9074D01*
X17740Y9139D01*
X17860Y9258D01*
X17924Y9415D01*
X17925Y9584D01*
X17912Y9615D01*
X18668Y10371D01*
X18668Y10371D01*
X18668Y10371D01*
X18713Y10439D01*
X18713Y10439D01*
X18726Y10503D01*
X18729Y10519D01*
X18729Y10519D01*
X18729Y10519D01*
X18729Y11883D01*
X18744Y11868D01*
X18910Y11800D01*
X19089Y11799D01*
X19254Y11868D01*
X19381Y11994D01*
X19449Y12160D01*
X19450Y12339D01*
X19381Y12504D01*
X19255Y12631D01*
X19089Y12699D01*
X18910Y12700D01*
X18745Y12631D01*
X18729Y12616D01*
X18729Y12616D01*
X18912Y12800D01*
X19089Y12799D01*
X19254Y12868D01*
X19381Y12994D01*
X19449Y13160D01*
X19450Y13339D01*
X19381Y13504D01*
X19255Y13631D01*
X19089Y13699D01*
X19052Y13699D01*
X19299Y13950D01*
X19300Y13950D01*
X19449Y13949D01*
X19587Y14006D01*
X19692Y14112D01*
X19749Y14250D01*
X19750Y14399D01*
X19750Y13633D01*
X19745Y13631D01*
X19618Y13505D01*
X19550Y13339D01*
X19549Y13160D01*
X19618Y12995D01*
X19744Y12868D01*
X19910Y12800D01*
X20089Y12799D01*
X20254Y12868D01*
X20381Y12994D01*
X20449Y13160D01*
X20450Y13339D01*
X20450Y12483D01*
X20439Y12507D01*
X20358Y12537D01*
X20287Y12467D01*
X20287Y12608D01*
X20257Y12689D01*
X20069Y12754D01*
X19871Y12743D01*
X19742Y12689D01*
X19712Y12608D01*
X20000Y12320D01*
X20287Y12608D01*
X20287Y12467D01*
X20070Y12250D01*
X20358Y11962D01*
X20439Y11992D01*
X20504Y12180D01*
X20504Y11201D01*
X20394Y11091D01*
X20424Y11165D01*
X20425Y11334D01*
X20360Y11490D01*
X20287Y11563D01*
X20287Y11891D01*
X20000Y12179D01*
X19929Y12108D01*
X19929Y12250D01*
X19641Y12537D01*
X19560Y12507D01*
X19495Y12319D01*
X19506Y12121D01*
X19560Y11992D01*
X19641Y11962D01*
X19929Y12250D01*
X19929Y12108D01*
X19712Y11891D01*
X19742Y11810D01*
X19930Y11745D01*
X20128Y11756D01*
X20257Y11810D01*
X20287Y11891D01*
X20287Y11563D01*
X20241Y11610D01*
X20084Y11674D01*
X19915Y11675D01*
X19759Y11610D01*
X19639Y11491D01*
X19575Y11334D01*
X19574Y11165D01*
X19639Y11009D01*
X19688Y10960D01*
X19500Y10960D01*
X19419Y10944D01*
X19392Y10925D01*
X19351Y10898D01*
X19351Y10898D01*
X18351Y9898D01*
X18259Y9860D01*
X18139Y9741D01*
X18075Y9584D01*
X18074Y9415D01*
X18139Y9259D01*
X18258Y9139D01*
X18415Y9075D01*
X18584Y9074D01*
X18740Y9139D01*
X18860Y9258D01*
X18924Y9415D01*
X18925Y9584D01*
X18860Y9740D01*
X18823Y9777D01*
X19586Y10540D01*
X20350Y10540D01*
X20430Y10555D01*
X20498Y10601D01*
X21148Y11251D01*
X21148Y11251D01*
X21148Y11251D01*
X21194Y11319D01*
X21194Y11319D01*
X21210Y11400D01*
X21210Y11849D01*
X21254Y11868D01*
X21381Y11994D01*
X21449Y12160D01*
X21450Y12339D01*
X21450Y8243D01*
X21450Y8243D01*
X21450Y9075D01*
X21450Y9450D01*
X21450Y9550D01*
X21450Y9925D01*
X21400Y9975D01*
X21185Y9975D01*
X21111Y9944D01*
X21055Y9888D01*
X21025Y9814D01*
X21024Y9735D01*
X21025Y9600D01*
X21075Y9550D01*
X21450Y9550D01*
X21450Y9450D01*
X21075Y9450D01*
X21025Y9400D01*
X21024Y9264D01*
X21025Y9185D01*
X21055Y9111D01*
X21111Y9055D01*
X21185Y9024D01*
X21400Y9025D01*
X21450Y9075D01*
X21450Y8243D01*
X21398Y8295D01*
X21399Y8300D01*
X21400Y8449D01*
X21343Y8587D01*
X21237Y8692D01*
X21099Y8749D01*
X20950Y8750D01*
X20925Y8739D01*
X20925Y9584D01*
X20860Y9740D01*
X20741Y9860D01*
X20584Y9924D01*
X20415Y9925D01*
X20259Y9860D01*
X20139Y9741D01*
X20075Y9584D01*
X20074Y9415D01*
X20139Y9259D01*
X20258Y9139D01*
X20415Y9075D01*
X20584Y9074D01*
X20740Y9139D01*
X20860Y9258D01*
X20924Y9415D01*
X20925Y9584D01*
X20925Y8739D01*
X20812Y8693D01*
X20707Y8587D01*
X20655Y8462D01*
X20379Y8737D01*
X20311Y8783D01*
X20231Y8799D01*
X19925Y8799D01*
X19925Y9584D01*
X19860Y9740D01*
X19741Y9860D01*
X19584Y9924D01*
X19415Y9925D01*
X19259Y9860D01*
X19139Y9741D01*
X19075Y9584D01*
X19074Y9415D01*
X19139Y9259D01*
X19258Y9139D01*
X19415Y9075D01*
X19584Y9074D01*
X19740Y9139D01*
X19860Y9258D01*
X19924Y9415D01*
X19925Y9584D01*
X19925Y8799D01*
X19249Y8799D01*
X19249Y8799D01*
X19233Y8796D01*
X19169Y8783D01*
X19100Y8737D01*
X19100Y8737D01*
X17851Y7488D01*
X17806Y7420D01*
X17790Y7340D01*
X17790Y6911D01*
X17790Y6811D01*
X17741Y6860D01*
X17584Y6924D01*
X17415Y6925D01*
X17259Y6860D01*
X17139Y6741D01*
X17075Y6584D01*
X17074Y6415D01*
X17087Y6384D01*
X16957Y6254D01*
X16855Y6254D01*
X16860Y6258D01*
X16924Y6415D01*
X16925Y6584D01*
X16860Y6740D01*
X16741Y6860D01*
X16584Y6924D01*
X16415Y6925D01*
X16259Y6860D01*
X16139Y6741D01*
X16075Y6584D01*
X16074Y6415D01*
X16087Y6384D01*
X15925Y6222D01*
X15925Y6584D01*
X15860Y6740D01*
X15741Y6860D01*
X15584Y6924D01*
X15415Y6925D01*
X15259Y6860D01*
X15139Y6741D01*
X15075Y6584D01*
X15074Y6415D01*
X15139Y6259D01*
X15258Y6139D01*
X15415Y6075D01*
X15584Y6074D01*
X15740Y6139D01*
X15860Y6258D01*
X15924Y6415D01*
X15925Y6584D01*
X15925Y6222D01*
X15743Y6040D01*
X15423Y6040D01*
X15423Y6040D01*
X15407Y6036D01*
X15343Y6024D01*
X15275Y5978D01*
X15275Y5978D01*
X14925Y5628D01*
X14925Y6584D01*
X14860Y6740D01*
X14741Y6860D01*
X14584Y6924D01*
X14415Y6925D01*
X14259Y6860D01*
X14139Y6741D01*
X14075Y6584D01*
X14074Y6415D01*
X14087Y6384D01*
X13925Y6222D01*
X13925Y6584D01*
X13860Y6740D01*
X13741Y6860D01*
X13584Y6924D01*
X13415Y6925D01*
X13259Y6860D01*
X13139Y6741D01*
X13075Y6584D01*
X13074Y6415D01*
X13139Y6259D01*
X13258Y6139D01*
X13415Y6075D01*
X13584Y6074D01*
X13740Y6139D01*
X13860Y6258D01*
X13924Y6415D01*
X13925Y6584D01*
X13925Y6222D01*
X13351Y5648D01*
X13259Y5610D01*
X13139Y5491D01*
X13075Y5334D01*
X13074Y5165D01*
X13139Y5009D01*
X13258Y4889D01*
X13415Y4825D01*
X13584Y4824D01*
X13740Y4889D01*
X13860Y5008D01*
X13924Y5165D01*
X13925Y5334D01*
X13860Y5490D01*
X13823Y5527D01*
X14384Y6087D01*
X14415Y6075D01*
X14584Y6074D01*
X14740Y6139D01*
X14860Y6258D01*
X14924Y6415D01*
X14925Y6584D01*
X14925Y5628D01*
X14851Y5555D01*
X14829Y5521D01*
X14741Y5610D01*
X14584Y5674D01*
X14415Y5675D01*
X14259Y5610D01*
X14139Y5491D01*
X14075Y5334D01*
X14074Y5165D01*
X14139Y5009D01*
X14258Y4889D01*
X14415Y4825D01*
X14584Y4824D01*
X14740Y4889D01*
X14790Y4938D01*
X14790Y4836D01*
X12925Y2972D01*
X12925Y5334D01*
X12925Y6584D01*
X12860Y6740D01*
X12741Y6860D01*
X12584Y6924D01*
X12415Y6925D01*
X12259Y6860D01*
X12139Y6741D01*
X12075Y6584D01*
X12074Y6415D01*
X12139Y6259D01*
X12258Y6139D01*
X12415Y6075D01*
X12584Y6074D01*
X12740Y6139D01*
X12860Y6258D01*
X12924Y6415D01*
X12925Y6584D01*
X12925Y5334D01*
X12860Y5490D01*
X12741Y5610D01*
X12584Y5674D01*
X12415Y5675D01*
X12259Y5610D01*
X12139Y5491D01*
X12075Y5334D01*
X12074Y5165D01*
X12139Y5009D01*
X12258Y4889D01*
X12415Y4825D01*
X12584Y4824D01*
X12740Y4889D01*
X12860Y5008D01*
X12924Y5165D01*
X12925Y5334D01*
X12925Y2972D01*
X12615Y2662D01*
X12584Y2674D01*
X12415Y2675D01*
X12259Y2610D01*
X12139Y2491D01*
X12075Y2334D01*
X12074Y2165D01*
X12139Y2009D01*
X12258Y1889D01*
X12415Y1825D01*
X12584Y1824D01*
X12740Y1889D01*
X12860Y2008D01*
X12924Y2165D01*
X12925Y2334D01*
X12912Y2365D01*
X15148Y4601D01*
X15194Y4669D01*
X15210Y4750D01*
X15210Y4938D01*
X15258Y4889D01*
X15415Y4825D01*
X15584Y4824D01*
X15740Y4889D01*
X15790Y4938D01*
X15790Y4836D01*
X13615Y2662D01*
X13584Y2674D01*
X13415Y2675D01*
X13259Y2610D01*
X13139Y2491D01*
X13075Y2334D01*
X13074Y2165D01*
X13139Y2009D01*
X13258Y1889D01*
X13415Y1825D01*
X13584Y1824D01*
X13740Y1889D01*
X13860Y2008D01*
X13924Y2165D01*
X13925Y2334D01*
X13912Y2365D01*
X16148Y4601D01*
X16194Y4669D01*
X16210Y4750D01*
X16210Y4938D01*
X16258Y4889D01*
X16415Y4825D01*
X16584Y4824D01*
X16740Y4889D01*
X16860Y5008D01*
X16924Y5165D01*
X16925Y5334D01*
X16860Y5490D01*
X16741Y5610D01*
X16584Y5674D01*
X16577Y5674D01*
X16736Y5834D01*
X17044Y5834D01*
X17125Y5850D01*
X17193Y5896D01*
X17200Y5903D01*
X17199Y5800D01*
X17256Y5662D01*
X17294Y5625D01*
X17259Y5610D01*
X17139Y5491D01*
X17075Y5334D01*
X17074Y5165D01*
X17139Y5009D01*
X17258Y4889D01*
X17415Y4825D01*
X17584Y4824D01*
X17740Y4889D01*
X17860Y5008D01*
X17924Y5165D01*
X17925Y5334D01*
X17860Y5490D01*
X17790Y5560D01*
X17892Y5662D01*
X17949Y5800D01*
X17950Y5939D01*
X18143Y6122D01*
X18145Y6124D01*
X18148Y6126D01*
X18176Y6168D01*
X18191Y6189D01*
X18191Y6191D01*
X18194Y6194D01*
X18195Y6203D01*
X18258Y6139D01*
X18415Y6075D01*
X18584Y6074D01*
X18740Y6139D01*
X18860Y6258D01*
X18924Y6415D01*
X18925Y6584D01*
X18860Y6740D01*
X18741Y6860D01*
X18584Y6924D01*
X18415Y6925D01*
X18259Y6860D01*
X18210Y6811D01*
X18210Y6911D01*
X18210Y7253D01*
X19062Y8105D01*
X19062Y8100D01*
X19118Y7962D01*
X19224Y7856D01*
X19362Y7799D01*
X19458Y7799D01*
X20315Y6943D01*
X20257Y6919D01*
X20230Y6840D01*
X20464Y6606D01*
X20500Y6570D01*
X20570Y6500D01*
X20500Y6429D01*
X20464Y6393D01*
X20429Y6358D01*
X20429Y6500D01*
X20159Y6769D01*
X20080Y6742D01*
X20019Y6563D01*
X20032Y6375D01*
X20080Y6257D01*
X20159Y6230D01*
X20429Y6500D01*
X20429Y6358D01*
X20230Y6159D01*
X20257Y6080D01*
X20436Y6019D01*
X20624Y6032D01*
X20742Y6080D01*
X20751Y6106D01*
X20769Y6088D01*
X20771Y6087D01*
X20795Y6112D01*
X20828Y6063D01*
X21216Y5675D01*
X21195Y5675D01*
X21140Y5652D01*
X21097Y5610D01*
X21075Y5554D01*
X21074Y5495D01*
X21074Y4945D01*
X21097Y4890D01*
X21139Y4847D01*
X21195Y4825D01*
X21254Y4824D01*
X21804Y4824D01*
X21859Y4847D01*
X21902Y4889D01*
X21924Y4945D01*
X21924Y4966D01*
X22818Y4073D01*
X22818Y4073D01*
X22866Y4040D01*
X22880Y4031D01*
X22889Y4009D01*
X23008Y3889D01*
X23165Y3825D01*
X23334Y3824D01*
X23490Y3889D01*
X23610Y4008D01*
X23674Y4165D01*
X23675Y4334D01*
X23610Y4490D01*
X23491Y4610D01*
X23334Y4674D01*
X23165Y4675D01*
X23009Y4610D01*
X22998Y4599D01*
X22171Y5426D01*
X22090Y5480D01*
X21995Y5500D01*
X21925Y5500D01*
X21925Y5554D01*
X21902Y5609D01*
X21860Y5652D01*
X21804Y5674D01*
X21750Y5675D01*
X21750Y5745D01*
X21749Y5745D01*
X21750Y5745D01*
X21746Y5764D01*
X21730Y5840D01*
X21730Y5840D01*
X21676Y5921D01*
X21676Y5921D01*
X21523Y6074D01*
X21584Y6074D01*
X21740Y6139D01*
X21860Y6258D01*
X21924Y6415D01*
X21925Y6584D01*
X21914Y6608D01*
X23339Y5184D01*
X23357Y5154D01*
X23325Y5074D01*
X23324Y4925D01*
X23381Y4787D01*
X23487Y4682D01*
X23625Y4625D01*
X23774Y4624D01*
X23912Y4681D01*
X24017Y4787D01*
X24074Y4925D01*
X24074Y4983D01*
X25414Y3624D01*
X25482Y3578D01*
X25562Y3562D01*
X25564Y3562D01*
X25676Y3562D01*
X25618Y3505D01*
X25550Y3339D01*
X25549Y3160D01*
X25618Y2995D01*
X25744Y2868D01*
X25910Y2800D01*
X26089Y2799D01*
X26254Y2868D01*
X26381Y2994D01*
X26449Y3160D01*
X26450Y3339D01*
X26381Y3504D01*
X26323Y3562D01*
X26676Y3562D01*
X26618Y3505D01*
X26550Y3339D01*
X26549Y3160D01*
X26618Y2995D01*
X26744Y2868D01*
X26910Y2800D01*
X27089Y2799D01*
X27254Y2868D01*
X27381Y2994D01*
X27449Y3160D01*
X27450Y3339D01*
X27381Y3504D01*
X27323Y3562D01*
X28272Y3562D01*
X28344Y3577D01*
X28410Y3550D01*
X28589Y3549D01*
X28754Y3618D01*
X28881Y3744D01*
X28949Y3910D01*
X28950Y4089D01*
X28881Y4254D01*
X28846Y4290D01*
X29153Y4290D01*
X29118Y4255D01*
X29050Y4089D01*
X29049Y3910D01*
X29118Y3745D01*
X29244Y3618D01*
X29410Y3550D01*
X29589Y3549D01*
X29754Y3618D01*
X29881Y3744D01*
X29949Y3910D01*
X29950Y4089D01*
X29881Y4254D01*
X29846Y4290D01*
X29913Y4290D01*
X30068Y4134D01*
X30050Y4089D01*
X30049Y3910D01*
X30118Y3745D01*
X30244Y3618D01*
X30410Y3550D01*
X30589Y3549D01*
X30754Y3618D01*
X30881Y3744D01*
X30949Y3910D01*
X30950Y4089D01*
X30950Y2370D01*
X30599Y2225D01*
X30275Y1902D01*
X30100Y1479D01*
X30099Y1022D01*
X30274Y599D01*
X30597Y275D01*
X30829Y179D01*
X26819Y179D01*
X28932Y2375D01*
X29074Y2374D01*
X29212Y2431D01*
X29317Y2537D01*
X29374Y2675D01*
X29375Y2824D01*
X29318Y2962D01*
X29212Y3067D01*
X29074Y3124D01*
X28925Y3125D01*
X28787Y3068D01*
X28682Y2962D01*
X28625Y2824D01*
X28624Y2675D01*
X28629Y2665D01*
X27450Y1440D01*
X27450Y2339D01*
X27381Y2504D01*
X27255Y2631D01*
X27089Y2699D01*
X26910Y2700D01*
X26745Y2631D01*
X26618Y2505D01*
X26550Y2339D01*
X26549Y2160D01*
X26618Y1995D01*
X26744Y1868D01*
X26910Y1800D01*
X27089Y1799D01*
X27254Y1868D01*
X27381Y1994D01*
X27449Y2160D01*
X27450Y2339D01*
X27450Y1440D01*
X26450Y400D01*
X26450Y2339D01*
X26381Y2504D01*
X26255Y2631D01*
X26089Y2699D01*
X25910Y2700D01*
X25745Y2631D01*
X25618Y2505D01*
X25550Y2339D01*
X25549Y2160D01*
X25618Y1995D01*
X25744Y1868D01*
X25910Y1800D01*
X26089Y1799D01*
X26254Y1868D01*
X26381Y1994D01*
X26449Y2160D01*
X26450Y2339D01*
X26450Y400D01*
X26410Y360D01*
X24480Y360D01*
X24480Y1436D01*
X24467Y1624D01*
X24419Y1742D01*
X24340Y1769D01*
X24269Y1698D01*
X24269Y1840D01*
X24242Y1919D01*
X24063Y1980D01*
X23875Y1967D01*
X23757Y1919D01*
X23730Y1840D01*
X24000Y1570D01*
X24269Y1840D01*
X24269Y1698D01*
X24070Y1500D01*
X24340Y1230D01*
X24419Y1257D01*
X24480Y1436D01*
X24480Y360D01*
X24269Y360D01*
X24269Y1159D01*
X24000Y1429D01*
X23929Y1358D01*
X23929Y1500D01*
X23730Y1699D01*
X23730Y3186D01*
X23717Y3374D01*
X23669Y3492D01*
X23590Y3519D01*
X23519Y3448D01*
X23519Y3590D01*
X23492Y3669D01*
X23313Y3730D01*
X23125Y3717D01*
X23007Y3669D01*
X22980Y3590D01*
X23250Y3320D01*
X23519Y3590D01*
X23519Y3448D01*
X23320Y3250D01*
X23590Y2980D01*
X23669Y3007D01*
X23730Y3186D01*
X23730Y1699D01*
X23659Y1769D01*
X23580Y1742D01*
X23519Y1563D01*
X23532Y1375D01*
X23580Y1257D01*
X23659Y1230D01*
X23929Y1500D01*
X23929Y1358D01*
X23730Y1159D01*
X23757Y1080D01*
X23936Y1019D01*
X24124Y1032D01*
X24242Y1080D01*
X24269Y1159D01*
X24269Y360D01*
X23519Y360D01*
X23519Y2909D01*
X23250Y3179D01*
X23179Y3108D01*
X23179Y3250D01*
X22909Y3519D01*
X22830Y3492D01*
X22769Y3313D01*
X22782Y3125D01*
X22830Y3007D01*
X22909Y2980D01*
X23179Y3250D01*
X23179Y3108D01*
X22980Y2909D01*
X23007Y2830D01*
X23186Y2769D01*
X23374Y2782D01*
X23492Y2830D01*
X23519Y2909D01*
X23519Y360D01*
X21980Y360D01*
X21980Y2186D01*
X21967Y2374D01*
X21919Y2492D01*
X21840Y2519D01*
X21769Y2448D01*
X21769Y2590D01*
X21742Y2669D01*
X21563Y2730D01*
X21375Y2717D01*
X21257Y2669D01*
X21230Y2590D01*
X21500Y2320D01*
X21769Y2590D01*
X21769Y2448D01*
X21570Y2250D01*
X21840Y1980D01*
X21919Y2007D01*
X21980Y2186D01*
X21980Y360D01*
X21769Y360D01*
X21769Y1909D01*
X21500Y2179D01*
X21429Y2108D01*
X21429Y2250D01*
X21159Y2519D01*
X21080Y2492D01*
X21019Y2313D01*
X21032Y2125D01*
X21080Y2007D01*
X21159Y1980D01*
X21429Y2250D01*
X21429Y2108D01*
X21230Y1909D01*
X21250Y1850D01*
X21241Y1860D01*
X21084Y1924D01*
X20925Y1925D01*
X20925Y2334D01*
X20925Y5334D01*
X20860Y5490D01*
X20769Y5581D01*
X20741Y5610D01*
X20584Y5674D01*
X20415Y5675D01*
X20259Y5610D01*
X20139Y5491D01*
X20075Y5334D01*
X20074Y5165D01*
X20139Y5009D01*
X20258Y4889D01*
X20415Y4825D01*
X20584Y4824D01*
X20740Y4889D01*
X20860Y5008D01*
X20924Y5165D01*
X20925Y5334D01*
X20925Y2334D01*
X20860Y2490D01*
X20741Y2610D01*
X20584Y2674D01*
X20415Y2675D01*
X20384Y2662D01*
X19213Y3833D01*
X19211Y4937D01*
X19258Y4889D01*
X19415Y4825D01*
X19584Y4824D01*
X19740Y4889D01*
X19860Y5008D01*
X19924Y5165D01*
X19925Y5334D01*
X19860Y5490D01*
X19741Y5610D01*
X19584Y5674D01*
X19415Y5675D01*
X19259Y5610D01*
X19210Y5561D01*
X19210Y5913D01*
X19384Y6087D01*
X19415Y6075D01*
X19584Y6074D01*
X19740Y6139D01*
X19860Y6258D01*
X19924Y6415D01*
X19925Y6584D01*
X19860Y6740D01*
X19741Y6860D01*
X19584Y6924D01*
X19415Y6925D01*
X19259Y6860D01*
X19139Y6741D01*
X19075Y6584D01*
X19074Y6415D01*
X19087Y6384D01*
X18851Y6148D01*
X18851Y6148D01*
X18851Y6148D01*
X18828Y6114D01*
X18805Y6080D01*
X18805Y6080D01*
X18805Y6080D01*
X18797Y6039D01*
X18790Y6000D01*
X18790Y5999D01*
X18790Y5999D01*
X18790Y5560D01*
X18741Y5610D01*
X18584Y5674D01*
X18415Y5675D01*
X18259Y5610D01*
X18139Y5491D01*
X18075Y5334D01*
X18074Y5165D01*
X18139Y5009D01*
X18258Y4889D01*
X18415Y4825D01*
X18584Y4824D01*
X18740Y4889D01*
X18791Y4940D01*
X18793Y3744D01*
X18810Y3664D01*
X18855Y3596D01*
X18859Y3593D01*
X20087Y2365D01*
X20075Y2334D01*
X20074Y2165D01*
X20139Y2009D01*
X20258Y1889D01*
X20415Y1825D01*
X20584Y1824D01*
X20740Y1889D01*
X20860Y2008D01*
X20924Y2165D01*
X20925Y2334D01*
X20925Y1925D01*
X20915Y1925D01*
X20759Y1860D01*
X20639Y1741D01*
X20575Y1584D01*
X20574Y1415D01*
X20639Y1259D01*
X20758Y1139D01*
X20915Y1075D01*
X21084Y1074D01*
X21240Y1139D01*
X21360Y1258D01*
X21424Y1415D01*
X21425Y1584D01*
X21360Y1740D01*
X21276Y1824D01*
X21436Y1769D01*
X21624Y1782D01*
X21742Y1830D01*
X21769Y1909D01*
X21769Y360D01*
X19950Y360D01*
X19950Y729D01*
X19950Y1329D01*
X19927Y1384D01*
X19925Y1387D01*
X19925Y2334D01*
X19860Y2490D01*
X19741Y2610D01*
X19584Y2674D01*
X19415Y2675D01*
X19259Y2610D01*
X19139Y2491D01*
X19075Y2334D01*
X19074Y2165D01*
X19139Y2009D01*
X19258Y1889D01*
X19415Y1825D01*
X19584Y1824D01*
X19740Y1889D01*
X19860Y2008D01*
X19924Y2165D01*
X19925Y2334D01*
X19925Y1387D01*
X19885Y1427D01*
X19829Y1449D01*
X19770Y1450D01*
X19170Y1450D01*
X19115Y1427D01*
X19072Y1385D01*
X19050Y1329D01*
X19049Y1270D01*
X19049Y670D01*
X19072Y615D01*
X19114Y572D01*
X19170Y550D01*
X19229Y549D01*
X19829Y549D01*
X19884Y572D01*
X19927Y614D01*
X19949Y670D01*
X19950Y729D01*
X19950Y360D01*
X18950Y360D01*
X18950Y1089D01*
X18925Y1149D01*
X18925Y2334D01*
X18860Y2490D01*
X18741Y2610D01*
X18584Y2674D01*
X18415Y2675D01*
X18259Y2610D01*
X18139Y2491D01*
X18075Y2334D01*
X18074Y2165D01*
X18139Y2009D01*
X18258Y1889D01*
X18415Y1825D01*
X18584Y1824D01*
X18740Y1889D01*
X18860Y2008D01*
X18924Y2165D01*
X18925Y2334D01*
X18925Y1149D01*
X18881Y1254D01*
X18755Y1381D01*
X18589Y1449D01*
X18410Y1450D01*
X18245Y1381D01*
X18118Y1255D01*
X18050Y1089D01*
X18049Y910D01*
X18118Y745D01*
X18244Y618D01*
X18410Y550D01*
X18589Y549D01*
X18754Y618D01*
X18881Y744D01*
X18949Y910D01*
X18950Y1089D01*
X18950Y360D01*
X17950Y360D01*
X17950Y1089D01*
X17925Y1149D01*
X17925Y2334D01*
X17860Y2490D01*
X17741Y2610D01*
X17584Y2674D01*
X17415Y2675D01*
X17259Y2610D01*
X17139Y2491D01*
X17075Y2334D01*
X17074Y2165D01*
X17139Y2009D01*
X17258Y1889D01*
X17415Y1825D01*
X17584Y1824D01*
X17740Y1889D01*
X17860Y2008D01*
X17924Y2165D01*
X17925Y2334D01*
X17925Y1149D01*
X17881Y1254D01*
X17755Y1381D01*
X17589Y1449D01*
X17410Y1450D01*
X17245Y1381D01*
X17118Y1255D01*
X17050Y1089D01*
X17049Y910D01*
X17118Y745D01*
X17244Y618D01*
X17410Y550D01*
X17589Y549D01*
X17754Y618D01*
X17881Y744D01*
X17949Y910D01*
X17950Y1089D01*
X17950Y360D01*
X17004Y360D01*
X17004Y930D01*
X16993Y1128D01*
X16939Y1257D01*
X16925Y1263D01*
X16925Y2334D01*
X16860Y2490D01*
X16741Y2610D01*
X16584Y2674D01*
X16415Y2675D01*
X16259Y2610D01*
X16139Y2491D01*
X16075Y2334D01*
X16074Y2165D01*
X16139Y2009D01*
X16258Y1889D01*
X16415Y1825D01*
X16584Y1824D01*
X16740Y1889D01*
X16860Y2008D01*
X16924Y2165D01*
X16925Y2334D01*
X16925Y1263D01*
X16858Y1287D01*
X16787Y1217D01*
X16787Y1358D01*
X16757Y1439D01*
X16569Y1504D01*
X16371Y1493D01*
X16242Y1439D01*
X16212Y1358D01*
X16500Y1070D01*
X16787Y1358D01*
X16787Y1217D01*
X16570Y1000D01*
X16858Y712D01*
X16939Y742D01*
X17004Y930D01*
X17004Y360D01*
X16787Y360D01*
X16787Y641D01*
X16500Y929D01*
X16429Y858D01*
X16429Y1000D01*
X16141Y1287D01*
X16060Y1257D01*
X15995Y1069D01*
X16006Y871D01*
X16060Y742D01*
X16141Y712D01*
X16429Y1000D01*
X16429Y858D01*
X16212Y641D01*
X16242Y560D01*
X16430Y495D01*
X16628Y506D01*
X16757Y560D01*
X16787Y641D01*
X16787Y360D01*
X15925Y360D01*
X15925Y2334D01*
X15860Y2490D01*
X15741Y2610D01*
X15584Y2674D01*
X15415Y2675D01*
X15259Y2610D01*
X15139Y2491D01*
X15075Y2334D01*
X15074Y2165D01*
X15139Y2009D01*
X15258Y1889D01*
X15415Y1825D01*
X15584Y1824D01*
X15740Y1889D01*
X15860Y2008D01*
X15924Y2165D01*
X15925Y2334D01*
X15925Y360D01*
X14925Y360D01*
X14925Y2334D01*
X14860Y2490D01*
X14741Y2610D01*
X14584Y2674D01*
X14415Y2675D01*
X14259Y2610D01*
X14139Y2491D01*
X14075Y2334D01*
X14074Y2165D01*
X14139Y2009D01*
X14258Y1889D01*
X14415Y1825D01*
X14584Y1824D01*
X14740Y1889D01*
X14860Y2008D01*
X14924Y2165D01*
X14925Y2334D01*
X14925Y360D01*
X13175Y360D01*
X12001Y1307D01*
X12001Y1414D01*
X11944Y1552D01*
X11838Y1658D01*
X11701Y1715D01*
X11552Y1715D01*
X11414Y1658D01*
X11308Y1553D01*
X11251Y1415D01*
X11251Y1266D01*
X11308Y1128D01*
X11413Y1022D01*
X11551Y965D01*
X11700Y965D01*
X11737Y980D01*
X12730Y179D01*
X10450Y179D01*
X10450Y2339D01*
X10450Y3339D01*
X10450Y4339D01*
X10450Y5339D01*
X10450Y6339D01*
X10450Y7339D01*
X10450Y8339D01*
X10381Y8504D01*
X10255Y8631D01*
X10089Y8699D01*
X9910Y8700D01*
X9745Y8631D01*
X9618Y8505D01*
X9550Y8339D01*
X9549Y8160D01*
X9618Y7995D01*
X9744Y7868D01*
X9910Y7800D01*
X10089Y7799D01*
X10254Y7868D01*
X10381Y7994D01*
X10449Y8160D01*
X10450Y8339D01*
X10450Y7339D01*
X10381Y7504D01*
X10255Y7631D01*
X10089Y7699D01*
X9910Y7700D01*
X9745Y7631D01*
X9618Y7505D01*
X9550Y7339D01*
X9549Y7160D01*
X9618Y6995D01*
X9744Y6868D01*
X9910Y6800D01*
X10089Y6799D01*
X10254Y6868D01*
X10381Y6994D01*
X10449Y7160D01*
X10450Y7339D01*
X10450Y6339D01*
X10381Y6504D01*
X10255Y6631D01*
X10089Y6699D01*
X9910Y6700D01*
X9745Y6631D01*
X9618Y6505D01*
X9550Y6339D01*
X9549Y6160D01*
X9618Y5995D01*
X9744Y5868D01*
X9910Y5800D01*
X10089Y5799D01*
X10254Y5868D01*
X10381Y5994D01*
X10449Y6160D01*
X10450Y6339D01*
X10450Y5339D01*
X10381Y5504D01*
X10255Y5631D01*
X10089Y5699D01*
X9910Y5700D01*
X9745Y5631D01*
X9618Y5505D01*
X9550Y5339D01*
X9549Y5160D01*
X9618Y4995D01*
X9744Y4868D01*
X9910Y4800D01*
X10089Y4799D01*
X10254Y4868D01*
X10381Y4994D01*
X10449Y5160D01*
X10450Y5339D01*
X10450Y4339D01*
X10381Y4504D01*
X10255Y4631D01*
X10089Y4699D01*
X9910Y4700D01*
X9745Y4631D01*
X9618Y4505D01*
X9550Y4339D01*
X9549Y4160D01*
X9618Y3995D01*
X9744Y3868D01*
X9910Y3800D01*
X10089Y3799D01*
X10254Y3868D01*
X10381Y3994D01*
X10449Y4160D01*
X10450Y4339D01*
X10450Y3339D01*
X10381Y3504D01*
X10255Y3631D01*
X10089Y3699D01*
X9910Y3700D01*
X9745Y3631D01*
X9618Y3505D01*
X9550Y3339D01*
X9549Y3160D01*
X9618Y2995D01*
X9744Y2868D01*
X9910Y2800D01*
X10089Y2799D01*
X10254Y2868D01*
X10381Y2994D01*
X10449Y3160D01*
X10450Y3339D01*
X10450Y2339D01*
X10381Y2504D01*
X10255Y2631D01*
X10089Y2699D01*
X9910Y2700D01*
X9745Y2631D01*
X9618Y2505D01*
X9550Y2339D01*
X9549Y2160D01*
X9618Y1995D01*
X9744Y1868D01*
X9910Y1800D01*
X10089Y1799D01*
X10254Y1868D01*
X10381Y1994D01*
X10449Y2160D01*
X10450Y2339D01*
X10450Y179D01*
X9450Y179D01*
X9450Y2339D01*
X9450Y3339D01*
X9450Y4339D01*
X9450Y5339D01*
X9450Y6339D01*
X9450Y7339D01*
X9450Y8339D01*
X9450Y9339D01*
X9450Y10339D01*
X9450Y10339D01*
X9450Y10979D01*
X9450Y11579D01*
X9427Y11634D01*
X9385Y11677D01*
X9329Y11699D01*
X9270Y11700D01*
X8670Y11700D01*
X8615Y11677D01*
X8572Y11635D01*
X8550Y11579D01*
X8549Y11520D01*
X8549Y10920D01*
X8572Y10865D01*
X8614Y10822D01*
X8670Y10800D01*
X8729Y10799D01*
X9329Y10799D01*
X9384Y10822D01*
X9427Y10864D01*
X9449Y10920D01*
X9450Y10979D01*
X9450Y10339D01*
X9381Y10504D01*
X9255Y10631D01*
X9089Y10699D01*
X8910Y10700D01*
X8745Y10631D01*
X8618Y10505D01*
X8550Y10339D01*
X8549Y10160D01*
X8618Y9995D01*
X8744Y9868D01*
X8910Y9800D01*
X9089Y9799D01*
X9254Y9868D01*
X9381Y9994D01*
X9449Y10160D01*
X9450Y10339D01*
X9450Y9339D01*
X9381Y9504D01*
X9255Y9631D01*
X9089Y9699D01*
X8910Y9700D01*
X8745Y9631D01*
X8618Y9505D01*
X8550Y9339D01*
X8549Y9160D01*
X8618Y8995D01*
X8744Y8868D01*
X8910Y8800D01*
X9089Y8799D01*
X9254Y8868D01*
X9381Y8994D01*
X9449Y9160D01*
X9450Y9339D01*
X9450Y8339D01*
X9381Y8504D01*
X9255Y8631D01*
X9089Y8699D01*
X8910Y8700D01*
X8745Y8631D01*
X8618Y8505D01*
X8550Y8339D01*
X8549Y8160D01*
X8618Y7995D01*
X8744Y7868D01*
X8910Y7800D01*
X9089Y7799D01*
X9254Y7868D01*
X9381Y7994D01*
X9449Y8160D01*
X9450Y8339D01*
X9450Y7339D01*
X9381Y7504D01*
X9255Y7631D01*
X9089Y7699D01*
X8910Y7700D01*
X8745Y7631D01*
X8618Y7505D01*
X8550Y7339D01*
X8549Y7160D01*
X8618Y6995D01*
X8744Y6868D01*
X8910Y6800D01*
X9089Y6799D01*
X9254Y6868D01*
X9381Y6994D01*
X9449Y7160D01*
X9450Y7339D01*
X9450Y6339D01*
X9381Y6504D01*
X9255Y6631D01*
X9089Y6699D01*
X8910Y6700D01*
X8745Y6631D01*
X8618Y6505D01*
X8550Y6339D01*
X8549Y6160D01*
X8618Y5995D01*
X8744Y5868D01*
X8910Y5800D01*
X9089Y5799D01*
X9254Y5868D01*
X9381Y5994D01*
X9449Y6160D01*
X9450Y6339D01*
X9450Y5339D01*
X9381Y5504D01*
X9255Y5631D01*
X9089Y5699D01*
X8910Y5700D01*
X8745Y5631D01*
X8618Y5505D01*
X8550Y5339D01*
X8549Y5160D01*
X8618Y4995D01*
X8744Y4868D01*
X8910Y4800D01*
X9089Y4799D01*
X9254Y4868D01*
X9381Y4994D01*
X9449Y5160D01*
X9450Y5339D01*
X9450Y4339D01*
X9381Y4504D01*
X9255Y4631D01*
X9089Y4699D01*
X8910Y4700D01*
X8745Y4631D01*
X8618Y4505D01*
X8550Y4339D01*
X8549Y4160D01*
X8618Y3995D01*
X8744Y3868D01*
X8910Y3800D01*
X9089Y3799D01*
X9254Y3868D01*
X9381Y3994D01*
X9449Y4160D01*
X9450Y4339D01*
X9450Y3339D01*
X9381Y3504D01*
X9255Y3631D01*
X9089Y3699D01*
X8910Y3700D01*
X8745Y3631D01*
X8618Y3505D01*
X8550Y3339D01*
X8549Y3160D01*
X8618Y2995D01*
X8744Y2868D01*
X8910Y2800D01*
X9089Y2799D01*
X9254Y2868D01*
X9381Y2994D01*
X9449Y3160D01*
X9450Y3339D01*
X9450Y2339D01*
X9381Y2504D01*
X9255Y2631D01*
X9089Y2699D01*
X8910Y2700D01*
X8745Y2631D01*
X8618Y2505D01*
X8550Y2339D01*
X8549Y2160D01*
X8618Y1995D01*
X8744Y1868D01*
X8910Y1800D01*
X9089Y1799D01*
X9254Y1868D01*
X9381Y1994D01*
X9449Y2160D01*
X9450Y2339D01*
X9450Y179D01*
X8250Y179D01*
X8250Y3134D01*
X8185Y3290D01*
X8066Y3410D01*
X7909Y3474D01*
X7740Y3475D01*
X7584Y3410D01*
X7525Y3351D01*
X7525Y4134D01*
X7525Y7134D01*
X7460Y7290D01*
X7341Y7410D01*
X7184Y7474D01*
X7015Y7475D01*
X6859Y7410D01*
X6739Y7291D01*
X6675Y7134D01*
X6674Y6965D01*
X6739Y6809D01*
X6858Y6689D01*
X7015Y6625D01*
X7184Y6624D01*
X7340Y6689D01*
X7460Y6808D01*
X7524Y6965D01*
X7525Y7134D01*
X7525Y4134D01*
X7460Y4290D01*
X7341Y4410D01*
X7184Y4474D01*
X7015Y4475D01*
X6859Y4410D01*
X6739Y4291D01*
X6675Y4134D01*
X6674Y3965D01*
X6739Y3809D01*
X6858Y3689D01*
X7015Y3625D01*
X7184Y3624D01*
X7340Y3689D01*
X7460Y3808D01*
X7524Y3965D01*
X7525Y4134D01*
X7525Y3351D01*
X7464Y3291D01*
X7400Y3134D01*
X7399Y2965D01*
X7464Y2809D01*
X7583Y2689D01*
X7740Y2625D01*
X7909Y2624D01*
X8065Y2689D01*
X8185Y2808D01*
X8249Y2965D01*
X8250Y3134D01*
X8250Y179D01*
X7830Y179D01*
X7830Y736D01*
X7817Y924D01*
X7775Y1028D01*
X7775Y1884D01*
X7710Y2040D01*
X7591Y2160D01*
X7434Y2224D01*
X7265Y2225D01*
X7109Y2160D01*
X6989Y2041D01*
X6925Y1884D01*
X6924Y1715D01*
X6989Y1559D01*
X7108Y1439D01*
X7265Y1375D01*
X7434Y1374D01*
X7590Y1439D01*
X7710Y1558D01*
X7774Y1715D01*
X7775Y1884D01*
X7775Y1028D01*
X7769Y1042D01*
X7690Y1069D01*
X7619Y998D01*
X7619Y1140D01*
X7592Y1219D01*
X7413Y1280D01*
X7225Y1267D01*
X7107Y1219D01*
X7080Y1140D01*
X7350Y870D01*
X7619Y1140D01*
X7619Y998D01*
X7420Y800D01*
X7690Y530D01*
X7769Y557D01*
X7830Y736D01*
X7830Y179D01*
X7619Y179D01*
X7619Y459D01*
X7350Y729D01*
X7279Y658D01*
X7279Y800D01*
X7009Y1069D01*
X6930Y1042D01*
X6869Y863D01*
X6882Y675D01*
X6930Y557D01*
X7009Y530D01*
X7279Y800D01*
X7279Y658D01*
X7080Y459D01*
X7107Y380D01*
X7286Y319D01*
X7474Y332D01*
X7592Y380D01*
X7619Y459D01*
X7619Y179D01*
X6301Y179D01*
X6324Y235D01*
X6325Y314D01*
X6325Y785D01*
X6324Y864D01*
X6294Y938D01*
X6275Y957D01*
X6275Y4134D01*
X6275Y7134D01*
X6210Y7290D01*
X6091Y7410D01*
X5934Y7474D01*
X5765Y7475D01*
X5609Y7410D01*
X5489Y7291D01*
X5425Y7134D01*
X5424Y6965D01*
X5489Y6809D01*
X5608Y6689D01*
X5765Y6625D01*
X5934Y6624D01*
X6090Y6689D01*
X6210Y6808D01*
X6274Y6965D01*
X6275Y7134D01*
X6275Y4134D01*
X6210Y4290D01*
X6091Y4410D01*
X5934Y4474D01*
X5765Y4475D01*
X5609Y4410D01*
X5489Y4291D01*
X5425Y4134D01*
X5424Y3965D01*
X5489Y3809D01*
X5608Y3689D01*
X5765Y3625D01*
X5934Y3624D01*
X6090Y3689D01*
X6210Y3808D01*
X6274Y3965D01*
X6275Y4134D01*
X6275Y957D01*
X6238Y994D01*
X6164Y1025D01*
X5950Y1025D01*
X5900Y975D01*
X5900Y600D01*
X6275Y600D01*
X6325Y650D01*
X6325Y785D01*
X6325Y314D01*
X6325Y450D01*
X6275Y500D01*
X5950Y500D01*
X5900Y500D01*
X5800Y500D01*
X5800Y600D01*
X5800Y975D01*
X5750Y1025D01*
X5535Y1025D01*
X5461Y994D01*
X5405Y938D01*
X5375Y864D01*
X5374Y785D01*
X5375Y650D01*
X5425Y600D01*
X5800Y600D01*
X5800Y500D01*
X5750Y500D01*
X5425Y500D01*
X5375Y450D01*
X5374Y314D01*
X5375Y235D01*
X5398Y179D01*
X5330Y179D01*
X5330Y1736D01*
X5317Y1924D01*
X5275Y2028D01*
X5275Y4134D01*
X5275Y7134D01*
X5210Y7290D01*
X5091Y7410D01*
X4934Y7474D01*
X4765Y7475D01*
X4609Y7410D01*
X4489Y7291D01*
X4425Y7134D01*
X4424Y6965D01*
X4489Y6809D01*
X4608Y6689D01*
X4765Y6625D01*
X4934Y6624D01*
X5090Y6689D01*
X5210Y6808D01*
X5274Y6965D01*
X5275Y7134D01*
X5275Y4134D01*
X5210Y4290D01*
X5091Y4410D01*
X4934Y4474D01*
X4765Y4475D01*
X4609Y4410D01*
X4489Y4291D01*
X4425Y4134D01*
X4424Y3965D01*
X4489Y3809D01*
X4608Y3689D01*
X4765Y3625D01*
X4934Y3624D01*
X5090Y3689D01*
X5210Y3808D01*
X5274Y3965D01*
X5275Y4134D01*
X5275Y2028D01*
X5269Y2042D01*
X5250Y2049D01*
X5250Y3134D01*
X5185Y3290D01*
X5066Y3410D01*
X4909Y3474D01*
X4740Y3475D01*
X4584Y3410D01*
X4464Y3291D01*
X4400Y3134D01*
X4399Y2965D01*
X4464Y2809D01*
X4583Y2689D01*
X4740Y2625D01*
X4909Y2624D01*
X5065Y2689D01*
X5185Y2808D01*
X5249Y2965D01*
X5250Y3134D01*
X5250Y2049D01*
X5190Y2069D01*
X5119Y1998D01*
X5119Y2140D01*
X5092Y2219D01*
X4913Y2280D01*
X4725Y2267D01*
X4607Y2219D01*
X4580Y2140D01*
X4850Y1870D01*
X5119Y2140D01*
X5119Y1998D01*
X4920Y1800D01*
X5190Y1530D01*
X5269Y1557D01*
X5330Y1736D01*
X5330Y179D01*
X5119Y179D01*
X5119Y1459D01*
X4850Y1729D01*
X4779Y1658D01*
X4779Y1800D01*
X4509Y2069D01*
X4430Y2042D01*
X4369Y1863D01*
X4382Y1675D01*
X4430Y1557D01*
X4509Y1530D01*
X4779Y1800D01*
X4779Y1658D01*
X4580Y1459D01*
X4607Y1380D01*
X4786Y1319D01*
X4974Y1332D01*
X5092Y1380D01*
X5119Y1459D01*
X5119Y179D01*
X4275Y179D01*
X4275Y1884D01*
X4275Y3134D01*
X4275Y4134D01*
X4275Y7134D01*
X4210Y7290D01*
X4091Y7410D01*
X3934Y7474D01*
X3765Y7475D01*
X3609Y7410D01*
X3489Y7291D01*
X3425Y7134D01*
X3424Y6965D01*
X3489Y6809D01*
X3608Y6689D01*
X3765Y6625D01*
X3934Y6624D01*
X4090Y6689D01*
X4210Y6808D01*
X4274Y6965D01*
X4275Y7134D01*
X4275Y4134D01*
X4210Y4290D01*
X4091Y4410D01*
X3934Y4474D01*
X3765Y4475D01*
X3609Y4410D01*
X3489Y4291D01*
X3425Y4134D01*
X3424Y3965D01*
X3489Y3809D01*
X3608Y3689D01*
X3765Y3625D01*
X3934Y3624D01*
X4090Y3689D01*
X4210Y3808D01*
X4274Y3965D01*
X4275Y4134D01*
X4275Y3134D01*
X4210Y3290D01*
X4091Y3410D01*
X3934Y3474D01*
X3765Y3475D01*
X3609Y3410D01*
X3489Y3291D01*
X3425Y3134D01*
X3424Y2965D01*
X3489Y2809D01*
X3608Y2689D01*
X3765Y2625D01*
X3934Y2624D01*
X4090Y2689D01*
X4210Y2808D01*
X4274Y2965D01*
X4275Y3134D01*
X4275Y1884D01*
X4210Y2040D01*
X4091Y2160D01*
X3934Y2224D01*
X3765Y2225D01*
X3609Y2160D01*
X3489Y2041D01*
X3425Y1884D01*
X3424Y1715D01*
X3489Y1559D01*
X3608Y1439D01*
X3765Y1375D01*
X3934Y1374D01*
X4090Y1439D01*
X4210Y1558D01*
X4274Y1715D01*
X4275Y1884D01*
X4275Y179D01*
X3330Y179D01*
X3330Y6986D01*
X3317Y7174D01*
X3269Y7292D01*
X3190Y7319D01*
X3119Y7248D01*
X3119Y7390D01*
X3092Y7469D01*
X2913Y7530D01*
X2725Y7517D01*
X2607Y7469D01*
X2580Y7390D01*
X2850Y7120D01*
X3119Y7390D01*
X3119Y7248D01*
X2920Y7050D01*
X3190Y6780D01*
X3269Y6807D01*
X3330Y6986D01*
X3330Y179D01*
X3066Y179D01*
X3090Y189D01*
X3210Y308D01*
X3274Y465D01*
X3275Y634D01*
X3275Y634D01*
X3275Y3804D01*
X3275Y4354D01*
X3252Y4409D01*
X3210Y4452D01*
X3154Y4474D01*
X3119Y4475D01*
X3119Y6709D01*
X2850Y6979D01*
X2779Y6908D01*
X2779Y7050D01*
X2509Y7319D01*
X2430Y7292D01*
X2369Y7113D01*
X2382Y6925D01*
X2430Y6807D01*
X2509Y6780D01*
X2779Y7050D01*
X2779Y6908D01*
X2580Y6709D01*
X2607Y6630D01*
X2786Y6569D01*
X2974Y6582D01*
X3092Y6630D01*
X3119Y6709D01*
X3119Y4475D01*
X3095Y4475D01*
X2545Y4475D01*
X2493Y4453D01*
X2080Y4866D01*
X2080Y5986D01*
X2067Y6174D01*
X2019Y6292D01*
X1940Y6319D01*
X1869Y6248D01*
X1869Y6390D01*
X1842Y6469D01*
X1663Y6530D01*
X1475Y6517D01*
X1357Y6469D01*
X1330Y6390D01*
X1600Y6120D01*
X1869Y6390D01*
X1869Y6248D01*
X1670Y6050D01*
X1940Y5780D01*
X2019Y5807D01*
X2080Y5986D01*
X2080Y4866D01*
X2012Y4934D01*
X2024Y4965D01*
X2025Y5134D01*
X1960Y5290D01*
X1869Y5381D01*
X1869Y5709D01*
X1600Y5979D01*
X1529Y5908D01*
X1529Y6050D01*
X1259Y6319D01*
X1180Y6292D01*
X1119Y6113D01*
X1132Y5925D01*
X1180Y5807D01*
X1259Y5780D01*
X1529Y6050D01*
X1529Y5908D01*
X1330Y5709D01*
X1357Y5630D01*
X1536Y5569D01*
X1724Y5582D01*
X1842Y5630D01*
X1869Y5709D01*
X1869Y5381D01*
X1841Y5410D01*
X1684Y5474D01*
X1515Y5475D01*
X1359Y5410D01*
X1239Y5291D01*
X1175Y5134D01*
X1174Y4965D01*
X1239Y4809D01*
X1358Y4689D01*
X1515Y4625D01*
X1684Y4624D01*
X1715Y4637D01*
X2184Y4168D01*
X2184Y4050D01*
X2200Y3969D01*
X2246Y3901D01*
X2314Y3855D01*
X2394Y3840D01*
X2424Y3840D01*
X2424Y3745D01*
X2447Y3690D01*
X2489Y3647D01*
X2545Y3625D01*
X2604Y3624D01*
X3154Y3624D01*
X3209Y3647D01*
X3252Y3689D01*
X3274Y3745D01*
X3275Y3804D01*
X3275Y634D01*
X3210Y790D01*
X3091Y910D01*
X2934Y974D01*
X2765Y975D01*
X2609Y910D01*
X2489Y791D01*
X2425Y634D01*
X2424Y465D01*
X2489Y309D01*
X2608Y189D01*
X2634Y179D01*
X1670Y179D01*
X1900Y274D01*
X2224Y597D01*
X2399Y1020D01*
X2400Y1477D01*
X2225Y1900D01*
X1902Y2224D01*
X1479Y2399D01*
X1425Y2399D01*
X1425Y3163D01*
X1337Y3375D01*
X1176Y3537D01*
X964Y3624D01*
X736Y3625D01*
X524Y3537D01*
X362Y3376D01*
X275Y3164D01*
X274Y2936D01*
X362Y2724D01*
X523Y2562D01*
X735Y2475D01*
X963Y2474D01*
X1175Y2562D01*
X1337Y2723D01*
X1424Y2935D01*
X1425Y3163D01*
X1425Y2399D01*
X1022Y2400D01*
X599Y2225D01*
X275Y1902D01*
X179Y1670D01*
X179Y4019D01*
X258Y3939D01*
X415Y3875D01*
X584Y3874D01*
X740Y3939D01*
X860Y4058D01*
X924Y4215D01*
X925Y4384D01*
X860Y4540D01*
X741Y4660D01*
X584Y4724D01*
X415Y4725D01*
X259Y4660D01*
X179Y4580D01*
X179Y6810D01*
X385Y6725D01*
X613Y6724D01*
X825Y6812D01*
X987Y6973D01*
X1074Y7185D01*
X1075Y7413D01*
X987Y7625D01*
X826Y7787D01*
X614Y7874D01*
X386Y7875D01*
X179Y7789D01*
X179Y8150D01*
X229Y8149D01*
X779Y8149D01*
X834Y8172D01*
X877Y8214D01*
X899Y8270D01*
X900Y8325D01*
X1945Y8325D01*
X1954Y8303D01*
X2102Y8155D01*
X2295Y8075D01*
X2503Y8074D01*
X2697Y8154D01*
X2844Y8302D01*
X2864Y8350D01*
X3525Y8350D01*
X3620Y8369D01*
X3701Y8423D01*
X4178Y8900D01*
X4804Y8900D01*
X4742Y8874D01*
X4601Y8733D01*
X4525Y8549D01*
X4524Y8350D01*
X4600Y8167D01*
X4741Y8026D01*
X4925Y7950D01*
X5124Y7949D01*
X5307Y8025D01*
X5448Y8166D01*
X5524Y8350D01*
X5525Y8549D01*
X5509Y8587D01*
X5531Y8565D01*
X5525Y8549D01*
X5524Y8350D01*
X5600Y8167D01*
X5741Y8026D01*
X5925Y7950D01*
X6124Y7949D01*
X6307Y8025D01*
X6448Y8166D01*
X6524Y8350D01*
X6524Y8420D01*
X6524Y8070D01*
X6547Y8015D01*
X6589Y7972D01*
X6645Y7950D01*
X6704Y7949D01*
X7404Y7949D01*
X7459Y7972D01*
X7502Y8014D01*
X7524Y8070D01*
X7525Y8129D01*
X7525Y8829D01*
X7502Y8884D01*
X7460Y8927D01*
X7404Y8949D01*
X7345Y8950D01*
X6645Y8950D01*
X6590Y8927D01*
X6547Y8885D01*
X6525Y8829D01*
X6524Y8770D01*
X6524Y8549D01*
X6449Y8732D01*
X6308Y8873D01*
X6124Y8949D01*
X5925Y8950D01*
X5874Y8928D01*
X5680Y9123D01*
X5680Y13236D01*
X5667Y13424D01*
X5619Y13542D01*
X5540Y13569D01*
X5469Y13498D01*
X5469Y13640D01*
X5442Y13719D01*
X5263Y13780D01*
X5075Y13767D01*
X4957Y13719D01*
X4930Y13640D01*
X5200Y13370D01*
X5469Y13640D01*
X5469Y13498D01*
X5270Y13300D01*
X5540Y13030D01*
X5619Y13057D01*
X5680Y13236D01*
X5680Y9123D01*
X5525Y9278D01*
X5525Y10549D01*
X5469Y10683D01*
X5469Y12959D01*
X5200Y13229D01*
X5129Y13158D01*
X5129Y13300D01*
X4859Y13569D01*
X4780Y13542D01*
X4719Y13363D01*
X4732Y13175D01*
X4780Y13057D01*
X4859Y13030D01*
X5129Y13300D01*
X5129Y13158D01*
X4930Y12959D01*
X4957Y12880D01*
X5136Y12819D01*
X5324Y12832D01*
X5442Y12880D01*
X5469Y12959D01*
X5469Y10683D01*
X5449Y10732D01*
X5308Y10873D01*
X5124Y10949D01*
X4925Y10950D01*
X4742Y10874D01*
X4601Y10733D01*
X4525Y10549D01*
X4524Y10350D01*
X4600Y10167D01*
X4741Y10026D01*
X4925Y9950D01*
X5124Y9949D01*
X5307Y10025D01*
X5448Y10166D01*
X5524Y10350D01*
X5525Y10549D01*
X5525Y9278D01*
X5476Y9326D01*
X5395Y9380D01*
X5300Y9400D01*
X4075Y9400D01*
X3979Y9380D01*
X3898Y9326D01*
X3421Y8850D01*
X2975Y8850D01*
X2975Y10185D01*
X2975Y11014D01*
X2944Y11088D01*
X2888Y11144D01*
X2825Y11170D01*
X2825Y12488D01*
X2737Y12700D01*
X2725Y12713D01*
X2725Y13560D01*
X2725Y14189D01*
X2694Y14263D01*
X2638Y14319D01*
X2564Y14349D01*
X2485Y14350D01*
X2350Y14350D01*
X2300Y14300D01*
X2300Y13925D01*
X2675Y13925D01*
X2725Y13975D01*
X2725Y14189D01*
X2725Y13560D01*
X2725Y13775D01*
X2675Y13825D01*
X2300Y13825D01*
X2300Y13450D01*
X2350Y13400D01*
X2485Y13399D01*
X2564Y13400D01*
X2638Y13430D01*
X2694Y13486D01*
X2725Y13560D01*
X2725Y12713D01*
X2576Y12862D01*
X2364Y12949D01*
X2200Y12950D01*
X2200Y13450D01*
X2200Y13825D01*
X2200Y13925D01*
X2200Y14300D01*
X2150Y14350D01*
X2014Y14350D01*
X1935Y14349D01*
X1861Y14319D01*
X1805Y14263D01*
X1774Y14189D01*
X1775Y13975D01*
X1825Y13925D01*
X2200Y13925D01*
X2200Y13825D01*
X1825Y13825D01*
X1775Y13775D01*
X1774Y13560D01*
X1805Y13486D01*
X1861Y13430D01*
X1935Y13400D01*
X2014Y13399D01*
X2150Y13400D01*
X2200Y13450D01*
X2200Y12950D01*
X2136Y12950D01*
X1924Y12862D01*
X1762Y12701D01*
X1675Y12489D01*
X1674Y12261D01*
X1762Y12049D01*
X1923Y11887D01*
X2135Y11800D01*
X2363Y11799D01*
X2575Y11887D01*
X2737Y12048D01*
X2824Y12260D01*
X2825Y12488D01*
X2825Y11170D01*
X2814Y11174D01*
X2735Y11175D01*
X2500Y11175D01*
X2450Y11125D01*
X2450Y10650D01*
X2925Y10650D01*
X2975Y10700D01*
X2975Y11014D01*
X2975Y10185D01*
X2975Y10500D01*
X2925Y10550D01*
X2450Y10550D01*
X2450Y10075D01*
X2500Y10025D01*
X2735Y10024D01*
X2814Y10025D01*
X2888Y10055D01*
X2944Y10111D01*
X2975Y10185D01*
X2975Y8850D01*
X2864Y8850D01*
X2845Y8897D01*
X2697Y9044D01*
X2504Y9124D01*
X2350Y9125D01*
X2350Y10075D01*
X2350Y10550D01*
X2350Y10650D01*
X2350Y11125D01*
X2300Y11175D01*
X2064Y11175D01*
X1985Y11174D01*
X1911Y11144D01*
X1855Y11088D01*
X1824Y11014D01*
X1825Y10700D01*
X1875Y10650D01*
X2350Y10650D01*
X2350Y10550D01*
X1875Y10550D01*
X1825Y10500D01*
X1824Y10185D01*
X1855Y10111D01*
X1911Y10055D01*
X1985Y10025D01*
X2064Y10024D01*
X2300Y10025D01*
X2350Y10075D01*
X2350Y9125D01*
X2296Y9125D01*
X2103Y9045D01*
X1955Y8897D01*
X1924Y8825D01*
X900Y8825D01*
X900Y8879D01*
X877Y8934D01*
X835Y8977D01*
X779Y8999D01*
X720Y9000D01*
X179Y9000D01*
X179Y11075D01*
X360Y11000D01*
X588Y10999D01*
X800Y11087D01*
X962Y11248D01*
X1049Y11460D01*
X1050Y11688D01*
X962Y11900D01*
X801Y12062D01*
X589Y12149D01*
X361Y12150D01*
X179Y12075D01*
X179Y14820D01*
X32320Y14820D01*
X32320Y1670D01*
X32320Y1670D01*
G37*
G54D23*
X32320Y1670D02*
X32225Y1900D01*
X31950Y2176D01*
X31950Y4089D01*
X31950Y7339D01*
X31950Y10589D01*
X31950Y10589D01*
X31950Y11229D01*
X31950Y11829D01*
X31927Y11884D01*
X31885Y11927D01*
X31829Y11949D01*
X31770Y11950D01*
X31170Y11950D01*
X31115Y11927D01*
X31072Y11885D01*
X31050Y11829D01*
X31049Y11770D01*
X31049Y11170D01*
X31072Y11115D01*
X31114Y11072D01*
X31170Y11050D01*
X31229Y11049D01*
X31829Y11049D01*
X31884Y11072D01*
X31927Y11114D01*
X31949Y11170D01*
X31950Y11229D01*
X31950Y10589D01*
X31881Y10754D01*
X31755Y10881D01*
X31589Y10949D01*
X31410Y10950D01*
X31245Y10881D01*
X31118Y10755D01*
X31050Y10589D01*
X31049Y10410D01*
X31118Y10245D01*
X31244Y10118D01*
X31410Y10050D01*
X31589Y10049D01*
X31754Y10118D01*
X31881Y10244D01*
X31949Y10410D01*
X31950Y10589D01*
X31950Y7339D01*
X31950Y7339D01*
X31950Y7979D01*
X31950Y8579D01*
X31927Y8634D01*
X31885Y8677D01*
X31829Y8699D01*
X31770Y8700D01*
X31170Y8700D01*
X31115Y8677D01*
X31072Y8635D01*
X31050Y8579D01*
X31049Y8520D01*
X31049Y7920D01*
X31072Y7865D01*
X31114Y7822D01*
X31170Y7800D01*
X31229Y7799D01*
X31829Y7799D01*
X31884Y7822D01*
X31927Y7864D01*
X31949Y7920D01*
X31950Y7979D01*
X31950Y7339D01*
X31881Y7504D01*
X31755Y7631D01*
X31589Y7699D01*
X31410Y7700D01*
X31245Y7631D01*
X31118Y7505D01*
X31050Y7339D01*
X31049Y7160D01*
X31118Y6995D01*
X31244Y6868D01*
X31410Y6800D01*
X31589Y6799D01*
X31754Y6868D01*
X31881Y6994D01*
X31949Y7160D01*
X31950Y7339D01*
X31950Y4089D01*
X31950Y4089D01*
X31950Y4729D01*
X31950Y5329D01*
X31927Y5384D01*
X31885Y5427D01*
X31829Y5449D01*
X31770Y5450D01*
X31170Y5450D01*
X31115Y5427D01*
X31072Y5385D01*
X31050Y5329D01*
X31049Y5270D01*
X31049Y4670D01*
X31072Y4615D01*
X31114Y4572D01*
X31170Y4550D01*
X31229Y4549D01*
X31829Y4549D01*
X31884Y4572D01*
X31927Y4614D01*
X31949Y4670D01*
X31950Y4729D01*
X31950Y4089D01*
X31881Y4254D01*
X31755Y4381D01*
X31589Y4449D01*
X31410Y4450D01*
X31245Y4381D01*
X31118Y4255D01*
X31050Y4089D01*
X31049Y3910D01*
X31118Y3745D01*
X31244Y3618D01*
X31410Y3550D01*
X31589Y3549D01*
X31754Y3618D01*
X31881Y3744D01*
X31949Y3910D01*
X31950Y4089D01*
X31950Y2176D01*
X31902Y2224D01*
X31479Y2399D01*
X31022Y2400D01*
X30950Y2370D01*
X30950Y4089D01*
X30950Y5089D01*
X30950Y7339D01*
X30950Y8339D01*
X30881Y8504D01*
X30755Y8631D01*
X30589Y8699D01*
X30410Y8700D01*
X30245Y8631D01*
X30118Y8505D01*
X30050Y8339D01*
X30049Y8160D01*
X30118Y7995D01*
X30244Y7868D01*
X30410Y7800D01*
X30589Y7799D01*
X30754Y7868D01*
X30881Y7994D01*
X30949Y8160D01*
X30950Y8339D01*
X30950Y7339D01*
X30881Y7504D01*
X30755Y7631D01*
X30589Y7699D01*
X30410Y7700D01*
X30245Y7631D01*
X30118Y7505D01*
X30050Y7339D01*
X30049Y7160D01*
X30118Y6995D01*
X30244Y6868D01*
X30410Y6800D01*
X30589Y6799D01*
X30754Y6868D01*
X30881Y6994D01*
X30949Y7160D01*
X30950Y7339D01*
X30950Y5089D01*
X30881Y5254D01*
X30755Y5381D01*
X30589Y5449D01*
X30410Y5450D01*
X30245Y5381D01*
X30118Y5255D01*
X30050Y5089D01*
X30049Y4910D01*
X30118Y4745D01*
X30244Y4618D01*
X30410Y4550D01*
X30589Y4549D01*
X30754Y4618D01*
X30881Y4744D01*
X30949Y4910D01*
X30950Y5089D01*
X30950Y4089D01*
X30881Y4254D01*
X30755Y4381D01*
X30589Y4449D01*
X30410Y4450D01*
X30365Y4431D01*
X30148Y4648D01*
X30080Y4694D01*
X30000Y4710D01*
X29846Y4710D01*
X29881Y4744D01*
X29949Y4910D01*
X29950Y5089D01*
X29950Y7339D01*
X29950Y8339D01*
X29881Y8504D01*
X29755Y8631D01*
X29589Y8699D01*
X29410Y8700D01*
X29245Y8631D01*
X29118Y8505D01*
X29050Y8339D01*
X29049Y8160D01*
X29118Y7995D01*
X29244Y7868D01*
X29410Y7800D01*
X29589Y7799D01*
X29754Y7868D01*
X29881Y7994D01*
X29949Y8160D01*
X29950Y8339D01*
X29950Y7339D01*
X29881Y7504D01*
X29755Y7631D01*
X29589Y7699D01*
X29410Y7700D01*
X29245Y7631D01*
X29118Y7505D01*
X29050Y7339D01*
X29049Y7160D01*
X29118Y6995D01*
X29244Y6868D01*
X29410Y6800D01*
X29589Y6799D01*
X29754Y6868D01*
X29881Y6994D01*
X29949Y7160D01*
X29950Y7339D01*
X29950Y5089D01*
X29881Y5254D01*
X29755Y5381D01*
X29589Y5449D01*
X29410Y5450D01*
X29245Y5381D01*
X29118Y5255D01*
X29050Y5089D01*
X29049Y4910D01*
X29118Y4745D01*
X29153Y4710D01*
X28846Y4710D01*
X28881Y4744D01*
X28949Y4910D01*
X28950Y5089D01*
X28950Y7339D01*
X28950Y8339D01*
X28881Y8504D01*
X28755Y8631D01*
X28589Y8699D01*
X28410Y8700D01*
X28245Y8631D01*
X28118Y8505D01*
X28050Y8339D01*
X28049Y8160D01*
X28118Y7995D01*
X28244Y7868D01*
X28410Y7800D01*
X28589Y7799D01*
X28754Y7868D01*
X28881Y7994D01*
X28949Y8160D01*
X28950Y8339D01*
X28950Y7339D01*
X28881Y7504D01*
X28755Y7631D01*
X28589Y7699D01*
X28410Y7700D01*
X28245Y7631D01*
X28118Y7505D01*
X28050Y7339D01*
X28049Y7160D01*
X28118Y6995D01*
X28244Y6868D01*
X28330Y6833D01*
X28340Y6738D01*
X28340Y6568D01*
X28337Y6568D01*
X28232Y6462D01*
X28175Y6324D01*
X28174Y6175D01*
X28231Y6037D01*
X28337Y5932D01*
X28475Y5875D01*
X28624Y5874D01*
X28762Y5931D01*
X28867Y6037D01*
X28924Y6175D01*
X28925Y6324D01*
X28868Y6462D01*
X28762Y6567D01*
X28760Y6568D01*
X28760Y6750D01*
X28757Y6760D01*
X28758Y6770D01*
X28749Y6866D01*
X28754Y6868D01*
X28881Y6994D01*
X28949Y7160D01*
X28950Y7339D01*
X28950Y5089D01*
X28881Y5254D01*
X28755Y5381D01*
X28589Y5449D01*
X28410Y5450D01*
X28245Y5381D01*
X28118Y5255D01*
X28050Y5089D01*
X28049Y4910D01*
X28118Y4745D01*
X28153Y4710D01*
X27836Y4710D01*
X27633Y4913D01*
X27565Y4958D01*
X27484Y4974D01*
X27361Y4974D01*
X27381Y4994D01*
X27449Y5160D01*
X27450Y5339D01*
X27431Y5384D01*
X27693Y5646D01*
X27738Y5714D01*
X27754Y5794D01*
X27754Y8457D01*
X29365Y10068D01*
X29410Y10050D01*
X29589Y10049D01*
X29754Y10118D01*
X29770Y10133D01*
X29770Y9828D01*
X29768Y9827D01*
X29662Y9721D01*
X29605Y9584D01*
X29605Y9434D01*
X29662Y9296D01*
X29767Y9191D01*
X29905Y9134D01*
X30054Y9134D01*
X30192Y9191D01*
X30297Y9296D01*
X30355Y9434D01*
X30355Y9583D01*
X30298Y9721D01*
X30192Y9826D01*
X30190Y9827D01*
X30190Y10173D01*
X30244Y10118D01*
X30410Y10050D01*
X30589Y10049D01*
X30754Y10118D01*
X30881Y10244D01*
X30949Y10410D01*
X30950Y10589D01*
X30950Y11589D01*
X30881Y11754D01*
X30875Y11761D01*
X30875Y13804D01*
X30875Y14354D01*
X30852Y14409D01*
X30810Y14452D01*
X30754Y14474D01*
X30695Y14475D01*
X30145Y14475D01*
X30090Y14452D01*
X30047Y14410D01*
X30025Y14354D01*
X30024Y14295D01*
X30024Y13745D01*
X30047Y13690D01*
X30089Y13647D01*
X30145Y13625D01*
X30204Y13624D01*
X30754Y13624D01*
X30809Y13647D01*
X30852Y13689D01*
X30874Y13745D01*
X30875Y13804D01*
X30875Y11761D01*
X30775Y11861D01*
X30775Y12834D01*
X30710Y12990D01*
X30591Y13110D01*
X30434Y13174D01*
X30265Y13175D01*
X30109Y13110D01*
X29989Y12991D01*
X29925Y12834D01*
X29924Y12665D01*
X29989Y12509D01*
X30108Y12389D01*
X30265Y12325D01*
X30434Y12324D01*
X30590Y12389D01*
X30710Y12508D01*
X30774Y12665D01*
X30775Y12834D01*
X30775Y11861D01*
X30755Y11881D01*
X30589Y11949D01*
X30410Y11950D01*
X30245Y11881D01*
X30118Y11755D01*
X30050Y11589D01*
X30049Y11410D01*
X30118Y11245D01*
X30244Y11118D01*
X30410Y11050D01*
X30589Y11049D01*
X30754Y11118D01*
X30881Y11244D01*
X30949Y11410D01*
X30950Y11589D01*
X30950Y10589D01*
X30881Y10754D01*
X30755Y10881D01*
X30589Y10949D01*
X30410Y10950D01*
X30245Y10881D01*
X30190Y10826D01*
X30190Y11019D01*
X30190Y11019D01*
X30190Y11019D01*
X30186Y11035D01*
X30174Y11100D01*
X30174Y11100D01*
X30128Y11168D01*
X30128Y11168D01*
X29931Y11365D01*
X29949Y11410D01*
X29950Y11589D01*
X29881Y11754D01*
X29875Y11761D01*
X29875Y14134D01*
X29810Y14290D01*
X29691Y14410D01*
X29534Y14474D01*
X29365Y14475D01*
X29209Y14410D01*
X29089Y14291D01*
X29025Y14134D01*
X29024Y13965D01*
X29089Y13809D01*
X29208Y13689D01*
X29365Y13625D01*
X29534Y13624D01*
X29690Y13689D01*
X29810Y13808D01*
X29874Y13965D01*
X29875Y14134D01*
X29875Y11761D01*
X29755Y11881D01*
X29589Y11949D01*
X29410Y11950D01*
X29245Y11881D01*
X29118Y11755D01*
X29050Y11589D01*
X29049Y11410D01*
X29118Y11245D01*
X29244Y11118D01*
X29410Y11050D01*
X29589Y11049D01*
X29634Y11068D01*
X29770Y10932D01*
X29770Y10866D01*
X29755Y10881D01*
X29589Y10949D01*
X29410Y10950D01*
X29245Y10881D01*
X29118Y10755D01*
X29050Y10589D01*
X29049Y10410D01*
X29068Y10365D01*
X28950Y10247D01*
X28950Y10589D01*
X28950Y11589D01*
X28881Y11754D01*
X28875Y11761D01*
X28875Y14134D01*
X28810Y14290D01*
X28691Y14410D01*
X28534Y14474D01*
X28365Y14475D01*
X28209Y14410D01*
X28089Y14291D01*
X28025Y14134D01*
X28024Y13965D01*
X28089Y13809D01*
X28208Y13689D01*
X28365Y13625D01*
X28534Y13624D01*
X28690Y13689D01*
X28810Y13808D01*
X28874Y13965D01*
X28875Y14134D01*
X28875Y11761D01*
X28755Y11881D01*
X28589Y11949D01*
X28410Y11950D01*
X28245Y11881D01*
X28118Y11755D01*
X28050Y11589D01*
X28049Y11410D01*
X28118Y11245D01*
X28244Y11118D01*
X28410Y11050D01*
X28589Y11049D01*
X28754Y11118D01*
X28881Y11244D01*
X28949Y11410D01*
X28950Y11589D01*
X28950Y10589D01*
X28881Y10754D01*
X28755Y10881D01*
X28589Y10949D01*
X28410Y10950D01*
X28245Y10881D01*
X28118Y10755D01*
X28050Y10589D01*
X28049Y10410D01*
X28118Y10245D01*
X28244Y10118D01*
X28410Y10050D01*
X28589Y10049D01*
X28754Y10118D01*
X28881Y10244D01*
X28949Y10410D01*
X28950Y10589D01*
X28950Y10247D01*
X27830Y9127D01*
X27830Y12686D01*
X27817Y12874D01*
X27769Y12992D01*
X27690Y13019D01*
X27619Y12948D01*
X27619Y13090D01*
X27592Y13169D01*
X27413Y13230D01*
X27225Y13217D01*
X27107Y13169D01*
X27080Y13090D01*
X27350Y12820D01*
X27619Y13090D01*
X27619Y12948D01*
X27420Y12750D01*
X27690Y12480D01*
X27769Y12507D01*
X27830Y12686D01*
X27830Y9127D01*
X27619Y8916D01*
X27619Y12409D01*
X27350Y12679D01*
X27279Y12608D01*
X27279Y12750D01*
X27009Y13019D01*
X26930Y12992D01*
X26869Y12813D01*
X26882Y12625D01*
X26930Y12507D01*
X27009Y12480D01*
X27279Y12750D01*
X27279Y12608D01*
X27080Y12409D01*
X27107Y12330D01*
X27286Y12269D01*
X27474Y12282D01*
X27592Y12330D01*
X27619Y12409D01*
X27619Y8916D01*
X27500Y8797D01*
X27500Y10910D01*
X27500Y11589D01*
X27469Y11663D01*
X27413Y11719D01*
X27339Y11749D01*
X27260Y11750D01*
X27100Y11750D01*
X27050Y11700D01*
X27050Y11300D01*
X27450Y11300D01*
X27500Y11350D01*
X27500Y11589D01*
X27500Y10910D01*
X27500Y11150D01*
X27450Y11200D01*
X27050Y11200D01*
X27050Y10800D01*
X27100Y10750D01*
X27260Y10749D01*
X27339Y10750D01*
X27413Y10780D01*
X27469Y10836D01*
X27500Y10910D01*
X27500Y8797D01*
X27396Y8693D01*
X27350Y8625D01*
X27335Y8550D01*
X27255Y8631D01*
X27089Y8699D01*
X26910Y8700D01*
X26745Y8631D01*
X26715Y8601D01*
X26715Y8898D01*
X26744Y8868D01*
X26910Y8800D01*
X27089Y8799D01*
X27254Y8868D01*
X27381Y8994D01*
X27449Y9160D01*
X27450Y9339D01*
X27381Y9504D01*
X27255Y9631D01*
X27089Y9699D01*
X26910Y9700D01*
X26745Y9631D01*
X26715Y9601D01*
X26715Y9898D01*
X26744Y9868D01*
X26910Y9800D01*
X27089Y9799D01*
X27254Y9868D01*
X27381Y9994D01*
X27449Y10160D01*
X27450Y10339D01*
X27381Y10504D01*
X27255Y10631D01*
X27089Y10699D01*
X26950Y10700D01*
X26950Y10800D01*
X26950Y11200D01*
X26950Y11300D01*
X26950Y11700D01*
X26900Y11750D01*
X26739Y11750D01*
X26660Y11749D01*
X26586Y11719D01*
X26530Y11663D01*
X26499Y11589D01*
X26500Y11350D01*
X26550Y11300D01*
X26950Y11300D01*
X26950Y11200D01*
X26550Y11200D01*
X26500Y11150D01*
X26499Y10910D01*
X26530Y10836D01*
X26586Y10780D01*
X26660Y10750D01*
X26739Y10749D01*
X26900Y10750D01*
X26950Y10800D01*
X26950Y10700D01*
X26910Y10700D01*
X26745Y10631D01*
X26658Y10544D01*
X26653Y10552D01*
X26653Y10552D01*
X26383Y10822D01*
X26384Y10822D01*
X26427Y10864D01*
X26449Y10920D01*
X26450Y10979D01*
X26450Y11579D01*
X26427Y11634D01*
X26385Y11677D01*
X26329Y11699D01*
X26270Y11700D01*
X25670Y11700D01*
X25615Y11677D01*
X25572Y11635D01*
X25550Y11579D01*
X25549Y11520D01*
X25549Y10920D01*
X25572Y10865D01*
X25614Y10822D01*
X25670Y10800D01*
X25729Y10799D01*
X25790Y10799D01*
X25790Y10794D01*
X25805Y10714D01*
X25836Y10669D01*
X25745Y10631D01*
X25618Y10505D01*
X25550Y10339D01*
X25549Y10160D01*
X25618Y9995D01*
X25744Y9868D01*
X25910Y9800D01*
X26089Y9799D01*
X26254Y9868D01*
X26295Y9908D01*
X26295Y9591D01*
X26255Y9631D01*
X26089Y9699D01*
X25910Y9700D01*
X25745Y9631D01*
X25618Y9505D01*
X25550Y9339D01*
X25549Y9160D01*
X25618Y8995D01*
X25744Y8868D01*
X25910Y8800D01*
X26089Y8799D01*
X26254Y8868D01*
X26295Y8908D01*
X26295Y8591D01*
X26255Y8631D01*
X26089Y8699D01*
X25910Y8700D01*
X25745Y8631D01*
X25618Y8505D01*
X25550Y8339D01*
X25549Y8160D01*
X25618Y7995D01*
X25744Y7868D01*
X25910Y7800D01*
X26089Y7799D01*
X26254Y7868D01*
X26295Y7908D01*
X26295Y7591D01*
X26255Y7631D01*
X26089Y7699D01*
X25910Y7700D01*
X25745Y7631D01*
X25618Y7505D01*
X25550Y7339D01*
X25549Y7160D01*
X25618Y6995D01*
X25744Y6868D01*
X25910Y6800D01*
X26089Y6799D01*
X26254Y6868D01*
X26295Y6908D01*
X26295Y6591D01*
X26255Y6631D01*
X26089Y6699D01*
X25910Y6700D01*
X25745Y6631D01*
X25618Y6505D01*
X25550Y6339D01*
X25549Y6160D01*
X25618Y5995D01*
X25744Y5868D01*
X25910Y5800D01*
X26089Y5799D01*
X26254Y5868D01*
X26295Y5908D01*
X26295Y5591D01*
X26255Y5631D01*
X26089Y5699D01*
X25910Y5700D01*
X25745Y5631D01*
X25618Y5505D01*
X25550Y5339D01*
X25549Y5160D01*
X25618Y4995D01*
X25744Y4868D01*
X25910Y4800D01*
X26089Y4799D01*
X26254Y4868D01*
X26328Y4942D01*
X26356Y4899D01*
X26640Y4616D01*
X26694Y4580D01*
X26618Y4505D01*
X26550Y4339D01*
X26549Y4160D01*
X26618Y3995D01*
X26630Y3982D01*
X26369Y3982D01*
X26381Y3994D01*
X26449Y4160D01*
X26450Y4339D01*
X26381Y4504D01*
X26255Y4631D01*
X26089Y4699D01*
X25910Y4700D01*
X25745Y4631D01*
X25618Y4505D01*
X25550Y4339D01*
X25549Y4160D01*
X25603Y4031D01*
X23730Y5930D01*
X23730Y8436D01*
X23717Y8624D01*
X23669Y8742D01*
X23590Y8769D01*
X23519Y8698D01*
X23519Y8840D01*
X23492Y8919D01*
X23450Y8933D01*
X23450Y12339D01*
X23450Y13339D01*
X23381Y13504D01*
X23255Y13631D01*
X23089Y13699D01*
X22910Y13700D01*
X22745Y13631D01*
X22618Y13505D01*
X22550Y13339D01*
X22549Y13160D01*
X22618Y12995D01*
X22744Y12868D01*
X22910Y12800D01*
X23089Y12799D01*
X23254Y12868D01*
X23381Y12994D01*
X23449Y13160D01*
X23450Y13339D01*
X23450Y12339D01*
X23381Y12504D01*
X23255Y12631D01*
X23089Y12699D01*
X22910Y12700D01*
X22745Y12631D01*
X22618Y12505D01*
X22550Y12339D01*
X22549Y12160D01*
X22618Y11995D01*
X22744Y11868D01*
X22910Y11800D01*
X23089Y11799D01*
X23254Y11868D01*
X23381Y11994D01*
X23449Y12160D01*
X23450Y12339D01*
X23450Y8933D01*
X23425Y8942D01*
X23425Y11334D01*
X23360Y11490D01*
X23241Y11610D01*
X23084Y11674D01*
X22915Y11675D01*
X22759Y11610D01*
X22639Y11491D01*
X22575Y11334D01*
X22574Y11165D01*
X22639Y11009D01*
X22758Y10889D01*
X22915Y10825D01*
X23084Y10824D01*
X23240Y10889D01*
X23360Y11008D01*
X23424Y11165D01*
X23425Y11334D01*
X23425Y8942D01*
X23313Y8980D01*
X23125Y8967D01*
X23007Y8919D01*
X22980Y8840D01*
X23250Y8570D01*
X23519Y8840D01*
X23519Y8698D01*
X23320Y8500D01*
X23590Y8230D01*
X23669Y8257D01*
X23730Y8436D01*
X23730Y5930D01*
X23675Y5986D01*
X23675Y7584D01*
X23610Y7740D01*
X23519Y7831D01*
X23519Y8159D01*
X23250Y8429D01*
X23179Y8358D01*
X23179Y8500D01*
X22909Y8769D01*
X22830Y8742D01*
X22769Y8563D01*
X22782Y8375D01*
X22830Y8257D01*
X22909Y8230D01*
X23179Y8500D01*
X23179Y8358D01*
X22980Y8159D01*
X23007Y8080D01*
X23186Y8019D01*
X23374Y8032D01*
X23492Y8080D01*
X23519Y8159D01*
X23519Y7831D01*
X23491Y7860D01*
X23334Y7924D01*
X23165Y7925D01*
X23009Y7860D01*
X22889Y7741D01*
X22825Y7584D01*
X22824Y7415D01*
X22889Y7259D01*
X23008Y7139D01*
X23165Y7075D01*
X23334Y7074D01*
X23490Y7139D01*
X23610Y7258D01*
X23674Y7415D01*
X23675Y7584D01*
X23675Y5986D01*
X22133Y7550D01*
X22274Y7549D01*
X22412Y7606D01*
X22517Y7712D01*
X22574Y7850D01*
X22575Y7999D01*
X22518Y8137D01*
X22457Y8197D01*
X22535Y8674D01*
X22535Y8676D01*
X22536Y8680D01*
X22666Y9638D01*
X22712Y9656D01*
X22817Y9762D01*
X22874Y9900D01*
X22875Y10049D01*
X22818Y10187D01*
X22712Y10292D01*
X22574Y10349D01*
X22504Y10349D01*
X22504Y13180D01*
X22493Y13378D01*
X22439Y13507D01*
X22358Y13537D01*
X22287Y13467D01*
X22287Y13608D01*
X22257Y13689D01*
X22069Y13754D01*
X21871Y13743D01*
X21742Y13689D01*
X21712Y13608D01*
X22000Y13320D01*
X22287Y13608D01*
X22287Y13467D01*
X22070Y13250D01*
X22358Y12962D01*
X22439Y12992D01*
X22504Y13180D01*
X22504Y10349D01*
X22450Y10350D01*
X22450Y12339D01*
X22381Y12504D01*
X22287Y12598D01*
X22287Y12891D01*
X22000Y13179D01*
X21929Y13108D01*
X21929Y13250D01*
X21641Y13537D01*
X21560Y13507D01*
X21495Y13319D01*
X21506Y13121D01*
X21560Y12992D01*
X21641Y12962D01*
X21929Y13250D01*
X21929Y13108D01*
X21712Y12891D01*
X21742Y12810D01*
X21930Y12745D01*
X22128Y12756D01*
X22257Y12810D01*
X22287Y12891D01*
X22287Y12598D01*
X22255Y12631D01*
X22089Y12699D01*
X21910Y12700D01*
X21745Y12631D01*
X21618Y12505D01*
X21550Y12339D01*
X21549Y12160D01*
X21618Y11995D01*
X21744Y11868D01*
X21910Y11800D01*
X22089Y11799D01*
X22254Y11868D01*
X22381Y11994D01*
X22449Y12160D01*
X22450Y12339D01*
X22450Y10350D01*
X22425Y10350D01*
X22287Y10293D01*
X22182Y10187D01*
X22125Y10049D01*
X22124Y9900D01*
X22181Y9762D01*
X22250Y9694D01*
X22121Y8744D01*
X22121Y8742D01*
X22043Y8265D01*
X21987Y8243D01*
X21975Y8230D01*
X21975Y9264D01*
X21975Y9735D01*
X21974Y9814D01*
X21944Y9888D01*
X21888Y9944D01*
X21814Y9975D01*
X21600Y9975D01*
X21550Y9925D01*
X21550Y9550D01*
X21925Y9550D01*
X21975Y9600D01*
X21975Y9735D01*
X21975Y9264D01*
X21975Y9400D01*
X21925Y9450D01*
X21550Y9450D01*
X21550Y9075D01*
X21600Y9025D01*
X21814Y9024D01*
X21888Y9055D01*
X21944Y9111D01*
X21974Y9185D01*
X21975Y9264D01*
X21975Y8230D01*
X21882Y8137D01*
X21825Y7999D01*
X21824Y7862D01*
X21450Y8243D01*
X21450Y12339D01*
X21450Y13339D01*
X21381Y13504D01*
X21255Y13631D01*
X21089Y13699D01*
X20910Y13700D01*
X20745Y13631D01*
X20618Y13505D01*
X20550Y13339D01*
X20549Y13160D01*
X20618Y12995D01*
X20744Y12868D01*
X20910Y12800D01*
X21089Y12799D01*
X21254Y12868D01*
X21381Y12994D01*
X21449Y13160D01*
X21450Y13339D01*
X21450Y12339D01*
X21381Y12504D01*
X21255Y12631D01*
X21089Y12699D01*
X20910Y12700D01*
X20745Y12631D01*
X20618Y12505D01*
X20550Y12339D01*
X20549Y12160D01*
X20618Y11995D01*
X20744Y11868D01*
X20790Y11849D01*
X20790Y11486D01*
X20504Y11201D01*
X20504Y12180D01*
X20493Y12378D01*
X20450Y12483D01*
X20450Y13339D01*
X20381Y13504D01*
X20255Y13631D01*
X20089Y13699D01*
X19910Y13700D01*
X19750Y13633D01*
X19750Y14399D01*
X19693Y14537D01*
X19587Y14642D01*
X19449Y14699D01*
X19300Y14700D01*
X19162Y14643D01*
X19057Y14537D01*
X19000Y14399D01*
X18999Y14250D01*
X19001Y14246D01*
X18330Y13566D01*
X18326Y13559D01*
X18255Y13631D01*
X18089Y13699D01*
X17910Y13700D01*
X17865Y13681D01*
X17533Y14013D01*
X17465Y14059D01*
X17384Y14075D01*
X16186Y14075D01*
X16186Y14075D01*
X16170Y14071D01*
X16106Y14059D01*
X16038Y14013D01*
X16038Y14013D01*
X15351Y13326D01*
X15305Y13258D01*
X15290Y13178D01*
X15290Y9873D01*
X15259Y9860D01*
X15139Y9741D01*
X15075Y9584D01*
X15074Y9415D01*
X15139Y9259D01*
X15258Y9139D01*
X15415Y9075D01*
X15584Y9074D01*
X15644Y9099D01*
X15643Y8971D01*
X15645Y8968D01*
X15073Y8397D01*
X14925Y8397D01*
X14925Y9584D01*
X14925Y10734D01*
X14925Y10734D01*
X14925Y13404D01*
X14925Y13954D01*
X14902Y14009D01*
X14860Y14052D01*
X14804Y14074D01*
X14745Y14075D01*
X14195Y14075D01*
X14140Y14052D01*
X14097Y14010D01*
X14075Y13954D01*
X14074Y13895D01*
X14074Y13345D01*
X14097Y13290D01*
X14139Y13247D01*
X14195Y13225D01*
X14254Y13224D01*
X14804Y13224D01*
X14859Y13247D01*
X14902Y13289D01*
X14924Y13345D01*
X14925Y13404D01*
X14925Y10734D01*
X14860Y10890D01*
X14741Y11010D01*
X14584Y11074D01*
X14419Y11075D01*
X14457Y11106D01*
X14465Y11115D01*
X14476Y11123D01*
X14497Y11154D01*
X14519Y11181D01*
X14523Y11193D01*
X14530Y11204D01*
X14538Y11240D01*
X14548Y11274D01*
X14547Y11287D01*
X14550Y11300D01*
X14550Y11950D01*
X14549Y11950D01*
X14550Y11950D01*
X14546Y11969D01*
X14530Y12045D01*
X14530Y12045D01*
X14476Y12126D01*
X14476Y12126D01*
X14176Y12426D01*
X14095Y12480D01*
X14000Y12500D01*
X13925Y12500D01*
X13925Y13734D01*
X13860Y13890D01*
X13741Y14010D01*
X13584Y14074D01*
X13415Y14075D01*
X13259Y14010D01*
X13139Y13891D01*
X13075Y13734D01*
X13074Y13565D01*
X13139Y13409D01*
X13258Y13289D01*
X13415Y13225D01*
X13584Y13224D01*
X13740Y13289D01*
X13860Y13408D01*
X13924Y13565D01*
X13925Y13734D01*
X13925Y12500D01*
X12925Y12500D01*
X12925Y13734D01*
X12860Y13890D01*
X12741Y14010D01*
X12584Y14074D01*
X12415Y14075D01*
X12259Y14010D01*
X12139Y13891D01*
X12075Y13734D01*
X12074Y13565D01*
X12139Y13409D01*
X12258Y13289D01*
X12415Y13225D01*
X12584Y13224D01*
X12740Y13289D01*
X12860Y13408D01*
X12924Y13565D01*
X12925Y13734D01*
X12925Y12500D01*
X11525Y12500D01*
X11525Y13884D01*
X11460Y14040D01*
X11341Y14160D01*
X11184Y14224D01*
X11015Y14225D01*
X10859Y14160D01*
X10739Y14041D01*
X10675Y13884D01*
X10674Y13715D01*
X10739Y13559D01*
X10858Y13439D01*
X11015Y13375D01*
X11184Y13374D01*
X11340Y13439D01*
X11460Y13558D01*
X11524Y13715D01*
X11525Y13884D01*
X11525Y12500D01*
X10700Y12500D01*
X10699Y12500D01*
X10680Y12496D01*
X10604Y12480D01*
X10523Y12426D01*
X10523Y12426D01*
X10230Y12133D01*
X10230Y13836D01*
X10217Y14024D01*
X10169Y14142D01*
X10090Y14169D01*
X10019Y14098D01*
X10019Y14240D01*
X9992Y14319D01*
X9813Y14380D01*
X9625Y14367D01*
X9507Y14319D01*
X9480Y14240D01*
X9750Y13970D01*
X10019Y14240D01*
X10019Y14098D01*
X9820Y13900D01*
X10090Y13630D01*
X10169Y13657D01*
X10230Y13836D01*
X10230Y12133D01*
X10019Y11923D01*
X10019Y13559D01*
X9750Y13829D01*
X9679Y13758D01*
X9679Y13900D01*
X9409Y14169D01*
X9330Y14142D01*
X9269Y13963D01*
X9282Y13775D01*
X9330Y13657D01*
X9409Y13630D01*
X9679Y13900D01*
X9679Y13758D01*
X9480Y13559D01*
X9507Y13480D01*
X9686Y13419D01*
X9874Y13432D01*
X9992Y13480D01*
X10019Y13559D01*
X10019Y11923D01*
X10000Y11903D01*
X9626Y12276D01*
X9545Y12330D01*
X9450Y12350D01*
X9175Y12350D01*
X9175Y13984D01*
X9110Y14140D01*
X8991Y14260D01*
X8834Y14324D01*
X8665Y14325D01*
X8509Y14260D01*
X8389Y14141D01*
X8325Y13984D01*
X8324Y13815D01*
X8389Y13659D01*
X8508Y13539D01*
X8665Y13475D01*
X8834Y13474D01*
X8990Y13539D01*
X9110Y13658D01*
X9174Y13815D01*
X9175Y13984D01*
X9175Y12350D01*
X8025Y12350D01*
X7929Y12330D01*
X7896Y12309D01*
X7848Y12276D01*
X7848Y12276D01*
X7025Y11453D01*
X6950Y11528D01*
X6950Y12874D01*
X7004Y12874D01*
X7059Y12897D01*
X7102Y12939D01*
X7124Y12995D01*
X7125Y13054D01*
X7125Y13604D01*
X7102Y13659D01*
X7060Y13702D01*
X7004Y13724D01*
X6945Y13725D01*
X6395Y13725D01*
X6340Y13702D01*
X6297Y13660D01*
X6275Y13604D01*
X6274Y13545D01*
X6274Y12995D01*
X6297Y12940D01*
X6339Y12897D01*
X6395Y12875D01*
X6450Y12874D01*
X6450Y11425D01*
X6469Y11329D01*
X6523Y11248D01*
X6775Y10996D01*
X6775Y10950D01*
X6645Y10950D01*
X6590Y10927D01*
X6547Y10885D01*
X6525Y10829D01*
X6524Y10770D01*
X6524Y10070D01*
X6547Y10015D01*
X6589Y9972D01*
X6645Y9950D01*
X6704Y9949D01*
X7404Y9949D01*
X7459Y9972D01*
X7502Y10014D01*
X7524Y10070D01*
X7525Y10129D01*
X7525Y10829D01*
X7502Y10884D01*
X7460Y10927D01*
X7404Y10949D01*
X7345Y10950D01*
X7275Y10950D01*
X7275Y10996D01*
X8128Y11850D01*
X9346Y11850D01*
X9569Y11626D01*
X9550Y11579D01*
X9549Y11520D01*
X9549Y10920D01*
X9572Y10865D01*
X9614Y10822D01*
X9670Y10800D01*
X9729Y10799D01*
X10329Y10799D01*
X10384Y10822D01*
X10427Y10864D01*
X10449Y10920D01*
X10450Y10979D01*
X10450Y11579D01*
X10430Y11626D01*
X10803Y12000D01*
X13469Y12000D01*
X13432Y11962D01*
X13375Y11824D01*
X13374Y11698D01*
X12639Y11052D01*
X12584Y11074D01*
X12415Y11075D01*
X12259Y11010D01*
X12139Y10891D01*
X12075Y10734D01*
X12074Y10565D01*
X12139Y10409D01*
X12258Y10289D01*
X12415Y10225D01*
X12584Y10224D01*
X12740Y10289D01*
X12860Y10408D01*
X12924Y10565D01*
X12925Y10734D01*
X12922Y10741D01*
X13653Y11383D01*
X13675Y11375D01*
X13824Y11374D01*
X13962Y11431D01*
X14050Y11519D01*
X14050Y11419D01*
X13612Y11063D01*
X13584Y11074D01*
X13415Y11075D01*
X13259Y11010D01*
X13139Y10891D01*
X13075Y10734D01*
X13074Y10565D01*
X13139Y10409D01*
X13258Y10289D01*
X13415Y10225D01*
X13584Y10224D01*
X13740Y10289D01*
X13860Y10408D01*
X13924Y10565D01*
X13925Y10673D01*
X14112Y10825D01*
X14075Y10734D01*
X14074Y10565D01*
X14139Y10409D01*
X14258Y10289D01*
X14415Y10225D01*
X14584Y10224D01*
X14740Y10289D01*
X14860Y10408D01*
X14924Y10565D01*
X14925Y10734D01*
X14925Y9584D01*
X14860Y9740D01*
X14741Y9860D01*
X14584Y9924D01*
X14415Y9925D01*
X14259Y9860D01*
X14139Y9741D01*
X14075Y9584D01*
X14074Y9415D01*
X14139Y9259D01*
X14258Y9139D01*
X14415Y9075D01*
X14584Y9074D01*
X14740Y9139D01*
X14860Y9258D01*
X14924Y9415D01*
X14925Y9584D01*
X14925Y8397D01*
X11677Y8397D01*
X11762Y8431D01*
X11867Y8537D01*
X11868Y8540D01*
X12925Y8540D01*
X12938Y8542D01*
X12952Y8541D01*
X12978Y8550D01*
X13005Y8555D01*
X13016Y8563D01*
X13030Y8568D01*
X13050Y8586D01*
X13073Y8601D01*
X13081Y8613D01*
X13091Y8622D01*
X13439Y9075D01*
X13584Y9074D01*
X13740Y9139D01*
X13860Y9258D01*
X13924Y9415D01*
X13925Y9584D01*
X13860Y9740D01*
X13741Y9860D01*
X13584Y9924D01*
X13415Y9925D01*
X13259Y9860D01*
X13139Y9741D01*
X13075Y9584D01*
X13074Y9415D01*
X13108Y9334D01*
X12980Y9166D01*
X12980Y9436D01*
X12967Y9624D01*
X12919Y9742D01*
X12840Y9769D01*
X12769Y9698D01*
X12769Y9840D01*
X12742Y9919D01*
X12563Y9980D01*
X12375Y9967D01*
X12257Y9919D01*
X12230Y9840D01*
X12500Y9570D01*
X12769Y9840D01*
X12769Y9698D01*
X12570Y9500D01*
X12840Y9230D01*
X12919Y9257D01*
X12980Y9436D01*
X12980Y9166D01*
X12821Y8960D01*
X12769Y8960D01*
X12769Y9159D01*
X12500Y9429D01*
X12429Y9358D01*
X12429Y9500D01*
X12159Y9769D01*
X12080Y9742D01*
X12019Y9563D01*
X12032Y9375D01*
X12080Y9257D01*
X12159Y9230D01*
X12429Y9500D01*
X12429Y9358D01*
X12230Y9159D01*
X12257Y9080D01*
X12436Y9019D01*
X12624Y9032D01*
X12742Y9080D01*
X12769Y9159D01*
X12769Y8960D01*
X11868Y8960D01*
X11868Y8962D01*
X11762Y9067D01*
X11624Y9124D01*
X11580Y9124D01*
X11580Y10736D01*
X11567Y10924D01*
X11519Y11042D01*
X11440Y11069D01*
X11369Y10998D01*
X11369Y11140D01*
X11342Y11219D01*
X11163Y11280D01*
X10975Y11267D01*
X10857Y11219D01*
X10830Y11140D01*
X11100Y10870D01*
X11369Y11140D01*
X11369Y10998D01*
X11170Y10800D01*
X11440Y10530D01*
X11519Y10557D01*
X11580Y10736D01*
X11580Y9124D01*
X11475Y9125D01*
X11369Y9081D01*
X11369Y10459D01*
X11100Y10729D01*
X11029Y10658D01*
X11029Y10800D01*
X10759Y11069D01*
X10680Y11042D01*
X10619Y10863D01*
X10632Y10675D01*
X10680Y10557D01*
X10759Y10530D01*
X11029Y10800D01*
X11029Y10658D01*
X10830Y10459D01*
X10857Y10380D01*
X11036Y10319D01*
X11224Y10332D01*
X11342Y10380D01*
X11369Y10459D01*
X11369Y9081D01*
X11337Y9068D01*
X11232Y8962D01*
X11175Y8824D01*
X11174Y8675D01*
X11231Y8537D01*
X11337Y8432D01*
X11422Y8397D01*
X11149Y8397D01*
X10504Y9041D01*
X10504Y10180D01*
X10493Y10378D01*
X10439Y10507D01*
X10358Y10537D01*
X10287Y10467D01*
X10287Y10608D01*
X10257Y10689D01*
X10069Y10754D01*
X9871Y10743D01*
X9742Y10689D01*
X9712Y10608D01*
X10000Y10320D01*
X10287Y10608D01*
X10287Y10467D01*
X10070Y10250D01*
X10358Y9962D01*
X10439Y9992D01*
X10504Y10180D01*
X10504Y9041D01*
X10431Y9115D01*
X10449Y9160D01*
X10450Y9339D01*
X10381Y9504D01*
X10287Y9598D01*
X10287Y9891D01*
X10000Y10179D01*
X9929Y10108D01*
X9929Y10250D01*
X9641Y10537D01*
X9560Y10507D01*
X9495Y10319D01*
X9506Y10121D01*
X9560Y9992D01*
X9641Y9962D01*
X9929Y10250D01*
X9929Y10108D01*
X9712Y9891D01*
X9742Y9810D01*
X9930Y9745D01*
X10128Y9756D01*
X10257Y9810D01*
X10287Y9891D01*
X10287Y9598D01*
X10255Y9631D01*
X10089Y9699D01*
X9910Y9700D01*
X9745Y9631D01*
X9618Y9505D01*
X9550Y9339D01*
X9549Y9160D01*
X9618Y8995D01*
X9744Y8868D01*
X9910Y8800D01*
X10089Y8799D01*
X10134Y8818D01*
X10914Y8038D01*
X10914Y8038D01*
X10982Y7993D01*
X10982Y7993D01*
X11046Y7980D01*
X11062Y7977D01*
X11062Y7977D01*
X11062Y7977D01*
X15160Y7977D01*
X15240Y7993D01*
X15309Y8038D01*
X15941Y8671D01*
X15944Y8670D01*
X16093Y8670D01*
X16231Y8727D01*
X16336Y8832D01*
X16393Y8970D01*
X16394Y9083D01*
X16415Y9075D01*
X16584Y9074D01*
X16740Y9139D01*
X16860Y9258D01*
X16924Y9415D01*
X16925Y9584D01*
X16860Y9740D01*
X16741Y9860D01*
X16584Y9924D01*
X16415Y9925D01*
X16259Y9860D01*
X16139Y9741D01*
X16075Y9584D01*
X16074Y9420D01*
X15944Y9420D01*
X15923Y9411D01*
X15924Y9415D01*
X15925Y9584D01*
X15860Y9740D01*
X15741Y9860D01*
X15710Y9872D01*
X15710Y13091D01*
X16273Y13655D01*
X16556Y13655D01*
X16491Y13590D01*
X16400Y13369D01*
X16399Y13131D01*
X16491Y12910D01*
X16659Y12741D01*
X16759Y12700D01*
X16670Y12700D01*
X16615Y12677D01*
X16572Y12635D01*
X16550Y12579D01*
X16549Y12520D01*
X16549Y11920D01*
X16572Y11865D01*
X16614Y11822D01*
X16670Y11800D01*
X16729Y11799D01*
X17329Y11799D01*
X17384Y11822D01*
X17427Y11864D01*
X17449Y11920D01*
X17450Y11979D01*
X17450Y12040D01*
X17480Y12040D01*
X17560Y12055D01*
X17586Y12073D01*
X17618Y11995D01*
X17744Y11868D01*
X17910Y11800D01*
X18089Y11799D01*
X18254Y11868D01*
X18309Y11923D01*
X18309Y10606D01*
X17615Y9912D01*
X17584Y9924D01*
X17415Y9925D01*
X17259Y9860D01*
X17139Y9741D01*
X17075Y9584D01*
X17074Y9415D01*
X17139Y9259D01*
X17258Y9139D01*
X17415Y9075D01*
X17584Y9074D01*
X17740Y9139D01*
X17860Y9258D01*
X17924Y9415D01*
X17925Y9584D01*
X17912Y9615D01*
X18668Y10371D01*
X18668Y10371D01*
X18668Y10371D01*
X18713Y10439D01*
X18713Y10439D01*
X18726Y10503D01*
X18729Y10519D01*
X18729Y10519D01*
X18729Y10519D01*
X18729Y11883D01*
X18744Y11868D01*
X18910Y11800D01*
X19089Y11799D01*
X19254Y11868D01*
X19381Y11994D01*
X19449Y12160D01*
X19450Y12339D01*
X19381Y12504D01*
X19255Y12631D01*
X19089Y12699D01*
X18910Y12700D01*
X18745Y12631D01*
X18729Y12616D01*
X18729Y12616D01*
X18912Y12800D01*
X19089Y12799D01*
X19254Y12868D01*
X19381Y12994D01*
X19449Y13160D01*
X19450Y13339D01*
X19381Y13504D01*
X19255Y13631D01*
X19089Y13699D01*
X19052Y13699D01*
X19299Y13950D01*
X19300Y13950D01*
X19449Y13949D01*
X19587Y14006D01*
X19692Y14112D01*
X19749Y14250D01*
X19750Y14399D01*
X19750Y13633D01*
X19745Y13631D01*
X19618Y13505D01*
X19550Y13339D01*
X19549Y13160D01*
X19618Y12995D01*
X19744Y12868D01*
X19910Y12800D01*
X20089Y12799D01*
X20254Y12868D01*
X20381Y12994D01*
X20449Y13160D01*
X20450Y13339D01*
X20450Y12483D01*
X20439Y12507D01*
X20358Y12537D01*
X20287Y12467D01*
X20287Y12608D01*
X20257Y12689D01*
X20069Y12754D01*
X19871Y12743D01*
X19742Y12689D01*
X19712Y12608D01*
X20000Y12320D01*
X20287Y12608D01*
X20287Y12467D01*
X20070Y12250D01*
X20358Y11962D01*
X20439Y11992D01*
X20504Y12180D01*
X20504Y11201D01*
X20394Y11091D01*
X20424Y11165D01*
X20425Y11334D01*
X20360Y11490D01*
X20287Y11563D01*
X20287Y11891D01*
X20000Y12179D01*
X19929Y12108D01*
X19929Y12250D01*
X19641Y12537D01*
X19560Y12507D01*
X19495Y12319D01*
X19506Y12121D01*
X19560Y11992D01*
X19641Y11962D01*
X19929Y12250D01*
X19929Y12108D01*
X19712Y11891D01*
X19742Y11810D01*
X19930Y11745D01*
X20128Y11756D01*
X20257Y11810D01*
X20287Y11891D01*
X20287Y11563D01*
X20241Y11610D01*
X20084Y11674D01*
X19915Y11675D01*
X19759Y11610D01*
X19639Y11491D01*
X19575Y11334D01*
X19574Y11165D01*
X19639Y11009D01*
X19688Y10960D01*
X19500Y10960D01*
X19419Y10944D01*
X19392Y10925D01*
X19351Y10898D01*
X19351Y10898D01*
X18351Y9898D01*
X18259Y9860D01*
X18139Y9741D01*
X18075Y9584D01*
X18074Y9415D01*
X18139Y9259D01*
X18258Y9139D01*
X18415Y9075D01*
X18584Y9074D01*
X18740Y9139D01*
X18860Y9258D01*
X18924Y9415D01*
X18925Y9584D01*
X18860Y9740D01*
X18823Y9777D01*
X19586Y10540D01*
X20350Y10540D01*
X20430Y10555D01*
X20498Y10601D01*
X21148Y11251D01*
X21148Y11251D01*
X21148Y11251D01*
X21194Y11319D01*
X21194Y11319D01*
X21210Y11400D01*
X21210Y11849D01*
X21254Y11868D01*
X21381Y11994D01*
X21449Y12160D01*
X21450Y12339D01*
X21450Y8243D01*
X21450Y8243D01*
X21450Y9075D01*
X21450Y9450D01*
X21450Y9550D01*
X21450Y9925D01*
X21400Y9975D01*
X21185Y9975D01*
X21111Y9944D01*
X21055Y9888D01*
X21025Y9814D01*
X21024Y9735D01*
X21025Y9600D01*
X21075Y9550D01*
X21450Y9550D01*
X21450Y9450D01*
X21075Y9450D01*
X21025Y9400D01*
X21024Y9264D01*
X21025Y9185D01*
X21055Y9111D01*
X21111Y9055D01*
X21185Y9024D01*
X21400Y9025D01*
X21450Y9075D01*
X21450Y8243D01*
X21398Y8295D01*
X21399Y8300D01*
X21400Y8449D01*
X21343Y8587D01*
X21237Y8692D01*
X21099Y8749D01*
X20950Y8750D01*
X20925Y8739D01*
X20925Y9584D01*
X20860Y9740D01*
X20741Y9860D01*
X20584Y9924D01*
X20415Y9925D01*
X20259Y9860D01*
X20139Y9741D01*
X20075Y9584D01*
X20074Y9415D01*
X20139Y9259D01*
X20258Y9139D01*
X20415Y9075D01*
X20584Y9074D01*
X20740Y9139D01*
X20860Y9258D01*
X20924Y9415D01*
X20925Y9584D01*
X20925Y8739D01*
X20812Y8693D01*
X20707Y8587D01*
X20655Y8462D01*
X20379Y8737D01*
X20311Y8783D01*
X20231Y8799D01*
X19925Y8799D01*
X19925Y9584D01*
X19860Y9740D01*
X19741Y9860D01*
X19584Y9924D01*
X19415Y9925D01*
X19259Y9860D01*
X19139Y9741D01*
X19075Y9584D01*
X19074Y9415D01*
X19139Y9259D01*
X19258Y9139D01*
X19415Y9075D01*
X19584Y9074D01*
X19740Y9139D01*
X19860Y9258D01*
X19924Y9415D01*
X19925Y9584D01*
X19925Y8799D01*
X19249Y8799D01*
X19249Y8799D01*
X19233Y8796D01*
X19169Y8783D01*
X19100Y8737D01*
X19100Y8737D01*
X17851Y7488D01*
X17806Y7420D01*
X17790Y7340D01*
X17790Y6911D01*
X17790Y6811D01*
X17741Y6860D01*
X17584Y6924D01*
X17415Y6925D01*
X17259Y6860D01*
X17139Y6741D01*
X17075Y6584D01*
X17074Y6415D01*
X17087Y6384D01*
X16957Y6254D01*
X16855Y6254D01*
X16860Y6258D01*
X16924Y6415D01*
X16925Y6584D01*
X16860Y6740D01*
X16741Y6860D01*
X16584Y6924D01*
X16415Y6925D01*
X16259Y6860D01*
X16139Y6741D01*
X16075Y6584D01*
X16074Y6415D01*
X16087Y6384D01*
X15925Y6222D01*
X15925Y6584D01*
X15860Y6740D01*
X15741Y6860D01*
X15584Y6924D01*
X15415Y6925D01*
X15259Y6860D01*
X15139Y6741D01*
X15075Y6584D01*
X15074Y6415D01*
X15139Y6259D01*
X15258Y6139D01*
X15415Y6075D01*
X15584Y6074D01*
X15740Y6139D01*
X15860Y6258D01*
X15924Y6415D01*
X15925Y6584D01*
X15925Y6222D01*
X15743Y6040D01*
X15423Y6040D01*
X15423Y6040D01*
X15407Y6036D01*
X15343Y6024D01*
X15275Y5978D01*
X15275Y5978D01*
X14925Y5628D01*
X14925Y6584D01*
X14860Y6740D01*
X14741Y6860D01*
X14584Y6924D01*
X14415Y6925D01*
X14259Y6860D01*
X14139Y6741D01*
X14075Y6584D01*
X14074Y6415D01*
X14087Y6384D01*
X13925Y6222D01*
X13925Y6584D01*
X13860Y6740D01*
X13741Y6860D01*
X13584Y6924D01*
X13415Y6925D01*
X13259Y6860D01*
X13139Y6741D01*
X13075Y6584D01*
X13074Y6415D01*
X13139Y6259D01*
X13258Y6139D01*
X13415Y6075D01*
X13584Y6074D01*
X13740Y6139D01*
X13860Y6258D01*
X13924Y6415D01*
X13925Y6584D01*
X13925Y6222D01*
X13351Y5648D01*
X13259Y5610D01*
X13139Y5491D01*
X13075Y5334D01*
X13074Y5165D01*
X13139Y5009D01*
X13258Y4889D01*
X13415Y4825D01*
X13584Y4824D01*
X13740Y4889D01*
X13860Y5008D01*
X13924Y5165D01*
X13925Y5334D01*
X13860Y5490D01*
X13823Y5527D01*
X14384Y6087D01*
X14415Y6075D01*
X14584Y6074D01*
X14740Y6139D01*
X14860Y6258D01*
X14924Y6415D01*
X14925Y6584D01*
X14925Y5628D01*
X14851Y5555D01*
X14829Y5521D01*
X14741Y5610D01*
X14584Y5674D01*
X14415Y5675D01*
X14259Y5610D01*
X14139Y5491D01*
X14075Y5334D01*
X14074Y5165D01*
X14139Y5009D01*
X14258Y4889D01*
X14415Y4825D01*
X14584Y4824D01*
X14740Y4889D01*
X14790Y4938D01*
X14790Y4836D01*
X12925Y2972D01*
X12925Y5334D01*
X12925Y6584D01*
X12860Y6740D01*
X12741Y6860D01*
X12584Y6924D01*
X12415Y6925D01*
X12259Y6860D01*
X12139Y6741D01*
X12075Y6584D01*
X12074Y6415D01*
X12139Y6259D01*
X12258Y6139D01*
X12415Y6075D01*
X12584Y6074D01*
X12740Y6139D01*
X12860Y6258D01*
X12924Y6415D01*
X12925Y6584D01*
X12925Y5334D01*
X12860Y5490D01*
X12741Y5610D01*
X12584Y5674D01*
X12415Y5675D01*
X12259Y5610D01*
X12139Y5491D01*
X12075Y5334D01*
X12074Y5165D01*
X12139Y5009D01*
X12258Y4889D01*
X12415Y4825D01*
X12584Y4824D01*
X12740Y4889D01*
X12860Y5008D01*
X12924Y5165D01*
X12925Y5334D01*
X12925Y2972D01*
X12615Y2662D01*
X12584Y2674D01*
X12415Y2675D01*
X12259Y2610D01*
X12139Y2491D01*
X12075Y2334D01*
X12074Y2165D01*
X12139Y2009D01*
X12258Y1889D01*
X12415Y1825D01*
X12584Y1824D01*
X12740Y1889D01*
X12860Y2008D01*
X12924Y2165D01*
X12925Y2334D01*
X12912Y2365D01*
X15148Y4601D01*
X15194Y4669D01*
X15210Y4750D01*
X15210Y4938D01*
X15258Y4889D01*
X15415Y4825D01*
X15584Y4824D01*
X15740Y4889D01*
X15790Y4938D01*
X15790Y4836D01*
X13615Y2662D01*
X13584Y2674D01*
X13415Y2675D01*
X13259Y2610D01*
X13139Y2491D01*
X13075Y2334D01*
X13074Y2165D01*
X13139Y2009D01*
X13258Y1889D01*
X13415Y1825D01*
X13584Y1824D01*
X13740Y1889D01*
X13860Y2008D01*
X13924Y2165D01*
X13925Y2334D01*
X13912Y2365D01*
X16148Y4601D01*
X16194Y4669D01*
X16210Y4750D01*
X16210Y4938D01*
X16258Y4889D01*
X16415Y4825D01*
X16584Y4824D01*
X16740Y4889D01*
X16860Y5008D01*
X16924Y5165D01*
X16925Y5334D01*
X16860Y5490D01*
X16741Y5610D01*
X16584Y5674D01*
X16577Y5674D01*
X16736Y5834D01*
X17044Y5834D01*
X17125Y5850D01*
X17193Y5896D01*
X17200Y5903D01*
X17199Y5800D01*
X17256Y5662D01*
X17294Y5625D01*
X17259Y5610D01*
X17139Y5491D01*
X17075Y5334D01*
X17074Y5165D01*
X17139Y5009D01*
X17258Y4889D01*
X17415Y4825D01*
X17584Y4824D01*
X17740Y4889D01*
X17860Y5008D01*
X17924Y5165D01*
X17925Y5334D01*
X17860Y5490D01*
X17790Y5560D01*
X17892Y5662D01*
X17949Y5800D01*
X17950Y5939D01*
X18143Y6122D01*
X18145Y6124D01*
X18148Y6126D01*
X18176Y6168D01*
X18191Y6189D01*
X18191Y6191D01*
X18194Y6194D01*
X18195Y6203D01*
X18258Y6139D01*
X18415Y6075D01*
X18584Y6074D01*
X18740Y6139D01*
X18860Y6258D01*
X18924Y6415D01*
X18925Y6584D01*
X18860Y6740D01*
X18741Y6860D01*
X18584Y6924D01*
X18415Y6925D01*
X18259Y6860D01*
X18210Y6811D01*
X18210Y6911D01*
X18210Y7253D01*
X19062Y8105D01*
X19062Y8100D01*
X19118Y7962D01*
X19224Y7856D01*
X19362Y7799D01*
X19458Y7799D01*
X20315Y6943D01*
X20257Y6919D01*
X20230Y6840D01*
X20464Y6606D01*
X20500Y6570D01*
X20570Y6500D01*
X20500Y6429D01*
X20464Y6393D01*
X20429Y6358D01*
X20429Y6500D01*
X20159Y6769D01*
X20080Y6742D01*
X20019Y6563D01*
X20032Y6375D01*
X20080Y6257D01*
X20159Y6230D01*
X20429Y6500D01*
X20429Y6358D01*
X20230Y6159D01*
X20257Y6080D01*
X20436Y6019D01*
X20624Y6032D01*
X20742Y6080D01*
X20751Y6106D01*
X20769Y6088D01*
X20771Y6087D01*
X20795Y6112D01*
X20828Y6063D01*
X21216Y5675D01*
X21195Y5675D01*
X21140Y5652D01*
X21097Y5610D01*
X21075Y5554D01*
X21074Y5495D01*
X21074Y4945D01*
X21097Y4890D01*
X21139Y4847D01*
X21195Y4825D01*
X21254Y4824D01*
X21804Y4824D01*
X21859Y4847D01*
X21902Y4889D01*
X21924Y4945D01*
X21924Y4966D01*
X22818Y4073D01*
X22818Y4073D01*
X22866Y4040D01*
X22880Y4031D01*
X22889Y4009D01*
X23008Y3889D01*
X23165Y3825D01*
X23334Y3824D01*
X23490Y3889D01*
X23610Y4008D01*
X23674Y4165D01*
X23675Y4334D01*
X23610Y4490D01*
X23491Y4610D01*
X23334Y4674D01*
X23165Y4675D01*
X23009Y4610D01*
X22998Y4599D01*
X22171Y5426D01*
X22090Y5480D01*
X21995Y5500D01*
X21925Y5500D01*
X21925Y5554D01*
X21902Y5609D01*
X21860Y5652D01*
X21804Y5674D01*
X21750Y5675D01*
X21750Y5745D01*
X21749Y5745D01*
X21750Y5745D01*
X21746Y5764D01*
X21730Y5840D01*
X21730Y5840D01*
X21676Y5921D01*
X21676Y5921D01*
X21523Y6074D01*
X21584Y6074D01*
X21740Y6139D01*
X21860Y6258D01*
X21924Y6415D01*
X21925Y6584D01*
X21914Y6608D01*
X23339Y5184D01*
X23357Y5154D01*
X23325Y5074D01*
X23324Y4925D01*
X23381Y4787D01*
X23487Y4682D01*
X23625Y4625D01*
X23774Y4624D01*
X23912Y4681D01*
X24017Y4787D01*
X24074Y4925D01*
X24074Y4983D01*
X25414Y3624D01*
X25482Y3578D01*
X25562Y3562D01*
X25564Y3562D01*
X25676Y3562D01*
X25618Y3505D01*
X25550Y3339D01*
X25549Y3160D01*
X25618Y2995D01*
X25744Y2868D01*
X25910Y2800D01*
X26089Y2799D01*
X26254Y2868D01*
X26381Y2994D01*
X26449Y3160D01*
X26450Y3339D01*
X26381Y3504D01*
X26323Y3562D01*
X26676Y3562D01*
X26618Y3505D01*
X26550Y3339D01*
X26549Y3160D01*
X26618Y2995D01*
X26744Y2868D01*
X26910Y2800D01*
X27089Y2799D01*
X27254Y2868D01*
X27381Y2994D01*
X27449Y3160D01*
X27450Y3339D01*
X27381Y3504D01*
X27323Y3562D01*
X28272Y3562D01*
X28344Y3577D01*
X28410Y3550D01*
X28589Y3549D01*
X28754Y3618D01*
X28881Y3744D01*
X28949Y3910D01*
X28950Y4089D01*
X28881Y4254D01*
X28846Y4290D01*
X29153Y4290D01*
X29118Y4255D01*
X29050Y4089D01*
X29049Y3910D01*
X29118Y3745D01*
X29244Y3618D01*
X29410Y3550D01*
X29589Y3549D01*
X29754Y3618D01*
X29881Y3744D01*
X29949Y3910D01*
X29950Y4089D01*
X29881Y4254D01*
X29846Y4290D01*
X29913Y4290D01*
X30068Y4134D01*
X30050Y4089D01*
X30049Y3910D01*
X30118Y3745D01*
X30244Y3618D01*
X30410Y3550D01*
X30589Y3549D01*
X30754Y3618D01*
X30881Y3744D01*
X30949Y3910D01*
X30950Y4089D01*
X30950Y2370D01*
X30599Y2225D01*
X30275Y1902D01*
X30100Y1479D01*
X30099Y1022D01*
X30274Y599D01*
X30597Y275D01*
X30829Y179D01*
X26819Y179D01*
X28932Y2375D01*
X29074Y2374D01*
X29212Y2431D01*
X29317Y2537D01*
X29374Y2675D01*
X29375Y2824D01*
X29318Y2962D01*
X29212Y3067D01*
X29074Y3124D01*
X28925Y3125D01*
X28787Y3068D01*
X28682Y2962D01*
X28625Y2824D01*
X28624Y2675D01*
X28629Y2665D01*
X27450Y1440D01*
X27450Y2339D01*
X27381Y2504D01*
X27255Y2631D01*
X27089Y2699D01*
X26910Y2700D01*
X26745Y2631D01*
X26618Y2505D01*
X26550Y2339D01*
X26549Y2160D01*
X26618Y1995D01*
X26744Y1868D01*
X26910Y1800D01*
X27089Y1799D01*
X27254Y1868D01*
X27381Y1994D01*
X27449Y2160D01*
X27450Y2339D01*
X27450Y1440D01*
X26450Y400D01*
X26450Y2339D01*
X26381Y2504D01*
X26255Y2631D01*
X26089Y2699D01*
X25910Y2700D01*
X25745Y2631D01*
X25618Y2505D01*
X25550Y2339D01*
X25549Y2160D01*
X25618Y1995D01*
X25744Y1868D01*
X25910Y1800D01*
X26089Y1799D01*
X26254Y1868D01*
X26381Y1994D01*
X26449Y2160D01*
X26450Y2339D01*
X26450Y400D01*
X26410Y360D01*
X24480Y360D01*
X24480Y1436D01*
X24467Y1624D01*
X24419Y1742D01*
X24340Y1769D01*
X24269Y1698D01*
X24269Y1840D01*
X24242Y1919D01*
X24063Y1980D01*
X23875Y1967D01*
X23757Y1919D01*
X23730Y1840D01*
X24000Y1570D01*
X24269Y1840D01*
X24269Y1698D01*
X24070Y1500D01*
X24340Y1230D01*
X24419Y1257D01*
X24480Y1436D01*
X24480Y360D01*
X24269Y360D01*
X24269Y1159D01*
X24000Y1429D01*
X23929Y1358D01*
X23929Y1500D01*
X23730Y1699D01*
X23730Y3186D01*
X23717Y3374D01*
X23669Y3492D01*
X23590Y3519D01*
X23519Y3448D01*
X23519Y3590D01*
X23492Y3669D01*
X23313Y3730D01*
X23125Y3717D01*
X23007Y3669D01*
X22980Y3590D01*
X23250Y3320D01*
X23519Y3590D01*
X23519Y3448D01*
X23320Y3250D01*
X23590Y2980D01*
X23669Y3007D01*
X23730Y3186D01*
X23730Y1699D01*
X23659Y1769D01*
X23580Y1742D01*
X23519Y1563D01*
X23532Y1375D01*
X23580Y1257D01*
X23659Y1230D01*
X23929Y1500D01*
X23929Y1358D01*
X23730Y1159D01*
X23757Y1080D01*
X23936Y1019D01*
X24124Y1032D01*
X24242Y1080D01*
X24269Y1159D01*
X24269Y360D01*
X23519Y360D01*
X23519Y2909D01*
X23250Y3179D01*
X23179Y3108D01*
X23179Y3250D01*
X22909Y3519D01*
X22830Y3492D01*
X22769Y3313D01*
X22782Y3125D01*
X22830Y3007D01*
X22909Y2980D01*
X23179Y3250D01*
X23179Y3108D01*
X22980Y2909D01*
X23007Y2830D01*
X23186Y2769D01*
X23374Y2782D01*
X23492Y2830D01*
X23519Y2909D01*
X23519Y360D01*
X21980Y360D01*
X21980Y2186D01*
X21967Y2374D01*
X21919Y2492D01*
X21840Y2519D01*
X21769Y2448D01*
X21769Y2590D01*
X21742Y2669D01*
X21563Y2730D01*
X21375Y2717D01*
X21257Y2669D01*
X21230Y2590D01*
X21500Y2320D01*
X21769Y2590D01*
X21769Y2448D01*
X21570Y2250D01*
X21840Y1980D01*
X21919Y2007D01*
X21980Y2186D01*
X21980Y360D01*
X21769Y360D01*
X21769Y1909D01*
X21500Y2179D01*
X21429Y2108D01*
X21429Y2250D01*
X21159Y2519D01*
X21080Y2492D01*
X21019Y2313D01*
X21032Y2125D01*
X21080Y2007D01*
X21159Y1980D01*
X21429Y2250D01*
X21429Y2108D01*
X21230Y1909D01*
X21250Y1850D01*
X21241Y1860D01*
X21084Y1924D01*
X20925Y1925D01*
X20925Y2334D01*
X20925Y5334D01*
X20860Y5490D01*
X20769Y5581D01*
X20741Y5610D01*
X20584Y5674D01*
X20415Y5675D01*
X20259Y5610D01*
X20139Y5491D01*
X20075Y5334D01*
X20074Y5165D01*
X20139Y5009D01*
X20258Y4889D01*
X20415Y4825D01*
X20584Y4824D01*
X20740Y4889D01*
X20860Y5008D01*
X20924Y5165D01*
X20925Y5334D01*
X20925Y2334D01*
X20860Y2490D01*
X20741Y2610D01*
X20584Y2674D01*
X20415Y2675D01*
X20384Y2662D01*
X19213Y3833D01*
X19211Y4937D01*
X19258Y4889D01*
X19415Y4825D01*
X19584Y4824D01*
X19740Y4889D01*
X19860Y5008D01*
X19924Y5165D01*
X19925Y5334D01*
X19860Y5490D01*
X19741Y5610D01*
X19584Y5674D01*
X19415Y5675D01*
X19259Y5610D01*
X19210Y5561D01*
X19210Y5913D01*
X19384Y6087D01*
X19415Y6075D01*
X19584Y6074D01*
X19740Y6139D01*
X19860Y6258D01*
X19924Y6415D01*
X19925Y6584D01*
X19860Y6740D01*
X19741Y6860D01*
X19584Y6924D01*
X19415Y6925D01*
X19259Y6860D01*
X19139Y6741D01*
X19075Y6584D01*
X19074Y6415D01*
X19087Y6384D01*
X18851Y6148D01*
X18851Y6148D01*
X18851Y6148D01*
X18828Y6114D01*
X18805Y6080D01*
X18805Y6080D01*
X18805Y6080D01*
X18797Y6039D01*
X18790Y6000D01*
X18790Y5999D01*
X18790Y5999D01*
X18790Y5560D01*
X18741Y5610D01*
X18584Y5674D01*
X18415Y5675D01*
X18259Y5610D01*
X18139Y5491D01*
X18075Y5334D01*
X18074Y5165D01*
X18139Y5009D01*
X18258Y4889D01*
X18415Y4825D01*
X18584Y4824D01*
X18740Y4889D01*
X18791Y4940D01*
X18793Y3744D01*
X18810Y3664D01*
X18855Y3596D01*
X18859Y3593D01*
X20087Y2365D01*
X20075Y2334D01*
X20074Y2165D01*
X20139Y2009D01*
X20258Y1889D01*
X20415Y1825D01*
X20584Y1824D01*
X20740Y1889D01*
X20860Y2008D01*
X20924Y2165D01*
X20925Y2334D01*
X20925Y1925D01*
X20915Y1925D01*
X20759Y1860D01*
X20639Y1741D01*
X20575Y1584D01*
X20574Y1415D01*
X20639Y1259D01*
X20758Y1139D01*
X20915Y1075D01*
X21084Y1074D01*
X21240Y1139D01*
X21360Y1258D01*
X21424Y1415D01*
X21425Y1584D01*
X21360Y1740D01*
X21276Y1824D01*
X21436Y1769D01*
X21624Y1782D01*
X21742Y1830D01*
X21769Y1909D01*
X21769Y360D01*
X19950Y360D01*
X19950Y729D01*
X19950Y1329D01*
X19927Y1384D01*
X19925Y1387D01*
X19925Y2334D01*
X19860Y2490D01*
X19741Y2610D01*
X19584Y2674D01*
X19415Y2675D01*
X19259Y2610D01*
X19139Y2491D01*
X19075Y2334D01*
X19074Y2165D01*
X19139Y2009D01*
X19258Y1889D01*
X19415Y1825D01*
X19584Y1824D01*
X19740Y1889D01*
X19860Y2008D01*
X19924Y2165D01*
X19925Y2334D01*
X19925Y1387D01*
X19885Y1427D01*
X19829Y1449D01*
X19770Y1450D01*
X19170Y1450D01*
X19115Y1427D01*
X19072Y1385D01*
X19050Y1329D01*
X19049Y1270D01*
X19049Y670D01*
X19072Y615D01*
X19114Y572D01*
X19170Y550D01*
X19229Y549D01*
X19829Y549D01*
X19884Y572D01*
X19927Y614D01*
X19949Y670D01*
X19950Y729D01*
X19950Y360D01*
X18950Y360D01*
X18950Y1089D01*
X18925Y1149D01*
X18925Y2334D01*
X18860Y2490D01*
X18741Y2610D01*
X18584Y2674D01*
X18415Y2675D01*
X18259Y2610D01*
X18139Y2491D01*
X18075Y2334D01*
X18074Y2165D01*
X18139Y2009D01*
X18258Y1889D01*
X18415Y1825D01*
X18584Y1824D01*
X18740Y1889D01*
X18860Y2008D01*
X18924Y2165D01*
X18925Y2334D01*
X18925Y1149D01*
X18881Y1254D01*
X18755Y1381D01*
X18589Y1449D01*
X18410Y1450D01*
X18245Y1381D01*
X18118Y1255D01*
X18050Y1089D01*
X18049Y910D01*
X18118Y745D01*
X18244Y618D01*
X18410Y550D01*
X18589Y549D01*
X18754Y618D01*
X18881Y744D01*
X18949Y910D01*
X18950Y1089D01*
X18950Y360D01*
X17950Y360D01*
X17950Y1089D01*
X17925Y1149D01*
X17925Y2334D01*
X17860Y2490D01*
X17741Y2610D01*
X17584Y2674D01*
X17415Y2675D01*
X17259Y2610D01*
X17139Y2491D01*
X17075Y2334D01*
X17074Y2165D01*
X17139Y2009D01*
X17258Y1889D01*
X17415Y1825D01*
X17584Y1824D01*
X17740Y1889D01*
X17860Y2008D01*
X17924Y2165D01*
X17925Y2334D01*
X17925Y1149D01*
X17881Y1254D01*
X17755Y1381D01*
X17589Y1449D01*
X17410Y1450D01*
X17245Y1381D01*
X17118Y1255D01*
X17050Y1089D01*
X17049Y910D01*
X17118Y745D01*
X17244Y618D01*
X17410Y550D01*
X17589Y549D01*
X17754Y618D01*
X17881Y744D01*
X17949Y910D01*
X17950Y1089D01*
X17950Y360D01*
X17004Y360D01*
X17004Y930D01*
X16993Y1128D01*
X16939Y1257D01*
X16925Y1263D01*
X16925Y2334D01*
X16860Y2490D01*
X16741Y2610D01*
X16584Y2674D01*
X16415Y2675D01*
X16259Y2610D01*
X16139Y2491D01*
X16075Y2334D01*
X16074Y2165D01*
X16139Y2009D01*
X16258Y1889D01*
X16415Y1825D01*
X16584Y1824D01*
X16740Y1889D01*
X16860Y2008D01*
X16924Y2165D01*
X16925Y2334D01*
X16925Y1263D01*
X16858Y1287D01*
X16787Y1217D01*
X16787Y1358D01*
X16757Y1439D01*
X16569Y1504D01*
X16371Y1493D01*
X16242Y1439D01*
X16212Y1358D01*
X16500Y1070D01*
X16787Y1358D01*
X16787Y1217D01*
X16570Y1000D01*
X16858Y712D01*
X16939Y742D01*
X17004Y930D01*
X17004Y360D01*
X16787Y360D01*
X16787Y641D01*
X16500Y929D01*
X16429Y858D01*
X16429Y1000D01*
X16141Y1287D01*
X16060Y1257D01*
X15995Y1069D01*
X16006Y871D01*
X16060Y742D01*
X16141Y712D01*
X16429Y1000D01*
X16429Y858D01*
X16212Y641D01*
X16242Y560D01*
X16430Y495D01*
X16628Y506D01*
X16757Y560D01*
X16787Y641D01*
X16787Y360D01*
X15925Y360D01*
X15925Y2334D01*
X15860Y2490D01*
X15741Y2610D01*
X15584Y2674D01*
X15415Y2675D01*
X15259Y2610D01*
X15139Y2491D01*
X15075Y2334D01*
X15074Y2165D01*
X15139Y2009D01*
X15258Y1889D01*
X15415Y1825D01*
X15584Y1824D01*
X15740Y1889D01*
X15860Y2008D01*
X15924Y2165D01*
X15925Y2334D01*
X15925Y360D01*
X14925Y360D01*
X14925Y2334D01*
X14860Y2490D01*
X14741Y2610D01*
X14584Y2674D01*
X14415Y2675D01*
X14259Y2610D01*
X14139Y2491D01*
X14075Y2334D01*
X14074Y2165D01*
X14139Y2009D01*
X14258Y1889D01*
X14415Y1825D01*
X14584Y1824D01*
X14740Y1889D01*
X14860Y2008D01*
X14924Y2165D01*
X14925Y2334D01*
X14925Y360D01*
X13175Y360D01*
X12001Y1307D01*
X12001Y1414D01*
X11944Y1552D01*
X11838Y1658D01*
X11701Y1715D01*
X11552Y1715D01*
X11414Y1658D01*
X11308Y1553D01*
X11251Y1415D01*
X11251Y1266D01*
X11308Y1128D01*
X11413Y1022D01*
X11551Y965D01*
X11700Y965D01*
X11737Y980D01*
X12730Y179D01*
X10450Y179D01*
X10450Y2339D01*
X10450Y3339D01*
X10450Y4339D01*
X10450Y5339D01*
X10450Y6339D01*
X10450Y7339D01*
X10450Y8339D01*
X10381Y8504D01*
X10255Y8631D01*
X10089Y8699D01*
X9910Y8700D01*
X9745Y8631D01*
X9618Y8505D01*
X9550Y8339D01*
X9549Y8160D01*
X9618Y7995D01*
X9744Y7868D01*
X9910Y7800D01*
X10089Y7799D01*
X10254Y7868D01*
X10381Y7994D01*
X10449Y8160D01*
X10450Y8339D01*
X10450Y7339D01*
X10381Y7504D01*
X10255Y7631D01*
X10089Y7699D01*
X9910Y7700D01*
X9745Y7631D01*
X9618Y7505D01*
X9550Y7339D01*
X9549Y7160D01*
X9618Y6995D01*
X9744Y6868D01*
X9910Y6800D01*
X10089Y6799D01*
X10254Y6868D01*
X10381Y6994D01*
X10449Y7160D01*
X10450Y7339D01*
X10450Y6339D01*
X10381Y6504D01*
X10255Y6631D01*
X10089Y6699D01*
X9910Y6700D01*
X9745Y6631D01*
X9618Y6505D01*
X9550Y6339D01*
X9549Y6160D01*
X9618Y5995D01*
X9744Y5868D01*
X9910Y5800D01*
X10089Y5799D01*
X10254Y5868D01*
X10381Y5994D01*
X10449Y6160D01*
X10450Y6339D01*
X10450Y5339D01*
X10381Y5504D01*
X10255Y5631D01*
X10089Y5699D01*
X9910Y5700D01*
X9745Y5631D01*
X9618Y5505D01*
X9550Y5339D01*
X9549Y5160D01*
X9618Y4995D01*
X9744Y4868D01*
X9910Y4800D01*
X10089Y4799D01*
X10254Y4868D01*
X10381Y4994D01*
X10449Y5160D01*
X10450Y5339D01*
X10450Y4339D01*
X10381Y4504D01*
X10255Y4631D01*
X10089Y4699D01*
X9910Y4700D01*
X9745Y4631D01*
X9618Y4505D01*
X9550Y4339D01*
X9549Y4160D01*
X9618Y3995D01*
X9744Y3868D01*
X9910Y3800D01*
X10089Y3799D01*
X10254Y3868D01*
X10381Y3994D01*
X10449Y4160D01*
X10450Y4339D01*
X10450Y3339D01*
X10381Y3504D01*
X10255Y3631D01*
X10089Y3699D01*
X9910Y3700D01*
X9745Y3631D01*
X9618Y3505D01*
X9550Y3339D01*
X9549Y3160D01*
X9618Y2995D01*
X9744Y2868D01*
X9910Y2800D01*
X10089Y2799D01*
X10254Y2868D01*
X10381Y2994D01*
X10449Y3160D01*
X10450Y3339D01*
X10450Y2339D01*
X10381Y2504D01*
X10255Y2631D01*
X10089Y2699D01*
X9910Y2700D01*
X9745Y2631D01*
X9618Y2505D01*
X9550Y2339D01*
X9549Y2160D01*
X9618Y1995D01*
X9744Y1868D01*
X9910Y1800D01*
X10089Y1799D01*
X10254Y1868D01*
X10381Y1994D01*
X10449Y2160D01*
X10450Y2339D01*
X10450Y179D01*
X9450Y179D01*
X9450Y2339D01*
X9450Y3339D01*
X9450Y4339D01*
X9450Y5339D01*
X9450Y6339D01*
X9450Y7339D01*
X9450Y8339D01*
X9450Y9339D01*
X9450Y10339D01*
X9450Y10339D01*
X9450Y10979D01*
X9450Y11579D01*
X9427Y11634D01*
X9385Y11677D01*
X9329Y11699D01*
X9270Y11700D01*
X8670Y11700D01*
X8615Y11677D01*
X8572Y11635D01*
X8550Y11579D01*
X8549Y11520D01*
X8549Y10920D01*
X8572Y10865D01*
X8614Y10822D01*
X8670Y10800D01*
X8729Y10799D01*
X9329Y10799D01*
X9384Y10822D01*
X9427Y10864D01*
X9449Y10920D01*
X9450Y10979D01*
X9450Y10339D01*
X9381Y10504D01*
X9255Y10631D01*
X9089Y10699D01*
X8910Y10700D01*
X8745Y10631D01*
X8618Y10505D01*
X8550Y10339D01*
X8549Y10160D01*
X8618Y9995D01*
X8744Y9868D01*
X8910Y9800D01*
X9089Y9799D01*
X9254Y9868D01*
X9381Y9994D01*
X9449Y10160D01*
X9450Y10339D01*
X9450Y9339D01*
X9381Y9504D01*
X9255Y9631D01*
X9089Y9699D01*
X8910Y9700D01*
X8745Y9631D01*
X8618Y9505D01*
X8550Y9339D01*
X8549Y9160D01*
X8618Y8995D01*
X8744Y8868D01*
X8910Y8800D01*
X9089Y8799D01*
X9254Y8868D01*
X9381Y8994D01*
X9449Y9160D01*
X9450Y9339D01*
X9450Y8339D01*
X9381Y8504D01*
X9255Y8631D01*
X9089Y8699D01*
X8910Y8700D01*
X8745Y8631D01*
X8618Y8505D01*
X8550Y8339D01*
X8549Y8160D01*
X8618Y7995D01*
X8744Y7868D01*
X8910Y7800D01*
X9089Y7799D01*
X9254Y7868D01*
X9381Y7994D01*
X9449Y8160D01*
X9450Y8339D01*
X9450Y7339D01*
X9381Y7504D01*
X9255Y7631D01*
X9089Y7699D01*
X8910Y7700D01*
X8745Y7631D01*
X8618Y7505D01*
X8550Y7339D01*
X8549Y7160D01*
X8618Y6995D01*
X8744Y6868D01*
X8910Y6800D01*
X9089Y6799D01*
X9254Y6868D01*
X9381Y6994D01*
X9449Y7160D01*
X9450Y7339D01*
X9450Y6339D01*
X9381Y6504D01*
X9255Y6631D01*
X9089Y6699D01*
X8910Y6700D01*
X8745Y6631D01*
X8618Y6505D01*
X8550Y6339D01*
X8549Y6160D01*
X8618Y5995D01*
X8744Y5868D01*
X8910Y5800D01*
X9089Y5799D01*
X9254Y5868D01*
X9381Y5994D01*
X9449Y6160D01*
X9450Y6339D01*
X9450Y5339D01*
X9381Y5504D01*
X9255Y5631D01*
X9089Y5699D01*
X8910Y5700D01*
X8745Y5631D01*
X8618Y5505D01*
X8550Y5339D01*
X8549Y5160D01*
X8618Y4995D01*
X8744Y4868D01*
X8910Y4800D01*
X9089Y4799D01*
X9254Y4868D01*
X9381Y4994D01*
X9449Y5160D01*
X9450Y5339D01*
X9450Y4339D01*
X9381Y4504D01*
X9255Y4631D01*
X9089Y4699D01*
X8910Y4700D01*
X8745Y4631D01*
X8618Y4505D01*
X8550Y4339D01*
X8549Y4160D01*
X8618Y3995D01*
X8744Y3868D01*
X8910Y3800D01*
X9089Y3799D01*
X9254Y3868D01*
X9381Y3994D01*
X9449Y4160D01*
X9450Y4339D01*
X9450Y3339D01*
X9381Y3504D01*
X9255Y3631D01*
X9089Y3699D01*
X8910Y3700D01*
X8745Y3631D01*
X8618Y3505D01*
X8550Y3339D01*
X8549Y3160D01*
X8618Y2995D01*
X8744Y2868D01*
X8910Y2800D01*
X9089Y2799D01*
X9254Y2868D01*
X9381Y2994D01*
X9449Y3160D01*
X9450Y3339D01*
X9450Y2339D01*
X9381Y2504D01*
X9255Y2631D01*
X9089Y2699D01*
X8910Y2700D01*
X8745Y2631D01*
X8618Y2505D01*
X8550Y2339D01*
X8549Y2160D01*
X8618Y1995D01*
X8744Y1868D01*
X8910Y1800D01*
X9089Y1799D01*
X9254Y1868D01*
X9381Y1994D01*
X9449Y2160D01*
X9450Y2339D01*
X9450Y179D01*
X8250Y179D01*
X8250Y3134D01*
X8185Y3290D01*
X8066Y3410D01*
X7909Y3474D01*
X7740Y3475D01*
X7584Y3410D01*
X7525Y3351D01*
X7525Y4134D01*
X7525Y7134D01*
X7460Y7290D01*
X7341Y7410D01*
X7184Y7474D01*
X7015Y7475D01*
X6859Y7410D01*
X6739Y7291D01*
X6675Y7134D01*
X6674Y6965D01*
X6739Y6809D01*
X6858Y6689D01*
X7015Y6625D01*
X7184Y6624D01*
X7340Y6689D01*
X7460Y6808D01*
X7524Y6965D01*
X7525Y7134D01*
X7525Y4134D01*
X7460Y4290D01*
X7341Y4410D01*
X7184Y4474D01*
X7015Y4475D01*
X6859Y4410D01*
X6739Y4291D01*
X6675Y4134D01*
X6674Y3965D01*
X6739Y3809D01*
X6858Y3689D01*
X7015Y3625D01*
X7184Y3624D01*
X7340Y3689D01*
X7460Y3808D01*
X7524Y3965D01*
X7525Y4134D01*
X7525Y3351D01*
X7464Y3291D01*
X7400Y3134D01*
X7399Y2965D01*
X7464Y2809D01*
X7583Y2689D01*
X7740Y2625D01*
X7909Y2624D01*
X8065Y2689D01*
X8185Y2808D01*
X8249Y2965D01*
X8250Y3134D01*
X8250Y179D01*
X7830Y179D01*
X7830Y736D01*
X7817Y924D01*
X7775Y1028D01*
X7775Y1884D01*
X7710Y2040D01*
X7591Y2160D01*
X7434Y2224D01*
X7265Y2225D01*
X7109Y2160D01*
X6989Y2041D01*
X6925Y1884D01*
X6924Y1715D01*
X6989Y1559D01*
X7108Y1439D01*
X7265Y1375D01*
X7434Y1374D01*
X7590Y1439D01*
X7710Y1558D01*
X7774Y1715D01*
X7775Y1884D01*
X7775Y1028D01*
X7769Y1042D01*
X7690Y1069D01*
X7619Y998D01*
X7619Y1140D01*
X7592Y1219D01*
X7413Y1280D01*
X7225Y1267D01*
X7107Y1219D01*
X7080Y1140D01*
X7350Y870D01*
X7619Y1140D01*
X7619Y998D01*
X7420Y800D01*
X7690Y530D01*
X7769Y557D01*
X7830Y736D01*
X7830Y179D01*
X7619Y179D01*
X7619Y459D01*
X7350Y729D01*
X7279Y658D01*
X7279Y800D01*
X7009Y1069D01*
X6930Y1042D01*
X6869Y863D01*
X6882Y675D01*
X6930Y557D01*
X7009Y530D01*
X7279Y800D01*
X7279Y658D01*
X7080Y459D01*
X7107Y380D01*
X7286Y319D01*
X7474Y332D01*
X7592Y380D01*
X7619Y459D01*
X7619Y179D01*
X6301Y179D01*
X6324Y235D01*
X6325Y314D01*
X6325Y785D01*
X6324Y864D01*
X6294Y938D01*
X6275Y957D01*
X6275Y4134D01*
X6275Y7134D01*
X6210Y7290D01*
X6091Y7410D01*
X5934Y7474D01*
X5765Y7475D01*
X5609Y7410D01*
X5489Y7291D01*
X5425Y7134D01*
X5424Y6965D01*
X5489Y6809D01*
X5608Y6689D01*
X5765Y6625D01*
X5934Y6624D01*
X6090Y6689D01*
X6210Y6808D01*
X6274Y6965D01*
X6275Y7134D01*
X6275Y4134D01*
X6210Y4290D01*
X6091Y4410D01*
X5934Y4474D01*
X5765Y4475D01*
X5609Y4410D01*
X5489Y4291D01*
X5425Y4134D01*
X5424Y3965D01*
X5489Y3809D01*
X5608Y3689D01*
X5765Y3625D01*
X5934Y3624D01*
X6090Y3689D01*
X6210Y3808D01*
X6274Y3965D01*
X6275Y4134D01*
X6275Y957D01*
X6238Y994D01*
X6164Y1025D01*
X5950Y1025D01*
X5900Y975D01*
X5900Y600D01*
X6275Y600D01*
X6325Y650D01*
X6325Y785D01*
X6325Y314D01*
X6325Y450D01*
X6275Y500D01*
X5950Y500D01*
X5900Y500D01*
X5800Y500D01*
X5800Y600D01*
X5800Y975D01*
X5750Y1025D01*
X5535Y1025D01*
X5461Y994D01*
X5405Y938D01*
X5375Y864D01*
X5374Y785D01*
X5375Y650D01*
X5425Y600D01*
X5800Y600D01*
X5800Y500D01*
X5750Y500D01*
X5425Y500D01*
X5375Y450D01*
X5374Y314D01*
X5375Y235D01*
X5398Y179D01*
X5330Y179D01*
X5330Y1736D01*
X5317Y1924D01*
X5275Y2028D01*
X5275Y4134D01*
X5275Y7134D01*
X5210Y7290D01*
X5091Y7410D01*
X4934Y7474D01*
X4765Y7475D01*
X4609Y7410D01*
X4489Y7291D01*
X4425Y7134D01*
X4424Y6965D01*
X4489Y6809D01*
X4608Y6689D01*
X4765Y6625D01*
X4934Y6624D01*
X5090Y6689D01*
X5210Y6808D01*
X5274Y6965D01*
X5275Y7134D01*
X5275Y4134D01*
X5210Y4290D01*
X5091Y4410D01*
X4934Y4474D01*
X4765Y4475D01*
X4609Y4410D01*
X4489Y4291D01*
X4425Y4134D01*
X4424Y3965D01*
X4489Y3809D01*
X4608Y3689D01*
X4765Y3625D01*
X4934Y3624D01*
X5090Y3689D01*
X5210Y3808D01*
X5274Y3965D01*
X5275Y4134D01*
X5275Y2028D01*
X5269Y2042D01*
X5250Y2049D01*
X5250Y3134D01*
X5185Y3290D01*
X5066Y3410D01*
X4909Y3474D01*
X4740Y3475D01*
X4584Y3410D01*
X4464Y3291D01*
X4400Y3134D01*
X4399Y2965D01*
X4464Y2809D01*
X4583Y2689D01*
X4740Y2625D01*
X4909Y2624D01*
X5065Y2689D01*
X5185Y2808D01*
X5249Y2965D01*
X5250Y3134D01*
X5250Y2049D01*
X5190Y2069D01*
X5119Y1998D01*
X5119Y2140D01*
X5092Y2219D01*
X4913Y2280D01*
X4725Y2267D01*
X4607Y2219D01*
X4580Y2140D01*
X4850Y1870D01*
X5119Y2140D01*
X5119Y1998D01*
X4920Y1800D01*
X5190Y1530D01*
X5269Y1557D01*
X5330Y1736D01*
X5330Y179D01*
X5119Y179D01*
X5119Y1459D01*
X4850Y1729D01*
X4779Y1658D01*
X4779Y1800D01*
X4509Y2069D01*
X4430Y2042D01*
X4369Y1863D01*
X4382Y1675D01*
X4430Y1557D01*
X4509Y1530D01*
X4779Y1800D01*
X4779Y1658D01*
X4580Y1459D01*
X4607Y1380D01*
X4786Y1319D01*
X4974Y1332D01*
X5092Y1380D01*
X5119Y1459D01*
X5119Y179D01*
X4275Y179D01*
X4275Y1884D01*
X4275Y3134D01*
X4275Y4134D01*
X4275Y7134D01*
X4210Y7290D01*
X4091Y7410D01*
X3934Y7474D01*
X3765Y7475D01*
X3609Y7410D01*
X3489Y7291D01*
X3425Y7134D01*
X3424Y6965D01*
X3489Y6809D01*
X3608Y6689D01*
X3765Y6625D01*
X3934Y6624D01*
X4090Y6689D01*
X4210Y6808D01*
X4274Y6965D01*
X4275Y7134D01*
X4275Y4134D01*
X4210Y4290D01*
X4091Y4410D01*
X3934Y4474D01*
X3765Y4475D01*
X3609Y4410D01*
X3489Y4291D01*
X3425Y4134D01*
X3424Y3965D01*
X3489Y3809D01*
X3608Y3689D01*
X3765Y3625D01*
X3934Y3624D01*
X4090Y3689D01*
X4210Y3808D01*
X4274Y3965D01*
X4275Y4134D01*
X4275Y3134D01*
X4210Y3290D01*
X4091Y3410D01*
X3934Y3474D01*
X3765Y3475D01*
X3609Y3410D01*
X3489Y3291D01*
X3425Y3134D01*
X3424Y2965D01*
X3489Y2809D01*
X3608Y2689D01*
X3765Y2625D01*
X3934Y2624D01*
X4090Y2689D01*
X4210Y2808D01*
X4274Y2965D01*
X4275Y3134D01*
X4275Y1884D01*
X4210Y2040D01*
X4091Y2160D01*
X3934Y2224D01*
X3765Y2225D01*
X3609Y2160D01*
X3489Y2041D01*
X3425Y1884D01*
X3424Y1715D01*
X3489Y1559D01*
X3608Y1439D01*
X3765Y1375D01*
X3934Y1374D01*
X4090Y1439D01*
X4210Y1558D01*
X4274Y1715D01*
X4275Y1884D01*
X4275Y179D01*
X3330Y179D01*
X3330Y6986D01*
X3317Y7174D01*
X3269Y7292D01*
X3190Y7319D01*
X3119Y7248D01*
X3119Y7390D01*
X3092Y7469D01*
X2913Y7530D01*
X2725Y7517D01*
X2607Y7469D01*
X2580Y7390D01*
X2850Y7120D01*
X3119Y7390D01*
X3119Y7248D01*
X2920Y7050D01*
X3190Y6780D01*
X3269Y6807D01*
X3330Y6986D01*
X3330Y179D01*
X3066Y179D01*
X3090Y189D01*
X3210Y308D01*
X3274Y465D01*
X3275Y634D01*
X3275Y634D01*
X3275Y3804D01*
X3275Y4354D01*
X3252Y4409D01*
X3210Y4452D01*
X3154Y4474D01*
X3119Y4475D01*
X3119Y6709D01*
X2850Y6979D01*
X2779Y6908D01*
X2779Y7050D01*
X2509Y7319D01*
X2430Y7292D01*
X2369Y7113D01*
X2382Y6925D01*
X2430Y6807D01*
X2509Y6780D01*
X2779Y7050D01*
X2779Y6908D01*
X2580Y6709D01*
X2607Y6630D01*
X2786Y6569D01*
X2974Y6582D01*
X3092Y6630D01*
X3119Y6709D01*
X3119Y4475D01*
X3095Y4475D01*
X2545Y4475D01*
X2493Y4453D01*
X2080Y4866D01*
X2080Y5986D01*
X2067Y6174D01*
X2019Y6292D01*
X1940Y6319D01*
X1869Y6248D01*
X1869Y6390D01*
X1842Y6469D01*
X1663Y6530D01*
X1475Y6517D01*
X1357Y6469D01*
X1330Y6390D01*
X1600Y6120D01*
X1869Y6390D01*
X1869Y6248D01*
X1670Y6050D01*
X1940Y5780D01*
X2019Y5807D01*
X2080Y5986D01*
X2080Y4866D01*
X2012Y4934D01*
X2024Y4965D01*
X2025Y5134D01*
X1960Y5290D01*
X1869Y5381D01*
X1869Y5709D01*
X1600Y5979D01*
X1529Y5908D01*
X1529Y6050D01*
X1259Y6319D01*
X1180Y6292D01*
X1119Y6113D01*
X1132Y5925D01*
X1180Y5807D01*
X1259Y5780D01*
X1529Y6050D01*
X1529Y5908D01*
X1330Y5709D01*
X1357Y5630D01*
X1536Y5569D01*
X1724Y5582D01*
X1842Y5630D01*
X1869Y5709D01*
X1869Y5381D01*
X1841Y5410D01*
X1684Y5474D01*
X1515Y5475D01*
X1359Y5410D01*
X1239Y5291D01*
X1175Y5134D01*
X1174Y4965D01*
X1239Y4809D01*
X1358Y4689D01*
X1515Y4625D01*
X1684Y4624D01*
X1715Y4637D01*
X2184Y4168D01*
X2184Y4050D01*
X2200Y3969D01*
X2246Y3901D01*
X2314Y3855D01*
X2394Y3840D01*
X2424Y3840D01*
X2424Y3745D01*
X2447Y3690D01*
X2489Y3647D01*
X2545Y3625D01*
X2604Y3624D01*
X3154Y3624D01*
X3209Y3647D01*
X3252Y3689D01*
X3274Y3745D01*
X3275Y3804D01*
X3275Y634D01*
X3210Y790D01*
X3091Y910D01*
X2934Y974D01*
X2765Y975D01*
X2609Y910D01*
X2489Y791D01*
X2425Y634D01*
X2424Y465D01*
X2489Y309D01*
X2608Y189D01*
X2634Y179D01*
X1670Y179D01*
X1900Y274D01*
X2224Y597D01*
X2399Y1020D01*
X2400Y1477D01*
X2225Y1900D01*
X1902Y2224D01*
X1479Y2399D01*
X1425Y2399D01*
X1425Y3163D01*
X1337Y3375D01*
X1176Y3537D01*
X964Y3624D01*
X736Y3625D01*
X524Y3537D01*
X362Y3376D01*
X275Y3164D01*
X274Y2936D01*
X362Y2724D01*
X523Y2562D01*
X735Y2475D01*
X963Y2474D01*
X1175Y2562D01*
X1337Y2723D01*
X1424Y2935D01*
X1425Y3163D01*
X1425Y2399D01*
X1022Y2400D01*
X599Y2225D01*
X275Y1902D01*
X179Y1670D01*
X179Y4019D01*
X258Y3939D01*
X415Y3875D01*
X584Y3874D01*
X740Y3939D01*
X860Y4058D01*
X924Y4215D01*
X925Y4384D01*
X860Y4540D01*
X741Y4660D01*
X584Y4724D01*
X415Y4725D01*
X259Y4660D01*
X179Y4580D01*
X179Y6810D01*
X385Y6725D01*
X613Y6724D01*
X825Y6812D01*
X987Y6973D01*
X1074Y7185D01*
X1075Y7413D01*
X987Y7625D01*
X826Y7787D01*
X614Y7874D01*
X386Y7875D01*
X179Y7789D01*
X179Y8150D01*
X229Y8149D01*
X779Y8149D01*
X834Y8172D01*
X877Y8214D01*
X899Y8270D01*
X900Y8325D01*
X1945Y8325D01*
X1954Y8303D01*
X2102Y8155D01*
X2295Y8075D01*
X2503Y8074D01*
X2697Y8154D01*
X2844Y8302D01*
X2864Y8350D01*
X3525Y8350D01*
X3620Y8369D01*
X3701Y8423D01*
X4178Y8900D01*
X4804Y8900D01*
X4742Y8874D01*
X4601Y8733D01*
X4525Y8549D01*
X4524Y8350D01*
X4600Y8167D01*
X4741Y8026D01*
X4925Y7950D01*
X5124Y7949D01*
X5307Y8025D01*
X5448Y8166D01*
X5524Y8350D01*
X5525Y8549D01*
X5509Y8587D01*
X5531Y8565D01*
X5525Y8549D01*
X5524Y8350D01*
X5600Y8167D01*
X5741Y8026D01*
X5925Y7950D01*
X6124Y7949D01*
X6307Y8025D01*
X6448Y8166D01*
X6524Y8350D01*
X6524Y8420D01*
X6524Y8070D01*
X6547Y8015D01*
X6589Y7972D01*
X6645Y7950D01*
X6704Y7949D01*
X7404Y7949D01*
X7459Y7972D01*
X7502Y8014D01*
X7524Y8070D01*
X7525Y8129D01*
X7525Y8829D01*
X7502Y8884D01*
X7460Y8927D01*
X7404Y8949D01*
X7345Y8950D01*
X6645Y8950D01*
X6590Y8927D01*
X6547Y8885D01*
X6525Y8829D01*
X6524Y8770D01*
X6524Y8549D01*
X6449Y8732D01*
X6308Y8873D01*
X6124Y8949D01*
X5925Y8950D01*
X5874Y8928D01*
X5680Y9123D01*
X5680Y13236D01*
X5667Y13424D01*
X5619Y13542D01*
X5540Y13569D01*
X5469Y13498D01*
X5469Y13640D01*
X5442Y13719D01*
X5263Y13780D01*
X5075Y13767D01*
X4957Y13719D01*
X4930Y13640D01*
X5200Y13370D01*
X5469Y13640D01*
X5469Y13498D01*
X5270Y13300D01*
X5540Y13030D01*
X5619Y13057D01*
X5680Y13236D01*
X5680Y9123D01*
X5525Y9278D01*
X5525Y10549D01*
X5469Y10683D01*
X5469Y12959D01*
X5200Y13229D01*
X5129Y13158D01*
X5129Y13300D01*
X4859Y13569D01*
X4780Y13542D01*
X4719Y13363D01*
X4732Y13175D01*
X4780Y13057D01*
X4859Y13030D01*
X5129Y13300D01*
X5129Y13158D01*
X4930Y12959D01*
X4957Y12880D01*
X5136Y12819D01*
X5324Y12832D01*
X5442Y12880D01*
X5469Y12959D01*
X5469Y10683D01*
X5449Y10732D01*
X5308Y10873D01*
X5124Y10949D01*
X4925Y10950D01*
X4742Y10874D01*
X4601Y10733D01*
X4525Y10549D01*
X4524Y10350D01*
X4600Y10167D01*
X4741Y10026D01*
X4925Y9950D01*
X5124Y9949D01*
X5307Y10025D01*
X5448Y10166D01*
X5524Y10350D01*
X5525Y10549D01*
X5525Y9278D01*
X5476Y9326D01*
X5395Y9380D01*
X5300Y9400D01*
X4075Y9400D01*
X3979Y9380D01*
X3898Y9326D01*
X3421Y8850D01*
X2975Y8850D01*
X2975Y10185D01*
X2975Y11014D01*
X2944Y11088D01*
X2888Y11144D01*
X2825Y11170D01*
X2825Y12488D01*
X2737Y12700D01*
X2725Y12713D01*
X2725Y13560D01*
X2725Y14189D01*
X2694Y14263D01*
X2638Y14319D01*
X2564Y14349D01*
X2485Y14350D01*
X2350Y14350D01*
X2300Y14300D01*
X2300Y13925D01*
X2675Y13925D01*
X2725Y13975D01*
X2725Y14189D01*
X2725Y13560D01*
X2725Y13775D01*
X2675Y13825D01*
X2300Y13825D01*
X2300Y13450D01*
X2350Y13400D01*
X2485Y13399D01*
X2564Y13400D01*
X2638Y13430D01*
X2694Y13486D01*
X2725Y13560D01*
X2725Y12713D01*
X2576Y12862D01*
X2364Y12949D01*
X2200Y12950D01*
X2200Y13450D01*
X2200Y13825D01*
X2200Y13925D01*
X2200Y14300D01*
X2150Y14350D01*
X2014Y14350D01*
X1935Y14349D01*
X1861Y14319D01*
X1805Y14263D01*
X1774Y14189D01*
X1775Y13975D01*
X1825Y13925D01*
X2200Y13925D01*
X2200Y13825D01*
X1825Y13825D01*
X1775Y13775D01*
X1774Y13560D01*
X1805Y13486D01*
X1861Y13430D01*
X1935Y13400D01*
X2014Y13399D01*
X2150Y13400D01*
X2200Y13450D01*
X2200Y12950D01*
X2136Y12950D01*
X1924Y12862D01*
X1762Y12701D01*
X1675Y12489D01*
X1674Y12261D01*
X1762Y12049D01*
X1923Y11887D01*
X2135Y11800D01*
X2363Y11799D01*
X2575Y11887D01*
X2737Y12048D01*
X2824Y12260D01*
X2825Y12488D01*
X2825Y11170D01*
X2814Y11174D01*
X2735Y11175D01*
X2500Y11175D01*
X2450Y11125D01*
X2450Y10650D01*
X2925Y10650D01*
X2975Y10700D01*
X2975Y11014D01*
X2975Y10185D01*
X2975Y10500D01*
X2925Y10550D01*
X2450Y10550D01*
X2450Y10075D01*
X2500Y10025D01*
X2735Y10024D01*
X2814Y10025D01*
X2888Y10055D01*
X2944Y10111D01*
X2975Y10185D01*
X2975Y8850D01*
X2864Y8850D01*
X2845Y8897D01*
X2697Y9044D01*
X2504Y9124D01*
X2350Y9125D01*
X2350Y10075D01*
X2350Y10550D01*
X2350Y10650D01*
X2350Y11125D01*
X2300Y11175D01*
X2064Y11175D01*
X1985Y11174D01*
X1911Y11144D01*
X1855Y11088D01*
X1824Y11014D01*
X1825Y10700D01*
X1875Y10650D01*
X2350Y10650D01*
X2350Y10550D01*
X1875Y10550D01*
X1825Y10500D01*
X1824Y10185D01*
X1855Y10111D01*
X1911Y10055D01*
X1985Y10025D01*
X2064Y10024D01*
X2300Y10025D01*
X2350Y10075D01*
X2350Y9125D01*
X2296Y9125D01*
X2103Y9045D01*
X1955Y8897D01*
X1924Y8825D01*
X900Y8825D01*
X900Y8879D01*
X877Y8934D01*
X835Y8977D01*
X779Y8999D01*
X720Y9000D01*
X179Y9000D01*
X179Y11075D01*
X360Y11000D01*
X588Y10999D01*
X800Y11087D01*
X962Y11248D01*
X1049Y11460D01*
X1050Y11688D01*
X962Y11900D01*
X801Y12062D01*
X589Y12149D01*
X361Y12150D01*
X179Y12075D01*
X179Y14820D01*
X32320Y14820D01*
X32320Y1670D01*
G54D24*
X19437Y8174D03*
X20151Y8096D03*
X13750Y11750D03*
X22500Y9975D03*
X22200Y7925D03*
X23700Y5000D03*
X17575Y5875D03*
X29980Y9509D03*
X11550Y8750D03*
X11626Y1340D03*
X29000Y2750D03*
X21025Y8375D03*
X16018Y9045D03*
X28550Y6250D03*
X19375Y14325D03*
X30450Y14050D03*
X29450Y14050D03*
X28450Y14050D03*
X2850Y4050D03*
X3850Y4050D03*
X4850Y4050D03*
X5850Y4050D03*
X5850Y7050D03*
X4850Y7050D03*
X3850Y7050D03*
X2850Y7050D03*
X21500Y5250D03*
X20500Y5250D03*
X19500Y5250D03*
X18500Y5250D03*
X17500Y5250D03*
X16500Y5250D03*
X15500Y5250D03*
X14500Y5250D03*
X13500Y5250D03*
X12500Y5250D03*
X12500Y2250D03*
X13500Y2250D03*
X14500Y2250D03*
X15500Y2250D03*
X16500Y2250D03*
X17500Y2250D03*
X18500Y2250D03*
X19500Y2250D03*
X20500Y2250D03*
X21500Y2250D03*
X21500Y9500D03*
X20500Y9500D03*
X19500Y9500D03*
X18500Y9500D03*
X17500Y9500D03*
X16500Y9500D03*
X15500Y9500D03*
X14500Y9500D03*
X13500Y9500D03*
X12500Y9500D03*
X12500Y6500D03*
X13500Y6500D03*
X14500Y6500D03*
X15500Y6500D03*
X16500Y6500D03*
X17500Y6500D03*
X18500Y6500D03*
X19500Y6500D03*
X20500Y6500D03*
X21500Y6500D03*
X475Y8575D03*
X475Y11575D03*
X3850Y1800D03*
X4850Y1800D03*
X5850Y550D03*
X2850Y550D03*
X1600Y6050D03*
X1600Y5050D03*
X31250Y1250D03*
X5025Y10450D03*
X7025Y10450D03*
X7350Y1800D03*
X7350Y800D03*
X8750Y13900D03*
X9750Y13900D03*
X23250Y3250D03*
X23250Y4250D03*
X23250Y7500D03*
X23250Y8500D03*
X1250Y1250D03*
X31500Y8250D03*
X31500Y7250D03*
X30500Y8250D03*
X30500Y7250D03*
X29500Y8250D03*
X29500Y7250D03*
X28500Y8250D03*
X28500Y7250D03*
X31500Y11500D03*
X31500Y10500D03*
X30500Y11500D03*
X30500Y10500D03*
X29500Y11500D03*
X29500Y10500D03*
X28500Y11500D03*
X28500Y10500D03*
X31500Y5000D03*
X31500Y4000D03*
X30500Y5000D03*
X30500Y4000D03*
X29500Y5000D03*
X29500Y4000D03*
X28500Y5000D03*
X28500Y4000D03*
X500Y7300D03*
X500Y4300D03*
X20000Y11250D03*
X23000Y11250D03*
X21000Y1500D03*
X24000Y1500D03*
X11100Y13800D03*
X11100Y10800D03*
X850Y3050D03*
X3850Y3050D03*
X7825Y3050D03*
X4825Y3050D03*
X7100Y4050D03*
X7100Y7050D03*
X5025Y8450D03*
X6025Y8450D03*
X7025Y8450D03*
X9000Y11250D03*
X9000Y10250D03*
X9000Y9250D03*
X9000Y8250D03*
X9000Y7250D03*
X9000Y6250D03*
X9000Y5250D03*
X9000Y4250D03*
X9000Y3250D03*
X9000Y2250D03*
X10000Y11250D03*
X10000Y10250D03*
X10000Y9250D03*
X10000Y8250D03*
X10000Y7250D03*
X10000Y6250D03*
X10000Y5250D03*
X10000Y4250D03*
X10000Y3250D03*
X10000Y2250D03*
X26000Y11250D03*
X26000Y10250D03*
X26000Y9250D03*
X26000Y8250D03*
X26000Y7250D03*
X26000Y6250D03*
X26000Y5250D03*
X26000Y4250D03*
X26000Y3250D03*
X26000Y2250D03*
X27000Y11250D03*
X27000Y10250D03*
X27000Y9250D03*
X27000Y8250D03*
X27000Y7250D03*
X27000Y6250D03*
X27000Y5250D03*
X27000Y4250D03*
X27000Y3250D03*
X27000Y2250D03*
X19500Y1000D03*
X18500Y1000D03*
X17500Y1000D03*
X16500Y1000D03*
X17000Y12250D03*
X17000Y13250D03*
X18000Y12250D03*
X18000Y13250D03*
X19000Y12250D03*
X19000Y13250D03*
X20000Y12250D03*
X20000Y13250D03*
X21000Y12250D03*
X21000Y13250D03*
X22000Y12250D03*
X22000Y13250D03*
X23000Y12250D03*
X23000Y13250D03*
X27350Y12750D03*
X30350Y12750D03*
X2250Y13875D03*
X2250Y12375D03*
X6700Y13300D03*
X5200Y13300D03*
X2400Y10600D03*
X2400Y8600D03*
X14500Y13650D03*
X13500Y13650D03*
X12500Y13650D03*
X12500Y10650D03*
X13500Y10650D03*
X14500Y10650D03*
M02*
