  0
SECTION
  2
HEADER
  9
$ANGBASE
  50
0.0
  9
$ANGDIR
  70
  1
  9
$MEASUREMENT
  70
0
  0
ENDSEC
  0
SECTION
  2
TABLES
  0
TABLE
  2
LTYPE
  70
1
  0
LTYPE
  2
CONTINUOUS
  70
0
  3
Solid line
  72
65
  73
0
  40
0.0
  0
ENDTAB
  0
TABLE
  2
STYLE
  70
4
  0
STYLE
  2
KICAD
  70
0
  40
0
  41
1
  42
1
  50
0
  71
0
  3
isocp.shx
  0
STYLE
  2
KICADB
  70
0
  40
0
  41
1
  42
1
  50
0
  71
0
  3
isocp.shx
  0
STYLE
  2
KICADI
  70
0
  40
0
  41
1
  42
1
  50
15
  71
0
  3
isocp.shx
  0
STYLE
  2
KICADBI
  70
0
  40
0
  41
1
  42
1
  50
15
  71
0
  3
isocp.shx
  0
ENDTAB
  0
TABLE
  2
LAYER
  70
24
  0
LAYER
  2
Black
  70
0
  62
250
  6
CONTINUOUS
  0
LAYER
  2
Blue
  70
0
  62
5
  6
CONTINUOUS
  0
LAYER
  2
Green
  70
0
  62
3
  6
CONTINUOUS
  0
LAYER
  2
Cyan
  70
0
  62
4
  6
CONTINUOUS
  0
LAYER
  2
Red
  70
0
  62
1
  6
CONTINUOUS
  0
LAYER
  2
Magenta
  70
0
  62
6
  6
CONTINUOUS
  0
LAYER
  2
Brown
  70
0
  62
54
  6
CONTINUOUS
  0
LAYER
  2
LightGray
  70
0
  62
9
  6
CONTINUOUS
  0
LAYER
  2
DarkGray
  70
0
  62
8
  6
CONTINUOUS
  0
LAYER
  2
LightBlue
  70
0
  62
171
  6
CONTINUOUS
  0
LAYER
  2
LightGreen
  70
0
  62
91
  6
CONTINUOUS
  0
LAYER
  2
LightCyan
  70
0
  62
131
  6
CONTINUOUS
  0
LAYER
  2
LightRed
  70
0
  62
11
  6
CONTINUOUS
  0
LAYER
  2
LightMagenta
  70
0
  62
221
  6
CONTINUOUS
  0
LAYER
  2
Yellow
  70
0
  62
2
  6
CONTINUOUS
  0
LAYER
  2
White
  70
0
  62
7
  6
CONTINUOUS
  0
LAYER
  2
DarkDarkGray
  70
0
  62
251
  6
CONTINUOUS
  0
LAYER
  2
DarkBlue
  70
0
  62
178
  6
CONTINUOUS
  0
LAYER
  2
DarkGreen
  70
0
  62
98
  6
CONTINUOUS
  0
LAYER
  2
DarkCyan
  70
0
  62
138
  6
CONTINUOUS
  0
LAYER
  2
DarkRed
  70
0
  62
18
  6
CONTINUOUS
  0
LAYER
  2
DarkMagenta
  70
0
  62
228
  6
CONTINUOUS
  0
LAYER
  2
DarkBrown
  70
0
  62
58
  6
CONTINUOUS
  0
LAYER
  2
LightYellow
  70
0
  62
51
  6
CONTINUOUS
  0
ENDTAB
  0
ENDSEC
  0
SECTION
  2
ENTITIES
0
LINE
8
BLACK
10
10.16
20
-10.16
11
409.829
21
-10.16
0
LINE
8
BLACK
10
409.829
20
-10.16
11
409.829
21
-286.842
0
LINE
8
BLACK
10
409.829
20
-286.842
11
10.16
21
-286.842
0
LINE
8
BLACK
10
10.16
20
-286.842
11
10.16
21
-10.16
0
LINE
8
BLACK
10
11.938
20
-11.938
11
408.051
21
-11.938
0
LINE
8
BLACK
10
408.051
20
-11.938
11
408.051
21
-285.064
0
LINE
8
BLACK
10
408.051
20
-285.064
11
11.938
21
-285.064
0
LINE
8
BLACK
10
11.938
20
-285.064
11
11.938
21
-11.938
0
LINE
8
BLACK
10
67.2338
20
-10.16
11
67.2338
21
-11.938
0
LINE
8
BLACK
10
39.0725
20
-11.563
11
38.3467
21
-11.563
0
LINE
8
BLACK
10
38.7096
20
-11.563
11
38.7096
21
-10.293
0
LINE
8
BLACK
10
38.7096
20
-10.293
11
38.5886
21
-10.4745
0
LINE
8
BLACK
10
38.5886
20
-10.4745
11
38.4677
21
-10.5954
0
LINE
8
BLACK
10
38.4677
20
-10.5954
11
38.3467
21
-10.6559
0
LINE
8
BLACK
10
67.2338
20
-286.842
11
67.2338
21
-285.064
0
LINE
8
BLACK
10
39.0725
20
-286.467
11
38.3467
21
-286.467
0
LINE
8
BLACK
10
38.7096
20
-286.467
11
38.7096
21
-285.197
0
LINE
8
BLACK
10
38.7096
20
-285.197
11
38.5886
21
-285.379
0
LINE
8
BLACK
10
38.5886
20
-285.379
11
38.4677
21
-285.5
0
LINE
8
BLACK
10
38.4677
20
-285.5
11
38.3467
21
-285.56
0
LINE
8
BLACK
10
124.308
20
-10.16
11
124.308
21
-11.938
0
LINE
8
BLACK
10
95.4205
20
-10.414
11
95.481
21
-10.3535
0
LINE
8
BLACK
10
95.481
20
-10.3535
11
95.602
21
-10.293
0
LINE
8
BLACK
10
95.602
20
-10.293
11
95.9044
21
-10.293
0
LINE
8
BLACK
10
95.9044
20
-10.293
11
96.0253
21
-10.3535
0
LINE
8
BLACK
10
96.0253
20
-10.3535
11
96.0858
21
-10.414
0
LINE
8
BLACK
10
96.0858
20
-10.414
11
96.1463
21
-10.535
0
LINE
8
BLACK
10
96.1463
20
-10.535
11
96.1463
21
-10.6559
0
LINE
8
BLACK
10
96.1463
20
-10.6559
11
96.0858
21
-10.8373
0
LINE
8
BLACK
10
96.0858
20
-10.8373
11
95.3601
21
-11.563
0
LINE
8
BLACK
10
95.3601
20
-11.563
11
96.1463
21
-11.563
0
LINE
8
BLACK
10
124.308
20
-286.842
11
124.308
21
-285.064
0
LINE
8
BLACK
10
95.4205
20
-285.318
11
95.481
21
-285.258
0
LINE
8
BLACK
10
95.481
20
-285.258
11
95.602
21
-285.197
0
LINE
8
BLACK
10
95.602
20
-285.197
11
95.9044
21
-285.197
0
LINE
8
BLACK
10
95.9044
20
-285.197
11
96.0253
21
-285.258
0
LINE
8
BLACK
10
96.0253
20
-285.258
11
96.0858
21
-285.318
0
LINE
8
BLACK
10
96.0858
20
-285.318
11
96.1463
21
-285.439
0
LINE
8
BLACK
10
96.1463
20
-285.439
11
96.1463
21
-285.56
0
LINE
8
BLACK
10
96.1463
20
-285.56
11
96.0858
21
-285.742
0
LINE
8
BLACK
10
96.0858
20
-285.742
11
95.3601
21
-286.467
0
LINE
8
BLACK
10
95.3601
20
-286.467
11
96.1463
21
-286.467
0
LINE
8
BLACK
10
181.381
20
-10.16
11
181.381
21
-11.938
0
LINE
8
BLACK
10
152.434
20
-10.293
11
153.22
21
-10.293
0
LINE
8
BLACK
10
153.22
20
-10.293
11
152.797
21
-10.7769
0
LINE
8
BLACK
10
152.797
20
-10.7769
11
152.978
21
-10.7769
0
LINE
8
BLACK
10
152.978
20
-10.7769
11
153.099
21
-10.8373
0
LINE
8
BLACK
10
153.099
20
-10.8373
11
153.16
21
-10.8978
0
LINE
8
BLACK
10
153.16
20
-10.8978
11
153.22
21
-11.0188
0
LINE
8
BLACK
10
153.22
20
-11.0188
11
153.22
21
-11.3211
0
LINE
8
BLACK
10
153.22
20
-11.3211
11
153.16
21
-11.4421
0
LINE
8
BLACK
10
153.16
20
-11.4421
11
153.099
21
-11.5026
0
LINE
8
BLACK
10
153.099
20
-11.5026
11
152.978
21
-11.563
0
LINE
8
BLACK
10
152.978
20
-11.563
11
152.615
21
-11.563
0
LINE
8
BLACK
10
152.615
20
-11.563
11
152.494
21
-11.5026
0
LINE
8
BLACK
10
152.494
20
-11.5026
11
152.434
21
-11.4421
0
LINE
8
BLACK
10
181.381
20
-286.842
11
181.381
21
-285.064
0
LINE
8
BLACK
10
152.434
20
-285.197
11
153.22
21
-285.197
0
LINE
8
BLACK
10
153.22
20
-285.197
11
152.797
21
-285.681
0
LINE
8
BLACK
10
152.797
20
-285.681
11
152.978
21
-285.681
0
LINE
8
BLACK
10
152.978
20
-285.681
11
153.099
21
-285.742
0
LINE
8
BLACK
10
153.099
20
-285.742
11
153.16
21
-285.802
0
LINE
8
BLACK
10
153.16
20
-285.802
11
153.22
21
-285.923
0
LINE
8
BLACK
10
153.22
20
-285.923
11
153.22
21
-286.225
0
LINE
8
BLACK
10
153.22
20
-286.225
11
153.16
21
-286.346
0
LINE
8
BLACK
10
153.16
20
-286.346
11
153.099
21
-286.407
0
LINE
8
BLACK
10
153.099
20
-286.407
11
152.978
21
-286.467
0
LINE
8
BLACK
10
152.978
20
-286.467
11
152.615
21
-286.467
0
LINE
8
BLACK
10
152.615
20
-286.467
11
152.494
21
-286.407
0
LINE
8
BLACK
10
152.494
20
-286.407
11
152.434
21
-286.346
0
LINE
8
BLACK
10
238.455
20
-10.16
11
238.455
21
-11.938
0
LINE
8
BLACK
10
210.173
20
-10.7164
11
210.173
21
-11.563
0
LINE
8
BLACK
10
209.871
20
-10.2326
11
209.568
21
-11.1397
0
LINE
8
BLACK
10
209.568
20
-11.1397
11
210.354
21
-11.1397
0
LINE
8
BLACK
10
238.455
20
-286.842
11
238.455
21
-285.064
0
LINE
8
BLACK
10
210.173
20
-285.621
11
210.173
21
-286.467
0
LINE
8
BLACK
10
209.871
20
-285.137
11
209.568
21
-286.044
0
LINE
8
BLACK
10
209.568
20
-286.044
11
210.354
21
-286.044
0
LINE
8
BLACK
10
295.529
20
-10.16
11
295.529
21
-11.938
0
LINE
8
BLACK
10
267.307
20
-10.293
11
266.702
21
-10.293
0
LINE
8
BLACK
10
266.702
20
-10.293
11
266.642
21
-10.8978
0
LINE
8
BLACK
10
266.642
20
-10.8978
11
266.702
21
-10.8373
0
LINE
8
BLACK
10
266.702
20
-10.8373
11
266.823
21
-10.7769
0
LINE
8
BLACK
10
266.823
20
-10.7769
11
267.126
21
-10.7769
0
LINE
8
BLACK
10
267.126
20
-10.7769
11
267.247
21
-10.8373
0
LINE
8
BLACK
10
267.247
20
-10.8373
11
267.307
21
-10.8978
0
LINE
8
BLACK
10
267.307
20
-10.8978
11
267.368
21
-11.0188
0
LINE
8
BLACK
10
267.368
20
-11.0188
11
267.368
21
-11.3211
0
LINE
8
BLACK
10
267.368
20
-11.3211
11
267.307
21
-11.4421
0
LINE
8
BLACK
10
267.307
20
-11.4421
11
267.247
21
-11.5026
0
LINE
8
BLACK
10
267.247
20
-11.5026
11
267.126
21
-11.563
0
LINE
8
BLACK
10
267.126
20
-11.563
11
266.823
21
-11.563
0
LINE
8
BLACK
10
266.823
20
-11.563
11
266.702
21
-11.5026
0
LINE
8
BLACK
10
266.702
20
-11.5026
11
266.642
21
-11.4421
0
LINE
8
BLACK
10
295.529
20
-286.842
11
295.529
21
-285.064
0
LINE
8
BLACK
10
267.307
20
-285.197
11
266.702
21
-285.197
0
LINE
8
BLACK
10
266.702
20
-285.197
11
266.642
21
-285.802
0
LINE
8
BLACK
10
266.642
20
-285.802
11
266.702
21
-285.742
0
LINE
8
BLACK
10
266.702
20
-285.742
11
266.823
21
-285.681
0
LINE
8
BLACK
10
266.823
20
-285.681
11
267.126
21
-285.681
0
LINE
8
BLACK
10
267.126
20
-285.681
11
267.247
21
-285.742
0
LINE
8
BLACK
10
267.247
20
-285.742
11
267.307
21
-285.802
0
LINE
8
BLACK
10
267.307
20
-285.802
11
267.368
21
-285.923
0
LINE
8
BLACK
10
267.368
20
-285.923
11
267.368
21
-286.225
0
LINE
8
BLACK
10
267.368
20
-286.225
11
267.307
21
-286.346
0
LINE
8
BLACK
10
267.307
20
-286.346
11
267.247
21
-286.407
0
LINE
8
BLACK
10
267.247
20
-286.407
11
267.126
21
-286.467
0
LINE
8
BLACK
10
267.126
20
-286.467
11
266.823
21
-286.467
0
LINE
8
BLACK
10
266.823
20
-286.467
11
266.702
21
-286.407
0
LINE
8
BLACK
10
266.702
20
-286.407
11
266.642
21
-286.346
0
LINE
8
BLACK
10
352.603
20
-10.16
11
352.603
21
-11.938
0
LINE
8
BLACK
10
324.321
20
-10.293
11
324.079
21
-10.293
0
LINE
8
BLACK
10
324.079
20
-10.293
11
323.958
21
-10.3535
0
LINE
8
BLACK
10
323.958
20
-10.3535
11
323.897
21
-10.414
0
LINE
8
BLACK
10
323.897
20
-10.414
11
323.776
21
-10.5954
0
LINE
8
BLACK
10
323.776
20
-10.5954
11
323.716
21
-10.8373
0
LINE
8
BLACK
10
323.716
20
-10.8373
11
323.716
21
-11.3211
0
LINE
8
BLACK
10
323.716
20
-11.3211
11
323.776
21
-11.4421
0
LINE
8
BLACK
10
323.776
20
-11.4421
11
323.837
21
-11.5026
0
LINE
8
BLACK
10
323.837
20
-11.5026
11
323.958
21
-11.563
0
LINE
8
BLACK
10
323.958
20
-11.563
11
324.2
21
-11.563
0
LINE
8
BLACK
10
324.2
20
-11.563
11
324.321
21
-11.5026
0
LINE
8
BLACK
10
324.321
20
-11.5026
11
324.381
21
-11.4421
0
LINE
8
BLACK
10
324.381
20
-11.4421
11
324.441
21
-11.3211
0
LINE
8
BLACK
10
324.441
20
-11.3211
11
324.441
21
-11.0188
0
LINE
8
BLACK
10
324.441
20
-11.0188
11
324.381
21
-10.8978
0
LINE
8
BLACK
10
324.381
20
-10.8978
11
324.321
21
-10.8373
0
LINE
8
BLACK
10
324.321
20
-10.8373
11
324.2
21
-10.7769
0
LINE
8
BLACK
10
324.2
20
-10.7769
11
323.958
21
-10.7769
0
LINE
8
BLACK
10
323.958
20
-10.7769
11
323.837
21
-10.8373
0
LINE
8
BLACK
10
323.837
20
-10.8373
11
323.776
21
-10.8978
0
LINE
8
BLACK
10
323.776
20
-10.8978
11
323.716
21
-11.0188
0
LINE
8
BLACK
10
352.603
20
-286.842
11
352.603
21
-285.064
0
LINE
8
BLACK
10
324.321
20
-285.197
11
324.079
21
-285.197
0
LINE
8
BLACK
10
324.079
20
-285.197
11
323.958
21
-285.258
0
LINE
8
BLACK
10
323.958
20
-285.258
11
323.897
21
-285.318
0
LINE
8
BLACK
10
323.897
20
-285.318
11
323.776
21
-285.5
0
LINE
8
BLACK
10
323.776
20
-285.5
11
323.716
21
-285.742
0
LINE
8
BLACK
10
323.716
20
-285.742
11
323.716
21
-286.225
0
LINE
8
BLACK
10
323.716
20
-286.225
11
323.776
21
-286.346
0
LINE
8
BLACK
10
323.776
20
-286.346
11
323.837
21
-286.407
0
LINE
8
BLACK
10
323.837
20
-286.407
11
323.958
21
-286.467
0
LINE
8
BLACK
10
323.958
20
-286.467
11
324.2
21
-286.467
0
LINE
8
BLACK
10
324.2
20
-286.467
11
324.321
21
-286.407
0
LINE
8
BLACK
10
324.321
20
-286.407
11
324.381
21
-286.346
0
LINE
8
BLACK
10
324.381
20
-286.346
11
324.441
21
-286.225
0
LINE
8
BLACK
10
324.441
20
-286.225
11
324.441
21
-285.923
0
LINE
8
BLACK
10
324.441
20
-285.923
11
324.381
21
-285.802
0
LINE
8
BLACK
10
324.381
20
-285.802
11
324.321
21
-285.742
0
LINE
8
BLACK
10
324.321
20
-285.742
11
324.2
21
-285.681
0
LINE
8
BLACK
10
324.2
20
-285.681
11
323.958
21
-285.681
0
LINE
8
BLACK
10
323.958
20
-285.681
11
323.837
21
-285.742
0
LINE
8
BLACK
10
323.837
20
-285.742
11
323.776
21
-285.802
0
LINE
8
BLACK
10
323.776
20
-285.802
11
323.716
21
-285.923
0
LINE
8
BLACK
10
380.729
20
-10.293
11
381.576
21
-10.293
0
LINE
8
BLACK
10
381.576
20
-10.293
11
381.031
21
-11.563
0
LINE
8
BLACK
10
380.729
20
-285.197
11
381.576
21
-285.197
0
LINE
8
BLACK
10
381.576
20
-285.197
11
381.031
21
-286.467
0
LINE
8
BLACK
10
10.16
20
-65.4812
11
11.938
21
-65.4812
0
LINE
8
BLACK
10
10.7466
20
-37.9718
11
11.3514
21
-37.9718
0
LINE
8
BLACK
10
10.6257
20
-38.3346
11
11.049
21
-37.0646
0
LINE
8
BLACK
10
11.049
20
-37.0646
11
11.4723
21
-38.3346
0
LINE
8
BLACK
10
409.829
20
-65.4812
11
408.051
21
-65.4812
0
LINE
8
BLACK
10
408.638
20
-37.9718
11
409.242
21
-37.9718
0
LINE
8
BLACK
10
408.517
20
-38.3346
11
408.94
21
-37.0646
0
LINE
8
BLACK
10
408.94
20
-37.0646
11
409.363
21
-38.3346
0
LINE
8
BLACK
10
10.16
20
-120.802
11
11.938
21
-120.802
0
LINE
8
BLACK
10
11.1397
20
-92.9906
11
11.3211
21
-93.0511
0
LINE
8
BLACK
10
11.3211
20
-93.0511
11
11.3816
21
-93.1116
0
LINE
8
BLACK
10
11.3816
20
-93.1116
11
11.4421
21
-93.2325
0
LINE
8
BLACK
10
11.4421
20
-93.2325
11
11.4421
21
-93.4139
0
LINE
8
BLACK
10
11.4421
20
-93.4139
11
11.3816
21
-93.5349
0
LINE
8
BLACK
10
11.3816
20
-93.5349
11
11.3211
21
-93.5954
0
LINE
8
BLACK
10
11.3211
20
-93.5954
11
11.2002
21
-93.6558
0
LINE
8
BLACK
10
11.2002
20
-93.6558
11
10.7164
21
-93.6558
0
LINE
8
BLACK
10
10.7164
20
-93.6558
11
10.7164
21
-92.3858
0
LINE
8
BLACK
10
10.7164
20
-92.3858
11
11.1397
21
-92.3858
0
LINE
8
BLACK
10
11.1397
20
-92.3858
11
11.2607
21
-92.4463
0
LINE
8
BLACK
10
11.2607
20
-92.4463
11
11.3211
21
-92.5068
0
LINE
8
BLACK
10
11.3211
20
-92.5068
11
11.3816
21
-92.6278
0
LINE
8
BLACK
10
11.3816
20
-92.6278
11
11.3816
21
-92.7487
0
LINE
8
BLACK
10
11.3816
20
-92.7487
11
11.3211
21
-92.8697
0
LINE
8
BLACK
10
11.3211
20
-92.8697
11
11.2607
21
-92.9301
0
LINE
8
BLACK
10
11.2607
20
-92.9301
11
11.1397
21
-92.9906
0
LINE
8
BLACK
10
11.1397
20
-92.9906
11
10.7164
21
-92.9906
0
LINE
8
BLACK
10
409.829
20
-120.802
11
408.051
21
-120.802
0
LINE
8
BLACK
10
409.031
20
-92.9906
11
409.212
21
-93.0511
0
LINE
8
BLACK
10
409.212
20
-93.0511
11
409.273
21
-93.1116
0
LINE
8
BLACK
10
409.273
20
-93.1116
11
409.333
21
-93.2325
0
LINE
8
BLACK
10
409.333
20
-93.2325
11
409.333
21
-93.4139
0
LINE
8
BLACK
10
409.333
20
-93.4139
11
409.273
21
-93.5349
0
LINE
8
BLACK
10
409.273
20
-93.5349
11
409.212
21
-93.5954
0
LINE
8
BLACK
10
409.212
20
-93.5954
11
409.091
21
-93.6558
0
LINE
8
BLACK
10
409.091
20
-93.6558
11
408.607
21
-93.6558
0
LINE
8
BLACK
10
408.607
20
-93.6558
11
408.607
21
-92.3858
0
LINE
8
BLACK
10
408.607
20
-92.3858
11
409.031
21
-92.3858
0
LINE
8
BLACK
10
409.031
20
-92.3858
11
409.152
21
-92.4463
0
LINE
8
BLACK
10
409.152
20
-92.4463
11
409.212
21
-92.5068
0
LINE
8
BLACK
10
409.212
20
-92.5068
11
409.273
21
-92.6278
0
LINE
8
BLACK
10
409.273
20
-92.6278
11
409.273
21
-92.7487
0
LINE
8
BLACK
10
409.273
20
-92.7487
11
409.212
21
-92.8697
0
LINE
8
BLACK
10
409.212
20
-92.8697
11
409.152
21
-92.9301
0
LINE
8
BLACK
10
409.152
20
-92.9301
11
409.031
21
-92.9906
0
LINE
8
BLACK
10
409.031
20
-92.9906
11
408.607
21
-92.9906
0
LINE
8
BLACK
10
10.16
20
-176.124
11
11.938
21
-176.124
0
LINE
8
BLACK
10
11.4421
20
-148.856
11
11.3816
21
-148.917
0
LINE
8
BLACK
10
11.3816
20
-148.917
11
11.2002
21
-148.977
0
LINE
8
BLACK
10
11.2002
20
-148.977
11
11.0792
21
-148.977
0
LINE
8
BLACK
10
11.0792
20
-148.977
11
10.8978
21
-148.917
0
LINE
8
BLACK
10
10.8978
20
-148.917
11
10.7769
21
-148.796
0
LINE
8
BLACK
10
10.7769
20
-148.796
11
10.7164
21
-148.675
0
LINE
8
BLACK
10
10.7164
20
-148.675
11
10.6559
21
-148.433
0
LINE
8
BLACK
10
10.6559
20
-148.433
11
10.6559
21
-148.251
0
LINE
8
BLACK
10
10.6559
20
-148.251
11
10.7164
21
-148.009
0
LINE
8
BLACK
10
10.7164
20
-148.009
11
10.7769
21
-147.888
0
LINE
8
BLACK
10
10.7769
20
-147.888
11
10.8978
21
-147.768
0
LINE
8
BLACK
10
10.8978
20
-147.768
11
11.0792
21
-147.707
0
LINE
8
BLACK
10
11.0792
20
-147.707
11
11.2002
21
-147.707
0
LINE
8
BLACK
10
11.2002
20
-147.707
11
11.3816
21
-147.768
0
LINE
8
BLACK
10
11.3816
20
-147.768
11
11.4421
21
-147.828
0
LINE
8
BLACK
10
409.829
20
-176.124
11
408.051
21
-176.124
0
LINE
8
BLACK
10
409.333
20
-148.856
11
409.273
21
-148.917
0
LINE
8
BLACK
10
409.273
20
-148.917
11
409.091
21
-148.977
0
LINE
8
BLACK
10
409.091
20
-148.977
11
408.97
21
-148.977
0
LINE
8
BLACK
10
408.97
20
-148.977
11
408.789
21
-148.917
0
LINE
8
BLACK
10
408.789
20
-148.917
11
408.668
21
-148.796
0
LINE
8
BLACK
10
408.668
20
-148.796
11
408.607
21
-148.675
0
LINE
8
BLACK
10
408.607
20
-148.675
11
408.547
21
-148.433
0
LINE
8
BLACK
10
408.547
20
-148.433
11
408.547
21
-148.251
0
LINE
8
BLACK
10
408.547
20
-148.251
11
408.607
21
-148.009
0
LINE
8
BLACK
10
408.607
20
-148.009
11
408.668
21
-147.888
0
LINE
8
BLACK
10
408.668
20
-147.888
11
408.789
21
-147.768
0
LINE
8
BLACK
10
408.789
20
-147.768
11
408.97
21
-147.707
0
LINE
8
BLACK
10
408.97
20
-147.707
11
409.091
21
-147.707
0
LINE
8
BLACK
10
409.091
20
-147.707
11
409.273
21
-147.768
0
LINE
8
BLACK
10
409.273
20
-147.768
11
409.333
21
-147.828
0
LINE
8
BLACK
10
10.16
20
-231.445
11
11.938
21
-231.445
0
LINE
8
BLACK
10
10.7164
20
-204.298
11
10.7164
21
-203.028
0
LINE
8
BLACK
10
10.7164
20
-203.028
11
11.0188
21
-203.028
0
LINE
8
BLACK
10
11.0188
20
-203.028
11
11.2002
21
-203.089
0
LINE
8
BLACK
10
11.2002
20
-203.089
11
11.3211
21
-203.21
0
LINE
8
BLACK
10
11.3211
20
-203.21
11
11.3816
21
-203.331
0
LINE
8
BLACK
10
11.3816
20
-203.331
11
11.4421
21
-203.573
0
LINE
8
BLACK
10
11.4421
20
-203.573
11
11.4421
21
-203.754
0
LINE
8
BLACK
10
11.4421
20
-203.754
11
11.3816
21
-203.996
0
LINE
8
BLACK
10
11.3816
20
-203.996
11
11.3211
21
-204.117
0
LINE
8
BLACK
10
11.3211
20
-204.117
11
11.2002
21
-204.238
0
LINE
8
BLACK
10
11.2002
20
-204.238
11
11.0188
21
-204.298
0
LINE
8
BLACK
10
11.0188
20
-204.298
11
10.7164
21
-204.298
0
LINE
8
BLACK
10
409.829
20
-231.445
11
408.051
21
-231.445
0
LINE
8
BLACK
10
408.607
20
-204.298
11
408.607
21
-203.028
0
LINE
8
BLACK
10
408.607
20
-203.028
11
408.91
21
-203.028
0
LINE
8
BLACK
10
408.91
20
-203.028
11
409.091
21
-203.089
0
LINE
8
BLACK
10
409.091
20
-203.089
11
409.212
21
-203.21
0
LINE
8
BLACK
10
409.212
20
-203.21
11
409.273
21
-203.331
0
LINE
8
BLACK
10
409.273
20
-203.331
11
409.333
21
-203.573
0
LINE
8
BLACK
10
409.333
20
-203.573
11
409.333
21
-203.754
0
LINE
8
BLACK
10
409.333
20
-203.754
11
409.273
21
-203.996
0
LINE
8
BLACK
10
409.273
20
-203.996
11
409.212
21
-204.117
0
LINE
8
BLACK
10
409.212
20
-204.117
11
409.091
21
-204.238
0
LINE
8
BLACK
10
409.091
20
-204.238
11
408.91
21
-204.298
0
LINE
8
BLACK
10
408.91
20
-204.298
11
408.607
21
-204.298
0
LINE
8
BLACK
10
10.7769
20
-258.954
11
11.2002
21
-258.954
0
LINE
8
BLACK
10
11.3816
20
-259.619
11
10.7769
21
-259.619
0
LINE
8
BLACK
10
10.7769
20
-259.619
11
10.7769
21
-258.349
0
LINE
8
BLACK
10
10.7769
20
-258.349
11
11.3816
21
-258.349
0
LINE
8
BLACK
10
408.668
20
-258.954
11
409.091
21
-258.954
0
LINE
8
BLACK
10
409.273
20
-259.619
11
408.668
21
-259.619
0
LINE
8
BLACK
10
408.668
20
-259.619
11
408.668
21
-258.349
0
LINE
8
BLACK
10
408.668
20
-258.349
11
409.273
21
-258.349
0
LINE
8
BLACK
10
324.612
20
-281.109
11
324.803
21
-279.585
0
LINE
8
BLACK
10
324.803
20
-279.585
11
325.165
21
-279.585
0
LINE
8
BLACK
10
325.165
20
-279.585
11
325.374
21
-279.658
0
LINE
8
BLACK
10
325.374
20
-279.658
11
325.501
21
-279.803
0
LINE
8
BLACK
10
325.501
20
-279.803
11
325.555
21
-279.948
0
LINE
8
BLACK
10
325.555
20
-279.948
11
325.592
21
-280.238
0
LINE
8
BLACK
10
325.592
20
-280.238
11
325.565
21
-280.456
0
LINE
8
BLACK
10
325.565
20
-280.456
11
325.456
21
-280.746
0
LINE
8
BLACK
10
325.456
20
-280.746
11
325.365
21
-280.891
0
LINE
8
BLACK
10
325.365
20
-280.891
11
325.202
21
-281.036
0
LINE
8
BLACK
10
325.202
20
-281.036
11
324.975
21
-281.109
0
LINE
8
BLACK
10
324.975
20
-281.109
11
324.612
21
-281.109
0
LINE
8
BLACK
10
326.789
20
-281.109
11
326.889
21
-280.311
0
LINE
8
BLACK
10
326.889
20
-280.311
11
326.834
21
-280.166
0
LINE
8
BLACK
10
326.834
20
-280.166
11
326.698
21
-280.093
0
LINE
8
BLACK
10
326.698
20
-280.093
11
326.408
21
-280.093
0
LINE
8
BLACK
10
326.408
20
-280.093
11
326.254
21
-280.166
0
LINE
8
BLACK
10
326.798
20
-281.036
11
326.644
21
-281.109
0
LINE
8
BLACK
10
326.644
20
-281.109
11
326.281
21
-281.109
0
LINE
8
BLACK
10
326.281
20
-281.109
11
326.145
21
-281.036
0
LINE
8
BLACK
10
326.145
20
-281.036
11
326.091
21
-280.891
0
LINE
8
BLACK
10
326.091
20
-280.891
11
326.109
21
-280.746
0
LINE
8
BLACK
10
326.109
20
-280.746
11
326.2
21
-280.601
0
LINE
8
BLACK
10
326.2
20
-280.601
11
326.354
21
-280.528
0
LINE
8
BLACK
10
326.354
20
-280.528
11
326.717
21
-280.528
0
LINE
8
BLACK
10
326.717
20
-280.528
11
326.871
21
-280.456
0
LINE
8
BLACK
10
327.424
20
-280.093
11
328.005
21
-280.093
0
LINE
8
BLACK
10
327.705
20
-279.585
11
327.542
21
-280.891
0
LINE
8
BLACK
10
327.542
20
-280.891
11
327.596
21
-281.036
0
LINE
8
BLACK
10
327.596
20
-281.036
11
327.733
21
-281.109
0
LINE
8
BLACK
10
327.733
20
-281.109
11
327.878
21
-281.109
0
LINE
8
BLACK
10
328.975
20
-281.036
11
328.821
21
-281.109
0
LINE
8
BLACK
10
328.821
20
-281.109
11
328.531
21
-281.109
0
LINE
8
BLACK
10
328.531
20
-281.109
11
328.395
21
-281.036
0
LINE
8
BLACK
10
328.395
20
-281.036
11
328.34
21
-280.891
0
LINE
8
BLACK
10
328.34
20
-280.891
11
328.413
21
-280.311
0
LINE
8
BLACK
10
328.413
20
-280.311
11
328.504
21
-280.166
0
LINE
8
BLACK
10
328.504
20
-280.166
11
328.658
21
-280.093
0
LINE
8
BLACK
10
328.658
20
-280.093
11
328.948
21
-280.093
0
LINE
8
BLACK
10
328.948
20
-280.093
11
329.084
21
-280.166
0
LINE
8
BLACK
10
329.084
20
-280.166
11
329.139
21
-280.311
0
LINE
8
BLACK
10
329.139
20
-280.311
11
329.12
21
-280.456
0
LINE
8
BLACK
10
329.12
20
-280.456
11
328.377
21
-280.601
0
LINE
8
BLACK
10
329.71
20
-280.964
11
329.774
21
-281.036
0
LINE
8
BLACK
10
329.774
20
-281.036
11
329.692
21
-281.109
0
LINE
8
BLACK
10
329.692
20
-281.109
11
329.628
21
-281.036
0
LINE
8
BLACK
10
329.628
20
-281.036
11
329.71
21
-280.964
0
LINE
8
BLACK
10
329.71
20
-280.964
11
329.692
21
-281.109
0
LINE
8
BLACK
10
329.81
20
-280.166
11
329.873
21
-280.238
0
LINE
8
BLACK
10
329.873
20
-280.238
11
329.792
21
-280.311
0
LINE
8
BLACK
10
329.792
20
-280.311
11
329.728
21
-280.238
0
LINE
8
BLACK
10
329.728
20
-280.238
11
329.81
21
-280.166
0
LINE
8
BLACK
10
329.81
20
-280.166
11
329.792
21
-280.311
0
LINE
8
BLACK
10
303.258
20
-284.157
11
303.258
21
-282.633
0
LINE
8
BLACK
10
304.129
20
-284.157
11
303.476
21
-283.286
0
LINE
8
BLACK
10
304.129
20
-282.633
11
303.258
21
-283.504
0
LINE
8
BLACK
10
304.782
20
-284.157
11
304.782
21
-283.141
0
LINE
8
BLACK
10
304.782
20
-282.633
11
304.709
21
-282.706
0
LINE
8
BLACK
10
304.709
20
-282.706
11
304.782
21
-282.778
0
LINE
8
BLACK
10
304.782
20
-282.778
11
304.854
21
-282.706
0
LINE
8
BLACK
10
304.854
20
-282.706
11
304.782
21
-282.633
0
LINE
8
BLACK
10
304.782
20
-282.633
11
304.782
21
-282.778
0
LINE
8
BLACK
10
306.378
20
-284.012
11
306.306
21
-284.084
0
LINE
8
BLACK
10
306.306
20
-284.084
11
306.088
21
-284.157
0
LINE
8
BLACK
10
306.088
20
-284.157
11
305.943
21
-284.157
0
LINE
8
BLACK
10
305.943
20
-284.157
11
305.725
21
-284.084
0
LINE
8
BLACK
10
305.725
20
-284.084
11
305.58
21
-283.939
0
LINE
8
BLACK
10
305.58
20
-283.939
11
305.508
21
-283.794
0
LINE
8
BLACK
10
305.508
20
-283.794
11
305.435
21
-283.504
0
LINE
8
BLACK
10
305.435
20
-283.504
11
305.435
21
-283.286
0
LINE
8
BLACK
10
305.435
20
-283.286
11
305.508
21
-282.996
0
LINE
8
BLACK
10
305.508
20
-282.996
11
305.58
21
-282.851
0
LINE
8
BLACK
10
305.58
20
-282.851
11
305.725
21
-282.706
0
LINE
8
BLACK
10
305.725
20
-282.706
11
305.943
21
-282.633
0
LINE
8
BLACK
10
305.943
20
-282.633
11
306.088
21
-282.633
0
LINE
8
BLACK
10
306.088
20
-282.633
11
306.306
21
-282.706
0
LINE
8
BLACK
10
306.306
20
-282.706
11
306.378
21
-282.778
0
LINE
8
BLACK
10
307.685
20
-284.157
11
307.685
21
-283.359
0
LINE
8
BLACK
10
307.685
20
-283.359
11
307.612
21
-283.214
0
LINE
8
BLACK
10
307.612
20
-283.214
11
307.467
21
-283.141
0
LINE
8
BLACK
10
307.467
20
-283.141
11
307.177
21
-283.141
0
LINE
8
BLACK
10
307.177
20
-283.141
11
307.032
21
-283.214
0
LINE
8
BLACK
10
307.685
20
-284.084
11
307.54
21
-284.157
0
LINE
8
BLACK
10
307.54
20
-284.157
11
307.177
21
-284.157
0
LINE
8
BLACK
10
307.177
20
-284.157
11
307.032
21
-284.084
0
LINE
8
BLACK
10
307.032
20
-284.084
11
306.959
21
-283.939
0
LINE
8
BLACK
10
306.959
20
-283.939
11
306.959
21
-283.794
0
LINE
8
BLACK
10
306.959
20
-283.794
11
307.032
21
-283.649
0
LINE
8
BLACK
10
307.032
20
-283.649
11
307.177
21
-283.576
0
LINE
8
BLACK
10
307.177
20
-283.576
11
307.54
21
-283.576
0
LINE
8
BLACK
10
307.54
20
-283.576
11
307.685
21
-283.504
0
LINE
8
BLACK
10
309.064
20
-284.157
11
309.064
21
-282.633
0
LINE
8
BLACK
10
309.064
20
-284.084
11
308.918
21
-284.157
0
LINE
8
BLACK
10
308.918
20
-284.157
11
308.628
21
-284.157
0
LINE
8
BLACK
10
308.628
20
-284.157
11
308.483
21
-284.084
0
LINE
8
BLACK
10
308.483
20
-284.084
11
308.41
21
-284.012
0
LINE
8
BLACK
10
308.41
20
-284.012
11
308.338
21
-283.867
0
LINE
8
BLACK
10
308.338
20
-283.867
11
308.338
21
-283.431
0
LINE
8
BLACK
10
308.338
20
-283.431
11
308.41
21
-283.286
0
LINE
8
BLACK
10
308.41
20
-283.286
11
308.483
21
-283.214
0
LINE
8
BLACK
10
308.483
20
-283.214
11
308.628
21
-283.141
0
LINE
8
BLACK
10
308.628
20
-283.141
11
308.918
21
-283.141
0
LINE
8
BLACK
10
308.918
20
-283.141
11
309.064
21
-283.214
0
LINE
8
BLACK
10
310.95
20
-283.359
11
311.458
21
-283.359
0
LINE
8
BLACK
10
311.676
20
-284.157
11
310.95
21
-284.157
0
LINE
8
BLACK
10
310.95
20
-284.157
11
310.95
21
-282.633
0
LINE
8
BLACK
10
310.95
20
-282.633
11
311.676
21
-282.633
0
LINE
8
BLACK
10
312.329
20
-284.012
11
312.402
21
-284.084
0
LINE
8
BLACK
10
312.402
20
-284.084
11
312.329
21
-284.157
0
LINE
8
BLACK
10
312.329
20
-284.157
11
312.257
21
-284.084
0
LINE
8
BLACK
10
312.257
20
-284.084
11
312.329
21
-284.012
0
LINE
8
BLACK
10
312.329
20
-284.012
11
312.329
21
-284.157
0
LINE
8
BLACK
10
313.055
20
-284.157
11
313.055
21
-282.633
0
LINE
8
BLACK
10
313.055
20
-282.633
11
313.418
21
-282.633
0
LINE
8
BLACK
10
313.418
20
-282.633
11
313.636
21
-282.706
0
LINE
8
BLACK
10
313.636
20
-282.706
11
313.781
21
-282.851
0
LINE
8
BLACK
10
313.781
20
-282.851
11
313.853
21
-282.996
0
LINE
8
BLACK
10
313.853
20
-282.996
11
313.926
21
-283.286
0
LINE
8
BLACK
10
313.926
20
-283.286
11
313.926
21
-283.504
0
LINE
8
BLACK
10
313.926
20
-283.504
11
313.853
21
-283.794
0
LINE
8
BLACK
10
313.853
20
-283.794
11
313.781
21
-283.939
0
LINE
8
BLACK
10
313.781
20
-283.939
11
313.636
21
-284.084
0
LINE
8
BLACK
10
313.636
20
-284.084
11
313.418
21
-284.157
0
LINE
8
BLACK
10
313.418
20
-284.157
11
313.055
21
-284.157
0
LINE
8
BLACK
10
314.579
20
-284.012
11
314.652
21
-284.084
0
LINE
8
BLACK
10
314.652
20
-284.084
11
314.579
21
-284.157
0
LINE
8
BLACK
10
314.579
20
-284.157
11
314.506
21
-284.084
0
LINE
8
BLACK
10
314.506
20
-284.084
11
314.579
21
-284.012
0
LINE
8
BLACK
10
314.579
20
-284.012
11
314.579
21
-284.157
0
LINE
8
BLACK
10
315.232
20
-283.722
11
315.958
21
-283.722
0
LINE
8
BLACK
10
315.087
20
-284.157
11
315.595
21
-282.633
0
LINE
8
BLACK
10
315.595
20
-282.633
11
316.103
21
-284.157
0
LINE
8
BLACK
10
316.611
20
-284.012
11
316.684
21
-284.084
0
LINE
8
BLACK
10
316.684
20
-284.084
11
316.611
21
-284.157
0
LINE
8
BLACK
10
316.611
20
-284.157
11
316.538
21
-284.084
0
LINE
8
BLACK
10
316.538
20
-284.084
11
316.611
21
-284.012
0
LINE
8
BLACK
10
316.611
20
-284.012
11
316.611
21
-284.157
0
LINE
8
BLACK
10
388.475
20
-281.109
11
388.058
21
-280.383
0
LINE
8
BLACK
10
387.604
20
-281.109
11
387.794
21
-279.585
0
LINE
8
BLACK
10
387.794
20
-279.585
11
388.375
21
-279.585
0
LINE
8
BLACK
10
388.375
20
-279.585
11
388.511
21
-279.658
0
LINE
8
BLACK
10
388.511
20
-279.658
11
388.575
21
-279.73
0
LINE
8
BLACK
10
388.575
20
-279.73
11
388.629
21
-279.875
0
LINE
8
BLACK
10
388.629
20
-279.875
11
388.602
21
-280.093
0
LINE
8
BLACK
10
388.602
20
-280.093
11
388.511
21
-280.238
0
LINE
8
BLACK
10
388.511
20
-280.238
11
388.429
21
-280.311
0
LINE
8
BLACK
10
388.429
20
-280.311
11
388.275
21
-280.383
0
LINE
8
BLACK
10
388.275
20
-280.383
11
387.695
21
-280.383
0
LINE
8
BLACK
10
389.718
20
-281.036
11
389.563
21
-281.109
0
LINE
8
BLACK
10
389.563
20
-281.109
11
389.273
21
-281.109
0
LINE
8
BLACK
10
389.273
20
-281.109
11
389.137
21
-281.036
0
LINE
8
BLACK
10
389.137
20
-281.036
11
389.083
21
-280.891
0
LINE
8
BLACK
10
389.083
20
-280.891
11
389.155
21
-280.311
0
LINE
8
BLACK
10
389.155
20
-280.311
11
389.246
21
-280.166
0
LINE
8
BLACK
10
389.246
20
-280.166
11
389.4
21
-280.093
0
LINE
8
BLACK
10
389.4
20
-280.093
11
389.69
21
-280.093
0
LINE
8
BLACK
10
389.69
20
-280.093
11
389.827
21
-280.166
0
LINE
8
BLACK
10
389.827
20
-280.166
11
389.881
21
-280.311
0
LINE
8
BLACK
10
389.881
20
-280.311
11
389.863
21
-280.456
0
LINE
8
BLACK
10
389.863
20
-280.456
11
389.119
21
-280.601
0
LINE
8
BLACK
10
390.416
20
-280.093
11
390.652
21
-281.109
0
LINE
8
BLACK
10
390.652
20
-281.109
11
391.142
21
-280.093
0
LINE
8
BLACK
10
391.614
20
-280.964
11
391.677
21
-281.036
0
LINE
8
BLACK
10
391.677
20
-281.036
11
391.595
21
-281.109
0
LINE
8
BLACK
10
391.595
20
-281.109
11
391.532
21
-281.036
0
LINE
8
BLACK
10
391.532
20
-281.036
11
391.614
21
-280.964
0
LINE
8
BLACK
10
391.614
20
-280.964
11
391.595
21
-281.109
0
LINE
8
BLACK
10
391.713
20
-280.166
11
391.777
21
-280.238
0
LINE
8
BLACK
10
391.777
20
-280.238
11
391.695
21
-280.311
0
LINE
8
BLACK
10
391.695
20
-280.311
11
391.632
21
-280.238
0
LINE
8
BLACK
10
391.632
20
-280.238
11
391.713
21
-280.166
0
LINE
8
BLACK
10
391.713
20
-280.166
11
391.695
21
-280.311
0
LINE
8
BLACK
10
303.185
20
-281.036
11
303.403
21
-281.109
0
LINE
8
BLACK
10
303.403
20
-281.109
11
303.766
21
-281.109
0
LINE
8
BLACK
10
303.766
20
-281.109
11
303.911
21
-281.036
0
LINE
8
BLACK
10
303.911
20
-281.036
11
303.984
21
-280.964
0
LINE
8
BLACK
10
303.984
20
-280.964
11
304.056
21
-280.819
0
LINE
8
BLACK
10
304.056
20
-280.819
11
304.056
21
-280.674
0
LINE
8
BLACK
10
304.056
20
-280.674
11
303.984
21
-280.528
0
LINE
8
BLACK
10
303.984
20
-280.528
11
303.911
21
-280.456
0
LINE
8
BLACK
10
303.911
20
-280.456
11
303.766
21
-280.383
0
LINE
8
BLACK
10
303.766
20
-280.383
11
303.476
21
-280.311
0
LINE
8
BLACK
10
303.476
20
-280.311
11
303.33
21
-280.238
0
LINE
8
BLACK
10
303.33
20
-280.238
11
303.258
21
-280.166
0
LINE
8
BLACK
10
303.258
20
-280.166
11
303.185
21
-280.02
0
LINE
8
BLACK
10
303.185
20
-280.02
11
303.185
21
-279.875
0
LINE
8
BLACK
10
303.185
20
-279.875
11
303.258
21
-279.73
0
LINE
8
BLACK
10
303.258
20
-279.73
11
303.33
21
-279.658
0
LINE
8
BLACK
10
303.33
20
-279.658
11
303.476
21
-279.585
0
LINE
8
BLACK
10
303.476
20
-279.585
11
303.838
21
-279.585
0
LINE
8
BLACK
10
303.838
20
-279.585
11
304.056
21
-279.658
0
LINE
8
BLACK
10
304.709
20
-281.109
11
304.709
21
-280.093
0
LINE
8
BLACK
10
304.709
20
-279.585
11
304.637
21
-279.658
0
LINE
8
BLACK
10
304.637
20
-279.658
11
304.709
21
-279.73
0
LINE
8
BLACK
10
304.709
20
-279.73
11
304.782
21
-279.658
0
LINE
8
BLACK
10
304.782
20
-279.658
11
304.709
21
-279.585
0
LINE
8
BLACK
10
304.709
20
-279.585
11
304.709
21
-279.73
0
LINE
8
BLACK
10
305.29
20
-280.093
11
306.088
21
-280.093
0
LINE
8
BLACK
10
306.088
20
-280.093
11
305.29
21
-281.109
0
LINE
8
BLACK
10
305.29
20
-281.109
11
306.088
21
-281.109
0
LINE
8
BLACK
10
307.249
20
-281.036
11
307.104
21
-281.109
0
LINE
8
BLACK
10
307.104
20
-281.109
11
306.814
21
-281.109
0
LINE
8
BLACK
10
306.814
20
-281.109
11
306.669
21
-281.036
0
LINE
8
BLACK
10
306.669
20
-281.036
11
306.596
21
-280.891
0
LINE
8
BLACK
10
306.596
20
-280.891
11
306.596
21
-280.311
0
LINE
8
BLACK
10
306.596
20
-280.311
11
306.669
21
-280.166
0
LINE
8
BLACK
10
306.669
20
-280.166
11
306.814
21
-280.093
0
LINE
8
BLACK
10
306.814
20
-280.093
11
307.104
21
-280.093
0
LINE
8
BLACK
10
307.104
20
-280.093
11
307.249
21
-280.166
0
LINE
8
BLACK
10
307.249
20
-280.166
11
307.322
21
-280.311
0
LINE
8
BLACK
10
307.322
20
-280.311
11
307.322
21
-280.456
0
LINE
8
BLACK
10
307.322
20
-280.456
11
306.596
21
-280.601
0
LINE
8
BLACK
10
307.975
20
-280.964
11
308.048
21
-281.036
0
LINE
8
BLACK
10
308.048
20
-281.036
11
307.975
21
-281.109
0
LINE
8
BLACK
10
307.975
20
-281.109
11
307.902
21
-281.036
0
LINE
8
BLACK
10
307.902
20
-281.036
11
307.975
21
-280.964
0
LINE
8
BLACK
10
307.975
20
-280.964
11
307.975
21
-281.109
0
LINE
8
BLACK
10
307.975
20
-280.166
11
308.048
21
-280.238
0
LINE
8
BLACK
10
308.048
20
-280.238
11
307.975
21
-280.311
0
LINE
8
BLACK
10
307.975
20
-280.311
11
307.902
21
-280.238
0
LINE
8
BLACK
10
307.902
20
-280.238
11
307.975
21
-280.166
0
LINE
8
BLACK
10
307.975
20
-280.166
11
307.975
21
-280.311
0
LINE
8
BLACK
10
309.789
20
-280.674
11
310.515
21
-280.674
0
LINE
8
BLACK
10
309.644
20
-281.109
11
310.152
21
-279.585
0
LINE
8
BLACK
10
310.152
20
-279.585
11
310.66
21
-281.109
0
LINE
8
BLACK
10
311.023
20
-279.585
11
311.966
21
-279.585
0
LINE
8
BLACK
10
311.966
20
-279.585
11
311.458
21
-280.166
0
LINE
8
BLACK
10
311.458
20
-280.166
11
311.676
21
-280.166
0
LINE
8
BLACK
10
311.676
20
-280.166
11
311.821
21
-280.238
0
LINE
8
BLACK
10
311.821
20
-280.238
11
311.894
21
-280.311
0
LINE
8
BLACK
10
311.894
20
-280.311
11
311.966
21
-280.456
0
LINE
8
BLACK
10
311.966
20
-280.456
11
311.966
21
-280.819
0
LINE
8
BLACK
10
311.966
20
-280.819
11
311.894
21
-280.964
0
LINE
8
BLACK
10
311.894
20
-280.964
11
311.821
21
-281.036
0
LINE
8
BLACK
10
311.821
20
-281.036
11
311.676
21
-281.109
0
LINE
8
BLACK
10
311.676
20
-281.109
11
311.241
21
-281.109
0
LINE
8
BLACK
10
311.241
20
-281.109
11
311.096
21
-281.036
0
LINE
8
BLACK
10
311.096
20
-281.036
11
311.023
21
-280.964
0
LINE
8
BLACK
10
387.586
20
-284.157
11
387.586
21
-282.633
0
LINE
8
BLACK
10
388.965
20
-284.157
11
388.965
21
-282.633
0
LINE
8
BLACK
10
388.965
20
-284.084
11
388.82
21
-284.157
0
LINE
8
BLACK
10
388.82
20
-284.157
11
388.529
21
-284.157
0
LINE
8
BLACK
10
388.529
20
-284.157
11
388.384
21
-284.084
0
LINE
8
BLACK
10
388.384
20
-284.084
11
388.312
21
-284.012
0
LINE
8
BLACK
10
388.312
20
-284.012
11
388.239
21
-283.867
0
LINE
8
BLACK
10
388.239
20
-283.867
11
388.239
21
-283.431
0
LINE
8
BLACK
10
388.239
20
-283.431
11
388.312
21
-283.286
0
LINE
8
BLACK
10
388.312
20
-283.286
11
388.384
21
-283.214
0
LINE
8
BLACK
10
388.384
20
-283.214
11
388.529
21
-283.141
0
LINE
8
BLACK
10
388.529
20
-283.141
11
388.82
21
-283.141
0
LINE
8
BLACK
10
388.82
20
-283.141
11
388.965
21
-283.214
0
LINE
8
BLACK
10
389.69
20
-284.012
11
389.763
21
-284.084
0
LINE
8
BLACK
10
389.763
20
-284.084
11
389.69
21
-284.157
0
LINE
8
BLACK
10
389.69
20
-284.157
11
389.618
21
-284.084
0
LINE
8
BLACK
10
389.618
20
-284.084
11
389.69
21
-284.012
0
LINE
8
BLACK
10
389.69
20
-284.012
11
389.69
21
-284.157
0
LINE
8
BLACK
10
389.69
20
-283.214
11
389.763
21
-283.286
0
LINE
8
BLACK
10
389.763
20
-283.286
11
389.69
21
-283.359
0
LINE
8
BLACK
10
389.69
20
-283.359
11
389.618
21
-283.286
0
LINE
8
BLACK
10
389.618
20
-283.286
11
389.69
21
-283.214
0
LINE
8
BLACK
10
389.69
20
-283.214
11
389.69
21
-283.359
0
LINE
8
BLACK
10
392.376
20
-284.157
11
391.505
21
-284.157
0
LINE
8
BLACK
10
391.94
20
-284.157
11
391.94
21
-282.633
0
LINE
8
BLACK
10
391.94
20
-282.633
11
391.795
21
-282.851
0
LINE
8
BLACK
10
391.795
20
-282.851
11
391.65
21
-282.996
0
LINE
8
BLACK
10
391.65
20
-282.996
11
391.505
21
-283.068
0
LINE
8
BLACK
10
394.117
20
-282.56
11
392.811
21
-284.52
0
LINE
8
BLACK
10
395.424
20
-284.157
11
394.553
21
-284.157
0
LINE
8
BLACK
10
394.988
20
-284.157
11
394.988
21
-282.633
0
LINE
8
BLACK
10
394.988
20
-282.633
11
394.843
21
-282.851
0
LINE
8
BLACK
10
394.843
20
-282.851
11
394.698
21
-282.996
0
LINE
8
BLACK
10
394.698
20
-282.996
11
394.553
21
-283.068
0
LINE
8
BLACK
10
303.249
20
-276.537
11
304.12
21
-276.537
0
LINE
8
BLACK
10
303.494
20
-278.061
11
303.684
21
-276.537
0
LINE
8
BLACK
10
304.437
20
-278.061
11
304.564
21
-277.045
0
LINE
8
BLACK
10
304.628
20
-276.537
11
304.546
21
-276.61
0
LINE
8
BLACK
10
304.546
20
-276.61
11
304.609
21
-276.682
0
LINE
8
BLACK
10
304.609
20
-276.682
11
304.691
21
-276.61
0
LINE
8
BLACK
10
304.691
20
-276.61
11
304.628
21
-276.537
0
LINE
8
BLACK
10
304.628
20
-276.537
11
304.609
21
-276.682
0
LINE
8
BLACK
10
305.072
20
-277.045
11
305.653
21
-277.045
0
LINE
8
BLACK
10
305.353
20
-276.537
11
305.19
21
-277.843
0
LINE
8
BLACK
10
305.19
20
-277.843
11
305.244
21
-277.988
0
LINE
8
BLACK
10
305.244
20
-277.988
11
305.381
21
-278.061
0
LINE
8
BLACK
10
305.381
20
-278.061
11
305.526
21
-278.061
0
LINE
8
BLACK
10
306.251
20
-278.061
11
306.115
21
-277.988
0
LINE
8
BLACK
10
306.115
20
-277.988
11
306.061
21
-277.843
0
LINE
8
BLACK
10
306.061
20
-277.843
11
306.224
21
-276.537
0
LINE
8
BLACK
10
307.422
20
-277.988
11
307.267
21
-278.061
0
LINE
8
BLACK
10
307.267
20
-278.061
11
306.977
21
-278.061
0
LINE
8
BLACK
10
306.977
20
-278.061
11
306.841
21
-277.988
0
LINE
8
BLACK
10
306.841
20
-277.988
11
306.787
21
-277.843
0
LINE
8
BLACK
10
306.787
20
-277.843
11
306.859
21
-277.263
0
LINE
8
BLACK
10
306.859
20
-277.263
11
306.95
21
-277.118
0
LINE
8
BLACK
10
306.95
20
-277.118
11
307.104
21
-277.045
0
LINE
8
BLACK
10
307.104
20
-277.045
11
307.394
21
-277.045
0
LINE
8
BLACK
10
307.394
20
-277.045
11
307.53
21
-277.118
0
LINE
8
BLACK
10
307.53
20
-277.118
11
307.585
21
-277.263
0
LINE
8
BLACK
10
307.585
20
-277.263
11
307.567
21
-277.408
0
LINE
8
BLACK
10
307.567
20
-277.408
11
306.823
21
-277.553
0
LINE
8
BLACK
10
308.156
20
-277.916
11
308.22
21
-277.988
0
LINE
8
BLACK
10
308.22
20
-277.988
11
308.138
21
-278.061
0
LINE
8
BLACK
10
308.138
20
-278.061
11
308.075
21
-277.988
0
LINE
8
BLACK
10
308.075
20
-277.988
11
308.156
21
-277.916
0
LINE
8
BLACK
10
308.156
20
-277.916
11
308.138
21
-278.061
0
LINE
8
BLACK
10
308.256
20
-277.118
11
308.32
21
-277.19
0
LINE
8
BLACK
10
308.32
20
-277.19
11
308.238
21
-277.263
0
LINE
8
BLACK
10
308.238
20
-277.263
11
308.175
21
-277.19
0
LINE
8
BLACK
10
308.175
20
-277.19
11
308.256
21
-277.118
0
LINE
8
BLACK
10
308.256
20
-277.118
11
308.238
21
-277.263
0
LINE
8
BLACK
10
303.766
20
-271.167
11
303.258
21
-271.167
0
LINE
8
BLACK
10
303.258
20
-271.965
11
303.258
21
-270.441
0
LINE
8
BLACK
10
303.258
20
-270.441
11
303.984
21
-270.441
0
LINE
8
BLACK
10
304.564
20
-271.965
11
304.564
21
-270.949
0
LINE
8
BLACK
10
304.564
20
-270.441
11
304.492
21
-270.514
0
LINE
8
BLACK
10
304.492
20
-270.514
11
304.564
21
-270.586
0
LINE
8
BLACK
10
304.564
20
-270.586
11
304.637
21
-270.514
0
LINE
8
BLACK
10
304.637
20
-270.514
11
304.564
21
-270.441
0
LINE
8
BLACK
10
304.564
20
-270.441
11
304.564
21
-270.586
0
LINE
8
BLACK
10
305.508
20
-271.965
11
305.362
21
-271.892
0
LINE
8
BLACK
10
305.362
20
-271.892
11
305.29
21
-271.747
0
LINE
8
BLACK
10
305.29
20
-271.747
11
305.29
21
-270.441
0
LINE
8
BLACK
10
306.669
20
-271.892
11
306.524
21
-271.965
0
LINE
8
BLACK
10
306.524
20
-271.965
11
306.233
21
-271.965
0
LINE
8
BLACK
10
306.233
20
-271.965
11
306.088
21
-271.892
0
LINE
8
BLACK
10
306.088
20
-271.892
11
306.016
21
-271.747
0
LINE
8
BLACK
10
306.016
20
-271.747
11
306.016
21
-271.167
0
LINE
8
BLACK
10
306.016
20
-271.167
11
306.088
21
-271.022
0
LINE
8
BLACK
10
306.088
20
-271.022
11
306.233
21
-270.949
0
LINE
8
BLACK
10
306.233
20
-270.949
11
306.524
21
-270.949
0
LINE
8
BLACK
10
306.524
20
-270.949
11
306.669
21
-271.022
0
LINE
8
BLACK
10
306.669
20
-271.022
11
306.741
21
-271.167
0
LINE
8
BLACK
10
306.741
20
-271.167
11
306.741
21
-271.312
0
LINE
8
BLACK
10
306.741
20
-271.312
11
306.016
21
-271.457
0
LINE
8
BLACK
10
307.394
20
-271.82
11
307.467
21
-271.892
0
LINE
8
BLACK
10
307.467
20
-271.892
11
307.394
21
-271.965
0
LINE
8
BLACK
10
307.394
20
-271.965
11
307.322
21
-271.892
0
LINE
8
BLACK
10
307.322
20
-271.892
11
307.394
21
-271.82
0
LINE
8
BLACK
10
307.394
20
-271.82
11
307.394
21
-271.965
0
LINE
8
BLACK
10
307.394
20
-271.022
11
307.467
21
-271.094
0
LINE
8
BLACK
10
307.467
20
-271.094
11
307.394
21
-271.167
0
LINE
8
BLACK
10
307.394
20
-271.167
11
307.322
21
-271.094
0
LINE
8
BLACK
10
307.322
20
-271.094
11
307.394
21
-271.022
0
LINE
8
BLACK
10
307.394
20
-271.022
11
307.394
21
-271.167
0
LINE
8
BLACK
10
310.007
20
-271.965
11
309.281
21
-271.965
0
LINE
8
BLACK
10
309.281
20
-271.965
11
309.281
21
-270.441
0
LINE
8
BLACK
10
311.168
20
-271.892
11
311.023
21
-271.965
0
LINE
8
BLACK
10
311.023
20
-271.965
11
310.733
21
-271.965
0
LINE
8
BLACK
10
310.733
20
-271.965
11
310.588
21
-271.892
0
LINE
8
BLACK
10
310.588
20
-271.892
11
310.515
21
-271.82
0
LINE
8
BLACK
10
310.515
20
-271.82
11
310.442
21
-271.675
0
LINE
8
BLACK
10
310.442
20
-271.675
11
310.442
21
-271.239
0
LINE
8
BLACK
10
310.442
20
-271.239
11
310.515
21
-271.094
0
LINE
8
BLACK
10
310.515
20
-271.094
11
310.588
21
-271.022
0
LINE
8
BLACK
10
310.588
20
-271.022
11
310.733
21
-270.949
0
LINE
8
BLACK
10
310.733
20
-270.949
11
311.023
21
-270.949
0
LINE
8
BLACK
10
311.023
20
-270.949
11
311.168
21
-271.022
0
LINE
8
BLACK
10
312.474
20
-271.965
11
312.474
21
-270.441
0
LINE
8
BLACK
10
312.474
20
-271.892
11
312.329
21
-271.965
0
LINE
8
BLACK
10
312.329
20
-271.965
11
312.039
21
-271.965
0
LINE
8
BLACK
10
312.039
20
-271.965
11
311.894
21
-271.892
0
LINE
8
BLACK
10
311.894
20
-271.892
11
311.821
21
-271.82
0
LINE
8
BLACK
10
311.821
20
-271.82
11
311.749
21
-271.675
0
LINE
8
BLACK
10
311.749
20
-271.675
11
311.749
21
-271.239
0
LINE
8
BLACK
10
311.749
20
-271.239
11
311.821
21
-271.094
0
LINE
8
BLACK
10
311.821
20
-271.094
11
311.894
21
-271.022
0
LINE
8
BLACK
10
311.894
20
-271.022
11
312.039
21
-270.949
0
LINE
8
BLACK
10
312.039
20
-270.949
11
312.329
21
-270.949
0
LINE
8
BLACK
10
312.329
20
-270.949
11
312.474
21
-271.022
0
LINE
8
BLACK
10
314.869
20
-271.167
11
315.087
21
-271.239
0
LINE
8
BLACK
10
315.087
20
-271.239
11
315.16
21
-271.312
0
LINE
8
BLACK
10
315.16
20
-271.312
11
315.232
21
-271.457
0
LINE
8
BLACK
10
315.232
20
-271.457
11
315.232
21
-271.675
0
LINE
8
BLACK
10
315.232
20
-271.675
11
315.16
21
-271.82
0
LINE
8
BLACK
10
315.16
20
-271.82
11
315.087
21
-271.892
0
LINE
8
BLACK
10
315.087
20
-271.892
11
314.942
21
-271.965
0
LINE
8
BLACK
10
314.942
20
-271.965
11
314.361
21
-271.965
0
LINE
8
BLACK
10
314.361
20
-271.965
11
314.361
21
-270.441
0
LINE
8
BLACK
10
314.361
20
-270.441
11
314.869
21
-270.441
0
LINE
8
BLACK
10
314.869
20
-270.441
11
315.014
21
-270.514
0
LINE
8
BLACK
10
315.014
20
-270.514
11
315.087
21
-270.586
0
LINE
8
BLACK
10
315.087
20
-270.586
11
315.16
21
-270.731
0
LINE
8
BLACK
10
315.16
20
-270.731
11
315.16
21
-270.876
0
LINE
8
BLACK
10
315.16
20
-270.876
11
315.087
21
-271.022
0
LINE
8
BLACK
10
315.087
20
-271.022
11
315.014
21
-271.094
0
LINE
8
BLACK
10
315.014
20
-271.094
11
314.869
21
-271.167
0
LINE
8
BLACK
10
314.869
20
-271.167
11
314.361
21
-271.167
0
LINE
8
BLACK
10
316.103
20
-271.965
11
315.958
21
-271.892
0
LINE
8
BLACK
10
315.958
20
-271.892
11
315.885
21
-271.82
0
LINE
8
BLACK
10
315.885
20
-271.82
11
315.813
21
-271.675
0
LINE
8
BLACK
10
315.813
20
-271.675
11
315.813
21
-271.239
0
LINE
8
BLACK
10
315.813
20
-271.239
11
315.885
21
-271.094
0
LINE
8
BLACK
10
315.885
20
-271.094
11
315.958
21
-271.022
0
LINE
8
BLACK
10
315.958
20
-271.022
11
316.103
21
-270.949
0
LINE
8
BLACK
10
316.103
20
-270.949
11
316.321
21
-270.949
0
LINE
8
BLACK
10
316.321
20
-270.949
11
316.466
21
-271.022
0
LINE
8
BLACK
10
316.466
20
-271.022
11
316.538
21
-271.094
0
LINE
8
BLACK
10
316.538
20
-271.094
11
316.611
21
-271.239
0
LINE
8
BLACK
10
316.611
20
-271.239
11
316.611
21
-271.675
0
LINE
8
BLACK
10
316.611
20
-271.675
11
316.538
21
-271.82
0
LINE
8
BLACK
10
316.538
20
-271.82
11
316.466
21
-271.892
0
LINE
8
BLACK
10
316.466
20
-271.892
11
316.321
21
-271.965
0
LINE
8
BLACK
10
316.321
20
-271.965
11
316.103
21
-271.965
0
LINE
8
BLACK
10
317.482
20
-271.965
11
317.337
21
-271.892
0
LINE
8
BLACK
10
317.337
20
-271.892
11
317.264
21
-271.82
0
LINE
8
BLACK
10
317.264
20
-271.82
11
317.192
21
-271.675
0
LINE
8
BLACK
10
317.192
20
-271.675
11
317.192
21
-271.239
0
LINE
8
BLACK
10
317.192
20
-271.239
11
317.264
21
-271.094
0
LINE
8
BLACK
10
317.264
20
-271.094
11
317.337
21
-271.022
0
LINE
8
BLACK
10
317.337
20
-271.022
11
317.482
21
-270.949
0
LINE
8
BLACK
10
317.482
20
-270.949
11
317.7
21
-270.949
0
LINE
8
BLACK
10
317.7
20
-270.949
11
317.845
21
-271.022
0
LINE
8
BLACK
10
317.845
20
-271.022
11
317.917
21
-271.094
0
LINE
8
BLACK
10
317.917
20
-271.094
11
317.99
21
-271.239
0
LINE
8
BLACK
10
317.99
20
-271.239
11
317.99
21
-271.675
0
LINE
8
BLACK
10
317.99
20
-271.675
11
317.917
21
-271.82
0
LINE
8
BLACK
10
317.917
20
-271.82
11
317.845
21
-271.892
0
LINE
8
BLACK
10
317.845
20
-271.892
11
317.7
21
-271.965
0
LINE
8
BLACK
10
317.7
20
-271.965
11
317.482
21
-271.965
0
LINE
8
BLACK
10
318.57
20
-271.892
11
318.716
21
-271.965
0
LINE
8
BLACK
10
318.716
20
-271.965
11
319.006
21
-271.965
0
LINE
8
BLACK
10
319.006
20
-271.965
11
319.151
21
-271.892
0
LINE
8
BLACK
10
319.151
20
-271.892
11
319.224
21
-271.747
0
LINE
8
BLACK
10
319.224
20
-271.747
11
319.224
21
-271.675
0
LINE
8
BLACK
10
319.224
20
-271.675
11
319.151
21
-271.53
0
LINE
8
BLACK
10
319.151
20
-271.53
11
319.006
21
-271.457
0
LINE
8
BLACK
10
319.006
20
-271.457
11
318.788
21
-271.457
0
LINE
8
BLACK
10
318.788
20
-271.457
11
318.643
21
-271.384
0
LINE
8
BLACK
10
318.643
20
-271.384
11
318.57
21
-271.239
0
LINE
8
BLACK
10
318.57
20
-271.239
11
318.57
21
-271.167
0
LINE
8
BLACK
10
318.57
20
-271.167
11
318.643
21
-271.022
0
LINE
8
BLACK
10
318.643
20
-271.022
11
318.788
21
-270.949
0
LINE
8
BLACK
10
318.788
20
-270.949
11
319.006
21
-270.949
0
LINE
8
BLACK
10
319.006
20
-270.949
11
319.151
21
-271.022
0
LINE
8
BLACK
10
319.659
20
-270.949
11
320.24
21
-270.949
0
LINE
8
BLACK
10
319.877
20
-270.441
11
319.877
21
-271.747
0
LINE
8
BLACK
10
319.877
20
-271.747
11
319.949
21
-271.892
0
LINE
8
BLACK
10
319.949
20
-271.892
11
320.094
21
-271.965
0
LINE
8
BLACK
10
320.094
20
-271.965
11
320.24
21
-271.965
0
LINE
8
BLACK
10
321.328
20
-271.892
11
321.183
21
-271.965
0
LINE
8
BLACK
10
321.183
20
-271.965
11
320.893
21
-271.965
0
LINE
8
BLACK
10
320.893
20
-271.965
11
320.748
21
-271.892
0
LINE
8
BLACK
10
320.748
20
-271.892
11
320.675
21
-271.747
0
LINE
8
BLACK
10
320.675
20
-271.747
11
320.675
21
-271.167
0
LINE
8
BLACK
10
320.675
20
-271.167
11
320.748
21
-271.022
0
LINE
8
BLACK
10
320.748
20
-271.022
11
320.893
21
-270.949
0
LINE
8
BLACK
10
320.893
20
-270.949
11
321.183
21
-270.949
0
LINE
8
BLACK
10
321.183
20
-270.949
11
321.328
21
-271.022
0
LINE
8
BLACK
10
321.328
20
-271.022
11
321.401
21
-271.167
0
LINE
8
BLACK
10
321.401
20
-271.167
11
321.401
21
-271.312
0
LINE
8
BLACK
10
321.401
20
-271.312
11
320.675
21
-271.457
0
LINE
8
BLACK
10
322.054
20
-271.965
11
322.054
21
-270.949
0
LINE
8
BLACK
10
322.054
20
-271.239
11
322.126
21
-271.094
0
LINE
8
BLACK
10
322.126
20
-271.094
11
322.199
21
-271.022
0
LINE
8
BLACK
10
322.199
20
-271.022
11
322.344
21
-270.949
0
LINE
8
BLACK
10
322.344
20
-270.949
11
322.489
21
-270.949
0
LINE
8
BLACK
10
322.852
20
-270.441
11
323.796
21
-270.441
0
LINE
8
BLACK
10
323.796
20
-270.441
11
323.288
21
-271.022
0
LINE
8
BLACK
10
323.288
20
-271.022
11
323.505
21
-271.022
0
LINE
8
BLACK
10
323.505
20
-271.022
11
323.65
21
-271.094
0
LINE
8
BLACK
10
323.65
20
-271.094
11
323.723
21
-271.167
0
LINE
8
BLACK
10
323.723
20
-271.167
11
323.796
21
-271.312
0
LINE
8
BLACK
10
323.796
20
-271.312
11
323.796
21
-271.675
0
LINE
8
BLACK
10
323.796
20
-271.675
11
323.723
21
-271.82
0
LINE
8
BLACK
10
323.723
20
-271.82
11
323.65
21
-271.892
0
LINE
8
BLACK
10
323.65
20
-271.892
11
323.505
21
-271.965
0
LINE
8
BLACK
10
323.505
20
-271.965
11
323.07
21
-271.965
0
LINE
8
BLACK
10
323.07
20
-271.965
11
322.925
21
-271.892
0
LINE
8
BLACK
10
322.925
20
-271.892
11
322.852
21
-271.82
0
LINE
8
BLACK
10
324.449
20
-271.82
11
324.521
21
-271.892
0
LINE
8
BLACK
10
324.521
20
-271.892
11
324.449
21
-271.965
0
LINE
8
BLACK
10
324.449
20
-271.965
11
324.376
21
-271.892
0
LINE
8
BLACK
10
324.376
20
-271.892
11
324.449
21
-271.82
0
LINE
8
BLACK
10
324.449
20
-271.82
11
324.449
21
-271.965
0
LINE
8
BLACK
10
325.174
20
-271.965
11
325.174
21
-270.441
0
LINE
8
BLACK
10
325.32
20
-271.384
11
325.755
21
-271.965
0
LINE
8
BLACK
10
325.755
20
-270.949
11
325.174
21
-271.53
0
LINE
8
BLACK
10
326.408
20
-271.965
11
326.408
21
-270.949
0
LINE
8
BLACK
10
326.408
20
-270.441
11
326.336
21
-270.514
0
LINE
8
BLACK
10
326.336
20
-270.514
11
326.408
21
-270.586
0
LINE
8
BLACK
10
326.408
20
-270.586
11
326.481
21
-270.514
0
LINE
8
BLACK
10
326.481
20
-270.514
11
326.408
21
-270.441
0
LINE
8
BLACK
10
326.408
20
-270.441
11
326.408
21
-270.586
0
LINE
8
BLACK
10
327.787
20
-271.892
11
327.642
21
-271.965
0
LINE
8
BLACK
10
327.642
20
-271.965
11
327.352
21
-271.965
0
LINE
8
BLACK
10
327.352
20
-271.965
11
327.206
21
-271.892
0
LINE
8
BLACK
10
327.206
20
-271.892
11
327.134
21
-271.82
0
LINE
8
BLACK
10
327.134
20
-271.82
11
327.061
21
-271.675
0
LINE
8
BLACK
10
327.061
20
-271.675
11
327.061
21
-271.239
0
LINE
8
BLACK
10
327.061
20
-271.239
11
327.134
21
-271.094
0
LINE
8
BLACK
10
327.134
20
-271.094
11
327.206
21
-271.022
0
LINE
8
BLACK
10
327.206
20
-271.022
11
327.352
21
-270.949
0
LINE
8
BLACK
10
327.352
20
-270.949
11
327.642
21
-270.949
0
LINE
8
BLACK
10
327.642
20
-270.949
11
327.787
21
-271.022
0
LINE
8
BLACK
10
329.093
20
-271.965
11
329.093
21
-271.167
0
LINE
8
BLACK
10
329.093
20
-271.167
11
329.021
21
-271.022
0
LINE
8
BLACK
10
329.021
20
-271.022
11
328.876
21
-270.949
0
LINE
8
BLACK
10
328.876
20
-270.949
11
328.585
21
-270.949
0
LINE
8
BLACK
10
328.585
20
-270.949
11
328.44
21
-271.022
0
LINE
8
BLACK
10
329.093
20
-271.892
11
328.948
21
-271.965
0
LINE
8
BLACK
10
328.948
20
-271.965
11
328.585
21
-271.965
0
LINE
8
BLACK
10
328.585
20
-271.965
11
328.44
21
-271.892
0
LINE
8
BLACK
10
328.44
20
-271.892
11
328.368
21
-271.747
0
LINE
8
BLACK
10
328.368
20
-271.747
11
328.368
21
-271.602
0
LINE
8
BLACK
10
328.368
20
-271.602
11
328.44
21
-271.457
0
LINE
8
BLACK
10
328.44
20
-271.457
11
328.585
21
-271.384
0
LINE
8
BLACK
10
328.585
20
-271.384
11
328.948
21
-271.384
0
LINE
8
BLACK
10
328.948
20
-271.384
11
329.093
21
-271.312
0
LINE
8
BLACK
10
330.472
20
-271.965
11
330.472
21
-270.441
0
LINE
8
BLACK
10
330.472
20
-271.892
11
330.327
21
-271.965
0
LINE
8
BLACK
10
330.327
20
-271.965
11
330.037
21
-271.965
0
LINE
8
BLACK
10
330.037
20
-271.965
11
329.892
21
-271.892
0
LINE
8
BLACK
10
329.892
20
-271.892
11
329.819
21
-271.82
0
LINE
8
BLACK
10
329.819
20
-271.82
11
329.746
21
-271.675
0
LINE
8
BLACK
10
329.746
20
-271.675
11
329.746
21
-271.239
0
LINE
8
BLACK
10
329.746
20
-271.239
11
329.819
21
-271.094
0
LINE
8
BLACK
10
329.819
20
-271.094
11
329.892
21
-271.022
0
LINE
8
BLACK
10
329.892
20
-271.022
11
330.037
21
-270.949
0
LINE
8
BLACK
10
330.037
20
-270.949
11
330.327
21
-270.949
0
LINE
8
BLACK
10
330.327
20
-270.949
11
330.472
21
-271.022
0
LINE
8
BLACK
10
330.835
20
-272.11
11
331.996
21
-272.11
0
LINE
8
BLACK
10
332.359
20
-270.949
11
332.359
21
-272.473
0
LINE
8
BLACK
10
332.359
20
-271.022
11
332.504
21
-270.949
0
LINE
8
BLACK
10
332.504
20
-270.949
11
332.794
21
-270.949
0
LINE
8
BLACK
10
332.794
20
-270.949
11
332.94
21
-271.022
0
LINE
8
BLACK
10
332.94
20
-271.022
11
333.012
21
-271.094
0
LINE
8
BLACK
10
333.012
20
-271.094
11
333.085
21
-271.239
0
LINE
8
BLACK
10
333.085
20
-271.239
11
333.085
21
-271.675
0
LINE
8
BLACK
10
333.085
20
-271.675
11
333.012
21
-271.82
0
LINE
8
BLACK
10
333.012
20
-271.82
11
332.94
21
-271.892
0
LINE
8
BLACK
10
332.94
20
-271.892
11
332.794
21
-271.965
0
LINE
8
BLACK
10
332.794
20
-271.965
11
332.504
21
-271.965
0
LINE
8
BLACK
10
332.504
20
-271.965
11
332.359
21
-271.892
0
LINE
8
BLACK
10
334.391
20
-271.892
11
334.246
21
-271.965
0
LINE
8
BLACK
10
334.246
20
-271.965
11
333.956
21
-271.965
0
LINE
8
BLACK
10
333.956
20
-271.965
11
333.81
21
-271.892
0
LINE
8
BLACK
10
333.81
20
-271.892
11
333.738
21
-271.82
0
LINE
8
BLACK
10
333.738
20
-271.82
11
333.665
21
-271.675
0
LINE
8
BLACK
10
333.665
20
-271.675
11
333.665
21
-271.239
0
LINE
8
BLACK
10
333.665
20
-271.239
11
333.738
21
-271.094
0
LINE
8
BLACK
10
333.738
20
-271.094
11
333.81
21
-271.022
0
LINE
8
BLACK
10
333.81
20
-271.022
11
333.956
21
-270.949
0
LINE
8
BLACK
10
333.956
20
-270.949
11
334.246
21
-270.949
0
LINE
8
BLACK
10
334.246
20
-270.949
11
334.391
21
-271.022
0
LINE
8
BLACK
10
335.044
20
-271.965
11
335.044
21
-270.441
0
LINE
8
BLACK
10
335.044
20
-271.022
11
335.189
21
-270.949
0
LINE
8
BLACK
10
335.189
20
-270.949
11
335.48
21
-270.949
0
LINE
8
BLACK
10
335.48
20
-270.949
11
335.625
21
-271.022
0
LINE
8
BLACK
10
335.625
20
-271.022
11
335.697
21
-271.094
0
LINE
8
BLACK
10
335.697
20
-271.094
11
335.77
21
-271.239
0
LINE
8
BLACK
10
335.77
20
-271.239
11
335.77
21
-271.675
0
LINE
8
BLACK
10
335.77
20
-271.675
11
335.697
21
-271.82
0
LINE
8
BLACK
10
335.697
20
-271.82
11
335.625
21
-271.892
0
LINE
8
BLACK
10
335.625
20
-271.892
11
335.48
21
-271.965
0
LINE
8
BLACK
10
335.48
20
-271.965
11
335.189
21
-271.965
0
LINE
8
BLACK
10
335.189
20
-271.965
11
335.044
21
-271.892
0
LINE
8
BLACK
10
303.185
20
-274.94
11
303.403
21
-275.013
0
LINE
8
BLACK
10
303.403
20
-275.013
11
303.766
21
-275.013
0
LINE
8
BLACK
10
303.766
20
-275.013
11
303.911
21
-274.94
0
LINE
8
BLACK
10
303.911
20
-274.94
11
303.984
21
-274.868
0
LINE
8
BLACK
10
303.984
20
-274.868
11
304.056
21
-274.723
0
LINE
8
BLACK
10
304.056
20
-274.723
11
304.056
21
-274.578
0
LINE
8
BLACK
10
304.056
20
-274.578
11
303.984
21
-274.432
0
LINE
8
BLACK
10
303.984
20
-274.432
11
303.911
21
-274.36
0
LINE
8
BLACK
10
303.911
20
-274.36
11
303.766
21
-274.287
0
LINE
8
BLACK
10
303.766
20
-274.287
11
303.476
21
-274.215
0
LINE
8
BLACK
10
303.476
20
-274.215
11
303.33
21
-274.142
0
LINE
8
BLACK
10
303.33
20
-274.142
11
303.258
21
-274.07
0
LINE
8
BLACK
10
303.258
20
-274.07
11
303.185
21
-273.924
0
LINE
8
BLACK
10
303.185
20
-273.924
11
303.185
21
-273.779
0
LINE
8
BLACK
10
303.185
20
-273.779
11
303.258
21
-273.634
0
LINE
8
BLACK
10
303.258
20
-273.634
11
303.33
21
-273.562
0
LINE
8
BLACK
10
303.33
20
-273.562
11
303.476
21
-273.489
0
LINE
8
BLACK
10
303.476
20
-273.489
11
303.838
21
-273.489
0
LINE
8
BLACK
10
303.838
20
-273.489
11
304.056
21
-273.562
0
LINE
8
BLACK
10
304.709
20
-275.013
11
304.709
21
-273.489
0
LINE
8
BLACK
10
305.362
20
-275.013
11
305.362
21
-274.215
0
LINE
8
BLACK
10
305.362
20
-274.215
11
305.29
21
-274.07
0
LINE
8
BLACK
10
305.29
20
-274.07
11
305.145
21
-273.997
0
LINE
8
BLACK
10
305.145
20
-273.997
11
304.927
21
-273.997
0
LINE
8
BLACK
10
304.927
20
-273.997
11
304.782
21
-274.07
0
LINE
8
BLACK
10
304.782
20
-274.07
11
304.709
21
-274.142
0
LINE
8
BLACK
10
306.669
20
-274.94
11
306.524
21
-275.013
0
LINE
8
BLACK
10
306.524
20
-275.013
11
306.233
21
-275.013
0
LINE
8
BLACK
10
306.233
20
-275.013
11
306.088
21
-274.94
0
LINE
8
BLACK
10
306.088
20
-274.94
11
306.016
21
-274.795
0
LINE
8
BLACK
10
306.016
20
-274.795
11
306.016
21
-274.215
0
LINE
8
BLACK
10
306.016
20
-274.215
11
306.088
21
-274.07
0
LINE
8
BLACK
10
306.088
20
-274.07
11
306.233
21
-273.997
0
LINE
8
BLACK
10
306.233
20
-273.997
11
306.524
21
-273.997
0
LINE
8
BLACK
10
306.524
20
-273.997
11
306.669
21
-274.07
0
LINE
8
BLACK
10
306.669
20
-274.07
11
306.741
21
-274.215
0
LINE
8
BLACK
10
306.741
20
-274.215
11
306.741
21
-274.36
0
LINE
8
BLACK
10
306.741
20
-274.36
11
306.016
21
-274.505
0
LINE
8
BLACK
10
307.975
20
-274.94
11
307.83
21
-275.013
0
LINE
8
BLACK
10
307.83
20
-275.013
11
307.54
21
-275.013
0
LINE
8
BLACK
10
307.54
20
-275.013
11
307.394
21
-274.94
0
LINE
8
BLACK
10
307.394
20
-274.94
11
307.322
21
-274.795
0
LINE
8
BLACK
10
307.322
20
-274.795
11
307.322
21
-274.215
0
LINE
8
BLACK
10
307.322
20
-274.215
11
307.394
21
-274.07
0
LINE
8
BLACK
10
307.394
20
-274.07
11
307.54
21
-273.997
0
LINE
8
BLACK
10
307.54
20
-273.997
11
307.83
21
-273.997
0
LINE
8
BLACK
10
307.83
20
-273.997
11
307.975
21
-274.07
0
LINE
8
BLACK
10
307.975
20
-274.07
11
308.048
21
-274.215
0
LINE
8
BLACK
10
308.048
20
-274.215
11
308.048
21
-274.36
0
LINE
8
BLACK
10
308.048
20
-274.36
11
307.322
21
-274.505
0
LINE
8
BLACK
10
308.483
20
-273.997
11
309.064
21
-273.997
0
LINE
8
BLACK
10
308.701
20
-273.489
11
308.701
21
-274.795
0
LINE
8
BLACK
10
308.701
20
-274.795
11
308.773
21
-274.94
0
LINE
8
BLACK
10
308.773
20
-274.94
11
308.918
21
-275.013
0
LINE
8
BLACK
10
308.918
20
-275.013
11
309.064
21
-275.013
0
LINE
8
BLACK
10
309.572
20
-274.868
11
309.644
21
-274.94
0
LINE
8
BLACK
10
309.644
20
-274.94
11
309.572
21
-275.013
0
LINE
8
BLACK
10
309.572
20
-275.013
11
309.499
21
-274.94
0
LINE
8
BLACK
10
309.499
20
-274.94
11
309.572
21
-274.868
0
LINE
8
BLACK
10
309.572
20
-274.868
11
309.572
21
-275.013
0
LINE
8
BLACK
10
309.572
20
-274.07
11
309.644
21
-274.142
0
LINE
8
BLACK
10
309.644
20
-274.142
11
309.572
21
-274.215
0
LINE
8
BLACK
10
309.572
20
-274.215
11
309.499
21
-274.142
0
LINE
8
BLACK
10
309.499
20
-274.142
11
309.572
21
-274.07
0
LINE
8
BLACK
10
309.572
20
-274.07
11
309.572
21
-274.215
0
LINE
8
BLACK
10
311.458
20
-274.215
11
311.966
21
-274.215
0
LINE
8
BLACK
10
312.184
20
-275.013
11
311.458
21
-275.013
0
LINE
8
BLACK
10
311.458
20
-275.013
11
311.458
21
-273.489
0
LINE
8
BLACK
10
311.458
20
-273.489
11
312.184
21
-273.489
0
LINE
8
BLACK
10
312.837
20
-275.013
11
312.837
21
-273.997
0
LINE
8
BLACK
10
312.837
20
-274.142
11
312.91
21
-274.07
0
LINE
8
BLACK
10
312.91
20
-274.07
11
313.055
21
-273.997
0
LINE
8
BLACK
10
313.055
20
-273.997
11
313.273
21
-273.997
0
LINE
8
BLACK
10
313.273
20
-273.997
11
313.418
21
-274.07
0
LINE
8
BLACK
10
313.418
20
-274.07
11
313.49
21
-274.215
0
LINE
8
BLACK
10
313.49
20
-274.215
11
313.49
21
-275.013
0
LINE
8
BLACK
10
313.49
20
-274.215
11
313.563
21
-274.07
0
LINE
8
BLACK
10
313.563
20
-274.07
11
313.708
21
-273.997
0
LINE
8
BLACK
10
313.708
20
-273.997
11
313.926
21
-273.997
0
LINE
8
BLACK
10
313.926
20
-273.997
11
314.071
21
-274.07
0
LINE
8
BLACK
10
314.071
20
-274.07
11
314.144
21
-274.215
0
LINE
8
BLACK
10
314.144
20
-274.215
11
314.144
21
-275.013
0
LINE
8
BLACK
10
314.869
20
-273.997
11
314.869
21
-275.521
0
LINE
8
BLACK
10
314.869
20
-274.07
11
315.014
21
-273.997
0
LINE
8
BLACK
10
315.014
20
-273.997
11
315.305
21
-273.997
0
LINE
8
BLACK
10
315.305
20
-273.997
11
315.45
21
-274.07
0
LINE
8
BLACK
10
315.45
20
-274.07
11
315.522
21
-274.142
0
LINE
8
BLACK
10
315.522
20
-274.142
11
315.595
21
-274.287
0
LINE
8
BLACK
10
315.595
20
-274.287
11
315.595
21
-274.723
0
LINE
8
BLACK
10
315.595
20
-274.723
11
315.522
21
-274.868
0
LINE
8
BLACK
10
315.522
20
-274.868
11
315.45
21
-274.94
0
LINE
8
BLACK
10
315.45
20
-274.94
11
315.305
21
-275.013
0
LINE
8
BLACK
10
315.305
20
-275.013
11
315.014
21
-275.013
0
LINE
8
BLACK
10
315.014
20
-275.013
11
314.869
21
-274.94
0
LINE
8
BLACK
10
316.03
20
-273.997
11
316.611
21
-273.997
0
LINE
8
BLACK
10
316.248
20
-273.489
11
316.248
21
-274.795
0
LINE
8
BLACK
10
316.248
20
-274.795
11
316.321
21
-274.94
0
LINE
8
BLACK
10
316.321
20
-274.94
11
316.466
21
-275.013
0
LINE
8
BLACK
10
316.466
20
-275.013
11
316.611
21
-275.013
0
LINE
8
BLACK
10
316.974
20
-273.997
11
317.337
21
-275.013
0
LINE
8
BLACK
10
317.7
20
-273.997
11
317.337
21
-275.013
0
LINE
8
BLACK
10
317.337
20
-275.013
11
317.192
21
-275.376
0
LINE
8
BLACK
10
317.192
20
-275.376
11
317.119
21
-275.448
0
LINE
8
BLACK
10
317.119
20
-275.448
11
316.974
21
-275.521
0
LINE
8
BLACK
10
319.441
20
-275.013
11
319.441
21
-273.489
0
LINE
8
BLACK
10
319.441
20
-273.489
11
319.804
21
-273.489
0
LINE
8
BLACK
10
319.804
20
-273.489
11
320.022
21
-273.562
0
LINE
8
BLACK
10
320.022
20
-273.562
11
320.167
21
-273.707
0
LINE
8
BLACK
10
320.167
20
-273.707
11
320.24
21
-273.852
0
LINE
8
BLACK
10
320.24
20
-273.852
11
320.312
21
-274.142
0
LINE
8
BLACK
10
320.312
20
-274.142
11
320.312
21
-274.36
0
LINE
8
BLACK
10
320.312
20
-274.36
11
320.24
21
-274.65
0
LINE
8
BLACK
10
320.24
20
-274.65
11
320.167
21
-274.795
0
LINE
8
BLACK
10
320.167
20
-274.795
11
320.022
21
-274.94
0
LINE
8
BLACK
10
320.022
20
-274.94
11
319.804
21
-275.013
0
LINE
8
BLACK
10
319.804
20
-275.013
11
319.441
21
-275.013
0
LINE
8
BLACK
10
320.82
20
-273.489
11
321.836
21
-275.013
0
LINE
8
BLACK
10
321.836
20
-273.489
11
320.82
21
-275.013
0
LINE
8
BLACK
10
322.925
20
-274.215
11
322.417
21
-274.215
0
LINE
8
BLACK
10
322.417
20
-275.013
11
322.417
21
-273.489
0
LINE
8
BLACK
10
322.417
20
-273.489
11
323.142
21
-273.489
0
LINE
8
BLACK
10
324.884
20
-273.997
11
324.884
21
-275.521
0
LINE
8
BLACK
10
324.884
20
-274.07
11
325.029
21
-273.997
0
LINE
8
BLACK
10
325.029
20
-273.997
11
325.32
21
-273.997
0
LINE
8
BLACK
10
325.32
20
-273.997
11
325.465
21
-274.07
0
LINE
8
BLACK
10
325.465
20
-274.07
11
325.537
21
-274.142
0
LINE
8
BLACK
10
325.537
20
-274.142
11
325.61
21
-274.287
0
LINE
8
BLACK
10
325.61
20
-274.287
11
325.61
21
-274.723
0
LINE
8
BLACK
10
325.61
20
-274.723
11
325.537
21
-274.868
0
LINE
8
BLACK
10
325.537
20
-274.868
11
325.465
21
-274.94
0
LINE
8
BLACK
10
325.465
20
-274.94
11
325.32
21
-275.013
0
LINE
8
BLACK
10
325.32
20
-275.013
11
325.029
21
-275.013
0
LINE
8
BLACK
10
325.029
20
-275.013
11
324.884
21
-274.94
0
LINE
8
BLACK
10
326.481
20
-275.013
11
326.336
21
-274.94
0
LINE
8
BLACK
10
326.336
20
-274.94
11
326.263
21
-274.795
0
LINE
8
BLACK
10
326.263
20
-274.795
11
326.263
21
-273.489
0
LINE
8
BLACK
10
327.279
20
-275.013
11
327.134
21
-274.94
0
LINE
8
BLACK
10
327.134
20
-274.94
11
327.061
21
-274.868
0
LINE
8
BLACK
10
327.061
20
-274.868
11
326.989
21
-274.723
0
LINE
8
BLACK
10
326.989
20
-274.723
11
326.989
21
-274.287
0
LINE
8
BLACK
10
326.989
20
-274.287
11
327.061
21
-274.142
0
LINE
8
BLACK
10
327.061
20
-274.142
11
327.134
21
-274.07
0
LINE
8
BLACK
10
327.134
20
-274.07
11
327.279
21
-273.997
0
LINE
8
BLACK
10
327.279
20
-273.997
11
327.497
21
-273.997
0
LINE
8
BLACK
10
327.497
20
-273.997
11
327.642
21
-274.07
0
LINE
8
BLACK
10
327.642
20
-274.07
11
327.714
21
-274.142
0
LINE
8
BLACK
10
327.714
20
-274.142
11
327.787
21
-274.287
0
LINE
8
BLACK
10
327.787
20
-274.287
11
327.787
21
-274.723
0
LINE
8
BLACK
10
327.787
20
-274.723
11
327.714
21
-274.868
0
LINE
8
BLACK
10
327.714
20
-274.868
11
327.642
21
-274.94
0
LINE
8
BLACK
10
327.642
20
-274.94
11
327.497
21
-275.013
0
LINE
8
BLACK
10
327.497
20
-275.013
11
327.279
21
-275.013
0
LINE
8
BLACK
10
328.222
20
-273.997
11
328.803
21
-273.997
0
LINE
8
BLACK
10
328.44
20
-273.489
11
328.44
21
-274.795
0
LINE
8
BLACK
10
328.44
20
-274.795
11
328.513
21
-274.94
0
LINE
8
BLACK
10
328.513
20
-274.94
11
328.658
21
-275.013
0
LINE
8
BLACK
10
328.658
20
-275.013
11
328.803
21
-275.013
0
LINE
8
BLACK
10
301.371
20
-269.824
11
301.371
21
-285.064
0
LINE
8
BLACK
10
301.371
20
-269.824
11
408.051
21
-269.824
0
LINE
8
BLACK
10
301.371
20
-269.824
11
408.051
21
-269.824
0
LINE
8
BLACK
10
301.371
20
-275.92
11
408.051
21
-275.92
0
LINE
8
BLACK
10
385.699
20
-278.968
11
385.699
21
-285.064
0
LINE
8
BLACK
10
301.371
20
-282.016
11
408.051
21
-282.016
0
LINE
8
BLACK
10
301.371
20
-278.968
11
408.051
21
-278.968
0
LINE
8
BLACK
10
318.135
20
-278.968
11
318.135
21
-282.016
  0
ENDSEC
  0
EOF
