<?xml version="1.0" standalone="no"?>
 <!DOCTYPE svg PUBLIC "-//W3C//DTD SVG 1.1//EN" 
 "http://www.w3.org/Graphics/SVG/1.1/DTD/svg11.dtd"> 
<svg xmlns="http://www.w3.org/2000/svg" version="1.1" 
    width="41.9989cm" height="29.7002cm" viewBox="0 0 165350 116930 ">
<title>SVG Picture created as Lcd Booster3-Layout.svg date 2013/01/07 22:52:30 </title>
  <desc>Picture generated by PCBNEW </desc>
<g style="fill:#000000; fill-opacity:1;stroke:#000000; stroke-opacity:1;
stroke-linecap:round; stroke-linejoin:round; "
 transform="translate(0 0) scale(1 1)">
</g>
<g style="fill:#000000; fill-opacity:0.0; 
stroke:#000000; stroke-width:137.795; stroke-opacity:1; 
stroke-linecap:round; stroke-linejoin:round;">
<path d="M4000 4000
L161350 4000
L161350 112930
L4000 112930
L4000 4000
" />
<path d="M4700 4700
L160650 4700
L160650 112230
L4700 112230
L4700 4700
" />
<path d="M26470 4000
L26470 4700
" />
<path d="M15382 4552
L15097 4552
" />
<path d="M15240 4552
L15240 4052
L15192 4123
L15144 4171
L15097 4195
" />
<path d="M26470 112930
L26470 112230
" />
<path d="M15382 112782
L15097 112782
" />
<path d="M15240 112782
L15240 112282
L15192 112353
L15144 112401
L15097 112425
" />
<path d="M48940 4000
L48940 4700
" />
<path d="M37567 4100
L37590 4076
L37638 4052
L37757 4052
L37805 4076
L37829 4100
L37852 4147
L37852 4195
L37829 4266
L37543 4552
L37852 4552
" />
<path d="M48940 112930
L48940 112230
" />
<path d="M37567 112330
L37590 112306
L37638 112282
L37757 112282
L37805 112306
L37829 112330
L37852 112377
L37852 112425
L37829 112496
L37543 112782
L37852 112782
" />
<path d="M71410 4000
L71410 4700
" />
<path d="M60013 4052
L60322 4052
L60156 4242
L60227 4242
L60275 4266
L60299 4290
L60322 4338
L60322 4457
L60299 4504
L60275 4528
L60227 4552
L60084 4552
L60037 4528
L60013 4504
" />
<path d="M71410 112930
L71410 112230
" />
<path d="M60013 112282
L60322 112282
L60156 112472
L60227 112472
L60275 112496
L60299 112520
L60322 112568
L60322 112687
L60299 112734
L60275 112758
L60227 112782
L60084 112782
L60037 112758
L60013 112734
" />
<path d="M93880 4000
L93880 4700
" />
<path d="M82745 4219
L82745 4552
" />
<path d="M82626 4028
L82507 4385
L82816 4385
" />
<path d="M93880 112930
L93880 112230
" />
<path d="M82745 112449
L82745 112782
" />
<path d="M82626 112258
L82507 112615
L82816 112615
" />
<path d="M116350 4000
L116350 4700
" />
<path d="M105239 4052
L105000 4052
L104977 4290
L105000 4266
L105048 4242
L105167 4242
L105215 4266
L105239 4290
L105262 4338
L105262 4457
L105239 4504
L105215 4528
L105167 4552
L105048 4552
L105000 4528
L104977 4504
" />
<path d="M116350 112930
L116350 112230
" />
<path d="M105239 112282
L105000 112282
L104977 112520
L105000 112496
L105048 112472
L105167 112472
L105215 112496
L105239 112520
L105262 112568
L105262 112687
L105239 112734
L105215 112758
L105167 112782
L105048 112782
L105000 112758
L104977 112734
" />
<path d="M138820 4000
L138820 4700
" />
<path d="M127685 4052
L127590 4052
L127542 4076
L127518 4100
L127470 4171
L127447 4266
L127447 4457
L127470 4504
L127494 4528
L127542 4552
L127637 4552
L127685 4528
L127709 4504
L127732 4457
L127732 4338
L127709 4290
L127685 4266
L127637 4242
L127542 4242
L127494 4266
L127470 4290
L127447 4338
" />
<path d="M138820 112930
L138820 112230
" />
<path d="M127685 112282
L127590 112282
L127542 112306
L127518 112330
L127470 112401
L127447 112496
L127447 112687
L127470 112734
L127494 112758
L127542 112782
L127637 112782
L127685 112758
L127709 112734
L127732 112687
L127732 112568
L127709 112520
L127685 112496
L127637 112472
L127542 112472
L127494 112496
L127470 112520
L127447 112568
" />
<path d="M149893 4052
L150226 4052
L150012 4552
" />
<path d="M149893 112282
L150226 112282
L150012 112782
" />
<path d="M4000 25780
L4700 25780
" />
<path d="M4230 14949
L4469 14949
" />
<path d="M4183 15092
L4350 14592
L4516 15092
" />
<path d="M161350 25780
L160650 25780
" />
<path d="M160880 14949
L161119 14949
" />
<path d="M160833 15092
L161000 14592
L161166 15092
" />
<path d="M4000 47560
L4700 47560
" />
<path d="M4385 36610
L4457 36634
L4480 36658
L4504 36705
L4504 36777
L4480 36824
L4457 36848
L4409 36872
L4219 36872
L4219 36372
L4385 36372
L4433 36396
L4457 36420
L4480 36467
L4480 36515
L4457 36562
L4433 36586
L4385 36610
L4219 36610
" />
<path d="M161350 47560
L160650 47560
" />
<path d="M161035 36610
L161107 36634
L161130 36658
L161154 36705
L161154 36777
L161130 36824
L161107 36848
L161059 36872
L160869 36872
L160869 36372
L161035 36372
L161083 36396
L161107 36420
L161130 36467
L161130 36515
L161107 36562
L161083 36586
L161035 36610
L160869 36610
" />
<path d="M4000 69340
L4700 69340
" />
<path d="M4504 58604
L4480 58628
L4409 58652
L4361 58652
L4290 58628
L4242 58580
L4219 58533
L4195 58438
L4195 58366
L4219 58271
L4242 58223
L4290 58176
L4361 58152
L4409 58152
L4480 58176
L4504 58200
" />
<path d="M161350 69340
L160650 69340
" />
<path d="M161154 58604
L161130 58628
L161059 58652
L161011 58652
L160940 58628
L160892 58580
L160869 58533
L160845 58438
L160845 58366
L160869 58271
L160892 58223
L160940 58176
L161011 58152
L161059 58152
L161130 58176
L161154 58200
" />
<path d="M4000 91120
L4700 91120
" />
<path d="M4219 80432
L4219 79932
L4338 79932
L4409 79956
L4457 80003
L4480 80051
L4504 80146
L4504 80218
L4480 80313
L4457 80360
L4409 80408
L4338 80432
L4219 80432
" />
<path d="M161350 91120
L160650 91120
" />
<path d="M160869 80432
L160869 79932
L160988 79932
L161059 79956
L161107 80003
L161130 80051
L161154 80146
L161154 80218
L161130 80313
L161107 80360
L161059 80408
L160988 80432
L160869 80432
" />
<path d="M4242 101950
L4409 101950
" />
<path d="M4480 102212
L4242 102212
L4242 101712
L4480 101712
" />
<path d="M160892 101950
L161059 101950
" />
<path d="M161130 102212
L160892 102212
L160892 101712
L161130 101712
" />
<path d="M127800 110672
L127875 110072
L128017 110072
L128100 110101
L128150 110158
L128171 110215
L128185 110330
L128175 110415
L128132 110530
L128096 110587
L128032 110644
L127942 110672
L127800 110672
" />
<path d="M128657 110672
L128696 110358
L128675 110301
L128621 110272
L128507 110272
L128446 110301
" />
<path d="M128660 110644
L128600 110672
L128457 110672
L128403 110644
L128382 110587
L128389 110530
L128425 110472
L128485 110444
L128628 110444
L128689 110415
" />
<path d="M128907 110272
L129135 110272
" />
<path d="M129017 110072
L128953 110587
L128975 110644
L129028 110672
L129085 110672
" />
<path d="M129517 110644
L129457 110672
L129342 110672
L129289 110644
L129267 110587
L129296 110358
L129332 110301
L129392 110272
L129507 110272
L129560 110301
L129582 110358
L129575 110415
L129282 110472
" />
<path d="M129807 110615
L129832 110644
L129800 110672
L129775 110644
L129807 110615
L129800 110672
" />
<path d="M129846 110301
L129871 110330
L129839 110358
L129814 110330
L129846 110301
L129839 110358
" />
<path d="M119392 111872
L119392 111272
" />
<path d="M119735 111872
L119478 111530
" />
<path d="M119735 111272
L119392 111615
" />
<path d="M119992 111872
L119992 111472
" />
<path d="M119992 111272
L119964 111301
L119992 111330
L120021 111301
L119992 111272
L119992 111330
" />
<path d="M120621 111815
L120592 111844
L120507 111872
L120450 111872
L120364 111844
L120307 111787
L120278 111730
L120250 111615
L120250 111530
L120278 111415
L120307 111358
L120364 111301
L120450 111272
L120507 111272
L120592 111301
L120621 111330
" />
<path d="M121135 111872
L121135 111558
L121107 111501
L121050 111472
L120935 111472
L120878 111501
" />
<path d="M121135 111844
L121078 111872
L120935 111872
L120878 111844
L120850 111787
L120850 111730
L120878 111672
L120935 111644
L121078 111644
L121135 111615
" />
<path d="M121678 111872
L121678 111272
" />
<path d="M121678 111844
L121621 111872
L121507 111872
L121450 111844
L121421 111815
L121392 111758
L121392 111587
L121421 111530
L121450 111501
L121507 111472
L121621 111472
L121678 111501
" />
<path d="M122421 111558
L122621 111558
" />
<path d="M122707 111872
L122421 111872
L122421 111272
L122707 111272
" />
<path d="M122964 111815
L122992 111844
L122964 111872
L122935 111844
L122964 111815
L122964 111872
" />
<path d="M123249 111872
L123249 111272
L123392 111272
L123478 111301
L123535 111358
L123564 111415
L123592 111530
L123592 111615
L123564 111730
L123535 111787
L123478 111844
L123392 111872
L123249 111872
" />
<path d="M123849 111815
L123878 111844
L123849 111872
L123821 111844
L123849 111815
L123849 111872
" />
<path d="M124107 111701
L124392 111701
" />
<path d="M124049 111872
L124249 111272
L124449 111872
" />
<path d="M124649 111815
L124678 111844
L124649 111872
L124621 111844
L124649 111815
L124649 111872
" />
<path d="M152942 110672
L152778 110387
" />
<path d="M152600 110672
L152675 110072
L152903 110072
L152957 110101
L152982 110130
L153003 110187
L152992 110272
L152957 110330
L152925 110358
L152864 110387
L152635 110387
" />
<path d="M153432 110644
L153371 110672
L153257 110672
L153203 110644
L153182 110587
L153210 110358
L153246 110301
L153307 110272
L153421 110272
L153475 110301
L153496 110358
L153489 110415
L153196 110472
" />
<path d="M153707 110272
L153800 110672
L153992 110272
" />
<path d="M154178 110615
L154203 110644
L154171 110672
L154146 110644
L154178 110615
L154171 110672
" />
<path d="M154217 110301
L154242 110330
L154210 110358
L154185 110330
L154217 110301
L154210 110358
" />
<path d="M119364 110644
L119450 110672
L119592 110672
L119650 110644
L119678 110615
L119707 110558
L119707 110501
L119678 110444
L119650 110415
L119592 110387
L119478 110358
L119421 110330
L119392 110301
L119364 110244
L119364 110187
L119392 110130
L119421 110101
L119478 110072
L119621 110072
L119707 110101
" />
<path d="M119964 110672
L119964 110272
" />
<path d="M119964 110072
L119935 110101
L119964 110130
L119992 110101
L119964 110072
L119964 110130
" />
<path d="M120192 110272
L120507 110272
L120192 110672
L120507 110672
" />
<path d="M120964 110644
L120907 110672
L120792 110672
L120735 110644
L120707 110587
L120707 110358
L120735 110301
L120792 110272
L120907 110272
L120964 110301
L120992 110358
L120992 110415
L120707 110472
" />
<path d="M121250 110615
L121278 110644
L121250 110672
L121221 110644
L121250 110615
L121250 110672
" />
<path d="M121250 110301
L121278 110330
L121250 110358
L121221 110330
L121250 110301
L121250 110358
" />
<path d="M121964 110501
L122250 110501
" />
<path d="M121907 110672
L122107 110072
L122307 110672
" />
<path d="M122450 110072
L122821 110072
L122621 110301
L122707 110301
L122764 110330
L122792 110358
L122821 110415
L122821 110558
L122792 110615
L122764 110644
L122707 110672
L122535 110672
L122478 110644
L122450 110615
" />
<path d="M152592 111872
L152592 111272
" />
<path d="M153135 111872
L153135 111272
" />
<path d="M153135 111844
L153078 111872
L152964 111872
L152907 111844
L152878 111815
L152850 111758
L152850 111587
L152878 111530
L152907 111501
L152964 111472
L153078 111472
L153135 111501
" />
<path d="M153421 111815
L153450 111844
L153421 111872
L153392 111844
L153421 111815
L153421 111872
" />
<path d="M153421 111501
L153450 111530
L153421 111558
L153392 111530
L153421 111501
L153421 111558
" />
<path d="M154478 111872
L154135 111872
" />
<path d="M154307 111872
L154307 111272
L154249 111358
L154192 111415
L154135 111444
" />
<path d="M155164 111244
L154650 112015
" />
<path d="M155678 111872
L155335 111872
" />
<path d="M155507 111872
L155507 111272
L155449 111358
L155392 111415
L155335 111444
" />
<path d="M119389 108872
L119732 108872
" />
<path d="M119485 109472
L119560 108872
" />
<path d="M119857 109472
L119907 109072
" />
<path d="M119932 108872
L119900 108901
L119925 108930
L119957 108901
L119932 108872
L119925 108930
" />
<path d="M120107 109072
L120335 109072
" />
<path d="M120217 108872
L120153 109387
L120175 109444
L120228 109472
L120285 109472
" />
<path d="M120571 109472
L120517 109444
L120496 109387
L120560 108872
" />
<path d="M121032 109444
L120971 109472
L120857 109472
L120803 109444
L120782 109387
L120810 109158
L120846 109101
L120907 109072
L121021 109072
L121075 109101
L121096 109158
L121089 109215
L120796 109272
" />
<path d="M121321 109415
L121346 109444
L121314 109472
L121289 109444
L121321 109415
L121314 109472
" />
<path d="M121360 109101
L121385 109130
L121353 109158
L121328 109130
L121360 109101
L121353 109158
" />
<path d="M119592 106758
L119392 106758
" />
<path d="M119392 107072
L119392 106472
L119678 106472
" />
<path d="M119907 107072
L119907 106672
" />
<path d="M119907 106472
L119878 106501
L119907 106530
L119935 106501
L119907 106472
L119907 106530
" />
<path d="M120278 107072
L120221 107044
L120192 106987
L120192 106472
" />
<path d="M120735 107044
L120678 107072
L120564 107072
L120507 107044
L120478 106987
L120478 106758
L120507 106701
L120564 106672
L120678 106672
L120735 106701
L120764 106758
L120764 106815
L120478 106872
" />
<path d="M121021 107015
L121050 107044
L121021 107072
L120992 107044
L121021 107015
L121021 107072
" />
<path d="M121021 106701
L121050 106730
L121021 106758
L120992 106730
L121021 106701
L121021 106758
" />
<path d="M122050 107072
L121764 107072
L121764 106472
" />
<path d="M122507 107044
L122450 107072
L122335 107072
L122278 107044
L122250 107015
L122221 106958
L122221 106787
L122250 106730
L122278 106701
L122335 106672
L122450 106672
L122507 106701
" />
<path d="M123021 107072
L123021 106472
" />
<path d="M123021 107044
L122964 107072
L122850 107072
L122792 107044
L122764 107015
L122735 106958
L122735 106787
L122764 106730
L122792 106701
L122850 106672
L122964 106672
L123021 106701
" />
<path d="M123964 106758
L124050 106787
L124078 106815
L124107 106872
L124107 106958
L124078 107015
L124050 107044
L123992 107072
L123764 107072
L123764 106472
L123964 106472
L124021 106501
L124050 106530
L124078 106587
L124078 106644
L124050 106701
L124021 106730
L123964 106758
L123764 106758
" />
<path d="M124450 107072
L124392 107044
L124364 107015
L124335 106958
L124335 106787
L124364 106730
L124392 106701
L124450 106672
L124535 106672
L124592 106701
L124621 106730
L124650 106787
L124650 106958
L124621 107015
L124592 107044
L124535 107072
L124450 107072
" />
<path d="M124992 107072
L124935 107044
L124907 107015
L124878 106958
L124878 106787
L124907 106730
L124935 106701
L124992 106672
L125078 106672
L125135 106701
L125164 106730
L125192 106787
L125192 106958
L125164 107015
L125135 107044
L125078 107072
L124992 107072
" />
<path d="M125421 107044
L125478 107072
L125592 107072
L125650 107044
L125678 106987
L125678 106958
L125650 106901
L125592 106872
L125507 106872
L125450 106844
L125421 106787
L125421 106758
L125450 106701
L125507 106672
L125592 106672
L125650 106701
" />
<path d="M125850 106672
L126078 106672
" />
<path d="M125935 106472
L125935 106987
L125964 107044
L126021 107072
L126078 107072
" />
<path d="M126507 107044
L126450 107072
L126335 107072
L126278 107044
L126250 106987
L126250 106758
L126278 106701
L126335 106672
L126450 106672
L126507 106701
L126535 106758
L126535 106815
L126250 106872
" />
<path d="M126792 107072
L126792 106672
" />
<path d="M126792 106787
L126821 106730
L126850 106701
L126907 106672
L126964 106672
" />
<path d="M127107 106472
L127478 106472
L127278 106701
L127364 106701
L127421 106730
L127450 106758
L127478 106815
L127478 106958
L127450 107015
L127421 107044
L127364 107072
L127192 107072
L127135 107044
L127107 107015
" />
<path d="M127735 107015
L127764 107044
L127735 107072
L127707 107044
L127735 107015
L127735 107072
" />
<path d="M128021 107072
L128021 106472
" />
<path d="M128078 106844
L128250 107072
" />
<path d="M128250 106672
L128021 106901
" />
<path d="M128507 107072
L128507 106672
" />
<path d="M128507 106472
L128478 106501
L128507 106530
L128535 106501
L128507 106472
L128507 106530
" />
<path d="M129050 107044
L128992 107072
L128878 107072
L128821 107044
L128792 107015
L128764 106958
L128764 106787
L128792 106730
L128821 106701
L128878 106672
L128992 106672
L129050 106701
" />
<path d="M129564 107072
L129564 106758
L129535 106701
L129478 106672
L129364 106672
L129307 106701
" />
<path d="M129564 107044
L129507 107072
L129364 107072
L129307 107044
L129278 106987
L129278 106930
L129307 106872
L129364 106844
L129507 106844
L129564 106815
" />
<path d="M130107 107072
L130107 106472
" />
<path d="M130107 107044
L130050 107072
L129935 107072
L129878 107044
L129850 107015
L129821 106958
L129821 106787
L129850 106730
L129878 106701
L129935 106672
L130050 106672
L130107 106701
" />
<path d="M130250 107130
L130707 107130
" />
<path d="M130850 106672
L130850 107272
" />
<path d="M130850 106701
L130907 106672
L131021 106672
L131078 106701
L131107 106730
L131135 106787
L131135 106958
L131107 107015
L131078 107044
L131021 107072
L130907 107072
L130850 107044
" />
<path d="M131650 107044
L131592 107072
L131478 107072
L131421 107044
L131392 107015
L131364 106958
L131364 106787
L131392 106730
L131421 106701
L131478 106672
L131592 106672
L131650 106701
" />
<path d="M131907 107072
L131907 106472
" />
<path d="M131907 106701
L131964 106672
L132078 106672
L132135 106701
L132164 106730
L132192 106787
L132192 106958
L132164 107015
L132135 107044
L132078 107072
L131964 107072
L131907 107044
" />
<path d="M119364 108244
L119450 108272
L119592 108272
L119650 108244
L119678 108215
L119707 108158
L119707 108101
L119678 108044
L119650 108015
L119592 107987
L119478 107958
L119421 107930
L119392 107901
L119364 107844
L119364 107787
L119392 107730
L119421 107701
L119478 107672
L119621 107672
L119707 107701
" />
<path d="M119964 108272
L119964 107672
" />
<path d="M120221 108272
L120221 107958
L120192 107901
L120135 107872
L120050 107872
L119992 107901
L119964 107930
" />
<path d="M120735 108244
L120678 108272
L120564 108272
L120507 108244
L120478 108187
L120478 107958
L120507 107901
L120564 107872
L120678 107872
L120735 107901
L120764 107958
L120764 108015
L120478 108072
" />
<path d="M121250 108244
L121192 108272
L121078 108272
L121021 108244
L120992 108187
L120992 107958
L121021 107901
L121078 107872
L121192 107872
L121250 107901
L121278 107958
L121278 108015
L120992 108072
" />
<path d="M121450 107872
L121678 107872
" />
<path d="M121535 107672
L121535 108187
L121564 108244
L121621 108272
L121678 108272
" />
<path d="M121878 108215
L121907 108244
L121878 108272
L121850 108244
L121878 108215
L121878 108272
" />
<path d="M121878 107901
L121907 107930
L121878 107958
L121850 107930
L121878 107901
L121878 107958
" />
<path d="M122935 107701
L122878 107672
L122792 107672
L122707 107701
L122650 107758
L122621 107815
L122592 107930
L122592 108015
L122621 108130
L122650 108187
L122707 108244
L122792 108272
L122850 108272
L122935 108244
L122964 108215
L122964 108015
L122850 108015
" />
<path d="M123450 108244
L123392 108272
L123278 108272
L123221 108244
L123192 108187
L123192 107958
L123221 107901
L123278 107872
L123392 107872
L123450 107901
L123478 107958
L123478 108015
L123192 108072
" />
<path d="M123735 107872
L123735 108272
" />
<path d="M123735 107930
L123764 107901
L123821 107872
L123907 107872
L123964 107901
L123992 107958
L123992 108272
" />
<path d="M124507 108244
L124450 108272
L124335 108272
L124278 108244
L124250 108187
L124250 107958
L124278 107901
L124335 107872
L124450 107872
L124507 107901
L124535 107958
L124535 108015
L124250 108072
" />
<path d="M124792 108272
L124792 107872
" />
<path d="M124792 107987
L124821 107930
L124850 107901
L124907 107872
L124964 107872
" />
<path d="M125421 108272
L125421 107958
L125392 107901
L125335 107872
L125221 107872
L125164 107901
" />
<path d="M125421 108244
L125364 108272
L125221 108272
L125164 108244
L125135 108187
L125135 108130
L125164 108072
L125221 108044
L125364 108044
L125421 108015
" />
<path d="M125792 108272
L125735 108244
L125707 108187
L125707 107672
" />
<path d="M126564 108272
L126507 108244
L126478 108187
L126478 107672
" />
<path d="M127050 108272
L127050 107958
L127021 107901
L126964 107872
L126850 107872
L126792 107901
" />
<path d="M127050 108244
L126992 108272
L126850 108272
L126792 108244
L126764 108187
L126764 108130
L126792 108072
L126850 108044
L126992 108044
L127050 108015
" />
<path d="M127278 107872
L127421 108272
" />
<path d="M127564 107872
L127421 108272
L127364 108415
L127335 108444
L127278 108472
" />
<path d="M127878 108272
L127821 108244
L127792 108215
L127764 108158
L127764 107987
L127792 107930
L127821 107901
L127878 107872
L127964 107872
L128021 107901
L128050 107930
L128078 107987
L128078 108158
L128050 108215
L128021 108244
L127964 108272
L127878 108272
" />
<path d="M128592 107872
L128592 108272
" />
<path d="M128335 107872
L128335 108187
L128364 108244
L128421 108272
L128507 108272
L128564 108244
L128592 108215
" />
<path d="M128792 107872
L129021 107872
" />
<path d="M128878 107672
L128878 108187
L128907 108244
L128964 108272
L129021 108272
" />
<path d="M118650 106230
L118650 112230
" />
<path d="M118650 106230
L160650 106230
" />
<path d="M118650 106230
L160650 106230
" />
<path d="M118650 108630
L160650 108630
" />
<path d="M151850 109830
L151850 112230
" />
<path d="M118650 111030
L160650 111030
" />
<path d="M118650 109830
L160650 109830
" />
<path d="M125250 109830
L125250 111030
" />
</g>
<g style="fill:#000000; fill-opacity:0.0; 
stroke:#000000; stroke-width:100; stroke-opacity:1; 
stroke-linecap:round; stroke-linejoin:round;">
<circle cx="97750" cy="43000" r="666.667" /> 
<path d="M96750 43000
L98750 43000
" />
<path d="M97750 42000
L97750 44000
" />
<circle cx="62750" cy="60500" r="666.667" /> 
<path d="M61750 60500
L63750 60500
" />
<path d="M62750 59500
L62750 61500
" />
</g>
<g style="fill:#000000; fill-opacity:0.0; 
stroke:#000000; stroke-width:59; stroke-opacity:1; 
stroke-linecap:round; stroke-linejoin:round;">
<path d="M96500 59250
L64000 59250
" />
<path d="M64000 59250
L64000 44250
" />
<path d="M96500 44250
L96500 59250
" />
<path d="M64000 44250
L96500 44250
" />
</g>
<g style="fill:#000000; fill-opacity:0.0; 
stroke:#000000; stroke-width:120; stroke-opacity:1; 
stroke-linecap:round; stroke-linejoin:round;">
<path d="M79100 45700
L88900 45700
" />
<path d="M88900 41700
L88900 45700
" />
<path d="M88900 41700
L79100 41700
" />
<path d="M83000 44500
L83000 41700
" />
<path d="M79500 44500
L79500 41700
" />
<path d="M79500 44500
L88500 44500
" />
<path d="M88500 41700
L88500 44500
" />
<path d="M85000 41700
L85000 44500
" />
<path d="M79100 45650
L79100 41700
" />
<path d="M81000 44850
L80700 45350
" />
<path d="M80700 45350
L81300 45350
" />
<path d="M81300 45350
L81000 44850
" />
</g>
<g style="fill:#000000; fill-opacity:0.0; 
stroke:#000000; stroke-width:100; stroke-opacity:1; 
stroke-linecap:round; stroke-linejoin:round;">
<circle cx="97750" cy="43000" r="666.667" /> 
<path d="M96750 43000
L98750 43000
" />
<path d="M97750 42000
L97750 44000
" />
<circle cx="62750" cy="60500" r="666.667" /> 
<path d="M61750 60500
L63750 60500
" />
<path d="M62750 59500
L62750 61500
" />
</g>
<g style="fill:#000000; fill-opacity:0.0; 
stroke:#000000; stroke-width:59; stroke-opacity:1; 
stroke-linecap:round; stroke-linejoin:round;">
<path d="M96500 59250
L64000 59250
" />
<path d="M64000 59250
L64000 44250
" />
<path d="M96500 44250
L96500 59250
" />
<path d="M64000 44250
L96500 44250
" />
</g>
<g style="fill:#000000; fill-opacity:0.0; 
stroke:#000000; stroke-width:100; stroke-opacity:1; 
stroke-linecap:round; stroke-linejoin:round;">
<circle cx="97750" cy="43000" r="666.667" /> 
<path d="M96750 43000
L98750 43000
" />
<path d="M97750 42000
L97750 44000
" />
<circle cx="62750" cy="60500" r="666.667" /> 
<path d="M61750 60500
L63750 60500
" />
<path d="M62750 59500
L62750 61500
" />
</g>
<g style="fill:#000000; fill-opacity:0.0; 
stroke:#000000; stroke-width:59; stroke-opacity:1; 
stroke-linecap:round; stroke-linejoin:round;">
<path d="M96500 59250
L64000 59250
" />
<path d="M64000 59250
L64000 44250
" />
<path d="M96500 44250
L96500 59250
" />
<path d="M64000 44250
L96500 44250
" />
</g>
<g style="fill:#000000; fill-opacity:0.0; 
stroke:#000000; stroke-width:137.795; stroke-opacity:1; 
stroke-linecap:round; stroke-linejoin:round;">
<circle cx="97750" cy="43000" r="666.667" /> 
<path d="M96750 43000
L98750 43000
" />
<path d="M97750 42000
L97750 44000
" />
<circle cx="62750" cy="60500" r="666.667" /> 
<path d="M61750 60500
L63750 60500
" />
<path d="M62750 59500
L62750 61500
" />
<path d="M96500 59250
L64000 59250
" />
<path d="M64000 59250
L64000 44250
" />
<path d="M96500 44250
L96500 59250
" />
<path d="M64000 44250
L96500 44250
" />
<polyline fill="none;"
points="90793,47793
91206,47793
91206,48206
90793,48206
90793,47793
" /> 
<circle cx="91000" cy="49000" r="206.102" /> 
<circle cx="91000" cy="50000" r="206.102" /> 
<circle cx="91000" cy="51000" r="206.102" /> 
<circle cx="91000" cy="52000" r="206.102" /> 
<circle cx="91000" cy="53000" r="206.102" /> 
<circle cx="91000" cy="54000" r="206.102" /> 
<circle cx="91000" cy="55000" r="206.102" /> 
<circle cx="91000" cy="56000" r="206.102" /> 
<circle cx="91000" cy="57000" r="206.102" /> 
<polyline fill="none;"
points="89793,47793
90206,47793
90206,48206
89793,48206
89793,47793
" /> 
<circle cx="90000" cy="49000" r="206.102" /> 
<circle cx="90000" cy="50000" r="206.102" /> 
<circle cx="90000" cy="51000" r="206.102" /> 
<circle cx="90000" cy="52000" r="206.102" /> 
<circle cx="90000" cy="53000" r="206.102" /> 
<circle cx="90000" cy="54000" r="206.102" /> 
<circle cx="90000" cy="55000" r="206.102" /> 
<circle cx="90000" cy="56000" r="206.102" /> 
<circle cx="90000" cy="57000" r="206.102" /> 
<polyline fill="none;"
points="73793,47793
74206,47793
74206,48206
73793,48206
73793,47793
" /> 
<circle cx="74000" cy="49000" r="206.102" /> 
<circle cx="74000" cy="50000" r="206.102" /> 
<circle cx="74000" cy="51000" r="206.102" /> 
<circle cx="74000" cy="52000" r="206.102" /> 
<circle cx="74000" cy="53000" r="206.102" /> 
<circle cx="74000" cy="54000" r="206.102" /> 
<circle cx="74000" cy="55000" r="206.102" /> 
<circle cx="74000" cy="56000" r="206.102" /> 
<circle cx="74000" cy="57000" r="206.102" /> 
<polyline fill="none;"
points="72793,47793
73206,47793
73206,48206
72793,48206
72793,47793
" /> 
<circle cx="73000" cy="49000" r="206.102" /> 
<circle cx="73000" cy="50000" r="206.102" /> 
<circle cx="73000" cy="51000" r="206.102" /> 
<circle cx="73000" cy="52000" r="206.102" /> 
<circle cx="73000" cy="53000" r="206.102" /> 
<circle cx="73000" cy="54000" r="206.102" /> 
<circle cx="73000" cy="55000" r="206.102" /> 
<circle cx="73000" cy="56000" r="206.102" /> 
<circle cx="73000" cy="57000" r="206.102" /> 
<polyline fill="none;"
points="92956,45543
92956,45956
92543,45956
92543,45543
92956,45543
" /> 
<circle cx="91750" cy="45750" r="206.102" /> 
<circle cx="90750" cy="45750" r="206.102" /> 
<polyline fill="none;"
points="64443,46056
64443,45443
65056,45443
65056,46056
64443,46056
" /> 
<circle cx="66750" cy="45750" r="306.102" /> 
<polyline fill="none;"
points="66793,54706
66793,54293
67206,54293
67206,54706
66793,54706
" /> 
<circle cx="68000" cy="54500" r="206.102" /> 
<circle cx="69000" cy="54500" r="206.102" /> 
<circle cx="70000" cy="54500" r="206.102" /> 
<circle cx="70000" cy="51500" r="206.102" /> 
<circle cx="69000" cy="51500" r="206.102" /> 
<circle cx="68000" cy="51500" r="206.102" /> 
<circle cx="67000" cy="51500" r="206.102" /> 
<polyline fill="none;"
points="85706,53793
85706,54206
85293,54206
85293,53793
85706,53793
" /> 
<circle cx="84500" cy="54000" r="206.102" /> 
<circle cx="83500" cy="54000" r="206.102" /> 
<circle cx="82500" cy="54000" r="206.102" /> 
<circle cx="81500" cy="54000" r="206.102" /> 
<circle cx="80500" cy="54000" r="206.102" /> 
<circle cx="79500" cy="54000" r="206.102" /> 
<circle cx="78500" cy="54000" r="206.102" /> 
<circle cx="77500" cy="54000" r="206.102" /> 
<circle cx="76500" cy="54000" r="206.102" /> 
<circle cx="76500" cy="57000" r="206.102" /> 
<circle cx="77500" cy="57000" r="206.102" /> 
<circle cx="78500" cy="57000" r="206.102" /> 
<circle cx="79500" cy="57000" r="206.102" /> 
<circle cx="80500" cy="57000" r="206.102" /> 
<circle cx="81500" cy="57000" r="206.102" /> 
<circle cx="82500" cy="57000" r="206.102" /> 
<circle cx="83500" cy="57000" r="206.102" /> 
<circle cx="84500" cy="57000" r="206.102" /> 
<circle cx="85500" cy="57000" r="206.102" /> 
<polyline fill="none;"
points="85706,49543
85706,49956
85293,49956
85293,49543
85706,49543
" /> 
<circle cx="84500" cy="49750" r="206.102" /> 
<circle cx="83500" cy="49750" r="206.102" /> 
<circle cx="82500" cy="49750" r="206.102" /> 
<circle cx="81500" cy="49750" r="206.102" /> 
<circle cx="80500" cy="49750" r="206.102" /> 
<circle cx="79500" cy="49750" r="206.102" /> 
<circle cx="78500" cy="49750" r="206.102" /> 
<circle cx="77500" cy="49750" r="206.102" /> 
<circle cx="76500" cy="49750" r="206.102" /> 
<circle cx="76500" cy="52750" r="206.102" /> 
<circle cx="77500" cy="52750" r="206.102" /> 
<circle cx="78500" cy="52750" r="206.102" /> 
<circle cx="79500" cy="52750" r="206.102" /> 
<circle cx="80500" cy="52750" r="206.102" /> 
<circle cx="81500" cy="52750" r="206.102" /> 
<circle cx="82500" cy="52750" r="206.102" /> 
<circle cx="83500" cy="52750" r="206.102" /> 
<circle cx="84500" cy="52750" r="206.102" /> 
<circle cx="85500" cy="52750" r="206.102" /> 
<polyline fill="none;"
points="67206,47456
66793,47456
66793,47043
67206,47043
67206,47456
" /> 
<circle cx="67000" cy="50250" r="206.102" /> 
<polyline fill="none;"
points="78706,45543
78706,45956
78293,45956
78293,45543
78706,45543
" /> 
<circle cx="77500" cy="45750" r="206.102" /> 
<circle cx="76500" cy="45750" r="206.102" /> 
<circle cx="76500" cy="48750" r="206.102" /> 
<circle cx="77500" cy="48750" r="206.102" /> 
<circle cx="78500" cy="48750" r="206.102" /> 
<polyline fill="none;"
points="65018,48518
65481,48518
65481,48981
65018,48981
65018,48518
" /> 
<circle cx="65250" cy="49750" r="231.102" /> 
<circle cx="68000" cy="56750" r="206.102" /> 
<circle cx="69000" cy="56750" r="206.102" /> 
<polyline fill="none;"
points="69793,58206
69793,57793
70206,57793
70206,58206
69793,58206
" /> 
<circle cx="67000" cy="58000" r="206.102" /> 
<circle cx="65750" cy="52500" r="206.102" /> 
<circle cx="65750" cy="53500" r="206.102" /> 
<circle cx="68750" cy="48000" r="281.102" /> 
<polyline fill="none;"
points="71031,48281
70468,48281
70468,47718
71031,47718
71031,48281
" /> 
<circle cx="71500" cy="56750" r="206.102" /> 
<circle cx="71500" cy="57750" r="206.102" /> 
<circle cx="71500" cy="45000" r="206.102" /> 
<circle cx="72500" cy="45000" r="206.102" /> 
<circle cx="87250" cy="56000" r="206.102" /> 
<circle cx="87250" cy="55000" r="206.102" /> 
<circle cx="87250" cy="51750" r="206.102" /> 
<circle cx="87250" cy="50750" r="206.102" /> 
<polyline fill="none;"
points="70231,45268
70231,45731
69768,45731
69768,45268
70231,45268
" /> 
<circle cx="69000" cy="45500" r="231.102" /> 
<polyline fill="none;"
points="95731,50768
95731,51231
95268,51231
95268,50768
95731,50768
" /> 
<circle cx="95500" cy="52000" r="231.102" /> 
<circle cx="94500" cy="51000" r="231.102" /> 
<circle cx="94500" cy="52000" r="231.102" /> 
<circle cx="93500" cy="51000" r="231.102" /> 
<circle cx="93500" cy="52000" r="231.102" /> 
<circle cx="92500" cy="51000" r="231.102" /> 
<circle cx="92500" cy="52000" r="231.102" /> 
<polyline fill="none;"
points="95731,47518
95731,47981
95268,47981
95268,47518
95731,47518
" /> 
<circle cx="95500" cy="48750" r="231.102" /> 
<circle cx="94500" cy="47750" r="231.102" /> 
<circle cx="94500" cy="48750" r="231.102" /> 
<circle cx="93500" cy="47750" r="231.102" /> 
<circle cx="93500" cy="48750" r="231.102" /> 
<circle cx="92500" cy="47750" r="231.102" /> 
<circle cx="92500" cy="48750" r="231.102" /> 
<polyline fill="none;"
points="95731,54018
95731,54481
95268,54481
95268,54018
95731,54018
" /> 
<circle cx="95500" cy="55250" r="231.102" /> 
<circle cx="94500" cy="54250" r="231.102" /> 
<circle cx="94500" cy="55250" r="231.102" /> 
<circle cx="93500" cy="54250" r="231.102" /> 
<circle cx="93500" cy="55250" r="231.102" /> 
<circle cx="92500" cy="54250" r="231.102" /> 
<circle cx="92500" cy="55250" r="231.102" /> 
<circle cx="64650" cy="51250" r="206.102" /> 
<circle cx="64650" cy="54250" r="206.102" /> 
<circle cx="84000" cy="48750" r="206.102" /> 
<circle cx="87000" cy="48750" r="206.102" /> 
<circle cx="85000" cy="57750" r="206.102" /> 
<circle cx="88000" cy="57750" r="206.102" /> 
<circle cx="75100" cy="45450" r="206.102" /> 
<circle cx="75100" cy="48450" r="206.102" /> 
<circle cx="65000" cy="55500" r="206.102" /> 
<circle cx="68000" cy="55500" r="206.102" /> 
<circle cx="72000" cy="55500" r="206.102" /> 
<circle cx="69000" cy="55500" r="206.102" /> 
<circle cx="71250" cy="54500" r="206.102" /> 
<circle cx="71250" cy="51500" r="206.102" /> 
<polyline fill="none;"
points="83706,58043
83706,58456
83293,58456
83293,58043
83706,58043
" /> 
<circle cx="82500" cy="58250" r="206.102" /> 
<circle cx="81500" cy="58250" r="206.102" /> 
<circle cx="80500" cy="58250" r="206.102" /> 
<circle cx="68750" cy="50000" r="281.102" /> 
<circle cx="69750" cy="50000" r="281.102" /> 
<polyline fill="none;"
points="71031,50281
70468,50281
70468,49718
71031,49718
71031,50281
" /> 
<polyline fill="none;"
points="80768,47231
80768,46768
81231,46768
81231,47231
80768,47231
" /> 
<circle cx="81000" cy="46000" r="231.102" /> 
<circle cx="82000" cy="47000" r="231.102" /> 
<circle cx="82000" cy="46000" r="231.102" /> 
<circle cx="83000" cy="47000" r="231.102" /> 
<circle cx="83000" cy="46000" r="231.102" /> 
<circle cx="84000" cy="47000" r="231.102" /> 
<circle cx="84000" cy="46000" r="231.102" /> 
<circle cx="85000" cy="47000" r="231.102" /> 
<circle cx="85000" cy="46000" r="231.102" /> 
<circle cx="86000" cy="47000" r="231.102" /> 
<circle cx="86000" cy="46000" r="231.102" /> 
<circle cx="87000" cy="47000" r="231.102" /> 
<circle cx="87000" cy="46000" r="231.102" /> 
<circle cx="97750" cy="43000" r="666.667" /> 
<path d="M96750 43000
L98750 43000
" />
<path d="M97750 42000
L97750 44000
" />
<circle cx="62750" cy="60500" r="666.667" /> 
<path d="M61750 60500
L63750 60500
" />
<path d="M62750 59500
L62750 61500
" />
<path d="M96500 59250
L64000 59250
" />
<path d="M64000 59250
L64000 44250
" />
<path d="M96500 44250
L96500 59250
" />
<path d="M64000 44250
L96500 44250
" />
<polyline fill="none;"
points="90793,47793
91206,47793
91206,48206
90793,48206
90793,47793
" /> 
<circle cx="91000" cy="49000" r="206.102" /> 
<circle cx="91000" cy="50000" r="206.102" /> 
<circle cx="91000" cy="51000" r="206.102" /> 
<circle cx="91000" cy="52000" r="206.102" /> 
<circle cx="91000" cy="53000" r="206.102" /> 
<circle cx="91000" cy="54000" r="206.102" /> 
<circle cx="91000" cy="55000" r="206.102" /> 
<circle cx="91000" cy="56000" r="206.102" /> 
<circle cx="91000" cy="57000" r="206.102" /> 
<polyline fill="none;"
points="89793,47793
90206,47793
90206,48206
89793,48206
89793,47793
" /> 
<circle cx="90000" cy="49000" r="206.102" /> 
<circle cx="90000" cy="50000" r="206.102" /> 
<circle cx="90000" cy="51000" r="206.102" /> 
<circle cx="90000" cy="52000" r="206.102" /> 
<circle cx="90000" cy="53000" r="206.102" /> 
<circle cx="90000" cy="54000" r="206.102" /> 
<circle cx="90000" cy="55000" r="206.102" /> 
<circle cx="90000" cy="56000" r="206.102" /> 
<circle cx="90000" cy="57000" r="206.102" /> 
<polyline fill="none;"
points="73793,47793
74206,47793
74206,48206
73793,48206
73793,47793
" /> 
<circle cx="74000" cy="49000" r="206.102" /> 
<circle cx="74000" cy="50000" r="206.102" /> 
<circle cx="74000" cy="51000" r="206.102" /> 
<circle cx="74000" cy="52000" r="206.102" /> 
<circle cx="74000" cy="53000" r="206.102" /> 
<circle cx="74000" cy="54000" r="206.102" /> 
<circle cx="74000" cy="55000" r="206.102" /> 
<circle cx="74000" cy="56000" r="206.102" /> 
<circle cx="74000" cy="57000" r="206.102" /> 
<polyline fill="none;"
points="72793,47793
73206,47793
73206,48206
72793,48206
72793,47793
" /> 
<circle cx="73000" cy="49000" r="206.102" /> 
<circle cx="73000" cy="50000" r="206.102" /> 
<circle cx="73000" cy="51000" r="206.102" /> 
<circle cx="73000" cy="52000" r="206.102" /> 
<circle cx="73000" cy="53000" r="206.102" /> 
<circle cx="73000" cy="54000" r="206.102" /> 
<circle cx="73000" cy="55000" r="206.102" /> 
<circle cx="73000" cy="56000" r="206.102" /> 
<circle cx="73000" cy="57000" r="206.102" /> 
<polyline fill="none;"
points="92956,45543
92956,45956
92543,45956
92543,45543
92956,45543
" /> 
<circle cx="91750" cy="45750" r="206.102" /> 
<circle cx="90750" cy="45750" r="206.102" /> 
<polyline fill="none;"
points="64443,46056
64443,45443
65056,45443
65056,46056
64443,46056
" /> 
<circle cx="66750" cy="45750" r="306.102" /> 
<polyline fill="none;"
points="66793,54706
66793,54293
67206,54293
67206,54706
66793,54706
" /> 
<circle cx="68000" cy="54500" r="206.102" /> 
<circle cx="69000" cy="54500" r="206.102" /> 
<circle cx="70000" cy="54500" r="206.102" /> 
<circle cx="70000" cy="51500" r="206.102" /> 
<circle cx="69000" cy="51500" r="206.102" /> 
<circle cx="68000" cy="51500" r="206.102" /> 
<circle cx="67000" cy="51500" r="206.102" /> 
<polyline fill="none;"
points="85706,53793
85706,54206
85293,54206
85293,53793
85706,53793
" /> 
<circle cx="84500" cy="54000" r="206.102" /> 
<circle cx="83500" cy="54000" r="206.102" /> 
<circle cx="82500" cy="54000" r="206.102" /> 
<circle cx="81500" cy="54000" r="206.102" /> 
<circle cx="80500" cy="54000" r="206.102" /> 
<circle cx="79500" cy="54000" r="206.102" /> 
<circle cx="78500" cy="54000" r="206.102" /> 
<circle cx="77500" cy="54000" r="206.102" /> 
<circle cx="76500" cy="54000" r="206.102" /> 
<circle cx="76500" cy="57000" r="206.102" /> 
<circle cx="77500" cy="57000" r="206.102" /> 
<circle cx="78500" cy="57000" r="206.102" /> 
<circle cx="79500" cy="57000" r="206.102" /> 
<circle cx="80500" cy="57000" r="206.102" /> 
<circle cx="81500" cy="57000" r="206.102" /> 
<circle cx="82500" cy="57000" r="206.102" /> 
<circle cx="83500" cy="57000" r="206.102" /> 
<circle cx="84500" cy="57000" r="206.102" /> 
<circle cx="85500" cy="57000" r="206.102" /> 
<polyline fill="none;"
points="85706,49543
85706,49956
85293,49956
85293,49543
85706,49543
" /> 
<circle cx="84500" cy="49750" r="206.102" /> 
<circle cx="83500" cy="49750" r="206.102" /> 
<circle cx="82500" cy="49750" r="206.102" /> 
<circle cx="81500" cy="49750" r="206.102" /> 
<circle cx="80500" cy="49750" r="206.102" /> 
<circle cx="79500" cy="49750" r="206.102" /> 
<circle cx="78500" cy="49750" r="206.102" /> 
<circle cx="77500" cy="49750" r="206.102" /> 
<circle cx="76500" cy="49750" r="206.102" /> 
<circle cx="76500" cy="52750" r="206.102" /> 
<circle cx="77500" cy="52750" r="206.102" /> 
<circle cx="78500" cy="52750" r="206.102" /> 
<circle cx="79500" cy="52750" r="206.102" /> 
<circle cx="80500" cy="52750" r="206.102" /> 
<circle cx="81500" cy="52750" r="206.102" /> 
<circle cx="82500" cy="52750" r="206.102" /> 
<circle cx="83500" cy="52750" r="206.102" /> 
<circle cx="84500" cy="52750" r="206.102" /> 
<circle cx="85500" cy="52750" r="206.102" /> 
<polyline fill="none;"
points="67206,47456
66793,47456
66793,47043
67206,47043
67206,47456
" /> 
<circle cx="67000" cy="50250" r="206.102" /> 
<polyline fill="none;"
points="78706,45543
78706,45956
78293,45956
78293,45543
78706,45543
" /> 
<circle cx="77500" cy="45750" r="206.102" /> 
<circle cx="76500" cy="45750" r="206.102" /> 
<circle cx="76500" cy="48750" r="206.102" /> 
<circle cx="77500" cy="48750" r="206.102" /> 
<circle cx="78500" cy="48750" r="206.102" /> 
<polyline fill="none;"
points="65018,48518
65481,48518
65481,48981
65018,48981
65018,48518
" /> 
<circle cx="65250" cy="49750" r="231.102" /> 
<circle cx="68000" cy="56750" r="206.102" /> 
<circle cx="69000" cy="56750" r="206.102" /> 
<polyline fill="none;"
points="69793,58206
69793,57793
70206,57793
70206,58206
69793,58206
" /> 
<circle cx="67000" cy="58000" r="206.102" /> 
<circle cx="65750" cy="52500" r="206.102" /> 
<circle cx="65750" cy="53500" r="206.102" /> 
<circle cx="68750" cy="48000" r="281.102" /> 
<polyline fill="none;"
points="71031,48281
70468,48281
70468,47718
71031,47718
71031,48281
" /> 
<circle cx="71500" cy="56750" r="206.102" /> 
<circle cx="71500" cy="57750" r="206.102" /> 
<circle cx="71500" cy="45000" r="206.102" /> 
<circle cx="72500" cy="45000" r="206.102" /> 
<circle cx="87250" cy="56000" r="206.102" /> 
<circle cx="87250" cy="55000" r="206.102" /> 
<circle cx="87250" cy="51750" r="206.102" /> 
<circle cx="87250" cy="50750" r="206.102" /> 
<polyline fill="none;"
points="70231,45268
70231,45731
69768,45731
69768,45268
70231,45268
" /> 
<circle cx="69000" cy="45500" r="231.102" /> 
<polyline fill="none;"
points="95731,50768
95731,51231
95268,51231
95268,50768
95731,50768
" /> 
<circle cx="95500" cy="52000" r="231.102" /> 
<circle cx="94500" cy="51000" r="231.102" /> 
<circle cx="94500" cy="52000" r="231.102" /> 
<circle cx="93500" cy="51000" r="231.102" /> 
<circle cx="93500" cy="52000" r="231.102" /> 
<circle cx="92500" cy="51000" r="231.102" /> 
<circle cx="92500" cy="52000" r="231.102" /> 
<polyline fill="none;"
points="95731,47518
95731,47981
95268,47981
95268,47518
95731,47518
" /> 
<circle cx="95500" cy="48750" r="231.102" /> 
<circle cx="94500" cy="47750" r="231.102" /> 
<circle cx="94500" cy="48750" r="231.102" /> 
<circle cx="93500" cy="47750" r="231.102" /> 
<circle cx="93500" cy="48750" r="231.102" /> 
<circle cx="92500" cy="47750" r="231.102" /> 
<circle cx="92500" cy="48750" r="231.102" /> 
<polyline fill="none;"
points="95731,54018
95731,54481
95268,54481
95268,54018
95731,54018
" /> 
<circle cx="95500" cy="55250" r="231.102" /> 
<circle cx="94500" cy="54250" r="231.102" /> 
<circle cx="94500" cy="55250" r="231.102" /> 
<circle cx="93500" cy="54250" r="231.102" /> 
<circle cx="93500" cy="55250" r="231.102" /> 
<circle cx="92500" cy="54250" r="231.102" /> 
<circle cx="92500" cy="55250" r="231.102" /> 
<circle cx="64650" cy="51250" r="206.102" /> 
<circle cx="64650" cy="54250" r="206.102" /> 
<circle cx="84000" cy="48750" r="206.102" /> 
<circle cx="87000" cy="48750" r="206.102" /> 
<circle cx="85000" cy="57750" r="206.102" /> 
<circle cx="88000" cy="57750" r="206.102" /> 
<circle cx="75100" cy="45450" r="206.102" /> 
<circle cx="75100" cy="48450" r="206.102" /> 
<circle cx="65000" cy="55500" r="206.102" /> 
<circle cx="68000" cy="55500" r="206.102" /> 
<circle cx="72000" cy="55500" r="206.102" /> 
<circle cx="69000" cy="55500" r="206.102" /> 
<circle cx="71250" cy="54500" r="206.102" /> 
<circle cx="71250" cy="51500" r="206.102" /> 
<polyline fill="none;"
points="83706,58043
83706,58456
83293,58456
83293,58043
83706,58043
" /> 
<circle cx="82500" cy="58250" r="206.102" /> 
<circle cx="81500" cy="58250" r="206.102" /> 
<circle cx="80500" cy="58250" r="206.102" /> 
<circle cx="68750" cy="50000" r="281.102" /> 
<circle cx="69750" cy="50000" r="281.102" /> 
<polyline fill="none;"
points="71031,50281
70468,50281
70468,49718
71031,49718
71031,50281
" /> 
<polyline fill="none;"
points="80768,47231
80768,46768
81231,46768
81231,47231
80768,47231
" /> 
<circle cx="81000" cy="46000" r="231.102" /> 
<circle cx="82000" cy="47000" r="231.102" /> 
<circle cx="82000" cy="46000" r="231.102" /> 
<circle cx="83000" cy="47000" r="231.102" /> 
<circle cx="83000" cy="46000" r="231.102" /> 
<circle cx="84000" cy="47000" r="231.102" /> 
<circle cx="84000" cy="46000" r="231.102" /> 
<circle cx="85000" cy="47000" r="231.102" /> 
<circle cx="85000" cy="46000" r="231.102" /> 
<circle cx="86000" cy="47000" r="231.102" /> 
<circle cx="86000" cy="46000" r="231.102" /> 
<circle cx="87000" cy="47000" r="231.102" /> 
<circle cx="87000" cy="46000" r="231.102" /> 
</g>
<g style="fill:#000000; fill-opacity:0.0; 
stroke:#000000; stroke-width:100; stroke-opacity:1; 
stroke-linecap:round; stroke-linejoin:round;">
<circle cx="97750" cy="43000" r="666.667" /> 
<path d="M96750 43000
L98750 43000
" />
<path d="M97750 42000
L97750 44000
" />
<circle cx="62750" cy="60500" r="666.667" /> 
<path d="M61750 60500
L63750 60500
" />
<path d="M62750 59500
L62750 61500
" />
</g>
<g style="fill:#000000; fill-opacity:0.0; 
stroke:#000000; stroke-width:59; stroke-opacity:1; 
stroke-linecap:round; stroke-linejoin:round;">
<path d="M96500 59250
L64000 59250
" />
<path d="M64000 59250
L64000 44250
" />
<path d="M96500 44250
L96500 59250
" />
<path d="M64000 44250
L96500 44250
" />
</g>
<g style="fill:#000000; fill-opacity:0.0; 
stroke:#000000; stroke-width:100; stroke-opacity:1; 
stroke-linecap:round; stroke-linejoin:round;">
<circle cx="97750" cy="43000" r="666.667" /> 
<path d="M96750 43000
L98750 43000
" />
<path d="M97750 42000
L97750 44000
" />
<circle cx="62750" cy="60500" r="666.667" /> 
<path d="M61750 60500
L63750 60500
" />
<path d="M62750 59500
L62750 61500
" />
</g>
<g style="fill:#000000; fill-opacity:0.0; 
stroke:#000000; stroke-width:59; stroke-opacity:1; 
stroke-linecap:round; stroke-linejoin:round;">
<path d="M96500 59250
L64000 59250
" />
<path d="M64000 59250
L64000 44250
" />
<path d="M96500 44250
L96500 59250
" />
<path d="M64000 44250
L96500 44250
" />
</g>
<g style="fill:#000000; fill-opacity:0.0; 
stroke:#000000; stroke-width:120; stroke-opacity:1; 
stroke-linecap:round; stroke-linejoin:round;">
<path d="M90500 47500
L91500 47500
" />
<path d="M91500 47500
L91500 57500
" />
<path d="M91500 57500
L90500 57500
" />
<path d="M90500 57500
L90500 47500
" />
<path d="M90500 48500
L91500 48500
" />
<path d="M89500 47500
L90500 47500
" />
<path d="M90500 47500
L90500 57500
" />
<path d="M90500 57500
L89500 57500
" />
<path d="M89500 57500
L89500 47500
" />
<path d="M89500 48500
L90500 48500
" />
<path d="M73500 47500
L74500 47500
" />
<path d="M74500 47500
L74500 57500
" />
<path d="M74500 57500
L73500 57500
" />
<path d="M73500 57500
L73500 47500
" />
<path d="M73500 48500
L74500 48500
" />
<path d="M72500 47500
L73500 47500
" />
<path d="M73500 47500
L73500 57500
" />
<path d="M73500 57500
L72500 57500
" />
<path d="M72500 57500
L72500 47500
" />
<path d="M72500 48500
L73500 48500
" />
<path d="M93250 45250
L93250 46250
" />
<path d="M93250 46250
L90250 46250
" />
<path d="M90250 46250
L90250 45250
" />
<path d="M90250 45250
L93250 45250
" />
<path d="M92250 46250
L92250 45250
" />
</g>
<g style="fill:#000000; fill-opacity:0.0; 
stroke:#000000; stroke-width:150; stroke-opacity:1; 
stroke-linecap:round; stroke-linejoin:round;">
<circle cx="65750" cy="45750" r="1500" /> 
</g>
<g style="fill:#000000; fill-opacity:0.0; 
stroke:#000000; stroke-width:100; stroke-opacity:1; 
stroke-linecap:round; stroke-linejoin:round;">
<path d="M66500 52500
L67000 52500
" />
<path d="M67000 52500
L67000 53500
" />
<path d="M67000 53500
L66500 53500
" />
<path d="M66500 52000
L70500 52000
" />
<path d="M70500 52000
L70500 54000
" />
<path d="M70500 54000
L66500 54000
" />
<path d="M66500 54000
L66500 52000
" />
</g>
<g style="fill:#000000; fill-opacity:0.0; 
stroke:#000000; stroke-width:150; stroke-opacity:1; 
stroke-linecap:round; stroke-linejoin:round;">
<path d="M86500 56000
L86000 56000
" />
<path d="M86000 56000
L86000 55000
" />
<path d="M86000 55000
L86500 55000
" />
<path d="M86500 56500
L75500 56500
" />
<path d="M75500 56500
L75500 54500
" />
<path d="M75500 54500
L86500 54500
" />
<path d="M86500 54500
L86500 56500
" />
<path d="M86500 51750
L86000 51750
" />
<path d="M86000 51750
L86000 50750
" />
<path d="M86000 50750
L86500 50750
" />
<path d="M86500 52250
L75500 52250
" />
<path d="M75500 52250
L75500 50250
" />
<path d="M75500 50250
L86500 50250
" />
<path d="M86500 50250
L86500 52250
" />
</g>
<g style="fill:#000000; fill-opacity:0.0; 
stroke:#000000; stroke-width:120; stroke-opacity:1; 
stroke-linecap:round; stroke-linejoin:round;">
<path d="M67000 47250
L67000 47550
" />
<path d="M67000 47550
L66600 47550
" />
<path d="M66600 47550
L66600 49950
" />
<path d="M66600 49950
L67000 49950
" />
<path d="M67000 49950
L67000 50250
" />
<path d="M67000 49950
L67400 49950
" />
<path d="M67400 49950
L67400 47550
" />
<path d="M67400 47550
L67000 47550
" />
<path d="M66600 47750
L67400 47750
" />
<path d="M67400 47850
L66600 47850
" />
</g>
<g style="fill:#000000; fill-opacity:0.0; 
stroke:#000000; stroke-width:150; stroke-opacity:1; 
stroke-linecap:round; stroke-linejoin:round;">
<path d="M79250 48250
L75750 48250
" />
<path d="M75750 48250
L75750 46250
" />
<path d="M75750 46250
L79250 46250
" />
<path d="M79250 46250
L79250 48250
" />
<path d="M79250 47500
L78750 47500
" />
<path d="M78750 47500
L78750 47000
" />
<path d="M78750 47000
L79250 47000
" />
</g>
<g style="fill:#000000; fill-opacity:0.0; 
stroke:#000000; stroke-width:50; stroke-opacity:1; 
stroke-linecap:round; stroke-linejoin:round;">
<circle cx="65250" cy="49250" r="1250" /> 
</g>
<g style="fill:#000000; fill-opacity:0.0; 
stroke:#000000; stroke-width:120; stroke-opacity:1; 
stroke-linecap:round; stroke-linejoin:round;">
<path d="M67520 56250
L69500 56250
" />
<path d="M69500 56250
L69500 57250
" />
<path d="M69500 57250
L67500 57250
" />
<path d="M67500 57250
L67500 56250
" />
<path d="M67500 56500
L67750 56250
" />
<path d="M70000 58000
L69700 58000
" />
<path d="M69700 58000
L69700 57600
" />
<path d="M69700 57600
L67300 57600
" />
<path d="M67300 57600
L67300 58000
" />
<path d="M67300 58000
L67000 58000
" />
<path d="M67300 58000
L67300 58400
" />
<path d="M67300 58400
L69700 58400
" />
<path d="M69700 58400
L69700 58000
" />
<path d="M69500 57600
L69500 58400
" />
<path d="M69400 58400
L69400 57600
" />
<path d="M66250 52020
L66250 54000
" />
<path d="M66250 54000
L65250 54000
" />
<path d="M65250 54000
L65250 52000
" />
<path d="M65250 52000
L66250 52000
" />
<path d="M66000 52000
L66250 52250
" />
</g>
<g style="fill:#000000; fill-opacity:0.0; 
stroke:#000000; stroke-width:150; stroke-opacity:1; 
stroke-linecap:round; stroke-linejoin:round;">
<path d="M67750 47250
L67750 47000
" />
<path d="M67750 47000
L71750 47000
" />
<path d="M71750 47000
L71750 47250
" />
<path d="M67750 48750
L67750 47250
" />
<path d="M67750 47250
L71750 47250
" />
<path d="M71750 47250
L71750 48750
" />
<path d="M71750 48750
L67750 48750
" />
</g>
<g style="fill:#000000; fill-opacity:0.0; 
stroke:#000000; stroke-width:120; stroke-opacity:1; 
stroke-linecap:round; stroke-linejoin:round;">
<path d="M72000 56270
L72000 58250
" />
<path d="M72000 58250
L71000 58250
" />
<path d="M71000 58250
L71000 56250
" />
<path d="M71000 56250
L72000 56250
" />
<path d="M71750 56250
L72000 56500
" />
<path d="M71020 44500
L73000 44500
" />
<path d="M73000 44500
L73000 45500
" />
<path d="M73000 45500
L71000 45500
" />
<path d="M71000 45500
L71000 44500
" />
<path d="M71000 44750
L71250 44500
" />
<path d="M86750 56480
L86750 54500
" />
<path d="M86750 54500
L87750 54500
" />
<path d="M87750 54500
L87750 56500
" />
<path d="M87750 56500
L86750 56500
" />
<path d="M87000 56500
L86750 56250
" />
<path d="M86750 52230
L86750 50250
" />
<path d="M86750 50250
L87750 50250
" />
<path d="M87750 50250
L87750 52250
" />
<path d="M87750 52250
L86750 52250
" />
<path d="M87000 52250
L86750 52000
" />
</g>
<g style="fill:#000000; fill-opacity:0.0; 
stroke:#000000; stroke-width:50; stroke-opacity:1; 
stroke-linecap:round; stroke-linejoin:round;">
<circle cx="69500" cy="45500" r="1250" /> 
</g>
<g style="fill:#000000; fill-opacity:0.0; 
stroke:#000000; stroke-width:120; stroke-opacity:1; 
stroke-linecap:round; stroke-linejoin:round;">
<path d="M96000 52500
L92000 52500
" />
<path d="M92000 52500
L92000 50500
" />
<path d="M92000 50500
L96000 50500
" />
<path d="M96000 50500
L96000 52500
" />
<path d="M96000 49250
L92000 49250
" />
<path d="M92000 49250
L92000 47250
" />
<path d="M92000 47250
L96000 47250
" />
<path d="M96000 47250
L96000 49250
" />
<path d="M96000 55750
L92000 55750
" />
<path d="M92000 55750
L92000 53750
" />
<path d="M92000 53750
L96000 53750
" />
<path d="M96000 53750
L96000 55750
" />
</g>
<g style="fill:#000000; fill-opacity:0.0; 
stroke:#000000; stroke-width:80; stroke-opacity:1; 
stroke-linecap:round; stroke-linejoin:round;">
<path d="M64650 51250
L64650 51450
" />
<path d="M64650 54250
L64650 54050
" />
<path d="M64650 54050
L65050 54050
" />
<path d="M65050 54050
L65050 51450
" />
<path d="M65050 51450
L64250 51450
" />
<path d="M64250 51450
L64250 54050
" />
<path d="M64250 54050
L64650 54050
" />
<path d="M64850 51450
L65050 51650
" />
<path d="M84000 48750
L84200 48750
" />
<path d="M87000 48750
L86800 48750
" />
<path d="M86800 48750
L86800 48350
" />
<path d="M86800 48350
L84200 48350
" />
<path d="M84200 48350
L84200 49150
" />
<path d="M84200 49150
L86800 49150
" />
<path d="M86800 49150
L86800 48750
" />
<path d="M84200 48550
L84400 48350
" />
<path d="M85000 57750
L85200 57750
" />
<path d="M88000 57750
L87800 57750
" />
<path d="M87800 57750
L87800 57350
" />
<path d="M87800 57350
L85200 57350
" />
<path d="M85200 57350
L85200 58150
" />
<path d="M85200 58150
L87800 58150
" />
<path d="M87800 58150
L87800 57750
" />
<path d="M85200 57550
L85400 57350
" />
<path d="M75100 45450
L75100 45650
" />
<path d="M75100 48450
L75100 48250
" />
<path d="M75100 48250
L75500 48250
" />
<path d="M75500 48250
L75500 45650
" />
<path d="M75500 45650
L74700 45650
" />
<path d="M74700 45650
L74700 48250
" />
<path d="M74700 48250
L75100 48250
" />
<path d="M75300 45650
L75500 45850
" />
<path d="M65000 55500
L65200 55500
" />
<path d="M68000 55500
L67800 55500
" />
<path d="M67800 55500
L67800 55100
" />
<path d="M67800 55100
L65200 55100
" />
<path d="M65200 55100
L65200 55900
" />
<path d="M65200 55900
L67800 55900
" />
<path d="M67800 55900
L67800 55500
" />
<path d="M65200 55300
L65400 55100
" />
<path d="M72000 55500
L71800 55500
" />
<path d="M69000 55500
L69200 55500
" />
<path d="M69200 55500
L69200 55900
" />
<path d="M69200 55900
L71800 55900
" />
<path d="M71800 55900
L71800 55100
" />
<path d="M71800 55100
L69200 55100
" />
<path d="M69200 55100
L69200 55500
" />
<path d="M71800 55700
L71600 55900
" />
<path d="M71250 54500
L71250 54300
" />
<path d="M71250 51500
L71250 51700
" />
<path d="M71250 51700
L70850 51700
" />
<path d="M70850 51700
L70850 54300
" />
<path d="M70850 54300
L71650 54300
" />
<path d="M71650 54300
L71650 51700
" />
<path d="M71650 51700
L71250 51700
" />
<path d="M71050 54300
L70850 54100
" />
</g>
<g style="fill:#000000; fill-opacity:0.0; 
stroke:#000000; stroke-width:120; stroke-opacity:1; 
stroke-linecap:round; stroke-linejoin:round;">
<path d="M84000 58750
L84000 58750
" />
<path d="M84000 57750
L84000 58750
" />
<path d="M84000 58750
L84000 58750
" />
<path d="M84000 58750
L80000 58750
" />
<path d="M80000 58750
L80000 57750
" />
<path d="M80000 57750
L84000 57750
" />
<path d="M83000 57750
L83000 58750
" />
</g>
<g style="fill:#000000; fill-opacity:0.0; 
stroke:#000000; stroke-width:150; stroke-opacity:1; 
stroke-linecap:round; stroke-linejoin:round;">
<path d="M67750 49250
L67750 49000
" />
<path d="M67750 49000
L71750 49000
" />
<path d="M71750 49000
L71750 49250
" />
<path d="M67750 50750
L67750 49250
" />
<path d="M67750 49250
L71750 49250
" />
<path d="M71750 49250
L71750 50750
" />
<path d="M71750 50750
L67750 50750
" />
</g>
<g style="fill:#000000; fill-opacity:0.0; 
stroke:#000000; stroke-width:59.0551; stroke-opacity:1; 
stroke-linecap:round; stroke-linejoin:round;">
<path d="M90901 47074
L90901 47285
L90887 47327
L90859 47355
L90817 47369
L90789 47369
" />
<path d="M91028 47102
L91042 47088
L91070 47074
L91140 47074
L91168 47088
L91182 47102
L91196 47130
L91196 47158
L91182 47200
L91014 47369
L91196 47369
" />
<path d="M89901 47074
L89901 47285
L89887 47327
L89859 47355
L89817 47369
L89789 47369
" />
<path d="M90168 47172
L90168 47369
" />
<path d="M90098 47060
L90028 47271
L90210 47271
" />
<path d="M73901 47074
L73901 47285
L73887 47327
L73859 47355
L73817 47369
L73789 47369
" />
<path d="M74014 47074
L74196 47074
L74098 47186
L74140 47186
L74168 47200
L74182 47214
L74196 47242
L74196 47313
L74182 47341
L74168 47355
L74140 47369
L74056 47369
L74028 47355
L74014 47341
" />
<path d="M72901 47074
L72901 47285
L72887 47327
L72859 47355
L72817 47369
L72789 47369
" />
<path d="M73196 47369
L73028 47369
" />
<path d="M73112 47369
L73112 47074
L73084 47116
L73056 47144
L73028 47158
" />
<path d="M91574 46869
L91475 46728
" />
<path d="M91405 46869
L91405 46574
L91517 46574
L91546 46588
L91560 46602
L91574 46630
L91574 46672
L91560 46700
L91546 46714
L91517 46728
L91405 46728
" />
<path d="M91658 46574
L91757 46869
L91855 46574
" />
<path d="M92108 46869
L91939 46869
" />
<path d="M92024 46869
L92024 46574
L91996 46616
L91967 46644
L91939 46658
" />
<path d="M64950 47619
L64810 47619
L64810 47324
" />
<path d="M65203 47619
L65035 47619
" />
<path d="M65119 47619
L65119 47324
L65091 47366
L65063 47394
L65035 47408
" />
<path d="M65224 44802
L65238 44788
L65266 44774
L65336 44774
L65364 44788
L65378 44802
L65393 44830
L65393 44858
L65378 44900
L65210 45069
L65393 45069
" />
<path d="M65505 44802
L65519 44788
L65547 44774
L65617 44774
L65646 44788
L65660 44802
L65674 44830
L65674 44858
L65660 44900
L65491 45069
L65674 45069
" />
<path d="M66152 44872
L66152 45069
" />
<path d="M66025 44872
L66025 45027
L66039 45055
L66067 45069
L66110 45069
L66138 45055
L66152 45041
" />
<path d="M66292 45069
L66292 44774
" />
<path d="M66292 44914
L66461 44914
" />
<path d="M66461 45069
L66461 44774
" />
<path d="M66074 54724
L66313 54724
L66341 54710
L66355 54696
L66369 54668
L66369 54612
L66355 54584
L66341 54570
L66313 54556
L66074 54556
" />
<path d="M66369 54260
L66369 54429
" />
<path d="M66369 54345
L66074 54345
L66116 54373
L66144 54401
L66158 54429
" />
<path d="M67712 53119
L67712 52824
L67811 53035
L67909 52824
L67909 53119
" />
<path d="M68035 53035
L68176 53035
" />
<path d="M68007 53119
L68106 52824
L68204 53119
" />
<path d="M68275 52824
L68471 53119
" />
<path d="M68471 52824
L68275 53119
" />
<path d="M68556 52824
L68753 52824
L68626 53119
" />
<path d="M68837 52824
L69034 52824
L68907 53119
" />
<path d="M69273 52922
L69273 53119
" />
<path d="M69203 52810
L69132 53021
L69315 53021
" />
<path d="M74775 55324
L74775 55563
L74789 55591
L74803 55605
L74831 55619
L74887 55619
L74915 55605
L74929 55591
L74943 55563
L74943 55324
" />
<path d="M75056 55324
L75239 55324
L75140 55436
L75182 55436
L75210 55450
L75224 55464
L75239 55492
L75239 55563
L75224 55591
L75210 55605
L75182 55619
L75098 55619
L75070 55605
L75056 55591
" />
<path d="M79731 55869
L79731 55574
L79829 55785
L79928 55574
L79928 55869
" />
<path d="M80054 55855
L80097 55869
L80167 55869
L80195 55855
L80209 55841
L80223 55813
L80223 55785
L80209 55757
L80195 55742
L80167 55728
L80111 55714
L80082 55700
L80068 55686
L80054 55658
L80054 55630
L80068 55602
L80082 55588
L80111 55574
L80181 55574
L80223 55588
" />
<path d="M80350 55869
L80350 55574
L80462 55574
L80490 55588
L80504 55602
L80518 55630
L80518 55672
L80504 55700
L80490 55714
L80462 55728
L80350 55728
" />
<path d="M80771 55672
L80771 55869
" />
<path d="M80701 55560
L80631 55771
L80814 55771
" />
<path d="M80898 55574
L81081 55574
L80982 55686
L81025 55686
L81053 55700
L81067 55714
L81081 55742
L81081 55813
L81067 55841
L81053 55855
L81025 55869
L80940 55869
L80912 55855
L80898 55841
" />
<path d="M81264 55574
L81292 55574
L81320 55588
L81334 55602
L81348 55630
L81362 55686
L81362 55757
L81348 55813
L81334 55841
L81320 55855
L81292 55869
L81264 55869
L81235 55855
L81221 55841
L81207 55813
L81193 55757
L81193 55686
L81207 55630
L81221 55602
L81235 55588
L81264 55574
" />
<path d="M81643 55588
L81615 55574
L81573 55574
L81531 55588
L81503 55616
L81489 55644
L81474 55700
L81474 55742
L81489 55799
L81503 55827
L81531 55855
L81573 55869
L81601 55869
L81643 55855
L81657 55841
L81657 55742
L81601 55742
" />
<path d="M81770 55602
L81784 55588
L81812 55574
L81882 55574
L81910 55588
L81924 55602
L81938 55630
L81938 55658
L81924 55700
L81756 55869
L81938 55869
" />
<path d="M82192 55672
L82192 55869
" />
<path d="M82121 55560
L82051 55771
L82234 55771
" />
<path d="M82487 55574
L82346 55574
L82332 55714
L82346 55700
L82374 55686
L82445 55686
L82473 55700
L82487 55714
L82501 55742
L82501 55813
L82487 55841
L82473 55855
L82445 55869
L82374 55869
L82346 55855
L82332 55841
" />
<path d="M82613 55602
L82627 55588
L82656 55574
L82726 55574
L82754 55588
L82768 55602
L82782 55630
L82782 55658
L82768 55700
L82599 55869
L82782 55869
" />
<path d="M74775 51074
L74775 51313
L74789 51341
L74803 51355
L74831 51369
L74887 51369
L74915 51355
L74929 51341
L74943 51313
L74943 51074
" />
<path d="M75070 51102
L75084 51088
L75112 51074
L75182 51074
L75210 51088
L75224 51102
L75239 51130
L75239 51158
L75224 51200
L75056 51369
L75239 51369
" />
<path d="M79329 51074
L79525 51074
L79399 51369
" />
<path d="M79764 51172
L79764 51369
" />
<path d="M79694 51060
L79624 51271
L79807 51271
" />
<path d="M80060 51369
L79919 51369
L79919 51074
" />
<path d="M80144 51355
L80186 51369
L80257 51369
L80285 51355
L80299 51341
L80313 51313
L80313 51285
L80299 51257
L80285 51242
L80257 51228
L80200 51214
L80172 51200
L80158 51186
L80144 51158
L80144 51130
L80158 51102
L80172 51088
L80200 51074
L80271 51074
L80313 51088
" />
<path d="M80425 51102
L80439 51088
L80467 51074
L80538 51074
L80566 51088
L80580 51102
L80594 51130
L80594 51158
L80580 51200
L80411 51369
L80594 51369
" />
<path d="M80847 51172
L80847 51369
" />
<path d="M80777 51060
L80706 51271
L80889 51271
" />
<path d="M81142 51074
L81002 51074
L80988 51214
L81002 51200
L81030 51186
L81100 51186
L81128 51200
L81142 51214
L81156 51242
L81156 51313
L81142 51341
L81128 51355
L81100 51369
L81030 51369
L81002 51355
L80988 51341
" />
<path d="M66419 48067
L66124 48067
L66124 47997
L66138 47955
L66166 47927
L66194 47913
L66250 47899
L66292 47899
L66349 47913
L66377 47927
L66405 47955
L66419 47997
L66419 48067
" />
<path d="M66419 47617
L66419 47786
" />
<path d="M66419 47702
L66124 47702
L66166 47730
L66194 47758
L66208 47786
" />
<path d="M80119 47538
L79824 47538
" />
<path d="M80091 47228
L80105 47242
L80119 47285
L80119 47313
L80105 47355
L80077 47383
L80049 47397
L79992 47411
L79950 47411
L79894 47397
L79866 47383
L79838 47355
L79824 47313
L79824 47285
L79838 47242
L79852 47228
" />
<path d="M80119 46947
L80119 47116
" />
<path d="M80119 47032
L79824 47032
L79866 47060
L79894 47088
L79908 47116
" />
<path d="M77120 47172
L77120 47369
" />
<path d="M77050 47060
L76979 47271
L77162 47271
" />
<path d="M77275 47369
L77275 47074
L77443 47369
L77443 47074
" />
<path d="M77570 47102
L77584 47088
L77612 47074
L77682 47074
L77710 47088
L77724 47102
L77739 47130
L77739 47158
L77724 47200
L77556 47369
L77739 47369
" />
<path d="M77992 47074
L77935 47074
L77907 47088
L77893 47102
L77865 47144
L77851 47200
L77851 47313
L77865 47341
L77879 47355
L77907 47369
L77964 47369
L77992 47355
L78006 47341
L78020 47313
L78020 47242
L78006 47214
L77992 47200
L77964 47186
L77907 47186
L77879 47200
L77865 47214
L77851 47242
" />
<path d="M64391 50599
L64405 50613
L64419 50655
L64419 50683
L64405 50725
L64377 50753
L64349 50767
L64292 50782
L64250 50782
L64194 50767
L64166 50753
L64138 50725
L64124 50683
L64124 50655
L64138 50613
L64152 50599
" />
<path d="M64419 50458
L64419 50402
L64405 50374
L64391 50360
L64349 50332
L64292 50317
L64180 50317
L64152 50332
L64138 50346
L64124 50374
L64124 50430
L64138 50458
L64152 50472
L64180 50486
L64250 50486
L64278 50472
L64292 50458
L64307 50430
L64307 50374
L64292 50346
L64278 50332
L64250 50317
" />
<path d="M65772 49706
L65969 49706
" />
<path d="M65660 49777
L65871 49847
L65871 49664
" />
<path d="M65674 49580
L65674 49383
L65969 49510
" />
<path d="M65772 48919
L65969 48919
" />
<path d="M65772 49046
L65927 49046
L65955 49032
L65969 49003
L65969 48961
L65955 48933
L65941 48919
" />
<path d="M65814 48680
L65814 48778
" />
<path d="M65969 48778
L65674 48778
L65674 48638
" />
<path d="M65257 48362
L65257 48137
" />
<path d="M65369 48249
L65144 48249
" />
<path d="M69800 57091
L69786 57105
L69744 57119
L69716 57119
L69674 57105
L69646 57077
L69632 57049
L69617 56992
L69617 56950
L69632 56894
L69646 56866
L69674 56838
L69716 56824
L69744 56824
L69786 56838
L69800 56852
" />
<path d="M70053 56824
L69997 56824
L69969 56838
L69955 56852
L69927 56894
L69913 56950
L69913 57063
L69927 57091
L69941 57105
L69969 57119
L70025 57119
L70053 57105
L70067 57091
L70082 57063
L70082 56992
L70067 56964
L70053 56950
L70025 56936
L69969 56936
L69941 56950
L69927 56964
L69913 56992
" />
<path d="M67382 58819
L67382 58524
L67452 58524
L67494 58538
L67522 58566
L67536 58594
L67550 58650
L67550 58692
L67536 58749
L67522 58777
L67494 58805
L67452 58819
L67382 58819
" />
<path d="M67663 58552
L67677 58538
L67705 58524
L67775 58524
L67803 58538
L67817 58552
L67832 58580
L67832 58608
L67817 58650
L67649 58819
L67832 58819
" />
<path d="M65700 51591
L65686 51605
L65644 51619
L65616 51619
L65574 51605
L65546 51577
L65532 51549
L65517 51492
L65517 51450
L65532 51394
L65546 51366
L65574 51338
L65616 51324
L65644 51324
L65686 51338
L65700 51352
" />
<path d="M65799 51324
L65996 51324
L65869 51619
" />
<path d="M95010 55619
L95010 55324
L95109 55535
L95207 55324
L95207 55619
" />
<path d="M95334 55352
L95348 55338
L95376 55324
L95446 55324
L95474 55338
L95489 55352
L95503 55380
L95503 55408
L95489 55450
L95320 55619
L95503 55619
" />
<path d="M68000 46869
L67902 46728
" />
<path d="M67832 46869
L67832 46574
L67944 46574
L67972 46588
L67986 46602
L68000 46630
L68000 46672
L67986 46700
L67972 46714
L67944 46728
L67832 46728
" />
<path d="M68253 46574
L68197 46574
L68169 46588
L68155 46602
L68127 46644
L68113 46700
L68113 46813
L68127 46841
L68141 46855
L68169 46869
L68225 46869
L68253 46855
L68267 46841
L68282 46813
L68282 46742
L68267 46714
L68253 46700
L68225 46686
L68169 46686
L68141 46700
L68127 46714
L68113 46742
" />
<path d="M69525 47824
L69553 47824
L69581 47838
L69595 47852
L69609 47880
L69623 47936
L69623 48007
L69609 48063
L69595 48091
L69581 48105
L69553 48119
L69525 48119
L69496 48105
L69482 48091
L69468 48063
L69454 48007
L69454 47936
L69468 47880
L69482 47852
L69496 47838
L69525 47824
" />
<path d="M69750 48091
L69764 48105
L69750 48119
L69735 48105
L69750 48091
L69750 48119
" />
<path d="M69876 47852
L69890 47838
L69918 47824
L69989 47824
L70017 47838
L70031 47852
L70045 47880
L70045 47908
L70031 47950
L69862 48119
L70045 48119
" />
<path d="M72441 58049
L72455 58063
L72469 58105
L72469 58133
L72455 58175
L72427 58203
L72399 58217
L72342 58232
L72300 58232
L72244 58217
L72216 58203
L72188 58175
L72174 58133
L72174 58105
L72188 58063
L72202 58049
" />
<path d="M72174 57950
L72174 57767
L72286 57866
L72286 57824
L72300 57796
L72314 57782
L72342 57767
L72413 57767
L72441 57782
L72455 57796
L72469 57824
L72469 57908
L72455 57936
L72441 57950
" />
<path d="M73341 45049
L73355 45063
L73369 45105
L73369 45133
L73355 45175
L73327 45203
L73299 45217
L73242 45232
L73200 45232
L73144 45217
L73116 45203
L73088 45175
L73074 45133
L73074 45105
L73088 45063
L73102 45049
" />
<path d="M73369 44767
L73369 44936
" />
<path d="M73369 44852
L73074 44852
L73116 44880
L73144 44908
L73158 44936
" />
<path d="M88141 55499
L88155 55513
L88169 55555
L88169 55583
L88155 55625
L88127 55653
L88099 55667
L88042 55682
L88000 55682
L87944 55667
L87916 55653
L87888 55625
L87874 55583
L87874 55555
L87888 55513
L87902 55499
" />
<path d="M87972 55246
L88169 55246
" />
<path d="M87860 55316
L88071 55386
L88071 55203
" />
<path d="M88141 51299
L88155 51313
L88169 51355
L88169 51383
L88155 51425
L88127 51453
L88099 51467
L88042 51482
L88000 51482
L87944 51467
L87916 51453
L87888 51425
L87874 51383
L87874 51355
L87888 51313
L87902 51299
" />
<path d="M87874 51032
L87874 51172
L88014 51186
L88000 51172
L87986 51144
L87986 51074
L88000 51046
L88014 51032
L88042 51017
L88113 51017
L88141 51032
L88155 51046
L88169 51074
L88169 51144
L88155 51172
L88141 51186
" />
<path d="M65010 55619
L65010 55324
L65109 55535
L65207 55324
L65207 55619
" />
<path d="M65503 55619
L65334 55619
" />
<path d="M65418 55619
L65418 55324
L65390 55366
L65362 55394
L65334 55408
" />
<path d="M68000 44841
L67986 44855
L67944 44869
L67916 44869
L67874 44855
L67846 44827
L67832 44799
L67817 44742
L67817 44700
L67832 44644
L67846 44616
L67874 44588
L67916 44574
L67944 44574
L67986 44588
L68000 44602
" />
<path d="M68113 44602
L68127 44588
L68155 44574
L68225 44574
L68253 44588
L68267 44602
L68282 44630
L68282 44658
L68267 44700
L68099 44869
L68282 44869
" />
<path d="M69143 46222
L69143 46419
" />
<path d="M69072 46110
L69002 46321
L69185 46321
" />
<path d="M69269 46124
L69466 46124
L69339 46419
" />
<path d="M69930 46222
L69930 46419
" />
<path d="M69803 46222
L69803 46377
L69817 46405
L69846 46419
L69888 46419
L69916 46405
L69930 46391
" />
<path d="M70169 46264
L70071 46264
" />
<path d="M70071 46419
L70071 46124
L70211 46124
" />
<path d="M70387 45507
L70612 45507
" />
<path d="M70500 45619
L70500 45394
" />
<path d="M93535 50269
L93535 49974
L93634 50185
L93732 49974
L93732 50269
" />
<path d="M93873 50269
L93873 49974
" />
<path d="M94000 50255
L94042 50269
L94112 50269
L94140 50255
L94154 50241
L94168 50213
L94168 50185
L94154 50157
L94140 50142
L94112 50128
L94056 50114
L94028 50100
L94014 50086
L94000 50058
L94000 50030
L94014 50002
L94028 49988
L94056 49974
L94126 49974
L94168 49988
" />
<path d="M94351 49974
L94407 49974
L94435 49988
L94464 50016
L94478 50072
L94478 50171
L94464 50227
L94435 50255
L94407 50269
L94351 50269
L94323 50255
L94295 50227
L94281 50171
L94281 50072
L94295 50016
L94323 49988
L94351 49974
" />
<path d="M91958 52624
L92141 52624
L92043 52736
L92085 52736
L92113 52750
L92127 52764
L92141 52792
L92141 52863
L92127 52891
L92113 52905
L92085 52919
L92000 52919
L91972 52905
L91958 52891
" />
<path d="M92478 52610
L92225 52989
" />
<path d="M92732 52919
L92563 52919
" />
<path d="M92647 52919
L92647 52624
L92619 52666
L92591 52694
L92563 52708
" />
<path d="M92956 52764
L92999 52778
L93013 52792
L93027 52821
L93027 52863
L93013 52891
L92999 52905
L92971 52919
L92858 52919
L92858 52624
L92956 52624
L92985 52638
L92999 52652
L93013 52680
L93013 52708
L92999 52736
L92985 52750
L92956 52764
L92858 52764
" />
<path d="M93415 52652
L93429 52638
L93457 52624
L93528 52624
L93556 52638
L93570 52652
L93584 52680
L93584 52708
L93570 52750
L93401 52919
L93584 52919
" />
<path d="M94457 52919
L94289 52919
" />
<path d="M94373 52919
L94373 52624
L94345 52666
L94317 52694
L94289 52708
" />
<path d="M94570 52835
L94710 52835
" />
<path d="M94542 52919
L94640 52624
L94739 52919
" />
<path d="M95485 52574
L95514 52574
L95542 52588
L95556 52602
L95570 52630
L95584 52686
L95584 52757
L95570 52813
L95556 52841
L95542 52855
L95514 52869
L95485 52869
L95457 52855
L95443 52841
L95429 52813
L95415 52757
L95415 52686
L95429 52630
L95443 52602
L95457 52588
L95485 52574
" />
<path d="M93535 47019
L93535 46724
L93634 46935
L93732 46724
L93732 47019
" />
<path d="M93929 46724
L93985 46724
L94014 46738
L94042 46766
L94056 46822
L94056 46921
L94042 46977
L94014 47005
L93985 47019
L93929 47019
L93901 47005
L93873 46977
L93859 46921
L93859 46822
L93873 46766
L93901 46738
L93929 46724
" />
<path d="M94168 47005
L94210 47019
L94281 47019
L94309 47005
L94323 46991
L94337 46963
L94337 46935
L94323 46907
L94309 46892
L94281 46878
L94224 46864
L94196 46850
L94182 46836
L94168 46808
L94168 46780
L94182 46752
L94196 46738
L94224 46724
L94295 46724
L94337 46738
" />
<path d="M94464 47019
L94464 46724
" />
<path d="M91958 49374
L92141 49374
L92043 49486
L92085 49486
L92113 49500
L92127 49514
L92141 49542
L92141 49613
L92127 49641
L92113 49655
L92085 49669
L92000 49669
L91972 49655
L91958 49641
" />
<path d="M92478 49360
L92225 49739
" />
<path d="M92732 49669
L92563 49669
" />
<path d="M92647 49669
L92647 49374
L92619 49416
L92591 49444
L92563 49458
" />
<path d="M92956 49514
L92999 49528
L93013 49542
L93027 49571
L93027 49613
L93013 49641
L92999 49655
L92971 49669
L92858 49669
L92858 49374
L92956 49374
L92985 49388
L92999 49402
L93013 49430
L93013 49458
L92999 49486
L92985 49500
L92956 49514
L92858 49514
" />
<path d="M93415 49402
L93429 49388
L93457 49374
L93528 49374
L93556 49388
L93570 49402
L93584 49430
L93584 49458
L93570 49500
L93401 49669
L93584 49669
" />
<path d="M94457 49669
L94289 49669
" />
<path d="M94373 49669
L94373 49374
L94345 49416
L94317 49444
L94289 49458
" />
<path d="M94570 49585
L94710 49585
" />
<path d="M94542 49669
L94640 49374
L94739 49669
" />
<path d="M95485 49324
L95514 49324
L95542 49338
L95556 49352
L95570 49380
L95584 49436
L95584 49507
L95570 49563
L95556 49591
L95542 49605
L95514 49619
L95485 49619
L95457 49605
L95443 49591
L95429 49563
L95415 49507
L95415 49436
L95429 49380
L95443 49352
L95457 49338
L95485 49324
" />
<path d="M93500 53505
L93543 53519
L93613 53519
L93641 53505
L93655 53491
L93669 53463
L93669 53435
L93655 53407
L93641 53392
L93613 53378
L93557 53364
L93528 53350
L93514 53336
L93500 53308
L93500 53280
L93514 53252
L93528 53238
L93557 53224
L93627 53224
L93669 53238
" />
<path d="M93964 53491
L93950 53505
L93908 53519
L93880 53519
L93838 53505
L93810 53477
L93796 53449
L93782 53392
L93782 53350
L93796 53294
L93810 53266
L93838 53238
L93880 53224
L93908 53224
L93950 53238
L93964 53252
" />
<path d="M94232 53519
L94091 53519
L94091 53224
" />
<path d="M94330 53519
L94330 53224
" />
<path d="M94499 53519
L94372 53350
" />
<path d="M94499 53224
L94330 53392
" />
<path d="M91958 55874
L92141 55874
L92043 55986
L92085 55986
L92113 56000
L92127 56014
L92141 56042
L92141 56113
L92127 56141
L92113 56155
L92085 56169
L92000 56169
L91972 56155
L91958 56141
" />
<path d="M92478 55860
L92225 56239
" />
<path d="M92732 56169
L92563 56169
" />
<path d="M92647 56169
L92647 55874
L92619 55916
L92591 55944
L92563 55958
" />
<path d="M92956 56014
L92999 56028
L93013 56042
L93027 56071
L93027 56113
L93013 56141
L92999 56155
L92971 56169
L92858 56169
L92858 55874
L92956 55874
L92985 55888
L92999 55902
L93013 55930
L93013 55958
L92999 55986
L92985 56000
L92956 56014
L92858 56014
" />
<path d="M93415 55902
L93429 55888
L93457 55874
L93528 55874
L93556 55888
L93570 55902
L93584 55930
L93584 55958
L93570 56000
L93401 56169
L93584 56169
" />
<path d="M94457 56169
L94289 56169
" />
<path d="M94373 56169
L94373 55874
L94345 55916
L94317 55944
L94289 55958
" />
<path d="M94570 56085
L94710 56085
" />
<path d="M94542 56169
L94640 55874
L94739 56169
" />
<path d="M95485 55824
L95514 55824
L95542 55838
L95556 55852
L95570 55880
L95584 55936
L95584 56007
L95570 56063
L95556 56091
L95542 56105
L95514 56119
L95485 56119
L95457 56105
L95443 56091
L95429 56063
L95415 56007
L95415 55936
L95429 55880
L95443 55852
L95457 55838
L95485 55824
" />
<path d="M65469 54449
L65328 54547
" />
<path d="M65469 54617
L65174 54617
L65174 54505
L65188 54477
L65202 54463
L65230 54449
L65272 54449
L65300 54463
L65314 54477
L65328 54505
L65328 54617
" />
<path d="M65469 54308
L65469 54252
L65455 54224
L65441 54210
L65399 54182
L65342 54167
L65230 54167
L65202 54182
L65188 54196
L65174 54224
L65174 54280
L65188 54308
L65202 54322
L65230 54336
L65300 54336
L65328 54322
L65342 54308
L65357 54280
L65357 54224
L65342 54196
L65328 54182
L65300 54167
" />
<path d="M64719 52813
L64719 52982
" />
<path d="M64719 52897
L64424 52897
L64466 52925
L64494 52953
L64508 52982
" />
<path d="M64719 52686
L64424 52686
" />
<path d="M64719 52517
L64550 52644
" />
<path d="M64424 52517
L64592 52686
" />
<path d="M85150 48119
L85052 47978
" />
<path d="M84982 48119
L84982 47824
L85094 47824
L85122 47838
L85136 47852
L85150 47880
L85150 47922
L85136 47950
L85122 47964
L85094 47978
L84982 47978
" />
<path d="M85432 48119
L85263 48119
" />
<path d="M85347 48119
L85347 47824
L85319 47866
L85291 47894
L85263 47908
" />
<path d="M85275 48652
L85289 48638
L85317 48624
L85387 48624
L85415 48638
L85429 48652
L85443 48680
L85443 48708
L85429 48750
L85260 48919
L85443 48919
" />
<path d="M85626 48624
L85654 48624
L85682 48638
L85696 48652
L85710 48680
L85724 48736
L85724 48807
L85710 48863
L85696 48891
L85682 48905
L85654 48919
L85626 48919
L85598 48905
L85584 48891
L85570 48863
L85556 48807
L85556 48736
L85570 48680
L85584 48652
L85598 48638
L85626 48624
" />
<path d="M87150 58519
L87052 58378
" />
<path d="M86982 58519
L86982 58224
L87094 58224
L87122 58238
L87136 58252
L87150 58280
L87150 58322
L87136 58350
L87122 58364
L87094 58378
L86982 58378
" />
<path d="M87263 58252
L87277 58238
L87305 58224
L87375 58224
L87403 58238
L87417 58252
L87432 58280
L87432 58308
L87417 58350
L87249 58519
L87432 58519
" />
<path d="M86267 57722
L86267 57919
" />
<path d="M86197 57610
L86127 57821
L86310 57821
" />
<path d="M86422 57919
L86422 57624
" />
<path d="M86591 57919
L86464 57750
" />
<path d="M86591 57624
L86422 57792
" />
<path d="M86689 57624
L86886 57624
L86760 57919
" />
<path d="M74569 46049
L74428 46147
" />
<path d="M74569 46217
L74274 46217
L74274 46105
L74288 46077
L74302 46063
L74330 46049
L74372 46049
L74400 46063
L74414 46077
L74428 46105
L74428 46217
" />
<path d="M74274 45950
L74274 45767
L74386 45866
L74386 45824
L74400 45796
L74414 45782
L74442 45767
L74513 45767
L74541 45782
L74555 45796
L74569 45824
L74569 45908
L74555 45936
L74541 45950
" />
<path d="M75169 47146
L75169 47315
" />
<path d="M75169 47231
L74874 47231
L74916 47259
L74944 47287
L74958 47315
" />
<path d="M74874 46964
L74874 46935
L74888 46907
L74902 46893
L74930 46879
L74986 46865
L75057 46865
L75113 46879
L75141 46893
L75155 46907
L75169 46935
L75169 46964
L75155 46992
L75141 47006
L75113 47020
L75057 47034
L74986 47034
L74930 47020
L74902 47006
L74888 46992
L74874 46964
" />
<path d="M74874 46682
L74874 46654
L74888 46626
L74902 46612
L74930 46598
L74986 46584
L75057 46584
L75113 46598
L75141 46612
L75155 46626
L75169 46654
L75169 46682
L75155 46710
L75141 46725
L75113 46739
L75057 46753
L74986 46753
L74930 46739
L74902 46725
L74888 46710
L74874 46682
" />
<path d="M66450 56269
L66352 56128
" />
<path d="M66282 56269
L66282 55974
L66394 55974
L66422 55988
L66436 56002
L66450 56030
L66450 56072
L66436 56100
L66422 56114
L66394 56128
L66282 56128
" />
<path d="M66549 55974
L66746 55974
L66619 56269
" />
<path d="M66035 55402
L66050 55388
L66078 55374
L66148 55374
L66176 55388
L66190 55402
L66204 55430
L66204 55458
L66190 55500
L66021 55669
L66204 55669
" />
<path d="M66331 55641
L66345 55655
L66331 55669
L66317 55655
L66331 55641
L66331 55669
" />
<path d="M66443 55374
L66640 55374
L66514 55669
" />
<path d="M66753 55669
L66753 55374
L66851 55585
L66949 55374
L66949 55669
" />
<path d="M70150 56319
L70052 56178
" />
<path d="M69982 56319
L69982 56024
L70094 56024
L70122 56038
L70136 56052
L70150 56080
L70150 56122
L70136 56150
L70122 56164
L70094 56178
L69982 56178
" />
<path d="M70417 56024
L70277 56024
L70263 56164
L70277 56150
L70305 56136
L70375 56136
L70403 56150
L70417 56164
L70432 56192
L70432 56263
L70417 56291
L70403 56305
L70375 56319
L70305 56319
L70277 56305
L70263 56291
" />
<path d="M70155 55569
L69986 55569
" />
<path d="M70071 55569
L70071 55274
L70043 55316
L70014 55344
L69986 55358
" />
<path d="M70422 55274
L70282 55274
L70267 55414
L70282 55400
L70310 55386
L70380 55386
L70408 55400
L70422 55414
L70436 55442
L70436 55513
L70422 55541
L70408 55555
L70380 55569
L70310 55569
L70282 55555
L70267 55541
" />
<path d="M70619 55274
L70647 55274
L70675 55288
L70689 55302
L70703 55330
L70717 55386
L70717 55457
L70703 55513
L70689 55541
L70675 55555
L70647 55569
L70619 55569
L70591 55555
L70577 55541
L70563 55513
L70549 55457
L70549 55386
L70563 55330
L70577 55302
L70591 55288
L70619 55274
" />
<path d="M70844 55569
L70844 55274
" />
<path d="M71013 55569
L70886 55400
" />
<path d="M71013 55274
L70844 55442
" />
<path d="M72019 54049
L71878 54147
" />
<path d="M72019 54217
L71724 54217
L71724 54105
L71738 54077
L71752 54063
L71780 54049
L71822 54049
L71850 54063
L71864 54077
L71878 54105
L71878 54217
" />
<path d="M71822 53796
L72019 53796
" />
<path d="M71710 53866
L71921 53936
L71921 53753
" />
<path d="M71222 53232
L71419 53232
" />
<path d="M71110 53302
L71321 53372
L71321 53189
" />
<path d="M71419 53077
L71124 53077
" />
<path d="M71419 52908
L71250 53035
" />
<path d="M71124 52908
L71292 53077
" />
<path d="M71124 52810
L71124 52613
L71419 52739
" />
<path d="M84182 58719
L84182 58424
L84294 58424
L84322 58438
L84336 58452
L84350 58480
L84350 58522
L84336 58550
L84322 58564
L84294 58578
L84182 58578
" />
<path d="M84463 58452
L84477 58438
L84505 58424
L84575 58424
L84603 58438
L84617 58452
L84632 58480
L84632 58508
L84617 58550
L84449 58719
L84632 58719
" />
<path d="M80275 58788
L80246 58774
L80204 58774
L80162 58788
L80134 58816
L80120 58844
L80106 58900
L80106 58942
L80120 58999
L80134 59027
L80162 59055
L80204 59069
L80232 59069
L80275 59055
L80289 59041
L80289 58942
L80232 58942
" />
<path d="M80415 59069
L80415 58774
L80584 59069
L80584 58774
" />
<path d="M80724 59069
L80724 58774
L80795 58774
L80837 58788
L80865 58816
L80879 58844
L80893 58900
L80893 58942
L80879 58999
L80865 59027
L80837 59055
L80795 59069
L80724 59069
" />
<path d="M81338 59069
L81239 58928
" />
<path d="M81169 59069
L81169 58774
L81282 58774
L81310 58788
L81324 58802
L81338 58830
L81338 58872
L81324 58900
L81310 58914
L81282 58928
L81169 58928
" />
<path d="M81450 59055
L81492 59069
L81563 59069
L81591 59055
L81605 59041
L81619 59013
L81619 58985
L81605 58957
L81591 58942
L81563 58928
L81507 58914
L81478 58900
L81464 58886
L81450 58858
L81450 58830
L81464 58802
L81478 58788
L81507 58774
L81577 58774
L81619 58788
" />
<path d="M81703 58774
L81872 58774
" />
<path d="M81788 59069
L81788 58774
" />
<path d="M82262 58774
L82431 58774
" />
<path d="M82346 59069
L82346 58774
" />
<path d="M82515 59055
L82557 59069
L82628 59069
L82656 59055
L82670 59041
L82684 59013
L82684 58985
L82670 58957
L82656 58942
L82628 58928
L82571 58914
L82543 58900
L82529 58886
L82515 58858
L82515 58830
L82529 58802
L82543 58788
L82571 58774
L82642 58774
L82684 58788
" />
<path d="M82768 58774
L82937 58774
" />
<path d="M82853 59069
L82853 58774
" />
<path d="M83310 58957
L83535 58957
" />
<path d="M83423 59069
L83423 58844
" />
<path d="M83634 58774
L83732 59069
L83831 58774
" />
<path d="M67421 50997
L67393 50983
L67365 50955
L67323 50913
L67295 50899
L67267 50899
" />
<path d="M67281 50969
L67253 50955
L67225 50927
L67210 50871
L67210 50772
L67225 50716
L67253 50688
L67281 50674
L67337 50674
L67365 50688
L67393 50716
L67407 50772
L67407 50871
L67393 50927
L67365 50955
L67337 50969
L67281 50969
" />
<path d="M67689 50969
L67520 50969
" />
<path d="M67604 50969
L67604 50674
L67576 50716
L67548 50744
L67520 50758
" />
<path d="M71415 50505
L71457 50519
L71528 50519
L71556 50505
L71570 50491
L71584 50463
L71584 50435
L71570 50407
L71556 50392
L71528 50378
L71471 50364
L71443 50350
L71429 50336
L71415 50308
L71415 50280
L71429 50252
L71443 50238
L71471 50224
L71542 50224
L71584 50238
" />
<path d="M69172 50569
L69172 50274
L69242 50274
L69285 50288
L69313 50316
L69327 50344
L69341 50400
L69341 50442
L69327 50499
L69313 50527
L69285 50555
L69242 50569
L69172 50569
" />
<path d="M68177 50238
L68149 50224
L68107 50224
L68064 50238
L68036 50266
L68022 50294
L68008 50350
L68008 50392
L68022 50449
L68036 50477
L68064 50505
L68107 50519
L68135 50519
L68177 50505
L68191 50491
L68191 50392
L68135 50392
" />
<path d="M87682 46619
L87682 46324
L87794 46324
L87822 46338
L87836 46352
L87850 46380
L87850 46422
L87836 46450
L87822 46464
L87794 46478
L87682 46478
" />
<path d="M88132 46619
L87963 46619
" />
<path d="M88047 46619
L88047 46324
L88019 46366
L87991 46394
L87963 46408
" />
</g> 
</svg>
