G04 (created by PCBNEW (2012-nov-02)-testing) date Mon 07 Jan 2013 10:52:30 PM PST*
%MOIN*%
G04 Gerber Fmt 3.4, Leading zero omitted, Abs format*
%FSLAX34Y34*%
G01*
G70*
G90*
G04 APERTURE LIST*
%ADD10C,0.0137795*%
%ADD11C,0.01*%
%ADD12C,0.0059*%
%ADD13R,0.055X0.055*%
%ADD14C,0.055*%
%ADD15R,0.075X0.075*%
%ADD16C,0.075*%
%ADD17R,0.06X0.06*%
%ADD18C,0.06*%
%ADD19C,0.07*%
%ADD20R,0.07X0.07*%
G04 APERTURE END LIST*
G54D10*
G54D11*
X34416Y16250D02*
G75*
G03X34416Y16250I-666J0D01*
G74*
G01*
X32750Y16250D02*
X34750Y16250D01*
X33750Y17250D02*
X33750Y15250D01*
X-583Y-1250D02*
G75*
G03X-583Y-1250I-666J0D01*
G74*
G01*
X-2250Y-1250D02*
X-250Y-1250D01*
X-1250Y-250D02*
X-1250Y-2250D01*
G54D12*
X32500Y0D02*
X0Y0D01*
X0Y0D02*
X0Y15000D01*
X32500Y15000D02*
X32500Y0D01*
X0Y15000D02*
X32500Y15000D01*
G54D13*
X27000Y11250D03*
G54D14*
X27000Y10250D03*
X27000Y9250D03*
X27000Y8250D03*
X27000Y7250D03*
X27000Y6250D03*
X27000Y5250D03*
X27000Y4250D03*
X27000Y3250D03*
X27000Y2250D03*
G54D13*
X26000Y11250D03*
G54D14*
X26000Y10250D03*
X26000Y9250D03*
X26000Y8250D03*
X26000Y7250D03*
X26000Y6250D03*
X26000Y5250D03*
X26000Y4250D03*
X26000Y3250D03*
X26000Y2250D03*
G54D13*
X10000Y11250D03*
G54D14*
X10000Y10250D03*
X10000Y9250D03*
X10000Y8250D03*
X10000Y7250D03*
X10000Y6250D03*
X10000Y5250D03*
X10000Y4250D03*
X10000Y3250D03*
X10000Y2250D03*
G54D13*
X9000Y11250D03*
G54D14*
X9000Y10250D03*
X9000Y9250D03*
X9000Y8250D03*
X9000Y7250D03*
X9000Y6250D03*
X9000Y5250D03*
X9000Y4250D03*
X9000Y3250D03*
X9000Y2250D03*
G54D13*
X28750Y13500D03*
G54D14*
X27750Y13500D03*
X26750Y13500D03*
G54D15*
X750Y13500D03*
G54D16*
X2750Y13500D03*
G54D13*
X3000Y4750D03*
G54D14*
X4000Y4750D03*
X5000Y4750D03*
X6000Y4750D03*
X6000Y7750D03*
X5000Y7750D03*
X4000Y7750D03*
X3000Y7750D03*
G54D13*
X21500Y5250D03*
G54D14*
X20500Y5250D03*
X19500Y5250D03*
X18500Y5250D03*
X17500Y5250D03*
X16500Y5250D03*
X15500Y5250D03*
X14500Y5250D03*
X13500Y5250D03*
X12500Y5250D03*
X12500Y2250D03*
X13500Y2250D03*
X14500Y2250D03*
X15500Y2250D03*
X16500Y2250D03*
X17500Y2250D03*
X18500Y2250D03*
X19500Y2250D03*
X20500Y2250D03*
X21500Y2250D03*
G54D13*
X21500Y9500D03*
G54D14*
X20500Y9500D03*
X19500Y9500D03*
X18500Y9500D03*
X17500Y9500D03*
X16500Y9500D03*
X15500Y9500D03*
X14500Y9500D03*
X13500Y9500D03*
X12500Y9500D03*
X12500Y6500D03*
X13500Y6500D03*
X14500Y6500D03*
X15500Y6500D03*
X16500Y6500D03*
X17500Y6500D03*
X18500Y6500D03*
X19500Y6500D03*
X20500Y6500D03*
X21500Y6500D03*
G54D13*
X3000Y12000D03*
G54D14*
X3000Y9000D03*
G54D13*
X14500Y13500D03*
G54D14*
X13500Y13500D03*
X12500Y13500D03*
X12500Y10500D03*
X13500Y10500D03*
X14500Y10500D03*
G54D17*
X1250Y10500D03*
G54D18*
X1250Y9500D03*
G54D14*
X4000Y2500D03*
X5000Y2500D03*
G54D13*
X6000Y1250D03*
G54D14*
X3000Y1250D03*
X1750Y6750D03*
X1750Y5750D03*
G54D19*
X4750Y11250D03*
G54D20*
X6750Y11250D03*
G54D14*
X7500Y2500D03*
X7500Y1500D03*
X7500Y14250D03*
X8500Y14250D03*
X23250Y3250D03*
X23250Y4250D03*
X23250Y7500D03*
X23250Y8500D03*
G54D17*
X6000Y13750D03*
G54D18*
X5000Y13750D03*
G54D17*
X31500Y8250D03*
G54D18*
X31500Y7250D03*
X30500Y8250D03*
X30500Y7250D03*
X29500Y8250D03*
X29500Y7250D03*
X28500Y8250D03*
X28500Y7250D03*
G54D17*
X31500Y11500D03*
G54D18*
X31500Y10500D03*
X30500Y11500D03*
X30500Y10500D03*
X29500Y11500D03*
X29500Y10500D03*
X28500Y11500D03*
X28500Y10500D03*
G54D17*
X31500Y5000D03*
G54D18*
X31500Y4000D03*
X30500Y5000D03*
X30500Y4000D03*
X29500Y5000D03*
X29500Y4000D03*
X28500Y5000D03*
X28500Y4000D03*
G54D14*
X650Y8000D03*
X650Y5000D03*
X20000Y10500D03*
X23000Y10500D03*
X21000Y1500D03*
X24000Y1500D03*
X11100Y13800D03*
X11100Y10800D03*
X1000Y3750D03*
X4000Y3750D03*
X8000Y3750D03*
X5000Y3750D03*
X7250Y4750D03*
X7250Y7750D03*
G54D13*
X19500Y1000D03*
G54D14*
X18500Y1000D03*
X17500Y1000D03*
X16500Y1000D03*
G54D19*
X4750Y9250D03*
X5750Y9250D03*
G54D20*
X6750Y9250D03*
G54D17*
X17000Y12250D03*
G54D18*
X17000Y13250D03*
X18000Y12250D03*
X18000Y13250D03*
X19000Y12250D03*
X19000Y13250D03*
X20000Y12250D03*
X20000Y13250D03*
X21000Y12250D03*
X21000Y13250D03*
X22000Y12250D03*
X22000Y13250D03*
X23000Y12250D03*
X23000Y13250D03*
M02*
