G04 (created by PCBNEW (2012-nov-02)-testing) date Mon 07 Jan 2013 10:52:30 PM PST*
%MOIN*%
G04 Gerber Fmt 3.4, Leading zero omitted, Abs format*
%FSLAX34Y34*%
G01*
G70*
G90*
G04 APERTURE LIST*
%ADD10C,0.0137795*%
%ADD11C,0.01*%
%ADD12C,0.0059*%
%ADD13C,0.012*%
%ADD14C,0.015*%
%ADD15C,0.005*%
%ADD16C,0.008*%
%ADD17C,0.00590551*%
%ADD18R,0.055X0.055*%
%ADD19C,0.055*%
%ADD20R,0.075X0.075*%
%ADD21C,0.075*%
%ADD22R,0.06X0.06*%
%ADD23C,0.06*%
%ADD24C,0.07*%
%ADD25R,0.07X0.07*%
G04 APERTURE END LIST*
G54D10*
G54D11*
X34416Y16250D02*
G75*
G03X34416Y16250I-666J0D01*
G74*
G01*
X32750Y16250D02*
X34750Y16250D01*
X33750Y17250D02*
X33750Y15250D01*
X-583Y-1250D02*
G75*
G03X-583Y-1250I-666J0D01*
G74*
G01*
X-2250Y-1250D02*
X-250Y-1250D01*
X-1250Y-250D02*
X-1250Y-2250D01*
G54D12*
X32500Y0D02*
X0Y0D01*
X0Y0D02*
X0Y15000D01*
X32500Y15000D02*
X32500Y0D01*
X0Y15000D02*
X32500Y15000D01*
G54D13*
X26500Y11750D02*
X27500Y11750D01*
X27500Y11750D02*
X27500Y1750D01*
X27500Y1750D02*
X26500Y1750D01*
X26500Y1750D02*
X26500Y11750D01*
X26500Y10750D02*
X27500Y10750D01*
X25500Y11750D02*
X26500Y11750D01*
X26500Y11750D02*
X26500Y1750D01*
X26500Y1750D02*
X25500Y1750D01*
X25500Y1750D02*
X25500Y11750D01*
X25500Y10750D02*
X26500Y10750D01*
X9500Y11750D02*
X10500Y11750D01*
X10500Y11750D02*
X10500Y1750D01*
X10500Y1750D02*
X9500Y1750D01*
X9500Y1750D02*
X9500Y11750D01*
X9500Y10750D02*
X10500Y10750D01*
X8500Y11750D02*
X9500Y11750D01*
X9500Y11750D02*
X9500Y1750D01*
X9500Y1750D02*
X8500Y1750D01*
X8500Y1750D02*
X8500Y11750D01*
X8500Y10750D02*
X9500Y10750D01*
X29250Y14000D02*
X29250Y13000D01*
X29250Y13000D02*
X26250Y13000D01*
X26250Y13000D02*
X26250Y14000D01*
X26250Y14000D02*
X29250Y14000D01*
X28250Y13000D02*
X28250Y14000D01*
G54D14*
X3250Y13500D02*
G75*
G03X3250Y13500I-1500J0D01*
G74*
G01*
G54D11*
X2500Y6750D02*
X3000Y6750D01*
X3000Y6750D02*
X3000Y5750D01*
X3000Y5750D02*
X2500Y5750D01*
X2500Y7250D02*
X6500Y7250D01*
X6500Y7250D02*
X6500Y5250D01*
X6500Y5250D02*
X2500Y5250D01*
X2500Y5250D02*
X2500Y7250D01*
G54D14*
X22500Y3250D02*
X22000Y3250D01*
X22000Y3250D02*
X22000Y4250D01*
X22000Y4250D02*
X22500Y4250D01*
X22500Y2750D02*
X11500Y2750D01*
X11500Y2750D02*
X11500Y4750D01*
X11500Y4750D02*
X22500Y4750D01*
X22500Y4750D02*
X22500Y2750D01*
X22500Y7500D02*
X22000Y7500D01*
X22000Y7500D02*
X22000Y8500D01*
X22000Y8500D02*
X22500Y8500D01*
X22500Y7000D02*
X11500Y7000D01*
X11500Y7000D02*
X11500Y9000D01*
X11500Y9000D02*
X22500Y9000D01*
X22500Y9000D02*
X22500Y7000D01*
G54D13*
X3000Y12000D02*
X3000Y11700D01*
X3000Y11700D02*
X2600Y11700D01*
X2600Y11700D02*
X2600Y9300D01*
X2600Y9300D02*
X3000Y9300D01*
X3000Y9300D02*
X3000Y9000D01*
X3000Y9300D02*
X3400Y9300D01*
X3400Y9300D02*
X3400Y11700D01*
X3400Y11700D02*
X3000Y11700D01*
X2600Y11500D02*
X3400Y11500D01*
X3400Y11400D02*
X2600Y11400D01*
G54D14*
X15250Y11000D02*
X11750Y11000D01*
X11750Y11000D02*
X11750Y13000D01*
X11750Y13000D02*
X15250Y13000D01*
X15250Y13000D02*
X15250Y11000D01*
X15250Y11750D02*
X14750Y11750D01*
X14750Y11750D02*
X14750Y12250D01*
X14750Y12250D02*
X15250Y12250D01*
G54D15*
X2500Y10000D02*
G75*
G03X2500Y10000I-1250J0D01*
G74*
G01*
G54D13*
X3520Y3000D02*
X5500Y3000D01*
X5500Y3000D02*
X5500Y2000D01*
X5500Y2000D02*
X3500Y2000D01*
X3500Y2000D02*
X3500Y3000D01*
X3500Y2750D02*
X3750Y3000D01*
X6000Y1250D02*
X5700Y1250D01*
X5700Y1250D02*
X5700Y1650D01*
X5700Y1650D02*
X3300Y1650D01*
X3300Y1650D02*
X3300Y1250D01*
X3300Y1250D02*
X3000Y1250D01*
X3300Y1250D02*
X3300Y850D01*
X3300Y850D02*
X5700Y850D01*
X5700Y850D02*
X5700Y1250D01*
X5500Y1650D02*
X5500Y850D01*
X5400Y850D02*
X5400Y1650D01*
X2250Y7230D02*
X2250Y5250D01*
X2250Y5250D02*
X1250Y5250D01*
X1250Y5250D02*
X1250Y7250D01*
X1250Y7250D02*
X2250Y7250D01*
X2000Y7250D02*
X2250Y7000D01*
G54D14*
X3750Y12000D02*
X3750Y12250D01*
X3750Y12250D02*
X7750Y12250D01*
X7750Y12250D02*
X7750Y12000D01*
X3750Y10500D02*
X3750Y12000D01*
X3750Y12000D02*
X7750Y12000D01*
X7750Y12000D02*
X7750Y10500D01*
X7750Y10500D02*
X3750Y10500D01*
G54D13*
X8000Y2980D02*
X8000Y1000D01*
X8000Y1000D02*
X7000Y1000D01*
X7000Y1000D02*
X7000Y3000D01*
X7000Y3000D02*
X8000Y3000D01*
X7750Y3000D02*
X8000Y2750D01*
X7020Y14750D02*
X9000Y14750D01*
X9000Y14750D02*
X9000Y13750D01*
X9000Y13750D02*
X7000Y13750D01*
X7000Y13750D02*
X7000Y14750D01*
X7000Y14500D02*
X7250Y14750D01*
X22750Y2770D02*
X22750Y4750D01*
X22750Y4750D02*
X23750Y4750D01*
X23750Y4750D02*
X23750Y2750D01*
X23750Y2750D02*
X22750Y2750D01*
X23000Y2750D02*
X22750Y3000D01*
X22750Y7020D02*
X22750Y9000D01*
X22750Y9000D02*
X23750Y9000D01*
X23750Y9000D02*
X23750Y7000D01*
X23750Y7000D02*
X22750Y7000D01*
X23000Y7000D02*
X22750Y7250D01*
G54D15*
X6750Y13750D02*
G75*
G03X6750Y13750I-1250J0D01*
G74*
G01*
G54D13*
X32000Y6750D02*
X28000Y6750D01*
X28000Y6750D02*
X28000Y8750D01*
X28000Y8750D02*
X32000Y8750D01*
X32000Y8750D02*
X32000Y6750D01*
X32000Y10000D02*
X28000Y10000D01*
X28000Y10000D02*
X28000Y12000D01*
X28000Y12000D02*
X32000Y12000D01*
X32000Y12000D02*
X32000Y10000D01*
X32000Y3500D02*
X28000Y3500D01*
X28000Y3500D02*
X28000Y5500D01*
X28000Y5500D02*
X32000Y5500D01*
X32000Y5500D02*
X32000Y3500D01*
G54D16*
X650Y8000D02*
X650Y7800D01*
X650Y5000D02*
X650Y5200D01*
X650Y5200D02*
X1050Y5200D01*
X1050Y5200D02*
X1050Y7800D01*
X1050Y7800D02*
X250Y7800D01*
X250Y7800D02*
X250Y5200D01*
X250Y5200D02*
X650Y5200D01*
X850Y7800D02*
X1050Y7600D01*
X20000Y10500D02*
X20200Y10500D01*
X23000Y10500D02*
X22800Y10500D01*
X22800Y10500D02*
X22800Y10900D01*
X22800Y10900D02*
X20200Y10900D01*
X20200Y10900D02*
X20200Y10100D01*
X20200Y10100D02*
X22800Y10100D01*
X22800Y10100D02*
X22800Y10500D01*
X20200Y10700D02*
X20400Y10900D01*
X21000Y1500D02*
X21200Y1500D01*
X24000Y1500D02*
X23800Y1500D01*
X23800Y1500D02*
X23800Y1900D01*
X23800Y1900D02*
X21200Y1900D01*
X21200Y1900D02*
X21200Y1100D01*
X21200Y1100D02*
X23800Y1100D01*
X23800Y1100D02*
X23800Y1500D01*
X21200Y1700D02*
X21400Y1900D01*
X11100Y13800D02*
X11100Y13600D01*
X11100Y10800D02*
X11100Y11000D01*
X11100Y11000D02*
X11500Y11000D01*
X11500Y11000D02*
X11500Y13600D01*
X11500Y13600D02*
X10700Y13600D01*
X10700Y13600D02*
X10700Y11000D01*
X10700Y11000D02*
X11100Y11000D01*
X11300Y13600D02*
X11500Y13400D01*
X1000Y3750D02*
X1200Y3750D01*
X4000Y3750D02*
X3800Y3750D01*
X3800Y3750D02*
X3800Y4150D01*
X3800Y4150D02*
X1200Y4150D01*
X1200Y4150D02*
X1200Y3350D01*
X1200Y3350D02*
X3800Y3350D01*
X3800Y3350D02*
X3800Y3750D01*
X1200Y3950D02*
X1400Y4150D01*
X8000Y3750D02*
X7800Y3750D01*
X5000Y3750D02*
X5200Y3750D01*
X5200Y3750D02*
X5200Y3350D01*
X5200Y3350D02*
X7800Y3350D01*
X7800Y3350D02*
X7800Y4150D01*
X7800Y4150D02*
X5200Y4150D01*
X5200Y4150D02*
X5200Y3750D01*
X7800Y3550D02*
X7600Y3350D01*
X7250Y4750D02*
X7250Y4950D01*
X7250Y7750D02*
X7250Y7550D01*
X7250Y7550D02*
X6850Y7550D01*
X6850Y7550D02*
X6850Y4950D01*
X6850Y4950D02*
X7650Y4950D01*
X7650Y4950D02*
X7650Y7550D01*
X7650Y7550D02*
X7250Y7550D01*
X7050Y4950D02*
X6850Y5150D01*
G54D13*
X20000Y500D02*
X20000Y500D01*
X20000Y1500D02*
X20000Y500D01*
X20000Y500D02*
X20000Y500D01*
X20000Y500D02*
X16000Y500D01*
X16000Y500D02*
X16000Y1500D01*
X16000Y1500D02*
X20000Y1500D01*
X19000Y1500D02*
X19000Y500D01*
G54D14*
X3750Y10000D02*
X3750Y10250D01*
X3750Y10250D02*
X7750Y10250D01*
X7750Y10250D02*
X7750Y10000D01*
X3750Y8500D02*
X3750Y10000D01*
X3750Y10000D02*
X7750Y10000D01*
X7750Y10000D02*
X7750Y8500D01*
X7750Y8500D02*
X3750Y8500D01*
G54D17*
X26901Y12175D02*
X26901Y11964D01*
X26887Y11922D01*
X26859Y11894D01*
X26817Y11880D01*
X26789Y11880D01*
X27028Y12147D02*
X27042Y12161D01*
X27070Y12175D01*
X27140Y12175D01*
X27168Y12161D01*
X27182Y12147D01*
X27196Y12119D01*
X27196Y12091D01*
X27182Y12049D01*
X27014Y11880D01*
X27196Y11880D01*
X25901Y12175D02*
X25901Y11964D01*
X25887Y11922D01*
X25859Y11894D01*
X25817Y11880D01*
X25789Y11880D01*
X26168Y12077D02*
X26168Y11880D01*
X26098Y12189D02*
X26028Y11978D01*
X26210Y11978D01*
X9901Y12175D02*
X9901Y11964D01*
X9887Y11922D01*
X9859Y11894D01*
X9817Y11880D01*
X9789Y11880D01*
X10014Y12175D02*
X10196Y12175D01*
X10098Y12063D01*
X10140Y12063D01*
X10168Y12049D01*
X10182Y12035D01*
X10196Y12007D01*
X10196Y11936D01*
X10182Y11908D01*
X10168Y11894D01*
X10140Y11880D01*
X10056Y11880D01*
X10028Y11894D01*
X10014Y11908D01*
X8901Y12175D02*
X8901Y11964D01*
X8887Y11922D01*
X8859Y11894D01*
X8817Y11880D01*
X8789Y11880D01*
X9196Y11880D02*
X9028Y11880D01*
X9112Y11880D02*
X9112Y12175D01*
X9084Y12133D01*
X9056Y12105D01*
X9028Y12091D01*
X27574Y12380D02*
X27475Y12521D01*
X27405Y12380D02*
X27405Y12675D01*
X27517Y12675D01*
X27546Y12661D01*
X27560Y12647D01*
X27574Y12619D01*
X27574Y12577D01*
X27560Y12549D01*
X27546Y12535D01*
X27517Y12521D01*
X27405Y12521D01*
X27658Y12675D02*
X27757Y12380D01*
X27855Y12675D01*
X28108Y12380D02*
X27939Y12380D01*
X28024Y12380D02*
X28024Y12675D01*
X27996Y12633D01*
X27967Y12605D01*
X27939Y12591D01*
X950Y11630D02*
X810Y11630D01*
X810Y11925D01*
X1203Y11630D02*
X1035Y11630D01*
X1119Y11630D02*
X1119Y11925D01*
X1091Y11883D01*
X1063Y11855D01*
X1035Y11841D01*
X1224Y14447D02*
X1238Y14461D01*
X1266Y14475D01*
X1336Y14475D01*
X1364Y14461D01*
X1378Y14447D01*
X1393Y14419D01*
X1393Y14391D01*
X1378Y14349D01*
X1210Y14180D01*
X1393Y14180D01*
X1505Y14447D02*
X1519Y14461D01*
X1547Y14475D01*
X1617Y14475D01*
X1646Y14461D01*
X1660Y14447D01*
X1674Y14419D01*
X1674Y14391D01*
X1660Y14349D01*
X1491Y14180D01*
X1674Y14180D01*
X2152Y14377D02*
X2152Y14180D01*
X2025Y14377D02*
X2025Y14222D01*
X2039Y14194D01*
X2067Y14180D01*
X2110Y14180D01*
X2138Y14194D01*
X2152Y14208D01*
X2292Y14180D02*
X2292Y14475D01*
X2292Y14335D02*
X2461Y14335D01*
X2461Y14180D02*
X2461Y14475D01*
X2074Y4525D02*
X2313Y4525D01*
X2341Y4539D01*
X2355Y4553D01*
X2369Y4581D01*
X2369Y4637D01*
X2355Y4665D01*
X2341Y4679D01*
X2313Y4693D01*
X2074Y4693D01*
X2369Y4989D02*
X2369Y4820D01*
X2369Y4904D02*
X2074Y4904D01*
X2116Y4876D01*
X2144Y4848D01*
X2158Y4820D01*
X3712Y6130D02*
X3712Y6425D01*
X3811Y6214D01*
X3909Y6425D01*
X3909Y6130D01*
X4035Y6214D02*
X4176Y6214D01*
X4007Y6130D02*
X4106Y6425D01*
X4204Y6130D01*
X4275Y6425D02*
X4471Y6130D01*
X4471Y6425D02*
X4275Y6130D01*
X4556Y6425D02*
X4753Y6425D01*
X4626Y6130D01*
X4837Y6425D02*
X5034Y6425D01*
X4907Y6130D01*
X5273Y6327D02*
X5273Y6130D01*
X5203Y6439D02*
X5132Y6228D01*
X5315Y6228D01*
X10775Y3925D02*
X10775Y3686D01*
X10789Y3658D01*
X10803Y3644D01*
X10831Y3630D01*
X10887Y3630D01*
X10915Y3644D01*
X10929Y3658D01*
X10943Y3686D01*
X10943Y3925D01*
X11056Y3925D02*
X11239Y3925D01*
X11140Y3813D01*
X11182Y3813D01*
X11210Y3799D01*
X11224Y3785D01*
X11239Y3757D01*
X11239Y3686D01*
X11224Y3658D01*
X11210Y3644D01*
X11182Y3630D01*
X11098Y3630D01*
X11070Y3644D01*
X11056Y3658D01*
X15731Y3380D02*
X15731Y3675D01*
X15829Y3464D01*
X15928Y3675D01*
X15928Y3380D01*
X16054Y3394D02*
X16097Y3380D01*
X16167Y3380D01*
X16195Y3394D01*
X16209Y3408D01*
X16223Y3436D01*
X16223Y3464D01*
X16209Y3492D01*
X16195Y3507D01*
X16167Y3521D01*
X16111Y3535D01*
X16082Y3549D01*
X16068Y3563D01*
X16054Y3591D01*
X16054Y3619D01*
X16068Y3647D01*
X16082Y3661D01*
X16111Y3675D01*
X16181Y3675D01*
X16223Y3661D01*
X16350Y3380D02*
X16350Y3675D01*
X16462Y3675D01*
X16490Y3661D01*
X16504Y3647D01*
X16518Y3619D01*
X16518Y3577D01*
X16504Y3549D01*
X16490Y3535D01*
X16462Y3521D01*
X16350Y3521D01*
X16771Y3577D02*
X16771Y3380D01*
X16701Y3689D02*
X16631Y3478D01*
X16814Y3478D01*
X16898Y3675D02*
X17081Y3675D01*
X16982Y3563D01*
X17025Y3563D01*
X17053Y3549D01*
X17067Y3535D01*
X17081Y3507D01*
X17081Y3436D01*
X17067Y3408D01*
X17053Y3394D01*
X17025Y3380D01*
X16940Y3380D01*
X16912Y3394D01*
X16898Y3408D01*
X17264Y3675D02*
X17292Y3675D01*
X17320Y3661D01*
X17334Y3647D01*
X17348Y3619D01*
X17362Y3563D01*
X17362Y3492D01*
X17348Y3436D01*
X17334Y3408D01*
X17320Y3394D01*
X17292Y3380D01*
X17264Y3380D01*
X17235Y3394D01*
X17221Y3408D01*
X17207Y3436D01*
X17193Y3492D01*
X17193Y3563D01*
X17207Y3619D01*
X17221Y3647D01*
X17235Y3661D01*
X17264Y3675D01*
X17643Y3661D02*
X17615Y3675D01*
X17573Y3675D01*
X17531Y3661D01*
X17503Y3633D01*
X17489Y3605D01*
X17474Y3549D01*
X17474Y3507D01*
X17489Y3450D01*
X17503Y3422D01*
X17531Y3394D01*
X17573Y3380D01*
X17601Y3380D01*
X17643Y3394D01*
X17657Y3408D01*
X17657Y3507D01*
X17601Y3507D01*
X17770Y3647D02*
X17784Y3661D01*
X17812Y3675D01*
X17882Y3675D01*
X17910Y3661D01*
X17924Y3647D01*
X17938Y3619D01*
X17938Y3591D01*
X17924Y3549D01*
X17756Y3380D01*
X17938Y3380D01*
X18192Y3577D02*
X18192Y3380D01*
X18121Y3689D02*
X18051Y3478D01*
X18234Y3478D01*
X18487Y3675D02*
X18346Y3675D01*
X18332Y3535D01*
X18346Y3549D01*
X18374Y3563D01*
X18445Y3563D01*
X18473Y3549D01*
X18487Y3535D01*
X18501Y3507D01*
X18501Y3436D01*
X18487Y3408D01*
X18473Y3394D01*
X18445Y3380D01*
X18374Y3380D01*
X18346Y3394D01*
X18332Y3408D01*
X18613Y3647D02*
X18627Y3661D01*
X18656Y3675D01*
X18726Y3675D01*
X18754Y3661D01*
X18768Y3647D01*
X18782Y3619D01*
X18782Y3591D01*
X18768Y3549D01*
X18599Y3380D01*
X18782Y3380D01*
X10775Y8175D02*
X10775Y7936D01*
X10789Y7908D01*
X10803Y7894D01*
X10831Y7880D01*
X10887Y7880D01*
X10915Y7894D01*
X10929Y7908D01*
X10943Y7936D01*
X10943Y8175D01*
X11070Y8147D02*
X11084Y8161D01*
X11112Y8175D01*
X11182Y8175D01*
X11210Y8161D01*
X11224Y8147D01*
X11239Y8119D01*
X11239Y8091D01*
X11224Y8049D01*
X11056Y7880D01*
X11239Y7880D01*
X15329Y8175D02*
X15525Y8175D01*
X15399Y7880D01*
X15764Y8077D02*
X15764Y7880D01*
X15694Y8189D02*
X15624Y7978D01*
X15807Y7978D01*
X16060Y7880D02*
X15919Y7880D01*
X15919Y8175D01*
X16144Y7894D02*
X16186Y7880D01*
X16257Y7880D01*
X16285Y7894D01*
X16299Y7908D01*
X16313Y7936D01*
X16313Y7964D01*
X16299Y7992D01*
X16285Y8007D01*
X16257Y8021D01*
X16200Y8035D01*
X16172Y8049D01*
X16158Y8063D01*
X16144Y8091D01*
X16144Y8119D01*
X16158Y8147D01*
X16172Y8161D01*
X16200Y8175D01*
X16271Y8175D01*
X16313Y8161D01*
X16425Y8147D02*
X16439Y8161D01*
X16467Y8175D01*
X16538Y8175D01*
X16566Y8161D01*
X16580Y8147D01*
X16594Y8119D01*
X16594Y8091D01*
X16580Y8049D01*
X16411Y7880D01*
X16594Y7880D01*
X16847Y8077D02*
X16847Y7880D01*
X16777Y8189D02*
X16706Y7978D01*
X16889Y7978D01*
X17142Y8175D02*
X17002Y8175D01*
X16988Y8035D01*
X17002Y8049D01*
X17030Y8063D01*
X17100Y8063D01*
X17128Y8049D01*
X17142Y8035D01*
X17156Y8007D01*
X17156Y7936D01*
X17142Y7908D01*
X17128Y7894D01*
X17100Y7880D01*
X17030Y7880D01*
X17002Y7894D01*
X16988Y7908D01*
X2419Y11182D02*
X2124Y11182D01*
X2124Y11252D01*
X2138Y11294D01*
X2166Y11322D01*
X2194Y11336D01*
X2250Y11350D01*
X2292Y11350D01*
X2349Y11336D01*
X2377Y11322D01*
X2405Y11294D01*
X2419Y11252D01*
X2419Y11182D01*
X2419Y11632D02*
X2419Y11463D01*
X2419Y11547D02*
X2124Y11547D01*
X2166Y11519D01*
X2194Y11491D01*
X2208Y11463D01*
X16119Y11711D02*
X15824Y11711D01*
X16091Y12021D02*
X16105Y12007D01*
X16119Y11964D01*
X16119Y11936D01*
X16105Y11894D01*
X16077Y11866D01*
X16049Y11852D01*
X15992Y11838D01*
X15950Y11838D01*
X15894Y11852D01*
X15866Y11866D01*
X15838Y11894D01*
X15824Y11936D01*
X15824Y11964D01*
X15838Y12007D01*
X15852Y12021D01*
X16119Y12302D02*
X16119Y12133D01*
X16119Y12217D02*
X15824Y12217D01*
X15866Y12189D01*
X15894Y12161D01*
X15908Y12133D01*
X13120Y12077D02*
X13120Y11880D01*
X13050Y12189D02*
X12979Y11978D01*
X13162Y11978D01*
X13275Y11880D02*
X13275Y12175D01*
X13443Y11880D01*
X13443Y12175D01*
X13570Y12147D02*
X13584Y12161D01*
X13612Y12175D01*
X13682Y12175D01*
X13710Y12161D01*
X13724Y12147D01*
X13739Y12119D01*
X13739Y12091D01*
X13724Y12049D01*
X13556Y11880D01*
X13739Y11880D01*
X13992Y12175D02*
X13935Y12175D01*
X13907Y12161D01*
X13893Y12147D01*
X13865Y12105D01*
X13851Y12049D01*
X13851Y11936D01*
X13865Y11908D01*
X13879Y11894D01*
X13907Y11880D01*
X13964Y11880D01*
X13992Y11894D01*
X14006Y11908D01*
X14020Y11936D01*
X14020Y12007D01*
X14006Y12035D01*
X13992Y12049D01*
X13964Y12063D01*
X13907Y12063D01*
X13879Y12049D01*
X13865Y12035D01*
X13851Y12007D01*
X391Y8650D02*
X405Y8636D01*
X419Y8594D01*
X419Y8566D01*
X405Y8524D01*
X377Y8496D01*
X349Y8482D01*
X292Y8467D01*
X250Y8467D01*
X194Y8482D01*
X166Y8496D01*
X138Y8524D01*
X124Y8566D01*
X124Y8594D01*
X138Y8636D01*
X152Y8650D01*
X419Y8791D02*
X419Y8847D01*
X405Y8875D01*
X391Y8889D01*
X349Y8917D01*
X292Y8932D01*
X180Y8932D01*
X152Y8917D01*
X138Y8903D01*
X124Y8875D01*
X124Y8819D01*
X138Y8791D01*
X152Y8777D01*
X180Y8763D01*
X250Y8763D01*
X278Y8777D01*
X292Y8791D01*
X307Y8819D01*
X307Y8875D01*
X292Y8903D01*
X278Y8917D01*
X250Y8932D01*
X1772Y9543D02*
X1969Y9543D01*
X1660Y9472D02*
X1871Y9402D01*
X1871Y9585D01*
X1674Y9669D02*
X1674Y9866D01*
X1969Y9739D01*
X1772Y10330D02*
X1969Y10330D01*
X1772Y10203D02*
X1927Y10203D01*
X1955Y10217D01*
X1969Y10246D01*
X1969Y10288D01*
X1955Y10316D01*
X1941Y10330D01*
X1814Y10569D02*
X1814Y10471D01*
X1969Y10471D02*
X1674Y10471D01*
X1674Y10611D01*
X1257Y10887D02*
X1257Y11112D01*
X1369Y11000D02*
X1144Y11000D01*
X5800Y2158D02*
X5786Y2144D01*
X5744Y2130D01*
X5716Y2130D01*
X5674Y2144D01*
X5646Y2172D01*
X5632Y2200D01*
X5617Y2257D01*
X5617Y2299D01*
X5632Y2355D01*
X5646Y2383D01*
X5674Y2411D01*
X5716Y2425D01*
X5744Y2425D01*
X5786Y2411D01*
X5800Y2397D01*
X6053Y2425D02*
X5997Y2425D01*
X5969Y2411D01*
X5955Y2397D01*
X5927Y2355D01*
X5913Y2299D01*
X5913Y2186D01*
X5927Y2158D01*
X5941Y2144D01*
X5969Y2130D01*
X6025Y2130D01*
X6053Y2144D01*
X6067Y2158D01*
X6082Y2186D01*
X6082Y2257D01*
X6067Y2285D01*
X6053Y2299D01*
X6025Y2313D01*
X5969Y2313D01*
X5941Y2299D01*
X5927Y2285D01*
X5913Y2257D01*
X3382Y430D02*
X3382Y725D01*
X3452Y725D01*
X3494Y711D01*
X3522Y683D01*
X3536Y655D01*
X3550Y599D01*
X3550Y557D01*
X3536Y500D01*
X3522Y472D01*
X3494Y444D01*
X3452Y430D01*
X3382Y430D01*
X3663Y697D02*
X3677Y711D01*
X3705Y725D01*
X3775Y725D01*
X3803Y711D01*
X3817Y697D01*
X3832Y669D01*
X3832Y641D01*
X3817Y599D01*
X3649Y430D01*
X3832Y430D01*
X1700Y7658D02*
X1686Y7644D01*
X1644Y7630D01*
X1616Y7630D01*
X1574Y7644D01*
X1546Y7672D01*
X1532Y7700D01*
X1517Y7757D01*
X1517Y7799D01*
X1532Y7855D01*
X1546Y7883D01*
X1574Y7911D01*
X1616Y7925D01*
X1644Y7925D01*
X1686Y7911D01*
X1700Y7897D01*
X1799Y7925D02*
X1996Y7925D01*
X1869Y7630D01*
X31010Y3630D02*
X31010Y3925D01*
X31109Y3714D01*
X31207Y3925D01*
X31207Y3630D01*
X31334Y3897D02*
X31348Y3911D01*
X31376Y3925D01*
X31446Y3925D01*
X31474Y3911D01*
X31489Y3897D01*
X31503Y3869D01*
X31503Y3841D01*
X31489Y3799D01*
X31320Y3630D01*
X31503Y3630D01*
X4000Y12380D02*
X3902Y12521D01*
X3832Y12380D02*
X3832Y12675D01*
X3944Y12675D01*
X3972Y12661D01*
X3986Y12647D01*
X4000Y12619D01*
X4000Y12577D01*
X3986Y12549D01*
X3972Y12535D01*
X3944Y12521D01*
X3832Y12521D01*
X4253Y12675D02*
X4197Y12675D01*
X4169Y12661D01*
X4155Y12647D01*
X4127Y12605D01*
X4113Y12549D01*
X4113Y12436D01*
X4127Y12408D01*
X4141Y12394D01*
X4169Y12380D01*
X4225Y12380D01*
X4253Y12394D01*
X4267Y12408D01*
X4282Y12436D01*
X4282Y12507D01*
X4267Y12535D01*
X4253Y12549D01*
X4225Y12563D01*
X4169Y12563D01*
X4141Y12549D01*
X4127Y12535D01*
X4113Y12507D01*
X5525Y11425D02*
X5553Y11425D01*
X5581Y11411D01*
X5595Y11397D01*
X5609Y11369D01*
X5623Y11313D01*
X5623Y11242D01*
X5609Y11186D01*
X5595Y11158D01*
X5581Y11144D01*
X5553Y11130D01*
X5525Y11130D01*
X5496Y11144D01*
X5482Y11158D01*
X5468Y11186D01*
X5454Y11242D01*
X5454Y11313D01*
X5468Y11369D01*
X5482Y11397D01*
X5496Y11411D01*
X5525Y11425D01*
X5750Y11158D02*
X5764Y11144D01*
X5750Y11130D01*
X5735Y11144D01*
X5750Y11158D01*
X5750Y11130D01*
X5876Y11397D02*
X5890Y11411D01*
X5918Y11425D01*
X5989Y11425D01*
X6017Y11411D01*
X6031Y11397D01*
X6045Y11369D01*
X6045Y11341D01*
X6031Y11299D01*
X5862Y11130D01*
X6045Y11130D01*
X8441Y1200D02*
X8455Y1186D01*
X8469Y1144D01*
X8469Y1116D01*
X8455Y1074D01*
X8427Y1046D01*
X8399Y1032D01*
X8342Y1017D01*
X8300Y1017D01*
X8244Y1032D01*
X8216Y1046D01*
X8188Y1074D01*
X8174Y1116D01*
X8174Y1144D01*
X8188Y1186D01*
X8202Y1200D01*
X8174Y1299D02*
X8174Y1482D01*
X8286Y1383D01*
X8286Y1425D01*
X8300Y1453D01*
X8314Y1467D01*
X8342Y1482D01*
X8413Y1482D01*
X8441Y1467D01*
X8455Y1453D01*
X8469Y1425D01*
X8469Y1341D01*
X8455Y1313D01*
X8441Y1299D01*
X9341Y14200D02*
X9355Y14186D01*
X9369Y14144D01*
X9369Y14116D01*
X9355Y14074D01*
X9327Y14046D01*
X9299Y14032D01*
X9242Y14017D01*
X9200Y14017D01*
X9144Y14032D01*
X9116Y14046D01*
X9088Y14074D01*
X9074Y14116D01*
X9074Y14144D01*
X9088Y14186D01*
X9102Y14200D01*
X9369Y14482D02*
X9369Y14313D01*
X9369Y14397D02*
X9074Y14397D01*
X9116Y14369D01*
X9144Y14341D01*
X9158Y14313D01*
X24141Y3750D02*
X24155Y3736D01*
X24169Y3694D01*
X24169Y3666D01*
X24155Y3624D01*
X24127Y3596D01*
X24099Y3582D01*
X24042Y3567D01*
X24000Y3567D01*
X23944Y3582D01*
X23916Y3596D01*
X23888Y3624D01*
X23874Y3666D01*
X23874Y3694D01*
X23888Y3736D01*
X23902Y3750D01*
X23972Y4003D02*
X24169Y4003D01*
X23860Y3933D02*
X24071Y3863D01*
X24071Y4046D01*
X24141Y7950D02*
X24155Y7936D01*
X24169Y7894D01*
X24169Y7866D01*
X24155Y7824D01*
X24127Y7796D01*
X24099Y7782D01*
X24042Y7767D01*
X24000Y7767D01*
X23944Y7782D01*
X23916Y7796D01*
X23888Y7824D01*
X23874Y7866D01*
X23874Y7894D01*
X23888Y7936D01*
X23902Y7950D01*
X23874Y8217D02*
X23874Y8077D01*
X24014Y8063D01*
X24000Y8077D01*
X23986Y8105D01*
X23986Y8175D01*
X24000Y8203D01*
X24014Y8217D01*
X24042Y8232D01*
X24113Y8232D01*
X24141Y8217D01*
X24155Y8203D01*
X24169Y8175D01*
X24169Y8105D01*
X24155Y8077D01*
X24141Y8063D01*
X1010Y3630D02*
X1010Y3925D01*
X1109Y3714D01*
X1207Y3925D01*
X1207Y3630D01*
X1503Y3630D02*
X1334Y3630D01*
X1418Y3630D02*
X1418Y3925D01*
X1390Y3883D01*
X1362Y3855D01*
X1334Y3841D01*
X4000Y14408D02*
X3986Y14394D01*
X3944Y14380D01*
X3916Y14380D01*
X3874Y14394D01*
X3846Y14422D01*
X3832Y14450D01*
X3817Y14507D01*
X3817Y14549D01*
X3832Y14605D01*
X3846Y14633D01*
X3874Y14661D01*
X3916Y14675D01*
X3944Y14675D01*
X3986Y14661D01*
X4000Y14647D01*
X4113Y14647D02*
X4127Y14661D01*
X4155Y14675D01*
X4225Y14675D01*
X4253Y14661D01*
X4267Y14647D01*
X4282Y14619D01*
X4282Y14591D01*
X4267Y14549D01*
X4099Y14380D01*
X4282Y14380D01*
X5143Y13027D02*
X5143Y12830D01*
X5072Y13139D02*
X5002Y12928D01*
X5185Y12928D01*
X5269Y13125D02*
X5466Y13125D01*
X5339Y12830D01*
X5930Y13027D02*
X5930Y12830D01*
X5803Y13027D02*
X5803Y12872D01*
X5817Y12844D01*
X5846Y12830D01*
X5888Y12830D01*
X5916Y12844D01*
X5930Y12858D01*
X6169Y12985D02*
X6071Y12985D01*
X6071Y12830D02*
X6071Y13125D01*
X6211Y13125D01*
X6387Y13742D02*
X6612Y13742D01*
X6500Y13630D02*
X6500Y13855D01*
X29535Y8980D02*
X29535Y9275D01*
X29634Y9064D01*
X29732Y9275D01*
X29732Y8980D01*
X29873Y8980D02*
X29873Y9275D01*
X30000Y8994D02*
X30042Y8980D01*
X30112Y8980D01*
X30140Y8994D01*
X30154Y9008D01*
X30168Y9036D01*
X30168Y9064D01*
X30154Y9092D01*
X30140Y9107D01*
X30112Y9121D01*
X30056Y9135D01*
X30028Y9149D01*
X30014Y9163D01*
X30000Y9191D01*
X30000Y9219D01*
X30014Y9247D01*
X30028Y9261D01*
X30056Y9275D01*
X30126Y9275D01*
X30168Y9261D01*
X30351Y9275D02*
X30407Y9275D01*
X30435Y9261D01*
X30464Y9233D01*
X30478Y9177D01*
X30478Y9078D01*
X30464Y9022D01*
X30435Y8994D01*
X30407Y8980D01*
X30351Y8980D01*
X30323Y8994D01*
X30295Y9022D01*
X30281Y9078D01*
X30281Y9177D01*
X30295Y9233D01*
X30323Y9261D01*
X30351Y9275D01*
X27958Y6625D02*
X28141Y6625D01*
X28043Y6513D01*
X28085Y6513D01*
X28113Y6499D01*
X28127Y6485D01*
X28141Y6457D01*
X28141Y6386D01*
X28127Y6358D01*
X28113Y6344D01*
X28085Y6330D01*
X28000Y6330D01*
X27972Y6344D01*
X27958Y6358D01*
X28478Y6639D02*
X28225Y6260D01*
X28732Y6330D02*
X28563Y6330D01*
X28647Y6330D02*
X28647Y6625D01*
X28619Y6583D01*
X28591Y6555D01*
X28563Y6541D01*
X28956Y6485D02*
X28999Y6471D01*
X29013Y6457D01*
X29027Y6428D01*
X29027Y6386D01*
X29013Y6358D01*
X28999Y6344D01*
X28971Y6330D01*
X28858Y6330D01*
X28858Y6625D01*
X28956Y6625D01*
X28985Y6611D01*
X28999Y6597D01*
X29013Y6569D01*
X29013Y6541D01*
X28999Y6513D01*
X28985Y6499D01*
X28956Y6485D01*
X28858Y6485D01*
X29415Y6597D02*
X29429Y6611D01*
X29457Y6625D01*
X29528Y6625D01*
X29556Y6611D01*
X29570Y6597D01*
X29584Y6569D01*
X29584Y6541D01*
X29570Y6499D01*
X29401Y6330D01*
X29584Y6330D01*
X30457Y6330D02*
X30289Y6330D01*
X30373Y6330D02*
X30373Y6625D01*
X30345Y6583D01*
X30317Y6555D01*
X30289Y6541D01*
X30570Y6414D02*
X30710Y6414D01*
X30542Y6330D02*
X30640Y6625D01*
X30739Y6330D01*
X31485Y6675D02*
X31514Y6675D01*
X31542Y6661D01*
X31556Y6647D01*
X31570Y6619D01*
X31584Y6563D01*
X31584Y6492D01*
X31570Y6436D01*
X31556Y6408D01*
X31542Y6394D01*
X31514Y6380D01*
X31485Y6380D01*
X31457Y6394D01*
X31443Y6408D01*
X31429Y6436D01*
X31415Y6492D01*
X31415Y6563D01*
X31429Y6619D01*
X31443Y6647D01*
X31457Y6661D01*
X31485Y6675D01*
X29535Y12230D02*
X29535Y12525D01*
X29634Y12314D01*
X29732Y12525D01*
X29732Y12230D01*
X29929Y12525D02*
X29985Y12525D01*
X30014Y12511D01*
X30042Y12483D01*
X30056Y12427D01*
X30056Y12328D01*
X30042Y12272D01*
X30014Y12244D01*
X29985Y12230D01*
X29929Y12230D01*
X29901Y12244D01*
X29873Y12272D01*
X29859Y12328D01*
X29859Y12427D01*
X29873Y12483D01*
X29901Y12511D01*
X29929Y12525D01*
X30168Y12244D02*
X30210Y12230D01*
X30281Y12230D01*
X30309Y12244D01*
X30323Y12258D01*
X30337Y12286D01*
X30337Y12314D01*
X30323Y12342D01*
X30309Y12357D01*
X30281Y12371D01*
X30224Y12385D01*
X30196Y12399D01*
X30182Y12413D01*
X30168Y12441D01*
X30168Y12469D01*
X30182Y12497D01*
X30196Y12511D01*
X30224Y12525D01*
X30295Y12525D01*
X30337Y12511D01*
X30464Y12230D02*
X30464Y12525D01*
X27958Y9875D02*
X28141Y9875D01*
X28043Y9763D01*
X28085Y9763D01*
X28113Y9749D01*
X28127Y9735D01*
X28141Y9707D01*
X28141Y9636D01*
X28127Y9608D01*
X28113Y9594D01*
X28085Y9580D01*
X28000Y9580D01*
X27972Y9594D01*
X27958Y9608D01*
X28478Y9889D02*
X28225Y9510D01*
X28732Y9580D02*
X28563Y9580D01*
X28647Y9580D02*
X28647Y9875D01*
X28619Y9833D01*
X28591Y9805D01*
X28563Y9791D01*
X28956Y9735D02*
X28999Y9721D01*
X29013Y9707D01*
X29027Y9678D01*
X29027Y9636D01*
X29013Y9608D01*
X28999Y9594D01*
X28971Y9580D01*
X28858Y9580D01*
X28858Y9875D01*
X28956Y9875D01*
X28985Y9861D01*
X28999Y9847D01*
X29013Y9819D01*
X29013Y9791D01*
X28999Y9763D01*
X28985Y9749D01*
X28956Y9735D01*
X28858Y9735D01*
X29415Y9847D02*
X29429Y9861D01*
X29457Y9875D01*
X29528Y9875D01*
X29556Y9861D01*
X29570Y9847D01*
X29584Y9819D01*
X29584Y9791D01*
X29570Y9749D01*
X29401Y9580D01*
X29584Y9580D01*
X30457Y9580D02*
X30289Y9580D01*
X30373Y9580D02*
X30373Y9875D01*
X30345Y9833D01*
X30317Y9805D01*
X30289Y9791D01*
X30570Y9664D02*
X30710Y9664D01*
X30542Y9580D02*
X30640Y9875D01*
X30739Y9580D01*
X31485Y9925D02*
X31514Y9925D01*
X31542Y9911D01*
X31556Y9897D01*
X31570Y9869D01*
X31584Y9813D01*
X31584Y9742D01*
X31570Y9686D01*
X31556Y9658D01*
X31542Y9644D01*
X31514Y9630D01*
X31485Y9630D01*
X31457Y9644D01*
X31443Y9658D01*
X31429Y9686D01*
X31415Y9742D01*
X31415Y9813D01*
X31429Y9869D01*
X31443Y9897D01*
X31457Y9911D01*
X31485Y9925D01*
X29500Y5744D02*
X29543Y5730D01*
X29613Y5730D01*
X29641Y5744D01*
X29655Y5758D01*
X29669Y5786D01*
X29669Y5814D01*
X29655Y5842D01*
X29641Y5857D01*
X29613Y5871D01*
X29557Y5885D01*
X29528Y5899D01*
X29514Y5913D01*
X29500Y5941D01*
X29500Y5969D01*
X29514Y5997D01*
X29528Y6011D01*
X29557Y6025D01*
X29627Y6025D01*
X29669Y6011D01*
X29964Y5758D02*
X29950Y5744D01*
X29908Y5730D01*
X29880Y5730D01*
X29838Y5744D01*
X29810Y5772D01*
X29796Y5800D01*
X29782Y5857D01*
X29782Y5899D01*
X29796Y5955D01*
X29810Y5983D01*
X29838Y6011D01*
X29880Y6025D01*
X29908Y6025D01*
X29950Y6011D01*
X29964Y5997D01*
X30232Y5730D02*
X30091Y5730D01*
X30091Y6025D01*
X30330Y5730D02*
X30330Y6025D01*
X30499Y5730D02*
X30372Y5899D01*
X30499Y6025D02*
X30330Y5857D01*
X27958Y3375D02*
X28141Y3375D01*
X28043Y3263D01*
X28085Y3263D01*
X28113Y3249D01*
X28127Y3235D01*
X28141Y3207D01*
X28141Y3136D01*
X28127Y3108D01*
X28113Y3094D01*
X28085Y3080D01*
X28000Y3080D01*
X27972Y3094D01*
X27958Y3108D01*
X28478Y3389D02*
X28225Y3010D01*
X28732Y3080D02*
X28563Y3080D01*
X28647Y3080D02*
X28647Y3375D01*
X28619Y3333D01*
X28591Y3305D01*
X28563Y3291D01*
X28956Y3235D02*
X28999Y3221D01*
X29013Y3207D01*
X29027Y3178D01*
X29027Y3136D01*
X29013Y3108D01*
X28999Y3094D01*
X28971Y3080D01*
X28858Y3080D01*
X28858Y3375D01*
X28956Y3375D01*
X28985Y3361D01*
X28999Y3347D01*
X29013Y3319D01*
X29013Y3291D01*
X28999Y3263D01*
X28985Y3249D01*
X28956Y3235D01*
X28858Y3235D01*
X29415Y3347D02*
X29429Y3361D01*
X29457Y3375D01*
X29528Y3375D01*
X29556Y3361D01*
X29570Y3347D01*
X29584Y3319D01*
X29584Y3291D01*
X29570Y3249D01*
X29401Y3080D01*
X29584Y3080D01*
X30457Y3080D02*
X30289Y3080D01*
X30373Y3080D02*
X30373Y3375D01*
X30345Y3333D01*
X30317Y3305D01*
X30289Y3291D01*
X30570Y3164D02*
X30710Y3164D01*
X30542Y3080D02*
X30640Y3375D01*
X30739Y3080D01*
X31485Y3425D02*
X31514Y3425D01*
X31542Y3411D01*
X31556Y3397D01*
X31570Y3369D01*
X31584Y3313D01*
X31584Y3242D01*
X31570Y3186D01*
X31556Y3158D01*
X31542Y3144D01*
X31514Y3130D01*
X31485Y3130D01*
X31457Y3144D01*
X31443Y3158D01*
X31429Y3186D01*
X31415Y3242D01*
X31415Y3313D01*
X31429Y3369D01*
X31443Y3397D01*
X31457Y3411D01*
X31485Y3425D01*
X1469Y4800D02*
X1328Y4702D01*
X1469Y4632D02*
X1174Y4632D01*
X1174Y4744D01*
X1188Y4772D01*
X1202Y4786D01*
X1230Y4800D01*
X1272Y4800D01*
X1300Y4786D01*
X1314Y4772D01*
X1328Y4744D01*
X1328Y4632D01*
X1469Y4941D02*
X1469Y4997D01*
X1455Y5025D01*
X1441Y5039D01*
X1399Y5067D01*
X1342Y5082D01*
X1230Y5082D01*
X1202Y5067D01*
X1188Y5053D01*
X1174Y5025D01*
X1174Y4969D01*
X1188Y4941D01*
X1202Y4927D01*
X1230Y4913D01*
X1300Y4913D01*
X1328Y4927D01*
X1342Y4941D01*
X1357Y4969D01*
X1357Y5025D01*
X1342Y5053D01*
X1328Y5067D01*
X1300Y5082D01*
X719Y6436D02*
X719Y6267D01*
X719Y6352D02*
X424Y6352D01*
X466Y6324D01*
X494Y6296D01*
X508Y6267D01*
X719Y6563D02*
X424Y6563D01*
X719Y6732D02*
X550Y6605D01*
X424Y6732D02*
X592Y6563D01*
X21150Y11130D02*
X21052Y11271D01*
X20982Y11130D02*
X20982Y11425D01*
X21094Y11425D01*
X21122Y11411D01*
X21136Y11397D01*
X21150Y11369D01*
X21150Y11327D01*
X21136Y11299D01*
X21122Y11285D01*
X21094Y11271D01*
X20982Y11271D01*
X21432Y11130D02*
X21263Y11130D01*
X21347Y11130D02*
X21347Y11425D01*
X21319Y11383D01*
X21291Y11355D01*
X21263Y11341D01*
X21275Y10597D02*
X21289Y10611D01*
X21317Y10625D01*
X21387Y10625D01*
X21415Y10611D01*
X21429Y10597D01*
X21443Y10569D01*
X21443Y10541D01*
X21429Y10499D01*
X21260Y10330D01*
X21443Y10330D01*
X21626Y10625D02*
X21654Y10625D01*
X21682Y10611D01*
X21696Y10597D01*
X21710Y10569D01*
X21724Y10513D01*
X21724Y10442D01*
X21710Y10386D01*
X21696Y10358D01*
X21682Y10344D01*
X21654Y10330D01*
X21626Y10330D01*
X21598Y10344D01*
X21584Y10358D01*
X21570Y10386D01*
X21556Y10442D01*
X21556Y10513D01*
X21570Y10569D01*
X21584Y10597D01*
X21598Y10611D01*
X21626Y10625D01*
X23150Y730D02*
X23052Y871D01*
X22982Y730D02*
X22982Y1025D01*
X23094Y1025D01*
X23122Y1011D01*
X23136Y997D01*
X23150Y969D01*
X23150Y927D01*
X23136Y899D01*
X23122Y885D01*
X23094Y871D01*
X22982Y871D01*
X23263Y997D02*
X23277Y1011D01*
X23305Y1025D01*
X23375Y1025D01*
X23403Y1011D01*
X23417Y997D01*
X23432Y969D01*
X23432Y941D01*
X23417Y899D01*
X23249Y730D01*
X23432Y730D01*
X22267Y1527D02*
X22267Y1330D01*
X22197Y1639D02*
X22127Y1428D01*
X22310Y1428D01*
X22422Y1330D02*
X22422Y1625D01*
X22591Y1330D02*
X22464Y1499D01*
X22591Y1625D02*
X22422Y1457D01*
X22689Y1625D02*
X22886Y1625D01*
X22760Y1330D01*
X10569Y13200D02*
X10428Y13102D01*
X10569Y13032D02*
X10274Y13032D01*
X10274Y13144D01*
X10288Y13172D01*
X10302Y13186D01*
X10330Y13200D01*
X10372Y13200D01*
X10400Y13186D01*
X10414Y13172D01*
X10428Y13144D01*
X10428Y13032D01*
X10274Y13299D02*
X10274Y13482D01*
X10386Y13383D01*
X10386Y13425D01*
X10400Y13453D01*
X10414Y13467D01*
X10442Y13482D01*
X10513Y13482D01*
X10541Y13467D01*
X10555Y13453D01*
X10569Y13425D01*
X10569Y13341D01*
X10555Y13313D01*
X10541Y13299D01*
X11169Y12103D02*
X11169Y11934D01*
X11169Y12018D02*
X10874Y12018D01*
X10916Y11990D01*
X10944Y11962D01*
X10958Y11934D01*
X10874Y12285D02*
X10874Y12314D01*
X10888Y12342D01*
X10902Y12356D01*
X10930Y12370D01*
X10986Y12384D01*
X11057Y12384D01*
X11113Y12370D01*
X11141Y12356D01*
X11155Y12342D01*
X11169Y12314D01*
X11169Y12285D01*
X11155Y12257D01*
X11141Y12243D01*
X11113Y12229D01*
X11057Y12215D01*
X10986Y12215D01*
X10930Y12229D01*
X10902Y12243D01*
X10888Y12257D01*
X10874Y12285D01*
X10874Y12567D02*
X10874Y12595D01*
X10888Y12623D01*
X10902Y12637D01*
X10930Y12651D01*
X10986Y12665D01*
X11057Y12665D01*
X11113Y12651D01*
X11141Y12637D01*
X11155Y12623D01*
X11169Y12595D01*
X11169Y12567D01*
X11155Y12539D01*
X11141Y12524D01*
X11113Y12510D01*
X11057Y12496D01*
X10986Y12496D01*
X10930Y12510D01*
X10902Y12524D01*
X10888Y12539D01*
X10874Y12567D01*
X2450Y2980D02*
X2352Y3121D01*
X2282Y2980D02*
X2282Y3275D01*
X2394Y3275D01*
X2422Y3261D01*
X2436Y3247D01*
X2450Y3219D01*
X2450Y3177D01*
X2436Y3149D01*
X2422Y3135D01*
X2394Y3121D01*
X2282Y3121D01*
X2549Y3275D02*
X2746Y3275D01*
X2619Y2980D01*
X2035Y3847D02*
X2050Y3861D01*
X2078Y3875D01*
X2148Y3875D01*
X2176Y3861D01*
X2190Y3847D01*
X2204Y3819D01*
X2204Y3791D01*
X2190Y3749D01*
X2021Y3580D01*
X2204Y3580D01*
X2331Y3608D02*
X2345Y3594D01*
X2331Y3580D01*
X2317Y3594D01*
X2331Y3608D01*
X2331Y3580D01*
X2443Y3875D02*
X2640Y3875D01*
X2514Y3580D01*
X2753Y3580D02*
X2753Y3875D01*
X2851Y3664D01*
X2949Y3875D01*
X2949Y3580D01*
X6150Y2930D02*
X6052Y3071D01*
X5982Y2930D02*
X5982Y3225D01*
X6094Y3225D01*
X6122Y3211D01*
X6136Y3197D01*
X6150Y3169D01*
X6150Y3127D01*
X6136Y3099D01*
X6122Y3085D01*
X6094Y3071D01*
X5982Y3071D01*
X6417Y3225D02*
X6277Y3225D01*
X6263Y3085D01*
X6277Y3099D01*
X6305Y3113D01*
X6375Y3113D01*
X6403Y3099D01*
X6417Y3085D01*
X6432Y3057D01*
X6432Y2986D01*
X6417Y2958D01*
X6403Y2944D01*
X6375Y2930D01*
X6305Y2930D01*
X6277Y2944D01*
X6263Y2958D01*
X6155Y3680D02*
X5986Y3680D01*
X6071Y3680D02*
X6071Y3975D01*
X6043Y3933D01*
X6014Y3905D01*
X5986Y3891D01*
X6422Y3975D02*
X6282Y3975D01*
X6267Y3835D01*
X6282Y3849D01*
X6310Y3863D01*
X6380Y3863D01*
X6408Y3849D01*
X6422Y3835D01*
X6436Y3807D01*
X6436Y3736D01*
X6422Y3708D01*
X6408Y3694D01*
X6380Y3680D01*
X6310Y3680D01*
X6282Y3694D01*
X6267Y3708D01*
X6619Y3975D02*
X6647Y3975D01*
X6675Y3961D01*
X6689Y3947D01*
X6703Y3919D01*
X6717Y3863D01*
X6717Y3792D01*
X6703Y3736D01*
X6689Y3708D01*
X6675Y3694D01*
X6647Y3680D01*
X6619Y3680D01*
X6591Y3694D01*
X6577Y3708D01*
X6563Y3736D01*
X6549Y3792D01*
X6549Y3863D01*
X6563Y3919D01*
X6577Y3947D01*
X6591Y3961D01*
X6619Y3975D01*
X6844Y3680D02*
X6844Y3975D01*
X7013Y3680D02*
X6886Y3849D01*
X7013Y3975D02*
X6844Y3807D01*
X8019Y5200D02*
X7878Y5102D01*
X8019Y5032D02*
X7724Y5032D01*
X7724Y5144D01*
X7738Y5172D01*
X7752Y5186D01*
X7780Y5200D01*
X7822Y5200D01*
X7850Y5186D01*
X7864Y5172D01*
X7878Y5144D01*
X7878Y5032D01*
X7822Y5453D02*
X8019Y5453D01*
X7710Y5383D02*
X7921Y5313D01*
X7921Y5496D01*
X7222Y6017D02*
X7419Y6017D01*
X7110Y5947D02*
X7321Y5877D01*
X7321Y6060D01*
X7419Y6172D02*
X7124Y6172D01*
X7419Y6341D02*
X7250Y6214D01*
X7124Y6341D02*
X7292Y6172D01*
X7124Y6439D02*
X7124Y6636D01*
X7419Y6510D01*
X20182Y530D02*
X20182Y825D01*
X20294Y825D01*
X20322Y811D01*
X20336Y797D01*
X20350Y769D01*
X20350Y727D01*
X20336Y699D01*
X20322Y685D01*
X20294Y671D01*
X20182Y671D01*
X20463Y797D02*
X20477Y811D01*
X20505Y825D01*
X20575Y825D01*
X20603Y811D01*
X20617Y797D01*
X20632Y769D01*
X20632Y741D01*
X20617Y699D01*
X20449Y530D01*
X20632Y530D01*
X16275Y461D02*
X16246Y475D01*
X16204Y475D01*
X16162Y461D01*
X16134Y433D01*
X16120Y405D01*
X16106Y349D01*
X16106Y307D01*
X16120Y250D01*
X16134Y222D01*
X16162Y194D01*
X16204Y180D01*
X16232Y180D01*
X16275Y194D01*
X16289Y208D01*
X16289Y307D01*
X16232Y307D01*
X16415Y180D02*
X16415Y475D01*
X16584Y180D01*
X16584Y475D01*
X16724Y180D02*
X16724Y475D01*
X16795Y475D01*
X16837Y461D01*
X16865Y433D01*
X16879Y405D01*
X16893Y349D01*
X16893Y307D01*
X16879Y250D01*
X16865Y222D01*
X16837Y194D01*
X16795Y180D01*
X16724Y180D01*
X17338Y180D02*
X17239Y321D01*
X17169Y180D02*
X17169Y475D01*
X17282Y475D01*
X17310Y461D01*
X17324Y447D01*
X17338Y419D01*
X17338Y377D01*
X17324Y349D01*
X17310Y335D01*
X17282Y321D01*
X17169Y321D01*
X17450Y194D02*
X17492Y180D01*
X17563Y180D01*
X17591Y194D01*
X17605Y208D01*
X17619Y236D01*
X17619Y264D01*
X17605Y292D01*
X17591Y307D01*
X17563Y321D01*
X17507Y335D01*
X17478Y349D01*
X17464Y363D01*
X17450Y391D01*
X17450Y419D01*
X17464Y447D01*
X17478Y461D01*
X17507Y475D01*
X17577Y475D01*
X17619Y461D01*
X17703Y475D02*
X17872Y475D01*
X17788Y180D02*
X17788Y475D01*
X18262Y475D02*
X18431Y475D01*
X18346Y180D02*
X18346Y475D01*
X18515Y194D02*
X18557Y180D01*
X18628Y180D01*
X18656Y194D01*
X18670Y208D01*
X18684Y236D01*
X18684Y264D01*
X18670Y292D01*
X18656Y307D01*
X18628Y321D01*
X18571Y335D01*
X18543Y349D01*
X18529Y363D01*
X18515Y391D01*
X18515Y419D01*
X18529Y447D01*
X18543Y461D01*
X18571Y475D01*
X18642Y475D01*
X18684Y461D01*
X18768Y475D02*
X18937Y475D01*
X18853Y180D02*
X18853Y475D01*
X19310Y292D02*
X19535Y292D01*
X19423Y180D02*
X19423Y405D01*
X19634Y475D02*
X19732Y180D01*
X19831Y475D01*
X3421Y8252D02*
X3393Y8266D01*
X3365Y8294D01*
X3323Y8336D01*
X3295Y8350D01*
X3267Y8350D01*
X3281Y8280D02*
X3253Y8294D01*
X3225Y8322D01*
X3210Y8378D01*
X3210Y8477D01*
X3225Y8533D01*
X3253Y8561D01*
X3281Y8575D01*
X3337Y8575D01*
X3365Y8561D01*
X3393Y8533D01*
X3407Y8477D01*
X3407Y8378D01*
X3393Y8322D01*
X3365Y8294D01*
X3337Y8280D01*
X3281Y8280D01*
X3689Y8280D02*
X3520Y8280D01*
X3604Y8280D02*
X3604Y8575D01*
X3576Y8533D01*
X3548Y8505D01*
X3520Y8491D01*
X7415Y8744D02*
X7457Y8730D01*
X7528Y8730D01*
X7556Y8744D01*
X7570Y8758D01*
X7584Y8786D01*
X7584Y8814D01*
X7570Y8842D01*
X7556Y8857D01*
X7528Y8871D01*
X7471Y8885D01*
X7443Y8899D01*
X7429Y8913D01*
X7415Y8941D01*
X7415Y8969D01*
X7429Y8997D01*
X7443Y9011D01*
X7471Y9025D01*
X7542Y9025D01*
X7584Y9011D01*
X5172Y8680D02*
X5172Y8975D01*
X5242Y8975D01*
X5285Y8961D01*
X5313Y8933D01*
X5327Y8905D01*
X5341Y8849D01*
X5341Y8807D01*
X5327Y8750D01*
X5313Y8722D01*
X5285Y8694D01*
X5242Y8680D01*
X5172Y8680D01*
X4177Y9011D02*
X4149Y9025D01*
X4107Y9025D01*
X4064Y9011D01*
X4036Y8983D01*
X4022Y8955D01*
X4008Y8899D01*
X4008Y8857D01*
X4022Y8800D01*
X4036Y8772D01*
X4064Y8744D01*
X4107Y8730D01*
X4135Y8730D01*
X4177Y8744D01*
X4191Y8758D01*
X4191Y8857D01*
X4135Y8857D01*
X23682Y12630D02*
X23682Y12925D01*
X23794Y12925D01*
X23822Y12911D01*
X23836Y12897D01*
X23850Y12869D01*
X23850Y12827D01*
X23836Y12799D01*
X23822Y12785D01*
X23794Y12771D01*
X23682Y12771D01*
X24132Y12630D02*
X23963Y12630D01*
X24047Y12630D02*
X24047Y12925D01*
X24019Y12883D01*
X23991Y12855D01*
X23963Y12841D01*
%LPC*%
G54D18*
X27000Y11250D03*
G54D19*
X27000Y10250D03*
X27000Y9250D03*
X27000Y8250D03*
X27000Y7250D03*
X27000Y6250D03*
X27000Y5250D03*
X27000Y4250D03*
X27000Y3250D03*
X27000Y2250D03*
G54D18*
X26000Y11250D03*
G54D19*
X26000Y10250D03*
X26000Y9250D03*
X26000Y8250D03*
X26000Y7250D03*
X26000Y6250D03*
X26000Y5250D03*
X26000Y4250D03*
X26000Y3250D03*
X26000Y2250D03*
G54D18*
X10000Y11250D03*
G54D19*
X10000Y10250D03*
X10000Y9250D03*
X10000Y8250D03*
X10000Y7250D03*
X10000Y6250D03*
X10000Y5250D03*
X10000Y4250D03*
X10000Y3250D03*
X10000Y2250D03*
G54D18*
X9000Y11250D03*
G54D19*
X9000Y10250D03*
X9000Y9250D03*
X9000Y8250D03*
X9000Y7250D03*
X9000Y6250D03*
X9000Y5250D03*
X9000Y4250D03*
X9000Y3250D03*
X9000Y2250D03*
G54D18*
X28750Y13500D03*
G54D19*
X27750Y13500D03*
X26750Y13500D03*
G54D20*
X750Y13500D03*
G54D21*
X2750Y13500D03*
G54D18*
X3000Y4750D03*
G54D19*
X4000Y4750D03*
X5000Y4750D03*
X6000Y4750D03*
X6000Y7750D03*
X5000Y7750D03*
X4000Y7750D03*
X3000Y7750D03*
G54D18*
X21500Y5250D03*
G54D19*
X20500Y5250D03*
X19500Y5250D03*
X18500Y5250D03*
X17500Y5250D03*
X16500Y5250D03*
X15500Y5250D03*
X14500Y5250D03*
X13500Y5250D03*
X12500Y5250D03*
X12500Y2250D03*
X13500Y2250D03*
X14500Y2250D03*
X15500Y2250D03*
X16500Y2250D03*
X17500Y2250D03*
X18500Y2250D03*
X19500Y2250D03*
X20500Y2250D03*
X21500Y2250D03*
G54D18*
X21500Y9500D03*
G54D19*
X20500Y9500D03*
X19500Y9500D03*
X18500Y9500D03*
X17500Y9500D03*
X16500Y9500D03*
X15500Y9500D03*
X14500Y9500D03*
X13500Y9500D03*
X12500Y9500D03*
X12500Y6500D03*
X13500Y6500D03*
X14500Y6500D03*
X15500Y6500D03*
X16500Y6500D03*
X17500Y6500D03*
X18500Y6500D03*
X19500Y6500D03*
X20500Y6500D03*
X21500Y6500D03*
G54D18*
X3000Y12000D03*
G54D19*
X3000Y9000D03*
G54D18*
X14500Y13500D03*
G54D19*
X13500Y13500D03*
X12500Y13500D03*
X12500Y10500D03*
X13500Y10500D03*
X14500Y10500D03*
G54D22*
X1250Y10500D03*
G54D23*
X1250Y9500D03*
G54D19*
X4000Y2500D03*
X5000Y2500D03*
G54D18*
X6000Y1250D03*
G54D19*
X3000Y1250D03*
X1750Y6750D03*
X1750Y5750D03*
G54D24*
X4750Y11250D03*
G54D25*
X6750Y11250D03*
G54D19*
X7500Y2500D03*
X7500Y1500D03*
X7500Y14250D03*
X8500Y14250D03*
X23250Y3250D03*
X23250Y4250D03*
X23250Y7500D03*
X23250Y8500D03*
G54D22*
X6000Y13750D03*
G54D23*
X5000Y13750D03*
G54D22*
X31500Y8250D03*
G54D23*
X31500Y7250D03*
X30500Y8250D03*
X30500Y7250D03*
X29500Y8250D03*
X29500Y7250D03*
X28500Y8250D03*
X28500Y7250D03*
G54D22*
X31500Y11500D03*
G54D23*
X31500Y10500D03*
X30500Y11500D03*
X30500Y10500D03*
X29500Y11500D03*
X29500Y10500D03*
X28500Y11500D03*
X28500Y10500D03*
G54D22*
X31500Y5000D03*
G54D23*
X31500Y4000D03*
X30500Y5000D03*
X30500Y4000D03*
X29500Y5000D03*
X29500Y4000D03*
X28500Y5000D03*
X28500Y4000D03*
G54D19*
X650Y8000D03*
X650Y5000D03*
X20000Y10500D03*
X23000Y10500D03*
X21000Y1500D03*
X24000Y1500D03*
X11100Y13800D03*
X11100Y10800D03*
X1000Y3750D03*
X4000Y3750D03*
X8000Y3750D03*
X5000Y3750D03*
X7250Y4750D03*
X7250Y7750D03*
G54D18*
X19500Y1000D03*
G54D19*
X18500Y1000D03*
X17500Y1000D03*
X16500Y1000D03*
G54D24*
X4750Y9250D03*
X5750Y9250D03*
G54D25*
X6750Y9250D03*
G54D22*
X17000Y12250D03*
G54D23*
X17000Y13250D03*
X18000Y12250D03*
X18000Y13250D03*
X19000Y12250D03*
X19000Y13250D03*
X20000Y12250D03*
X20000Y13250D03*
X21000Y12250D03*
X21000Y13250D03*
X22000Y12250D03*
X22000Y13250D03*
X23000Y12250D03*
X23000Y13250D03*
M02*
