G04 (created by PCBNEW (2012-nov-02)-testing) date Mon 07 Jan 2013 10:50:24 PM PST*
%MOIN*%
G04 Gerber Fmt 3.4, Leading zero omitted, Abs format*
%FSLAX34Y34*%
G01*
G70*
G90*
G04 APERTURE LIST*
%ADD10C,0.0137795*%
%ADD11C,0.01*%
%ADD12C,0.0059*%
%ADD13R,0.055X0.055*%
%ADD14C,0.055*%
%ADD15R,0.075X0.075*%
%ADD16C,0.075*%
%ADD17R,0.06X0.06*%
%ADD18C,0.06*%
%ADD19C,0.2*%
%ADD20C,0.07*%
%ADD21R,0.07X0.07*%
%ADD22C,0.045*%
%ADD23C,0.035*%
%ADD24C,0.02*%
%ADD25C,0.012*%
%ADD26C,0.015*%
G04 APERTURE END LIST*
G54D10*
G54D11*
X34416Y16250D02*
G75*
G03X34416Y16250I-666J0D01*
G74*
G01*
X32750Y16250D02*
X34750Y16250D01*
X33750Y17250D02*
X33750Y15250D01*
X-583Y-1250D02*
G75*
G03X-583Y-1250I-666J0D01*
G74*
G01*
X-2250Y-1250D02*
X-250Y-1250D01*
X-1250Y-250D02*
X-1250Y-2250D01*
G54D12*
X32500Y0D02*
X0Y0D01*
X0Y0D02*
X0Y15000D01*
X32500Y15000D02*
X32500Y0D01*
X0Y15000D02*
X32500Y15000D01*
G54D13*
X27000Y11250D03*
G54D14*
X27000Y10250D03*
X27000Y9250D03*
X27000Y8250D03*
X27000Y7250D03*
X27000Y6250D03*
X27000Y5250D03*
X27000Y4250D03*
X27000Y3250D03*
X27000Y2250D03*
G54D13*
X26000Y11250D03*
G54D14*
X26000Y10250D03*
X26000Y9250D03*
X26000Y8250D03*
X26000Y7250D03*
X26000Y6250D03*
X26000Y5250D03*
X26000Y4250D03*
X26000Y3250D03*
X26000Y2250D03*
G54D13*
X10000Y11250D03*
G54D14*
X10000Y10250D03*
X10000Y9250D03*
X10000Y8250D03*
X10000Y7250D03*
X10000Y6250D03*
X10000Y5250D03*
X10000Y4250D03*
X10000Y3250D03*
X10000Y2250D03*
G54D13*
X9000Y11250D03*
G54D14*
X9000Y10250D03*
X9000Y9250D03*
X9000Y8250D03*
X9000Y7250D03*
X9000Y6250D03*
X9000Y5250D03*
X9000Y4250D03*
X9000Y3250D03*
X9000Y2250D03*
G54D13*
X28750Y13500D03*
G54D14*
X27750Y13500D03*
X26750Y13500D03*
G54D15*
X750Y13500D03*
G54D16*
X2750Y13500D03*
G54D13*
X3000Y4750D03*
G54D14*
X4000Y4750D03*
X5000Y4750D03*
X6000Y4750D03*
X6000Y7750D03*
X5000Y7750D03*
X4000Y7750D03*
X3000Y7750D03*
G54D13*
X21500Y5250D03*
G54D14*
X20500Y5250D03*
X19500Y5250D03*
X18500Y5250D03*
X17500Y5250D03*
X16500Y5250D03*
X15500Y5250D03*
X14500Y5250D03*
X13500Y5250D03*
X12500Y5250D03*
X12500Y2250D03*
X13500Y2250D03*
X14500Y2250D03*
X15500Y2250D03*
X16500Y2250D03*
X17500Y2250D03*
X18500Y2250D03*
X19500Y2250D03*
X20500Y2250D03*
X21500Y2250D03*
G54D13*
X21500Y9500D03*
G54D14*
X20500Y9500D03*
X19500Y9500D03*
X18500Y9500D03*
X17500Y9500D03*
X16500Y9500D03*
X15500Y9500D03*
X14500Y9500D03*
X13500Y9500D03*
X12500Y9500D03*
X12500Y6500D03*
X13500Y6500D03*
X14500Y6500D03*
X15500Y6500D03*
X16500Y6500D03*
X17500Y6500D03*
X18500Y6500D03*
X19500Y6500D03*
X20500Y6500D03*
X21500Y6500D03*
G54D13*
X3000Y12000D03*
G54D14*
X3000Y9000D03*
G54D13*
X14500Y13500D03*
G54D14*
X13500Y13500D03*
X12500Y13500D03*
X12500Y10500D03*
X13500Y10500D03*
X14500Y10500D03*
G54D17*
X1250Y10500D03*
G54D18*
X1250Y9500D03*
G54D14*
X4000Y2500D03*
X5000Y2500D03*
G54D13*
X6000Y1250D03*
G54D14*
X3000Y1250D03*
X1750Y6750D03*
X1750Y5750D03*
G54D19*
X31250Y1250D03*
G54D20*
X4750Y11250D03*
G54D21*
X6750Y11250D03*
G54D14*
X7500Y2500D03*
X7500Y1500D03*
X7500Y14250D03*
X8500Y14250D03*
X23250Y3250D03*
X23250Y4250D03*
X23250Y7500D03*
X23250Y8500D03*
G54D19*
X1250Y1250D03*
G54D17*
X6000Y13750D03*
G54D18*
X5000Y13750D03*
G54D17*
X31500Y8250D03*
G54D18*
X31500Y7250D03*
X30500Y8250D03*
X30500Y7250D03*
X29500Y8250D03*
X29500Y7250D03*
X28500Y8250D03*
X28500Y7250D03*
G54D17*
X31500Y11500D03*
G54D18*
X31500Y10500D03*
X30500Y11500D03*
X30500Y10500D03*
X29500Y11500D03*
X29500Y10500D03*
X28500Y11500D03*
X28500Y10500D03*
G54D17*
X31500Y5000D03*
G54D18*
X31500Y4000D03*
X30500Y5000D03*
X30500Y4000D03*
X29500Y5000D03*
X29500Y4000D03*
X28500Y5000D03*
X28500Y4000D03*
G54D14*
X650Y8000D03*
X650Y5000D03*
X20000Y10500D03*
X23000Y10500D03*
X21000Y1500D03*
X24000Y1500D03*
X11100Y13800D03*
X11100Y10800D03*
X1000Y3750D03*
X4000Y3750D03*
X8000Y3750D03*
X5000Y3750D03*
X7250Y4750D03*
X7250Y7750D03*
G54D13*
X19500Y1000D03*
G54D14*
X18500Y1000D03*
X17500Y1000D03*
X16500Y1000D03*
G54D20*
X4750Y9250D03*
X5750Y9250D03*
G54D21*
X6750Y9250D03*
G54D17*
X17000Y12250D03*
G54D18*
X17000Y13250D03*
X18000Y12250D03*
X18000Y13250D03*
X19000Y12250D03*
X19000Y13250D03*
X20000Y12250D03*
X20000Y13250D03*
X21000Y12250D03*
X21000Y13250D03*
X22000Y12250D03*
X22000Y13250D03*
X23000Y12250D03*
X23000Y13250D03*
G54D22*
X19437Y8174D03*
X20151Y8096D03*
G54D23*
X22328Y9545D03*
X22587Y8449D03*
X23504Y5196D03*
X18000Y6911D03*
X29980Y9609D03*
X11683Y9044D03*
G54D22*
X11626Y1340D03*
X29000Y2750D03*
G54D23*
X21050Y8286D03*
X16018Y9045D03*
X28724Y6407D03*
X19299Y14237D03*
G54D24*
X22150Y1000D02*
X19500Y1000D01*
X22405Y1205D02*
X22150Y1000D01*
X22405Y3405D02*
X22405Y1205D01*
X23250Y4250D02*
X22405Y3405D01*
X9000Y11250D02*
X9000Y10754D01*
X13124Y8174D02*
X19437Y8174D01*
X11789Y9509D02*
X13124Y8174D01*
X10440Y9509D02*
X11789Y9509D01*
X10200Y9750D02*
X10440Y9509D01*
X8776Y9750D02*
X10200Y9750D01*
X8504Y10021D02*
X8776Y9750D01*
X8504Y10476D02*
X8504Y10021D01*
X8783Y10754D02*
X8504Y10476D01*
X9000Y10754D02*
X8783Y10754D01*
X6750Y11250D02*
X7320Y11250D01*
X7020Y14250D02*
X6520Y13750D01*
X7500Y14250D02*
X7020Y14250D01*
X6000Y13750D02*
X6520Y13750D01*
X10000Y11250D02*
X10000Y11750D01*
X9550Y11750D02*
X10000Y11750D01*
X9381Y11745D02*
X9550Y11750D01*
X7815Y11745D02*
X9381Y11745D01*
X7320Y11250D02*
X7815Y11745D01*
X10000Y11250D02*
X10000Y10754D01*
X22500Y7500D02*
X23250Y7500D01*
X21500Y6500D02*
X22500Y7500D01*
X7320Y7820D02*
X7250Y7750D01*
X7320Y11250D02*
X7320Y7820D01*
X7250Y7750D02*
X6000Y7750D01*
X13004Y10004D02*
X13368Y10368D01*
X11042Y10004D02*
X13004Y10004D01*
X10292Y10754D02*
X11042Y10004D01*
X10000Y10754D02*
X10292Y10754D01*
X13368Y10368D02*
X13500Y10500D01*
X19598Y8649D02*
X20151Y8096D01*
X14646Y8649D02*
X19598Y8649D01*
X14000Y9295D02*
X14646Y8649D01*
X14000Y9736D02*
X14000Y9295D01*
X13368Y10368D02*
X14000Y9736D01*
G54D25*
X20000Y13250D02*
X19500Y12750D01*
X19500Y11000D02*
X20000Y10500D01*
X19500Y12750D02*
X19500Y11000D01*
X13761Y11761D02*
X12500Y10500D01*
X17383Y11761D02*
X13761Y11761D01*
X17504Y11881D02*
X17383Y11761D01*
X17504Y12458D02*
X17504Y11881D01*
X17795Y12750D02*
X17504Y12458D01*
X19500Y12750D02*
X17795Y12750D01*
X9468Y6718D02*
X9000Y6250D01*
X10385Y6718D02*
X9468Y6718D01*
X12325Y4778D02*
X10385Y6718D01*
X16028Y4778D02*
X12325Y4778D01*
X16500Y5250D02*
X16028Y4778D01*
X20519Y12769D02*
X21000Y13250D01*
X20519Y10373D02*
X20519Y12769D01*
X19646Y9500D02*
X20519Y10373D01*
X19500Y9500D02*
X19646Y9500D01*
X13500Y6250D02*
X14500Y5250D01*
X13500Y6500D02*
X13500Y6250D01*
X15044Y10044D02*
X14500Y9500D01*
X16007Y10044D02*
X15044Y10044D01*
X18000Y12036D02*
X16007Y10044D01*
X18000Y12250D02*
X18000Y12036D01*
X13000Y5750D02*
X12500Y5250D01*
X13000Y6660D02*
X13000Y5750D01*
X13313Y6973D02*
X13000Y6660D01*
X15026Y6973D02*
X13313Y6973D01*
X15500Y6500D02*
X15026Y6973D01*
X16500Y9750D02*
X16500Y9500D01*
X19000Y12250D02*
X16500Y9750D01*
X22000Y11000D02*
X20500Y9500D01*
X22000Y12250D02*
X22000Y11000D01*
X14500Y13500D02*
X14955Y13500D01*
X21000Y6861D02*
X22587Y8449D01*
X21000Y5750D02*
X21000Y6861D01*
X20500Y5250D02*
X21000Y5750D01*
X15333Y13878D02*
X14955Y13500D01*
X21083Y13878D02*
X15333Y13878D01*
X21519Y13441D02*
X21083Y13878D01*
X21519Y13047D02*
X21519Y13441D01*
X21836Y12730D02*
X21519Y13047D01*
X22202Y12730D02*
X21836Y12730D01*
X22485Y12447D02*
X22202Y12730D01*
X22485Y9702D02*
X22485Y12447D01*
X22328Y9545D02*
X22485Y9702D01*
X17000Y4750D02*
X14500Y2250D01*
X17000Y5406D02*
X17000Y4750D01*
X17423Y5830D02*
X17000Y5406D01*
X17830Y5830D02*
X17423Y5830D01*
X18500Y6500D02*
X17830Y5830D01*
X12581Y1524D02*
X17500Y1524D01*
X12044Y2061D02*
X12581Y1524D01*
X12044Y3859D02*
X12044Y2061D01*
X10153Y5750D02*
X12044Y3859D01*
X8851Y5750D02*
X10153Y5750D01*
X8531Y6069D02*
X8851Y5750D01*
X8531Y6781D02*
X8531Y6069D01*
X9000Y7250D02*
X8531Y6781D01*
X17500Y1000D02*
X17500Y1524D01*
X17500Y1524D02*
X17500Y2250D01*
X20000Y1500D02*
X21000Y1500D01*
X20000Y2395D02*
X20000Y1500D01*
X19687Y2708D02*
X20000Y2395D01*
X17958Y2708D02*
X19687Y2708D01*
X17500Y2250D02*
X17958Y2708D01*
X29500Y5000D02*
X30500Y5000D01*
X30500Y5000D02*
X31500Y5000D01*
X17931Y6979D02*
X18000Y6911D01*
X17336Y6979D02*
X17931Y6979D01*
X17044Y6688D02*
X17336Y6979D01*
X17044Y6387D02*
X17044Y6688D01*
X16702Y6044D02*
X17044Y6387D01*
X16294Y6044D02*
X16702Y6044D01*
X15500Y5250D02*
X16294Y6044D01*
X28500Y5000D02*
X29500Y5000D01*
X24914Y3787D02*
X23504Y5196D01*
X27287Y3787D02*
X24914Y3787D01*
X28500Y5000D02*
X27287Y3787D01*
X29500Y8250D02*
X30500Y8250D01*
X30500Y8250D02*
X31500Y8250D01*
X29500Y8250D02*
X28500Y8250D01*
X17782Y3532D02*
X16500Y2250D01*
X20977Y3532D02*
X17782Y3532D01*
X24195Y6750D02*
X20977Y3532D01*
X27143Y6750D02*
X24195Y6750D01*
X28500Y8106D02*
X27143Y6750D01*
X28500Y8250D02*
X28500Y8106D01*
X29500Y11500D02*
X28500Y11500D01*
X29500Y11500D02*
X30500Y11500D01*
X30500Y11500D02*
X31500Y11500D01*
X15500Y2404D02*
X16917Y3822D01*
X15500Y2250D02*
X15500Y2404D01*
X16917Y3822D02*
X16917Y3822D01*
X20901Y3822D02*
X16917Y3822D01*
X24829Y7750D02*
X20901Y3822D01*
X27279Y7750D02*
X24829Y7750D01*
X29139Y9609D02*
X27279Y7750D01*
X29980Y9609D02*
X29139Y9609D01*
X18500Y1000D02*
X18500Y2250D01*
X19000Y5750D02*
X19500Y5250D01*
X19000Y6648D02*
X19000Y5750D01*
X18382Y7266D02*
X19000Y6648D01*
X13266Y7266D02*
X18382Y7266D01*
X12500Y6500D02*
X13266Y7266D01*
X7250Y4750D02*
X6781Y5218D01*
X5468Y5218D02*
X5000Y4750D01*
X6781Y5218D02*
X5468Y5218D01*
X11388Y8750D02*
X11683Y9044D01*
X8850Y8750D02*
X11388Y8750D01*
X7798Y7698D02*
X8850Y8750D01*
X7798Y6235D02*
X7798Y7698D01*
X6781Y5218D02*
X7798Y6235D01*
G54D24*
X2750Y12745D02*
X2750Y13500D01*
X3000Y12495D02*
X2750Y12745D01*
X3000Y12000D02*
X3000Y12495D01*
G54D25*
X4000Y2500D02*
X4000Y3750D01*
X4000Y3750D02*
X5000Y3750D01*
X4000Y3750D02*
X4000Y4750D01*
X8000Y3000D02*
X8000Y3750D01*
X7500Y2500D02*
X8000Y3000D01*
X7000Y3750D02*
X6000Y4750D01*
X8000Y3750D02*
X7000Y3750D01*
G54D24*
X5250Y7750D02*
X5000Y7750D01*
X6750Y9250D02*
X5250Y7750D01*
X6179Y9820D02*
X6750Y9820D01*
X4750Y11250D02*
X6179Y9820D01*
X6750Y9250D02*
X6750Y9820D01*
G54D25*
X1500Y5750D02*
X1750Y5750D01*
X650Y5000D02*
X1500Y5750D01*
X3000Y1250D02*
X3000Y4750D01*
X29750Y2250D02*
X27000Y2250D01*
X31500Y4000D02*
X29750Y2250D01*
X28301Y5551D02*
X27000Y4250D01*
X28493Y5551D02*
X28301Y5551D01*
X30000Y7057D02*
X28493Y5551D01*
X30000Y7433D02*
X30000Y7057D01*
X30297Y7730D02*
X30000Y7433D01*
X31835Y7730D02*
X30297Y7730D01*
X31980Y7874D02*
X31835Y7730D01*
X31980Y10019D02*
X31980Y7874D01*
X31500Y10500D02*
X31980Y10019D01*
X8290Y4960D02*
X9000Y4250D01*
X8290Y7209D02*
X8290Y4960D01*
X8849Y7768D02*
X8290Y7209D01*
X19874Y7768D02*
X8849Y7768D01*
X19952Y7691D02*
X19874Y7768D01*
X20983Y7691D02*
X19952Y7691D01*
X24087Y10794D02*
X20983Y7691D01*
X28019Y10794D02*
X24087Y10794D01*
X28216Y10991D02*
X28019Y10794D01*
X31721Y10991D02*
X28216Y10991D01*
X32243Y10470D02*
X31721Y10991D01*
X32243Y7798D02*
X32243Y10470D01*
X31694Y7250D02*
X32243Y7798D01*
X31500Y7250D02*
X31694Y7250D01*
X28721Y9971D02*
X27000Y8250D01*
X29971Y9971D02*
X28721Y9971D01*
X30500Y10500D02*
X29971Y9971D01*
X11859Y390D02*
X10000Y2250D01*
X22341Y390D02*
X11859Y390D01*
X23650Y2750D02*
X22341Y390D01*
X27943Y2750D02*
X23650Y2750D01*
X29000Y3806D02*
X27943Y2750D01*
X29000Y4183D02*
X29000Y3806D01*
X29297Y4480D02*
X29000Y4183D01*
X31862Y4480D02*
X29297Y4480D01*
X31980Y4597D02*
X31862Y4480D01*
X31980Y5769D02*
X31980Y4597D01*
X30500Y7250D02*
X31980Y5769D01*
X9000Y5250D02*
X9500Y4750D01*
X10400Y4750D02*
X9500Y4750D01*
X10950Y4200D02*
X10400Y4750D01*
X10950Y2016D02*
X10950Y4200D01*
X10950Y2016D02*
X11626Y1340D01*
X29500Y4000D02*
X29500Y3250D01*
X29500Y3250D02*
X29000Y2750D01*
X27519Y6769D02*
X27000Y6250D01*
X29019Y6769D02*
X27519Y6769D01*
X29500Y7250D02*
X29019Y6769D01*
X20321Y9015D02*
X21050Y8286D01*
X16049Y9015D02*
X20321Y9015D01*
X16018Y9045D02*
X16049Y9015D01*
X10278Y7528D02*
X10000Y7250D01*
X19775Y7528D02*
X10278Y7528D01*
X19871Y7432D02*
X19775Y7528D01*
X21064Y7432D02*
X19871Y7432D01*
X23382Y9750D02*
X21064Y7432D01*
X27750Y9750D02*
X23382Y9750D01*
X28500Y10500D02*
X27750Y9750D01*
X10187Y6250D02*
X10000Y6250D01*
X14000Y2437D02*
X10187Y6250D01*
X14000Y2078D02*
X14000Y2437D01*
X14291Y1787D02*
X14000Y2078D01*
X16684Y1787D02*
X14291Y1787D01*
X17000Y2102D02*
X16684Y1787D01*
X17000Y2410D02*
X17000Y2102D01*
X17668Y3078D02*
X17000Y2410D01*
X20863Y3078D02*
X17668Y3078D01*
X23576Y5791D02*
X20863Y3078D01*
X28107Y5791D02*
X23576Y5791D01*
X28724Y6407D02*
X28107Y5791D01*
X23000Y12250D02*
X23000Y10500D01*
X26750Y13500D02*
X27750Y13500D01*
X26012Y14237D02*
X19299Y14237D01*
X26750Y13500D02*
X26012Y14237D01*
X4750Y8500D02*
X4750Y9250D01*
X4000Y7750D02*
X4750Y8500D01*
X13039Y13039D02*
X13500Y13500D01*
X11710Y13039D02*
X13039Y13039D01*
X11100Y13600D02*
X11710Y13039D01*
G54D26*
X650Y8000D02*
X1351Y8000D01*
X2366Y5116D02*
X1000Y3750D01*
X2366Y6984D02*
X2366Y5116D01*
X1351Y8000D02*
X2366Y6984D01*
X1750Y8398D02*
X1351Y8000D01*
X1750Y9000D02*
X1750Y8398D01*
X1750Y9000D02*
X1250Y9500D01*
X3000Y9000D02*
X1750Y9000D01*
X3000Y10458D02*
X3000Y9000D01*
X4953Y12412D02*
X3000Y10458D01*
X13144Y12412D02*
X4953Y12412D01*
X13631Y12899D02*
X13144Y12412D01*
X16649Y12899D02*
X13631Y12899D01*
X17000Y13250D02*
X16649Y12899D01*
M02*
