G04 (created by PCBNEW (2012-nov-02)-testing) date Mon 07 Jan 2013 10:52:30 PM PST*
%MOIN*%
G04 Gerber Fmt 3.4, Leading zero omitted, Abs format*
%FSLAX34Y34*%
G01*
G70*
G90*
G04 APERTURE LIST*
%ADD10C,0.0137795*%
%ADD11C,0.01*%
%ADD12C,0.0059*%
%ADD13C,0.012*%
%ADD14C,0.015*%
%ADD15C,0.005*%
%ADD16C,0.008*%
%ADD17C,0.00590551*%
G04 APERTURE END LIST*
G54D10*
G54D11*
X98416Y-43000D02*
G75*
G03X98416Y-43000I-666J0D01*
G74*
G01*
X96750Y-43000D02*
X98750Y-43000D01*
X97750Y-42000D02*
X97750Y-44000D01*
X63416Y-60500D02*
G75*
G03X63416Y-60500I-666J0D01*
G74*
G01*
X61750Y-60500D02*
X63750Y-60500D01*
X62750Y-59500D02*
X62750Y-61500D01*
G54D12*
X96500Y-59250D02*
X64000Y-59250D01*
X64000Y-59250D02*
X64000Y-44250D01*
X96500Y-44250D02*
X96500Y-59250D01*
X64000Y-44250D02*
X96500Y-44250D01*
G54D13*
X90500Y-47500D02*
X91500Y-47500D01*
X91500Y-47500D02*
X91500Y-57500D01*
X91500Y-57500D02*
X90500Y-57500D01*
X90500Y-57500D02*
X90500Y-47500D01*
X90500Y-48500D02*
X91500Y-48500D01*
X89500Y-47500D02*
X90500Y-47500D01*
X90500Y-47500D02*
X90500Y-57500D01*
X90500Y-57500D02*
X89500Y-57500D01*
X89500Y-57500D02*
X89500Y-47500D01*
X89500Y-48500D02*
X90500Y-48500D01*
X73500Y-47500D02*
X74500Y-47500D01*
X74500Y-47500D02*
X74500Y-57500D01*
X74500Y-57500D02*
X73500Y-57500D01*
X73500Y-57500D02*
X73500Y-47500D01*
X73500Y-48500D02*
X74500Y-48500D01*
X72500Y-47500D02*
X73500Y-47500D01*
X73500Y-47500D02*
X73500Y-57500D01*
X73500Y-57500D02*
X72500Y-57500D01*
X72500Y-57500D02*
X72500Y-47500D01*
X72500Y-48500D02*
X73500Y-48500D01*
X93250Y-45250D02*
X93250Y-46250D01*
X93250Y-46250D02*
X90250Y-46250D01*
X90250Y-46250D02*
X90250Y-45250D01*
X90250Y-45250D02*
X93250Y-45250D01*
X92250Y-46250D02*
X92250Y-45250D01*
G54D14*
X67250Y-45750D02*
G75*
G03X67250Y-45750I-1500J0D01*
G74*
G01*
G54D11*
X66500Y-52500D02*
X67000Y-52500D01*
X67000Y-52500D02*
X67000Y-53500D01*
X67000Y-53500D02*
X66500Y-53500D01*
X66500Y-52000D02*
X70500Y-52000D01*
X70500Y-52000D02*
X70500Y-54000D01*
X70500Y-54000D02*
X66500Y-54000D01*
X66500Y-54000D02*
X66500Y-52000D01*
G54D14*
X86500Y-56000D02*
X86000Y-56000D01*
X86000Y-56000D02*
X86000Y-55000D01*
X86000Y-55000D02*
X86500Y-55000D01*
X86500Y-56500D02*
X75500Y-56500D01*
X75500Y-56500D02*
X75500Y-54500D01*
X75500Y-54500D02*
X86500Y-54500D01*
X86500Y-54500D02*
X86500Y-56500D01*
X86500Y-51750D02*
X86000Y-51750D01*
X86000Y-51750D02*
X86000Y-50750D01*
X86000Y-50750D02*
X86500Y-50750D01*
X86500Y-52250D02*
X75500Y-52250D01*
X75500Y-52250D02*
X75500Y-50250D01*
X75500Y-50250D02*
X86500Y-50250D01*
X86500Y-50250D02*
X86500Y-52250D01*
G54D13*
X67000Y-47250D02*
X67000Y-47550D01*
X67000Y-47550D02*
X66600Y-47550D01*
X66600Y-47550D02*
X66600Y-49950D01*
X66600Y-49950D02*
X67000Y-49950D01*
X67000Y-49950D02*
X67000Y-50250D01*
X67000Y-49950D02*
X67400Y-49950D01*
X67400Y-49950D02*
X67400Y-47550D01*
X67400Y-47550D02*
X67000Y-47550D01*
X66600Y-47750D02*
X67400Y-47750D01*
X67400Y-47850D02*
X66600Y-47850D01*
G54D14*
X79250Y-48250D02*
X75750Y-48250D01*
X75750Y-48250D02*
X75750Y-46250D01*
X75750Y-46250D02*
X79250Y-46250D01*
X79250Y-46250D02*
X79250Y-48250D01*
X79250Y-47500D02*
X78750Y-47500D01*
X78750Y-47500D02*
X78750Y-47000D01*
X78750Y-47000D02*
X79250Y-47000D01*
G54D15*
X66500Y-49250D02*
G75*
G03X66500Y-49250I-1250J0D01*
G74*
G01*
G54D13*
X67520Y-56250D02*
X69500Y-56250D01*
X69500Y-56250D02*
X69500Y-57250D01*
X69500Y-57250D02*
X67500Y-57250D01*
X67500Y-57250D02*
X67500Y-56250D01*
X67500Y-56500D02*
X67750Y-56250D01*
X70000Y-58000D02*
X69700Y-58000D01*
X69700Y-58000D02*
X69700Y-57600D01*
X69700Y-57600D02*
X67300Y-57600D01*
X67300Y-57600D02*
X67300Y-58000D01*
X67300Y-58000D02*
X67000Y-58000D01*
X67300Y-58000D02*
X67300Y-58400D01*
X67300Y-58400D02*
X69700Y-58400D01*
X69700Y-58400D02*
X69700Y-58000D01*
X69500Y-57600D02*
X69500Y-58400D01*
X69400Y-58400D02*
X69400Y-57600D01*
X66250Y-52020D02*
X66250Y-54000D01*
X66250Y-54000D02*
X65250Y-54000D01*
X65250Y-54000D02*
X65250Y-52000D01*
X65250Y-52000D02*
X66250Y-52000D01*
X66000Y-52000D02*
X66250Y-52250D01*
G54D14*
X67750Y-47250D02*
X67750Y-47000D01*
X67750Y-47000D02*
X71750Y-47000D01*
X71750Y-47000D02*
X71750Y-47250D01*
X67750Y-48750D02*
X67750Y-47250D01*
X67750Y-47250D02*
X71750Y-47250D01*
X71750Y-47250D02*
X71750Y-48750D01*
X71750Y-48750D02*
X67750Y-48750D01*
G54D13*
X72000Y-56270D02*
X72000Y-58250D01*
X72000Y-58250D02*
X71000Y-58250D01*
X71000Y-58250D02*
X71000Y-56250D01*
X71000Y-56250D02*
X72000Y-56250D01*
X71750Y-56250D02*
X72000Y-56500D01*
X71020Y-44500D02*
X73000Y-44500D01*
X73000Y-44500D02*
X73000Y-45500D01*
X73000Y-45500D02*
X71000Y-45500D01*
X71000Y-45500D02*
X71000Y-44500D01*
X71000Y-44750D02*
X71250Y-44500D01*
X86750Y-56480D02*
X86750Y-54500D01*
X86750Y-54500D02*
X87750Y-54500D01*
X87750Y-54500D02*
X87750Y-56500D01*
X87750Y-56500D02*
X86750Y-56500D01*
X87000Y-56500D02*
X86750Y-56250D01*
X86750Y-52230D02*
X86750Y-50250D01*
X86750Y-50250D02*
X87750Y-50250D01*
X87750Y-50250D02*
X87750Y-52250D01*
X87750Y-52250D02*
X86750Y-52250D01*
X87000Y-52250D02*
X86750Y-52000D01*
G54D15*
X70750Y-45500D02*
G75*
G03X70750Y-45500I-1250J0D01*
G74*
G01*
G54D13*
X96000Y-52500D02*
X92000Y-52500D01*
X92000Y-52500D02*
X92000Y-50500D01*
X92000Y-50500D02*
X96000Y-50500D01*
X96000Y-50500D02*
X96000Y-52500D01*
X96000Y-49250D02*
X92000Y-49250D01*
X92000Y-49250D02*
X92000Y-47250D01*
X92000Y-47250D02*
X96000Y-47250D01*
X96000Y-47250D02*
X96000Y-49250D01*
X96000Y-55750D02*
X92000Y-55750D01*
X92000Y-55750D02*
X92000Y-53750D01*
X92000Y-53750D02*
X96000Y-53750D01*
X96000Y-53750D02*
X96000Y-55750D01*
G54D16*
X64650Y-51250D02*
X64650Y-51450D01*
X64650Y-54250D02*
X64650Y-54050D01*
X64650Y-54050D02*
X65050Y-54050D01*
X65050Y-54050D02*
X65050Y-51450D01*
X65050Y-51450D02*
X64250Y-51450D01*
X64250Y-51450D02*
X64250Y-54050D01*
X64250Y-54050D02*
X64650Y-54050D01*
X64850Y-51450D02*
X65050Y-51650D01*
X84000Y-48750D02*
X84200Y-48750D01*
X87000Y-48750D02*
X86800Y-48750D01*
X86800Y-48750D02*
X86800Y-48350D01*
X86800Y-48350D02*
X84200Y-48350D01*
X84200Y-48350D02*
X84200Y-49150D01*
X84200Y-49150D02*
X86800Y-49150D01*
X86800Y-49150D02*
X86800Y-48750D01*
X84200Y-48550D02*
X84400Y-48350D01*
X85000Y-57750D02*
X85200Y-57750D01*
X88000Y-57750D02*
X87800Y-57750D01*
X87800Y-57750D02*
X87800Y-57350D01*
X87800Y-57350D02*
X85200Y-57350D01*
X85200Y-57350D02*
X85200Y-58150D01*
X85200Y-58150D02*
X87800Y-58150D01*
X87800Y-58150D02*
X87800Y-57750D01*
X85200Y-57550D02*
X85400Y-57350D01*
X75100Y-45450D02*
X75100Y-45650D01*
X75100Y-48450D02*
X75100Y-48250D01*
X75100Y-48250D02*
X75500Y-48250D01*
X75500Y-48250D02*
X75500Y-45650D01*
X75500Y-45650D02*
X74700Y-45650D01*
X74700Y-45650D02*
X74700Y-48250D01*
X74700Y-48250D02*
X75100Y-48250D01*
X75300Y-45650D02*
X75500Y-45850D01*
X65000Y-55500D02*
X65200Y-55500D01*
X68000Y-55500D02*
X67800Y-55500D01*
X67800Y-55500D02*
X67800Y-55100D01*
X67800Y-55100D02*
X65200Y-55100D01*
X65200Y-55100D02*
X65200Y-55900D01*
X65200Y-55900D02*
X67800Y-55900D01*
X67800Y-55900D02*
X67800Y-55500D01*
X65200Y-55300D02*
X65400Y-55100D01*
X72000Y-55500D02*
X71800Y-55500D01*
X69000Y-55500D02*
X69200Y-55500D01*
X69200Y-55500D02*
X69200Y-55900D01*
X69200Y-55900D02*
X71800Y-55900D01*
X71800Y-55900D02*
X71800Y-55100D01*
X71800Y-55100D02*
X69200Y-55100D01*
X69200Y-55100D02*
X69200Y-55500D01*
X71800Y-55700D02*
X71600Y-55900D01*
X71250Y-54500D02*
X71250Y-54300D01*
X71250Y-51500D02*
X71250Y-51700D01*
X71250Y-51700D02*
X70850Y-51700D01*
X70850Y-51700D02*
X70850Y-54300D01*
X70850Y-54300D02*
X71650Y-54300D01*
X71650Y-54300D02*
X71650Y-51700D01*
X71650Y-51700D02*
X71250Y-51700D01*
X71050Y-54300D02*
X70850Y-54100D01*
G54D13*
X84000Y-58750D02*
X84000Y-58750D01*
X84000Y-57750D02*
X84000Y-58750D01*
X84000Y-58750D02*
X84000Y-58750D01*
X84000Y-58750D02*
X80000Y-58750D01*
X80000Y-58750D02*
X80000Y-57750D01*
X80000Y-57750D02*
X84000Y-57750D01*
X83000Y-57750D02*
X83000Y-58750D01*
G54D14*
X67750Y-49250D02*
X67750Y-49000D01*
X67750Y-49000D02*
X71750Y-49000D01*
X71750Y-49000D02*
X71750Y-49250D01*
X67750Y-50750D02*
X67750Y-49250D01*
X67750Y-49250D02*
X71750Y-49250D01*
X71750Y-49250D02*
X71750Y-50750D01*
X71750Y-50750D02*
X67750Y-50750D01*
G54D17*
X90901Y-47074D02*
X90901Y-47285D01*
X90887Y-47327D01*
X90859Y-47355D01*
X90817Y-47369D01*
X90789Y-47369D01*
X91028Y-47102D02*
X91042Y-47088D01*
X91070Y-47074D01*
X91140Y-47074D01*
X91168Y-47088D01*
X91182Y-47102D01*
X91196Y-47130D01*
X91196Y-47158D01*
X91182Y-47200D01*
X91014Y-47369D01*
X91196Y-47369D01*
X89901Y-47074D02*
X89901Y-47285D01*
X89887Y-47327D01*
X89859Y-47355D01*
X89817Y-47369D01*
X89789Y-47369D01*
X90168Y-47172D02*
X90168Y-47369D01*
X90098Y-47060D02*
X90028Y-47271D01*
X90210Y-47271D01*
X73901Y-47074D02*
X73901Y-47285D01*
X73887Y-47327D01*
X73859Y-47355D01*
X73817Y-47369D01*
X73789Y-47369D01*
X74014Y-47074D02*
X74196Y-47074D01*
X74098Y-47186D01*
X74140Y-47186D01*
X74168Y-47200D01*
X74182Y-47214D01*
X74196Y-47242D01*
X74196Y-47313D01*
X74182Y-47341D01*
X74168Y-47355D01*
X74140Y-47369D01*
X74056Y-47369D01*
X74028Y-47355D01*
X74014Y-47341D01*
X72901Y-47074D02*
X72901Y-47285D01*
X72887Y-47327D01*
X72859Y-47355D01*
X72817Y-47369D01*
X72789Y-47369D01*
X73196Y-47369D02*
X73028Y-47369D01*
X73112Y-47369D02*
X73112Y-47074D01*
X73084Y-47116D01*
X73056Y-47144D01*
X73028Y-47158D01*
X91574Y-46869D02*
X91475Y-46728D01*
X91405Y-46869D02*
X91405Y-46574D01*
X91517Y-46574D01*
X91546Y-46588D01*
X91560Y-46602D01*
X91574Y-46630D01*
X91574Y-46672D01*
X91560Y-46700D01*
X91546Y-46714D01*
X91517Y-46728D01*
X91405Y-46728D01*
X91658Y-46574D02*
X91757Y-46869D01*
X91855Y-46574D01*
X92108Y-46869D02*
X91939Y-46869D01*
X92024Y-46869D02*
X92024Y-46574D01*
X91996Y-46616D01*
X91967Y-46644D01*
X91939Y-46658D01*
X64950Y-47619D02*
X64810Y-47619D01*
X64810Y-47324D01*
X65203Y-47619D02*
X65035Y-47619D01*
X65119Y-47619D02*
X65119Y-47324D01*
X65091Y-47366D01*
X65063Y-47394D01*
X65035Y-47408D01*
X66074Y-54724D02*
X66313Y-54724D01*
X66341Y-54710D01*
X66355Y-54696D01*
X66369Y-54668D01*
X66369Y-54612D01*
X66355Y-54584D01*
X66341Y-54570D01*
X66313Y-54556D01*
X66074Y-54556D01*
X66369Y-54260D02*
X66369Y-54429D01*
X66369Y-54345D02*
X66074Y-54345D01*
X66116Y-54373D01*
X66144Y-54401D01*
X66158Y-54429D01*
X74775Y-55324D02*
X74775Y-55563D01*
X74789Y-55591D01*
X74803Y-55605D01*
X74831Y-55619D01*
X74887Y-55619D01*
X74915Y-55605D01*
X74929Y-55591D01*
X74943Y-55563D01*
X74943Y-55324D01*
X75056Y-55324D02*
X75239Y-55324D01*
X75140Y-55436D01*
X75182Y-55436D01*
X75210Y-55450D01*
X75224Y-55464D01*
X75239Y-55492D01*
X75239Y-55563D01*
X75224Y-55591D01*
X75210Y-55605D01*
X75182Y-55619D01*
X75098Y-55619D01*
X75070Y-55605D01*
X75056Y-55591D01*
X74775Y-51074D02*
X74775Y-51313D01*
X74789Y-51341D01*
X74803Y-51355D01*
X74831Y-51369D01*
X74887Y-51369D01*
X74915Y-51355D01*
X74929Y-51341D01*
X74943Y-51313D01*
X74943Y-51074D01*
X75070Y-51102D02*
X75084Y-51088D01*
X75112Y-51074D01*
X75182Y-51074D01*
X75210Y-51088D01*
X75224Y-51102D01*
X75239Y-51130D01*
X75239Y-51158D01*
X75224Y-51200D01*
X75056Y-51369D01*
X75239Y-51369D01*
X66419Y-48067D02*
X66124Y-48067D01*
X66124Y-47997D01*
X66138Y-47955D01*
X66166Y-47927D01*
X66194Y-47913D01*
X66250Y-47899D01*
X66292Y-47899D01*
X66349Y-47913D01*
X66377Y-47927D01*
X66405Y-47955D01*
X66419Y-47997D01*
X66419Y-48067D01*
X66419Y-47617D02*
X66419Y-47786D01*
X66419Y-47702D02*
X66124Y-47702D01*
X66166Y-47730D01*
X66194Y-47758D01*
X66208Y-47786D01*
X80119Y-47538D02*
X79824Y-47538D01*
X80091Y-47228D02*
X80105Y-47242D01*
X80119Y-47285D01*
X80119Y-47313D01*
X80105Y-47355D01*
X80077Y-47383D01*
X80049Y-47397D01*
X79992Y-47411D01*
X79950Y-47411D01*
X79894Y-47397D01*
X79866Y-47383D01*
X79838Y-47355D01*
X79824Y-47313D01*
X79824Y-47285D01*
X79838Y-47242D01*
X79852Y-47228D01*
X80119Y-46947D02*
X80119Y-47116D01*
X80119Y-47032D02*
X79824Y-47032D01*
X79866Y-47060D01*
X79894Y-47088D01*
X79908Y-47116D01*
X64391Y-50599D02*
X64405Y-50613D01*
X64419Y-50655D01*
X64419Y-50683D01*
X64405Y-50725D01*
X64377Y-50753D01*
X64349Y-50767D01*
X64292Y-50782D01*
X64250Y-50782D01*
X64194Y-50767D01*
X64166Y-50753D01*
X64138Y-50725D01*
X64124Y-50683D01*
X64124Y-50655D01*
X64138Y-50613D01*
X64152Y-50599D01*
X64419Y-50458D02*
X64419Y-50402D01*
X64405Y-50374D01*
X64391Y-50360D01*
X64349Y-50332D01*
X64292Y-50317D01*
X64180Y-50317D01*
X64152Y-50332D01*
X64138Y-50346D01*
X64124Y-50374D01*
X64124Y-50430D01*
X64138Y-50458D01*
X64152Y-50472D01*
X64180Y-50486D01*
X64250Y-50486D01*
X64278Y-50472D01*
X64292Y-50458D01*
X64307Y-50430D01*
X64307Y-50374D01*
X64292Y-50346D01*
X64278Y-50332D01*
X64250Y-50317D01*
X69800Y-57091D02*
X69786Y-57105D01*
X69744Y-57119D01*
X69716Y-57119D01*
X69674Y-57105D01*
X69646Y-57077D01*
X69632Y-57049D01*
X69617Y-56992D01*
X69617Y-56950D01*
X69632Y-56894D01*
X69646Y-56866D01*
X69674Y-56838D01*
X69716Y-56824D01*
X69744Y-56824D01*
X69786Y-56838D01*
X69800Y-56852D01*
X70053Y-56824D02*
X69997Y-56824D01*
X69969Y-56838D01*
X69955Y-56852D01*
X69927Y-56894D01*
X69913Y-56950D01*
X69913Y-57063D01*
X69927Y-57091D01*
X69941Y-57105D01*
X69969Y-57119D01*
X70025Y-57119D01*
X70053Y-57105D01*
X70067Y-57091D01*
X70082Y-57063D01*
X70082Y-56992D01*
X70067Y-56964D01*
X70053Y-56950D01*
X70025Y-56936D01*
X69969Y-56936D01*
X69941Y-56950D01*
X69927Y-56964D01*
X69913Y-56992D01*
X67382Y-58819D02*
X67382Y-58524D01*
X67452Y-58524D01*
X67494Y-58538D01*
X67522Y-58566D01*
X67536Y-58594D01*
X67550Y-58650D01*
X67550Y-58692D01*
X67536Y-58749D01*
X67522Y-58777D01*
X67494Y-58805D01*
X67452Y-58819D01*
X67382Y-58819D01*
X67663Y-58552D02*
X67677Y-58538D01*
X67705Y-58524D01*
X67775Y-58524D01*
X67803Y-58538D01*
X67817Y-58552D01*
X67832Y-58580D01*
X67832Y-58608D01*
X67817Y-58650D01*
X67649Y-58819D01*
X67832Y-58819D01*
X65700Y-51591D02*
X65686Y-51605D01*
X65644Y-51619D01*
X65616Y-51619D01*
X65574Y-51605D01*
X65546Y-51577D01*
X65532Y-51549D01*
X65517Y-51492D01*
X65517Y-51450D01*
X65532Y-51394D01*
X65546Y-51366D01*
X65574Y-51338D01*
X65616Y-51324D01*
X65644Y-51324D01*
X65686Y-51338D01*
X65700Y-51352D01*
X65799Y-51324D02*
X65996Y-51324D01*
X65869Y-51619D01*
X95010Y-55619D02*
X95010Y-55324D01*
X95109Y-55535D01*
X95207Y-55324D01*
X95207Y-55619D01*
X95334Y-55352D02*
X95348Y-55338D01*
X95376Y-55324D01*
X95446Y-55324D01*
X95474Y-55338D01*
X95489Y-55352D01*
X95503Y-55380D01*
X95503Y-55408D01*
X95489Y-55450D01*
X95320Y-55619D01*
X95503Y-55619D01*
X68000Y-46869D02*
X67902Y-46728D01*
X67832Y-46869D02*
X67832Y-46574D01*
X67944Y-46574D01*
X67972Y-46588D01*
X67986Y-46602D01*
X68000Y-46630D01*
X68000Y-46672D01*
X67986Y-46700D01*
X67972Y-46714D01*
X67944Y-46728D01*
X67832Y-46728D01*
X68253Y-46574D02*
X68197Y-46574D01*
X68169Y-46588D01*
X68155Y-46602D01*
X68127Y-46644D01*
X68113Y-46700D01*
X68113Y-46813D01*
X68127Y-46841D01*
X68141Y-46855D01*
X68169Y-46869D01*
X68225Y-46869D01*
X68253Y-46855D01*
X68267Y-46841D01*
X68282Y-46813D01*
X68282Y-46742D01*
X68267Y-46714D01*
X68253Y-46700D01*
X68225Y-46686D01*
X68169Y-46686D01*
X68141Y-46700D01*
X68127Y-46714D01*
X68113Y-46742D01*
X72441Y-58049D02*
X72455Y-58063D01*
X72469Y-58105D01*
X72469Y-58133D01*
X72455Y-58175D01*
X72427Y-58203D01*
X72399Y-58217D01*
X72342Y-58232D01*
X72300Y-58232D01*
X72244Y-58217D01*
X72216Y-58203D01*
X72188Y-58175D01*
X72174Y-58133D01*
X72174Y-58105D01*
X72188Y-58063D01*
X72202Y-58049D01*
X72174Y-57950D02*
X72174Y-57767D01*
X72286Y-57866D01*
X72286Y-57824D01*
X72300Y-57796D01*
X72314Y-57782D01*
X72342Y-57767D01*
X72413Y-57767D01*
X72441Y-57782D01*
X72455Y-57796D01*
X72469Y-57824D01*
X72469Y-57908D01*
X72455Y-57936D01*
X72441Y-57950D01*
X73341Y-45049D02*
X73355Y-45063D01*
X73369Y-45105D01*
X73369Y-45133D01*
X73355Y-45175D01*
X73327Y-45203D01*
X73299Y-45217D01*
X73242Y-45232D01*
X73200Y-45232D01*
X73144Y-45217D01*
X73116Y-45203D01*
X73088Y-45175D01*
X73074Y-45133D01*
X73074Y-45105D01*
X73088Y-45063D01*
X73102Y-45049D01*
X73369Y-44767D02*
X73369Y-44936D01*
X73369Y-44852D02*
X73074Y-44852D01*
X73116Y-44880D01*
X73144Y-44908D01*
X73158Y-44936D01*
X88141Y-55499D02*
X88155Y-55513D01*
X88169Y-55555D01*
X88169Y-55583D01*
X88155Y-55625D01*
X88127Y-55653D01*
X88099Y-55667D01*
X88042Y-55682D01*
X88000Y-55682D01*
X87944Y-55667D01*
X87916Y-55653D01*
X87888Y-55625D01*
X87874Y-55583D01*
X87874Y-55555D01*
X87888Y-55513D01*
X87902Y-55499D01*
X87972Y-55246D02*
X88169Y-55246D01*
X87860Y-55316D02*
X88071Y-55386D01*
X88071Y-55203D01*
X88141Y-51299D02*
X88155Y-51313D01*
X88169Y-51355D01*
X88169Y-51383D01*
X88155Y-51425D01*
X88127Y-51453D01*
X88099Y-51467D01*
X88042Y-51482D01*
X88000Y-51482D01*
X87944Y-51467D01*
X87916Y-51453D01*
X87888Y-51425D01*
X87874Y-51383D01*
X87874Y-51355D01*
X87888Y-51313D01*
X87902Y-51299D01*
X87874Y-51032D02*
X87874Y-51172D01*
X88014Y-51186D01*
X88000Y-51172D01*
X87986Y-51144D01*
X87986Y-51074D01*
X88000Y-51046D01*
X88014Y-51032D01*
X88042Y-51017D01*
X88113Y-51017D01*
X88141Y-51032D01*
X88155Y-51046D01*
X88169Y-51074D01*
X88169Y-51144D01*
X88155Y-51172D01*
X88141Y-51186D01*
X65010Y-55619D02*
X65010Y-55324D01*
X65109Y-55535D01*
X65207Y-55324D01*
X65207Y-55619D01*
X65503Y-55619D02*
X65334Y-55619D01*
X65418Y-55619D02*
X65418Y-55324D01*
X65390Y-55366D01*
X65362Y-55394D01*
X65334Y-55408D01*
X68000Y-44841D02*
X67986Y-44855D01*
X67944Y-44869D01*
X67916Y-44869D01*
X67874Y-44855D01*
X67846Y-44827D01*
X67832Y-44799D01*
X67817Y-44742D01*
X67817Y-44700D01*
X67832Y-44644D01*
X67846Y-44616D01*
X67874Y-44588D01*
X67916Y-44574D01*
X67944Y-44574D01*
X67986Y-44588D01*
X68000Y-44602D01*
X68113Y-44602D02*
X68127Y-44588D01*
X68155Y-44574D01*
X68225Y-44574D01*
X68253Y-44588D01*
X68267Y-44602D01*
X68282Y-44630D01*
X68282Y-44658D01*
X68267Y-44700D01*
X68099Y-44869D01*
X68282Y-44869D01*
X96369Y-52188D02*
X96074Y-52188D01*
X96074Y-52076D01*
X96088Y-52048D01*
X96102Y-52034D01*
X96130Y-52020D01*
X96172Y-52020D01*
X96200Y-52034D01*
X96214Y-52048D01*
X96228Y-52076D01*
X96228Y-52188D01*
X96397Y-51964D02*
X96397Y-51739D01*
X96355Y-51682D02*
X96369Y-51640D01*
X96369Y-51570D01*
X96355Y-51542D01*
X96341Y-51528D01*
X96313Y-51514D01*
X96285Y-51514D01*
X96257Y-51528D01*
X96242Y-51542D01*
X96228Y-51570D01*
X96214Y-51626D01*
X96200Y-51654D01*
X96186Y-51668D01*
X96158Y-51682D01*
X96130Y-51682D01*
X96102Y-51668D01*
X96088Y-51654D01*
X96074Y-51626D01*
X96074Y-51556D01*
X96088Y-51514D01*
X96369Y-51387D02*
X96074Y-51387D01*
X96074Y-51317D01*
X96088Y-51275D01*
X96116Y-51246D01*
X96144Y-51232D01*
X96200Y-51218D01*
X96242Y-51218D01*
X96299Y-51232D01*
X96327Y-51246D01*
X96355Y-51275D01*
X96369Y-51317D01*
X96369Y-51387D01*
X96369Y-51092D02*
X96074Y-51092D01*
X96369Y-50796D02*
X96369Y-50965D01*
X96369Y-50881D02*
X96074Y-50881D01*
X96116Y-50909D01*
X96144Y-50937D01*
X96158Y-50965D01*
X96369Y-49023D02*
X96074Y-49023D01*
X96074Y-48910D01*
X96088Y-48882D01*
X96102Y-48868D01*
X96130Y-48854D01*
X96172Y-48854D01*
X96200Y-48868D01*
X96214Y-48882D01*
X96228Y-48910D01*
X96228Y-49023D01*
X96397Y-48798D02*
X96397Y-48573D01*
X96355Y-48517D02*
X96369Y-48474D01*
X96369Y-48404D01*
X96355Y-48376D01*
X96341Y-48362D01*
X96313Y-48348D01*
X96285Y-48348D01*
X96257Y-48362D01*
X96242Y-48376D01*
X96228Y-48404D01*
X96214Y-48460D01*
X96200Y-48489D01*
X96186Y-48503D01*
X96158Y-48517D01*
X96130Y-48517D01*
X96102Y-48503D01*
X96088Y-48489D01*
X96074Y-48460D01*
X96074Y-48390D01*
X96088Y-48348D01*
X96369Y-48221D02*
X96074Y-48221D01*
X96074Y-48151D01*
X96088Y-48109D01*
X96116Y-48081D01*
X96144Y-48067D01*
X96200Y-48053D01*
X96242Y-48053D01*
X96299Y-48067D01*
X96327Y-48081D01*
X96355Y-48109D01*
X96369Y-48151D01*
X96369Y-48221D01*
X96074Y-47870D02*
X96074Y-47814D01*
X96088Y-47785D01*
X96116Y-47757D01*
X96172Y-47743D01*
X96271Y-47743D01*
X96327Y-47757D01*
X96355Y-47785D01*
X96369Y-47814D01*
X96369Y-47870D01*
X96355Y-47898D01*
X96327Y-47926D01*
X96271Y-47940D01*
X96172Y-47940D01*
X96116Y-47926D01*
X96088Y-47898D01*
X96074Y-47870D01*
X96369Y-47462D02*
X96369Y-47631D01*
X96369Y-47546D02*
X96074Y-47546D01*
X96116Y-47575D01*
X96144Y-47603D01*
X96158Y-47631D01*
X96369Y-55635D02*
X96074Y-55635D01*
X96074Y-55523D01*
X96088Y-55495D01*
X96102Y-55481D01*
X96130Y-55467D01*
X96172Y-55467D01*
X96200Y-55481D01*
X96214Y-55495D01*
X96228Y-55523D01*
X96228Y-55635D01*
X96397Y-55410D02*
X96397Y-55185D01*
X96355Y-55129D02*
X96369Y-55087D01*
X96369Y-55017D01*
X96355Y-54989D01*
X96341Y-54974D01*
X96313Y-54960D01*
X96285Y-54960D01*
X96257Y-54974D01*
X96242Y-54989D01*
X96228Y-55017D01*
X96214Y-55073D01*
X96200Y-55101D01*
X96186Y-55115D01*
X96158Y-55129D01*
X96130Y-55129D01*
X96102Y-55115D01*
X96088Y-55101D01*
X96074Y-55073D01*
X96074Y-55003D01*
X96088Y-54960D01*
X96341Y-54665D02*
X96355Y-54679D01*
X96369Y-54721D01*
X96369Y-54750D01*
X96355Y-54792D01*
X96327Y-54820D01*
X96299Y-54834D01*
X96242Y-54848D01*
X96200Y-54848D01*
X96144Y-54834D01*
X96116Y-54820D01*
X96088Y-54792D01*
X96074Y-54750D01*
X96074Y-54721D01*
X96088Y-54679D01*
X96102Y-54665D01*
X96369Y-54398D02*
X96369Y-54539D01*
X96074Y-54539D01*
X96369Y-54300D02*
X96074Y-54300D01*
X96369Y-54131D02*
X96200Y-54257D01*
X96074Y-54131D02*
X96242Y-54300D01*
X96369Y-53850D02*
X96369Y-54018D01*
X96369Y-53934D02*
X96074Y-53934D01*
X96116Y-53962D01*
X96144Y-53990D01*
X96158Y-54018D01*
X65469Y-54449D02*
X65328Y-54547D01*
X65469Y-54617D02*
X65174Y-54617D01*
X65174Y-54505D01*
X65188Y-54477D01*
X65202Y-54463D01*
X65230Y-54449D01*
X65272Y-54449D01*
X65300Y-54463D01*
X65314Y-54477D01*
X65328Y-54505D01*
X65328Y-54617D01*
X65469Y-54308D02*
X65469Y-54252D01*
X65455Y-54224D01*
X65441Y-54210D01*
X65399Y-54182D01*
X65342Y-54167D01*
X65230Y-54167D01*
X65202Y-54182D01*
X65188Y-54196D01*
X65174Y-54224D01*
X65174Y-54280D01*
X65188Y-54308D01*
X65202Y-54322D01*
X65230Y-54336D01*
X65300Y-54336D01*
X65328Y-54322D01*
X65342Y-54308D01*
X65357Y-54280D01*
X65357Y-54224D01*
X65342Y-54196D01*
X65328Y-54182D01*
X65300Y-54167D01*
X85150Y-48119D02*
X85052Y-47978D01*
X84982Y-48119D02*
X84982Y-47824D01*
X85094Y-47824D01*
X85122Y-47838D01*
X85136Y-47852D01*
X85150Y-47880D01*
X85150Y-47922D01*
X85136Y-47950D01*
X85122Y-47964D01*
X85094Y-47978D01*
X84982Y-47978D01*
X85432Y-48119D02*
X85263Y-48119D01*
X85347Y-48119D02*
X85347Y-47824D01*
X85319Y-47866D01*
X85291Y-47894D01*
X85263Y-47908D01*
X87150Y-58519D02*
X87052Y-58378D01*
X86982Y-58519D02*
X86982Y-58224D01*
X87094Y-58224D01*
X87122Y-58238D01*
X87136Y-58252D01*
X87150Y-58280D01*
X87150Y-58322D01*
X87136Y-58350D01*
X87122Y-58364D01*
X87094Y-58378D01*
X86982Y-58378D01*
X87263Y-58252D02*
X87277Y-58238D01*
X87305Y-58224D01*
X87375Y-58224D01*
X87403Y-58238D01*
X87417Y-58252D01*
X87432Y-58280D01*
X87432Y-58308D01*
X87417Y-58350D01*
X87249Y-58519D01*
X87432Y-58519D01*
X74569Y-46049D02*
X74428Y-46147D01*
X74569Y-46217D02*
X74274Y-46217D01*
X74274Y-46105D01*
X74288Y-46077D01*
X74302Y-46063D01*
X74330Y-46049D01*
X74372Y-46049D01*
X74400Y-46063D01*
X74414Y-46077D01*
X74428Y-46105D01*
X74428Y-46217D01*
X74274Y-45950D02*
X74274Y-45767D01*
X74386Y-45866D01*
X74386Y-45824D01*
X74400Y-45796D01*
X74414Y-45782D01*
X74442Y-45767D01*
X74513Y-45767D01*
X74541Y-45782D01*
X74555Y-45796D01*
X74569Y-45824D01*
X74569Y-45908D01*
X74555Y-45936D01*
X74541Y-45950D01*
X66450Y-56269D02*
X66352Y-56128D01*
X66282Y-56269D02*
X66282Y-55974D01*
X66394Y-55974D01*
X66422Y-55988D01*
X66436Y-56002D01*
X66450Y-56030D01*
X66450Y-56072D01*
X66436Y-56100D01*
X66422Y-56114D01*
X66394Y-56128D01*
X66282Y-56128D01*
X66549Y-55974D02*
X66746Y-55974D01*
X66619Y-56269D01*
X70150Y-56319D02*
X70052Y-56178D01*
X69982Y-56319D02*
X69982Y-56024D01*
X70094Y-56024D01*
X70122Y-56038D01*
X70136Y-56052D01*
X70150Y-56080D01*
X70150Y-56122D01*
X70136Y-56150D01*
X70122Y-56164D01*
X70094Y-56178D01*
X69982Y-56178D01*
X70417Y-56024D02*
X70277Y-56024D01*
X70263Y-56164D01*
X70277Y-56150D01*
X70305Y-56136D01*
X70375Y-56136D01*
X70403Y-56150D01*
X70417Y-56164D01*
X70432Y-56192D01*
X70432Y-56263D01*
X70417Y-56291D01*
X70403Y-56305D01*
X70375Y-56319D01*
X70305Y-56319D01*
X70277Y-56305D01*
X70263Y-56291D01*
X72019Y-54049D02*
X71878Y-54147D01*
X72019Y-54217D02*
X71724Y-54217D01*
X71724Y-54105D01*
X71738Y-54077D01*
X71752Y-54063D01*
X71780Y-54049D01*
X71822Y-54049D01*
X71850Y-54063D01*
X71864Y-54077D01*
X71878Y-54105D01*
X71878Y-54217D01*
X71822Y-53796D02*
X72019Y-53796D01*
X71710Y-53866D02*
X71921Y-53936D01*
X71921Y-53753D01*
X84182Y-58719D02*
X84182Y-58424D01*
X84294Y-58424D01*
X84322Y-58438D01*
X84336Y-58452D01*
X84350Y-58480D01*
X84350Y-58522D01*
X84336Y-58550D01*
X84322Y-58564D01*
X84294Y-58578D01*
X84182Y-58578D01*
X84463Y-58452D02*
X84477Y-58438D01*
X84505Y-58424D01*
X84575Y-58424D01*
X84603Y-58438D01*
X84617Y-58452D01*
X84632Y-58480D01*
X84632Y-58508D01*
X84617Y-58550D01*
X84449Y-58719D01*
X84632Y-58719D01*
X67421Y-50997D02*
X67393Y-50983D01*
X67365Y-50955D01*
X67323Y-50913D01*
X67295Y-50899D01*
X67267Y-50899D01*
X67281Y-50969D02*
X67253Y-50955D01*
X67225Y-50927D01*
X67210Y-50871D01*
X67210Y-50772D01*
X67225Y-50716D01*
X67253Y-50688D01*
X67281Y-50674D01*
X67337Y-50674D01*
X67365Y-50688D01*
X67393Y-50716D01*
X67407Y-50772D01*
X67407Y-50871D01*
X67393Y-50927D01*
X67365Y-50955D01*
X67337Y-50969D01*
X67281Y-50969D01*
X67689Y-50969D02*
X67520Y-50969D01*
X67604Y-50969D02*
X67604Y-50674D01*
X67576Y-50716D01*
X67548Y-50744D01*
X67520Y-50758D01*
X87682Y-46619D02*
X87682Y-46324D01*
X87794Y-46324D01*
X87822Y-46338D01*
X87836Y-46352D01*
X87850Y-46380D01*
X87850Y-46422D01*
X87836Y-46450D01*
X87822Y-46464D01*
X87794Y-46478D01*
X87682Y-46478D01*
X88132Y-46619D02*
X87963Y-46619D01*
X88047Y-46619D02*
X88047Y-46324D01*
X88019Y-46366D01*
X87991Y-46394D01*
X87963Y-46408D01*
M02*
