G04 (created by PCBNEW (2012-nov-02)-testing) date Mon 07 Jan 2013 10:50:24 PM PST*
%MOIN*%
G04 Gerber Fmt 3.4, Leading zero omitted, Abs format*
%FSLAX34Y34*%
G01*
G70*
G90*
G04 APERTURE LIST*
%ADD10C,0.0137795*%
%ADD11C,0.01*%
%ADD12C,0.0059*%
G04 APERTURE END LIST*
G54D10*
G54D11*
X34416Y16250D02*
G75*
G03X34416Y16250I-666J0D01*
G74*
G01*
X32750Y16250D02*
X34750Y16250D01*
X33750Y17250D02*
X33750Y15250D01*
X-583Y-1250D02*
G75*
G03X-583Y-1250I-666J0D01*
G74*
G01*
X-2250Y-1250D02*
X-250Y-1250D01*
X-1250Y-250D02*
X-1250Y-2250D01*
G54D12*
X32500Y0D02*
X0Y0D01*
X0Y0D02*
X0Y15000D01*
X32500Y15000D02*
X32500Y0D01*
X0Y15000D02*
X32500Y15000D01*
G54D10*
X26793Y11456D02*
X26793Y11043D01*
X27206Y11043D01*
X27206Y11456D01*
X26793Y11456D01*
X27206Y10250D02*
G75*
G03X27206Y10250I-206J0D01*
G74*
G01*
X27206Y9250D02*
G75*
G03X27206Y9250I-206J0D01*
G74*
G01*
X27206Y8250D02*
G75*
G03X27206Y8250I-206J0D01*
G74*
G01*
X27206Y7250D02*
G75*
G03X27206Y7250I-206J0D01*
G74*
G01*
X27206Y6250D02*
G75*
G03X27206Y6250I-206J0D01*
G74*
G01*
X27206Y5250D02*
G75*
G03X27206Y5250I-206J0D01*
G74*
G01*
X27206Y4250D02*
G75*
G03X27206Y4250I-206J0D01*
G74*
G01*
X27206Y3250D02*
G75*
G03X27206Y3250I-206J0D01*
G74*
G01*
X27206Y2250D02*
G75*
G03X27206Y2250I-206J0D01*
G74*
G01*
X25793Y11456D02*
X25793Y11043D01*
X26206Y11043D01*
X26206Y11456D01*
X25793Y11456D01*
X26206Y10250D02*
G75*
G03X26206Y10250I-206J0D01*
G74*
G01*
X26206Y9250D02*
G75*
G03X26206Y9250I-206J0D01*
G74*
G01*
X26206Y8250D02*
G75*
G03X26206Y8250I-206J0D01*
G74*
G01*
X26206Y7250D02*
G75*
G03X26206Y7250I-206J0D01*
G74*
G01*
X26206Y6250D02*
G75*
G03X26206Y6250I-206J0D01*
G74*
G01*
X26206Y5250D02*
G75*
G03X26206Y5250I-206J0D01*
G74*
G01*
X26206Y4250D02*
G75*
G03X26206Y4250I-206J0D01*
G74*
G01*
X26206Y3250D02*
G75*
G03X26206Y3250I-206J0D01*
G74*
G01*
X26206Y2250D02*
G75*
G03X26206Y2250I-206J0D01*
G74*
G01*
X9793Y11456D02*
X9793Y11043D01*
X10206Y11043D01*
X10206Y11456D01*
X9793Y11456D01*
X10206Y10250D02*
G75*
G03X10206Y10250I-206J0D01*
G74*
G01*
X10206Y9250D02*
G75*
G03X10206Y9250I-206J0D01*
G74*
G01*
X10206Y8250D02*
G75*
G03X10206Y8250I-206J0D01*
G74*
G01*
X10206Y7250D02*
G75*
G03X10206Y7250I-206J0D01*
G74*
G01*
X10206Y6250D02*
G75*
G03X10206Y6250I-206J0D01*
G74*
G01*
X10206Y5250D02*
G75*
G03X10206Y5250I-206J0D01*
G74*
G01*
X10206Y4250D02*
G75*
G03X10206Y4250I-206J0D01*
G74*
G01*
X10206Y3250D02*
G75*
G03X10206Y3250I-206J0D01*
G74*
G01*
X10206Y2250D02*
G75*
G03X10206Y2250I-206J0D01*
G74*
G01*
X8793Y11456D02*
X8793Y11043D01*
X9206Y11043D01*
X9206Y11456D01*
X8793Y11456D01*
X9206Y10250D02*
G75*
G03X9206Y10250I-206J0D01*
G74*
G01*
X9206Y9250D02*
G75*
G03X9206Y9250I-206J0D01*
G74*
G01*
X9206Y8250D02*
G75*
G03X9206Y8250I-206J0D01*
G74*
G01*
X9206Y7250D02*
G75*
G03X9206Y7250I-206J0D01*
G74*
G01*
X9206Y6250D02*
G75*
G03X9206Y6250I-206J0D01*
G74*
G01*
X9206Y5250D02*
G75*
G03X9206Y5250I-206J0D01*
G74*
G01*
X9206Y4250D02*
G75*
G03X9206Y4250I-206J0D01*
G74*
G01*
X9206Y3250D02*
G75*
G03X9206Y3250I-206J0D01*
G74*
G01*
X9206Y2250D02*
G75*
G03X9206Y2250I-206J0D01*
G74*
G01*
X28543Y13706D02*
X28543Y13293D01*
X28956Y13293D01*
X28956Y13706D01*
X28543Y13706D01*
X27956Y13500D02*
G75*
G03X27956Y13500I-206J0D01*
G74*
G01*
X26956Y13500D02*
G75*
G03X26956Y13500I-206J0D01*
G74*
G01*
X443Y13806D02*
X443Y13193D01*
X1056Y13193D01*
X1056Y13806D01*
X443Y13806D01*
X3056Y13500D02*
G75*
G03X3056Y13500I-306J0D01*
G74*
G01*
X2793Y4956D02*
X2793Y4543D01*
X3206Y4543D01*
X3206Y4956D01*
X2793Y4956D01*
X4206Y4750D02*
G75*
G03X4206Y4750I-206J0D01*
G74*
G01*
X5206Y4750D02*
G75*
G03X5206Y4750I-206J0D01*
G74*
G01*
X6206Y4750D02*
G75*
G03X6206Y4750I-206J0D01*
G74*
G01*
X6206Y7750D02*
G75*
G03X6206Y7750I-206J0D01*
G74*
G01*
X5206Y7750D02*
G75*
G03X5206Y7750I-206J0D01*
G74*
G01*
X4206Y7750D02*
G75*
G03X4206Y7750I-206J0D01*
G74*
G01*
X3206Y7750D02*
G75*
G03X3206Y7750I-206J0D01*
G74*
G01*
X21293Y5456D02*
X21293Y5043D01*
X21706Y5043D01*
X21706Y5456D01*
X21293Y5456D01*
X20706Y5250D02*
G75*
G03X20706Y5250I-206J0D01*
G74*
G01*
X19706Y5250D02*
G75*
G03X19706Y5250I-206J0D01*
G74*
G01*
X18706Y5250D02*
G75*
G03X18706Y5250I-206J0D01*
G74*
G01*
X17706Y5250D02*
G75*
G03X17706Y5250I-206J0D01*
G74*
G01*
X16706Y5250D02*
G75*
G03X16706Y5250I-206J0D01*
G74*
G01*
X15706Y5250D02*
G75*
G03X15706Y5250I-206J0D01*
G74*
G01*
X14706Y5250D02*
G75*
G03X14706Y5250I-206J0D01*
G74*
G01*
X13706Y5250D02*
G75*
G03X13706Y5250I-206J0D01*
G74*
G01*
X12706Y5250D02*
G75*
G03X12706Y5250I-206J0D01*
G74*
G01*
X12706Y2250D02*
G75*
G03X12706Y2250I-206J0D01*
G74*
G01*
X13706Y2250D02*
G75*
G03X13706Y2250I-206J0D01*
G74*
G01*
X14706Y2250D02*
G75*
G03X14706Y2250I-206J0D01*
G74*
G01*
X15706Y2250D02*
G75*
G03X15706Y2250I-206J0D01*
G74*
G01*
X16706Y2250D02*
G75*
G03X16706Y2250I-206J0D01*
G74*
G01*
X17706Y2250D02*
G75*
G03X17706Y2250I-206J0D01*
G74*
G01*
X18706Y2250D02*
G75*
G03X18706Y2250I-206J0D01*
G74*
G01*
X19706Y2250D02*
G75*
G03X19706Y2250I-206J0D01*
G74*
G01*
X20706Y2250D02*
G75*
G03X20706Y2250I-206J0D01*
G74*
G01*
X21706Y2250D02*
G75*
G03X21706Y2250I-206J0D01*
G74*
G01*
X21293Y9706D02*
X21293Y9293D01*
X21706Y9293D01*
X21706Y9706D01*
X21293Y9706D01*
X20706Y9500D02*
G75*
G03X20706Y9500I-206J0D01*
G74*
G01*
X19706Y9500D02*
G75*
G03X19706Y9500I-206J0D01*
G74*
G01*
X18706Y9500D02*
G75*
G03X18706Y9500I-206J0D01*
G74*
G01*
X17706Y9500D02*
G75*
G03X17706Y9500I-206J0D01*
G74*
G01*
X16706Y9500D02*
G75*
G03X16706Y9500I-206J0D01*
G74*
G01*
X15706Y9500D02*
G75*
G03X15706Y9500I-206J0D01*
G74*
G01*
X14706Y9500D02*
G75*
G03X14706Y9500I-206J0D01*
G74*
G01*
X13706Y9500D02*
G75*
G03X13706Y9500I-206J0D01*
G74*
G01*
X12706Y9500D02*
G75*
G03X12706Y9500I-206J0D01*
G74*
G01*
X12706Y6500D02*
G75*
G03X12706Y6500I-206J0D01*
G74*
G01*
X13706Y6500D02*
G75*
G03X13706Y6500I-206J0D01*
G74*
G01*
X14706Y6500D02*
G75*
G03X14706Y6500I-206J0D01*
G74*
G01*
X15706Y6500D02*
G75*
G03X15706Y6500I-206J0D01*
G74*
G01*
X16706Y6500D02*
G75*
G03X16706Y6500I-206J0D01*
G74*
G01*
X17706Y6500D02*
G75*
G03X17706Y6500I-206J0D01*
G74*
G01*
X18706Y6500D02*
G75*
G03X18706Y6500I-206J0D01*
G74*
G01*
X19706Y6500D02*
G75*
G03X19706Y6500I-206J0D01*
G74*
G01*
X20706Y6500D02*
G75*
G03X20706Y6500I-206J0D01*
G74*
G01*
X21706Y6500D02*
G75*
G03X21706Y6500I-206J0D01*
G74*
G01*
X2793Y12206D02*
X2793Y11793D01*
X3206Y11793D01*
X3206Y12206D01*
X2793Y12206D01*
X3206Y9000D02*
G75*
G03X3206Y9000I-206J0D01*
G74*
G01*
X14293Y13706D02*
X14293Y13293D01*
X14706Y13293D01*
X14706Y13706D01*
X14293Y13706D01*
X13706Y13500D02*
G75*
G03X13706Y13500I-206J0D01*
G74*
G01*
X12706Y13500D02*
G75*
G03X12706Y13500I-206J0D01*
G74*
G01*
X12706Y10500D02*
G75*
G03X12706Y10500I-206J0D01*
G74*
G01*
X13706Y10500D02*
G75*
G03X13706Y10500I-206J0D01*
G74*
G01*
X14706Y10500D02*
G75*
G03X14706Y10500I-206J0D01*
G74*
G01*
X1018Y10731D02*
X1018Y10268D01*
X1481Y10268D01*
X1481Y10731D01*
X1018Y10731D01*
X1481Y9500D02*
G75*
G03X1481Y9500I-231J0D01*
G74*
G01*
X4206Y2500D02*
G75*
G03X4206Y2500I-206J0D01*
G74*
G01*
X5206Y2500D02*
G75*
G03X5206Y2500I-206J0D01*
G74*
G01*
X5793Y1456D02*
X5793Y1043D01*
X6206Y1043D01*
X6206Y1456D01*
X5793Y1456D01*
X3206Y1250D02*
G75*
G03X3206Y1250I-206J0D01*
G74*
G01*
X1956Y6750D02*
G75*
G03X1956Y6750I-206J0D01*
G74*
G01*
X1956Y5750D02*
G75*
G03X1956Y5750I-206J0D01*
G74*
G01*
X32181Y1250D02*
G75*
G03X32181Y1250I-931J0D01*
G74*
G01*
X5031Y11250D02*
G75*
G03X5031Y11250I-281J0D01*
G74*
G01*
X6468Y11531D02*
X6468Y10968D01*
X7031Y10968D01*
X7031Y11531D01*
X6468Y11531D01*
X7706Y2500D02*
G75*
G03X7706Y2500I-206J0D01*
G74*
G01*
X7706Y1500D02*
G75*
G03X7706Y1500I-206J0D01*
G74*
G01*
X7706Y14250D02*
G75*
G03X7706Y14250I-206J0D01*
G74*
G01*
X8706Y14250D02*
G75*
G03X8706Y14250I-206J0D01*
G74*
G01*
X23456Y3250D02*
G75*
G03X23456Y3250I-206J0D01*
G74*
G01*
X23456Y4250D02*
G75*
G03X23456Y4250I-206J0D01*
G74*
G01*
X23456Y7500D02*
G75*
G03X23456Y7500I-206J0D01*
G74*
G01*
X23456Y8500D02*
G75*
G03X23456Y8500I-206J0D01*
G74*
G01*
X2181Y1250D02*
G75*
G03X2181Y1250I-931J0D01*
G74*
G01*
X5768Y13981D02*
X5768Y13518D01*
X6231Y13518D01*
X6231Y13981D01*
X5768Y13981D01*
X5231Y13750D02*
G75*
G03X5231Y13750I-231J0D01*
G74*
G01*
X31268Y8481D02*
X31268Y8018D01*
X31731Y8018D01*
X31731Y8481D01*
X31268Y8481D01*
X31731Y7250D02*
G75*
G03X31731Y7250I-231J0D01*
G74*
G01*
X30731Y8250D02*
G75*
G03X30731Y8250I-231J0D01*
G74*
G01*
X30731Y7250D02*
G75*
G03X30731Y7250I-231J0D01*
G74*
G01*
X29731Y8250D02*
G75*
G03X29731Y8250I-231J0D01*
G74*
G01*
X29731Y7250D02*
G75*
G03X29731Y7250I-231J0D01*
G74*
G01*
X28731Y8250D02*
G75*
G03X28731Y8250I-231J0D01*
G74*
G01*
X28731Y7250D02*
G75*
G03X28731Y7250I-231J0D01*
G74*
G01*
X31268Y11731D02*
X31268Y11268D01*
X31731Y11268D01*
X31731Y11731D01*
X31268Y11731D01*
X31731Y10500D02*
G75*
G03X31731Y10500I-231J0D01*
G74*
G01*
X30731Y11500D02*
G75*
G03X30731Y11500I-231J0D01*
G74*
G01*
X30731Y10500D02*
G75*
G03X30731Y10500I-231J0D01*
G74*
G01*
X29731Y11500D02*
G75*
G03X29731Y11500I-231J0D01*
G74*
G01*
X29731Y10500D02*
G75*
G03X29731Y10500I-231J0D01*
G74*
G01*
X28731Y11500D02*
G75*
G03X28731Y11500I-231J0D01*
G74*
G01*
X28731Y10500D02*
G75*
G03X28731Y10500I-231J0D01*
G74*
G01*
X31268Y5231D02*
X31268Y4768D01*
X31731Y4768D01*
X31731Y5231D01*
X31268Y5231D01*
X31731Y4000D02*
G75*
G03X31731Y4000I-231J0D01*
G74*
G01*
X30731Y5000D02*
G75*
G03X30731Y5000I-231J0D01*
G74*
G01*
X30731Y4000D02*
G75*
G03X30731Y4000I-231J0D01*
G74*
G01*
X29731Y5000D02*
G75*
G03X29731Y5000I-231J0D01*
G74*
G01*
X29731Y4000D02*
G75*
G03X29731Y4000I-231J0D01*
G74*
G01*
X28731Y5000D02*
G75*
G03X28731Y5000I-231J0D01*
G74*
G01*
X28731Y4000D02*
G75*
G03X28731Y4000I-231J0D01*
G74*
G01*
X856Y8000D02*
G75*
G03X856Y8000I-206J0D01*
G74*
G01*
X856Y5000D02*
G75*
G03X856Y5000I-206J0D01*
G74*
G01*
X20206Y10500D02*
G75*
G03X20206Y10500I-206J0D01*
G74*
G01*
X23206Y10500D02*
G75*
G03X23206Y10500I-206J0D01*
G74*
G01*
X21206Y1500D02*
G75*
G03X21206Y1500I-206J0D01*
G74*
G01*
X24206Y1500D02*
G75*
G03X24206Y1500I-206J0D01*
G74*
G01*
X11306Y13800D02*
G75*
G03X11306Y13800I-206J0D01*
G74*
G01*
X11306Y10800D02*
G75*
G03X11306Y10800I-206J0D01*
G74*
G01*
X1206Y3750D02*
G75*
G03X1206Y3750I-206J0D01*
G74*
G01*
X4206Y3750D02*
G75*
G03X4206Y3750I-206J0D01*
G74*
G01*
X8206Y3750D02*
G75*
G03X8206Y3750I-206J0D01*
G74*
G01*
X5206Y3750D02*
G75*
G03X5206Y3750I-206J0D01*
G74*
G01*
X7456Y4750D02*
G75*
G03X7456Y4750I-206J0D01*
G74*
G01*
X7456Y7750D02*
G75*
G03X7456Y7750I-206J0D01*
G74*
G01*
X19293Y1206D02*
X19293Y793D01*
X19706Y793D01*
X19706Y1206D01*
X19293Y1206D01*
X18706Y1000D02*
G75*
G03X18706Y1000I-206J0D01*
G74*
G01*
X17706Y1000D02*
G75*
G03X17706Y1000I-206J0D01*
G74*
G01*
X16706Y1000D02*
G75*
G03X16706Y1000I-206J0D01*
G74*
G01*
X5031Y9250D02*
G75*
G03X5031Y9250I-281J0D01*
G74*
G01*
X6031Y9250D02*
G75*
G03X6031Y9250I-281J0D01*
G74*
G01*
X6468Y9531D02*
X6468Y8968D01*
X7031Y8968D01*
X7031Y9531D01*
X6468Y9531D01*
X16768Y12481D02*
X16768Y12018D01*
X17231Y12018D01*
X17231Y12481D01*
X16768Y12481D01*
X17231Y13250D02*
G75*
G03X17231Y13250I-231J0D01*
G74*
G01*
X18231Y12250D02*
G75*
G03X18231Y12250I-231J0D01*
G74*
G01*
X18231Y13250D02*
G75*
G03X18231Y13250I-231J0D01*
G74*
G01*
X19231Y12250D02*
G75*
G03X19231Y12250I-231J0D01*
G74*
G01*
X19231Y13250D02*
G75*
G03X19231Y13250I-231J0D01*
G74*
G01*
X20231Y12250D02*
G75*
G03X20231Y12250I-231J0D01*
G74*
G01*
X20231Y13250D02*
G75*
G03X20231Y13250I-231J0D01*
G74*
G01*
X21231Y12250D02*
G75*
G03X21231Y12250I-231J0D01*
G74*
G01*
X21231Y13250D02*
G75*
G03X21231Y13250I-231J0D01*
G74*
G01*
X22231Y12250D02*
G75*
G03X22231Y12250I-231J0D01*
G74*
G01*
X22231Y13250D02*
G75*
G03X22231Y13250I-231J0D01*
G74*
G01*
X23231Y12250D02*
G75*
G03X23231Y12250I-231J0D01*
G74*
G01*
X23231Y13250D02*
G75*
G03X23231Y13250I-231J0D01*
G74*
G01*
M02*
