G04 (created by PCBNEW (2012-nov-02)-testing) date Mon 07 Jan 2013 10:52:30 PM PST*
%MOIN*%
G04 Gerber Fmt 3.4, Leading zero omitted, Abs format*
%FSLAX34Y34*%
G01*
G70*
G90*
G04 APERTURE LIST*
%ADD10C,0.0137795*%
G04 APERTURE END LIST*
G54D10*
X4000Y-4000D02*
X161350Y-4000D01*
X161350Y-112930D01*
X4000Y-112930D01*
X4000Y-4000D01*
X4700Y-4700D02*
X160650Y-4700D01*
X160650Y-112230D01*
X4700Y-112230D01*
X4700Y-4700D01*
X26470Y-4000D02*
X26470Y-4700D01*
X15382Y-4552D02*
X15097Y-4552D01*
X15240Y-4552D02*
X15240Y-4052D01*
X15192Y-4123D01*
X15144Y-4171D01*
X15097Y-4195D01*
X26470Y-112930D02*
X26470Y-112230D01*
X15382Y-112782D02*
X15097Y-112782D01*
X15240Y-112782D02*
X15240Y-112282D01*
X15192Y-112353D01*
X15144Y-112401D01*
X15097Y-112425D01*
X48940Y-4000D02*
X48940Y-4700D01*
X37567Y-4100D02*
X37590Y-4076D01*
X37638Y-4052D01*
X37757Y-4052D01*
X37805Y-4076D01*
X37829Y-4100D01*
X37852Y-4147D01*
X37852Y-4195D01*
X37829Y-4266D01*
X37543Y-4552D01*
X37852Y-4552D01*
X48940Y-112930D02*
X48940Y-112230D01*
X37567Y-112330D02*
X37590Y-112306D01*
X37638Y-112282D01*
X37757Y-112282D01*
X37805Y-112306D01*
X37829Y-112330D01*
X37852Y-112377D01*
X37852Y-112425D01*
X37829Y-112496D01*
X37543Y-112782D01*
X37852Y-112782D01*
X71410Y-4000D02*
X71410Y-4700D01*
X60013Y-4052D02*
X60322Y-4052D01*
X60156Y-4242D01*
X60227Y-4242D01*
X60275Y-4266D01*
X60299Y-4290D01*
X60322Y-4338D01*
X60322Y-4457D01*
X60299Y-4504D01*
X60275Y-4528D01*
X60227Y-4552D01*
X60084Y-4552D01*
X60037Y-4528D01*
X60013Y-4504D01*
X71410Y-112930D02*
X71410Y-112230D01*
X60013Y-112282D02*
X60322Y-112282D01*
X60156Y-112472D01*
X60227Y-112472D01*
X60275Y-112496D01*
X60299Y-112520D01*
X60322Y-112568D01*
X60322Y-112687D01*
X60299Y-112734D01*
X60275Y-112758D01*
X60227Y-112782D01*
X60084Y-112782D01*
X60037Y-112758D01*
X60013Y-112734D01*
X93880Y-4000D02*
X93880Y-4700D01*
X82745Y-4219D02*
X82745Y-4552D01*
X82626Y-4028D02*
X82507Y-4385D01*
X82816Y-4385D01*
X93880Y-112930D02*
X93880Y-112230D01*
X82745Y-112449D02*
X82745Y-112782D01*
X82626Y-112258D02*
X82507Y-112615D01*
X82816Y-112615D01*
X116350Y-4000D02*
X116350Y-4700D01*
X105239Y-4052D02*
X105000Y-4052D01*
X104977Y-4290D01*
X105000Y-4266D01*
X105048Y-4242D01*
X105167Y-4242D01*
X105215Y-4266D01*
X105239Y-4290D01*
X105262Y-4338D01*
X105262Y-4457D01*
X105239Y-4504D01*
X105215Y-4528D01*
X105167Y-4552D01*
X105048Y-4552D01*
X105000Y-4528D01*
X104977Y-4504D01*
X116350Y-112930D02*
X116350Y-112230D01*
X105239Y-112282D02*
X105000Y-112282D01*
X104977Y-112520D01*
X105000Y-112496D01*
X105048Y-112472D01*
X105167Y-112472D01*
X105215Y-112496D01*
X105239Y-112520D01*
X105262Y-112568D01*
X105262Y-112687D01*
X105239Y-112734D01*
X105215Y-112758D01*
X105167Y-112782D01*
X105048Y-112782D01*
X105000Y-112758D01*
X104977Y-112734D01*
X138820Y-4000D02*
X138820Y-4700D01*
X127685Y-4052D02*
X127590Y-4052D01*
X127542Y-4076D01*
X127518Y-4100D01*
X127470Y-4171D01*
X127447Y-4266D01*
X127447Y-4457D01*
X127470Y-4504D01*
X127494Y-4528D01*
X127542Y-4552D01*
X127637Y-4552D01*
X127685Y-4528D01*
X127709Y-4504D01*
X127732Y-4457D01*
X127732Y-4338D01*
X127709Y-4290D01*
X127685Y-4266D01*
X127637Y-4242D01*
X127542Y-4242D01*
X127494Y-4266D01*
X127470Y-4290D01*
X127447Y-4338D01*
X138820Y-112930D02*
X138820Y-112230D01*
X127685Y-112282D02*
X127590Y-112282D01*
X127542Y-112306D01*
X127518Y-112330D01*
X127470Y-112401D01*
X127447Y-112496D01*
X127447Y-112687D01*
X127470Y-112734D01*
X127494Y-112758D01*
X127542Y-112782D01*
X127637Y-112782D01*
X127685Y-112758D01*
X127709Y-112734D01*
X127732Y-112687D01*
X127732Y-112568D01*
X127709Y-112520D01*
X127685Y-112496D01*
X127637Y-112472D01*
X127542Y-112472D01*
X127494Y-112496D01*
X127470Y-112520D01*
X127447Y-112568D01*
X149893Y-4052D02*
X150226Y-4052D01*
X150012Y-4552D01*
X149893Y-112282D02*
X150226Y-112282D01*
X150012Y-112782D01*
X4000Y-25780D02*
X4700Y-25780D01*
X4230Y-14949D02*
X4469Y-14949D01*
X4183Y-15092D02*
X4350Y-14592D01*
X4516Y-15092D01*
X161350Y-25780D02*
X160650Y-25780D01*
X160880Y-14949D02*
X161119Y-14949D01*
X160833Y-15092D02*
X161000Y-14592D01*
X161166Y-15092D01*
X4000Y-47560D02*
X4700Y-47560D01*
X4385Y-36610D02*
X4457Y-36634D01*
X4480Y-36658D01*
X4504Y-36705D01*
X4504Y-36777D01*
X4480Y-36824D01*
X4457Y-36848D01*
X4409Y-36872D01*
X4219Y-36872D01*
X4219Y-36372D01*
X4385Y-36372D01*
X4433Y-36396D01*
X4457Y-36420D01*
X4480Y-36467D01*
X4480Y-36515D01*
X4457Y-36562D01*
X4433Y-36586D01*
X4385Y-36610D01*
X4219Y-36610D01*
X161350Y-47560D02*
X160650Y-47560D01*
X161035Y-36610D02*
X161107Y-36634D01*
X161130Y-36658D01*
X161154Y-36705D01*
X161154Y-36777D01*
X161130Y-36824D01*
X161107Y-36848D01*
X161059Y-36872D01*
X160869Y-36872D01*
X160869Y-36372D01*
X161035Y-36372D01*
X161083Y-36396D01*
X161107Y-36420D01*
X161130Y-36467D01*
X161130Y-36515D01*
X161107Y-36562D01*
X161083Y-36586D01*
X161035Y-36610D01*
X160869Y-36610D01*
X4000Y-69340D02*
X4700Y-69340D01*
X4504Y-58604D02*
X4480Y-58628D01*
X4409Y-58652D01*
X4361Y-58652D01*
X4290Y-58628D01*
X4242Y-58580D01*
X4219Y-58533D01*
X4195Y-58438D01*
X4195Y-58366D01*
X4219Y-58271D01*
X4242Y-58223D01*
X4290Y-58176D01*
X4361Y-58152D01*
X4409Y-58152D01*
X4480Y-58176D01*
X4504Y-58200D01*
X161350Y-69340D02*
X160650Y-69340D01*
X161154Y-58604D02*
X161130Y-58628D01*
X161059Y-58652D01*
X161011Y-58652D01*
X160940Y-58628D01*
X160892Y-58580D01*
X160869Y-58533D01*
X160845Y-58438D01*
X160845Y-58366D01*
X160869Y-58271D01*
X160892Y-58223D01*
X160940Y-58176D01*
X161011Y-58152D01*
X161059Y-58152D01*
X161130Y-58176D01*
X161154Y-58200D01*
X4000Y-91120D02*
X4700Y-91120D01*
X4219Y-80432D02*
X4219Y-79932D01*
X4338Y-79932D01*
X4409Y-79956D01*
X4457Y-80003D01*
X4480Y-80051D01*
X4504Y-80146D01*
X4504Y-80218D01*
X4480Y-80313D01*
X4457Y-80360D01*
X4409Y-80408D01*
X4338Y-80432D01*
X4219Y-80432D01*
X161350Y-91120D02*
X160650Y-91120D01*
X160869Y-80432D02*
X160869Y-79932D01*
X160988Y-79932D01*
X161059Y-79956D01*
X161107Y-80003D01*
X161130Y-80051D01*
X161154Y-80146D01*
X161154Y-80218D01*
X161130Y-80313D01*
X161107Y-80360D01*
X161059Y-80408D01*
X160988Y-80432D01*
X160869Y-80432D01*
X4242Y-101950D02*
X4409Y-101950D01*
X4480Y-102212D02*
X4242Y-102212D01*
X4242Y-101712D01*
X4480Y-101712D01*
X160892Y-101950D02*
X161059Y-101950D01*
X161130Y-102212D02*
X160892Y-102212D01*
X160892Y-101712D01*
X161130Y-101712D01*
X127800Y-110672D02*
X127875Y-110072D01*
X128017Y-110072D01*
X128100Y-110101D01*
X128150Y-110158D01*
X128171Y-110215D01*
X128185Y-110330D01*
X128175Y-110415D01*
X128132Y-110530D01*
X128096Y-110587D01*
X128032Y-110644D01*
X127942Y-110672D01*
X127800Y-110672D01*
X128657Y-110672D02*
X128696Y-110358D01*
X128675Y-110301D01*
X128621Y-110272D01*
X128507Y-110272D01*
X128446Y-110301D01*
X128660Y-110644D02*
X128600Y-110672D01*
X128457Y-110672D01*
X128403Y-110644D01*
X128382Y-110587D01*
X128389Y-110530D01*
X128425Y-110472D01*
X128485Y-110444D01*
X128628Y-110444D01*
X128689Y-110415D01*
X128907Y-110272D02*
X129135Y-110272D01*
X129017Y-110072D02*
X128953Y-110587D01*
X128975Y-110644D01*
X129028Y-110672D01*
X129085Y-110672D01*
X129517Y-110644D02*
X129457Y-110672D01*
X129342Y-110672D01*
X129289Y-110644D01*
X129267Y-110587D01*
X129296Y-110358D01*
X129332Y-110301D01*
X129392Y-110272D01*
X129507Y-110272D01*
X129560Y-110301D01*
X129582Y-110358D01*
X129575Y-110415D01*
X129282Y-110472D01*
X129807Y-110615D02*
X129832Y-110644D01*
X129800Y-110672D01*
X129775Y-110644D01*
X129807Y-110615D01*
X129800Y-110672D01*
X129846Y-110301D02*
X129871Y-110330D01*
X129839Y-110358D01*
X129814Y-110330D01*
X129846Y-110301D01*
X129839Y-110358D01*
X119392Y-111872D02*
X119392Y-111272D01*
X119735Y-111872D02*
X119478Y-111530D01*
X119735Y-111272D02*
X119392Y-111615D01*
X119992Y-111872D02*
X119992Y-111472D01*
X119992Y-111272D02*
X119964Y-111301D01*
X119992Y-111330D01*
X120021Y-111301D01*
X119992Y-111272D01*
X119992Y-111330D01*
X120621Y-111815D02*
X120592Y-111844D01*
X120507Y-111872D01*
X120450Y-111872D01*
X120364Y-111844D01*
X120307Y-111787D01*
X120278Y-111730D01*
X120250Y-111615D01*
X120250Y-111530D01*
X120278Y-111415D01*
X120307Y-111358D01*
X120364Y-111301D01*
X120450Y-111272D01*
X120507Y-111272D01*
X120592Y-111301D01*
X120621Y-111330D01*
X121135Y-111872D02*
X121135Y-111558D01*
X121107Y-111501D01*
X121050Y-111472D01*
X120935Y-111472D01*
X120878Y-111501D01*
X121135Y-111844D02*
X121078Y-111872D01*
X120935Y-111872D01*
X120878Y-111844D01*
X120850Y-111787D01*
X120850Y-111730D01*
X120878Y-111672D01*
X120935Y-111644D01*
X121078Y-111644D01*
X121135Y-111615D01*
X121678Y-111872D02*
X121678Y-111272D01*
X121678Y-111844D02*
X121621Y-111872D01*
X121507Y-111872D01*
X121450Y-111844D01*
X121421Y-111815D01*
X121392Y-111758D01*
X121392Y-111587D01*
X121421Y-111530D01*
X121450Y-111501D01*
X121507Y-111472D01*
X121621Y-111472D01*
X121678Y-111501D01*
X122421Y-111558D02*
X122621Y-111558D01*
X122707Y-111872D02*
X122421Y-111872D01*
X122421Y-111272D01*
X122707Y-111272D01*
X122964Y-111815D02*
X122992Y-111844D01*
X122964Y-111872D01*
X122935Y-111844D01*
X122964Y-111815D01*
X122964Y-111872D01*
X123249Y-111872D02*
X123249Y-111272D01*
X123392Y-111272D01*
X123478Y-111301D01*
X123535Y-111358D01*
X123564Y-111415D01*
X123592Y-111530D01*
X123592Y-111615D01*
X123564Y-111730D01*
X123535Y-111787D01*
X123478Y-111844D01*
X123392Y-111872D01*
X123249Y-111872D01*
X123849Y-111815D02*
X123878Y-111844D01*
X123849Y-111872D01*
X123821Y-111844D01*
X123849Y-111815D01*
X123849Y-111872D01*
X124107Y-111701D02*
X124392Y-111701D01*
X124049Y-111872D02*
X124249Y-111272D01*
X124449Y-111872D01*
X124649Y-111815D02*
X124678Y-111844D01*
X124649Y-111872D01*
X124621Y-111844D01*
X124649Y-111815D01*
X124649Y-111872D01*
X152942Y-110672D02*
X152778Y-110387D01*
X152600Y-110672D02*
X152675Y-110072D01*
X152903Y-110072D01*
X152957Y-110101D01*
X152982Y-110130D01*
X153003Y-110187D01*
X152992Y-110272D01*
X152957Y-110330D01*
X152925Y-110358D01*
X152864Y-110387D01*
X152635Y-110387D01*
X153432Y-110644D02*
X153371Y-110672D01*
X153257Y-110672D01*
X153203Y-110644D01*
X153182Y-110587D01*
X153210Y-110358D01*
X153246Y-110301D01*
X153307Y-110272D01*
X153421Y-110272D01*
X153475Y-110301D01*
X153496Y-110358D01*
X153489Y-110415D01*
X153196Y-110472D01*
X153707Y-110272D02*
X153800Y-110672D01*
X153992Y-110272D01*
X154178Y-110615D02*
X154203Y-110644D01*
X154171Y-110672D01*
X154146Y-110644D01*
X154178Y-110615D01*
X154171Y-110672D01*
X154217Y-110301D02*
X154242Y-110330D01*
X154210Y-110358D01*
X154185Y-110330D01*
X154217Y-110301D01*
X154210Y-110358D01*
X119364Y-110644D02*
X119450Y-110672D01*
X119592Y-110672D01*
X119650Y-110644D01*
X119678Y-110615D01*
X119707Y-110558D01*
X119707Y-110501D01*
X119678Y-110444D01*
X119650Y-110415D01*
X119592Y-110387D01*
X119478Y-110358D01*
X119421Y-110330D01*
X119392Y-110301D01*
X119364Y-110244D01*
X119364Y-110187D01*
X119392Y-110130D01*
X119421Y-110101D01*
X119478Y-110072D01*
X119621Y-110072D01*
X119707Y-110101D01*
X119964Y-110672D02*
X119964Y-110272D01*
X119964Y-110072D02*
X119935Y-110101D01*
X119964Y-110130D01*
X119992Y-110101D01*
X119964Y-110072D01*
X119964Y-110130D01*
X120192Y-110272D02*
X120507Y-110272D01*
X120192Y-110672D01*
X120507Y-110672D01*
X120964Y-110644D02*
X120907Y-110672D01*
X120792Y-110672D01*
X120735Y-110644D01*
X120707Y-110587D01*
X120707Y-110358D01*
X120735Y-110301D01*
X120792Y-110272D01*
X120907Y-110272D01*
X120964Y-110301D01*
X120992Y-110358D01*
X120992Y-110415D01*
X120707Y-110472D01*
X121250Y-110615D02*
X121278Y-110644D01*
X121250Y-110672D01*
X121221Y-110644D01*
X121250Y-110615D01*
X121250Y-110672D01*
X121250Y-110301D02*
X121278Y-110330D01*
X121250Y-110358D01*
X121221Y-110330D01*
X121250Y-110301D01*
X121250Y-110358D01*
X121964Y-110501D02*
X122250Y-110501D01*
X121907Y-110672D02*
X122107Y-110072D01*
X122307Y-110672D01*
X122450Y-110072D02*
X122821Y-110072D01*
X122621Y-110301D01*
X122707Y-110301D01*
X122764Y-110330D01*
X122792Y-110358D01*
X122821Y-110415D01*
X122821Y-110558D01*
X122792Y-110615D01*
X122764Y-110644D01*
X122707Y-110672D01*
X122535Y-110672D01*
X122478Y-110644D01*
X122450Y-110615D01*
X152592Y-111872D02*
X152592Y-111272D01*
X153135Y-111872D02*
X153135Y-111272D01*
X153135Y-111844D02*
X153078Y-111872D01*
X152964Y-111872D01*
X152907Y-111844D01*
X152878Y-111815D01*
X152850Y-111758D01*
X152850Y-111587D01*
X152878Y-111530D01*
X152907Y-111501D01*
X152964Y-111472D01*
X153078Y-111472D01*
X153135Y-111501D01*
X153421Y-111815D02*
X153450Y-111844D01*
X153421Y-111872D01*
X153392Y-111844D01*
X153421Y-111815D01*
X153421Y-111872D01*
X153421Y-111501D02*
X153450Y-111530D01*
X153421Y-111558D01*
X153392Y-111530D01*
X153421Y-111501D01*
X153421Y-111558D01*
X154478Y-111872D02*
X154135Y-111872D01*
X154307Y-111872D02*
X154307Y-111272D01*
X154249Y-111358D01*
X154192Y-111415D01*
X154135Y-111444D01*
X155164Y-111244D02*
X154650Y-112015D01*
X155678Y-111872D02*
X155335Y-111872D01*
X155507Y-111872D02*
X155507Y-111272D01*
X155449Y-111358D01*
X155392Y-111415D01*
X155335Y-111444D01*
X119389Y-108872D02*
X119732Y-108872D01*
X119485Y-109472D02*
X119560Y-108872D01*
X119857Y-109472D02*
X119907Y-109072D01*
X119932Y-108872D02*
X119900Y-108901D01*
X119925Y-108930D01*
X119957Y-108901D01*
X119932Y-108872D01*
X119925Y-108930D01*
X120107Y-109072D02*
X120335Y-109072D01*
X120217Y-108872D02*
X120153Y-109387D01*
X120175Y-109444D01*
X120228Y-109472D01*
X120285Y-109472D01*
X120571Y-109472D02*
X120517Y-109444D01*
X120496Y-109387D01*
X120560Y-108872D01*
X121032Y-109444D02*
X120971Y-109472D01*
X120857Y-109472D01*
X120803Y-109444D01*
X120782Y-109387D01*
X120810Y-109158D01*
X120846Y-109101D01*
X120907Y-109072D01*
X121021Y-109072D01*
X121075Y-109101D01*
X121096Y-109158D01*
X121089Y-109215D01*
X120796Y-109272D01*
X121321Y-109415D02*
X121346Y-109444D01*
X121314Y-109472D01*
X121289Y-109444D01*
X121321Y-109415D01*
X121314Y-109472D01*
X121360Y-109101D02*
X121385Y-109130D01*
X121353Y-109158D01*
X121328Y-109130D01*
X121360Y-109101D01*
X121353Y-109158D01*
X119592Y-106758D02*
X119392Y-106758D01*
X119392Y-107072D02*
X119392Y-106472D01*
X119678Y-106472D01*
X119907Y-107072D02*
X119907Y-106672D01*
X119907Y-106472D02*
X119878Y-106501D01*
X119907Y-106530D01*
X119935Y-106501D01*
X119907Y-106472D01*
X119907Y-106530D01*
X120278Y-107072D02*
X120221Y-107044D01*
X120192Y-106987D01*
X120192Y-106472D01*
X120735Y-107044D02*
X120678Y-107072D01*
X120564Y-107072D01*
X120507Y-107044D01*
X120478Y-106987D01*
X120478Y-106758D01*
X120507Y-106701D01*
X120564Y-106672D01*
X120678Y-106672D01*
X120735Y-106701D01*
X120764Y-106758D01*
X120764Y-106815D01*
X120478Y-106872D01*
X121021Y-107015D02*
X121050Y-107044D01*
X121021Y-107072D01*
X120992Y-107044D01*
X121021Y-107015D01*
X121021Y-107072D01*
X121021Y-106701D02*
X121050Y-106730D01*
X121021Y-106758D01*
X120992Y-106730D01*
X121021Y-106701D01*
X121021Y-106758D01*
X122050Y-107072D02*
X121764Y-107072D01*
X121764Y-106472D01*
X122507Y-107044D02*
X122450Y-107072D01*
X122335Y-107072D01*
X122278Y-107044D01*
X122250Y-107015D01*
X122221Y-106958D01*
X122221Y-106787D01*
X122250Y-106730D01*
X122278Y-106701D01*
X122335Y-106672D01*
X122450Y-106672D01*
X122507Y-106701D01*
X123021Y-107072D02*
X123021Y-106472D01*
X123021Y-107044D02*
X122964Y-107072D01*
X122850Y-107072D01*
X122792Y-107044D01*
X122764Y-107015D01*
X122735Y-106958D01*
X122735Y-106787D01*
X122764Y-106730D01*
X122792Y-106701D01*
X122850Y-106672D01*
X122964Y-106672D01*
X123021Y-106701D01*
X123964Y-106758D02*
X124050Y-106787D01*
X124078Y-106815D01*
X124107Y-106872D01*
X124107Y-106958D01*
X124078Y-107015D01*
X124050Y-107044D01*
X123992Y-107072D01*
X123764Y-107072D01*
X123764Y-106472D01*
X123964Y-106472D01*
X124021Y-106501D01*
X124050Y-106530D01*
X124078Y-106587D01*
X124078Y-106644D01*
X124050Y-106701D01*
X124021Y-106730D01*
X123964Y-106758D01*
X123764Y-106758D01*
X124450Y-107072D02*
X124392Y-107044D01*
X124364Y-107015D01*
X124335Y-106958D01*
X124335Y-106787D01*
X124364Y-106730D01*
X124392Y-106701D01*
X124450Y-106672D01*
X124535Y-106672D01*
X124592Y-106701D01*
X124621Y-106730D01*
X124650Y-106787D01*
X124650Y-106958D01*
X124621Y-107015D01*
X124592Y-107044D01*
X124535Y-107072D01*
X124450Y-107072D01*
X124992Y-107072D02*
X124935Y-107044D01*
X124907Y-107015D01*
X124878Y-106958D01*
X124878Y-106787D01*
X124907Y-106730D01*
X124935Y-106701D01*
X124992Y-106672D01*
X125078Y-106672D01*
X125135Y-106701D01*
X125164Y-106730D01*
X125192Y-106787D01*
X125192Y-106958D01*
X125164Y-107015D01*
X125135Y-107044D01*
X125078Y-107072D01*
X124992Y-107072D01*
X125421Y-107044D02*
X125478Y-107072D01*
X125592Y-107072D01*
X125650Y-107044D01*
X125678Y-106987D01*
X125678Y-106958D01*
X125650Y-106901D01*
X125592Y-106872D01*
X125507Y-106872D01*
X125450Y-106844D01*
X125421Y-106787D01*
X125421Y-106758D01*
X125450Y-106701D01*
X125507Y-106672D01*
X125592Y-106672D01*
X125650Y-106701D01*
X125850Y-106672D02*
X126078Y-106672D01*
X125935Y-106472D02*
X125935Y-106987D01*
X125964Y-107044D01*
X126021Y-107072D01*
X126078Y-107072D01*
X126507Y-107044D02*
X126450Y-107072D01*
X126335Y-107072D01*
X126278Y-107044D01*
X126250Y-106987D01*
X126250Y-106758D01*
X126278Y-106701D01*
X126335Y-106672D01*
X126450Y-106672D01*
X126507Y-106701D01*
X126535Y-106758D01*
X126535Y-106815D01*
X126250Y-106872D01*
X126792Y-107072D02*
X126792Y-106672D01*
X126792Y-106787D02*
X126821Y-106730D01*
X126850Y-106701D01*
X126907Y-106672D01*
X126964Y-106672D01*
X127107Y-106472D02*
X127478Y-106472D01*
X127278Y-106701D01*
X127364Y-106701D01*
X127421Y-106730D01*
X127450Y-106758D01*
X127478Y-106815D01*
X127478Y-106958D01*
X127450Y-107015D01*
X127421Y-107044D01*
X127364Y-107072D01*
X127192Y-107072D01*
X127135Y-107044D01*
X127107Y-107015D01*
X127735Y-107015D02*
X127764Y-107044D01*
X127735Y-107072D01*
X127707Y-107044D01*
X127735Y-107015D01*
X127735Y-107072D01*
X128021Y-107072D02*
X128021Y-106472D01*
X128078Y-106844D02*
X128250Y-107072D01*
X128250Y-106672D02*
X128021Y-106901D01*
X128507Y-107072D02*
X128507Y-106672D01*
X128507Y-106472D02*
X128478Y-106501D01*
X128507Y-106530D01*
X128535Y-106501D01*
X128507Y-106472D01*
X128507Y-106530D01*
X129050Y-107044D02*
X128992Y-107072D01*
X128878Y-107072D01*
X128821Y-107044D01*
X128792Y-107015D01*
X128764Y-106958D01*
X128764Y-106787D01*
X128792Y-106730D01*
X128821Y-106701D01*
X128878Y-106672D01*
X128992Y-106672D01*
X129050Y-106701D01*
X129564Y-107072D02*
X129564Y-106758D01*
X129535Y-106701D01*
X129478Y-106672D01*
X129364Y-106672D01*
X129307Y-106701D01*
X129564Y-107044D02*
X129507Y-107072D01*
X129364Y-107072D01*
X129307Y-107044D01*
X129278Y-106987D01*
X129278Y-106930D01*
X129307Y-106872D01*
X129364Y-106844D01*
X129507Y-106844D01*
X129564Y-106815D01*
X130107Y-107072D02*
X130107Y-106472D01*
X130107Y-107044D02*
X130050Y-107072D01*
X129935Y-107072D01*
X129878Y-107044D01*
X129850Y-107015D01*
X129821Y-106958D01*
X129821Y-106787D01*
X129850Y-106730D01*
X129878Y-106701D01*
X129935Y-106672D01*
X130050Y-106672D01*
X130107Y-106701D01*
X130250Y-107130D02*
X130707Y-107130D01*
X130850Y-106672D02*
X130850Y-107272D01*
X130850Y-106701D02*
X130907Y-106672D01*
X131021Y-106672D01*
X131078Y-106701D01*
X131107Y-106730D01*
X131135Y-106787D01*
X131135Y-106958D01*
X131107Y-107015D01*
X131078Y-107044D01*
X131021Y-107072D01*
X130907Y-107072D01*
X130850Y-107044D01*
X131650Y-107044D02*
X131592Y-107072D01*
X131478Y-107072D01*
X131421Y-107044D01*
X131392Y-107015D01*
X131364Y-106958D01*
X131364Y-106787D01*
X131392Y-106730D01*
X131421Y-106701D01*
X131478Y-106672D01*
X131592Y-106672D01*
X131650Y-106701D01*
X131907Y-107072D02*
X131907Y-106472D01*
X131907Y-106701D02*
X131964Y-106672D01*
X132078Y-106672D01*
X132135Y-106701D01*
X132164Y-106730D01*
X132192Y-106787D01*
X132192Y-106958D01*
X132164Y-107015D01*
X132135Y-107044D01*
X132078Y-107072D01*
X131964Y-107072D01*
X131907Y-107044D01*
X119364Y-108244D02*
X119450Y-108272D01*
X119592Y-108272D01*
X119650Y-108244D01*
X119678Y-108215D01*
X119707Y-108158D01*
X119707Y-108101D01*
X119678Y-108044D01*
X119650Y-108015D01*
X119592Y-107987D01*
X119478Y-107958D01*
X119421Y-107930D01*
X119392Y-107901D01*
X119364Y-107844D01*
X119364Y-107787D01*
X119392Y-107730D01*
X119421Y-107701D01*
X119478Y-107672D01*
X119621Y-107672D01*
X119707Y-107701D01*
X119964Y-108272D02*
X119964Y-107672D01*
X120221Y-108272D02*
X120221Y-107958D01*
X120192Y-107901D01*
X120135Y-107872D01*
X120050Y-107872D01*
X119992Y-107901D01*
X119964Y-107930D01*
X120735Y-108244D02*
X120678Y-108272D01*
X120564Y-108272D01*
X120507Y-108244D01*
X120478Y-108187D01*
X120478Y-107958D01*
X120507Y-107901D01*
X120564Y-107872D01*
X120678Y-107872D01*
X120735Y-107901D01*
X120764Y-107958D01*
X120764Y-108015D01*
X120478Y-108072D01*
X121250Y-108244D02*
X121192Y-108272D01*
X121078Y-108272D01*
X121021Y-108244D01*
X120992Y-108187D01*
X120992Y-107958D01*
X121021Y-107901D01*
X121078Y-107872D01*
X121192Y-107872D01*
X121250Y-107901D01*
X121278Y-107958D01*
X121278Y-108015D01*
X120992Y-108072D01*
X121450Y-107872D02*
X121678Y-107872D01*
X121535Y-107672D02*
X121535Y-108187D01*
X121564Y-108244D01*
X121621Y-108272D01*
X121678Y-108272D01*
X121878Y-108215D02*
X121907Y-108244D01*
X121878Y-108272D01*
X121850Y-108244D01*
X121878Y-108215D01*
X121878Y-108272D01*
X121878Y-107901D02*
X121907Y-107930D01*
X121878Y-107958D01*
X121850Y-107930D01*
X121878Y-107901D01*
X121878Y-107958D01*
X122621Y-107958D02*
X122821Y-107958D01*
X122907Y-108272D02*
X122621Y-108272D01*
X122621Y-107672D01*
X122907Y-107672D01*
X123164Y-108272D02*
X123164Y-107872D01*
X123164Y-107930D02*
X123192Y-107901D01*
X123250Y-107872D01*
X123335Y-107872D01*
X123392Y-107901D01*
X123421Y-107958D01*
X123421Y-108272D01*
X123421Y-107958D02*
X123450Y-107901D01*
X123507Y-107872D01*
X123592Y-107872D01*
X123650Y-107901D01*
X123678Y-107958D01*
X123678Y-108272D01*
X123964Y-107872D02*
X123964Y-108472D01*
X123964Y-107901D02*
X124021Y-107872D01*
X124135Y-107872D01*
X124192Y-107901D01*
X124221Y-107930D01*
X124250Y-107987D01*
X124250Y-108158D01*
X124221Y-108215D01*
X124192Y-108244D01*
X124135Y-108272D01*
X124021Y-108272D01*
X123964Y-108244D01*
X124421Y-107872D02*
X124650Y-107872D01*
X124507Y-107672D02*
X124507Y-108187D01*
X124535Y-108244D01*
X124592Y-108272D01*
X124650Y-108272D01*
X124792Y-107872D02*
X124935Y-108272D01*
X125078Y-107872D02*
X124935Y-108272D01*
X124878Y-108415D01*
X124850Y-108444D01*
X124792Y-108472D01*
X126078Y-107701D02*
X126021Y-107672D01*
X125935Y-107672D01*
X125850Y-107701D01*
X125792Y-107758D01*
X125764Y-107815D01*
X125735Y-107930D01*
X125735Y-108015D01*
X125764Y-108130D01*
X125792Y-108187D01*
X125850Y-108244D01*
X125935Y-108272D01*
X125992Y-108272D01*
X126078Y-108244D01*
X126107Y-108215D01*
X126107Y-108015D01*
X125992Y-108015D01*
X126364Y-107958D02*
X126564Y-107958D01*
X126650Y-108272D02*
X126364Y-108272D01*
X126364Y-107672D01*
X126650Y-107672D01*
X127250Y-108272D02*
X127050Y-107987D01*
X126907Y-108272D02*
X126907Y-107672D01*
X127135Y-107672D01*
X127192Y-107701D01*
X127221Y-107730D01*
X127250Y-107787D01*
X127250Y-107872D01*
X127221Y-107930D01*
X127192Y-107958D01*
X127135Y-107987D01*
X126907Y-107987D01*
X127707Y-107958D02*
X127792Y-107987D01*
X127821Y-108015D01*
X127850Y-108072D01*
X127850Y-108158D01*
X127821Y-108215D01*
X127792Y-108244D01*
X127735Y-108272D01*
X127507Y-108272D01*
X127507Y-107672D01*
X127707Y-107672D01*
X127764Y-107701D01*
X127792Y-107730D01*
X127821Y-107787D01*
X127821Y-107844D01*
X127792Y-107901D01*
X127764Y-107930D01*
X127707Y-107958D01*
X127507Y-107958D01*
X128107Y-107958D02*
X128307Y-107958D01*
X128392Y-108272D02*
X128107Y-108272D01*
X128107Y-107672D01*
X128392Y-107672D01*
X128992Y-108272D02*
X128792Y-107987D01*
X128650Y-108272D02*
X128650Y-107672D01*
X128878Y-107672D01*
X128935Y-107701D01*
X128964Y-107730D01*
X128992Y-107787D01*
X128992Y-107872D01*
X128964Y-107930D01*
X128935Y-107958D01*
X128878Y-107987D01*
X128650Y-107987D01*
X129707Y-107872D02*
X129707Y-108472D01*
X129707Y-107901D02*
X129764Y-107872D01*
X129878Y-107872D01*
X129935Y-107901D01*
X129964Y-107930D01*
X129992Y-107987D01*
X129992Y-108158D01*
X129964Y-108215D01*
X129935Y-108244D01*
X129878Y-108272D01*
X129764Y-108272D01*
X129707Y-108244D01*
X130335Y-108272D02*
X130278Y-108244D01*
X130250Y-108187D01*
X130250Y-107672D01*
X130650Y-108272D02*
X130592Y-108244D01*
X130564Y-108215D01*
X130535Y-108158D01*
X130535Y-107987D01*
X130564Y-107930D01*
X130592Y-107901D01*
X130650Y-107872D01*
X130735Y-107872D01*
X130792Y-107901D01*
X130821Y-107930D01*
X130850Y-107987D01*
X130850Y-108158D01*
X130821Y-108215D01*
X130792Y-108244D01*
X130735Y-108272D01*
X130650Y-108272D01*
X131021Y-107872D02*
X131250Y-107872D01*
X131107Y-107672D02*
X131107Y-108187D01*
X131135Y-108244D01*
X131192Y-108272D01*
X131250Y-108272D01*
X118650Y-106230D02*
X118650Y-112230D01*
X118650Y-106230D02*
X160650Y-106230D01*
X118650Y-106230D02*
X160650Y-106230D01*
X118650Y-108630D02*
X160650Y-108630D01*
X151850Y-109830D02*
X151850Y-112230D01*
X118650Y-111030D02*
X160650Y-111030D01*
X118650Y-109830D02*
X160650Y-109830D01*
X125250Y-109830D02*
X125250Y-111030D01*
M02*
