<?xml version="1.0" standalone="no"?>
 <!DOCTYPE svg PUBLIC "-//W3C//DTD SVG 1.1//EN" 
 "http://www.w3.org/Graphics/SVG/1.1/DTD/svg11.dtd"> 
<svg xmlns="http://www.w3.org/2000/svg" version="1.1" 
    width="41.9989cm" height="29.7002cm" viewBox="0 0 165350 116930 ">
<title>SVG Picture created as Lcd Booster3-Layout.svg date 2013/01/09 23:48:40 </title>
  <desc>Picture generated by PCBNEW </desc>
<g style="fill:#000000; fill-opacity:1;stroke:#000000; stroke-opacity:1;
stroke-linecap:round; stroke-linejoin:round; "
 transform="translate(0 0) scale(1 1)">
</g>
<g style="fill:#000000; fill-opacity:0.0; 
stroke:#000000; stroke-width:137.795; stroke-opacity:1; 
stroke-linecap:round; stroke-linejoin:round;">
<path d="M4000 4000
L161350 4000
L161350 112930
L4000 112930
L4000 4000
" />
<path d="M4700 4700
L160650 4700
L160650 112230
L4700 112230
L4700 4700
" />
<path d="M26470 4000
L26470 4700
" />
<path d="M15382 4552
L15097 4552
" />
<path d="M15240 4552
L15240 4052
L15192 4123
L15144 4171
L15097 4195
" />
<path d="M26470 112930
L26470 112230
" />
<path d="M15382 112782
L15097 112782
" />
<path d="M15240 112782
L15240 112282
L15192 112353
L15144 112401
L15097 112425
" />
<path d="M48940 4000
L48940 4700
" />
<path d="M37567 4100
L37590 4076
L37638 4052
L37757 4052
L37805 4076
L37829 4100
L37852 4147
L37852 4195
L37829 4266
L37543 4552
L37852 4552
" />
<path d="M48940 112930
L48940 112230
" />
<path d="M37567 112330
L37590 112306
L37638 112282
L37757 112282
L37805 112306
L37829 112330
L37852 112377
L37852 112425
L37829 112496
L37543 112782
L37852 112782
" />
<path d="M71410 4000
L71410 4700
" />
<path d="M60013 4052
L60322 4052
L60156 4242
L60227 4242
L60275 4266
L60299 4290
L60322 4338
L60322 4457
L60299 4504
L60275 4528
L60227 4552
L60084 4552
L60037 4528
L60013 4504
" />
<path d="M71410 112930
L71410 112230
" />
<path d="M60013 112282
L60322 112282
L60156 112472
L60227 112472
L60275 112496
L60299 112520
L60322 112568
L60322 112687
L60299 112734
L60275 112758
L60227 112782
L60084 112782
L60037 112758
L60013 112734
" />
<path d="M93880 4000
L93880 4700
" />
<path d="M82745 4219
L82745 4552
" />
<path d="M82626 4028
L82507 4385
L82816 4385
" />
<path d="M93880 112930
L93880 112230
" />
<path d="M82745 112449
L82745 112782
" />
<path d="M82626 112258
L82507 112615
L82816 112615
" />
<path d="M116350 4000
L116350 4700
" />
<path d="M105239 4052
L105000 4052
L104977 4290
L105000 4266
L105048 4242
L105167 4242
L105215 4266
L105239 4290
L105262 4338
L105262 4457
L105239 4504
L105215 4528
L105167 4552
L105048 4552
L105000 4528
L104977 4504
" />
<path d="M116350 112930
L116350 112230
" />
<path d="M105239 112282
L105000 112282
L104977 112520
L105000 112496
L105048 112472
L105167 112472
L105215 112496
L105239 112520
L105262 112568
L105262 112687
L105239 112734
L105215 112758
L105167 112782
L105048 112782
L105000 112758
L104977 112734
" />
<path d="M138820 4000
L138820 4700
" />
<path d="M127685 4052
L127590 4052
L127542 4076
L127518 4100
L127470 4171
L127447 4266
L127447 4457
L127470 4504
L127494 4528
L127542 4552
L127637 4552
L127685 4528
L127709 4504
L127732 4457
L127732 4338
L127709 4290
L127685 4266
L127637 4242
L127542 4242
L127494 4266
L127470 4290
L127447 4338
" />
<path d="M138820 112930
L138820 112230
" />
<path d="M127685 112282
L127590 112282
L127542 112306
L127518 112330
L127470 112401
L127447 112496
L127447 112687
L127470 112734
L127494 112758
L127542 112782
L127637 112782
L127685 112758
L127709 112734
L127732 112687
L127732 112568
L127709 112520
L127685 112496
L127637 112472
L127542 112472
L127494 112496
L127470 112520
L127447 112568
" />
<path d="M149893 4052
L150226 4052
L150012 4552
" />
<path d="M149893 112282
L150226 112282
L150012 112782
" />
<path d="M4000 25780
L4700 25780
" />
<path d="M4230 14949
L4469 14949
" />
<path d="M4183 15092
L4350 14592
L4516 15092
" />
<path d="M161350 25780
L160650 25780
" />
<path d="M160880 14949
L161119 14949
" />
<path d="M160833 15092
L161000 14592
L161166 15092
" />
<path d="M4000 47560
L4700 47560
" />
<path d="M4385 36610
L4457 36634
L4480 36658
L4504 36705
L4504 36777
L4480 36824
L4457 36848
L4409 36872
L4219 36872
L4219 36372
L4385 36372
L4433 36396
L4457 36420
L4480 36467
L4480 36515
L4457 36562
L4433 36586
L4385 36610
L4219 36610
" />
<path d="M161350 47560
L160650 47560
" />
<path d="M161035 36610
L161107 36634
L161130 36658
L161154 36705
L161154 36777
L161130 36824
L161107 36848
L161059 36872
L160869 36872
L160869 36372
L161035 36372
L161083 36396
L161107 36420
L161130 36467
L161130 36515
L161107 36562
L161083 36586
L161035 36610
L160869 36610
" />
<path d="M4000 69340
L4700 69340
" />
<path d="M4504 58604
L4480 58628
L4409 58652
L4361 58652
L4290 58628
L4242 58580
L4219 58533
L4195 58438
L4195 58366
L4219 58271
L4242 58223
L4290 58176
L4361 58152
L4409 58152
L4480 58176
L4504 58200
" />
<path d="M161350 69340
L160650 69340
" />
<path d="M161154 58604
L161130 58628
L161059 58652
L161011 58652
L160940 58628
L160892 58580
L160869 58533
L160845 58438
L160845 58366
L160869 58271
L160892 58223
L160940 58176
L161011 58152
L161059 58152
L161130 58176
L161154 58200
" />
<path d="M4000 91120
L4700 91120
" />
<path d="M4219 80432
L4219 79932
L4338 79932
L4409 79956
L4457 80003
L4480 80051
L4504 80146
L4504 80218
L4480 80313
L4457 80360
L4409 80408
L4338 80432
L4219 80432
" />
<path d="M161350 91120
L160650 91120
" />
<path d="M160869 80432
L160869 79932
L160988 79932
L161059 79956
L161107 80003
L161130 80051
L161154 80146
L161154 80218
L161130 80313
L161107 80360
L161059 80408
L160988 80432
L160869 80432
" />
<path d="M4242 101950
L4409 101950
" />
<path d="M4480 102212
L4242 102212
L4242 101712
L4480 101712
" />
<path d="M160892 101950
L161059 101950
" />
<path d="M161130 102212
L160892 102212
L160892 101712
L161130 101712
" />
<path d="M127800 110672
L127875 110072
L128017 110072
L128100 110101
L128150 110158
L128171 110215
L128185 110330
L128175 110415
L128132 110530
L128096 110587
L128032 110644
L127942 110672
L127800 110672
" />
<path d="M128657 110672
L128696 110358
L128675 110301
L128621 110272
L128507 110272
L128446 110301
" />
<path d="M128660 110644
L128600 110672
L128457 110672
L128403 110644
L128382 110587
L128389 110530
L128425 110472
L128485 110444
L128628 110444
L128689 110415
" />
<path d="M128907 110272
L129135 110272
" />
<path d="M129017 110072
L128953 110587
L128975 110644
L129028 110672
L129085 110672
" />
<path d="M129517 110644
L129457 110672
L129342 110672
L129289 110644
L129267 110587
L129296 110358
L129332 110301
L129392 110272
L129507 110272
L129560 110301
L129582 110358
L129575 110415
L129282 110472
" />
<path d="M129807 110615
L129832 110644
L129800 110672
L129775 110644
L129807 110615
L129800 110672
" />
<path d="M129846 110301
L129871 110330
L129839 110358
L129814 110330
L129846 110301
L129839 110358
" />
<path d="M130857 110672
L130514 110672
" />
<path d="M130685 110672
L130760 110072
L130692 110158
L130628 110215
L130567 110244
" />
<path d="M131303 110072
L131360 110072
L131414 110101
L131439 110130
L131460 110187
L131475 110301
L131457 110444
L131414 110558
L131378 110615
L131346 110644
L131285 110672
L131228 110672
L131175 110644
L131150 110615
L131128 110558
L131114 110444
L131132 110301
L131175 110187
L131210 110130
L131242 110101
L131303 110072
" />
<path d="M132192 110272
L132128 110787
L132092 110844
L132032 110872
L132003 110872
" />
<path d="M132217 110072
L132185 110101
L132210 110130
L132242 110101
L132217 110072
L132210 110130
" />
<path d="M132685 110672
L132725 110358
L132703 110301
L132650 110272
L132535 110272
L132475 110301
" />
<path d="M132689 110644
L132628 110672
L132485 110672
L132432 110644
L132410 110587
L132417 110530
L132453 110472
L132514 110444
L132657 110444
L132717 110415
" />
<path d="M133021 110272
L132971 110672
" />
<path d="M133014 110330
L133046 110301
L133107 110272
L133192 110272
L133246 110301
L133267 110358
L133228 110672
" />
<path d="M134010 110130
L134042 110101
L134103 110072
L134246 110072
L134300 110101
L134325 110130
L134346 110187
L134339 110244
L134300 110330
L133914 110672
L134285 110672
" />
<path d="M134732 110072
L134789 110072
L134842 110101
L134867 110130
L134889 110187
L134903 110301
L134885 110444
L134842 110558
L134807 110615
L134775 110644
L134714 110672
L134657 110672
L134603 110644
L134578 110615
L134557 110558
L134542 110444
L134560 110301
L134603 110187
L134639 110130
L134671 110101
L134732 110072
" />
<path d="M135428 110672
L135085 110672
" />
<path d="M135257 110672
L135332 110072
L135264 110158
L135200 110215
L135139 110244
" />
<path d="M135703 110072
L136075 110072
L135846 110301
L135932 110301
L135985 110330
L136010 110358
L136032 110415
L136014 110558
L135978 110615
L135946 110644
L135885 110672
L135714 110672
L135660 110644
L135635 110615
" />
<path d="M119392 111872
L119392 111272
" />
<path d="M119735 111872
L119478 111530
" />
<path d="M119735 111272
L119392 111615
" />
<path d="M119992 111872
L119992 111472
" />
<path d="M119992 111272
L119964 111301
L119992 111330
L120021 111301
L119992 111272
L119992 111330
" />
<path d="M120621 111815
L120592 111844
L120507 111872
L120450 111872
L120364 111844
L120307 111787
L120278 111730
L120250 111615
L120250 111530
L120278 111415
L120307 111358
L120364 111301
L120450 111272
L120507 111272
L120592 111301
L120621 111330
" />
<path d="M121135 111872
L121135 111558
L121107 111501
L121050 111472
L120935 111472
L120878 111501
" />
<path d="M121135 111844
L121078 111872
L120935 111872
L120878 111844
L120850 111787
L120850 111730
L120878 111672
L120935 111644
L121078 111644
L121135 111615
" />
<path d="M121678 111872
L121678 111272
" />
<path d="M121678 111844
L121621 111872
L121507 111872
L121450 111844
L121421 111815
L121392 111758
L121392 111587
L121421 111530
L121450 111501
L121507 111472
L121621 111472
L121678 111501
" />
<path d="M122421 111558
L122621 111558
" />
<path d="M122707 111872
L122421 111872
L122421 111272
L122707 111272
" />
<path d="M122964 111815
L122992 111844
L122964 111872
L122935 111844
L122964 111815
L122964 111872
" />
<path d="M123249 111872
L123249 111272
L123392 111272
L123478 111301
L123535 111358
L123564 111415
L123592 111530
L123592 111615
L123564 111730
L123535 111787
L123478 111844
L123392 111872
L123249 111872
" />
<path d="M123849 111815
L123878 111844
L123849 111872
L123821 111844
L123849 111815
L123849 111872
" />
<path d="M124107 111701
L124392 111701
" />
<path d="M124049 111872
L124249 111272
L124449 111872
" />
<path d="M124649 111815
L124678 111844
L124649 111872
L124621 111844
L124649 111815
L124649 111872
" />
<path d="M152942 110672
L152778 110387
" />
<path d="M152600 110672
L152675 110072
L152903 110072
L152957 110101
L152982 110130
L153003 110187
L152992 110272
L152957 110330
L152925 110358
L152864 110387
L152635 110387
" />
<path d="M153432 110644
L153371 110672
L153257 110672
L153203 110644
L153182 110587
L153210 110358
L153246 110301
L153307 110272
L153421 110272
L153475 110301
L153496 110358
L153489 110415
L153196 110472
" />
<path d="M153707 110272
L153800 110672
L153992 110272
" />
<path d="M154178 110615
L154203 110644
L154171 110672
L154146 110644
L154178 110615
L154171 110672
" />
<path d="M154217 110301
L154242 110330
L154210 110358
L154185 110330
L154217 110301
L154210 110358
" />
<path d="M119364 110644
L119450 110672
L119592 110672
L119650 110644
L119678 110615
L119707 110558
L119707 110501
L119678 110444
L119650 110415
L119592 110387
L119478 110358
L119421 110330
L119392 110301
L119364 110244
L119364 110187
L119392 110130
L119421 110101
L119478 110072
L119621 110072
L119707 110101
" />
<path d="M119964 110672
L119964 110272
" />
<path d="M119964 110072
L119935 110101
L119964 110130
L119992 110101
L119964 110072
L119964 110130
" />
<path d="M120192 110272
L120507 110272
L120192 110672
L120507 110672
" />
<path d="M120964 110644
L120907 110672
L120792 110672
L120735 110644
L120707 110587
L120707 110358
L120735 110301
L120792 110272
L120907 110272
L120964 110301
L120992 110358
L120992 110415
L120707 110472
" />
<path d="M121250 110615
L121278 110644
L121250 110672
L121221 110644
L121250 110615
L121250 110672
" />
<path d="M121250 110301
L121278 110330
L121250 110358
L121221 110330
L121250 110301
L121250 110358
" />
<path d="M121964 110501
L122250 110501
" />
<path d="M121907 110672
L122107 110072
L122307 110672
" />
<path d="M122450 110072
L122821 110072
L122621 110301
L122707 110301
L122764 110330
L122792 110358
L122821 110415
L122821 110558
L122792 110615
L122764 110644
L122707 110672
L122535 110672
L122478 110644
L122450 110615
" />
<path d="M152592 111872
L152592 111272
" />
<path d="M153135 111872
L153135 111272
" />
<path d="M153135 111844
L153078 111872
L152964 111872
L152907 111844
L152878 111815
L152850 111758
L152850 111587
L152878 111530
L152907 111501
L152964 111472
L153078 111472
L153135 111501
" />
<path d="M153421 111815
L153450 111844
L153421 111872
L153392 111844
L153421 111815
L153421 111872
" />
<path d="M153421 111501
L153450 111530
L153421 111558
L153392 111530
L153421 111501
L153421 111558
" />
<path d="M154478 111872
L154135 111872
" />
<path d="M154307 111872
L154307 111272
L154249 111358
L154192 111415
L154135 111444
" />
<path d="M155164 111244
L154650 112015
" />
<path d="M155678 111872
L155335 111872
" />
<path d="M155507 111872
L155507 111272
L155449 111358
L155392 111415
L155335 111444
" />
<path d="M119389 108872
L119732 108872
" />
<path d="M119485 109472
L119560 108872
" />
<path d="M119857 109472
L119907 109072
" />
<path d="M119932 108872
L119900 108901
L119925 108930
L119957 108901
L119932 108872
L119925 108930
" />
<path d="M120107 109072
L120335 109072
" />
<path d="M120217 108872
L120153 109387
L120175 109444
L120228 109472
L120285 109472
" />
<path d="M120571 109472
L120517 109444
L120496 109387
L120560 108872
" />
<path d="M121032 109444
L120971 109472
L120857 109472
L120803 109444
L120782 109387
L120810 109158
L120846 109101
L120907 109072
L121021 109072
L121075 109101
L121096 109158
L121089 109215
L120796 109272
" />
<path d="M121321 109415
L121346 109444
L121314 109472
L121289 109444
L121321 109415
L121314 109472
" />
<path d="M121360 109101
L121385 109130
L121353 109158
L121328 109130
L121360 109101
L121353 109158
" />
<path d="M119592 106758
L119392 106758
" />
<path d="M119392 107072
L119392 106472
L119678 106472
" />
<path d="M119907 107072
L119907 106672
" />
<path d="M119907 106472
L119878 106501
L119907 106530
L119935 106501
L119907 106472
L119907 106530
" />
<path d="M120278 107072
L120221 107044
L120192 106987
L120192 106472
" />
<path d="M120735 107044
L120678 107072
L120564 107072
L120507 107044
L120478 106987
L120478 106758
L120507 106701
L120564 106672
L120678 106672
L120735 106701
L120764 106758
L120764 106815
L120478 106872
" />
<path d="M121021 107015
L121050 107044
L121021 107072
L120992 107044
L121021 107015
L121021 107072
" />
<path d="M121021 106701
L121050 106730
L121021 106758
L120992 106730
L121021 106701
L121021 106758
" />
<path d="M122050 107072
L121764 107072
L121764 106472
" />
<path d="M122507 107044
L122450 107072
L122335 107072
L122278 107044
L122250 107015
L122221 106958
L122221 106787
L122250 106730
L122278 106701
L122335 106672
L122450 106672
L122507 106701
" />
<path d="M123021 107072
L123021 106472
" />
<path d="M123021 107044
L122964 107072
L122850 107072
L122792 107044
L122764 107015
L122735 106958
L122735 106787
L122764 106730
L122792 106701
L122850 106672
L122964 106672
L123021 106701
" />
<path d="M123964 106758
L124050 106787
L124078 106815
L124107 106872
L124107 106958
L124078 107015
L124050 107044
L123992 107072
L123764 107072
L123764 106472
L123964 106472
L124021 106501
L124050 106530
L124078 106587
L124078 106644
L124050 106701
L124021 106730
L123964 106758
L123764 106758
" />
<path d="M124450 107072
L124392 107044
L124364 107015
L124335 106958
L124335 106787
L124364 106730
L124392 106701
L124450 106672
L124535 106672
L124592 106701
L124621 106730
L124650 106787
L124650 106958
L124621 107015
L124592 107044
L124535 107072
L124450 107072
" />
<path d="M124992 107072
L124935 107044
L124907 107015
L124878 106958
L124878 106787
L124907 106730
L124935 106701
L124992 106672
L125078 106672
L125135 106701
L125164 106730
L125192 106787
L125192 106958
L125164 107015
L125135 107044
L125078 107072
L124992 107072
" />
<path d="M125421 107044
L125478 107072
L125592 107072
L125650 107044
L125678 106987
L125678 106958
L125650 106901
L125592 106872
L125507 106872
L125450 106844
L125421 106787
L125421 106758
L125450 106701
L125507 106672
L125592 106672
L125650 106701
" />
<path d="M125850 106672
L126078 106672
" />
<path d="M125935 106472
L125935 106987
L125964 107044
L126021 107072
L126078 107072
" />
<path d="M126507 107044
L126450 107072
L126335 107072
L126278 107044
L126250 106987
L126250 106758
L126278 106701
L126335 106672
L126450 106672
L126507 106701
L126535 106758
L126535 106815
L126250 106872
" />
<path d="M126792 107072
L126792 106672
" />
<path d="M126792 106787
L126821 106730
L126850 106701
L126907 106672
L126964 106672
" />
<path d="M127107 106472
L127478 106472
L127278 106701
L127364 106701
L127421 106730
L127450 106758
L127478 106815
L127478 106958
L127450 107015
L127421 107044
L127364 107072
L127192 107072
L127135 107044
L127107 107015
" />
<path d="M127735 107015
L127764 107044
L127735 107072
L127707 107044
L127735 107015
L127735 107072
" />
<path d="M128021 107072
L128021 106472
" />
<path d="M128078 106844
L128250 107072
" />
<path d="M128250 106672
L128021 106901
" />
<path d="M128507 107072
L128507 106672
" />
<path d="M128507 106472
L128478 106501
L128507 106530
L128535 106501
L128507 106472
L128507 106530
" />
<path d="M129050 107044
L128992 107072
L128878 107072
L128821 107044
L128792 107015
L128764 106958
L128764 106787
L128792 106730
L128821 106701
L128878 106672
L128992 106672
L129050 106701
" />
<path d="M129564 107072
L129564 106758
L129535 106701
L129478 106672
L129364 106672
L129307 106701
" />
<path d="M129564 107044
L129507 107072
L129364 107072
L129307 107044
L129278 106987
L129278 106930
L129307 106872
L129364 106844
L129507 106844
L129564 106815
" />
<path d="M130107 107072
L130107 106472
" />
<path d="M130107 107044
L130050 107072
L129935 107072
L129878 107044
L129850 107015
L129821 106958
L129821 106787
L129850 106730
L129878 106701
L129935 106672
L130050 106672
L130107 106701
" />
<path d="M130250 107130
L130707 107130
" />
<path d="M130850 106672
L130850 107272
" />
<path d="M130850 106701
L130907 106672
L131021 106672
L131078 106701
L131107 106730
L131135 106787
L131135 106958
L131107 107015
L131078 107044
L131021 107072
L130907 107072
L130850 107044
" />
<path d="M131650 107044
L131592 107072
L131478 107072
L131421 107044
L131392 107015
L131364 106958
L131364 106787
L131392 106730
L131421 106701
L131478 106672
L131592 106672
L131650 106701
" />
<path d="M131907 107072
L131907 106472
" />
<path d="M131907 106701
L131964 106672
L132078 106672
L132135 106701
L132164 106730
L132192 106787
L132192 106958
L132164 107015
L132135 107044
L132078 107072
L131964 107072
L131907 107044
" />
<path d="M119364 108244
L119450 108272
L119592 108272
L119650 108244
L119678 108215
L119707 108158
L119707 108101
L119678 108044
L119650 108015
L119592 107987
L119478 107958
L119421 107930
L119392 107901
L119364 107844
L119364 107787
L119392 107730
L119421 107701
L119478 107672
L119621 107672
L119707 107701
" />
<path d="M119964 108272
L119964 107672
" />
<path d="M120221 108272
L120221 107958
L120192 107901
L120135 107872
L120050 107872
L119992 107901
L119964 107930
" />
<path d="M120735 108244
L120678 108272
L120564 108272
L120507 108244
L120478 108187
L120478 107958
L120507 107901
L120564 107872
L120678 107872
L120735 107901
L120764 107958
L120764 108015
L120478 108072
" />
<path d="M121250 108244
L121192 108272
L121078 108272
L121021 108244
L120992 108187
L120992 107958
L121021 107901
L121078 107872
L121192 107872
L121250 107901
L121278 107958
L121278 108015
L120992 108072
" />
<path d="M121450 107872
L121678 107872
" />
<path d="M121535 107672
L121535 108187
L121564 108244
L121621 108272
L121678 108272
" />
<path d="M121878 108215
L121907 108244
L121878 108272
L121850 108244
L121878 108215
L121878 108272
" />
<path d="M121878 107901
L121907 107930
L121878 107958
L121850 107930
L121878 107901
L121878 107958
" />
<path d="M122935 107701
L122878 107672
L122792 107672
L122707 107701
L122650 107758
L122621 107815
L122592 107930
L122592 108015
L122621 108130
L122650 108187
L122707 108244
L122792 108272
L122850 108272
L122935 108244
L122964 108215
L122964 108015
L122850 108015
" />
<path d="M123450 108244
L123392 108272
L123278 108272
L123221 108244
L123192 108187
L123192 107958
L123221 107901
L123278 107872
L123392 107872
L123450 107901
L123478 107958
L123478 108015
L123192 108072
" />
<path d="M123735 107872
L123735 108272
" />
<path d="M123735 107930
L123764 107901
L123821 107872
L123907 107872
L123964 107901
L123992 107958
L123992 108272
" />
<path d="M124507 108244
L124450 108272
L124335 108272
L124278 108244
L124250 108187
L124250 107958
L124278 107901
L124335 107872
L124450 107872
L124507 107901
L124535 107958
L124535 108015
L124250 108072
" />
<path d="M124792 108272
L124792 107872
" />
<path d="M124792 107987
L124821 107930
L124850 107901
L124907 107872
L124964 107872
" />
<path d="M125421 108272
L125421 107958
L125392 107901
L125335 107872
L125221 107872
L125164 107901
" />
<path d="M125421 108244
L125364 108272
L125221 108272
L125164 108244
L125135 108187
L125135 108130
L125164 108072
L125221 108044
L125364 108044
L125421 108015
" />
<path d="M125792 108272
L125735 108244
L125707 108187
L125707 107672
" />
<path d="M126564 108272
L126507 108244
L126478 108187
L126478 107672
" />
<path d="M127050 108272
L127050 107958
L127021 107901
L126964 107872
L126850 107872
L126792 107901
" />
<path d="M127050 108244
L126992 108272
L126850 108272
L126792 108244
L126764 108187
L126764 108130
L126792 108072
L126850 108044
L126992 108044
L127050 108015
" />
<path d="M127278 107872
L127421 108272
" />
<path d="M127564 107872
L127421 108272
L127364 108415
L127335 108444
L127278 108472
" />
<path d="M127878 108272
L127821 108244
L127792 108215
L127764 108158
L127764 107987
L127792 107930
L127821 107901
L127878 107872
L127964 107872
L128021 107901
L128050 107930
L128078 107987
L128078 108158
L128050 108215
L128021 108244
L127964 108272
L127878 108272
" />
<path d="M128592 107872
L128592 108272
" />
<path d="M128335 107872
L128335 108187
L128364 108244
L128421 108272
L128507 108272
L128564 108244
L128592 108215
" />
<path d="M128792 107872
L129021 107872
" />
<path d="M128878 107672
L128878 108187
L128907 108244
L128964 108272
L129021 108272
" />
<path d="M118650 106230
L118650 112230
" />
<path d="M118650 106230
L160650 106230
" />
<path d="M118650 106230
L160650 106230
" />
<path d="M118650 108630
L160650 108630
" />
<path d="M151850 109830
L151850 112230
" />
<path d="M118650 111030
L160650 111030
" />
<path d="M118650 109830
L160650 109830
" />
<path d="M125250 109830
L125250 111030
" />
</g>
<g style="fill:#000000; fill-opacity:0.0; 
stroke:#000000; stroke-width:73.8189; stroke-opacity:1; 
stroke-linecap:round; stroke-linejoin:round;">
<path d="M79202 39928
L79385 39928
L79286 40041
L79329 40041
L79357 40055
L79371 40069
L79385 40097
L79385 40167
L79371 40196
L79357 40210
L79329 40224
L79244 40224
L79216 40210
L79202 40196
" />
<path d="M79511 40196
L79525 40210
L79511 40224
L79497 40210
L79511 40196
L79511 40224
" />
<path d="M79638 39957
L79652 39943
L79680 39928
L79750 39928
L79778 39943
L79793 39957
L79807 39985
L79807 40013
L79793 40055
L79624 40224
L79807 40224
" />
<path d="M80074 39928
L79933 39928
L79919 40069
L79933 40055
L79961 40041
L80032 40041
L80060 40055
L80074 40069
L80088 40097
L80088 40167
L80074 40196
L80060 40210
L80032 40224
L79961 40224
L79933 40210
L79919 40196
" />
<path d="M80271 39928
L80299 39928
L80327 39943
L80341 39957
L80355 39985
L80369 40041
L80369 40111
L80355 40167
L80341 40196
L80327 40210
L80299 40224
L80271 40224
L80242 40210
L80228 40196
L80214 40167
L80200 40111
L80200 40041
L80214 39985
L80228 39957
L80242 39943
L80271 39928
" />
<path d="M80552 39928
L80580 39928
L80608 39943
L80622 39957
L80636 39985
L80650 40041
L80650 40111
L80636 40167
L80622 40196
L80608 40210
L80580 40224
L80552 40224
L80524 40210
L80510 40196
L80496 40167
L80482 40111
L80482 40041
L80496 39985
L80510 39957
L80524 39943
L80552 39928
" />
<path d="M81002 40224
L81002 40027
" />
<path d="M81002 39928
L80988 39943
L81002 39957
L81016 39943
L81002 39928
L81002 39957
" />
<path d="M81142 40027
L81142 40224
" />
<path d="M81142 40055
L81156 40041
L81185 40027
L81227 40027
L81255 40041
L81269 40069
L81269 40224
" />
<path d="M96500 40400
L64000 40400
" />
<path d="M96500 44250
L96500 39809
" />
<path d="M64000 44250
L64000 39809
" />
<path d="M64000 40400
L64443 40169
" />
<path d="M64000 40400
L64443 40630
" />
<path d="M96500 40400
L96056 40169
" />
<path d="M96500 40400
L96056 40630
" />
<path d="M99475 50885
L99475 50716
" />
<path d="M99475 50800
L99771 50800
L99728 50772
L99700 50744
L99686 50716
" />
<path d="M99503 51011
L99489 51025
L99475 51011
L99489 50997
L99503 51011
L99475 51011
" />
<path d="M99771 51293
L99771 51152
L99630 51138
L99644 51152
L99658 51180
L99658 51250
L99644 51278
L99630 51293
L99602 51307
L99532 51307
L99503 51293
L99489 51278
L99475 51250
L99475 51180
L99489 51152
L99503 51138
" />
<path d="M99771 51489
L99771 51517
L99756 51546
L99742 51560
L99714 51574
L99658 51588
L99588 51588
L99532 51574
L99503 51560
L99489 51546
L99475 51517
L99475 51489
L99489 51461
L99503 51447
L99532 51433
L99588 51419
L99658 51419
L99714 51433
L99742 51447
L99756 51461
L99771 51489
" />
<path d="M99771 51771
L99771 51799
L99756 51827
L99742 51841
L99714 51855
L99658 51869
L99588 51869
L99532 51855
L99503 51841
L99489 51827
L99475 51799
L99475 51771
L99489 51742
L99503 51728
L99532 51714
L99588 51700
L99658 51700
L99714 51714
L99742 51728
L99756 51742
L99771 51771
" />
<path d="M99771 52052
L99771 52080
L99756 52108
L99742 52122
L99714 52136
L99658 52150
L99588 52150
L99532 52136
L99503 52122
L99489 52108
L99475 52080
L99475 52052
L99489 52024
L99503 52010
L99532 51996
L99588 51982
L99658 51982
L99714 51996
L99742 52010
L99756 52024
L99771 52052
" />
<path d="M99475 52502
L99672 52502
" />
<path d="M99771 52502
L99756 52488
L99742 52502
L99756 52516
L99771 52502
L99742 52502
" />
<path d="M99672 52642
L99475 52642
" />
<path d="M99644 52642
L99658 52656
L99672 52685
L99672 52727
L99658 52755
L99630 52769
L99475 52769
" />
<path d="M99299 44250
L99299 59250
" />
<path d="M96500 44250
L99890 44250
" />
<path d="M96500 59250
L99890 59250
" />
<path d="M99299 59250
L99069 58806
" />
<path d="M99299 59250
L99530 58806
" />
<path d="M99299 44250
L99069 44693
" />
<path d="M99299 44250
L99530 44693
" />
</g>
<g style="fill:#000000; fill-opacity:0.0; 
stroke:#000000; stroke-width:59; stroke-opacity:1; 
stroke-linecap:round; stroke-linejoin:round;">
<path d="M96500 59250
L64000 59250
" />
<path d="M64000 59250
L64000 44250
" />
<path d="M96500 44250
L96500 59250
" />
<path d="M64000 44250
L96500 44250
" />
</g>
<g style="fill:#000000; fill-opacity:0.0; 
stroke:#000000; stroke-width:120; stroke-opacity:1; 
stroke-linecap:round; stroke-linejoin:round;">
<path d="M79100 45700
L88900 45700
" />
<path d="M88900 41700
L88900 45700
" />
<path d="M88900 41700
L79100 41700
" />
<path d="M83000 44500
L83000 41700
" />
<path d="M79500 44500
L79500 41700
" />
<path d="M79500 44500
L88500 44500
" />
<path d="M88500 41700
L88500 44500
" />
<path d="M85000 41700
L85000 44500
" />
<path d="M79100 45650
L79100 41700
" />
<path d="M81000 44850
L80700 45350
" />
<path d="M80700 45350
L81300 45350
" />
<path d="M81300 45350
L81000 44850
" />
</g>
<g style="fill:#000000; fill-opacity:0.0; 
stroke:#000000; stroke-width:59; stroke-opacity:1; 
stroke-linecap:round; stroke-linejoin:round;">
<path d="M96500 59250
L64000 59250
" />
<path d="M64000 59250
L64000 44250
" />
<path d="M96500 44250
L96500 59250
" />
<path d="M64000 44250
L96500 44250
" />
<path d="M96500 59250
L64000 59250
" />
<path d="M64000 59250
L64000 44250
" />
<path d="M96500 44250
L96500 59250
" />
<path d="M64000 44250
L96500 44250
" />
<path d="M96500 59250
L64000 59250
" />
<path d="M64000 59250
L64000 44250
" />
<path d="M96500 44250
L96500 59250
" />
<path d="M64000 44250
L96500 44250
" />
</g>
<g style="fill:#000000; fill-opacity:0.0; 
stroke:#000000; stroke-width:137.795; stroke-opacity:1; 
stroke-linecap:round; stroke-linejoin:round;">
</g>
<g style="fill:#000000; fill-opacity:1.0; 
stroke:#000000; stroke-width:137.795; stroke-opacity:1; 
stroke-linecap:round; stroke-linejoin:round;">
<polyline style="fill-rule:evenodd;"
points="94656,44993
94656,45406
94243,45406
94243,44993
94656,44993
" /> 
<circle cx="93450" cy="45200" r="206.102" /> 
<circle cx="92450" cy="45200" r="206.102" /> 
<polyline style="fill-rule:evenodd;"
points="66643,55406
66643,54993
67056,54993
67056,55406
66643,55406
" /> 
<circle cx="67850" cy="55200" r="206.102" /> 
<circle cx="68850" cy="55200" r="206.102" /> 
<circle cx="69850" cy="55200" r="206.102" /> 
<circle cx="69850" cy="52200" r="206.102" /> 
<circle cx="68850" cy="52200" r="206.102" /> 
<circle cx="67850" cy="52200" r="206.102" /> 
<circle cx="66850" cy="52200" r="206.102" /> 
<polyline style="fill-rule:evenodd;"
points="85706,53793
85706,54206
85293,54206
85293,53793
85706,53793
" /> 
<circle cx="84500" cy="54000" r="206.102" /> 
<circle cx="83500" cy="54000" r="206.102" /> 
<circle cx="82500" cy="54000" r="206.102" /> 
<circle cx="81500" cy="54000" r="206.102" /> 
<circle cx="80500" cy="54000" r="206.102" /> 
<circle cx="79500" cy="54000" r="206.102" /> 
<circle cx="78500" cy="54000" r="206.102" /> 
<circle cx="77500" cy="54000" r="206.102" /> 
<circle cx="76500" cy="54000" r="206.102" /> 
<circle cx="76500" cy="57000" r="206.102" /> 
<circle cx="77500" cy="57000" r="206.102" /> 
<circle cx="78500" cy="57000" r="206.102" /> 
<circle cx="79500" cy="57000" r="206.102" /> 
<circle cx="80500" cy="57000" r="206.102" /> 
<circle cx="81500" cy="57000" r="206.102" /> 
<circle cx="82500" cy="57000" r="206.102" /> 
<circle cx="83500" cy="57000" r="206.102" /> 
<circle cx="84500" cy="57000" r="206.102" /> 
<circle cx="85500" cy="57000" r="206.102" /> 
<polyline style="fill-rule:evenodd;"
points="85706,49543
85706,49956
85293,49956
85293,49543
85706,49543
" /> 
<circle cx="84500" cy="49750" r="206.102" /> 
<circle cx="83500" cy="49750" r="206.102" /> 
<circle cx="82500" cy="49750" r="206.102" /> 
<circle cx="81500" cy="49750" r="206.102" /> 
<circle cx="80500" cy="49750" r="206.102" /> 
<circle cx="79500" cy="49750" r="206.102" /> 
<circle cx="78500" cy="49750" r="206.102" /> 
<circle cx="77500" cy="49750" r="206.102" /> 
<circle cx="76500" cy="49750" r="206.102" /> 
<circle cx="76500" cy="52750" r="206.102" /> 
<circle cx="77500" cy="52750" r="206.102" /> 
<circle cx="78500" cy="52750" r="206.102" /> 
<circle cx="79500" cy="52750" r="206.102" /> 
<circle cx="80500" cy="52750" r="206.102" /> 
<circle cx="81500" cy="52750" r="206.102" /> 
<circle cx="82500" cy="52750" r="206.102" /> 
<circle cx="83500" cy="52750" r="206.102" /> 
<circle cx="84500" cy="52750" r="206.102" /> 
<circle cx="85500" cy="52750" r="206.102" /> 
<polyline style="fill-rule:evenodd;"
points="64268,50468
64681,50468
64681,50881
64268,50881
64268,50468
" /> 
<circle cx="64475" cy="47675" r="206.102" /> 
<circle cx="67850" cy="57450" r="206.102" /> 
<circle cx="68850" cy="57450" r="206.102" /> 
<polyline style="fill-rule:evenodd;"
points="69643,58906
69643,58493
70056,58493
70056,58906
69643,58906
" /> 
<circle cx="66850" cy="58700" r="206.102" /> 
<circle cx="65600" cy="53200" r="206.102" /> 
<circle cx="65600" cy="54200" r="206.102" /> 
<circle cx="95250" cy="58000" r="931.102" /> 
<circle cx="69025" cy="48800" r="281.102" /> 
<polyline style="fill-rule:evenodd;"
points="71306,49081
70743,49081
70743,48518
71306,48518
71306,49081
" /> 
<circle cx="71350" cy="57450" r="206.102" /> 
<circle cx="71350" cy="58450" r="206.102" /> 
<circle cx="72750" cy="45350" r="206.102" /> 
<circle cx="73750" cy="45350" r="206.102" /> 
<circle cx="87250" cy="56000" r="206.102" /> 
<circle cx="87250" cy="55000" r="206.102" /> 
<circle cx="87250" cy="51750" r="206.102" /> 
<circle cx="87250" cy="50750" r="206.102" /> 
<circle cx="65250" cy="58000" r="931.102" /> 
<polyline style="fill-rule:evenodd;"
points="95731,50768
95731,51231
95268,51231
95268,50768
95731,50768
" /> 
<circle cx="95500" cy="52000" r="231.102" /> 
<circle cx="94500" cy="51000" r="231.102" /> 
<circle cx="94500" cy="52000" r="231.102" /> 
<circle cx="93500" cy="51000" r="231.102" /> 
<circle cx="93500" cy="52000" r="231.102" /> 
<circle cx="92500" cy="51000" r="231.102" /> 
<circle cx="92500" cy="52000" r="231.102" /> 
<polyline style="fill-rule:evenodd;"
points="95731,47518
95731,47981
95268,47981
95268,47518
95731,47518
" /> 
<circle cx="95500" cy="48750" r="231.102" /> 
<circle cx="94500" cy="47750" r="231.102" /> 
<circle cx="94500" cy="48750" r="231.102" /> 
<circle cx="93500" cy="47750" r="231.102" /> 
<circle cx="93500" cy="48750" r="231.102" /> 
<circle cx="92500" cy="47750" r="231.102" /> 
<circle cx="92500" cy="48750" r="231.102" /> 
<polyline style="fill-rule:evenodd;"
points="95731,54018
95731,54481
95268,54481
95268,54018
95731,54018
" /> 
<circle cx="95500" cy="55250" r="231.102" /> 
<circle cx="94500" cy="54250" r="231.102" /> 
<circle cx="94500" cy="55250" r="231.102" /> 
<circle cx="93500" cy="54250" r="231.102" /> 
<circle cx="93500" cy="55250" r="231.102" /> 
<circle cx="92500" cy="54250" r="231.102" /> 
<circle cx="92500" cy="55250" r="231.102" /> 
<circle cx="64500" cy="51950" r="206.102" /> 
<circle cx="64500" cy="54950" r="206.102" /> 
<circle cx="84000" cy="48000" r="206.102" /> 
<circle cx="87000" cy="48000" r="206.102" /> 
<circle cx="85000" cy="57750" r="206.102" /> 
<circle cx="88000" cy="57750" r="206.102" /> 
<circle cx="75100" cy="45450" r="206.102" /> 
<circle cx="75100" cy="48450" r="206.102" /> 
<circle cx="64850" cy="56200" r="206.102" /> 
<circle cx="67850" cy="56200" r="206.102" /> 
<circle cx="71825" cy="56200" r="206.102" /> 
<circle cx="68825" cy="56200" r="206.102" /> 
<circle cx="71100" cy="55200" r="206.102" /> 
<circle cx="71100" cy="52200" r="206.102" /> 
<circle cx="69025" cy="50800" r="281.102" /> 
<circle cx="70025" cy="50800" r="281.102" /> 
<polyline style="fill-rule:evenodd;"
points="71306,51081
70743,51081
70743,50518
71306,50518
71306,51081
" /> 
<polyline style="fill-rule:evenodd;"
points="72768,47768
73231,47768
73231,48231
72768,48231
72768,47768
" /> 
<circle cx="73000" cy="49000" r="231.102" /> 
<circle cx="73000" cy="50000" r="231.102" /> 
<circle cx="73000" cy="51000" r="231.102" /> 
<circle cx="73000" cy="52000" r="231.102" /> 
<circle cx="73000" cy="53000" r="231.102" /> 
<circle cx="73000" cy="54000" r="231.102" /> 
<circle cx="73000" cy="55000" r="231.102" /> 
<circle cx="73000" cy="56000" r="231.102" /> 
<circle cx="73000" cy="57000" r="231.102" /> 
<polyline style="fill-rule:evenodd;"
points="73768,47768
74231,47768
74231,48231
73768,48231
73768,47768
" /> 
<circle cx="74000" cy="49000" r="231.102" /> 
<circle cx="74000" cy="50000" r="231.102" /> 
<circle cx="74000" cy="51000" r="231.102" /> 
<circle cx="74000" cy="52000" r="231.102" /> 
<circle cx="74000" cy="53000" r="231.102" /> 
<circle cx="74000" cy="54000" r="231.102" /> 
<circle cx="74000" cy="55000" r="231.102" /> 
<circle cx="74000" cy="56000" r="231.102" /> 
<circle cx="74000" cy="57000" r="231.102" /> 
<polyline style="fill-rule:evenodd;"
points="89768,47768
90231,47768
90231,48231
89768,48231
89768,47768
" /> 
<circle cx="90000" cy="49000" r="231.102" /> 
<circle cx="90000" cy="50000" r="231.102" /> 
<circle cx="90000" cy="51000" r="231.102" /> 
<circle cx="90000" cy="52000" r="231.102" /> 
<circle cx="90000" cy="53000" r="231.102" /> 
<circle cx="90000" cy="54000" r="231.102" /> 
<circle cx="90000" cy="55000" r="231.102" /> 
<circle cx="90000" cy="56000" r="231.102" /> 
<circle cx="90000" cy="57000" r="231.102" /> 
<polyline style="fill-rule:evenodd;"
points="90768,47768
91231,47768
91231,48231
90768,48231
90768,47768
" /> 
<circle cx="91000" cy="49000" r="231.102" /> 
<circle cx="91000" cy="50000" r="231.102" /> 
<circle cx="91000" cy="51000" r="231.102" /> 
<circle cx="91000" cy="52000" r="231.102" /> 
<circle cx="91000" cy="53000" r="231.102" /> 
<circle cx="91000" cy="54000" r="231.102" /> 
<circle cx="91000" cy="55000" r="231.102" /> 
<circle cx="91000" cy="56000" r="231.102" /> 
<circle cx="91000" cy="57000" r="231.102" /> 
<polyline style="fill-rule:evenodd;"
points="83731,58018
83731,58481
83268,58481
83268,58018
83731,58018
" /> 
<circle cx="82500" cy="58250" r="231.102" /> 
<circle cx="81500" cy="58250" r="231.102" /> 
<circle cx="80500" cy="58250" r="231.102" /> 
<polyline style="fill-rule:evenodd;"
points="80768,47231
80768,46768
81231,46768
81231,47231
80768,47231
" /> 
<circle cx="81000" cy="46000" r="231.102" /> 
<circle cx="82000" cy="47000" r="231.102" /> 
<circle cx="82000" cy="46000" r="231.102" /> 
<circle cx="83000" cy="47000" r="231.102" /> 
<circle cx="83000" cy="46000" r="231.102" /> 
<circle cx="84000" cy="47000" r="231.102" /> 
<circle cx="84000" cy="46000" r="231.102" /> 
<circle cx="85000" cy="47000" r="231.102" /> 
<circle cx="85000" cy="46000" r="231.102" /> 
<circle cx="86000" cy="47000" r="231.102" /> 
<circle cx="86000" cy="46000" r="231.102" /> 
<circle cx="87000" cy="47000" r="231.102" /> 
<circle cx="87000" cy="46000" r="231.102" /> 
<circle cx="91350" cy="46500" r="206.102" /> 
<circle cx="94350" cy="46500" r="206.102" /> 
<polyline style="fill-rule:evenodd;"
points="66043,45168
66456,45168
66456,45581
66043,45581
66043,45168
" /> 
<circle cx="66250" cy="46875" r="206.102" /> 
<polyline style="fill-rule:evenodd;"
points="70906,45743
70906,46156
70493,46156
70493,45743
70906,45743
" /> 
<circle cx="69200" cy="45950" r="206.102" /> 
<polyline style="fill-rule:evenodd;"
points="66093,48343
66706,48343
66706,48956
66093,48956
66093,48343
" /> 
<circle cx="66400" cy="50650" r="306.102" /> 
<polyline style="fill-rule:evenodd;"
points="78706,45393
78706,45806
78293,45806
78293,45393
78706,45393
" /> 
<circle cx="77500" cy="45600" r="206.102" /> 
<circle cx="76500" cy="45600" r="206.102" /> 
<circle cx="76500" cy="48600" r="206.102" /> 
<circle cx="77500" cy="48600" r="206.102" /> 
<circle cx="78500" cy="48600" r="206.102" /> 
</g>
<g style="fill:#000000; fill-opacity:1.0; 
stroke:#000000; stroke-width:59; stroke-opacity:1; 
stroke-linecap:round; stroke-linejoin:round;">
<path d="M96500 59250
L64000 59250
" />
<path d="M64000 59250
L64000 44250
" />
<path d="M96500 44250
L96500 59250
" />
<path d="M64000 44250
L96500 44250
" />
</g>
<g style="fill:#000000; fill-opacity:1.0; 
stroke:#000000; stroke-width:137.795; stroke-opacity:1; 
stroke-linecap:round; stroke-linejoin:round;">
<polyline style="fill-rule:evenodd;"
points="94656,44993
94656,45406
94243,45406
94243,44993
94656,44993
" /> 
<circle cx="93450" cy="45200" r="206.102" /> 
<circle cx="92450" cy="45200" r="206.102" /> 
<polyline style="fill-rule:evenodd;"
points="66643,55406
66643,54993
67056,54993
67056,55406
66643,55406
" /> 
<circle cx="67850" cy="55200" r="206.102" /> 
<circle cx="68850" cy="55200" r="206.102" /> 
<circle cx="69850" cy="55200" r="206.102" /> 
<circle cx="69850" cy="52200" r="206.102" /> 
<circle cx="68850" cy="52200" r="206.102" /> 
<circle cx="67850" cy="52200" r="206.102" /> 
<circle cx="66850" cy="52200" r="206.102" /> 
<polyline style="fill-rule:evenodd;"
points="85706,53793
85706,54206
85293,54206
85293,53793
85706,53793
" /> 
<circle cx="84500" cy="54000" r="206.102" /> 
<circle cx="83500" cy="54000" r="206.102" /> 
<circle cx="82500" cy="54000" r="206.102" /> 
<circle cx="81500" cy="54000" r="206.102" /> 
<circle cx="80500" cy="54000" r="206.102" /> 
<circle cx="79500" cy="54000" r="206.102" /> 
<circle cx="78500" cy="54000" r="206.102" /> 
<circle cx="77500" cy="54000" r="206.102" /> 
<circle cx="76500" cy="54000" r="206.102" /> 
<circle cx="76500" cy="57000" r="206.102" /> 
<circle cx="77500" cy="57000" r="206.102" /> 
<circle cx="78500" cy="57000" r="206.102" /> 
<circle cx="79500" cy="57000" r="206.102" /> 
<circle cx="80500" cy="57000" r="206.102" /> 
<circle cx="81500" cy="57000" r="206.102" /> 
<circle cx="82500" cy="57000" r="206.102" /> 
<circle cx="83500" cy="57000" r="206.102" /> 
<circle cx="84500" cy="57000" r="206.102" /> 
<circle cx="85500" cy="57000" r="206.102" /> 
<polyline style="fill-rule:evenodd;"
points="85706,49543
85706,49956
85293,49956
85293,49543
85706,49543
" /> 
<circle cx="84500" cy="49750" r="206.102" /> 
<circle cx="83500" cy="49750" r="206.102" /> 
<circle cx="82500" cy="49750" r="206.102" /> 
<circle cx="81500" cy="49750" r="206.102" /> 
<circle cx="80500" cy="49750" r="206.102" /> 
<circle cx="79500" cy="49750" r="206.102" /> 
<circle cx="78500" cy="49750" r="206.102" /> 
<circle cx="77500" cy="49750" r="206.102" /> 
<circle cx="76500" cy="49750" r="206.102" /> 
<circle cx="76500" cy="52750" r="206.102" /> 
<circle cx="77500" cy="52750" r="206.102" /> 
<circle cx="78500" cy="52750" r="206.102" /> 
<circle cx="79500" cy="52750" r="206.102" /> 
<circle cx="80500" cy="52750" r="206.102" /> 
<circle cx="81500" cy="52750" r="206.102" /> 
<circle cx="82500" cy="52750" r="206.102" /> 
<circle cx="83500" cy="52750" r="206.102" /> 
<circle cx="84500" cy="52750" r="206.102" /> 
<circle cx="85500" cy="52750" r="206.102" /> 
<polyline style="fill-rule:evenodd;"
points="64268,50468
64681,50468
64681,50881
64268,50881
64268,50468
" /> 
<circle cx="64475" cy="47675" r="206.102" /> 
<circle cx="67850" cy="57450" r="206.102" /> 
<circle cx="68850" cy="57450" r="206.102" /> 
<polyline style="fill-rule:evenodd;"
points="69643,58906
69643,58493
70056,58493
70056,58906
69643,58906
" /> 
<circle cx="66850" cy="58700" r="206.102" /> 
<circle cx="65600" cy="53200" r="206.102" /> 
<circle cx="65600" cy="54200" r="206.102" /> 
<circle cx="95250" cy="58000" r="931.102" /> 
<circle cx="69025" cy="48800" r="281.102" /> 
<polyline style="fill-rule:evenodd;"
points="71306,49081
70743,49081
70743,48518
71306,48518
71306,49081
" /> 
<circle cx="71350" cy="57450" r="206.102" /> 
<circle cx="71350" cy="58450" r="206.102" /> 
<circle cx="72750" cy="45350" r="206.102" /> 
<circle cx="73750" cy="45350" r="206.102" /> 
<circle cx="87250" cy="56000" r="206.102" /> 
<circle cx="87250" cy="55000" r="206.102" /> 
<circle cx="87250" cy="51750" r="206.102" /> 
<circle cx="87250" cy="50750" r="206.102" /> 
<circle cx="65250" cy="58000" r="931.102" /> 
<polyline style="fill-rule:evenodd;"
points="95731,50768
95731,51231
95268,51231
95268,50768
95731,50768
" /> 
<circle cx="95500" cy="52000" r="231.102" /> 
<circle cx="94500" cy="51000" r="231.102" /> 
<circle cx="94500" cy="52000" r="231.102" /> 
<circle cx="93500" cy="51000" r="231.102" /> 
<circle cx="93500" cy="52000" r="231.102" /> 
<circle cx="92500" cy="51000" r="231.102" /> 
<circle cx="92500" cy="52000" r="231.102" /> 
<polyline style="fill-rule:evenodd;"
points="95731,47518
95731,47981
95268,47981
95268,47518
95731,47518
" /> 
<circle cx="95500" cy="48750" r="231.102" /> 
<circle cx="94500" cy="47750" r="231.102" /> 
<circle cx="94500" cy="48750" r="231.102" /> 
<circle cx="93500" cy="47750" r="231.102" /> 
<circle cx="93500" cy="48750" r="231.102" /> 
<circle cx="92500" cy="47750" r="231.102" /> 
<circle cx="92500" cy="48750" r="231.102" /> 
<polyline style="fill-rule:evenodd;"
points="95731,54018
95731,54481
95268,54481
95268,54018
95731,54018
" /> 
<circle cx="95500" cy="55250" r="231.102" /> 
<circle cx="94500" cy="54250" r="231.102" /> 
<circle cx="94500" cy="55250" r="231.102" /> 
<circle cx="93500" cy="54250" r="231.102" /> 
<circle cx="93500" cy="55250" r="231.102" /> 
<circle cx="92500" cy="54250" r="231.102" /> 
<circle cx="92500" cy="55250" r="231.102" /> 
<circle cx="64500" cy="51950" r="206.102" /> 
<circle cx="64500" cy="54950" r="206.102" /> 
<circle cx="84000" cy="48000" r="206.102" /> 
<circle cx="87000" cy="48000" r="206.102" /> 
<circle cx="85000" cy="57750" r="206.102" /> 
<circle cx="88000" cy="57750" r="206.102" /> 
<circle cx="75100" cy="45450" r="206.102" /> 
<circle cx="75100" cy="48450" r="206.102" /> 
<circle cx="64850" cy="56200" r="206.102" /> 
<circle cx="67850" cy="56200" r="206.102" /> 
<circle cx="71825" cy="56200" r="206.102" /> 
<circle cx="68825" cy="56200" r="206.102" /> 
<circle cx="71100" cy="55200" r="206.102" /> 
<circle cx="71100" cy="52200" r="206.102" /> 
<circle cx="69025" cy="50800" r="281.102" /> 
<circle cx="70025" cy="50800" r="281.102" /> 
<polyline style="fill-rule:evenodd;"
points="71306,51081
70743,51081
70743,50518
71306,50518
71306,51081
" /> 
<polyline style="fill-rule:evenodd;"
points="72768,47768
73231,47768
73231,48231
72768,48231
72768,47768
" /> 
<circle cx="73000" cy="49000" r="231.102" /> 
<circle cx="73000" cy="50000" r="231.102" /> 
<circle cx="73000" cy="51000" r="231.102" /> 
<circle cx="73000" cy="52000" r="231.102" /> 
<circle cx="73000" cy="53000" r="231.102" /> 
<circle cx="73000" cy="54000" r="231.102" /> 
<circle cx="73000" cy="55000" r="231.102" /> 
<circle cx="73000" cy="56000" r="231.102" /> 
<circle cx="73000" cy="57000" r="231.102" /> 
<polyline style="fill-rule:evenodd;"
points="73768,47768
74231,47768
74231,48231
73768,48231
73768,47768
" /> 
<circle cx="74000" cy="49000" r="231.102" /> 
<circle cx="74000" cy="50000" r="231.102" /> 
<circle cx="74000" cy="51000" r="231.102" /> 
<circle cx="74000" cy="52000" r="231.102" /> 
<circle cx="74000" cy="53000" r="231.102" /> 
<circle cx="74000" cy="54000" r="231.102" /> 
<circle cx="74000" cy="55000" r="231.102" /> 
<circle cx="74000" cy="56000" r="231.102" /> 
<circle cx="74000" cy="57000" r="231.102" /> 
<polyline style="fill-rule:evenodd;"
points="89768,47768
90231,47768
90231,48231
89768,48231
89768,47768
" /> 
<circle cx="90000" cy="49000" r="231.102" /> 
<circle cx="90000" cy="50000" r="231.102" /> 
<circle cx="90000" cy="51000" r="231.102" /> 
<circle cx="90000" cy="52000" r="231.102" /> 
<circle cx="90000" cy="53000" r="231.102" /> 
<circle cx="90000" cy="54000" r="231.102" /> 
<circle cx="90000" cy="55000" r="231.102" /> 
<circle cx="90000" cy="56000" r="231.102" /> 
<circle cx="90000" cy="57000" r="231.102" /> 
<polyline style="fill-rule:evenodd;"
points="90768,47768
91231,47768
91231,48231
90768,48231
90768,47768
" /> 
<circle cx="91000" cy="49000" r="231.102" /> 
<circle cx="91000" cy="50000" r="231.102" /> 
<circle cx="91000" cy="51000" r="231.102" /> 
<circle cx="91000" cy="52000" r="231.102" /> 
<circle cx="91000" cy="53000" r="231.102" /> 
<circle cx="91000" cy="54000" r="231.102" /> 
<circle cx="91000" cy="55000" r="231.102" /> 
<circle cx="91000" cy="56000" r="231.102" /> 
<circle cx="91000" cy="57000" r="231.102" /> 
<polyline style="fill-rule:evenodd;"
points="83731,58018
83731,58481
83268,58481
83268,58018
83731,58018
" /> 
<circle cx="82500" cy="58250" r="231.102" /> 
<circle cx="81500" cy="58250" r="231.102" /> 
<circle cx="80500" cy="58250" r="231.102" /> 
<polyline style="fill-rule:evenodd;"
points="80768,47231
80768,46768
81231,46768
81231,47231
80768,47231
" /> 
<circle cx="81000" cy="46000" r="231.102" /> 
<circle cx="82000" cy="47000" r="231.102" /> 
<circle cx="82000" cy="46000" r="231.102" /> 
<circle cx="83000" cy="47000" r="231.102" /> 
<circle cx="83000" cy="46000" r="231.102" /> 
<circle cx="84000" cy="47000" r="231.102" /> 
<circle cx="84000" cy="46000" r="231.102" /> 
<circle cx="85000" cy="47000" r="231.102" /> 
<circle cx="85000" cy="46000" r="231.102" /> 
<circle cx="86000" cy="47000" r="231.102" /> 
<circle cx="86000" cy="46000" r="231.102" /> 
<circle cx="87000" cy="47000" r="231.102" /> 
<circle cx="87000" cy="46000" r="231.102" /> 
<circle cx="91350" cy="46500" r="206.102" /> 
<circle cx="94350" cy="46500" r="206.102" /> 
<polyline style="fill-rule:evenodd;"
points="66043,45168
66456,45168
66456,45581
66043,45581
66043,45168
" /> 
<circle cx="66250" cy="46875" r="206.102" /> 
<polyline style="fill-rule:evenodd;"
points="70906,45743
70906,46156
70493,46156
70493,45743
70906,45743
" /> 
<circle cx="69200" cy="45950" r="206.102" /> 
<polyline style="fill-rule:evenodd;"
points="66093,48343
66706,48343
66706,48956
66093,48956
66093,48343
" /> 
<circle cx="66400" cy="50650" r="306.102" /> 
<polyline style="fill-rule:evenodd;"
points="78706,45393
78706,45806
78293,45806
78293,45393
78706,45393
" /> 
<circle cx="77500" cy="45600" r="206.102" /> 
<circle cx="76500" cy="45600" r="206.102" /> 
<circle cx="76500" cy="48600" r="206.102" /> 
<circle cx="77500" cy="48600" r="206.102" /> 
<circle cx="78500" cy="48600" r="206.102" /> 
</g>
<g style="fill:#000000; fill-opacity:1.0; 
stroke:#000000; stroke-width:59; stroke-opacity:1; 
stroke-linecap:round; stroke-linejoin:round;">
<path d="M96500 59250
L64000 59250
" />
<path d="M64000 59250
L64000 44250
" />
<path d="M96500 44250
L96500 59250
" />
<path d="M64000 44250
L96500 44250
" />
</g>
<g style="fill:#000000; fill-opacity:0.0; 
stroke:#000000; stroke-width:73.8189; stroke-opacity:1; 
stroke-linecap:round; stroke-linejoin:round;">
<path d="M88755 55802
L88769 55760
L88769 55690
L88755 55662
L88741 55648
L88713 55633
L88685 55633
L88657 55648
L88642 55662
L88628 55690
L88614 55746
L88600 55774
L88586 55788
L88558 55802
L88530 55802
L88502 55788
L88488 55774
L88474 55746
L88474 55676
L88488 55633
" />
<path d="M88572 55549
L88572 55437
" />
<path d="M88474 55507
L88727 55507
L88755 55493
L88769 55465
L88769 55437
" />
<path d="M88755 55226
L88769 55254
L88769 55310
L88755 55338
L88727 55352
L88614 55352
L88586 55338
L88572 55310
L88572 55254
L88586 55226
L88614 55212
L88642 55212
L88671 55352
" />
<path d="M88769 55043
L88755 55071
L88727 55085
L88474 55085
" />
<path d="M88769 54888
L88755 54916
L88727 54930
L88474 54930
" />
<path d="M88769 54649
L88614 54649
L88586 54663
L88572 54691
L88572 54748
L88586 54776
" />
<path d="M88755 54649
L88769 54677
L88769 54748
L88755 54776
L88727 54790
L88699 54790
L88671 54776
L88657 54748
L88657 54677
L88642 54649
" />
<path d="M88769 54509
L88572 54509
" />
<path d="M88628 54509
L88600 54495
L88586 54481
L88572 54452
L88572 54424
" />
<path d="M88769 54326
L88572 54326
" />
<path d="M88474 54326
L88488 54340
L88502 54326
L88488 54312
L88474 54326
L88502 54326
" />
<path d="M88755 54199
L88769 54171
L88769 54115
L88755 54087
L88727 54073
L88713 54073
L88685 54087
L88671 54115
L88671 54157
L88657 54185
L88628 54199
L88614 54199
L88586 54185
L88572 54157
L88572 54115
L88586 54087
" />
<path d="M88769 53581
L88769 53721
L88474 53721
" />
<path d="M88741 53313
L88755 53328
L88769 53370
L88769 53398
L88755 53440
L88727 53468
L88699 53482
L88642 53496
L88600 53496
L88544 53482
L88516 53468
L88488 53440
L88474 53398
L88474 53370
L88488 53328
L88502 53313
" />
<path d="M88769 53187
L88474 53187
L88474 53117
L88488 53074
L88516 53046
L88544 53032
L88600 53018
L88642 53018
L88699 53032
L88727 53046
L88755 53074
L88769 53117
L88769 53187
" />
<path d="M88769 52667
L88474 52667
L88474 52596
L88488 52554
L88516 52526
L88544 52512
L88600 52498
L88642 52498
L88699 52512
L88727 52526
L88755 52554
L88769 52596
L88769 52667
" />
<path d="M88769 52371
L88572 52371
" />
<path d="M88628 52371
L88600 52357
L88586 52343
L88572 52315
L88572 52287
" />
<path d="M88769 52189
L88572 52189
" />
<path d="M88474 52189
L88488 52203
L88502 52189
L88488 52175
L88474 52189
L88502 52189
" />
<path d="M88572 52076
L88769 52006
L88572 51936
" />
<path d="M88755 51711
L88769 51739
L88769 51795
L88755 51823
L88727 51837
L88614 51837
L88586 51823
L88572 51795
L88572 51739
L88586 51711
L88614 51696
L88642 51696
L88671 51837
" />
<path d="M88769 51570
L88572 51570
" />
<path d="M88628 51570
L88600 51556
L88586 51542
L88572 51514
L88572 51486
" />
<path d="M88657 51162
L88657 50937
" />
<path d="M88769 50403
L88628 50501
" />
<path d="M88769 50572
L88474 50572
L88474 50459
L88488 50431
L88502 50417
L88530 50403
L88572 50403
L88600 50417
L88614 50431
L88628 50459
L88628 50572
" />
<path d="M88755 50164
L88769 50192
L88769 50248
L88755 50276
L88727 50290
L88614 50290
L88586 50276
L88572 50248
L88572 50192
L88586 50164
L88614 50150
L88642 50150
L88671 50290
" />
<path d="M88572 50051
L88769 49981
L88572 49911
" />
<path d="M88685 49587
L88685 49447
" />
<path d="M88769 49616
L88474 49517
L88769 49419
" />
<path d="M89369 55676
L89355 55690
L89312 55718
L89284 55732
L89242 55746
L89172 55760
L89116 55760
L89045 55746
L89003 55732
L88975 55718
L88933 55690
L88919 55676
" />
<path d="M89242 55437
L89256 55465
L89256 55521
L89242 55549
L89228 55563
L89200 55577
L89116 55577
L89087 55563
L89073 55549
L89059 55521
L89059 55465
L89073 55437
" />
<path d="M89369 55338
L89355 55324
L89312 55296
L89284 55282
L89242 55268
L89172 55254
L89116 55254
L89045 55268
L89003 55282
L88975 55296
L88933 55324
L88919 55338
" />
<path d="M88989 54902
L88975 54888
L88961 54860
L88961 54790
L88975 54762
L88989 54748
L89017 54734
L89045 54734
L89087 54748
L89256 54916
L89256 54734
" />
<path d="M88961 54551
L88961 54523
L88975 54495
L88989 54481
L89017 54466
L89073 54452
L89144 54452
L89200 54466
L89228 54481
L89242 54495
L89256 54523
L89256 54551
L89242 54579
L89228 54593
L89200 54607
L89144 54621
L89073 54621
L89017 54607
L88989 54593
L88975 54579
L88961 54551
" />
<path d="M89256 54171
L89256 54340
" />
<path d="M89256 54256
L88961 54256
L89003 54284
L89031 54312
L89045 54340
" />
<path d="M88989 54059
L88975 54045
L88961 54017
L88961 53946
L88975 53918
L88989 53904
L89017 53890
L89045 53890
L89087 53904
L89256 54073
L89256 53890
" />
<path d="M89256 53538
L88961 53538
" />
<path d="M89102 53538
L89102 53370
" />
<path d="M89256 53370
L88961 53370
" />
<path d="M89242 53117
L89256 53145
L89256 53201
L89242 53229
L89214 53243
L89102 53243
L89073 53229
L89059 53201
L89059 53145
L89073 53117
L89102 53103
L89130 53103
L89158 53243
" />
<path d="M89059 52976
L89256 52976
" />
<path d="M89087 52976
L89073 52962
L89059 52934
L89059 52892
L89073 52864
L89102 52849
L89256 52849
" />
<path d="M89256 52709
L89059 52709
" />
<path d="M89116 52709
L89087 52695
L89073 52681
L89059 52653
L89059 52625
" />
<path d="M89059 52554
L89256 52484
" />
<path d="M89059 52414
L89256 52484
L89327 52512
L89341 52526
L89355 52554
" />
<path d="M89059 52104
L89256 52034
L89059 51964
" />
<path d="M89256 51809
L89242 51837
L89228 51851
L89200 51865
L89116 51865
L89087 51851
L89073 51837
L89059 51809
L89059 51767
L89073 51739
L89087 51725
L89116 51711
L89200 51711
L89228 51725
L89242 51739
L89256 51767
L89256 51809
" />
<path d="M89059 51584
L89256 51584
" />
<path d="M89087 51584
L89073 51570
L89059 51542
L89059 51500
L89073 51472
L89102 51457
L89256 51457
" />
<path d="M88961 51134
L88961 50965
" />
<path d="M89256 51050
L88961 51050
" />
<path d="M89256 50867
L89059 50867
" />
<path d="M89116 50867
L89087 50853
L89073 50839
L89059 50811
L89059 50783
" />
<path d="M89242 50572
L89256 50600
L89256 50656
L89242 50684
L89214 50698
L89102 50698
L89073 50684
L89059 50656
L89059 50600
L89073 50572
L89102 50558
L89130 50558
L89158 50698
" />
<path d="M89242 50445
L89256 50417
L89256 50361
L89242 50333
L89214 50319
L89200 50319
L89172 50333
L89158 50361
L89158 50403
L89144 50431
L89116 50445
L89102 50445
L89073 50431
L89059 50403
L89059 50361
L89073 50333
" />
<path d="M89242 50065
L89256 50094
L89256 50150
L89242 50178
L89228 50192
L89200 50206
L89116 50206
L89087 50192
L89073 50178
L89059 50150
L89059 50094
L89073 50065
" />
<path d="M89256 49939
L88961 49939
" />
<path d="M89144 49911
L89256 49826
" />
<path d="M89059 49826
L89172 49939
" />
<path d="M89256 49658
L89242 49686
L89228 49700
L89200 49714
L89116 49714
L89087 49700
L89073 49686
L89059 49658
L89059 49616
L89073 49587
L89087 49573
L89116 49559
L89200 49559
L89228 49573
L89242 49587
L89256 49616
L89256 49658
" />
<path d="M89059 49461
L89256 49405
L89116 49348
L89256 49292
L89059 49236
" />
</g>
<g style="fill:#000000; fill-opacity:0.0; 
stroke:#000000; stroke-width:59; stroke-opacity:1; 
stroke-linecap:round; stroke-linejoin:round;">
<path d="M96500 59250
L64000 59250
" />
<path d="M64000 59250
L64000 44250
" />
<path d="M96500 44250
L96500 59250
" />
<path d="M64000 44250
L96500 44250
" />
</g>
<g style="fill:#000000; fill-opacity:0.0; 
stroke:#000000; stroke-width:120; stroke-opacity:1; 
stroke-linecap:round; stroke-linejoin:round;">
<path d="M94950 44700
L94950 45700
" />
<path d="M94950 45700
L91950 45700
" />
<path d="M91950 45700
L91950 44700
" />
<path d="M91950 44700
L94950 44700
" />
<path d="M93950 45700
L93950 44700
" />
</g>
<g style="fill:#000000; fill-opacity:0.0; 
stroke:#000000; stroke-width:100; stroke-opacity:1; 
stroke-linecap:round; stroke-linejoin:round;">
<path d="M66350 53200
L66850 53200
" />
<path d="M66850 53200
L66850 54200
" />
<path d="M66850 54200
L66350 54200
" />
<path d="M66350 52700
L70350 52700
" />
<path d="M70350 52700
L70350 54700
" />
<path d="M70350 54700
L66350 54700
" />
<path d="M66350 54700
L66350 52700
" />
</g>
<g style="fill:#000000; fill-opacity:0.0; 
stroke:#000000; stroke-width:150; stroke-opacity:1; 
stroke-linecap:round; stroke-linejoin:round;">
<path d="M86500 56000
L86000 56000
" />
<path d="M86000 56000
L86000 55000
" />
<path d="M86000 55000
L86500 55000
" />
<path d="M86500 56500
L75500 56500
" />
<path d="M75500 56500
L75500 54500
" />
<path d="M75500 54500
L86500 54500
" />
<path d="M86500 54500
L86500 56500
" />
<path d="M86500 51750
L86000 51750
" />
<path d="M86000 51750
L86000 50750
" />
<path d="M86000 50750
L86500 50750
" />
<path d="M86500 52250
L75500 52250
" />
<path d="M75500 52250
L75500 50250
" />
<path d="M75500 50250
L86500 50250
" />
<path d="M86500 50250
L86500 52250
" />
</g>
<g style="fill:#000000; fill-opacity:0.0; 
stroke:#000000; stroke-width:120; stroke-opacity:1; 
stroke-linecap:round; stroke-linejoin:round;">
<path d="M64475 50675
L64475 50375
" />
<path d="M64475 50375
L64875 50375
" />
<path d="M64875 50375
L64875 47975
" />
<path d="M64875 47975
L64475 47975
" />
<path d="M64475 47975
L64475 47675
" />
<path d="M64475 47975
L64075 47975
" />
<path d="M64075 47975
L64075 50375
" />
<path d="M64075 50375
L64475 50375
" />
<path d="M64875 50175
L64075 50175
" />
<path d="M64075 50075
L64875 50075
" />
<path d="M67370 56950
L69350 56950
" />
<path d="M69350 56950
L69350 57950
" />
<path d="M69350 57950
L67350 57950
" />
<path d="M67350 57950
L67350 56950
" />
<path d="M67350 57200
L67600 56950
" />
<path d="M69850 58700
L69550 58700
" />
<path d="M69550 58700
L69550 58300
" />
<path d="M69550 58300
L67150 58300
" />
<path d="M67150 58300
L67150 58700
" />
<path d="M67150 58700
L66850 58700
" />
<path d="M67150 58700
L67150 59100
" />
<path d="M67150 59100
L69550 59100
" />
<path d="M69550 59100
L69550 58700
" />
<path d="M69350 58300
L69350 59100
" />
<path d="M69250 59100
L69250 58300
" />
<path d="M66100 52720
L66100 54700
" />
<path d="M66100 54700
L65100 54700
" />
<path d="M65100 54700
L65100 52700
" />
<path d="M65100 52700
L66100 52700
" />
<path d="M65850 52700
L66100 52950
" />
</g>
<g style="fill:#000000; fill-opacity:0.0; 
stroke:#000000; stroke-width:150; stroke-opacity:1; 
stroke-linecap:round; stroke-linejoin:round;">
<path d="M68025 48050
L68025 47800
" />
<path d="M68025 47800
L72025 47800
" />
<path d="M72025 47800
L72025 48050
" />
<path d="M68025 49550
L68025 48050
" />
<path d="M68025 48050
L72025 48050
" />
<path d="M72025 48050
L72025 49550
" />
<path d="M72025 49550
L68025 49550
" />
</g>
<g style="fill:#000000; fill-opacity:0.0; 
stroke:#000000; stroke-width:120; stroke-opacity:1; 
stroke-linecap:round; stroke-linejoin:round;">
<path d="M71850 56970
L71850 58950
" />
<path d="M71850 58950
L70850 58950
" />
<path d="M70850 58950
L70850 56950
" />
<path d="M70850 56950
L71850 56950
" />
<path d="M71600 56950
L71850 57200
" />
<path d="M72270 44850
L74250 44850
" />
<path d="M74250 44850
L74250 45850
" />
<path d="M74250 45850
L72250 45850
" />
<path d="M72250 45850
L72250 44850
" />
<path d="M72250 45100
L72500 44850
" />
<path d="M86750 56480
L86750 54500
" />
<path d="M86750 54500
L87750 54500
" />
<path d="M87750 54500
L87750 56500
" />
<path d="M87750 56500
L86750 56500
" />
<path d="M87000 56500
L86750 56250
" />
<path d="M86750 52230
L86750 50250
" />
<path d="M86750 50250
L87750 50250
" />
<path d="M87750 50250
L87750 52250
" />
<path d="M87750 52250
L86750 52250
" />
<path d="M87000 52250
L86750 52000
" />
<path d="M96000 52500
L92000 52500
" />
<path d="M92000 52500
L92000 50500
" />
<path d="M92000 50500
L96000 50500
" />
<path d="M96000 50500
L96000 52500
" />
<path d="M96000 49250
L92000 49250
" />
<path d="M92000 49250
L92000 47250
" />
<path d="M92000 47250
L96000 47250
" />
<path d="M96000 47250
L96000 49250
" />
<path d="M96000 55750
L92000 55750
" />
<path d="M92000 55750
L92000 53750
" />
<path d="M92000 53750
L96000 53750
" />
<path d="M96000 53750
L96000 55750
" />
</g>
<g style="fill:#000000; fill-opacity:0.0; 
stroke:#000000; stroke-width:80; stroke-opacity:1; 
stroke-linecap:round; stroke-linejoin:round;">
<path d="M64500 51950
L64500 52150
" />
<path d="M64500 54950
L64500 54750
" />
<path d="M64500 54750
L64900 54750
" />
<path d="M64900 54750
L64900 52150
" />
<path d="M64900 52150
L64100 52150
" />
<path d="M64100 52150
L64100 54750
" />
<path d="M64100 54750
L64500 54750
" />
<path d="M64700 52150
L64900 52350
" />
<path d="M84000 48000
L84200 48000
" />
<path d="M87000 48000
L86800 48000
" />
<path d="M86800 48000
L86800 47600
" />
<path d="M86800 47600
L84200 47600
" />
<path d="M84200 47600
L84200 48400
" />
<path d="M84200 48400
L86800 48400
" />
<path d="M86800 48400
L86800 48000
" />
<path d="M84200 47800
L84400 47600
" />
<path d="M85000 57750
L85200 57750
" />
<path d="M88000 57750
L87800 57750
" />
<path d="M87800 57750
L87800 57350
" />
<path d="M87800 57350
L85200 57350
" />
<path d="M85200 57350
L85200 58150
" />
<path d="M85200 58150
L87800 58150
" />
<path d="M87800 58150
L87800 57750
" />
<path d="M85200 57550
L85400 57350
" />
<path d="M75100 45450
L75100 45650
" />
<path d="M75100 48450
L75100 48250
" />
<path d="M75100 48250
L75500 48250
" />
<path d="M75500 48250
L75500 45650
" />
<path d="M75500 45650
L74700 45650
" />
<path d="M74700 45650
L74700 48250
" />
<path d="M74700 48250
L75100 48250
" />
<path d="M75300 45650
L75500 45850
" />
<path d="M64850 56200
L65050 56200
" />
<path d="M67850 56200
L67650 56200
" />
<path d="M67650 56200
L67650 55800
" />
<path d="M67650 55800
L65050 55800
" />
<path d="M65050 55800
L65050 56600
" />
<path d="M65050 56600
L67650 56600
" />
<path d="M67650 56600
L67650 56200
" />
<path d="M65050 56000
L65250 55800
" />
<path d="M71825 56200
L71625 56200
" />
<path d="M68825 56200
L69025 56200
" />
<path d="M69025 56200
L69025 56600
" />
<path d="M69025 56600
L71625 56600
" />
<path d="M71625 56600
L71625 55800
" />
<path d="M71625 55800
L69025 55800
" />
<path d="M69025 55800
L69025 56200
" />
<path d="M71625 56400
L71425 56600
" />
<path d="M71100 55200
L71100 55000
" />
<path d="M71100 52200
L71100 52400
" />
<path d="M71100 52400
L70700 52400
" />
<path d="M70700 52400
L70700 55000
" />
<path d="M70700 55000
L71500 55000
" />
<path d="M71500 55000
L71500 52400
" />
<path d="M71500 52400
L71100 52400
" />
<path d="M70900 55000
L70700 54800
" />
</g>
<g style="fill:#000000; fill-opacity:0.0; 
stroke:#000000; stroke-width:150; stroke-opacity:1; 
stroke-linecap:round; stroke-linejoin:round;">
<path d="M68025 50050
L68025 49800
" />
<path d="M68025 49800
L72025 49800
" />
<path d="M72025 49800
L72025 50050
" />
<path d="M68025 51550
L68025 50050
" />
<path d="M68025 50050
L72025 50050
" />
<path d="M72025 50050
L72025 51550
" />
<path d="M72025 51550
L68025 51550
" />
</g>
<g style="fill:#000000; fill-opacity:0.0; 
stroke:#000000; stroke-width:120; stroke-opacity:1; 
stroke-linecap:round; stroke-linejoin:round;">
<path d="M72500 47500
L73500 47500
" />
<path d="M73500 47500
L73500 57500
" />
<path d="M73500 57500
L72500 57500
" />
<path d="M72500 57500
L72500 47500
" />
<path d="M72500 48500
L73500 48500
" />
<path d="M73500 47500
L74500 47500
" />
<path d="M74500 47500
L74500 57500
" />
<path d="M74500 57500
L73500 57500
" />
<path d="M73500 57500
L73500 47500
" />
<path d="M73500 48500
L74500 48500
" />
<path d="M89500 47500
L90500 47500
" />
<path d="M90500 47500
L90500 57500
" />
<path d="M90500 57500
L89500 57500
" />
<path d="M89500 57500
L89500 47500
" />
<path d="M89500 48500
L90500 48500
" />
<path d="M90500 47500
L91500 47500
" />
<path d="M91500 47500
L91500 57500
" />
<path d="M91500 57500
L90500 57500
" />
<path d="M90500 57500
L90500 47500
" />
<path d="M90500 48500
L91500 48500
" />
<path d="M84000 58750
L84000 58750
" />
<path d="M84000 57750
L84000 58750
" />
<path d="M84000 58750
L84000 58750
" />
<path d="M84000 58750
L80000 58750
" />
<path d="M80000 58750
L80000 57750
" />
<path d="M80000 57750
L84000 57750
" />
<path d="M83000 57750
L83000 58750
" />
</g>
<g style="fill:#000000; fill-opacity:0.0; 
stroke:#000000; stroke-width:80; stroke-opacity:1; 
stroke-linecap:round; stroke-linejoin:round;">
<path d="M91350 46500
L91550 46500
" />
<path d="M94350 46500
L94150 46500
" />
<path d="M94150 46500
L94150 46100
" />
<path d="M94150 46100
L91550 46100
" />
<path d="M91550 46100
L91550 46900
" />
<path d="M91550 46900
L94150 46900
" />
<path d="M94150 46900
L94150 46500
" />
<path d="M91550 46300
L91750 46100
" />
</g>
<g style="fill:#000000; fill-opacity:0.0; 
stroke:#000000; stroke-width:150; stroke-opacity:1; 
stroke-linecap:round; stroke-linejoin:round;">
<circle cx="66250" cy="46125" r="1750" /> 
<circle cx="69950" cy="45950" r="1750" /> 
<circle cx="66400" cy="49650" r="1500" /> 
<path d="M79250 48100
L75750 48100
" />
<path d="M75750 48100
L75750 46100
" />
<path d="M75750 46100
L79250 46100
" />
<path d="M79250 46100
L79250 48100
" />
<path d="M79250 47350
L78750 47350
" />
<path d="M78750 47350
L78750 46850
" />
<path d="M78750 46850
L79250 46850
" />
</g>
<g style="fill:#000000; fill-opacity:0.0; 
stroke:#000000; stroke-width:59.0551; stroke-opacity:1; 
stroke-linecap:round; stroke-linejoin:round;">
<path d="M95224 45669
L95125 45528
" />
<path d="M95055 45669
L95055 45374
L95167 45374
L95196 45388
L95210 45402
L95224 45430
L95224 45472
L95210 45500
L95196 45514
L95167 45528
L95055 45528
" />
<path d="M95308 45374
L95407 45669
L95505 45374
" />
<path d="M95758 45669
L95589 45669
" />
<path d="M95674 45669
L95674 45374
L95646 45416
L95617 45444
L95589 45458
" />
<path d="M95232 44774
L95091 44774
L95077 44914
L95091 44900
L95119 44886
L95189 44886
L95217 44900
L95232 44914
L95246 44942
L95246 45013
L95232 45041
L95217 45055
L95189 45069
L95119 45069
L95091 45055
L95077 45041
" />
<path d="M95428 44774
L95457 44774
L95485 44788
L95499 44802
L95513 44830
L95527 44886
L95527 44957
L95513 45013
L95499 45041
L95485 45055
L95457 45069
L95428 45069
L95400 45055
L95386 45041
L95372 45013
L95358 44957
L95358 44886
L95372 44830
L95386 44802
L95400 44788
L95428 44774
" />
<path d="M95653 45069
L95653 44774
" />
<path d="M95822 45069
L95696 44900
" />
<path d="M95822 44774
L95653 44942
" />
<path d="M65924 55424
L66163 55424
L66191 55410
L66205 55396
L66219 55368
L66219 55312
L66205 55284
L66191 55270
L66163 55256
L65924 55256
" />
<path d="M66219 54960
L66219 55129
" />
<path d="M66219 55045
L65924 55045
L65966 55073
L65994 55101
L66008 55129
" />
<path d="M67562 53819
L67562 53524
L67661 53735
L67759 53524
L67759 53819
" />
<path d="M67885 53735
L68026 53735
" />
<path d="M67857 53819
L67956 53524
L68054 53819
" />
<path d="M68125 53524
L68321 53819
" />
<path d="M68321 53524
L68125 53819
" />
<path d="M68406 53524
L68603 53524
L68476 53819
" />
<path d="M68687 53524
L68884 53524
L68757 53819
" />
<path d="M69123 53622
L69123 53819
" />
<path d="M69053 53510
L68982 53721
L69165 53721
" />
<path d="M74775 55324
L74775 55563
L74789 55591
L74803 55605
L74831 55619
L74887 55619
L74915 55605
L74929 55591
L74943 55563
L74943 55324
" />
<path d="M75056 55324
L75239 55324
L75140 55436
L75182 55436
L75210 55450
L75224 55464
L75239 55492
L75239 55563
L75224 55591
L75210 55605
L75182 55619
L75098 55619
L75070 55605
L75056 55591
" />
<path d="M79731 55869
L79731 55574
L79829 55785
L79928 55574
L79928 55869
" />
<path d="M80054 55855
L80097 55869
L80167 55869
L80195 55855
L80209 55841
L80223 55813
L80223 55785
L80209 55757
L80195 55742
L80167 55728
L80111 55714
L80082 55700
L80068 55686
L80054 55658
L80054 55630
L80068 55602
L80082 55588
L80111 55574
L80181 55574
L80223 55588
" />
<path d="M80350 55869
L80350 55574
L80462 55574
L80490 55588
L80504 55602
L80518 55630
L80518 55672
L80504 55700
L80490 55714
L80462 55728
L80350 55728
" />
<path d="M80771 55672
L80771 55869
" />
<path d="M80701 55560
L80631 55771
L80814 55771
" />
<path d="M80898 55574
L81081 55574
L80982 55686
L81025 55686
L81053 55700
L81067 55714
L81081 55742
L81081 55813
L81067 55841
L81053 55855
L81025 55869
L80940 55869
L80912 55855
L80898 55841
" />
<path d="M81264 55574
L81292 55574
L81320 55588
L81334 55602
L81348 55630
L81362 55686
L81362 55757
L81348 55813
L81334 55841
L81320 55855
L81292 55869
L81264 55869
L81235 55855
L81221 55841
L81207 55813
L81193 55757
L81193 55686
L81207 55630
L81221 55602
L81235 55588
L81264 55574
" />
<path d="M81643 55588
L81615 55574
L81573 55574
L81531 55588
L81503 55616
L81489 55644
L81474 55700
L81474 55742
L81489 55799
L81503 55827
L81531 55855
L81573 55869
L81601 55869
L81643 55855
L81657 55841
L81657 55742
L81601 55742
" />
<path d="M81770 55602
L81784 55588
L81812 55574
L81882 55574
L81910 55588
L81924 55602
L81938 55630
L81938 55658
L81924 55700
L81756 55869
L81938 55869
" />
<path d="M82192 55672
L82192 55869
" />
<path d="M82121 55560
L82051 55771
L82234 55771
" />
<path d="M82487 55574
L82346 55574
L82332 55714
L82346 55700
L82374 55686
L82445 55686
L82473 55700
L82487 55714
L82501 55742
L82501 55813
L82487 55841
L82473 55855
L82445 55869
L82374 55869
L82346 55855
L82332 55841
" />
<path d="M82613 55602
L82627 55588
L82656 55574
L82726 55574
L82754 55588
L82768 55602
L82782 55630
L82782 55658
L82768 55700
L82599 55869
L82782 55869
" />
<path d="M74775 51074
L74775 51313
L74789 51341
L74803 51355
L74831 51369
L74887 51369
L74915 51355
L74929 51341
L74943 51313
L74943 51074
" />
<path d="M75070 51102
L75084 51088
L75112 51074
L75182 51074
L75210 51088
L75224 51102
L75239 51130
L75239 51158
L75224 51200
L75056 51369
L75239 51369
" />
<path d="M79329 51074
L79525 51074
L79399 51369
" />
<path d="M79764 51172
L79764 51369
" />
<path d="M79694 51060
L79624 51271
L79807 51271
" />
<path d="M80060 51369
L79919 51369
L79919 51074
" />
<path d="M80144 51355
L80186 51369
L80257 51369
L80285 51355
L80299 51341
L80313 51313
L80313 51285
L80299 51257
L80285 51242
L80257 51228
L80200 51214
L80172 51200
L80158 51186
L80144 51158
L80144 51130
L80158 51102
L80172 51088
L80200 51074
L80271 51074
L80313 51088
" />
<path d="M80425 51102
L80439 51088
L80467 51074
L80538 51074
L80566 51088
L80580 51102
L80594 51130
L80594 51158
L80580 51200
L80411 51369
L80594 51369
" />
<path d="M80847 51172
L80847 51369
" />
<path d="M80777 51060
L80706 51271
L80889 51271
" />
<path d="M81142 51074
L81002 51074
L80988 51214
L81002 51200
L81030 51186
L81100 51186
L81128 51200
L81142 51214
L81156 51242
L81156 51313
L81142 51341
L81128 51355
L81100 51369
L81030 51369
L81002 51355
L80988 51341
" />
<path d="M65032 48269
L65032 47974
L65102 47974
L65144 47988
L65172 48016
L65186 48044
L65200 48100
L65200 48142
L65186 48199
L65172 48227
L65144 48255
L65102 48269
L65032 48269
" />
<path d="M65482 48269
L65313 48269
" />
<path d="M65397 48269
L65397 47974
L65369 48016
L65341 48044
L65313 48058
" />
<path d="M69650 57791
L69636 57805
L69594 57819
L69566 57819
L69524 57805
L69496 57777
L69482 57749
L69467 57692
L69467 57650
L69482 57594
L69496 57566
L69524 57538
L69566 57524
L69594 57524
L69636 57538
L69650 57552
" />
<path d="M69903 57524
L69847 57524
L69819 57538
L69805 57552
L69777 57594
L69763 57650
L69763 57763
L69777 57791
L69791 57805
L69819 57819
L69875 57819
L69903 57805
L69917 57791
L69932 57763
L69932 57692
L69917 57664
L69903 57650
L69875 57636
L69819 57636
L69791 57650
L69777 57664
L69763 57692
" />
<path d="M66582 58169
L66582 57874
L66652 57874
L66694 57888
L66722 57916
L66736 57944
L66750 58000
L66750 58042
L66736 58099
L66722 58127
L66694 58155
L66652 58169
L66582 58169
" />
<path d="M66863 57902
L66877 57888
L66905 57874
L66975 57874
L67003 57888
L67017 57902
L67032 57930
L67032 57958
L67017 58000
L66849 58169
L67032 58169
" />
<path d="M65550 52291
L65536 52305
L65494 52319
L65466 52319
L65424 52305
L65396 52277
L65382 52249
L65367 52192
L65367 52150
L65382 52094
L65396 52066
L65424 52038
L65466 52024
L65494 52024
L65536 52038
L65550 52052
" />
<path d="M65649 52024
L65846 52024
L65719 52319
" />
<path d="M68275 47669
L68177 47528
" />
<path d="M68107 47669
L68107 47374
L68219 47374
L68247 47388
L68261 47402
L68275 47430
L68275 47472
L68261 47500
L68247 47514
L68219 47528
L68107 47528
" />
<path d="M68528 47374
L68472 47374
L68444 47388
L68430 47402
L68402 47444
L68388 47500
L68388 47613
L68402 47641
L68416 47655
L68444 47669
L68500 47669
L68528 47655
L68542 47641
L68557 47613
L68557 47542
L68542 47514
L68528 47500
L68500 47486
L68444 47486
L68416 47500
L68402 47514
L68388 47542
" />
<path d="M69800 48624
L69828 48624
L69856 48638
L69870 48652
L69884 48680
L69898 48736
L69898 48807
L69884 48863
L69870 48891
L69856 48905
L69828 48919
L69800 48919
L69771 48905
L69757 48891
L69743 48863
L69729 48807
L69729 48736
L69743 48680
L69757 48652
L69771 48638
L69800 48624
" />
<path d="M70025 48891
L70039 48905
L70025 48919
L70010 48905
L70025 48891
L70025 48919
" />
<path d="M70151 48652
L70165 48638
L70193 48624
L70264 48624
L70292 48638
L70306 48652
L70320 48680
L70320 48708
L70306 48750
L70137 48919
L70320 48919
" />
<path d="M72291 58749
L72305 58763
L72319 58805
L72319 58833
L72305 58875
L72277 58903
L72249 58917
L72192 58932
L72150 58932
L72094 58917
L72066 58903
L72038 58875
L72024 58833
L72024 58805
L72038 58763
L72052 58749
" />
<path d="M72024 58650
L72024 58467
L72136 58566
L72136 58524
L72150 58496
L72164 58482
L72192 58467
L72263 58467
L72291 58482
L72305 58496
L72319 58524
L72319 58608
L72305 58636
L72291 58650
" />
<path d="M74591 45399
L74605 45413
L74619 45455
L74619 45483
L74605 45525
L74577 45553
L74549 45567
L74492 45582
L74450 45582
L74394 45567
L74366 45553
L74338 45525
L74324 45483
L74324 45455
L74338 45413
L74352 45399
" />
<path d="M74619 45117
L74619 45286
" />
<path d="M74619 45202
L74324 45202
L74366 45230
L74394 45258
L74408 45286
" />
<path d="M88141 55499
L88155 55513
L88169 55555
L88169 55583
L88155 55625
L88127 55653
L88099 55667
L88042 55682
L88000 55682
L87944 55667
L87916 55653
L87888 55625
L87874 55583
L87874 55555
L87888 55513
L87902 55499
" />
<path d="M87972 55246
L88169 55246
" />
<path d="M87860 55316
L88071 55386
L88071 55203
" />
<path d="M88141 51299
L88155 51313
L88169 51355
L88169 51383
L88155 51425
L88127 51453
L88099 51467
L88042 51482
L88000 51482
L87944 51467
L87916 51453
L87888 51425
L87874 51383
L87874 51355
L87888 51313
L87902 51299
" />
<path d="M87874 51032
L87874 51172
L88014 51186
L88000 51172
L87986 51144
L87986 51074
L88000 51046
L88014 51032
L88042 51017
L88113 51017
L88141 51032
L88155 51046
L88169 51074
L88169 51144
L88155 51172
L88141 51186
" />
<path d="M94860 50344
L94860 50049
L94959 50260
L95057 50049
L95057 50344
" />
<path d="M95198 50344
L95198 50049
" />
<path d="M95325 50330
L95367 50344
L95437 50344
L95465 50330
L95479 50316
L95493 50288
L95493 50260
L95479 50232
L95465 50217
L95437 50203
L95381 50189
L95353 50175
L95339 50161
L95325 50133
L95325 50105
L95339 50077
L95353 50063
L95381 50049
L95451 50049
L95493 50063
" />
<path d="M95676 50049
L95732 50049
L95760 50063
L95789 50091
L95803 50147
L95803 50246
L95789 50302
L95760 50330
L95732 50344
L95676 50344
L95648 50330
L95620 50302
L95606 50246
L95606 50147
L95620 50091
L95648 50063
L95676 50049
" />
<path d="M91958 52624
L92141 52624
L92043 52736
L92085 52736
L92113 52750
L92127 52764
L92141 52792
L92141 52863
L92127 52891
L92113 52905
L92085 52919
L92000 52919
L91972 52905
L91958 52891
" />
<path d="M92478 52610
L92225 52989
" />
<path d="M92732 52919
L92563 52919
" />
<path d="M92647 52919
L92647 52624
L92619 52666
L92591 52694
L92563 52708
" />
<path d="M92956 52764
L92999 52778
L93013 52792
L93027 52821
L93027 52863
L93013 52891
L92999 52905
L92971 52919
L92858 52919
L92858 52624
L92956 52624
L92985 52638
L92999 52652
L93013 52680
L93013 52708
L92999 52736
L92985 52750
L92956 52764
L92858 52764
" />
<path d="M93415 52652
L93429 52638
L93457 52624
L93528 52624
L93556 52638
L93570 52652
L93584 52680
L93584 52708
L93570 52750
L93401 52919
L93584 52919
" />
<path d="M94457 52919
L94289 52919
" />
<path d="M94373 52919
L94373 52624
L94345 52666
L94317 52694
L94289 52708
" />
<path d="M94570 52835
L94710 52835
" />
<path d="M94542 52919
L94640 52624
L94739 52919
" />
<path d="M95485 52574
L95514 52574
L95542 52588
L95556 52602
L95570 52630
L95584 52686
L95584 52757
L95570 52813
L95556 52841
L95542 52855
L95514 52869
L95485 52869
L95457 52855
L95443 52841
L95429 52813
L95415 52757
L95415 52686
L95429 52630
L95443 52602
L95457 52588
L95485 52574
" />
<path d="M94960 47069
L94960 46774
L95059 46985
L95157 46774
L95157 47069
" />
<path d="M95354 46774
L95410 46774
L95439 46788
L95467 46816
L95481 46872
L95481 46971
L95467 47027
L95439 47055
L95410 47069
L95354 47069
L95326 47055
L95298 47027
L95284 46971
L95284 46872
L95298 46816
L95326 46788
L95354 46774
" />
<path d="M95593 47055
L95635 47069
L95706 47069
L95734 47055
L95748 47041
L95762 47013
L95762 46985
L95748 46957
L95734 46942
L95706 46928
L95649 46914
L95621 46900
L95607 46886
L95593 46858
L95593 46830
L95607 46802
L95621 46788
L95649 46774
L95720 46774
L95762 46788
" />
<path d="M95889 47069
L95889 46774
" />
<path d="M91958 49374
L92141 49374
L92043 49486
L92085 49486
L92113 49500
L92127 49514
L92141 49542
L92141 49613
L92127 49641
L92113 49655
L92085 49669
L92000 49669
L91972 49655
L91958 49641
" />
<path d="M92478 49360
L92225 49739
" />
<path d="M92732 49669
L92563 49669
" />
<path d="M92647 49669
L92647 49374
L92619 49416
L92591 49444
L92563 49458
" />
<path d="M92956 49514
L92999 49528
L93013 49542
L93027 49571
L93027 49613
L93013 49641
L92999 49655
L92971 49669
L92858 49669
L92858 49374
L92956 49374
L92985 49388
L92999 49402
L93013 49430
L93013 49458
L92999 49486
L92985 49500
L92956 49514
L92858 49514
" />
<path d="M93415 49402
L93429 49388
L93457 49374
L93528 49374
L93556 49388
L93570 49402
L93584 49430
L93584 49458
L93570 49500
L93401 49669
L93584 49669
" />
<path d="M94457 49669
L94289 49669
" />
<path d="M94373 49669
L94373 49374
L94345 49416
L94317 49444
L94289 49458
" />
<path d="M94570 49585
L94710 49585
" />
<path d="M94542 49669
L94640 49374
L94739 49669
" />
<path d="M95485 49324
L95514 49324
L95542 49338
L95556 49352
L95570 49380
L95584 49436
L95584 49507
L95570 49563
L95556 49591
L95542 49605
L95514 49619
L95485 49619
L95457 49605
L95443 49591
L95429 49563
L95415 49507
L95415 49436
L95429 49380
L95443 49352
L95457 49338
L95485 49324
" />
<path d="M94925 53530
L94968 53544
L95038 53544
L95066 53530
L95080 53516
L95094 53488
L95094 53460
L95080 53432
L95066 53417
L95038 53403
L94982 53389
L94953 53375
L94939 53361
L94925 53333
L94925 53305
L94939 53277
L94953 53263
L94982 53249
L95052 53249
L95094 53263
" />
<path d="M95389 53516
L95375 53530
L95333 53544
L95305 53544
L95263 53530
L95235 53502
L95221 53474
L95207 53417
L95207 53375
L95221 53319
L95235 53291
L95263 53263
L95305 53249
L95333 53249
L95375 53263
L95389 53277
" />
<path d="M95657 53544
L95516 53544
L95516 53249
" />
<path d="M95755 53544
L95755 53249
" />
<path d="M95924 53544
L95797 53375
" />
<path d="M95924 53249
L95755 53417
" />
<path d="M91958 55874
L92141 55874
L92043 55986
L92085 55986
L92113 56000
L92127 56014
L92141 56042
L92141 56113
L92127 56141
L92113 56155
L92085 56169
L92000 56169
L91972 56155
L91958 56141
" />
<path d="M92478 55860
L92225 56239
" />
<path d="M92732 56169
L92563 56169
" />
<path d="M92647 56169
L92647 55874
L92619 55916
L92591 55944
L92563 55958
" />
<path d="M92956 56014
L92999 56028
L93013 56042
L93027 56071
L93027 56113
L93013 56141
L92999 56155
L92971 56169
L92858 56169
L92858 55874
L92956 55874
L92985 55888
L92999 55902
L93013 55930
L93013 55958
L92999 55986
L92985 56000
L92956 56014
L92858 56014
" />
<path d="M93415 55902
L93429 55888
L93457 55874
L93528 55874
L93556 55888
L93570 55902
L93584 55930
L93584 55958
L93570 56000
L93401 56169
L93584 56169
" />
<path d="M94457 56169
L94289 56169
" />
<path d="M94373 56169
L94373 55874
L94345 55916
L94317 55944
L94289 55958
" />
<path d="M94570 56085
L94710 56085
" />
<path d="M94542 56169
L94640 55874
L94739 56169
" />
<path d="M95485 55824
L95514 55824
L95542 55838
L95556 55852
L95570 55880
L95584 55936
L95584 56007
L95570 56063
L95556 56091
L95542 56105
L95514 56119
L95485 56119
L95457 56105
L95443 56091
L95429 56063
L95415 56007
L95415 55936
L95429 55880
L95443 55852
L95457 55838
L95485 55824
" />
<path d="M65319 55149
L65178 55247
" />
<path d="M65319 55317
L65024 55317
L65024 55205
L65038 55177
L65052 55163
L65080 55149
L65122 55149
L65150 55163
L65164 55177
L65178 55205
L65178 55317
" />
<path d="M65319 55008
L65319 54952
L65305 54924
L65291 54910
L65249 54882
L65192 54867
L65080 54867
L65052 54882
L65038 54896
L65024 54924
L65024 54980
L65038 55008
L65052 55022
L65080 55036
L65150 55036
L65178 55022
L65192 55008
L65207 54980
L65207 54924
L65192 54896
L65178 54882
L65150 54867
" />
<path d="M64569 53513
L64569 53682
" />
<path d="M64569 53597
L64274 53597
L64316 53625
L64344 53653
L64358 53682
" />
<path d="M64569 53386
L64274 53386
" />
<path d="M64569 53217
L64400 53344
" />
<path d="M64274 53217
L64442 53386
" />
<path d="M85150 47369
L85052 47228
" />
<path d="M84982 47369
L84982 47074
L85094 47074
L85122 47088
L85136 47102
L85150 47130
L85150 47172
L85136 47200
L85122 47214
L85094 47228
L84982 47228
" />
<path d="M85432 47369
L85263 47369
" />
<path d="M85347 47369
L85347 47074
L85319 47116
L85291 47144
L85263 47158
" />
<path d="M85570 47874
L85429 47874
L85415 48014
L85429 48000
L85457 47986
L85528 47986
L85556 48000
L85570 48014
L85584 48042
L85584 48113
L85570 48141
L85556 48155
L85528 48169
L85457 48169
L85429 48155
L85415 48141
" />
<path d="M87150 58519
L87052 58378
" />
<path d="M86982 58519
L86982 58224
L87094 58224
L87122 58238
L87136 58252
L87150 58280
L87150 58322
L87136 58350
L87122 58364
L87094 58378
L86982 58378
" />
<path d="M87263 58252
L87277 58238
L87305 58224
L87375 58224
L87403 58238
L87417 58252
L87432 58280
L87432 58308
L87417 58350
L87249 58519
L87432 58519
" />
<path d="M86267 57722
L86267 57919
" />
<path d="M86197 57610
L86127 57821
L86310 57821
" />
<path d="M86422 57919
L86422 57624
" />
<path d="M86591 57919
L86464 57750
" />
<path d="M86591 57624
L86422 57792
" />
<path d="M86689 57624
L86886 57624
L86760 57919
" />
<path d="M74569 46424
L74428 46522
" />
<path d="M74569 46592
L74274 46592
L74274 46480
L74288 46452
L74302 46438
L74330 46424
L74372 46424
L74400 46438
L74414 46452
L74428 46480
L74428 46592
" />
<path d="M74274 46325
L74274 46142
L74386 46241
L74386 46199
L74400 46171
L74414 46157
L74442 46142
L74513 46142
L74541 46157
L74555 46171
L74569 46199
L74569 46283
L74555 46311
L74541 46325
" />
<path d="M75169 47146
L75169 47315
" />
<path d="M75169 47231
L74874 47231
L74916 47259
L74944 47287
L74958 47315
" />
<path d="M74874 46964
L74874 46935
L74888 46907
L74902 46893
L74930 46879
L74986 46865
L75057 46865
L75113 46879
L75141 46893
L75155 46907
L75169 46935
L75169 46964
L75155 46992
L75141 47006
L75113 47020
L75057 47034
L74986 47034
L74930 47020
L74902 47006
L74888 46992
L74874 46964
" />
<path d="M74874 46682
L74874 46654
L74888 46626
L74902 46612
L74930 46598
L74986 46584
L75057 46584
L75113 46598
L75141 46612
L75155 46626
L75169 46654
L75169 46682
L75155 46710
L75141 46725
L75113 46739
L75057 46753
L74986 46753
L74930 46739
L74902 46725
L74888 46710
L74874 46682
" />
<path d="M66300 56969
L66202 56828
" />
<path d="M66132 56969
L66132 56674
L66244 56674
L66272 56688
L66286 56702
L66300 56730
L66300 56772
L66286 56800
L66272 56814
L66244 56828
L66132 56828
" />
<path d="M66399 56674
L66596 56674
L66469 56969
" />
<path d="M65885 56102
L65900 56088
L65928 56074
L65998 56074
L66026 56088
L66040 56102
L66054 56130
L66054 56158
L66040 56200
L65871 56369
L66054 56369
" />
<path d="M66181 56341
L66195 56355
L66181 56369
L66167 56355
L66181 56341
L66181 56369
" />
<path d="M66293 56074
L66490 56074
L66364 56369
" />
<path d="M66603 56369
L66603 56074
L66701 56285
L66799 56074
L66799 56369
" />
<path d="M69975 57019
L69877 56878
" />
<path d="M69807 57019
L69807 56724
L69919 56724
L69947 56738
L69961 56752
L69975 56780
L69975 56822
L69961 56850
L69947 56864
L69919 56878
L69807 56878
" />
<path d="M70242 56724
L70102 56724
L70088 56864
L70102 56850
L70130 56836
L70200 56836
L70228 56850
L70242 56864
L70257 56892
L70257 56963
L70242 56991
L70228 57005
L70200 57019
L70130 57019
L70102 57005
L70088 56991
" />
<path d="M69980 56269
L69811 56269
" />
<path d="M69896 56269
L69896 55974
L69868 56016
L69839 56044
L69811 56058
" />
<path d="M70247 55974
L70107 55974
L70092 56114
L70107 56100
L70135 56086
L70205 56086
L70233 56100
L70247 56114
L70261 56142
L70261 56213
L70247 56241
L70233 56255
L70205 56269
L70135 56269
L70107 56255
L70092 56241
" />
<path d="M70444 55974
L70472 55974
L70500 55988
L70514 56002
L70528 56030
L70542 56086
L70542 56157
L70528 56213
L70514 56241
L70500 56255
L70472 56269
L70444 56269
L70416 56255
L70402 56241
L70388 56213
L70374 56157
L70374 56086
L70388 56030
L70402 56002
L70416 55988
L70444 55974
" />
<path d="M70669 56269
L70669 55974
" />
<path d="M70838 56269
L70711 56100
" />
<path d="M70838 55974
L70669 56142
" />
<path d="M71869 54749
L71728 54847
" />
<path d="M71869 54917
L71574 54917
L71574 54805
L71588 54777
L71602 54763
L71630 54749
L71672 54749
L71700 54763
L71714 54777
L71728 54805
L71728 54917
" />
<path d="M71672 54496
L71869 54496
" />
<path d="M71560 54566
L71771 54636
L71771 54453
" />
<path d="M71072 53932
L71269 53932
" />
<path d="M70960 54002
L71171 54072
L71171 53889
" />
<path d="M71269 53777
L70974 53777
" />
<path d="M71269 53608
L71100 53735
" />
<path d="M70974 53608
L71142 53777
" />
<path d="M70974 53510
L70974 53313
L71269 53439
" />
<path d="M67696 51797
L67668 51783
L67640 51755
L67598 51713
L67570 51699
L67542 51699
" />
<path d="M67556 51769
L67528 51755
L67500 51727
L67485 51671
L67485 51572
L67500 51516
L67528 51488
L67556 51474
L67612 51474
L67640 51488
L67668 51516
L67682 51572
L67682 51671
L67668 51727
L67640 51755
L67612 51769
L67556 51769
" />
<path d="M67964 51769
L67795 51769
" />
<path d="M67879 51769
L67879 51474
L67851 51516
L67823 51544
L67795 51558
" />
<path d="M71690 51305
L71732 51319
L71803 51319
L71831 51305
L71845 51291
L71859 51263
L71859 51235
L71845 51207
L71831 51192
L71803 51178
L71746 51164
L71718 51150
L71704 51136
L71690 51108
L71690 51080
L71704 51052
L71718 51038
L71746 51024
L71817 51024
L71859 51038
" />
<path d="M69447 51369
L69447 51074
L69517 51074
L69560 51088
L69588 51116
L69602 51144
L69616 51200
L69616 51242
L69602 51299
L69588 51327
L69560 51355
L69517 51369
L69447 51369
" />
<path d="M68452 51038
L68424 51024
L68382 51024
L68339 51038
L68311 51066
L68297 51094
L68283 51150
L68283 51192
L68297 51249
L68311 51277
L68339 51305
L68382 51319
L68410 51319
L68452 51305
L68466 51291
L68466 51192
L68410 51192
" />
<path d="M72901 47074
L72901 47285
L72887 47327
L72859 47355
L72817 47369
L72789 47369
" />
<path d="M73196 47369
L73028 47369
" />
<path d="M73112 47369
L73112 47074
L73084 47116
L73056 47144
L73028 47158
" />
<path d="M73901 47074
L73901 47285
L73887 47327
L73859 47355
L73817 47369
L73789 47369
" />
<path d="M74014 47074
L74196 47074
L74098 47186
L74140 47186
L74168 47200
L74182 47214
L74196 47242
L74196 47313
L74182 47341
L74168 47355
L74140 47369
L74056 47369
L74028 47355
L74014 47341
" />
<path d="M89901 47074
L89901 47285
L89887 47327
L89859 47355
L89817 47369
L89789 47369
" />
<path d="M90168 47172
L90168 47369
" />
<path d="M90098 47060
L90028 47271
L90210 47271
" />
<path d="M90901 47074
L90901 47285
L90887 47327
L90859 47355
L90817 47369
L90789 47369
" />
<path d="M91028 47102
L91042 47088
L91070 47074
L91140 47074
L91168 47088
L91182 47102
L91196 47130
L91196 47158
L91182 47200
L91014 47369
L91196 47369
" />
<path d="M84182 58719
L84182 58424
L84294 58424
L84322 58438
L84336 58452
L84350 58480
L84350 58522
L84336 58550
L84322 58564
L84294 58578
L84182 58578
" />
<path d="M84463 58452
L84477 58438
L84505 58424
L84575 58424
L84603 58438
L84617 58452
L84632 58480
L84632 58508
L84617 58550
L84449 58719
L84632 58719
" />
<path d="M80275 58788
L80246 58774
L80204 58774
L80162 58788
L80134 58816
L80120 58844
L80106 58900
L80106 58942
L80120 58999
L80134 59027
L80162 59055
L80204 59069
L80232 59069
L80275 59055
L80289 59041
L80289 58942
L80232 58942
" />
<path d="M80415 59069
L80415 58774
L80584 59069
L80584 58774
" />
<path d="M80724 59069
L80724 58774
L80795 58774
L80837 58788
L80865 58816
L80879 58844
L80893 58900
L80893 58942
L80879 58999
L80865 59027
L80837 59055
L80795 59069
L80724 59069
" />
<path d="M81338 59069
L81239 58928
" />
<path d="M81169 59069
L81169 58774
L81282 58774
L81310 58788
L81324 58802
L81338 58830
L81338 58872
L81324 58900
L81310 58914
L81282 58928
L81169 58928
" />
<path d="M81450 59055
L81492 59069
L81563 59069
L81591 59055
L81605 59041
L81619 59013
L81619 58985
L81605 58957
L81591 58942
L81563 58928
L81507 58914
L81478 58900
L81464 58886
L81450 58858
L81450 58830
L81464 58802
L81478 58788
L81507 58774
L81577 58774
L81619 58788
" />
<path d="M81703 58774
L81872 58774
" />
<path d="M81788 59069
L81788 58774
" />
<path d="M82262 58774
L82431 58774
" />
<path d="M82346 59069
L82346 58774
" />
<path d="M82515 59055
L82557 59069
L82628 59069
L82656 59055
L82670 59041
L82684 59013
L82684 58985
L82670 58957
L82656 58942
L82628 58928
L82571 58914
L82543 58900
L82529 58886
L82515 58858
L82515 58830
L82529 58802
L82543 58788
L82571 58774
L82642 58774
L82684 58788
" />
<path d="M82768 58774
L82937 58774
" />
<path d="M82853 59069
L82853 58774
" />
<path d="M83310 58957
L83535 58957
" />
<path d="M83423 59069
L83423 58844
" />
<path d="M83634 58774
L83732 59069
L83831 58774
" />
<path d="M87682 46619
L87682 46324
L87794 46324
L87822 46338
L87836 46352
L87850 46380
L87850 46422
L87836 46450
L87822 46464
L87794 46478
L87682 46478
" />
<path d="M88132 46619
L87963 46619
" />
<path d="M88047 46619
L88047 46324
L88019 46366
L87991 46394
L87963 46408
" />
<path d="M91200 46019
L91102 45878
" />
<path d="M91032 46019
L91032 45724
L91144 45724
L91172 45738
L91186 45752
L91200 45780
L91200 45822
L91186 45850
L91172 45864
L91144 45878
L91032 45878
" />
<path d="M91369 45850
L91341 45836
L91327 45822
L91313 45794
L91313 45780
L91327 45752
L91341 45738
L91369 45724
L91425 45724
L91453 45738
L91467 45752
L91482 45780
L91482 45794
L91467 45822
L91453 45836
L91425 45850
L91369 45850
L91341 45864
L91327 45878
L91313 45907
L91313 45963
L91327 45991
L91341 46005
L91369 46019
L91425 46019
L91453 46005
L91467 45991
L91482 45963
L91482 45907
L91467 45878
L91453 45864
L91425 45850
" />
<path d="M92617 46472
L92617 46669
" />
<path d="M92547 46360
L92477 46571
L92660 46571
" />
<path d="M92744 46374
L92941 46374
L92814 46669
" />
<path d="M93053 46669
L93053 46374
" />
<path d="M93222 46669
L93096 46500
" />
<path d="M93222 46374
L93053 46542
" />
<path d="M67900 44916
L67886 44930
L67844 44944
L67816 44944
L67774 44930
L67746 44902
L67732 44874
L67717 44817
L67717 44775
L67732 44719
L67746 44691
L67774 44663
L67816 44649
L67844 44649
L67886 44663
L67900 44677
" />
<path d="M68041 44944
L68097 44944
L68125 44930
L68139 44916
L68167 44874
L68182 44817
L68182 44705
L68167 44677
L68153 44663
L68125 44649
L68069 44649
L68041 44663
L68027 44677
L68013 44705
L68013 44775
L68027 44803
L68041 44817
L68069 44832
L68125 44832
L68153 44817
L68167 44803
L68182 44775
" />
<path d="M65758 46100
L65730 46086
L65716 46072
L65702 46044
L65702 46030
L65716 46002
L65730 45988
L65758 45974
L65814 45974
L65843 45988
L65857 46002
L65871 46030
L65871 46044
L65857 46072
L65843 46086
L65814 46100
L65758 46100
L65730 46114
L65716 46128
L65702 46157
L65702 46213
L65716 46241
L65730 46255
L65758 46269
L65814 46269
L65843 46255
L65857 46241
L65871 46213
L65871 46157
L65857 46128
L65843 46114
L65814 46100
" />
<path d="M65983 46002
L65997 45988
L66025 45974
L66096 45974
L66124 45988
L66138 46002
L66152 46030
L66152 46058
L66138 46100
L65969 46269
L66152 46269
" />
<path d="M66630 46072
L66630 46269
" />
<path d="M66503 46072
L66503 46227
L66517 46255
L66546 46269
L66588 46269
L66616 46255
L66630 46241
" />
<path d="M66869 46114
L66771 46114
" />
<path d="M66771 46269
L66771 45974
L66911 45974
" />
<path d="M66307 44887
L66307 44662
" />
<path d="M66419 44774
L66194 44774
" />
<path d="M71700 44741
L71686 44755
L71644 44769
L71616 44769
L71574 44755
L71546 44727
L71532 44699
L71517 44642
L71517 44600
L71532 44544
L71546 44516
L71574 44488
L71616 44474
L71644 44474
L71686 44488
L71700 44502
" />
<path d="M71813 44502
L71827 44488
L71855 44474
L71925 44474
L71953 44488
L71967 44502
L71982 44530
L71982 44558
L71967 44600
L71799 44769
L71982 44769
" />
<path d="M69172 45174
L69355 45174
L69257 45286
L69299 45286
L69327 45300
L69341 45314
L69355 45342
L69355 45413
L69341 45441
L69327 45455
L69299 45469
L69214 45469
L69186 45455
L69172 45441
" />
<path d="M69453 45174
L69636 45174
L69538 45286
L69580 45286
L69608 45300
L69622 45314
L69636 45342
L69636 45413
L69622 45441
L69608 45455
L69580 45469
L69496 45469
L69468 45455
L69453 45441
" />
<path d="M69819 45174
L69847 45174
L69875 45188
L69889 45202
L69903 45230
L69917 45286
L69917 45357
L69903 45413
L69889 45441
L69875 45455
L69847 45469
L69819 45469
L69791 45455
L69777 45441
L69763 45413
L69749 45357
L69749 45286
L69763 45230
L69777 45202
L69791 45188
L69819 45174
" />
<path d="M70396 45272
L70396 45469
" />
<path d="M70269 45272
L70269 45427
L70283 45455
L70311 45469
L70353 45469
L70381 45455
L70396 45441
" />
<path d="M70635 45314
L70536 45314
" />
<path d="M70536 45469
L70536 45174
L70677 45174
" />
<path d="M71187 46007
L71412 46007
" />
<path d="M71300 46119
L71300 45894
" />
<path d="M67525 48244
L67385 48244
L67385 47949
" />
<path d="M67778 48244
L67610 48244
" />
<path d="M67694 48244
L67694 47949
L67666 47991
L67638 48019
L67610 48033
" />
<path d="M65824 49477
L65838 49463
L65866 49449
L65936 49449
L65964 49463
L65978 49477
L65993 49505
L65993 49533
L65978 49575
L65810 49744
L65993 49744
" />
<path d="M66105 49477
L66119 49463
L66147 49449
L66217 49449
L66246 49463
L66260 49477
L66274 49505
L66274 49533
L66260 49575
L66091 49744
L66274 49744
" />
<path d="M66752 49547
L66752 49744
" />
<path d="M66625 49547
L66625 49702
L66639 49730
L66667 49744
L66710 49744
L66738 49730
L66752 49716
" />
<path d="M66892 49744
L66892 49449
" />
<path d="M66892 49589
L67061 49589
" />
<path d="M67061 49744
L67061 49449
" />
<path d="M79824 47324
L80063 47324
L80091 47310
L80105 47296
L80119 47268
L80119 47212
L80105 47184
L80091 47170
L80063 47156
L79824 47156
" />
<path d="M79824 46875
L79824 47015
L79964 47029
L79950 47015
L79936 46987
L79936 46917
L79950 46889
L79964 46875
L79992 46860
L80063 46860
L80091 46875
L80105 46889
L80119 46917
L80119 46987
L80105 47015
L80091 47029
" />
<path d="M77120 47022
L77120 47219
" />
<path d="M77050 46910
L76979 47121
L77162 47121
" />
<path d="M77275 47219
L77275 46924
L77443 47219
L77443 46924
" />
<path d="M77570 46952
L77584 46938
L77612 46924
L77682 46924
L77710 46938
L77724 46952
L77739 46980
L77739 47008
L77724 47050
L77556 47219
L77739 47219
" />
<path d="M77992 46924
L77935 46924
L77907 46938
L77893 46952
L77865 46994
L77851 47050
L77851 47163
L77865 47191
L77879 47205
L77907 47219
L77964 47219
L77992 47205
L78006 47191
L78020 47163
L78020 47092
L78006 47064
L77992 47050
L77964 47036
L77907 47036
L77879 47050
L77865 47064
L77851 47092
" />
</g> 
</svg>
