G04 (created by PCBNEW (2012-nov-02)-testing) date Wed 09 Jan 2013 11:48:40 PM PST*
%MOIN*%
G04 Gerber Fmt 3.4, Leading zero omitted, Abs format*
%FSLAX34Y34*%
G01*
G70*
G90*
G04 APERTURE LIST*
%ADD10C,0.0137795*%
%ADD11C,0.00738189*%
%ADD12C,0.0059*%
%ADD13C,0.012*%
%ADD14C,0.01*%
%ADD15C,0.015*%
%ADD16C,0.008*%
G04 APERTURE END LIST*
G54D10*
X4000Y-4000D02*
X161350Y-4000D01*
X161350Y-112930D01*
X4000Y-112930D01*
X4000Y-4000D01*
X4700Y-4700D02*
X160650Y-4700D01*
X160650Y-112230D01*
X4700Y-112230D01*
X4700Y-4700D01*
X26470Y-4000D02*
X26470Y-4700D01*
X15382Y-4552D02*
X15097Y-4552D01*
X15240Y-4552D02*
X15240Y-4052D01*
X15192Y-4123D01*
X15144Y-4171D01*
X15097Y-4195D01*
X26470Y-112930D02*
X26470Y-112230D01*
X15382Y-112782D02*
X15097Y-112782D01*
X15240Y-112782D02*
X15240Y-112282D01*
X15192Y-112353D01*
X15144Y-112401D01*
X15097Y-112425D01*
X48940Y-4000D02*
X48940Y-4700D01*
X37567Y-4100D02*
X37590Y-4076D01*
X37638Y-4052D01*
X37757Y-4052D01*
X37805Y-4076D01*
X37829Y-4100D01*
X37852Y-4147D01*
X37852Y-4195D01*
X37829Y-4266D01*
X37543Y-4552D01*
X37852Y-4552D01*
X48940Y-112930D02*
X48940Y-112230D01*
X37567Y-112330D02*
X37590Y-112306D01*
X37638Y-112282D01*
X37757Y-112282D01*
X37805Y-112306D01*
X37829Y-112330D01*
X37852Y-112377D01*
X37852Y-112425D01*
X37829Y-112496D01*
X37543Y-112782D01*
X37852Y-112782D01*
X71410Y-4000D02*
X71410Y-4700D01*
X60013Y-4052D02*
X60322Y-4052D01*
X60156Y-4242D01*
X60227Y-4242D01*
X60275Y-4266D01*
X60299Y-4290D01*
X60322Y-4338D01*
X60322Y-4457D01*
X60299Y-4504D01*
X60275Y-4528D01*
X60227Y-4552D01*
X60084Y-4552D01*
X60037Y-4528D01*
X60013Y-4504D01*
X71410Y-112930D02*
X71410Y-112230D01*
X60013Y-112282D02*
X60322Y-112282D01*
X60156Y-112472D01*
X60227Y-112472D01*
X60275Y-112496D01*
X60299Y-112520D01*
X60322Y-112568D01*
X60322Y-112687D01*
X60299Y-112734D01*
X60275Y-112758D01*
X60227Y-112782D01*
X60084Y-112782D01*
X60037Y-112758D01*
X60013Y-112734D01*
X93880Y-4000D02*
X93880Y-4700D01*
X82745Y-4219D02*
X82745Y-4552D01*
X82626Y-4028D02*
X82507Y-4385D01*
X82816Y-4385D01*
X93880Y-112930D02*
X93880Y-112230D01*
X82745Y-112449D02*
X82745Y-112782D01*
X82626Y-112258D02*
X82507Y-112615D01*
X82816Y-112615D01*
X116350Y-4000D02*
X116350Y-4700D01*
X105239Y-4052D02*
X105000Y-4052D01*
X104977Y-4290D01*
X105000Y-4266D01*
X105048Y-4242D01*
X105167Y-4242D01*
X105215Y-4266D01*
X105239Y-4290D01*
X105262Y-4338D01*
X105262Y-4457D01*
X105239Y-4504D01*
X105215Y-4528D01*
X105167Y-4552D01*
X105048Y-4552D01*
X105000Y-4528D01*
X104977Y-4504D01*
X116350Y-112930D02*
X116350Y-112230D01*
X105239Y-112282D02*
X105000Y-112282D01*
X104977Y-112520D01*
X105000Y-112496D01*
X105048Y-112472D01*
X105167Y-112472D01*
X105215Y-112496D01*
X105239Y-112520D01*
X105262Y-112568D01*
X105262Y-112687D01*
X105239Y-112734D01*
X105215Y-112758D01*
X105167Y-112782D01*
X105048Y-112782D01*
X105000Y-112758D01*
X104977Y-112734D01*
X138820Y-4000D02*
X138820Y-4700D01*
X127685Y-4052D02*
X127590Y-4052D01*
X127542Y-4076D01*
X127518Y-4100D01*
X127470Y-4171D01*
X127447Y-4266D01*
X127447Y-4457D01*
X127470Y-4504D01*
X127494Y-4528D01*
X127542Y-4552D01*
X127637Y-4552D01*
X127685Y-4528D01*
X127709Y-4504D01*
X127732Y-4457D01*
X127732Y-4338D01*
X127709Y-4290D01*
X127685Y-4266D01*
X127637Y-4242D01*
X127542Y-4242D01*
X127494Y-4266D01*
X127470Y-4290D01*
X127447Y-4338D01*
X138820Y-112930D02*
X138820Y-112230D01*
X127685Y-112282D02*
X127590Y-112282D01*
X127542Y-112306D01*
X127518Y-112330D01*
X127470Y-112401D01*
X127447Y-112496D01*
X127447Y-112687D01*
X127470Y-112734D01*
X127494Y-112758D01*
X127542Y-112782D01*
X127637Y-112782D01*
X127685Y-112758D01*
X127709Y-112734D01*
X127732Y-112687D01*
X127732Y-112568D01*
X127709Y-112520D01*
X127685Y-112496D01*
X127637Y-112472D01*
X127542Y-112472D01*
X127494Y-112496D01*
X127470Y-112520D01*
X127447Y-112568D01*
X149893Y-4052D02*
X150226Y-4052D01*
X150012Y-4552D01*
X149893Y-112282D02*
X150226Y-112282D01*
X150012Y-112782D01*
X4000Y-25780D02*
X4700Y-25780D01*
X4230Y-14949D02*
X4469Y-14949D01*
X4183Y-15092D02*
X4350Y-14592D01*
X4516Y-15092D01*
X161350Y-25780D02*
X160650Y-25780D01*
X160880Y-14949D02*
X161119Y-14949D01*
X160833Y-15092D02*
X161000Y-14592D01*
X161166Y-15092D01*
X4000Y-47560D02*
X4700Y-47560D01*
X4385Y-36610D02*
X4457Y-36634D01*
X4480Y-36658D01*
X4504Y-36705D01*
X4504Y-36777D01*
X4480Y-36824D01*
X4457Y-36848D01*
X4409Y-36872D01*
X4219Y-36872D01*
X4219Y-36372D01*
X4385Y-36372D01*
X4433Y-36396D01*
X4457Y-36420D01*
X4480Y-36467D01*
X4480Y-36515D01*
X4457Y-36562D01*
X4433Y-36586D01*
X4385Y-36610D01*
X4219Y-36610D01*
X161350Y-47560D02*
X160650Y-47560D01*
X161035Y-36610D02*
X161107Y-36634D01*
X161130Y-36658D01*
X161154Y-36705D01*
X161154Y-36777D01*
X161130Y-36824D01*
X161107Y-36848D01*
X161059Y-36872D01*
X160869Y-36872D01*
X160869Y-36372D01*
X161035Y-36372D01*
X161083Y-36396D01*
X161107Y-36420D01*
X161130Y-36467D01*
X161130Y-36515D01*
X161107Y-36562D01*
X161083Y-36586D01*
X161035Y-36610D01*
X160869Y-36610D01*
X4000Y-69340D02*
X4700Y-69340D01*
X4504Y-58604D02*
X4480Y-58628D01*
X4409Y-58652D01*
X4361Y-58652D01*
X4290Y-58628D01*
X4242Y-58580D01*
X4219Y-58533D01*
X4195Y-58438D01*
X4195Y-58366D01*
X4219Y-58271D01*
X4242Y-58223D01*
X4290Y-58176D01*
X4361Y-58152D01*
X4409Y-58152D01*
X4480Y-58176D01*
X4504Y-58200D01*
X161350Y-69340D02*
X160650Y-69340D01*
X161154Y-58604D02*
X161130Y-58628D01*
X161059Y-58652D01*
X161011Y-58652D01*
X160940Y-58628D01*
X160892Y-58580D01*
X160869Y-58533D01*
X160845Y-58438D01*
X160845Y-58366D01*
X160869Y-58271D01*
X160892Y-58223D01*
X160940Y-58176D01*
X161011Y-58152D01*
X161059Y-58152D01*
X161130Y-58176D01*
X161154Y-58200D01*
X4000Y-91120D02*
X4700Y-91120D01*
X4219Y-80432D02*
X4219Y-79932D01*
X4338Y-79932D01*
X4409Y-79956D01*
X4457Y-80003D01*
X4480Y-80051D01*
X4504Y-80146D01*
X4504Y-80218D01*
X4480Y-80313D01*
X4457Y-80360D01*
X4409Y-80408D01*
X4338Y-80432D01*
X4219Y-80432D01*
X161350Y-91120D02*
X160650Y-91120D01*
X160869Y-80432D02*
X160869Y-79932D01*
X160988Y-79932D01*
X161059Y-79956D01*
X161107Y-80003D01*
X161130Y-80051D01*
X161154Y-80146D01*
X161154Y-80218D01*
X161130Y-80313D01*
X161107Y-80360D01*
X161059Y-80408D01*
X160988Y-80432D01*
X160869Y-80432D01*
X4242Y-101950D02*
X4409Y-101950D01*
X4480Y-102212D02*
X4242Y-102212D01*
X4242Y-101712D01*
X4480Y-101712D01*
X160892Y-101950D02*
X161059Y-101950D01*
X161130Y-102212D02*
X160892Y-102212D01*
X160892Y-101712D01*
X161130Y-101712D01*
X127800Y-110672D02*
X127875Y-110072D01*
X128017Y-110072D01*
X128100Y-110101D01*
X128150Y-110158D01*
X128171Y-110215D01*
X128185Y-110330D01*
X128175Y-110415D01*
X128132Y-110530D01*
X128096Y-110587D01*
X128032Y-110644D01*
X127942Y-110672D01*
X127800Y-110672D01*
X128657Y-110672D02*
X128696Y-110358D01*
X128675Y-110301D01*
X128621Y-110272D01*
X128507Y-110272D01*
X128446Y-110301D01*
X128660Y-110644D02*
X128600Y-110672D01*
X128457Y-110672D01*
X128403Y-110644D01*
X128382Y-110587D01*
X128389Y-110530D01*
X128425Y-110472D01*
X128485Y-110444D01*
X128628Y-110444D01*
X128689Y-110415D01*
X128907Y-110272D02*
X129135Y-110272D01*
X129017Y-110072D02*
X128953Y-110587D01*
X128975Y-110644D01*
X129028Y-110672D01*
X129085Y-110672D01*
X129517Y-110644D02*
X129457Y-110672D01*
X129342Y-110672D01*
X129289Y-110644D01*
X129267Y-110587D01*
X129296Y-110358D01*
X129332Y-110301D01*
X129392Y-110272D01*
X129507Y-110272D01*
X129560Y-110301D01*
X129582Y-110358D01*
X129575Y-110415D01*
X129282Y-110472D01*
X129807Y-110615D02*
X129832Y-110644D01*
X129800Y-110672D01*
X129775Y-110644D01*
X129807Y-110615D01*
X129800Y-110672D01*
X129846Y-110301D02*
X129871Y-110330D01*
X129839Y-110358D01*
X129814Y-110330D01*
X129846Y-110301D01*
X129839Y-110358D01*
X130857Y-110672D02*
X130514Y-110672D01*
X130685Y-110672D02*
X130760Y-110072D01*
X130692Y-110158D01*
X130628Y-110215D01*
X130567Y-110244D01*
X131303Y-110072D02*
X131360Y-110072D01*
X131414Y-110101D01*
X131439Y-110130D01*
X131460Y-110187D01*
X131475Y-110301D01*
X131457Y-110444D01*
X131414Y-110558D01*
X131378Y-110615D01*
X131346Y-110644D01*
X131285Y-110672D01*
X131228Y-110672D01*
X131175Y-110644D01*
X131150Y-110615D01*
X131128Y-110558D01*
X131114Y-110444D01*
X131132Y-110301D01*
X131175Y-110187D01*
X131210Y-110130D01*
X131242Y-110101D01*
X131303Y-110072D01*
X132192Y-110272D02*
X132128Y-110787D01*
X132092Y-110844D01*
X132032Y-110872D01*
X132003Y-110872D01*
X132217Y-110072D02*
X132185Y-110101D01*
X132210Y-110130D01*
X132242Y-110101D01*
X132217Y-110072D01*
X132210Y-110130D01*
X132685Y-110672D02*
X132725Y-110358D01*
X132703Y-110301D01*
X132650Y-110272D01*
X132535Y-110272D01*
X132475Y-110301D01*
X132689Y-110644D02*
X132628Y-110672D01*
X132485Y-110672D01*
X132432Y-110644D01*
X132410Y-110587D01*
X132417Y-110530D01*
X132453Y-110472D01*
X132514Y-110444D01*
X132657Y-110444D01*
X132717Y-110415D01*
X133021Y-110272D02*
X132971Y-110672D01*
X133014Y-110330D02*
X133046Y-110301D01*
X133107Y-110272D01*
X133192Y-110272D01*
X133246Y-110301D01*
X133267Y-110358D01*
X133228Y-110672D01*
X134010Y-110130D02*
X134042Y-110101D01*
X134103Y-110072D01*
X134246Y-110072D01*
X134300Y-110101D01*
X134325Y-110130D01*
X134346Y-110187D01*
X134339Y-110244D01*
X134300Y-110330D01*
X133914Y-110672D01*
X134285Y-110672D01*
X134732Y-110072D02*
X134789Y-110072D01*
X134842Y-110101D01*
X134867Y-110130D01*
X134889Y-110187D01*
X134903Y-110301D01*
X134885Y-110444D01*
X134842Y-110558D01*
X134807Y-110615D01*
X134775Y-110644D01*
X134714Y-110672D01*
X134657Y-110672D01*
X134603Y-110644D01*
X134578Y-110615D01*
X134557Y-110558D01*
X134542Y-110444D01*
X134560Y-110301D01*
X134603Y-110187D01*
X134639Y-110130D01*
X134671Y-110101D01*
X134732Y-110072D01*
X135428Y-110672D02*
X135085Y-110672D01*
X135257Y-110672D02*
X135332Y-110072D01*
X135264Y-110158D01*
X135200Y-110215D01*
X135139Y-110244D01*
X135703Y-110072D02*
X136075Y-110072D01*
X135846Y-110301D01*
X135932Y-110301D01*
X135985Y-110330D01*
X136010Y-110358D01*
X136032Y-110415D01*
X136014Y-110558D01*
X135978Y-110615D01*
X135946Y-110644D01*
X135885Y-110672D01*
X135714Y-110672D01*
X135660Y-110644D01*
X135635Y-110615D01*
X119392Y-111872D02*
X119392Y-111272D01*
X119735Y-111872D02*
X119478Y-111530D01*
X119735Y-111272D02*
X119392Y-111615D01*
X119992Y-111872D02*
X119992Y-111472D01*
X119992Y-111272D02*
X119964Y-111301D01*
X119992Y-111330D01*
X120021Y-111301D01*
X119992Y-111272D01*
X119992Y-111330D01*
X120621Y-111815D02*
X120592Y-111844D01*
X120507Y-111872D01*
X120450Y-111872D01*
X120364Y-111844D01*
X120307Y-111787D01*
X120278Y-111730D01*
X120250Y-111615D01*
X120250Y-111530D01*
X120278Y-111415D01*
X120307Y-111358D01*
X120364Y-111301D01*
X120450Y-111272D01*
X120507Y-111272D01*
X120592Y-111301D01*
X120621Y-111330D01*
X121135Y-111872D02*
X121135Y-111558D01*
X121107Y-111501D01*
X121050Y-111472D01*
X120935Y-111472D01*
X120878Y-111501D01*
X121135Y-111844D02*
X121078Y-111872D01*
X120935Y-111872D01*
X120878Y-111844D01*
X120850Y-111787D01*
X120850Y-111730D01*
X120878Y-111672D01*
X120935Y-111644D01*
X121078Y-111644D01*
X121135Y-111615D01*
X121678Y-111872D02*
X121678Y-111272D01*
X121678Y-111844D02*
X121621Y-111872D01*
X121507Y-111872D01*
X121450Y-111844D01*
X121421Y-111815D01*
X121392Y-111758D01*
X121392Y-111587D01*
X121421Y-111530D01*
X121450Y-111501D01*
X121507Y-111472D01*
X121621Y-111472D01*
X121678Y-111501D01*
X122421Y-111558D02*
X122621Y-111558D01*
X122707Y-111872D02*
X122421Y-111872D01*
X122421Y-111272D01*
X122707Y-111272D01*
X122964Y-111815D02*
X122992Y-111844D01*
X122964Y-111872D01*
X122935Y-111844D01*
X122964Y-111815D01*
X122964Y-111872D01*
X123249Y-111872D02*
X123249Y-111272D01*
X123392Y-111272D01*
X123478Y-111301D01*
X123535Y-111358D01*
X123564Y-111415D01*
X123592Y-111530D01*
X123592Y-111615D01*
X123564Y-111730D01*
X123535Y-111787D01*
X123478Y-111844D01*
X123392Y-111872D01*
X123249Y-111872D01*
X123849Y-111815D02*
X123878Y-111844D01*
X123849Y-111872D01*
X123821Y-111844D01*
X123849Y-111815D01*
X123849Y-111872D01*
X124107Y-111701D02*
X124392Y-111701D01*
X124049Y-111872D02*
X124249Y-111272D01*
X124449Y-111872D01*
X124649Y-111815D02*
X124678Y-111844D01*
X124649Y-111872D01*
X124621Y-111844D01*
X124649Y-111815D01*
X124649Y-111872D01*
X152942Y-110672D02*
X152778Y-110387D01*
X152600Y-110672D02*
X152675Y-110072D01*
X152903Y-110072D01*
X152957Y-110101D01*
X152982Y-110130D01*
X153003Y-110187D01*
X152992Y-110272D01*
X152957Y-110330D01*
X152925Y-110358D01*
X152864Y-110387D01*
X152635Y-110387D01*
X153432Y-110644D02*
X153371Y-110672D01*
X153257Y-110672D01*
X153203Y-110644D01*
X153182Y-110587D01*
X153210Y-110358D01*
X153246Y-110301D01*
X153307Y-110272D01*
X153421Y-110272D01*
X153475Y-110301D01*
X153496Y-110358D01*
X153489Y-110415D01*
X153196Y-110472D01*
X153707Y-110272D02*
X153800Y-110672D01*
X153992Y-110272D01*
X154178Y-110615D02*
X154203Y-110644D01*
X154171Y-110672D01*
X154146Y-110644D01*
X154178Y-110615D01*
X154171Y-110672D01*
X154217Y-110301D02*
X154242Y-110330D01*
X154210Y-110358D01*
X154185Y-110330D01*
X154217Y-110301D01*
X154210Y-110358D01*
X119364Y-110644D02*
X119450Y-110672D01*
X119592Y-110672D01*
X119650Y-110644D01*
X119678Y-110615D01*
X119707Y-110558D01*
X119707Y-110501D01*
X119678Y-110444D01*
X119650Y-110415D01*
X119592Y-110387D01*
X119478Y-110358D01*
X119421Y-110330D01*
X119392Y-110301D01*
X119364Y-110244D01*
X119364Y-110187D01*
X119392Y-110130D01*
X119421Y-110101D01*
X119478Y-110072D01*
X119621Y-110072D01*
X119707Y-110101D01*
X119964Y-110672D02*
X119964Y-110272D01*
X119964Y-110072D02*
X119935Y-110101D01*
X119964Y-110130D01*
X119992Y-110101D01*
X119964Y-110072D01*
X119964Y-110130D01*
X120192Y-110272D02*
X120507Y-110272D01*
X120192Y-110672D01*
X120507Y-110672D01*
X120964Y-110644D02*
X120907Y-110672D01*
X120792Y-110672D01*
X120735Y-110644D01*
X120707Y-110587D01*
X120707Y-110358D01*
X120735Y-110301D01*
X120792Y-110272D01*
X120907Y-110272D01*
X120964Y-110301D01*
X120992Y-110358D01*
X120992Y-110415D01*
X120707Y-110472D01*
X121250Y-110615D02*
X121278Y-110644D01*
X121250Y-110672D01*
X121221Y-110644D01*
X121250Y-110615D01*
X121250Y-110672D01*
X121250Y-110301D02*
X121278Y-110330D01*
X121250Y-110358D01*
X121221Y-110330D01*
X121250Y-110301D01*
X121250Y-110358D01*
X121964Y-110501D02*
X122250Y-110501D01*
X121907Y-110672D02*
X122107Y-110072D01*
X122307Y-110672D01*
X122450Y-110072D02*
X122821Y-110072D01*
X122621Y-110301D01*
X122707Y-110301D01*
X122764Y-110330D01*
X122792Y-110358D01*
X122821Y-110415D01*
X122821Y-110558D01*
X122792Y-110615D01*
X122764Y-110644D01*
X122707Y-110672D01*
X122535Y-110672D01*
X122478Y-110644D01*
X122450Y-110615D01*
X152592Y-111872D02*
X152592Y-111272D01*
X153135Y-111872D02*
X153135Y-111272D01*
X153135Y-111844D02*
X153078Y-111872D01*
X152964Y-111872D01*
X152907Y-111844D01*
X152878Y-111815D01*
X152850Y-111758D01*
X152850Y-111587D01*
X152878Y-111530D01*
X152907Y-111501D01*
X152964Y-111472D01*
X153078Y-111472D01*
X153135Y-111501D01*
X153421Y-111815D02*
X153450Y-111844D01*
X153421Y-111872D01*
X153392Y-111844D01*
X153421Y-111815D01*
X153421Y-111872D01*
X153421Y-111501D02*
X153450Y-111530D01*
X153421Y-111558D01*
X153392Y-111530D01*
X153421Y-111501D01*
X153421Y-111558D01*
X154478Y-111872D02*
X154135Y-111872D01*
X154307Y-111872D02*
X154307Y-111272D01*
X154249Y-111358D01*
X154192Y-111415D01*
X154135Y-111444D01*
X155164Y-111244D02*
X154650Y-112015D01*
X155678Y-111872D02*
X155335Y-111872D01*
X155507Y-111872D02*
X155507Y-111272D01*
X155449Y-111358D01*
X155392Y-111415D01*
X155335Y-111444D01*
X119389Y-108872D02*
X119732Y-108872D01*
X119485Y-109472D02*
X119560Y-108872D01*
X119857Y-109472D02*
X119907Y-109072D01*
X119932Y-108872D02*
X119900Y-108901D01*
X119925Y-108930D01*
X119957Y-108901D01*
X119932Y-108872D01*
X119925Y-108930D01*
X120107Y-109072D02*
X120335Y-109072D01*
X120217Y-108872D02*
X120153Y-109387D01*
X120175Y-109444D01*
X120228Y-109472D01*
X120285Y-109472D01*
X120571Y-109472D02*
X120517Y-109444D01*
X120496Y-109387D01*
X120560Y-108872D01*
X121032Y-109444D02*
X120971Y-109472D01*
X120857Y-109472D01*
X120803Y-109444D01*
X120782Y-109387D01*
X120810Y-109158D01*
X120846Y-109101D01*
X120907Y-109072D01*
X121021Y-109072D01*
X121075Y-109101D01*
X121096Y-109158D01*
X121089Y-109215D01*
X120796Y-109272D01*
X121321Y-109415D02*
X121346Y-109444D01*
X121314Y-109472D01*
X121289Y-109444D01*
X121321Y-109415D01*
X121314Y-109472D01*
X121360Y-109101D02*
X121385Y-109130D01*
X121353Y-109158D01*
X121328Y-109130D01*
X121360Y-109101D01*
X121353Y-109158D01*
X119592Y-106758D02*
X119392Y-106758D01*
X119392Y-107072D02*
X119392Y-106472D01*
X119678Y-106472D01*
X119907Y-107072D02*
X119907Y-106672D01*
X119907Y-106472D02*
X119878Y-106501D01*
X119907Y-106530D01*
X119935Y-106501D01*
X119907Y-106472D01*
X119907Y-106530D01*
X120278Y-107072D02*
X120221Y-107044D01*
X120192Y-106987D01*
X120192Y-106472D01*
X120735Y-107044D02*
X120678Y-107072D01*
X120564Y-107072D01*
X120507Y-107044D01*
X120478Y-106987D01*
X120478Y-106758D01*
X120507Y-106701D01*
X120564Y-106672D01*
X120678Y-106672D01*
X120735Y-106701D01*
X120764Y-106758D01*
X120764Y-106815D01*
X120478Y-106872D01*
X121021Y-107015D02*
X121050Y-107044D01*
X121021Y-107072D01*
X120992Y-107044D01*
X121021Y-107015D01*
X121021Y-107072D01*
X121021Y-106701D02*
X121050Y-106730D01*
X121021Y-106758D01*
X120992Y-106730D01*
X121021Y-106701D01*
X121021Y-106758D01*
X122050Y-107072D02*
X121764Y-107072D01*
X121764Y-106472D01*
X122507Y-107044D02*
X122450Y-107072D01*
X122335Y-107072D01*
X122278Y-107044D01*
X122250Y-107015D01*
X122221Y-106958D01*
X122221Y-106787D01*
X122250Y-106730D01*
X122278Y-106701D01*
X122335Y-106672D01*
X122450Y-106672D01*
X122507Y-106701D01*
X123021Y-107072D02*
X123021Y-106472D01*
X123021Y-107044D02*
X122964Y-107072D01*
X122850Y-107072D01*
X122792Y-107044D01*
X122764Y-107015D01*
X122735Y-106958D01*
X122735Y-106787D01*
X122764Y-106730D01*
X122792Y-106701D01*
X122850Y-106672D01*
X122964Y-106672D01*
X123021Y-106701D01*
X123964Y-106758D02*
X124050Y-106787D01*
X124078Y-106815D01*
X124107Y-106872D01*
X124107Y-106958D01*
X124078Y-107015D01*
X124050Y-107044D01*
X123992Y-107072D01*
X123764Y-107072D01*
X123764Y-106472D01*
X123964Y-106472D01*
X124021Y-106501D01*
X124050Y-106530D01*
X124078Y-106587D01*
X124078Y-106644D01*
X124050Y-106701D01*
X124021Y-106730D01*
X123964Y-106758D01*
X123764Y-106758D01*
X124450Y-107072D02*
X124392Y-107044D01*
X124364Y-107015D01*
X124335Y-106958D01*
X124335Y-106787D01*
X124364Y-106730D01*
X124392Y-106701D01*
X124450Y-106672D01*
X124535Y-106672D01*
X124592Y-106701D01*
X124621Y-106730D01*
X124650Y-106787D01*
X124650Y-106958D01*
X124621Y-107015D01*
X124592Y-107044D01*
X124535Y-107072D01*
X124450Y-107072D01*
X124992Y-107072D02*
X124935Y-107044D01*
X124907Y-107015D01*
X124878Y-106958D01*
X124878Y-106787D01*
X124907Y-106730D01*
X124935Y-106701D01*
X124992Y-106672D01*
X125078Y-106672D01*
X125135Y-106701D01*
X125164Y-106730D01*
X125192Y-106787D01*
X125192Y-106958D01*
X125164Y-107015D01*
X125135Y-107044D01*
X125078Y-107072D01*
X124992Y-107072D01*
X125421Y-107044D02*
X125478Y-107072D01*
X125592Y-107072D01*
X125650Y-107044D01*
X125678Y-106987D01*
X125678Y-106958D01*
X125650Y-106901D01*
X125592Y-106872D01*
X125507Y-106872D01*
X125450Y-106844D01*
X125421Y-106787D01*
X125421Y-106758D01*
X125450Y-106701D01*
X125507Y-106672D01*
X125592Y-106672D01*
X125650Y-106701D01*
X125850Y-106672D02*
X126078Y-106672D01*
X125935Y-106472D02*
X125935Y-106987D01*
X125964Y-107044D01*
X126021Y-107072D01*
X126078Y-107072D01*
X126507Y-107044D02*
X126450Y-107072D01*
X126335Y-107072D01*
X126278Y-107044D01*
X126250Y-106987D01*
X126250Y-106758D01*
X126278Y-106701D01*
X126335Y-106672D01*
X126450Y-106672D01*
X126507Y-106701D01*
X126535Y-106758D01*
X126535Y-106815D01*
X126250Y-106872D01*
X126792Y-107072D02*
X126792Y-106672D01*
X126792Y-106787D02*
X126821Y-106730D01*
X126850Y-106701D01*
X126907Y-106672D01*
X126964Y-106672D01*
X127107Y-106472D02*
X127478Y-106472D01*
X127278Y-106701D01*
X127364Y-106701D01*
X127421Y-106730D01*
X127450Y-106758D01*
X127478Y-106815D01*
X127478Y-106958D01*
X127450Y-107015D01*
X127421Y-107044D01*
X127364Y-107072D01*
X127192Y-107072D01*
X127135Y-107044D01*
X127107Y-107015D01*
X127735Y-107015D02*
X127764Y-107044D01*
X127735Y-107072D01*
X127707Y-107044D01*
X127735Y-107015D01*
X127735Y-107072D01*
X128021Y-107072D02*
X128021Y-106472D01*
X128078Y-106844D02*
X128250Y-107072D01*
X128250Y-106672D02*
X128021Y-106901D01*
X128507Y-107072D02*
X128507Y-106672D01*
X128507Y-106472D02*
X128478Y-106501D01*
X128507Y-106530D01*
X128535Y-106501D01*
X128507Y-106472D01*
X128507Y-106530D01*
X129050Y-107044D02*
X128992Y-107072D01*
X128878Y-107072D01*
X128821Y-107044D01*
X128792Y-107015D01*
X128764Y-106958D01*
X128764Y-106787D01*
X128792Y-106730D01*
X128821Y-106701D01*
X128878Y-106672D01*
X128992Y-106672D01*
X129050Y-106701D01*
X129564Y-107072D02*
X129564Y-106758D01*
X129535Y-106701D01*
X129478Y-106672D01*
X129364Y-106672D01*
X129307Y-106701D01*
X129564Y-107044D02*
X129507Y-107072D01*
X129364Y-107072D01*
X129307Y-107044D01*
X129278Y-106987D01*
X129278Y-106930D01*
X129307Y-106872D01*
X129364Y-106844D01*
X129507Y-106844D01*
X129564Y-106815D01*
X130107Y-107072D02*
X130107Y-106472D01*
X130107Y-107044D02*
X130050Y-107072D01*
X129935Y-107072D01*
X129878Y-107044D01*
X129850Y-107015D01*
X129821Y-106958D01*
X129821Y-106787D01*
X129850Y-106730D01*
X129878Y-106701D01*
X129935Y-106672D01*
X130050Y-106672D01*
X130107Y-106701D01*
X130250Y-107130D02*
X130707Y-107130D01*
X130850Y-106672D02*
X130850Y-107272D01*
X130850Y-106701D02*
X130907Y-106672D01*
X131021Y-106672D01*
X131078Y-106701D01*
X131107Y-106730D01*
X131135Y-106787D01*
X131135Y-106958D01*
X131107Y-107015D01*
X131078Y-107044D01*
X131021Y-107072D01*
X130907Y-107072D01*
X130850Y-107044D01*
X131650Y-107044D02*
X131592Y-107072D01*
X131478Y-107072D01*
X131421Y-107044D01*
X131392Y-107015D01*
X131364Y-106958D01*
X131364Y-106787D01*
X131392Y-106730D01*
X131421Y-106701D01*
X131478Y-106672D01*
X131592Y-106672D01*
X131650Y-106701D01*
X131907Y-107072D02*
X131907Y-106472D01*
X131907Y-106701D02*
X131964Y-106672D01*
X132078Y-106672D01*
X132135Y-106701D01*
X132164Y-106730D01*
X132192Y-106787D01*
X132192Y-106958D01*
X132164Y-107015D01*
X132135Y-107044D01*
X132078Y-107072D01*
X131964Y-107072D01*
X131907Y-107044D01*
X119364Y-108244D02*
X119450Y-108272D01*
X119592Y-108272D01*
X119650Y-108244D01*
X119678Y-108215D01*
X119707Y-108158D01*
X119707Y-108101D01*
X119678Y-108044D01*
X119650Y-108015D01*
X119592Y-107987D01*
X119478Y-107958D01*
X119421Y-107930D01*
X119392Y-107901D01*
X119364Y-107844D01*
X119364Y-107787D01*
X119392Y-107730D01*
X119421Y-107701D01*
X119478Y-107672D01*
X119621Y-107672D01*
X119707Y-107701D01*
X119964Y-108272D02*
X119964Y-107672D01*
X120221Y-108272D02*
X120221Y-107958D01*
X120192Y-107901D01*
X120135Y-107872D01*
X120050Y-107872D01*
X119992Y-107901D01*
X119964Y-107930D01*
X120735Y-108244D02*
X120678Y-108272D01*
X120564Y-108272D01*
X120507Y-108244D01*
X120478Y-108187D01*
X120478Y-107958D01*
X120507Y-107901D01*
X120564Y-107872D01*
X120678Y-107872D01*
X120735Y-107901D01*
X120764Y-107958D01*
X120764Y-108015D01*
X120478Y-108072D01*
X121250Y-108244D02*
X121192Y-108272D01*
X121078Y-108272D01*
X121021Y-108244D01*
X120992Y-108187D01*
X120992Y-107958D01*
X121021Y-107901D01*
X121078Y-107872D01*
X121192Y-107872D01*
X121250Y-107901D01*
X121278Y-107958D01*
X121278Y-108015D01*
X120992Y-108072D01*
X121450Y-107872D02*
X121678Y-107872D01*
X121535Y-107672D02*
X121535Y-108187D01*
X121564Y-108244D01*
X121621Y-108272D01*
X121678Y-108272D01*
X121878Y-108215D02*
X121907Y-108244D01*
X121878Y-108272D01*
X121850Y-108244D01*
X121878Y-108215D01*
X121878Y-108272D01*
X121878Y-107901D02*
X121907Y-107930D01*
X121878Y-107958D01*
X121850Y-107930D01*
X121878Y-107901D01*
X121878Y-107958D01*
X122592Y-108101D02*
X122878Y-108101D01*
X122535Y-108272D02*
X122735Y-107672D01*
X122935Y-108272D01*
X123107Y-108244D02*
X123164Y-108272D01*
X123278Y-108272D01*
X123335Y-108244D01*
X123364Y-108187D01*
X123364Y-108158D01*
X123335Y-108101D01*
X123278Y-108072D01*
X123192Y-108072D01*
X123135Y-108044D01*
X123107Y-107987D01*
X123107Y-107958D01*
X123135Y-107901D01*
X123192Y-107872D01*
X123278Y-107872D01*
X123335Y-107901D01*
X123592Y-108244D02*
X123650Y-108272D01*
X123764Y-108272D01*
X123821Y-108244D01*
X123850Y-108187D01*
X123850Y-108158D01*
X123821Y-108101D01*
X123764Y-108072D01*
X123678Y-108072D01*
X123621Y-108044D01*
X123592Y-107987D01*
X123592Y-107958D01*
X123621Y-107901D01*
X123678Y-107872D01*
X123764Y-107872D01*
X123821Y-107901D01*
X124335Y-108244D02*
X124278Y-108272D01*
X124164Y-108272D01*
X124107Y-108244D01*
X124078Y-108187D01*
X124078Y-107958D01*
X124107Y-107901D01*
X124164Y-107872D01*
X124278Y-107872D01*
X124335Y-107901D01*
X124364Y-107958D01*
X124364Y-108015D01*
X124078Y-108072D01*
X124621Y-108272D02*
X124621Y-107872D01*
X124621Y-107930D02*
X124650Y-107901D01*
X124707Y-107872D01*
X124792Y-107872D01*
X124850Y-107901D01*
X124878Y-107958D01*
X124878Y-108272D01*
X124878Y-107958D02*
X124907Y-107901D01*
X124964Y-107872D01*
X125050Y-107872D01*
X125107Y-107901D01*
X125135Y-107958D01*
X125135Y-108272D01*
X125421Y-108272D02*
X125421Y-107672D01*
X125421Y-107901D02*
X125478Y-107872D01*
X125592Y-107872D01*
X125650Y-107901D01*
X125678Y-107930D01*
X125707Y-107987D01*
X125707Y-108158D01*
X125678Y-108215D01*
X125650Y-108244D01*
X125592Y-108272D01*
X125478Y-108272D01*
X125421Y-108244D01*
X126050Y-108272D02*
X125992Y-108244D01*
X125964Y-108187D01*
X125964Y-107672D01*
X126221Y-107872D02*
X126364Y-108272D01*
X126507Y-107872D02*
X126364Y-108272D01*
X126307Y-108415D01*
X126278Y-108444D01*
X126221Y-108472D01*
X127278Y-108272D02*
X127221Y-108244D01*
X127192Y-108215D01*
X127164Y-108158D01*
X127164Y-107987D01*
X127192Y-107930D01*
X127221Y-107901D01*
X127278Y-107872D01*
X127364Y-107872D01*
X127421Y-107901D01*
X127450Y-107930D01*
X127478Y-107987D01*
X127478Y-108158D01*
X127450Y-108215D01*
X127421Y-108244D01*
X127364Y-108272D01*
X127278Y-108272D01*
X127992Y-107872D02*
X127992Y-108272D01*
X127735Y-107872D02*
X127735Y-108187D01*
X127764Y-108244D01*
X127821Y-108272D01*
X127907Y-108272D01*
X127964Y-108244D01*
X127992Y-108215D01*
X128192Y-107872D02*
X128421Y-107872D01*
X128278Y-107672D02*
X128278Y-108187D01*
X128307Y-108244D01*
X128364Y-108272D01*
X128421Y-108272D01*
X128707Y-108272D02*
X128650Y-108244D01*
X128621Y-108187D01*
X128621Y-107672D01*
X128935Y-108272D02*
X128935Y-107872D01*
X128935Y-107672D02*
X128907Y-107701D01*
X128935Y-107730D01*
X128964Y-107701D01*
X128935Y-107672D01*
X128935Y-107730D01*
X129221Y-107872D02*
X129221Y-108272D01*
X129221Y-107930D02*
X129250Y-107901D01*
X129307Y-107872D01*
X129392Y-107872D01*
X129450Y-107901D01*
X129478Y-107958D01*
X129478Y-108272D01*
X129992Y-108244D02*
X129935Y-108272D01*
X129821Y-108272D01*
X129764Y-108244D01*
X129735Y-108187D01*
X129735Y-107958D01*
X129764Y-107901D01*
X129821Y-107872D01*
X129935Y-107872D01*
X129992Y-107901D01*
X130021Y-107958D01*
X130021Y-108015D01*
X129735Y-108072D01*
X130650Y-107872D02*
X130878Y-107872D01*
X130735Y-107672D02*
X130735Y-108187D01*
X130764Y-108244D01*
X130821Y-108272D01*
X130878Y-108272D01*
X131164Y-108272D02*
X131107Y-108244D01*
X131078Y-108215D01*
X131050Y-108158D01*
X131050Y-107987D01*
X131078Y-107930D01*
X131107Y-107901D01*
X131164Y-107872D01*
X131250Y-107872D01*
X131307Y-107901D01*
X131335Y-107930D01*
X131364Y-107987D01*
X131364Y-108158D01*
X131335Y-108215D01*
X131307Y-108244D01*
X131250Y-108272D01*
X131164Y-108272D01*
X131621Y-107872D02*
X131621Y-108472D01*
X131621Y-107901D02*
X131678Y-107872D01*
X131792Y-107872D01*
X131850Y-107901D01*
X131878Y-107930D01*
X131907Y-107987D01*
X131907Y-108158D01*
X131878Y-108215D01*
X131850Y-108244D01*
X131792Y-108272D01*
X131678Y-108272D01*
X131621Y-108244D01*
X118650Y-106230D02*
X118650Y-112230D01*
X118650Y-106230D02*
X160650Y-106230D01*
X118650Y-106230D02*
X160650Y-106230D01*
X118650Y-108630D02*
X160650Y-108630D01*
X151850Y-109830D02*
X151850Y-112230D01*
X118650Y-111030D02*
X160650Y-111030D01*
X118650Y-109830D02*
X160650Y-109830D01*
X125250Y-109830D02*
X125250Y-111030D01*
G54D11*
X88755Y-55802D02*
X88769Y-55760D01*
X88769Y-55690D01*
X88755Y-55662D01*
X88741Y-55648D01*
X88713Y-55633D01*
X88685Y-55633D01*
X88657Y-55648D01*
X88642Y-55662D01*
X88628Y-55690D01*
X88614Y-55746D01*
X88600Y-55774D01*
X88586Y-55788D01*
X88558Y-55802D01*
X88530Y-55802D01*
X88502Y-55788D01*
X88488Y-55774D01*
X88474Y-55746D01*
X88474Y-55676D01*
X88488Y-55633D01*
X88572Y-55549D02*
X88572Y-55437D01*
X88474Y-55507D02*
X88727Y-55507D01*
X88755Y-55493D01*
X88769Y-55465D01*
X88769Y-55437D01*
X88755Y-55226D02*
X88769Y-55254D01*
X88769Y-55310D01*
X88755Y-55338D01*
X88727Y-55352D01*
X88614Y-55352D01*
X88586Y-55338D01*
X88572Y-55310D01*
X88572Y-55254D01*
X88586Y-55226D01*
X88614Y-55212D01*
X88642Y-55212D01*
X88671Y-55352D01*
X88769Y-55043D02*
X88755Y-55071D01*
X88727Y-55085D01*
X88474Y-55085D01*
X88769Y-54888D02*
X88755Y-54916D01*
X88727Y-54930D01*
X88474Y-54930D01*
X88769Y-54649D02*
X88614Y-54649D01*
X88586Y-54663D01*
X88572Y-54691D01*
X88572Y-54748D01*
X88586Y-54776D01*
X88755Y-54649D02*
X88769Y-54677D01*
X88769Y-54748D01*
X88755Y-54776D01*
X88727Y-54790D01*
X88699Y-54790D01*
X88671Y-54776D01*
X88657Y-54748D01*
X88657Y-54677D01*
X88642Y-54649D01*
X88769Y-54509D02*
X88572Y-54509D01*
X88628Y-54509D02*
X88600Y-54495D01*
X88586Y-54481D01*
X88572Y-54452D01*
X88572Y-54424D01*
X88769Y-54326D02*
X88572Y-54326D01*
X88474Y-54326D02*
X88488Y-54340D01*
X88502Y-54326D01*
X88488Y-54312D01*
X88474Y-54326D01*
X88502Y-54326D01*
X88755Y-54199D02*
X88769Y-54171D01*
X88769Y-54115D01*
X88755Y-54087D01*
X88727Y-54073D01*
X88713Y-54073D01*
X88685Y-54087D01*
X88671Y-54115D01*
X88671Y-54157D01*
X88657Y-54185D01*
X88628Y-54199D01*
X88614Y-54199D01*
X88586Y-54185D01*
X88572Y-54157D01*
X88572Y-54115D01*
X88586Y-54087D01*
X88769Y-53581D02*
X88769Y-53721D01*
X88474Y-53721D01*
X88741Y-53313D02*
X88755Y-53328D01*
X88769Y-53370D01*
X88769Y-53398D01*
X88755Y-53440D01*
X88727Y-53468D01*
X88699Y-53482D01*
X88642Y-53496D01*
X88600Y-53496D01*
X88544Y-53482D01*
X88516Y-53468D01*
X88488Y-53440D01*
X88474Y-53398D01*
X88474Y-53370D01*
X88488Y-53328D01*
X88502Y-53313D01*
X88769Y-53187D02*
X88474Y-53187D01*
X88474Y-53117D01*
X88488Y-53074D01*
X88516Y-53046D01*
X88544Y-53032D01*
X88600Y-53018D01*
X88642Y-53018D01*
X88699Y-53032D01*
X88727Y-53046D01*
X88755Y-53074D01*
X88769Y-53117D01*
X88769Y-53187D01*
X88769Y-52667D02*
X88474Y-52667D01*
X88474Y-52596D01*
X88488Y-52554D01*
X88516Y-52526D01*
X88544Y-52512D01*
X88600Y-52498D01*
X88642Y-52498D01*
X88699Y-52512D01*
X88727Y-52526D01*
X88755Y-52554D01*
X88769Y-52596D01*
X88769Y-52667D01*
X88769Y-52371D02*
X88572Y-52371D01*
X88628Y-52371D02*
X88600Y-52357D01*
X88586Y-52343D01*
X88572Y-52315D01*
X88572Y-52287D01*
X88769Y-52189D02*
X88572Y-52189D01*
X88474Y-52189D02*
X88488Y-52203D01*
X88502Y-52189D01*
X88488Y-52175D01*
X88474Y-52189D01*
X88502Y-52189D01*
X88572Y-52076D02*
X88769Y-52006D01*
X88572Y-51936D01*
X88755Y-51711D02*
X88769Y-51739D01*
X88769Y-51795D01*
X88755Y-51823D01*
X88727Y-51837D01*
X88614Y-51837D01*
X88586Y-51823D01*
X88572Y-51795D01*
X88572Y-51739D01*
X88586Y-51711D01*
X88614Y-51696D01*
X88642Y-51696D01*
X88671Y-51837D01*
X88769Y-51570D02*
X88572Y-51570D01*
X88628Y-51570D02*
X88600Y-51556D01*
X88586Y-51542D01*
X88572Y-51514D01*
X88572Y-51486D01*
X88657Y-51162D02*
X88657Y-50937D01*
X88769Y-50403D02*
X88628Y-50501D01*
X88769Y-50572D02*
X88474Y-50572D01*
X88474Y-50459D01*
X88488Y-50431D01*
X88502Y-50417D01*
X88530Y-50403D01*
X88572Y-50403D01*
X88600Y-50417D01*
X88614Y-50431D01*
X88628Y-50459D01*
X88628Y-50572D01*
X88755Y-50164D02*
X88769Y-50192D01*
X88769Y-50248D01*
X88755Y-50276D01*
X88727Y-50290D01*
X88614Y-50290D01*
X88586Y-50276D01*
X88572Y-50248D01*
X88572Y-50192D01*
X88586Y-50164D01*
X88614Y-50150D01*
X88642Y-50150D01*
X88671Y-50290D01*
X88572Y-50051D02*
X88769Y-49981D01*
X88572Y-49911D01*
X88685Y-49587D02*
X88685Y-49447D01*
X88769Y-49616D02*
X88474Y-49517D01*
X88769Y-49419D01*
X89369Y-55676D02*
X89355Y-55690D01*
X89312Y-55718D01*
X89284Y-55732D01*
X89242Y-55746D01*
X89172Y-55760D01*
X89116Y-55760D01*
X89045Y-55746D01*
X89003Y-55732D01*
X88975Y-55718D01*
X88933Y-55690D01*
X88919Y-55676D01*
X89242Y-55437D02*
X89256Y-55465D01*
X89256Y-55521D01*
X89242Y-55549D01*
X89228Y-55563D01*
X89200Y-55577D01*
X89116Y-55577D01*
X89087Y-55563D01*
X89073Y-55549D01*
X89059Y-55521D01*
X89059Y-55465D01*
X89073Y-55437D01*
X89369Y-55338D02*
X89355Y-55324D01*
X89312Y-55296D01*
X89284Y-55282D01*
X89242Y-55268D01*
X89172Y-55254D01*
X89116Y-55254D01*
X89045Y-55268D01*
X89003Y-55282D01*
X88975Y-55296D01*
X88933Y-55324D01*
X88919Y-55338D01*
X88989Y-54902D02*
X88975Y-54888D01*
X88961Y-54860D01*
X88961Y-54790D01*
X88975Y-54762D01*
X88989Y-54748D01*
X89017Y-54734D01*
X89045Y-54734D01*
X89087Y-54748D01*
X89256Y-54916D01*
X89256Y-54734D01*
X88961Y-54551D02*
X88961Y-54523D01*
X88975Y-54495D01*
X88989Y-54481D01*
X89017Y-54466D01*
X89073Y-54452D01*
X89144Y-54452D01*
X89200Y-54466D01*
X89228Y-54481D01*
X89242Y-54495D01*
X89256Y-54523D01*
X89256Y-54551D01*
X89242Y-54579D01*
X89228Y-54593D01*
X89200Y-54607D01*
X89144Y-54621D01*
X89073Y-54621D01*
X89017Y-54607D01*
X88989Y-54593D01*
X88975Y-54579D01*
X88961Y-54551D01*
X89256Y-54171D02*
X89256Y-54340D01*
X89256Y-54256D02*
X88961Y-54256D01*
X89003Y-54284D01*
X89031Y-54312D01*
X89045Y-54340D01*
X88989Y-54059D02*
X88975Y-54045D01*
X88961Y-54017D01*
X88961Y-53946D01*
X88975Y-53918D01*
X88989Y-53904D01*
X89017Y-53890D01*
X89045Y-53890D01*
X89087Y-53904D01*
X89256Y-54073D01*
X89256Y-53890D01*
X89256Y-53538D02*
X88961Y-53538D01*
X89102Y-53538D02*
X89102Y-53370D01*
X89256Y-53370D02*
X88961Y-53370D01*
X89242Y-53117D02*
X89256Y-53145D01*
X89256Y-53201D01*
X89242Y-53229D01*
X89214Y-53243D01*
X89102Y-53243D01*
X89073Y-53229D01*
X89059Y-53201D01*
X89059Y-53145D01*
X89073Y-53117D01*
X89102Y-53103D01*
X89130Y-53103D01*
X89158Y-53243D01*
X89059Y-52976D02*
X89256Y-52976D01*
X89087Y-52976D02*
X89073Y-52962D01*
X89059Y-52934D01*
X89059Y-52892D01*
X89073Y-52864D01*
X89102Y-52849D01*
X89256Y-52849D01*
X89256Y-52709D02*
X89059Y-52709D01*
X89116Y-52709D02*
X89087Y-52695D01*
X89073Y-52681D01*
X89059Y-52653D01*
X89059Y-52625D01*
X89059Y-52554D02*
X89256Y-52484D01*
X89059Y-52414D02*
X89256Y-52484D01*
X89327Y-52512D01*
X89341Y-52526D01*
X89355Y-52554D01*
X89059Y-52104D02*
X89256Y-52034D01*
X89059Y-51964D01*
X89256Y-51809D02*
X89242Y-51837D01*
X89228Y-51851D01*
X89200Y-51865D01*
X89116Y-51865D01*
X89087Y-51851D01*
X89073Y-51837D01*
X89059Y-51809D01*
X89059Y-51767D01*
X89073Y-51739D01*
X89087Y-51725D01*
X89116Y-51711D01*
X89200Y-51711D01*
X89228Y-51725D01*
X89242Y-51739D01*
X89256Y-51767D01*
X89256Y-51809D01*
X89059Y-51584D02*
X89256Y-51584D01*
X89087Y-51584D02*
X89073Y-51570D01*
X89059Y-51542D01*
X89059Y-51500D01*
X89073Y-51472D01*
X89102Y-51457D01*
X89256Y-51457D01*
X88961Y-51134D02*
X88961Y-50965D01*
X89256Y-51050D02*
X88961Y-51050D01*
X89256Y-50867D02*
X89059Y-50867D01*
X89116Y-50867D02*
X89087Y-50853D01*
X89073Y-50839D01*
X89059Y-50811D01*
X89059Y-50783D01*
X89242Y-50572D02*
X89256Y-50600D01*
X89256Y-50656D01*
X89242Y-50684D01*
X89214Y-50698D01*
X89102Y-50698D01*
X89073Y-50684D01*
X89059Y-50656D01*
X89059Y-50600D01*
X89073Y-50572D01*
X89102Y-50558D01*
X89130Y-50558D01*
X89158Y-50698D01*
X89242Y-50445D02*
X89256Y-50417D01*
X89256Y-50361D01*
X89242Y-50333D01*
X89214Y-50319D01*
X89200Y-50319D01*
X89172Y-50333D01*
X89158Y-50361D01*
X89158Y-50403D01*
X89144Y-50431D01*
X89116Y-50445D01*
X89102Y-50445D01*
X89073Y-50431D01*
X89059Y-50403D01*
X89059Y-50361D01*
X89073Y-50333D01*
X89242Y-50065D02*
X89256Y-50094D01*
X89256Y-50150D01*
X89242Y-50178D01*
X89228Y-50192D01*
X89200Y-50206D01*
X89116Y-50206D01*
X89087Y-50192D01*
X89073Y-50178D01*
X89059Y-50150D01*
X89059Y-50094D01*
X89073Y-50065D01*
X89256Y-49939D02*
X88961Y-49939D01*
X89144Y-49911D02*
X89256Y-49826D01*
X89059Y-49826D02*
X89172Y-49939D01*
X89256Y-49658D02*
X89242Y-49686D01*
X89228Y-49700D01*
X89200Y-49714D01*
X89116Y-49714D01*
X89087Y-49700D01*
X89073Y-49686D01*
X89059Y-49658D01*
X89059Y-49616D01*
X89073Y-49587D01*
X89087Y-49573D01*
X89116Y-49559D01*
X89200Y-49559D01*
X89228Y-49573D01*
X89242Y-49587D01*
X89256Y-49616D01*
X89256Y-49658D01*
X89059Y-49461D02*
X89256Y-49405D01*
X89116Y-49348D01*
X89256Y-49292D01*
X89059Y-49236D01*
G54D12*
X96500Y-59250D02*
X64000Y-59250D01*
X64000Y-59250D02*
X64000Y-44250D01*
X96500Y-44250D02*
X96500Y-59250D01*
X64000Y-44250D02*
X96500Y-44250D01*
G54D13*
X94950Y-44700D02*
X94950Y-45700D01*
X94950Y-45700D02*
X91950Y-45700D01*
X91950Y-45700D02*
X91950Y-44700D01*
X91950Y-44700D02*
X94950Y-44700D01*
X93950Y-45700D02*
X93950Y-44700D01*
G54D14*
X66350Y-53200D02*
X66850Y-53200D01*
X66850Y-53200D02*
X66850Y-54200D01*
X66850Y-54200D02*
X66350Y-54200D01*
X66350Y-52700D02*
X70350Y-52700D01*
X70350Y-52700D02*
X70350Y-54700D01*
X70350Y-54700D02*
X66350Y-54700D01*
X66350Y-54700D02*
X66350Y-52700D01*
G54D15*
X86500Y-56000D02*
X86000Y-56000D01*
X86000Y-56000D02*
X86000Y-55000D01*
X86000Y-55000D02*
X86500Y-55000D01*
X86500Y-56500D02*
X75500Y-56500D01*
X75500Y-56500D02*
X75500Y-54500D01*
X75500Y-54500D02*
X86500Y-54500D01*
X86500Y-54500D02*
X86500Y-56500D01*
X86500Y-51750D02*
X86000Y-51750D01*
X86000Y-51750D02*
X86000Y-50750D01*
X86000Y-50750D02*
X86500Y-50750D01*
X86500Y-52250D02*
X75500Y-52250D01*
X75500Y-52250D02*
X75500Y-50250D01*
X75500Y-50250D02*
X86500Y-50250D01*
X86500Y-50250D02*
X86500Y-52250D01*
G54D13*
X64475Y-50675D02*
X64475Y-50375D01*
X64475Y-50375D02*
X64875Y-50375D01*
X64875Y-50375D02*
X64875Y-47975D01*
X64875Y-47975D02*
X64475Y-47975D01*
X64475Y-47975D02*
X64475Y-47675D01*
X64475Y-47975D02*
X64075Y-47975D01*
X64075Y-47975D02*
X64075Y-50375D01*
X64075Y-50375D02*
X64475Y-50375D01*
X64875Y-50175D02*
X64075Y-50175D01*
X64075Y-50075D02*
X64875Y-50075D01*
X67370Y-56950D02*
X69350Y-56950D01*
X69350Y-56950D02*
X69350Y-57950D01*
X69350Y-57950D02*
X67350Y-57950D01*
X67350Y-57950D02*
X67350Y-56950D01*
X67350Y-57200D02*
X67600Y-56950D01*
X69850Y-58700D02*
X69550Y-58700D01*
X69550Y-58700D02*
X69550Y-58300D01*
X69550Y-58300D02*
X67150Y-58300D01*
X67150Y-58300D02*
X67150Y-58700D01*
X67150Y-58700D02*
X66850Y-58700D01*
X67150Y-58700D02*
X67150Y-59100D01*
X67150Y-59100D02*
X69550Y-59100D01*
X69550Y-59100D02*
X69550Y-58700D01*
X69350Y-58300D02*
X69350Y-59100D01*
X69250Y-59100D02*
X69250Y-58300D01*
X66100Y-52720D02*
X66100Y-54700D01*
X66100Y-54700D02*
X65100Y-54700D01*
X65100Y-54700D02*
X65100Y-52700D01*
X65100Y-52700D02*
X66100Y-52700D01*
X65850Y-52700D02*
X66100Y-52950D01*
G54D15*
X68025Y-48050D02*
X68025Y-47800D01*
X68025Y-47800D02*
X72025Y-47800D01*
X72025Y-47800D02*
X72025Y-48050D01*
X68025Y-49550D02*
X68025Y-48050D01*
X68025Y-48050D02*
X72025Y-48050D01*
X72025Y-48050D02*
X72025Y-49550D01*
X72025Y-49550D02*
X68025Y-49550D01*
G54D13*
X71850Y-56970D02*
X71850Y-58950D01*
X71850Y-58950D02*
X70850Y-58950D01*
X70850Y-58950D02*
X70850Y-56950D01*
X70850Y-56950D02*
X71850Y-56950D01*
X71600Y-56950D02*
X71850Y-57200D01*
X72270Y-44850D02*
X74250Y-44850D01*
X74250Y-44850D02*
X74250Y-45850D01*
X74250Y-45850D02*
X72250Y-45850D01*
X72250Y-45850D02*
X72250Y-44850D01*
X72250Y-45100D02*
X72500Y-44850D01*
X86750Y-56480D02*
X86750Y-54500D01*
X86750Y-54500D02*
X87750Y-54500D01*
X87750Y-54500D02*
X87750Y-56500D01*
X87750Y-56500D02*
X86750Y-56500D01*
X87000Y-56500D02*
X86750Y-56250D01*
X86750Y-52230D02*
X86750Y-50250D01*
X86750Y-50250D02*
X87750Y-50250D01*
X87750Y-50250D02*
X87750Y-52250D01*
X87750Y-52250D02*
X86750Y-52250D01*
X87000Y-52250D02*
X86750Y-52000D01*
X96000Y-52500D02*
X92000Y-52500D01*
X92000Y-52500D02*
X92000Y-50500D01*
X92000Y-50500D02*
X96000Y-50500D01*
X96000Y-50500D02*
X96000Y-52500D01*
X96000Y-49250D02*
X92000Y-49250D01*
X92000Y-49250D02*
X92000Y-47250D01*
X92000Y-47250D02*
X96000Y-47250D01*
X96000Y-47250D02*
X96000Y-49250D01*
X96000Y-55750D02*
X92000Y-55750D01*
X92000Y-55750D02*
X92000Y-53750D01*
X92000Y-53750D02*
X96000Y-53750D01*
X96000Y-53750D02*
X96000Y-55750D01*
G54D16*
X64500Y-51950D02*
X64500Y-52150D01*
X64500Y-54950D02*
X64500Y-54750D01*
X64500Y-54750D02*
X64900Y-54750D01*
X64900Y-54750D02*
X64900Y-52150D01*
X64900Y-52150D02*
X64100Y-52150D01*
X64100Y-52150D02*
X64100Y-54750D01*
X64100Y-54750D02*
X64500Y-54750D01*
X64700Y-52150D02*
X64900Y-52350D01*
X84000Y-48000D02*
X84200Y-48000D01*
X87000Y-48000D02*
X86800Y-48000D01*
X86800Y-48000D02*
X86800Y-47600D01*
X86800Y-47600D02*
X84200Y-47600D01*
X84200Y-47600D02*
X84200Y-48400D01*
X84200Y-48400D02*
X86800Y-48400D01*
X86800Y-48400D02*
X86800Y-48000D01*
X84200Y-47800D02*
X84400Y-47600D01*
X85000Y-57750D02*
X85200Y-57750D01*
X88000Y-57750D02*
X87800Y-57750D01*
X87800Y-57750D02*
X87800Y-57350D01*
X87800Y-57350D02*
X85200Y-57350D01*
X85200Y-57350D02*
X85200Y-58150D01*
X85200Y-58150D02*
X87800Y-58150D01*
X87800Y-58150D02*
X87800Y-57750D01*
X85200Y-57550D02*
X85400Y-57350D01*
X75100Y-45450D02*
X75100Y-45650D01*
X75100Y-48450D02*
X75100Y-48250D01*
X75100Y-48250D02*
X75500Y-48250D01*
X75500Y-48250D02*
X75500Y-45650D01*
X75500Y-45650D02*
X74700Y-45650D01*
X74700Y-45650D02*
X74700Y-48250D01*
X74700Y-48250D02*
X75100Y-48250D01*
X75300Y-45650D02*
X75500Y-45850D01*
X64850Y-56200D02*
X65050Y-56200D01*
X67850Y-56200D02*
X67650Y-56200D01*
X67650Y-56200D02*
X67650Y-55800D01*
X67650Y-55800D02*
X65050Y-55800D01*
X65050Y-55800D02*
X65050Y-56600D01*
X65050Y-56600D02*
X67650Y-56600D01*
X67650Y-56600D02*
X67650Y-56200D01*
X65050Y-56000D02*
X65250Y-55800D01*
X71825Y-56200D02*
X71625Y-56200D01*
X68825Y-56200D02*
X69025Y-56200D01*
X69025Y-56200D02*
X69025Y-56600D01*
X69025Y-56600D02*
X71625Y-56600D01*
X71625Y-56600D02*
X71625Y-55800D01*
X71625Y-55800D02*
X69025Y-55800D01*
X69025Y-55800D02*
X69025Y-56200D01*
X71625Y-56400D02*
X71425Y-56600D01*
X71100Y-55200D02*
X71100Y-55000D01*
X71100Y-52200D02*
X71100Y-52400D01*
X71100Y-52400D02*
X70700Y-52400D01*
X70700Y-52400D02*
X70700Y-55000D01*
X70700Y-55000D02*
X71500Y-55000D01*
X71500Y-55000D02*
X71500Y-52400D01*
X71500Y-52400D02*
X71100Y-52400D01*
X70900Y-55000D02*
X70700Y-54800D01*
G54D15*
X68025Y-50050D02*
X68025Y-49800D01*
X68025Y-49800D02*
X72025Y-49800D01*
X72025Y-49800D02*
X72025Y-50050D01*
X68025Y-51550D02*
X68025Y-50050D01*
X68025Y-50050D02*
X72025Y-50050D01*
X72025Y-50050D02*
X72025Y-51550D01*
X72025Y-51550D02*
X68025Y-51550D01*
G54D13*
X72500Y-47500D02*
X73500Y-47500D01*
X73500Y-47500D02*
X73500Y-57500D01*
X73500Y-57500D02*
X72500Y-57500D01*
X72500Y-57500D02*
X72500Y-47500D01*
X72500Y-48500D02*
X73500Y-48500D01*
X73500Y-47500D02*
X74500Y-47500D01*
X74500Y-47500D02*
X74500Y-57500D01*
X74500Y-57500D02*
X73500Y-57500D01*
X73500Y-57500D02*
X73500Y-47500D01*
X73500Y-48500D02*
X74500Y-48500D01*
X89500Y-47500D02*
X90500Y-47500D01*
X90500Y-47500D02*
X90500Y-57500D01*
X90500Y-57500D02*
X89500Y-57500D01*
X89500Y-57500D02*
X89500Y-47500D01*
X89500Y-48500D02*
X90500Y-48500D01*
X90500Y-47500D02*
X91500Y-47500D01*
X91500Y-47500D02*
X91500Y-57500D01*
X91500Y-57500D02*
X90500Y-57500D01*
X90500Y-57500D02*
X90500Y-47500D01*
X90500Y-48500D02*
X91500Y-48500D01*
X84000Y-58750D02*
X84000Y-58750D01*
X84000Y-57750D02*
X84000Y-58750D01*
X84000Y-58750D02*
X84000Y-58750D01*
X84000Y-58750D02*
X80000Y-58750D01*
X80000Y-58750D02*
X80000Y-57750D01*
X80000Y-57750D02*
X84000Y-57750D01*
X83000Y-57750D02*
X83000Y-58750D01*
G54D16*
X91350Y-46500D02*
X91550Y-46500D01*
X94350Y-46500D02*
X94150Y-46500D01*
X94150Y-46500D02*
X94150Y-46100D01*
X94150Y-46100D02*
X91550Y-46100D01*
X91550Y-46100D02*
X91550Y-46900D01*
X91550Y-46900D02*
X94150Y-46900D01*
X94150Y-46900D02*
X94150Y-46500D01*
X91550Y-46300D02*
X91750Y-46100D01*
G54D15*
X68000Y-46125D02*
G75*
G03X68000Y-46125I-1750J0D01*
G74*
G01*
X71700Y-45950D02*
G75*
G03X71700Y-45950I-1750J0D01*
G74*
G01*
X67900Y-49650D02*
G75*
G03X67900Y-49650I-1500J0D01*
G74*
G01*
X79250Y-48100D02*
X75750Y-48100D01*
X75750Y-48100D02*
X75750Y-46100D01*
X75750Y-46100D02*
X79250Y-46100D01*
X79250Y-46100D02*
X79250Y-48100D01*
X79250Y-47350D02*
X78750Y-47350D01*
X78750Y-47350D02*
X78750Y-46850D01*
X78750Y-46850D02*
X79250Y-46850D01*
M02*
