G04 (created by PCBNEW (2012-nov-02)-testing) date Mon 07 Jan 2013 06:01:39 PM PST*
%MOIN*%
G04 Gerber Fmt 3.4, Leading zero omitted, Abs format*
%FSLAX34Y34*%
G01*
G70*
G90*
G04 APERTURE LIST*
%ADD10C,0.006*%
%ADD11C,0.01*%
%ADD12C,0.0059*%
%ADD13C,0.012*%
%ADD14C,0.015*%
%ADD15C,0.005*%
%ADD16C,0.008*%
%ADD17C,0.00590551*%
%ADD18R,0.055X0.055*%
%ADD19C,0.055*%
%ADD20R,0.075X0.075*%
%ADD21C,0.075*%
%ADD22R,0.06X0.06*%
%ADD23C,0.06*%
%ADD24C,0.07*%
%ADD25R,0.07X0.07*%
G04 APERTURE END LIST*
G54D10*
X-60000Y55250D02*
X97350Y55250D01*
X97350Y-53680D01*
X-60000Y-53680D01*
X-60000Y55250D01*
X-59300Y54550D02*
X96650Y54550D01*
X96650Y-52980D01*
X-59300Y-52980D01*
X-59300Y54550D01*
X-37530Y55250D02*
X-37530Y54550D01*
X-48617Y54697D02*
X-48902Y54697D01*
X-48760Y54697D02*
X-48760Y55197D01*
X-48807Y55126D01*
X-48855Y55078D01*
X-48902Y55054D01*
X-37530Y-53680D02*
X-37530Y-52980D01*
X-48617Y-53532D02*
X-48902Y-53532D01*
X-48760Y-53532D02*
X-48760Y-53032D01*
X-48807Y-53103D01*
X-48855Y-53151D01*
X-48902Y-53175D01*
X-15060Y55250D02*
X-15060Y54550D01*
X-26432Y55150D02*
X-26409Y55173D01*
X-26361Y55197D01*
X-26242Y55197D01*
X-26194Y55173D01*
X-26170Y55150D01*
X-26147Y55102D01*
X-26147Y55054D01*
X-26170Y54983D01*
X-26456Y54697D01*
X-26147Y54697D01*
X-15060Y-53680D02*
X-15060Y-52980D01*
X-26432Y-53080D02*
X-26409Y-53056D01*
X-26361Y-53032D01*
X-26242Y-53032D01*
X-26194Y-53056D01*
X-26170Y-53080D01*
X-26147Y-53127D01*
X-26147Y-53175D01*
X-26170Y-53246D01*
X-26456Y-53532D01*
X-26147Y-53532D01*
X7410Y55250D02*
X7410Y54550D01*
X-3986Y55197D02*
X-3677Y55197D01*
X-3843Y55007D01*
X-3772Y55007D01*
X-3724Y54983D01*
X-3700Y54959D01*
X-3677Y54911D01*
X-3677Y54792D01*
X-3700Y54745D01*
X-3724Y54721D01*
X-3772Y54697D01*
X-3915Y54697D01*
X-3962Y54721D01*
X-3986Y54745D01*
X7410Y-53680D02*
X7410Y-52980D01*
X-3986Y-53032D02*
X-3677Y-53032D01*
X-3843Y-53222D01*
X-3772Y-53222D01*
X-3724Y-53246D01*
X-3700Y-53270D01*
X-3677Y-53318D01*
X-3677Y-53437D01*
X-3700Y-53484D01*
X-3724Y-53508D01*
X-3772Y-53532D01*
X-3915Y-53532D01*
X-3962Y-53508D01*
X-3986Y-53484D01*
X29880Y55250D02*
X29880Y54550D01*
X18745Y55030D02*
X18745Y54697D01*
X18626Y55221D02*
X18507Y54864D01*
X18816Y54864D01*
X29880Y-53680D02*
X29880Y-52980D01*
X18745Y-53199D02*
X18745Y-53532D01*
X18626Y-53008D02*
X18507Y-53365D01*
X18816Y-53365D01*
X52350Y55250D02*
X52350Y54550D01*
X41239Y55197D02*
X41000Y55197D01*
X40977Y54959D01*
X41000Y54983D01*
X41048Y55007D01*
X41167Y55007D01*
X41215Y54983D01*
X41239Y54959D01*
X41262Y54911D01*
X41262Y54792D01*
X41239Y54745D01*
X41215Y54721D01*
X41167Y54697D01*
X41048Y54697D01*
X41000Y54721D01*
X40977Y54745D01*
X52350Y-53680D02*
X52350Y-52980D01*
X41239Y-53032D02*
X41000Y-53032D01*
X40977Y-53270D01*
X41000Y-53246D01*
X41048Y-53222D01*
X41167Y-53222D01*
X41215Y-53246D01*
X41239Y-53270D01*
X41262Y-53318D01*
X41262Y-53437D01*
X41239Y-53484D01*
X41215Y-53508D01*
X41167Y-53532D01*
X41048Y-53532D01*
X41000Y-53508D01*
X40977Y-53484D01*
X74820Y55250D02*
X74820Y54550D01*
X63685Y55197D02*
X63590Y55197D01*
X63542Y55173D01*
X63518Y55150D01*
X63470Y55078D01*
X63447Y54983D01*
X63447Y54792D01*
X63470Y54745D01*
X63494Y54721D01*
X63542Y54697D01*
X63637Y54697D01*
X63685Y54721D01*
X63709Y54745D01*
X63732Y54792D01*
X63732Y54911D01*
X63709Y54959D01*
X63685Y54983D01*
X63637Y55007D01*
X63542Y55007D01*
X63494Y54983D01*
X63470Y54959D01*
X63447Y54911D01*
X74820Y-53680D02*
X74820Y-52980D01*
X63685Y-53032D02*
X63590Y-53032D01*
X63542Y-53056D01*
X63518Y-53080D01*
X63470Y-53151D01*
X63447Y-53246D01*
X63447Y-53437D01*
X63470Y-53484D01*
X63494Y-53508D01*
X63542Y-53532D01*
X63637Y-53532D01*
X63685Y-53508D01*
X63709Y-53484D01*
X63732Y-53437D01*
X63732Y-53318D01*
X63709Y-53270D01*
X63685Y-53246D01*
X63637Y-53222D01*
X63542Y-53222D01*
X63494Y-53246D01*
X63470Y-53270D01*
X63447Y-53318D01*
X85893Y55197D02*
X86226Y55197D01*
X86012Y54697D01*
X85893Y-53032D02*
X86226Y-53032D01*
X86012Y-53532D01*
X-60000Y33470D02*
X-59300Y33470D01*
X-59769Y44300D02*
X-59530Y44300D01*
X-59816Y44157D02*
X-59649Y44657D01*
X-59483Y44157D01*
X97350Y33470D02*
X96650Y33470D01*
X96880Y44300D02*
X97119Y44300D01*
X96833Y44157D02*
X97000Y44657D01*
X97166Y44157D01*
X-60000Y11690D02*
X-59300Y11690D01*
X-59614Y22639D02*
X-59542Y22615D01*
X-59519Y22591D01*
X-59495Y22544D01*
X-59495Y22472D01*
X-59519Y22425D01*
X-59542Y22401D01*
X-59590Y22377D01*
X-59780Y22377D01*
X-59780Y22877D01*
X-59614Y22877D01*
X-59566Y22853D01*
X-59542Y22830D01*
X-59519Y22782D01*
X-59519Y22734D01*
X-59542Y22687D01*
X-59566Y22663D01*
X-59614Y22639D01*
X-59780Y22639D01*
X97350Y11690D02*
X96650Y11690D01*
X97035Y22639D02*
X97107Y22615D01*
X97130Y22591D01*
X97154Y22544D01*
X97154Y22472D01*
X97130Y22425D01*
X97107Y22401D01*
X97059Y22377D01*
X96869Y22377D01*
X96869Y22877D01*
X97035Y22877D01*
X97083Y22853D01*
X97107Y22830D01*
X97130Y22782D01*
X97130Y22734D01*
X97107Y22687D01*
X97083Y22663D01*
X97035Y22639D01*
X96869Y22639D01*
X-60000Y-10090D02*
X-59300Y-10090D01*
X-59495Y645D02*
X-59519Y621D01*
X-59590Y597D01*
X-59638Y597D01*
X-59709Y621D01*
X-59757Y669D01*
X-59780Y716D01*
X-59804Y811D01*
X-59804Y883D01*
X-59780Y978D01*
X-59757Y1026D01*
X-59709Y1073D01*
X-59638Y1097D01*
X-59590Y1097D01*
X-59519Y1073D01*
X-59495Y1050D01*
X97350Y-10090D02*
X96650Y-10090D01*
X97154Y645D02*
X97130Y621D01*
X97059Y597D01*
X97011Y597D01*
X96940Y621D01*
X96892Y669D01*
X96869Y716D01*
X96845Y811D01*
X96845Y883D01*
X96869Y978D01*
X96892Y1026D01*
X96940Y1073D01*
X97011Y1097D01*
X97059Y1097D01*
X97130Y1073D01*
X97154Y1050D01*
X-60000Y-31870D02*
X-59300Y-31870D01*
X-59780Y-21182D02*
X-59780Y-20682D01*
X-59661Y-20682D01*
X-59590Y-20706D01*
X-59542Y-20753D01*
X-59519Y-20801D01*
X-59495Y-20896D01*
X-59495Y-20968D01*
X-59519Y-21063D01*
X-59542Y-21110D01*
X-59590Y-21158D01*
X-59661Y-21182D01*
X-59780Y-21182D01*
X97350Y-31870D02*
X96650Y-31870D01*
X96869Y-21182D02*
X96869Y-20682D01*
X96988Y-20682D01*
X97059Y-20706D01*
X97107Y-20753D01*
X97130Y-20801D01*
X97154Y-20896D01*
X97154Y-20968D01*
X97130Y-21063D01*
X97107Y-21110D01*
X97059Y-21158D01*
X96988Y-21182D01*
X96869Y-21182D01*
X-59757Y-42700D02*
X-59590Y-42700D01*
X-59519Y-42962D02*
X-59757Y-42962D01*
X-59757Y-42462D01*
X-59519Y-42462D01*
X96892Y-42700D02*
X97059Y-42700D01*
X97130Y-42962D02*
X96892Y-42962D01*
X96892Y-42462D01*
X97130Y-42462D01*
X63800Y-51422D02*
X63875Y-50822D01*
X64017Y-50822D01*
X64100Y-50851D01*
X64150Y-50908D01*
X64171Y-50965D01*
X64185Y-51080D01*
X64175Y-51165D01*
X64132Y-51280D01*
X64096Y-51337D01*
X64032Y-51394D01*
X63942Y-51422D01*
X63800Y-51422D01*
X64657Y-51422D02*
X64696Y-51108D01*
X64675Y-51051D01*
X64621Y-51022D01*
X64507Y-51022D01*
X64446Y-51051D01*
X64660Y-51394D02*
X64600Y-51422D01*
X64457Y-51422D01*
X64403Y-51394D01*
X64382Y-51337D01*
X64389Y-51280D01*
X64425Y-51222D01*
X64485Y-51194D01*
X64628Y-51194D01*
X64689Y-51165D01*
X64907Y-51022D02*
X65135Y-51022D01*
X65017Y-50822D02*
X64953Y-51337D01*
X64975Y-51394D01*
X65028Y-51422D01*
X65085Y-51422D01*
X65517Y-51394D02*
X65457Y-51422D01*
X65342Y-51422D01*
X65289Y-51394D01*
X65267Y-51337D01*
X65296Y-51108D01*
X65332Y-51051D01*
X65392Y-51022D01*
X65507Y-51022D01*
X65560Y-51051D01*
X65582Y-51108D01*
X65575Y-51165D01*
X65282Y-51222D01*
X65807Y-51365D02*
X65832Y-51394D01*
X65800Y-51422D01*
X65775Y-51394D01*
X65807Y-51365D01*
X65800Y-51422D01*
X65846Y-51051D02*
X65871Y-51080D01*
X65839Y-51108D01*
X65814Y-51080D01*
X65846Y-51051D01*
X65839Y-51108D01*
X66671Y-51080D02*
X66617Y-51051D01*
X66592Y-51022D01*
X66571Y-50965D01*
X66575Y-50937D01*
X66610Y-50880D01*
X66642Y-50851D01*
X66703Y-50822D01*
X66817Y-50822D01*
X66871Y-50851D01*
X66896Y-50880D01*
X66917Y-50937D01*
X66914Y-50965D01*
X66878Y-51022D01*
X66846Y-51051D01*
X66785Y-51080D01*
X66671Y-51080D01*
X66610Y-51108D01*
X66578Y-51137D01*
X66542Y-51194D01*
X66528Y-51308D01*
X66550Y-51365D01*
X66575Y-51394D01*
X66628Y-51422D01*
X66742Y-51422D01*
X66803Y-51394D01*
X66835Y-51365D01*
X66871Y-51308D01*
X66885Y-51194D01*
X66864Y-51137D01*
X66839Y-51108D01*
X66785Y-51080D01*
X67621Y-51022D02*
X67557Y-51537D01*
X67521Y-51594D01*
X67460Y-51622D01*
X67432Y-51622D01*
X67646Y-50822D02*
X67614Y-50851D01*
X67639Y-50880D01*
X67671Y-50851D01*
X67646Y-50822D01*
X67639Y-50880D01*
X68114Y-51422D02*
X68153Y-51108D01*
X68132Y-51051D01*
X68078Y-51022D01*
X67964Y-51022D01*
X67903Y-51051D01*
X68117Y-51394D02*
X68057Y-51422D01*
X67914Y-51422D01*
X67860Y-51394D01*
X67839Y-51337D01*
X67846Y-51280D01*
X67882Y-51222D01*
X67942Y-51194D01*
X68085Y-51194D01*
X68146Y-51165D01*
X68450Y-51022D02*
X68400Y-51422D01*
X68442Y-51080D02*
X68475Y-51051D01*
X68535Y-51022D01*
X68621Y-51022D01*
X68675Y-51051D01*
X68696Y-51108D01*
X68657Y-51422D01*
X69439Y-50880D02*
X69471Y-50851D01*
X69532Y-50822D01*
X69675Y-50822D01*
X69728Y-50851D01*
X69753Y-50880D01*
X69775Y-50937D01*
X69767Y-50994D01*
X69728Y-51080D01*
X69342Y-51422D01*
X69714Y-51422D01*
X70160Y-50822D02*
X70217Y-50822D01*
X70271Y-50851D01*
X70296Y-50880D01*
X70317Y-50937D01*
X70332Y-51051D01*
X70314Y-51194D01*
X70271Y-51308D01*
X70235Y-51365D01*
X70203Y-51394D01*
X70142Y-51422D01*
X70085Y-51422D01*
X70032Y-51394D01*
X70007Y-51365D01*
X69985Y-51308D01*
X69971Y-51194D01*
X69989Y-51051D01*
X70032Y-50937D01*
X70067Y-50880D01*
X70100Y-50851D01*
X70160Y-50822D01*
X70857Y-51422D02*
X70514Y-51422D01*
X70685Y-51422D02*
X70760Y-50822D01*
X70692Y-50908D01*
X70628Y-50965D01*
X70567Y-50994D01*
X71132Y-50822D02*
X71503Y-50822D01*
X71275Y-51051D01*
X71360Y-51051D01*
X71414Y-51080D01*
X71439Y-51108D01*
X71460Y-51165D01*
X71442Y-51308D01*
X71407Y-51365D01*
X71375Y-51394D01*
X71314Y-51422D01*
X71142Y-51422D01*
X71089Y-51394D01*
X71064Y-51365D01*
X55392Y-52622D02*
X55392Y-52022D01*
X55735Y-52622D02*
X55478Y-52280D01*
X55735Y-52022D02*
X55392Y-52365D01*
X55992Y-52622D02*
X55992Y-52222D01*
X55992Y-52022D02*
X55964Y-52051D01*
X55992Y-52080D01*
X56021Y-52051D01*
X55992Y-52022D01*
X55992Y-52080D01*
X56621Y-52565D02*
X56592Y-52594D01*
X56507Y-52622D01*
X56450Y-52622D01*
X56364Y-52594D01*
X56307Y-52537D01*
X56278Y-52480D01*
X56250Y-52365D01*
X56250Y-52280D01*
X56278Y-52165D01*
X56307Y-52108D01*
X56364Y-52051D01*
X56450Y-52022D01*
X56507Y-52022D01*
X56592Y-52051D01*
X56621Y-52080D01*
X57135Y-52622D02*
X57135Y-52308D01*
X57107Y-52251D01*
X57050Y-52222D01*
X56935Y-52222D01*
X56878Y-52251D01*
X57135Y-52594D02*
X57078Y-52622D01*
X56935Y-52622D01*
X56878Y-52594D01*
X56850Y-52537D01*
X56850Y-52480D01*
X56878Y-52422D01*
X56935Y-52394D01*
X57078Y-52394D01*
X57135Y-52365D01*
X57678Y-52622D02*
X57678Y-52022D01*
X57678Y-52594D02*
X57621Y-52622D01*
X57507Y-52622D01*
X57450Y-52594D01*
X57421Y-52565D01*
X57392Y-52508D01*
X57392Y-52337D01*
X57421Y-52280D01*
X57450Y-52251D01*
X57507Y-52222D01*
X57621Y-52222D01*
X57678Y-52251D01*
X58421Y-52308D02*
X58621Y-52308D01*
X58707Y-52622D02*
X58421Y-52622D01*
X58421Y-52022D01*
X58707Y-52022D01*
X58964Y-52565D02*
X58992Y-52594D01*
X58964Y-52622D01*
X58935Y-52594D01*
X58964Y-52565D01*
X58964Y-52622D01*
X59249Y-52622D02*
X59249Y-52022D01*
X59392Y-52022D01*
X59478Y-52051D01*
X59535Y-52108D01*
X59564Y-52165D01*
X59592Y-52280D01*
X59592Y-52365D01*
X59564Y-52480D01*
X59535Y-52537D01*
X59478Y-52594D01*
X59392Y-52622D01*
X59249Y-52622D01*
X59849Y-52565D02*
X59878Y-52594D01*
X59849Y-52622D01*
X59821Y-52594D01*
X59849Y-52565D01*
X59849Y-52622D01*
X60107Y-52451D02*
X60392Y-52451D01*
X60049Y-52622D02*
X60249Y-52022D01*
X60449Y-52622D01*
X60649Y-52565D02*
X60678Y-52594D01*
X60649Y-52622D01*
X60621Y-52594D01*
X60649Y-52565D01*
X60649Y-52622D01*
X88942Y-51422D02*
X88778Y-51137D01*
X88600Y-51422D02*
X88675Y-50822D01*
X88903Y-50822D01*
X88957Y-50851D01*
X88982Y-50880D01*
X89003Y-50937D01*
X88992Y-51022D01*
X88957Y-51080D01*
X88925Y-51108D01*
X88864Y-51137D01*
X88635Y-51137D01*
X89432Y-51394D02*
X89371Y-51422D01*
X89257Y-51422D01*
X89203Y-51394D01*
X89182Y-51337D01*
X89210Y-51108D01*
X89246Y-51051D01*
X89307Y-51022D01*
X89421Y-51022D01*
X89475Y-51051D01*
X89496Y-51108D01*
X89489Y-51165D01*
X89196Y-51222D01*
X89707Y-51022D02*
X89800Y-51422D01*
X89992Y-51022D01*
X90178Y-51365D02*
X90203Y-51394D01*
X90171Y-51422D01*
X90146Y-51394D01*
X90178Y-51365D01*
X90171Y-51422D01*
X90217Y-51051D02*
X90242Y-51080D01*
X90210Y-51108D01*
X90185Y-51080D01*
X90217Y-51051D01*
X90210Y-51108D01*
X55364Y-51394D02*
X55450Y-51422D01*
X55592Y-51422D01*
X55650Y-51394D01*
X55678Y-51365D01*
X55707Y-51308D01*
X55707Y-51251D01*
X55678Y-51194D01*
X55650Y-51165D01*
X55592Y-51137D01*
X55478Y-51108D01*
X55421Y-51080D01*
X55392Y-51051D01*
X55364Y-50994D01*
X55364Y-50937D01*
X55392Y-50880D01*
X55421Y-50851D01*
X55478Y-50822D01*
X55621Y-50822D01*
X55707Y-50851D01*
X55964Y-51422D02*
X55964Y-51022D01*
X55964Y-50822D02*
X55935Y-50851D01*
X55964Y-50880D01*
X55992Y-50851D01*
X55964Y-50822D01*
X55964Y-50880D01*
X56192Y-51022D02*
X56507Y-51022D01*
X56192Y-51422D01*
X56507Y-51422D01*
X56964Y-51394D02*
X56907Y-51422D01*
X56792Y-51422D01*
X56735Y-51394D01*
X56707Y-51337D01*
X56707Y-51108D01*
X56735Y-51051D01*
X56792Y-51022D01*
X56907Y-51022D01*
X56964Y-51051D01*
X56992Y-51108D01*
X56992Y-51165D01*
X56707Y-51222D01*
X57250Y-51365D02*
X57278Y-51394D01*
X57250Y-51422D01*
X57221Y-51394D01*
X57250Y-51365D01*
X57250Y-51422D01*
X57250Y-51051D02*
X57278Y-51080D01*
X57250Y-51108D01*
X57221Y-51080D01*
X57250Y-51051D01*
X57250Y-51108D01*
X57964Y-51251D02*
X58250Y-51251D01*
X57907Y-51422D02*
X58107Y-50822D01*
X58307Y-51422D01*
X58450Y-50822D02*
X58821Y-50822D01*
X58621Y-51051D01*
X58707Y-51051D01*
X58764Y-51080D01*
X58792Y-51108D01*
X58821Y-51165D01*
X58821Y-51308D01*
X58792Y-51365D01*
X58764Y-51394D01*
X58707Y-51422D01*
X58535Y-51422D01*
X58478Y-51394D01*
X58450Y-51365D01*
X88592Y-52622D02*
X88592Y-52022D01*
X89135Y-52622D02*
X89135Y-52022D01*
X89135Y-52594D02*
X89078Y-52622D01*
X88964Y-52622D01*
X88907Y-52594D01*
X88878Y-52565D01*
X88850Y-52508D01*
X88850Y-52337D01*
X88878Y-52280D01*
X88907Y-52251D01*
X88964Y-52222D01*
X89078Y-52222D01*
X89135Y-52251D01*
X89421Y-52565D02*
X89450Y-52594D01*
X89421Y-52622D01*
X89392Y-52594D01*
X89421Y-52565D01*
X89421Y-52622D01*
X89421Y-52251D02*
X89450Y-52280D01*
X89421Y-52308D01*
X89392Y-52280D01*
X89421Y-52251D01*
X89421Y-52308D01*
X90478Y-52622D02*
X90135Y-52622D01*
X90307Y-52622D02*
X90307Y-52022D01*
X90249Y-52108D01*
X90192Y-52165D01*
X90135Y-52194D01*
X91164Y-51994D02*
X90650Y-52765D01*
X91678Y-52622D02*
X91335Y-52622D01*
X91507Y-52622D02*
X91507Y-52022D01*
X91449Y-52108D01*
X91392Y-52165D01*
X91335Y-52194D01*
X55389Y-49622D02*
X55732Y-49622D01*
X55485Y-50222D02*
X55560Y-49622D01*
X55857Y-50222D02*
X55907Y-49822D01*
X55932Y-49622D02*
X55900Y-49651D01*
X55925Y-49680D01*
X55957Y-49651D01*
X55932Y-49622D01*
X55925Y-49680D01*
X56107Y-49822D02*
X56335Y-49822D01*
X56217Y-49622D02*
X56153Y-50137D01*
X56175Y-50194D01*
X56228Y-50222D01*
X56285Y-50222D01*
X56571Y-50222D02*
X56517Y-50194D01*
X56496Y-50137D01*
X56560Y-49622D01*
X57032Y-50194D02*
X56971Y-50222D01*
X56857Y-50222D01*
X56803Y-50194D01*
X56782Y-50137D01*
X56810Y-49908D01*
X56846Y-49851D01*
X56907Y-49822D01*
X57021Y-49822D01*
X57075Y-49851D01*
X57096Y-49908D01*
X57089Y-49965D01*
X56796Y-50022D01*
X57321Y-50165D02*
X57346Y-50194D01*
X57314Y-50222D01*
X57289Y-50194D01*
X57321Y-50165D01*
X57314Y-50222D01*
X57360Y-49851D02*
X57385Y-49880D01*
X57353Y-49908D01*
X57328Y-49880D01*
X57360Y-49851D01*
X57353Y-49908D01*
X55592Y-47508D02*
X55392Y-47508D01*
X55392Y-47822D02*
X55392Y-47222D01*
X55678Y-47222D01*
X55907Y-47822D02*
X55907Y-47422D01*
X55907Y-47222D02*
X55878Y-47251D01*
X55907Y-47280D01*
X55935Y-47251D01*
X55907Y-47222D01*
X55907Y-47280D01*
X56278Y-47822D02*
X56221Y-47794D01*
X56192Y-47737D01*
X56192Y-47222D01*
X56735Y-47794D02*
X56678Y-47822D01*
X56564Y-47822D01*
X56507Y-47794D01*
X56478Y-47737D01*
X56478Y-47508D01*
X56507Y-47451D01*
X56564Y-47422D01*
X56678Y-47422D01*
X56735Y-47451D01*
X56764Y-47508D01*
X56764Y-47565D01*
X56478Y-47622D01*
X57021Y-47765D02*
X57050Y-47794D01*
X57021Y-47822D01*
X56992Y-47794D01*
X57021Y-47765D01*
X57021Y-47822D01*
X57021Y-47451D02*
X57050Y-47480D01*
X57021Y-47508D01*
X56992Y-47480D01*
X57021Y-47451D01*
X57021Y-47508D01*
X58050Y-47822D02*
X57764Y-47822D01*
X57764Y-47222D01*
X58507Y-47794D02*
X58450Y-47822D01*
X58335Y-47822D01*
X58278Y-47794D01*
X58250Y-47765D01*
X58221Y-47708D01*
X58221Y-47537D01*
X58250Y-47480D01*
X58278Y-47451D01*
X58335Y-47422D01*
X58450Y-47422D01*
X58507Y-47451D01*
X59021Y-47822D02*
X59021Y-47222D01*
X59021Y-47794D02*
X58964Y-47822D01*
X58850Y-47822D01*
X58792Y-47794D01*
X58764Y-47765D01*
X58735Y-47708D01*
X58735Y-47537D01*
X58764Y-47480D01*
X58792Y-47451D01*
X58850Y-47422D01*
X58964Y-47422D01*
X59021Y-47451D01*
X59964Y-47508D02*
X60050Y-47537D01*
X60078Y-47565D01*
X60107Y-47622D01*
X60107Y-47708D01*
X60078Y-47765D01*
X60050Y-47794D01*
X59992Y-47822D01*
X59764Y-47822D01*
X59764Y-47222D01*
X59964Y-47222D01*
X60021Y-47251D01*
X60050Y-47280D01*
X60078Y-47337D01*
X60078Y-47394D01*
X60050Y-47451D01*
X60021Y-47480D01*
X59964Y-47508D01*
X59764Y-47508D01*
X60450Y-47822D02*
X60392Y-47794D01*
X60364Y-47765D01*
X60335Y-47708D01*
X60335Y-47537D01*
X60364Y-47480D01*
X60392Y-47451D01*
X60450Y-47422D01*
X60535Y-47422D01*
X60592Y-47451D01*
X60621Y-47480D01*
X60650Y-47537D01*
X60650Y-47708D01*
X60621Y-47765D01*
X60592Y-47794D01*
X60535Y-47822D01*
X60450Y-47822D01*
X60992Y-47822D02*
X60935Y-47794D01*
X60907Y-47765D01*
X60878Y-47708D01*
X60878Y-47537D01*
X60907Y-47480D01*
X60935Y-47451D01*
X60992Y-47422D01*
X61078Y-47422D01*
X61135Y-47451D01*
X61164Y-47480D01*
X61192Y-47537D01*
X61192Y-47708D01*
X61164Y-47765D01*
X61135Y-47794D01*
X61078Y-47822D01*
X60992Y-47822D01*
X61421Y-47794D02*
X61478Y-47822D01*
X61592Y-47822D01*
X61650Y-47794D01*
X61678Y-47737D01*
X61678Y-47708D01*
X61650Y-47651D01*
X61592Y-47622D01*
X61507Y-47622D01*
X61450Y-47594D01*
X61421Y-47537D01*
X61421Y-47508D01*
X61450Y-47451D01*
X61507Y-47422D01*
X61592Y-47422D01*
X61650Y-47451D01*
X61850Y-47422D02*
X62078Y-47422D01*
X61935Y-47222D02*
X61935Y-47737D01*
X61964Y-47794D01*
X62021Y-47822D01*
X62078Y-47822D01*
X62507Y-47794D02*
X62450Y-47822D01*
X62335Y-47822D01*
X62278Y-47794D01*
X62250Y-47737D01*
X62250Y-47508D01*
X62278Y-47451D01*
X62335Y-47422D01*
X62450Y-47422D01*
X62507Y-47451D01*
X62535Y-47508D01*
X62535Y-47565D01*
X62250Y-47622D01*
X62792Y-47822D02*
X62792Y-47422D01*
X62792Y-47537D02*
X62821Y-47480D01*
X62850Y-47451D01*
X62907Y-47422D01*
X62964Y-47422D01*
X63107Y-47222D02*
X63478Y-47222D01*
X63278Y-47451D01*
X63364Y-47451D01*
X63421Y-47480D01*
X63450Y-47508D01*
X63478Y-47565D01*
X63478Y-47708D01*
X63450Y-47765D01*
X63421Y-47794D01*
X63364Y-47822D01*
X63192Y-47822D01*
X63135Y-47794D01*
X63107Y-47765D01*
X63735Y-47765D02*
X63764Y-47794D01*
X63735Y-47822D01*
X63707Y-47794D01*
X63735Y-47765D01*
X63735Y-47822D01*
X64021Y-47822D02*
X64021Y-47222D01*
X64078Y-47594D02*
X64250Y-47822D01*
X64250Y-47422D02*
X64021Y-47651D01*
X64507Y-47822D02*
X64507Y-47422D01*
X64507Y-47222D02*
X64478Y-47251D01*
X64507Y-47280D01*
X64535Y-47251D01*
X64507Y-47222D01*
X64507Y-47280D01*
X65050Y-47794D02*
X64992Y-47822D01*
X64878Y-47822D01*
X64821Y-47794D01*
X64792Y-47765D01*
X64764Y-47708D01*
X64764Y-47537D01*
X64792Y-47480D01*
X64821Y-47451D01*
X64878Y-47422D01*
X64992Y-47422D01*
X65050Y-47451D01*
X65564Y-47822D02*
X65564Y-47508D01*
X65535Y-47451D01*
X65478Y-47422D01*
X65364Y-47422D01*
X65307Y-47451D01*
X65564Y-47794D02*
X65507Y-47822D01*
X65364Y-47822D01*
X65307Y-47794D01*
X65278Y-47737D01*
X65278Y-47680D01*
X65307Y-47622D01*
X65364Y-47594D01*
X65507Y-47594D01*
X65564Y-47565D01*
X66107Y-47822D02*
X66107Y-47222D01*
X66107Y-47794D02*
X66050Y-47822D01*
X65935Y-47822D01*
X65878Y-47794D01*
X65850Y-47765D01*
X65821Y-47708D01*
X65821Y-47537D01*
X65850Y-47480D01*
X65878Y-47451D01*
X65935Y-47422D01*
X66050Y-47422D01*
X66107Y-47451D01*
X66250Y-47880D02*
X66707Y-47880D01*
X66850Y-47422D02*
X66850Y-48022D01*
X66850Y-47451D02*
X66907Y-47422D01*
X67021Y-47422D01*
X67078Y-47451D01*
X67107Y-47480D01*
X67135Y-47537D01*
X67135Y-47708D01*
X67107Y-47765D01*
X67078Y-47794D01*
X67021Y-47822D01*
X66907Y-47822D01*
X66850Y-47794D01*
X67650Y-47794D02*
X67592Y-47822D01*
X67478Y-47822D01*
X67421Y-47794D01*
X67392Y-47765D01*
X67364Y-47708D01*
X67364Y-47537D01*
X67392Y-47480D01*
X67421Y-47451D01*
X67478Y-47422D01*
X67592Y-47422D01*
X67650Y-47451D01*
X67907Y-47822D02*
X67907Y-47222D01*
X67907Y-47451D02*
X67964Y-47422D01*
X68078Y-47422D01*
X68135Y-47451D01*
X68164Y-47480D01*
X68192Y-47537D01*
X68192Y-47708D01*
X68164Y-47765D01*
X68135Y-47794D01*
X68078Y-47822D01*
X67964Y-47822D01*
X67907Y-47794D01*
X55364Y-48994D02*
X55450Y-49022D01*
X55592Y-49022D01*
X55650Y-48994D01*
X55678Y-48965D01*
X55707Y-48908D01*
X55707Y-48851D01*
X55678Y-48794D01*
X55650Y-48765D01*
X55592Y-48737D01*
X55478Y-48708D01*
X55421Y-48680D01*
X55392Y-48651D01*
X55364Y-48594D01*
X55364Y-48537D01*
X55392Y-48480D01*
X55421Y-48451D01*
X55478Y-48422D01*
X55621Y-48422D01*
X55707Y-48451D01*
X55964Y-49022D02*
X55964Y-48422D01*
X56221Y-49022D02*
X56221Y-48708D01*
X56192Y-48651D01*
X56135Y-48622D01*
X56050Y-48622D01*
X55992Y-48651D01*
X55964Y-48680D01*
X56735Y-48994D02*
X56678Y-49022D01*
X56564Y-49022D01*
X56507Y-48994D01*
X56478Y-48937D01*
X56478Y-48708D01*
X56507Y-48651D01*
X56564Y-48622D01*
X56678Y-48622D01*
X56735Y-48651D01*
X56764Y-48708D01*
X56764Y-48765D01*
X56478Y-48822D01*
X57250Y-48994D02*
X57192Y-49022D01*
X57078Y-49022D01*
X57021Y-48994D01*
X56992Y-48937D01*
X56992Y-48708D01*
X57021Y-48651D01*
X57078Y-48622D01*
X57192Y-48622D01*
X57250Y-48651D01*
X57278Y-48708D01*
X57278Y-48765D01*
X56992Y-48822D01*
X57450Y-48622D02*
X57678Y-48622D01*
X57535Y-48422D02*
X57535Y-48937D01*
X57564Y-48994D01*
X57621Y-49022D01*
X57678Y-49022D01*
X57878Y-48965D02*
X57907Y-48994D01*
X57878Y-49022D01*
X57850Y-48994D01*
X57878Y-48965D01*
X57878Y-49022D01*
X57878Y-48651D02*
X57907Y-48680D01*
X57878Y-48708D01*
X57850Y-48680D01*
X57878Y-48651D01*
X57878Y-48708D01*
X54650Y-46980D02*
X54650Y-52980D01*
X54650Y-46980D02*
X96650Y-46980D01*
X54650Y-46980D02*
X96650Y-46980D01*
X54650Y-49380D02*
X96650Y-49380D01*
X87850Y-50580D02*
X87850Y-52980D01*
X54650Y-51780D02*
X96650Y-51780D01*
X54650Y-50580D02*
X96650Y-50580D01*
X61250Y-50580D02*
X61250Y-51780D01*
G54D11*
X34416Y16250D02*
G75*
G03X34416Y16250I-666J0D01*
G74*
G01*
X32750Y16250D02*
X34750Y16250D01*
X33750Y17250D02*
X33750Y15250D01*
X-583Y-1250D02*
G75*
G03X-583Y-1250I-666J0D01*
G74*
G01*
X-2250Y-1250D02*
X-250Y-1250D01*
X-1250Y-250D02*
X-1250Y-2250D01*
G54D12*
X32500Y0D02*
X0Y0D01*
X0Y0D02*
X0Y15000D01*
X32500Y15000D02*
X32500Y0D01*
X0Y15000D02*
X32500Y15000D01*
G54D13*
X26500Y11750D02*
X27500Y11750D01*
X27500Y11750D02*
X27500Y1750D01*
X27500Y1750D02*
X26500Y1750D01*
X26500Y1750D02*
X26500Y11750D01*
X26500Y10750D02*
X27500Y10750D01*
X25500Y11750D02*
X26500Y11750D01*
X26500Y11750D02*
X26500Y1750D01*
X26500Y1750D02*
X25500Y1750D01*
X25500Y1750D02*
X25500Y11750D01*
X25500Y10750D02*
X26500Y10750D01*
X9500Y11750D02*
X10500Y11750D01*
X10500Y11750D02*
X10500Y1750D01*
X10500Y1750D02*
X9500Y1750D01*
X9500Y1750D02*
X9500Y11750D01*
X9500Y10750D02*
X10500Y10750D01*
X8500Y11750D02*
X9500Y11750D01*
X9500Y11750D02*
X9500Y1750D01*
X9500Y1750D02*
X8500Y1750D01*
X8500Y1750D02*
X8500Y11750D01*
X8500Y10750D02*
X9500Y10750D01*
X29250Y14000D02*
X29250Y13000D01*
X29250Y13000D02*
X26250Y13000D01*
X26250Y13000D02*
X26250Y14000D01*
X26250Y14000D02*
X29250Y14000D01*
X28250Y13000D02*
X28250Y14000D01*
G54D14*
X3250Y13500D02*
G75*
G03X3250Y13500I-1500J0D01*
G74*
G01*
G54D11*
X2500Y6750D02*
X3000Y6750D01*
X3000Y6750D02*
X3000Y5750D01*
X3000Y5750D02*
X2500Y5750D01*
X2500Y7250D02*
X6500Y7250D01*
X6500Y7250D02*
X6500Y5250D01*
X6500Y5250D02*
X2500Y5250D01*
X2500Y5250D02*
X2500Y7250D01*
G54D14*
X22500Y3250D02*
X22000Y3250D01*
X22000Y3250D02*
X22000Y4250D01*
X22000Y4250D02*
X22500Y4250D01*
X22500Y2750D02*
X11500Y2750D01*
X11500Y2750D02*
X11500Y4750D01*
X11500Y4750D02*
X22500Y4750D01*
X22500Y4750D02*
X22500Y2750D01*
X22500Y7500D02*
X22000Y7500D01*
X22000Y7500D02*
X22000Y8500D01*
X22000Y8500D02*
X22500Y8500D01*
X22500Y7000D02*
X11500Y7000D01*
X11500Y7000D02*
X11500Y9000D01*
X11500Y9000D02*
X22500Y9000D01*
X22500Y9000D02*
X22500Y7000D01*
G54D13*
X3000Y12000D02*
X3000Y11700D01*
X3000Y11700D02*
X2600Y11700D01*
X2600Y11700D02*
X2600Y9300D01*
X2600Y9300D02*
X3000Y9300D01*
X3000Y9300D02*
X3000Y9000D01*
X3000Y9300D02*
X3400Y9300D01*
X3400Y9300D02*
X3400Y11700D01*
X3400Y11700D02*
X3000Y11700D01*
X2600Y11500D02*
X3400Y11500D01*
X3400Y11400D02*
X2600Y11400D01*
G54D14*
X15250Y11000D02*
X11750Y11000D01*
X11750Y11000D02*
X11750Y13000D01*
X11750Y13000D02*
X15250Y13000D01*
X15250Y13000D02*
X15250Y11000D01*
X15250Y11750D02*
X14750Y11750D01*
X14750Y11750D02*
X14750Y12250D01*
X14750Y12250D02*
X15250Y12250D01*
G54D15*
X2500Y10000D02*
G75*
G03X2500Y10000I-1250J0D01*
G74*
G01*
G54D13*
X3520Y3000D02*
X5500Y3000D01*
X5500Y3000D02*
X5500Y2000D01*
X5500Y2000D02*
X3500Y2000D01*
X3500Y2000D02*
X3500Y3000D01*
X3500Y2750D02*
X3750Y3000D01*
X6000Y1250D02*
X5700Y1250D01*
X5700Y1250D02*
X5700Y1650D01*
X5700Y1650D02*
X3300Y1650D01*
X3300Y1650D02*
X3300Y1250D01*
X3300Y1250D02*
X3000Y1250D01*
X3300Y1250D02*
X3300Y850D01*
X3300Y850D02*
X5700Y850D01*
X5700Y850D02*
X5700Y1250D01*
X5500Y1650D02*
X5500Y850D01*
X5400Y850D02*
X5400Y1650D01*
X2250Y7230D02*
X2250Y5250D01*
X2250Y5250D02*
X1250Y5250D01*
X1250Y5250D02*
X1250Y7250D01*
X1250Y7250D02*
X2250Y7250D01*
X2000Y7250D02*
X2250Y7000D01*
G54D14*
X3750Y12000D02*
X3750Y12250D01*
X3750Y12250D02*
X7750Y12250D01*
X7750Y12250D02*
X7750Y12000D01*
X3750Y10500D02*
X3750Y12000D01*
X3750Y12000D02*
X7750Y12000D01*
X7750Y12000D02*
X7750Y10500D01*
X7750Y10500D02*
X3750Y10500D01*
G54D13*
X8000Y2980D02*
X8000Y1000D01*
X8000Y1000D02*
X7000Y1000D01*
X7000Y1000D02*
X7000Y3000D01*
X7000Y3000D02*
X8000Y3000D01*
X7750Y3000D02*
X8000Y2750D01*
X7020Y14750D02*
X9000Y14750D01*
X9000Y14750D02*
X9000Y13750D01*
X9000Y13750D02*
X7000Y13750D01*
X7000Y13750D02*
X7000Y14750D01*
X7000Y14500D02*
X7250Y14750D01*
X22750Y2770D02*
X22750Y4750D01*
X22750Y4750D02*
X23750Y4750D01*
X23750Y4750D02*
X23750Y2750D01*
X23750Y2750D02*
X22750Y2750D01*
X23000Y2750D02*
X22750Y3000D01*
X22750Y7020D02*
X22750Y9000D01*
X22750Y9000D02*
X23750Y9000D01*
X23750Y9000D02*
X23750Y7000D01*
X23750Y7000D02*
X22750Y7000D01*
X23000Y7000D02*
X22750Y7250D01*
X15100Y13550D02*
X24900Y13550D01*
X24900Y17550D02*
X24900Y13550D01*
X24900Y17550D02*
X15100Y17550D01*
X19000Y14750D02*
X19000Y17550D01*
X15500Y14750D02*
X15500Y17550D01*
X15500Y14750D02*
X24500Y14750D01*
X24500Y17550D02*
X24500Y14750D01*
X21000Y17550D02*
X21000Y14750D01*
X15100Y13600D02*
X15100Y17550D01*
X17000Y14400D02*
X16700Y13900D01*
X16700Y13900D02*
X17300Y13900D01*
X17300Y13900D02*
X17000Y14400D01*
G54D15*
X6750Y13750D02*
G75*
G03X6750Y13750I-1250J0D01*
G74*
G01*
G54D13*
X32000Y6750D02*
X28000Y6750D01*
X28000Y6750D02*
X28000Y8750D01*
X28000Y8750D02*
X32000Y8750D01*
X32000Y8750D02*
X32000Y6750D01*
X32000Y10000D02*
X28000Y10000D01*
X28000Y10000D02*
X28000Y12000D01*
X28000Y12000D02*
X32000Y12000D01*
X32000Y12000D02*
X32000Y10000D01*
X32000Y3500D02*
X28000Y3500D01*
X28000Y3500D02*
X28000Y5500D01*
X28000Y5500D02*
X32000Y5500D01*
X32000Y5500D02*
X32000Y3500D01*
G54D16*
X650Y8000D02*
X650Y7800D01*
X650Y5000D02*
X650Y5200D01*
X650Y5200D02*
X1050Y5200D01*
X1050Y5200D02*
X1050Y7800D01*
X1050Y7800D02*
X250Y7800D01*
X250Y7800D02*
X250Y5200D01*
X250Y5200D02*
X650Y5200D01*
X850Y7800D02*
X1050Y7600D01*
X20000Y10500D02*
X20200Y10500D01*
X23000Y10500D02*
X22800Y10500D01*
X22800Y10500D02*
X22800Y10900D01*
X22800Y10900D02*
X20200Y10900D01*
X20200Y10900D02*
X20200Y10100D01*
X20200Y10100D02*
X22800Y10100D01*
X22800Y10100D02*
X22800Y10500D01*
X20200Y10700D02*
X20400Y10900D01*
X21000Y1500D02*
X21200Y1500D01*
X24000Y1500D02*
X23800Y1500D01*
X23800Y1500D02*
X23800Y1900D01*
X23800Y1900D02*
X21200Y1900D01*
X21200Y1900D02*
X21200Y1100D01*
X21200Y1100D02*
X23800Y1100D01*
X23800Y1100D02*
X23800Y1500D01*
X21200Y1700D02*
X21400Y1900D01*
X11100Y13800D02*
X11100Y13600D01*
X11100Y10800D02*
X11100Y11000D01*
X11100Y11000D02*
X11500Y11000D01*
X11500Y11000D02*
X11500Y13600D01*
X11500Y13600D02*
X10700Y13600D01*
X10700Y13600D02*
X10700Y11000D01*
X10700Y11000D02*
X11100Y11000D01*
X11300Y13600D02*
X11500Y13400D01*
X1000Y3750D02*
X1200Y3750D01*
X4000Y3750D02*
X3800Y3750D01*
X3800Y3750D02*
X3800Y4150D01*
X3800Y4150D02*
X1200Y4150D01*
X1200Y4150D02*
X1200Y3350D01*
X1200Y3350D02*
X3800Y3350D01*
X3800Y3350D02*
X3800Y3750D01*
X1200Y3950D02*
X1400Y4150D01*
X8000Y3750D02*
X7800Y3750D01*
X5000Y3750D02*
X5200Y3750D01*
X5200Y3750D02*
X5200Y3350D01*
X5200Y3350D02*
X7800Y3350D01*
X7800Y3350D02*
X7800Y4150D01*
X7800Y4150D02*
X5200Y4150D01*
X5200Y4150D02*
X5200Y3750D01*
X7800Y3550D02*
X7600Y3350D01*
X7250Y4750D02*
X7250Y4950D01*
X7250Y7750D02*
X7250Y7550D01*
X7250Y7550D02*
X6850Y7550D01*
X6850Y7550D02*
X6850Y4950D01*
X6850Y4950D02*
X7650Y4950D01*
X7650Y4950D02*
X7650Y7550D01*
X7650Y7550D02*
X7250Y7550D01*
X7050Y4950D02*
X6850Y5150D01*
G54D13*
X20000Y500D02*
X20000Y500D01*
X20000Y1500D02*
X20000Y500D01*
X20000Y500D02*
X20000Y500D01*
X20000Y500D02*
X16000Y500D01*
X16000Y500D02*
X16000Y1500D01*
X16000Y1500D02*
X20000Y1500D01*
X19000Y1500D02*
X19000Y500D01*
G54D14*
X3750Y10000D02*
X3750Y10250D01*
X3750Y10250D02*
X7750Y10250D01*
X7750Y10250D02*
X7750Y10000D01*
X3750Y8500D02*
X3750Y10000D01*
X3750Y10000D02*
X7750Y10000D01*
X7750Y10000D02*
X7750Y8500D01*
X7750Y8500D02*
X3750Y8500D01*
G54D10*
X26755Y11495D02*
X26755Y11005D01*
X27245Y11005D01*
X27245Y11495D01*
X26755Y11495D01*
X27245Y10250D02*
G75*
G03X27245Y10250I-245J0D01*
G74*
G01*
X27245Y9250D02*
G75*
G03X27245Y9250I-245J0D01*
G74*
G01*
X27245Y8250D02*
G75*
G03X27245Y8250I-245J0D01*
G74*
G01*
X27245Y7250D02*
G75*
G03X27245Y7250I-245J0D01*
G74*
G01*
X27245Y6250D02*
G75*
G03X27245Y6250I-245J0D01*
G74*
G01*
X27245Y5250D02*
G75*
G03X27245Y5250I-245J0D01*
G74*
G01*
X27245Y4250D02*
G75*
G03X27245Y4250I-245J0D01*
G74*
G01*
X27245Y3250D02*
G75*
G03X27245Y3250I-245J0D01*
G74*
G01*
X27245Y2250D02*
G75*
G03X27245Y2250I-245J0D01*
G74*
G01*
X25755Y11495D02*
X25755Y11005D01*
X26245Y11005D01*
X26245Y11495D01*
X25755Y11495D01*
X26245Y10250D02*
G75*
G03X26245Y10250I-245J0D01*
G74*
G01*
X26245Y9250D02*
G75*
G03X26245Y9250I-245J0D01*
G74*
G01*
X26245Y8250D02*
G75*
G03X26245Y8250I-245J0D01*
G74*
G01*
X26245Y7250D02*
G75*
G03X26245Y7250I-245J0D01*
G74*
G01*
X26245Y6250D02*
G75*
G03X26245Y6250I-245J0D01*
G74*
G01*
X26245Y5250D02*
G75*
G03X26245Y5250I-245J0D01*
G74*
G01*
X26245Y4250D02*
G75*
G03X26245Y4250I-245J0D01*
G74*
G01*
X26245Y3250D02*
G75*
G03X26245Y3250I-245J0D01*
G74*
G01*
X26245Y2250D02*
G75*
G03X26245Y2250I-245J0D01*
G74*
G01*
X9755Y11495D02*
X9755Y11005D01*
X10245Y11005D01*
X10245Y11495D01*
X9755Y11495D01*
X10245Y10250D02*
G75*
G03X10245Y10250I-245J0D01*
G74*
G01*
X10245Y9250D02*
G75*
G03X10245Y9250I-245J0D01*
G74*
G01*
X10245Y8250D02*
G75*
G03X10245Y8250I-245J0D01*
G74*
G01*
X10245Y7250D02*
G75*
G03X10245Y7250I-245J0D01*
G74*
G01*
X10245Y6250D02*
G75*
G03X10245Y6250I-245J0D01*
G74*
G01*
X10245Y5250D02*
G75*
G03X10245Y5250I-245J0D01*
G74*
G01*
X10245Y4250D02*
G75*
G03X10245Y4250I-245J0D01*
G74*
G01*
X10245Y3250D02*
G75*
G03X10245Y3250I-245J0D01*
G74*
G01*
X10245Y2250D02*
G75*
G03X10245Y2250I-245J0D01*
G74*
G01*
X8755Y11495D02*
X8755Y11005D01*
X9245Y11005D01*
X9245Y11495D01*
X8755Y11495D01*
X9245Y10250D02*
G75*
G03X9245Y10250I-245J0D01*
G74*
G01*
X9245Y9250D02*
G75*
G03X9245Y9250I-245J0D01*
G74*
G01*
X9245Y8250D02*
G75*
G03X9245Y8250I-245J0D01*
G74*
G01*
X9245Y7250D02*
G75*
G03X9245Y7250I-245J0D01*
G74*
G01*
X9245Y6250D02*
G75*
G03X9245Y6250I-245J0D01*
G74*
G01*
X9245Y5250D02*
G75*
G03X9245Y5250I-245J0D01*
G74*
G01*
X9245Y4250D02*
G75*
G03X9245Y4250I-245J0D01*
G74*
G01*
X9245Y3250D02*
G75*
G03X9245Y3250I-245J0D01*
G74*
G01*
X9245Y2250D02*
G75*
G03X9245Y2250I-245J0D01*
G74*
G01*
X28505Y13745D02*
X28505Y13255D01*
X28995Y13255D01*
X28995Y13745D01*
X28505Y13745D01*
X27995Y13500D02*
G75*
G03X27995Y13500I-245J0D01*
G74*
G01*
X26995Y13500D02*
G75*
G03X26995Y13500I-245J0D01*
G74*
G01*
X405Y13845D02*
X405Y13155D01*
X1095Y13155D01*
X1095Y13845D01*
X405Y13845D01*
X3095Y13500D02*
G75*
G03X3095Y13500I-345J0D01*
G74*
G01*
X2755Y4995D02*
X2755Y4505D01*
X3245Y4505D01*
X3245Y4995D01*
X2755Y4995D01*
X4245Y4750D02*
G75*
G03X4245Y4750I-245J0D01*
G74*
G01*
X5245Y4750D02*
G75*
G03X5245Y4750I-245J0D01*
G74*
G01*
X6245Y4750D02*
G75*
G03X6245Y4750I-245J0D01*
G74*
G01*
X6245Y7750D02*
G75*
G03X6245Y7750I-245J0D01*
G74*
G01*
X5245Y7750D02*
G75*
G03X5245Y7750I-245J0D01*
G74*
G01*
X4245Y7750D02*
G75*
G03X4245Y7750I-245J0D01*
G74*
G01*
X3245Y7750D02*
G75*
G03X3245Y7750I-245J0D01*
G74*
G01*
X21255Y5495D02*
X21255Y5005D01*
X21745Y5005D01*
X21745Y5495D01*
X21255Y5495D01*
X20745Y5250D02*
G75*
G03X20745Y5250I-245J0D01*
G74*
G01*
X19745Y5250D02*
G75*
G03X19745Y5250I-245J0D01*
G74*
G01*
X18745Y5250D02*
G75*
G03X18745Y5250I-245J0D01*
G74*
G01*
X17745Y5250D02*
G75*
G03X17745Y5250I-245J0D01*
G74*
G01*
X16745Y5250D02*
G75*
G03X16745Y5250I-245J0D01*
G74*
G01*
X15745Y5250D02*
G75*
G03X15745Y5250I-245J0D01*
G74*
G01*
X14745Y5250D02*
G75*
G03X14745Y5250I-245J0D01*
G74*
G01*
X13745Y5250D02*
G75*
G03X13745Y5250I-245J0D01*
G74*
G01*
X12745Y5250D02*
G75*
G03X12745Y5250I-245J0D01*
G74*
G01*
X12745Y2250D02*
G75*
G03X12745Y2250I-245J0D01*
G74*
G01*
X13745Y2250D02*
G75*
G03X13745Y2250I-245J0D01*
G74*
G01*
X14745Y2250D02*
G75*
G03X14745Y2250I-245J0D01*
G74*
G01*
X15745Y2250D02*
G75*
G03X15745Y2250I-245J0D01*
G74*
G01*
X16745Y2250D02*
G75*
G03X16745Y2250I-245J0D01*
G74*
G01*
X17745Y2250D02*
G75*
G03X17745Y2250I-245J0D01*
G74*
G01*
X18745Y2250D02*
G75*
G03X18745Y2250I-245J0D01*
G74*
G01*
X19745Y2250D02*
G75*
G03X19745Y2250I-245J0D01*
G74*
G01*
X20745Y2250D02*
G75*
G03X20745Y2250I-245J0D01*
G74*
G01*
X21745Y2250D02*
G75*
G03X21745Y2250I-245J0D01*
G74*
G01*
X21255Y9745D02*
X21255Y9255D01*
X21745Y9255D01*
X21745Y9745D01*
X21255Y9745D01*
X20745Y9500D02*
G75*
G03X20745Y9500I-245J0D01*
G74*
G01*
X19745Y9500D02*
G75*
G03X19745Y9500I-245J0D01*
G74*
G01*
X18745Y9500D02*
G75*
G03X18745Y9500I-245J0D01*
G74*
G01*
X17745Y9500D02*
G75*
G03X17745Y9500I-245J0D01*
G74*
G01*
X16745Y9500D02*
G75*
G03X16745Y9500I-245J0D01*
G74*
G01*
X15745Y9500D02*
G75*
G03X15745Y9500I-245J0D01*
G74*
G01*
X14745Y9500D02*
G75*
G03X14745Y9500I-245J0D01*
G74*
G01*
X13745Y9500D02*
G75*
G03X13745Y9500I-245J0D01*
G74*
G01*
X12745Y9500D02*
G75*
G03X12745Y9500I-245J0D01*
G74*
G01*
X12745Y6500D02*
G75*
G03X12745Y6500I-245J0D01*
G74*
G01*
X13745Y6500D02*
G75*
G03X13745Y6500I-245J0D01*
G74*
G01*
X14745Y6500D02*
G75*
G03X14745Y6500I-245J0D01*
G74*
G01*
X15745Y6500D02*
G75*
G03X15745Y6500I-245J0D01*
G74*
G01*
X16745Y6500D02*
G75*
G03X16745Y6500I-245J0D01*
G74*
G01*
X17745Y6500D02*
G75*
G03X17745Y6500I-245J0D01*
G74*
G01*
X18745Y6500D02*
G75*
G03X18745Y6500I-245J0D01*
G74*
G01*
X19745Y6500D02*
G75*
G03X19745Y6500I-245J0D01*
G74*
G01*
X20745Y6500D02*
G75*
G03X20745Y6500I-245J0D01*
G74*
G01*
X21745Y6500D02*
G75*
G03X21745Y6500I-245J0D01*
G74*
G01*
X2755Y12245D02*
X2755Y11755D01*
X3245Y11755D01*
X3245Y12245D01*
X2755Y12245D01*
X3245Y9000D02*
G75*
G03X3245Y9000I-245J0D01*
G74*
G01*
X14255Y13745D02*
X14255Y13255D01*
X14745Y13255D01*
X14745Y13745D01*
X14255Y13745D01*
X13745Y13500D02*
G75*
G03X13745Y13500I-245J0D01*
G74*
G01*
X12745Y13500D02*
G75*
G03X12745Y13500I-245J0D01*
G74*
G01*
X12745Y10500D02*
G75*
G03X12745Y10500I-245J0D01*
G74*
G01*
X13745Y10500D02*
G75*
G03X13745Y10500I-245J0D01*
G74*
G01*
X14745Y10500D02*
G75*
G03X14745Y10500I-245J0D01*
G74*
G01*
X980Y10770D02*
X980Y10230D01*
X1520Y10230D01*
X1520Y10770D01*
X980Y10770D01*
X1520Y9500D02*
G75*
G03X1520Y9500I-270J0D01*
G74*
G01*
X4245Y2500D02*
G75*
G03X4245Y2500I-245J0D01*
G74*
G01*
X5245Y2500D02*
G75*
G03X5245Y2500I-245J0D01*
G74*
G01*
X5755Y1495D02*
X5755Y1005D01*
X6245Y1005D01*
X6245Y1495D01*
X5755Y1495D01*
X3245Y1250D02*
G75*
G03X3245Y1250I-245J0D01*
G74*
G01*
X1995Y6750D02*
G75*
G03X1995Y6750I-245J0D01*
G74*
G01*
X1995Y5750D02*
G75*
G03X1995Y5750I-245J0D01*
G74*
G01*
X5070Y11250D02*
G75*
G03X5070Y11250I-320J0D01*
G74*
G01*
X6430Y11570D02*
X6430Y10930D01*
X7070Y10930D01*
X7070Y11570D01*
X6430Y11570D01*
X7745Y2500D02*
G75*
G03X7745Y2500I-245J0D01*
G74*
G01*
X7745Y1500D02*
G75*
G03X7745Y1500I-245J0D01*
G74*
G01*
X7745Y14250D02*
G75*
G03X7745Y14250I-245J0D01*
G74*
G01*
X8745Y14250D02*
G75*
G03X8745Y14250I-245J0D01*
G74*
G01*
X23495Y3250D02*
G75*
G03X23495Y3250I-245J0D01*
G74*
G01*
X23495Y4250D02*
G75*
G03X23495Y4250I-245J0D01*
G74*
G01*
X23495Y7500D02*
G75*
G03X23495Y7500I-245J0D01*
G74*
G01*
X23495Y8500D02*
G75*
G03X23495Y8500I-245J0D01*
G74*
G01*
X16730Y12520D02*
X16730Y11980D01*
X17270Y11980D01*
X17270Y12520D01*
X16730Y12520D01*
X17270Y13250D02*
G75*
G03X17270Y13250I-270J0D01*
G74*
G01*
X18270Y12250D02*
G75*
G03X18270Y12250I-270J0D01*
G74*
G01*
X18270Y13250D02*
G75*
G03X18270Y13250I-270J0D01*
G74*
G01*
X19270Y12250D02*
G75*
G03X19270Y12250I-270J0D01*
G74*
G01*
X19270Y13250D02*
G75*
G03X19270Y13250I-270J0D01*
G74*
G01*
X20270Y12250D02*
G75*
G03X20270Y12250I-270J0D01*
G74*
G01*
X20270Y13250D02*
G75*
G03X20270Y13250I-270J0D01*
G74*
G01*
X21270Y12250D02*
G75*
G03X21270Y12250I-270J0D01*
G74*
G01*
X21270Y13250D02*
G75*
G03X21270Y13250I-270J0D01*
G74*
G01*
X22270Y12250D02*
G75*
G03X22270Y12250I-270J0D01*
G74*
G01*
X22270Y13250D02*
G75*
G03X22270Y13250I-270J0D01*
G74*
G01*
X23270Y12250D02*
G75*
G03X23270Y12250I-270J0D01*
G74*
G01*
X23270Y13250D02*
G75*
G03X23270Y13250I-270J0D01*
G74*
G01*
X5730Y14020D02*
X5730Y13480D01*
X6270Y13480D01*
X6270Y14020D01*
X5730Y14020D01*
X5270Y13750D02*
G75*
G03X5270Y13750I-270J0D01*
G74*
G01*
X31230Y8520D02*
X31230Y7980D01*
X31770Y7980D01*
X31770Y8520D01*
X31230Y8520D01*
X31770Y7250D02*
G75*
G03X31770Y7250I-270J0D01*
G74*
G01*
X30770Y8250D02*
G75*
G03X30770Y8250I-270J0D01*
G74*
G01*
X30770Y7250D02*
G75*
G03X30770Y7250I-270J0D01*
G74*
G01*
X29770Y8250D02*
G75*
G03X29770Y8250I-270J0D01*
G74*
G01*
X29770Y7250D02*
G75*
G03X29770Y7250I-270J0D01*
G74*
G01*
X28770Y8250D02*
G75*
G03X28770Y8250I-270J0D01*
G74*
G01*
X28770Y7250D02*
G75*
G03X28770Y7250I-270J0D01*
G74*
G01*
X31230Y11770D02*
X31230Y11230D01*
X31770Y11230D01*
X31770Y11770D01*
X31230Y11770D01*
X31770Y10500D02*
G75*
G03X31770Y10500I-270J0D01*
G74*
G01*
X30770Y11500D02*
G75*
G03X30770Y11500I-270J0D01*
G74*
G01*
X30770Y10500D02*
G75*
G03X30770Y10500I-270J0D01*
G74*
G01*
X29770Y11500D02*
G75*
G03X29770Y11500I-270J0D01*
G74*
G01*
X29770Y10500D02*
G75*
G03X29770Y10500I-270J0D01*
G74*
G01*
X28770Y11500D02*
G75*
G03X28770Y11500I-270J0D01*
G74*
G01*
X28770Y10500D02*
G75*
G03X28770Y10500I-270J0D01*
G74*
G01*
X31230Y5270D02*
X31230Y4730D01*
X31770Y4730D01*
X31770Y5270D01*
X31230Y5270D01*
X31770Y4000D02*
G75*
G03X31770Y4000I-270J0D01*
G74*
G01*
X30770Y5000D02*
G75*
G03X30770Y5000I-270J0D01*
G74*
G01*
X30770Y4000D02*
G75*
G03X30770Y4000I-270J0D01*
G74*
G01*
X29770Y5000D02*
G75*
G03X29770Y5000I-270J0D01*
G74*
G01*
X29770Y4000D02*
G75*
G03X29770Y4000I-270J0D01*
G74*
G01*
X28770Y5000D02*
G75*
G03X28770Y5000I-270J0D01*
G74*
G01*
X28770Y4000D02*
G75*
G03X28770Y4000I-270J0D01*
G74*
G01*
X895Y8000D02*
G75*
G03X895Y8000I-245J0D01*
G74*
G01*
X895Y5000D02*
G75*
G03X895Y5000I-245J0D01*
G74*
G01*
X20245Y10500D02*
G75*
G03X20245Y10500I-245J0D01*
G74*
G01*
X23245Y10500D02*
G75*
G03X23245Y10500I-245J0D01*
G74*
G01*
X21245Y1500D02*
G75*
G03X21245Y1500I-245J0D01*
G74*
G01*
X24245Y1500D02*
G75*
G03X24245Y1500I-245J0D01*
G74*
G01*
X11345Y13800D02*
G75*
G03X11345Y13800I-245J0D01*
G74*
G01*
X11345Y10800D02*
G75*
G03X11345Y10800I-245J0D01*
G74*
G01*
X1245Y3750D02*
G75*
G03X1245Y3750I-245J0D01*
G74*
G01*
X4245Y3750D02*
G75*
G03X4245Y3750I-245J0D01*
G74*
G01*
X8245Y3750D02*
G75*
G03X8245Y3750I-245J0D01*
G74*
G01*
X5245Y3750D02*
G75*
G03X5245Y3750I-245J0D01*
G74*
G01*
X7495Y4750D02*
G75*
G03X7495Y4750I-245J0D01*
G74*
G01*
X7495Y7750D02*
G75*
G03X7495Y7750I-245J0D01*
G74*
G01*
X19255Y1245D02*
X19255Y755D01*
X19745Y755D01*
X19745Y1245D01*
X19255Y1245D01*
X18745Y1000D02*
G75*
G03X18745Y1000I-245J0D01*
G74*
G01*
X17745Y1000D02*
G75*
G03X17745Y1000I-245J0D01*
G74*
G01*
X16745Y1000D02*
G75*
G03X16745Y1000I-245J0D01*
G74*
G01*
X5070Y9250D02*
G75*
G03X5070Y9250I-320J0D01*
G74*
G01*
X6070Y9250D02*
G75*
G03X6070Y9250I-320J0D01*
G74*
G01*
X6430Y9570D02*
X6430Y8930D01*
X7070Y8930D01*
X7070Y9570D01*
X6430Y9570D01*
G54D17*
X26901Y12175D02*
X26901Y11964D01*
X26887Y11922D01*
X26859Y11894D01*
X26817Y11880D01*
X26789Y11880D01*
X27028Y12147D02*
X27042Y12161D01*
X27070Y12175D01*
X27140Y12175D01*
X27168Y12161D01*
X27182Y12147D01*
X27196Y12119D01*
X27196Y12091D01*
X27182Y12049D01*
X27014Y11880D01*
X27196Y11880D01*
X25901Y12175D02*
X25901Y11964D01*
X25887Y11922D01*
X25859Y11894D01*
X25817Y11880D01*
X25789Y11880D01*
X26168Y12077D02*
X26168Y11880D01*
X26098Y12189D02*
X26028Y11978D01*
X26210Y11978D01*
X9901Y12175D02*
X9901Y11964D01*
X9887Y11922D01*
X9859Y11894D01*
X9817Y11880D01*
X9789Y11880D01*
X10014Y12175D02*
X10196Y12175D01*
X10098Y12063D01*
X10140Y12063D01*
X10168Y12049D01*
X10182Y12035D01*
X10196Y12007D01*
X10196Y11936D01*
X10182Y11908D01*
X10168Y11894D01*
X10140Y11880D01*
X10056Y11880D01*
X10028Y11894D01*
X10014Y11908D01*
X8901Y12175D02*
X8901Y11964D01*
X8887Y11922D01*
X8859Y11894D01*
X8817Y11880D01*
X8789Y11880D01*
X9196Y11880D02*
X9028Y11880D01*
X9112Y11880D02*
X9112Y12175D01*
X9084Y12133D01*
X9056Y12105D01*
X9028Y12091D01*
X27574Y12380D02*
X27475Y12521D01*
X27405Y12380D02*
X27405Y12675D01*
X27517Y12675D01*
X27546Y12661D01*
X27560Y12647D01*
X27574Y12619D01*
X27574Y12577D01*
X27560Y12549D01*
X27546Y12535D01*
X27517Y12521D01*
X27405Y12521D01*
X27658Y12675D02*
X27757Y12380D01*
X27855Y12675D01*
X28108Y12380D02*
X27939Y12380D01*
X28024Y12380D02*
X28024Y12675D01*
X27996Y12633D01*
X27967Y12605D01*
X27939Y12591D01*
X950Y11630D02*
X810Y11630D01*
X810Y11925D01*
X1203Y11630D02*
X1035Y11630D01*
X1119Y11630D02*
X1119Y11925D01*
X1091Y11883D01*
X1063Y11855D01*
X1035Y11841D01*
X1224Y14447D02*
X1238Y14461D01*
X1266Y14475D01*
X1336Y14475D01*
X1364Y14461D01*
X1378Y14447D01*
X1393Y14419D01*
X1393Y14391D01*
X1378Y14349D01*
X1210Y14180D01*
X1393Y14180D01*
X1505Y14447D02*
X1519Y14461D01*
X1547Y14475D01*
X1617Y14475D01*
X1646Y14461D01*
X1660Y14447D01*
X1674Y14419D01*
X1674Y14391D01*
X1660Y14349D01*
X1491Y14180D01*
X1674Y14180D01*
X2152Y14377D02*
X2152Y14180D01*
X2025Y14377D02*
X2025Y14222D01*
X2039Y14194D01*
X2067Y14180D01*
X2110Y14180D01*
X2138Y14194D01*
X2152Y14208D01*
X2292Y14180D02*
X2292Y14475D01*
X2292Y14335D02*
X2461Y14335D01*
X2461Y14180D02*
X2461Y14475D01*
X2074Y4525D02*
X2313Y4525D01*
X2341Y4539D01*
X2355Y4553D01*
X2369Y4581D01*
X2369Y4637D01*
X2355Y4665D01*
X2341Y4679D01*
X2313Y4693D01*
X2074Y4693D01*
X2369Y4989D02*
X2369Y4820D01*
X2369Y4904D02*
X2074Y4904D01*
X2116Y4876D01*
X2144Y4848D01*
X2158Y4820D01*
X3712Y6130D02*
X3712Y6425D01*
X3811Y6214D01*
X3909Y6425D01*
X3909Y6130D01*
X4035Y6214D02*
X4176Y6214D01*
X4007Y6130D02*
X4106Y6425D01*
X4204Y6130D01*
X4275Y6425D02*
X4471Y6130D01*
X4471Y6425D02*
X4275Y6130D01*
X4556Y6425D02*
X4753Y6425D01*
X4626Y6130D01*
X4837Y6425D02*
X5034Y6425D01*
X4907Y6130D01*
X5273Y6327D02*
X5273Y6130D01*
X5203Y6439D02*
X5132Y6228D01*
X5315Y6228D01*
X10775Y3925D02*
X10775Y3686D01*
X10789Y3658D01*
X10803Y3644D01*
X10831Y3630D01*
X10887Y3630D01*
X10915Y3644D01*
X10929Y3658D01*
X10943Y3686D01*
X10943Y3925D01*
X11056Y3925D02*
X11239Y3925D01*
X11140Y3813D01*
X11182Y3813D01*
X11210Y3799D01*
X11224Y3785D01*
X11239Y3757D01*
X11239Y3686D01*
X11224Y3658D01*
X11210Y3644D01*
X11182Y3630D01*
X11098Y3630D01*
X11070Y3644D01*
X11056Y3658D01*
X15731Y3380D02*
X15731Y3675D01*
X15829Y3464D01*
X15928Y3675D01*
X15928Y3380D01*
X16054Y3394D02*
X16097Y3380D01*
X16167Y3380D01*
X16195Y3394D01*
X16209Y3408D01*
X16223Y3436D01*
X16223Y3464D01*
X16209Y3492D01*
X16195Y3507D01*
X16167Y3521D01*
X16111Y3535D01*
X16082Y3549D01*
X16068Y3563D01*
X16054Y3591D01*
X16054Y3619D01*
X16068Y3647D01*
X16082Y3661D01*
X16111Y3675D01*
X16181Y3675D01*
X16223Y3661D01*
X16350Y3380D02*
X16350Y3675D01*
X16462Y3675D01*
X16490Y3661D01*
X16504Y3647D01*
X16518Y3619D01*
X16518Y3577D01*
X16504Y3549D01*
X16490Y3535D01*
X16462Y3521D01*
X16350Y3521D01*
X16771Y3577D02*
X16771Y3380D01*
X16701Y3689D02*
X16631Y3478D01*
X16814Y3478D01*
X16898Y3675D02*
X17081Y3675D01*
X16982Y3563D01*
X17025Y3563D01*
X17053Y3549D01*
X17067Y3535D01*
X17081Y3507D01*
X17081Y3436D01*
X17067Y3408D01*
X17053Y3394D01*
X17025Y3380D01*
X16940Y3380D01*
X16912Y3394D01*
X16898Y3408D01*
X17264Y3675D02*
X17292Y3675D01*
X17320Y3661D01*
X17334Y3647D01*
X17348Y3619D01*
X17362Y3563D01*
X17362Y3492D01*
X17348Y3436D01*
X17334Y3408D01*
X17320Y3394D01*
X17292Y3380D01*
X17264Y3380D01*
X17235Y3394D01*
X17221Y3408D01*
X17207Y3436D01*
X17193Y3492D01*
X17193Y3563D01*
X17207Y3619D01*
X17221Y3647D01*
X17235Y3661D01*
X17264Y3675D01*
X17643Y3661D02*
X17615Y3675D01*
X17573Y3675D01*
X17531Y3661D01*
X17503Y3633D01*
X17489Y3605D01*
X17474Y3549D01*
X17474Y3507D01*
X17489Y3450D01*
X17503Y3422D01*
X17531Y3394D01*
X17573Y3380D01*
X17601Y3380D01*
X17643Y3394D01*
X17657Y3408D01*
X17657Y3507D01*
X17601Y3507D01*
X17770Y3647D02*
X17784Y3661D01*
X17812Y3675D01*
X17882Y3675D01*
X17910Y3661D01*
X17924Y3647D01*
X17938Y3619D01*
X17938Y3591D01*
X17924Y3549D01*
X17756Y3380D01*
X17938Y3380D01*
X18192Y3577D02*
X18192Y3380D01*
X18121Y3689D02*
X18051Y3478D01*
X18234Y3478D01*
X18487Y3675D02*
X18346Y3675D01*
X18332Y3535D01*
X18346Y3549D01*
X18374Y3563D01*
X18445Y3563D01*
X18473Y3549D01*
X18487Y3535D01*
X18501Y3507D01*
X18501Y3436D01*
X18487Y3408D01*
X18473Y3394D01*
X18445Y3380D01*
X18374Y3380D01*
X18346Y3394D01*
X18332Y3408D01*
X18613Y3647D02*
X18627Y3661D01*
X18656Y3675D01*
X18726Y3675D01*
X18754Y3661D01*
X18768Y3647D01*
X18782Y3619D01*
X18782Y3591D01*
X18768Y3549D01*
X18599Y3380D01*
X18782Y3380D01*
X10775Y8175D02*
X10775Y7936D01*
X10789Y7908D01*
X10803Y7894D01*
X10831Y7880D01*
X10887Y7880D01*
X10915Y7894D01*
X10929Y7908D01*
X10943Y7936D01*
X10943Y8175D01*
X11070Y8147D02*
X11084Y8161D01*
X11112Y8175D01*
X11182Y8175D01*
X11210Y8161D01*
X11224Y8147D01*
X11239Y8119D01*
X11239Y8091D01*
X11224Y8049D01*
X11056Y7880D01*
X11239Y7880D01*
X15329Y8175D02*
X15525Y8175D01*
X15399Y7880D01*
X15764Y8077D02*
X15764Y7880D01*
X15694Y8189D02*
X15624Y7978D01*
X15807Y7978D01*
X16060Y7880D02*
X15919Y7880D01*
X15919Y8175D01*
X16144Y7894D02*
X16186Y7880D01*
X16257Y7880D01*
X16285Y7894D01*
X16299Y7908D01*
X16313Y7936D01*
X16313Y7964D01*
X16299Y7992D01*
X16285Y8007D01*
X16257Y8021D01*
X16200Y8035D01*
X16172Y8049D01*
X16158Y8063D01*
X16144Y8091D01*
X16144Y8119D01*
X16158Y8147D01*
X16172Y8161D01*
X16200Y8175D01*
X16271Y8175D01*
X16313Y8161D01*
X16425Y8147D02*
X16439Y8161D01*
X16467Y8175D01*
X16538Y8175D01*
X16566Y8161D01*
X16580Y8147D01*
X16594Y8119D01*
X16594Y8091D01*
X16580Y8049D01*
X16411Y7880D01*
X16594Y7880D01*
X16847Y8077D02*
X16847Y7880D01*
X16777Y8189D02*
X16706Y7978D01*
X16889Y7978D01*
X17142Y8175D02*
X17002Y8175D01*
X16988Y8035D01*
X17002Y8049D01*
X17030Y8063D01*
X17100Y8063D01*
X17128Y8049D01*
X17142Y8035D01*
X17156Y8007D01*
X17156Y7936D01*
X17142Y7908D01*
X17128Y7894D01*
X17100Y7880D01*
X17030Y7880D01*
X17002Y7894D01*
X16988Y7908D01*
X2419Y11182D02*
X2124Y11182D01*
X2124Y11252D01*
X2138Y11294D01*
X2166Y11322D01*
X2194Y11336D01*
X2250Y11350D01*
X2292Y11350D01*
X2349Y11336D01*
X2377Y11322D01*
X2405Y11294D01*
X2419Y11252D01*
X2419Y11182D01*
X2419Y11632D02*
X2419Y11463D01*
X2419Y11547D02*
X2124Y11547D01*
X2166Y11519D01*
X2194Y11491D01*
X2208Y11463D01*
X16119Y11711D02*
X15824Y11711D01*
X16091Y12021D02*
X16105Y12007D01*
X16119Y11964D01*
X16119Y11936D01*
X16105Y11894D01*
X16077Y11866D01*
X16049Y11852D01*
X15992Y11838D01*
X15950Y11838D01*
X15894Y11852D01*
X15866Y11866D01*
X15838Y11894D01*
X15824Y11936D01*
X15824Y11964D01*
X15838Y12007D01*
X15852Y12021D01*
X16119Y12302D02*
X16119Y12133D01*
X16119Y12217D02*
X15824Y12217D01*
X15866Y12189D01*
X15894Y12161D01*
X15908Y12133D01*
X13120Y12077D02*
X13120Y11880D01*
X13050Y12189D02*
X12979Y11978D01*
X13162Y11978D01*
X13275Y11880D02*
X13275Y12175D01*
X13443Y11880D01*
X13443Y12175D01*
X13570Y12147D02*
X13584Y12161D01*
X13612Y12175D01*
X13682Y12175D01*
X13710Y12161D01*
X13724Y12147D01*
X13739Y12119D01*
X13739Y12091D01*
X13724Y12049D01*
X13556Y11880D01*
X13739Y11880D01*
X13992Y12175D02*
X13935Y12175D01*
X13907Y12161D01*
X13893Y12147D01*
X13865Y12105D01*
X13851Y12049D01*
X13851Y11936D01*
X13865Y11908D01*
X13879Y11894D01*
X13907Y11880D01*
X13964Y11880D01*
X13992Y11894D01*
X14006Y11908D01*
X14020Y11936D01*
X14020Y12007D01*
X14006Y12035D01*
X13992Y12049D01*
X13964Y12063D01*
X13907Y12063D01*
X13879Y12049D01*
X13865Y12035D01*
X13851Y12007D01*
X391Y8650D02*
X405Y8636D01*
X419Y8594D01*
X419Y8566D01*
X405Y8524D01*
X377Y8496D01*
X349Y8482D01*
X292Y8467D01*
X250Y8467D01*
X194Y8482D01*
X166Y8496D01*
X138Y8524D01*
X124Y8566D01*
X124Y8594D01*
X138Y8636D01*
X152Y8650D01*
X419Y8791D02*
X419Y8847D01*
X405Y8875D01*
X391Y8889D01*
X349Y8917D01*
X292Y8932D01*
X180Y8932D01*
X152Y8917D01*
X138Y8903D01*
X124Y8875D01*
X124Y8819D01*
X138Y8791D01*
X152Y8777D01*
X180Y8763D01*
X250Y8763D01*
X278Y8777D01*
X292Y8791D01*
X307Y8819D01*
X307Y8875D01*
X292Y8903D01*
X278Y8917D01*
X250Y8932D01*
X1772Y9543D02*
X1969Y9543D01*
X1660Y9472D02*
X1871Y9402D01*
X1871Y9585D01*
X1674Y9669D02*
X1674Y9866D01*
X1969Y9739D01*
X1772Y10330D02*
X1969Y10330D01*
X1772Y10203D02*
X1927Y10203D01*
X1955Y10217D01*
X1969Y10246D01*
X1969Y10288D01*
X1955Y10316D01*
X1941Y10330D01*
X1814Y10569D02*
X1814Y10471D01*
X1969Y10471D02*
X1674Y10471D01*
X1674Y10611D01*
X1257Y10887D02*
X1257Y11112D01*
X1369Y11000D02*
X1144Y11000D01*
X5800Y2158D02*
X5786Y2144D01*
X5744Y2130D01*
X5716Y2130D01*
X5674Y2144D01*
X5646Y2172D01*
X5632Y2200D01*
X5617Y2257D01*
X5617Y2299D01*
X5632Y2355D01*
X5646Y2383D01*
X5674Y2411D01*
X5716Y2425D01*
X5744Y2425D01*
X5786Y2411D01*
X5800Y2397D01*
X6053Y2425D02*
X5997Y2425D01*
X5969Y2411D01*
X5955Y2397D01*
X5927Y2355D01*
X5913Y2299D01*
X5913Y2186D01*
X5927Y2158D01*
X5941Y2144D01*
X5969Y2130D01*
X6025Y2130D01*
X6053Y2144D01*
X6067Y2158D01*
X6082Y2186D01*
X6082Y2257D01*
X6067Y2285D01*
X6053Y2299D01*
X6025Y2313D01*
X5969Y2313D01*
X5941Y2299D01*
X5927Y2285D01*
X5913Y2257D01*
X3382Y430D02*
X3382Y725D01*
X3452Y725D01*
X3494Y711D01*
X3522Y683D01*
X3536Y655D01*
X3550Y599D01*
X3550Y557D01*
X3536Y500D01*
X3522Y472D01*
X3494Y444D01*
X3452Y430D01*
X3382Y430D01*
X3663Y697D02*
X3677Y711D01*
X3705Y725D01*
X3775Y725D01*
X3803Y711D01*
X3817Y697D01*
X3832Y669D01*
X3832Y641D01*
X3817Y599D01*
X3649Y430D01*
X3832Y430D01*
X1700Y7658D02*
X1686Y7644D01*
X1644Y7630D01*
X1616Y7630D01*
X1574Y7644D01*
X1546Y7672D01*
X1532Y7700D01*
X1517Y7757D01*
X1517Y7799D01*
X1532Y7855D01*
X1546Y7883D01*
X1574Y7911D01*
X1616Y7925D01*
X1644Y7925D01*
X1686Y7911D01*
X1700Y7897D01*
X1799Y7925D02*
X1996Y7925D01*
X1869Y7630D01*
X31010Y3630D02*
X31010Y3925D01*
X31109Y3714D01*
X31207Y3925D01*
X31207Y3630D01*
X31334Y3897D02*
X31348Y3911D01*
X31376Y3925D01*
X31446Y3925D01*
X31474Y3911D01*
X31489Y3897D01*
X31503Y3869D01*
X31503Y3841D01*
X31489Y3799D01*
X31320Y3630D01*
X31503Y3630D01*
X3619Y11200D02*
X3478Y11102D01*
X3619Y11032D02*
X3324Y11032D01*
X3324Y11144D01*
X3338Y11172D01*
X3352Y11186D01*
X3380Y11200D01*
X3422Y11200D01*
X3450Y11186D01*
X3464Y11172D01*
X3478Y11144D01*
X3478Y11032D01*
X3324Y11453D02*
X3324Y11397D01*
X3338Y11369D01*
X3352Y11355D01*
X3394Y11327D01*
X3450Y11313D01*
X3563Y11313D01*
X3591Y11327D01*
X3605Y11341D01*
X3619Y11369D01*
X3619Y11425D01*
X3605Y11453D01*
X3591Y11467D01*
X3563Y11482D01*
X3492Y11482D01*
X3464Y11467D01*
X3450Y11453D01*
X3436Y11425D01*
X3436Y11369D01*
X3450Y11341D01*
X3464Y11327D01*
X3492Y11313D01*
X5574Y11025D02*
X5574Y11053D01*
X5588Y11081D01*
X5602Y11095D01*
X5630Y11109D01*
X5686Y11123D01*
X5757Y11123D01*
X5813Y11109D01*
X5841Y11095D01*
X5855Y11081D01*
X5869Y11053D01*
X5869Y11025D01*
X5855Y10996D01*
X5841Y10982D01*
X5813Y10968D01*
X5757Y10954D01*
X5686Y10954D01*
X5630Y10968D01*
X5602Y10982D01*
X5588Y10996D01*
X5574Y11025D01*
X5841Y11250D02*
X5855Y11264D01*
X5869Y11250D01*
X5855Y11235D01*
X5841Y11250D01*
X5869Y11250D01*
X5602Y11376D02*
X5588Y11390D01*
X5574Y11418D01*
X5574Y11489D01*
X5588Y11517D01*
X5602Y11531D01*
X5630Y11545D01*
X5658Y11545D01*
X5700Y11531D01*
X5869Y11362D01*
X5869Y11545D01*
X8441Y1200D02*
X8455Y1186D01*
X8469Y1144D01*
X8469Y1116D01*
X8455Y1074D01*
X8427Y1046D01*
X8399Y1032D01*
X8342Y1017D01*
X8300Y1017D01*
X8244Y1032D01*
X8216Y1046D01*
X8188Y1074D01*
X8174Y1116D01*
X8174Y1144D01*
X8188Y1186D01*
X8202Y1200D01*
X8174Y1299D02*
X8174Y1482D01*
X8286Y1383D01*
X8286Y1425D01*
X8300Y1453D01*
X8314Y1467D01*
X8342Y1482D01*
X8413Y1482D01*
X8441Y1467D01*
X8455Y1453D01*
X8469Y1425D01*
X8469Y1341D01*
X8455Y1313D01*
X8441Y1299D01*
X9341Y14200D02*
X9355Y14186D01*
X9369Y14144D01*
X9369Y14116D01*
X9355Y14074D01*
X9327Y14046D01*
X9299Y14032D01*
X9242Y14017D01*
X9200Y14017D01*
X9144Y14032D01*
X9116Y14046D01*
X9088Y14074D01*
X9074Y14116D01*
X9074Y14144D01*
X9088Y14186D01*
X9102Y14200D01*
X9369Y14482D02*
X9369Y14313D01*
X9369Y14397D02*
X9074Y14397D01*
X9116Y14369D01*
X9144Y14341D01*
X9158Y14313D01*
X24141Y3750D02*
X24155Y3736D01*
X24169Y3694D01*
X24169Y3666D01*
X24155Y3624D01*
X24127Y3596D01*
X24099Y3582D01*
X24042Y3567D01*
X24000Y3567D01*
X23944Y3582D01*
X23916Y3596D01*
X23888Y3624D01*
X23874Y3666D01*
X23874Y3694D01*
X23888Y3736D01*
X23902Y3750D01*
X23972Y4003D02*
X24169Y4003D01*
X23860Y3933D02*
X24071Y3863D01*
X24071Y4046D01*
X24141Y7950D02*
X24155Y7936D01*
X24169Y7894D01*
X24169Y7866D01*
X24155Y7824D01*
X24127Y7796D01*
X24099Y7782D01*
X24042Y7767D01*
X24000Y7767D01*
X23944Y7782D01*
X23916Y7796D01*
X23888Y7824D01*
X23874Y7866D01*
X23874Y7894D01*
X23888Y7936D01*
X23902Y7950D01*
X23874Y8217D02*
X23874Y8077D01*
X24014Y8063D01*
X24000Y8077D01*
X23986Y8105D01*
X23986Y8175D01*
X24000Y8203D01*
X24014Y8217D01*
X24042Y8232D01*
X24113Y8232D01*
X24141Y8217D01*
X24155Y8203D01*
X24169Y8175D01*
X24169Y8105D01*
X24155Y8077D01*
X24141Y8063D01*
X1010Y3630D02*
X1010Y3925D01*
X1109Y3714D01*
X1207Y3925D01*
X1207Y3630D01*
X1503Y3630D02*
X1334Y3630D01*
X1418Y3630D02*
X1418Y3925D01*
X1390Y3883D01*
X1362Y3855D01*
X1334Y3841D01*
X23682Y12630D02*
X23682Y12925D01*
X23794Y12925D01*
X23822Y12911D01*
X23836Y12897D01*
X23850Y12869D01*
X23850Y12827D01*
X23836Y12799D01*
X23822Y12785D01*
X23794Y12771D01*
X23682Y12771D01*
X24132Y12630D02*
X23963Y12630D01*
X24047Y12630D02*
X24047Y12925D01*
X24019Y12883D01*
X23991Y12855D01*
X23963Y12841D01*
X19093Y13908D02*
X19079Y13894D01*
X19036Y13880D01*
X19008Y13880D01*
X18966Y13894D01*
X18938Y13922D01*
X18924Y13950D01*
X18910Y14007D01*
X18910Y14049D01*
X18924Y14105D01*
X18938Y14133D01*
X18966Y14161D01*
X19008Y14175D01*
X19036Y14175D01*
X19079Y14161D01*
X19093Y14147D01*
X19275Y14175D02*
X19332Y14175D01*
X19360Y14161D01*
X19388Y14133D01*
X19402Y14077D01*
X19402Y13978D01*
X19388Y13922D01*
X19360Y13894D01*
X19332Y13880D01*
X19275Y13880D01*
X19247Y13894D01*
X19219Y13922D01*
X19205Y13978D01*
X19205Y14077D01*
X19219Y14133D01*
X19247Y14161D01*
X19275Y14175D01*
X19528Y13880D02*
X19528Y14175D01*
X19697Y13880D01*
X19697Y14175D01*
X19838Y13880D02*
X19838Y14175D01*
X20007Y13880D01*
X20007Y14175D01*
X20077Y13852D02*
X20302Y13852D01*
X20344Y14175D02*
X20541Y14175D01*
X20414Y13880D01*
X20625Y14175D02*
X20822Y13880D01*
X20822Y14175D02*
X20625Y13880D01*
X20920Y14147D02*
X20935Y14161D01*
X20963Y14175D01*
X21033Y14175D01*
X21061Y14161D01*
X21075Y14147D01*
X21089Y14119D01*
X21089Y14091D01*
X21075Y14049D01*
X20906Y13880D01*
X21089Y13880D01*
X4000Y14408D02*
X3986Y14394D01*
X3944Y14380D01*
X3916Y14380D01*
X3874Y14394D01*
X3846Y14422D01*
X3832Y14450D01*
X3817Y14507D01*
X3817Y14549D01*
X3832Y14605D01*
X3846Y14633D01*
X3874Y14661D01*
X3916Y14675D01*
X3944Y14675D01*
X3986Y14661D01*
X4000Y14647D01*
X4113Y14647D02*
X4127Y14661D01*
X4155Y14675D01*
X4225Y14675D01*
X4253Y14661D01*
X4267Y14647D01*
X4282Y14619D01*
X4282Y14591D01*
X4267Y14549D01*
X4099Y14380D01*
X4282Y14380D01*
X5143Y13027D02*
X5143Y12830D01*
X5072Y13139D02*
X5002Y12928D01*
X5185Y12928D01*
X5269Y13125D02*
X5466Y13125D01*
X5339Y12830D01*
X5930Y13027D02*
X5930Y12830D01*
X5803Y13027D02*
X5803Y12872D01*
X5817Y12844D01*
X5846Y12830D01*
X5888Y12830D01*
X5916Y12844D01*
X5930Y12858D01*
X6169Y12985D02*
X6071Y12985D01*
X6071Y12830D02*
X6071Y13125D01*
X6211Y13125D01*
X6387Y13742D02*
X6612Y13742D01*
X6500Y13630D02*
X6500Y13855D01*
X29535Y8980D02*
X29535Y9275D01*
X29634Y9064D01*
X29732Y9275D01*
X29732Y8980D01*
X29873Y8980D02*
X29873Y9275D01*
X30000Y8994D02*
X30042Y8980D01*
X30112Y8980D01*
X30140Y8994D01*
X30154Y9008D01*
X30168Y9036D01*
X30168Y9064D01*
X30154Y9092D01*
X30140Y9107D01*
X30112Y9121D01*
X30056Y9135D01*
X30028Y9149D01*
X30014Y9163D01*
X30000Y9191D01*
X30000Y9219D01*
X30014Y9247D01*
X30028Y9261D01*
X30056Y9275D01*
X30126Y9275D01*
X30168Y9261D01*
X30351Y9275D02*
X30407Y9275D01*
X30435Y9261D01*
X30464Y9233D01*
X30478Y9177D01*
X30478Y9078D01*
X30464Y9022D01*
X30435Y8994D01*
X30407Y8980D01*
X30351Y8980D01*
X30323Y8994D01*
X30295Y9022D01*
X30281Y9078D01*
X30281Y9177D01*
X30295Y9233D01*
X30323Y9261D01*
X30351Y9275D01*
X27958Y6625D02*
X28141Y6625D01*
X28043Y6513D01*
X28085Y6513D01*
X28113Y6499D01*
X28127Y6485D01*
X28141Y6457D01*
X28141Y6386D01*
X28127Y6358D01*
X28113Y6344D01*
X28085Y6330D01*
X28000Y6330D01*
X27972Y6344D01*
X27958Y6358D01*
X28478Y6639D02*
X28225Y6260D01*
X28732Y6330D02*
X28563Y6330D01*
X28647Y6330D02*
X28647Y6625D01*
X28619Y6583D01*
X28591Y6555D01*
X28563Y6541D01*
X28956Y6485D02*
X28999Y6471D01*
X29013Y6457D01*
X29027Y6428D01*
X29027Y6386D01*
X29013Y6358D01*
X28999Y6344D01*
X28971Y6330D01*
X28858Y6330D01*
X28858Y6625D01*
X28956Y6625D01*
X28985Y6611D01*
X28999Y6597D01*
X29013Y6569D01*
X29013Y6541D01*
X28999Y6513D01*
X28985Y6499D01*
X28956Y6485D01*
X28858Y6485D01*
X29415Y6597D02*
X29429Y6611D01*
X29457Y6625D01*
X29528Y6625D01*
X29556Y6611D01*
X29570Y6597D01*
X29584Y6569D01*
X29584Y6541D01*
X29570Y6499D01*
X29401Y6330D01*
X29584Y6330D01*
X30457Y6330D02*
X30289Y6330D01*
X30373Y6330D02*
X30373Y6625D01*
X30345Y6583D01*
X30317Y6555D01*
X30289Y6541D01*
X30570Y6414D02*
X30710Y6414D01*
X30542Y6330D02*
X30640Y6625D01*
X30739Y6330D01*
X31485Y6675D02*
X31514Y6675D01*
X31542Y6661D01*
X31556Y6647D01*
X31570Y6619D01*
X31584Y6563D01*
X31584Y6492D01*
X31570Y6436D01*
X31556Y6408D01*
X31542Y6394D01*
X31514Y6380D01*
X31485Y6380D01*
X31457Y6394D01*
X31443Y6408D01*
X31429Y6436D01*
X31415Y6492D01*
X31415Y6563D01*
X31429Y6619D01*
X31443Y6647D01*
X31457Y6661D01*
X31485Y6675D01*
X29535Y12230D02*
X29535Y12525D01*
X29634Y12314D01*
X29732Y12525D01*
X29732Y12230D01*
X29929Y12525D02*
X29985Y12525D01*
X30014Y12511D01*
X30042Y12483D01*
X30056Y12427D01*
X30056Y12328D01*
X30042Y12272D01*
X30014Y12244D01*
X29985Y12230D01*
X29929Y12230D01*
X29901Y12244D01*
X29873Y12272D01*
X29859Y12328D01*
X29859Y12427D01*
X29873Y12483D01*
X29901Y12511D01*
X29929Y12525D01*
X30168Y12244D02*
X30210Y12230D01*
X30281Y12230D01*
X30309Y12244D01*
X30323Y12258D01*
X30337Y12286D01*
X30337Y12314D01*
X30323Y12342D01*
X30309Y12357D01*
X30281Y12371D01*
X30224Y12385D01*
X30196Y12399D01*
X30182Y12413D01*
X30168Y12441D01*
X30168Y12469D01*
X30182Y12497D01*
X30196Y12511D01*
X30224Y12525D01*
X30295Y12525D01*
X30337Y12511D01*
X30464Y12230D02*
X30464Y12525D01*
X27958Y9875D02*
X28141Y9875D01*
X28043Y9763D01*
X28085Y9763D01*
X28113Y9749D01*
X28127Y9735D01*
X28141Y9707D01*
X28141Y9636D01*
X28127Y9608D01*
X28113Y9594D01*
X28085Y9580D01*
X28000Y9580D01*
X27972Y9594D01*
X27958Y9608D01*
X28478Y9889D02*
X28225Y9510D01*
X28732Y9580D02*
X28563Y9580D01*
X28647Y9580D02*
X28647Y9875D01*
X28619Y9833D01*
X28591Y9805D01*
X28563Y9791D01*
X28956Y9735D02*
X28999Y9721D01*
X29013Y9707D01*
X29027Y9678D01*
X29027Y9636D01*
X29013Y9608D01*
X28999Y9594D01*
X28971Y9580D01*
X28858Y9580D01*
X28858Y9875D01*
X28956Y9875D01*
X28985Y9861D01*
X28999Y9847D01*
X29013Y9819D01*
X29013Y9791D01*
X28999Y9763D01*
X28985Y9749D01*
X28956Y9735D01*
X28858Y9735D01*
X29415Y9847D02*
X29429Y9861D01*
X29457Y9875D01*
X29528Y9875D01*
X29556Y9861D01*
X29570Y9847D01*
X29584Y9819D01*
X29584Y9791D01*
X29570Y9749D01*
X29401Y9580D01*
X29584Y9580D01*
X30457Y9580D02*
X30289Y9580D01*
X30373Y9580D02*
X30373Y9875D01*
X30345Y9833D01*
X30317Y9805D01*
X30289Y9791D01*
X30570Y9664D02*
X30710Y9664D01*
X30542Y9580D02*
X30640Y9875D01*
X30739Y9580D01*
X31485Y9925D02*
X31514Y9925D01*
X31542Y9911D01*
X31556Y9897D01*
X31570Y9869D01*
X31584Y9813D01*
X31584Y9742D01*
X31570Y9686D01*
X31556Y9658D01*
X31542Y9644D01*
X31514Y9630D01*
X31485Y9630D01*
X31457Y9644D01*
X31443Y9658D01*
X31429Y9686D01*
X31415Y9742D01*
X31415Y9813D01*
X31429Y9869D01*
X31443Y9897D01*
X31457Y9911D01*
X31485Y9925D01*
X29500Y5744D02*
X29543Y5730D01*
X29613Y5730D01*
X29641Y5744D01*
X29655Y5758D01*
X29669Y5786D01*
X29669Y5814D01*
X29655Y5842D01*
X29641Y5857D01*
X29613Y5871D01*
X29557Y5885D01*
X29528Y5899D01*
X29514Y5913D01*
X29500Y5941D01*
X29500Y5969D01*
X29514Y5997D01*
X29528Y6011D01*
X29557Y6025D01*
X29627Y6025D01*
X29669Y6011D01*
X29964Y5758D02*
X29950Y5744D01*
X29908Y5730D01*
X29880Y5730D01*
X29838Y5744D01*
X29810Y5772D01*
X29796Y5800D01*
X29782Y5857D01*
X29782Y5899D01*
X29796Y5955D01*
X29810Y5983D01*
X29838Y6011D01*
X29880Y6025D01*
X29908Y6025D01*
X29950Y6011D01*
X29964Y5997D01*
X30232Y5730D02*
X30091Y5730D01*
X30091Y6025D01*
X30330Y5730D02*
X30330Y6025D01*
X30499Y5730D02*
X30372Y5899D01*
X30499Y6025D02*
X30330Y5857D01*
X27958Y3375D02*
X28141Y3375D01*
X28043Y3263D01*
X28085Y3263D01*
X28113Y3249D01*
X28127Y3235D01*
X28141Y3207D01*
X28141Y3136D01*
X28127Y3108D01*
X28113Y3094D01*
X28085Y3080D01*
X28000Y3080D01*
X27972Y3094D01*
X27958Y3108D01*
X28478Y3389D02*
X28225Y3010D01*
X28732Y3080D02*
X28563Y3080D01*
X28647Y3080D02*
X28647Y3375D01*
X28619Y3333D01*
X28591Y3305D01*
X28563Y3291D01*
X28956Y3235D02*
X28999Y3221D01*
X29013Y3207D01*
X29027Y3178D01*
X29027Y3136D01*
X29013Y3108D01*
X28999Y3094D01*
X28971Y3080D01*
X28858Y3080D01*
X28858Y3375D01*
X28956Y3375D01*
X28985Y3361D01*
X28999Y3347D01*
X29013Y3319D01*
X29013Y3291D01*
X28999Y3263D01*
X28985Y3249D01*
X28956Y3235D01*
X28858Y3235D01*
X29415Y3347D02*
X29429Y3361D01*
X29457Y3375D01*
X29528Y3375D01*
X29556Y3361D01*
X29570Y3347D01*
X29584Y3319D01*
X29584Y3291D01*
X29570Y3249D01*
X29401Y3080D01*
X29584Y3080D01*
X30457Y3080D02*
X30289Y3080D01*
X30373Y3080D02*
X30373Y3375D01*
X30345Y3333D01*
X30317Y3305D01*
X30289Y3291D01*
X30570Y3164D02*
X30710Y3164D01*
X30542Y3080D02*
X30640Y3375D01*
X30739Y3080D01*
X31485Y3425D02*
X31514Y3425D01*
X31542Y3411D01*
X31556Y3397D01*
X31570Y3369D01*
X31584Y3313D01*
X31584Y3242D01*
X31570Y3186D01*
X31556Y3158D01*
X31542Y3144D01*
X31514Y3130D01*
X31485Y3130D01*
X31457Y3144D01*
X31443Y3158D01*
X31429Y3186D01*
X31415Y3242D01*
X31415Y3313D01*
X31429Y3369D01*
X31443Y3397D01*
X31457Y3411D01*
X31485Y3425D01*
X1469Y4800D02*
X1328Y4702D01*
X1469Y4632D02*
X1174Y4632D01*
X1174Y4744D01*
X1188Y4772D01*
X1202Y4786D01*
X1230Y4800D01*
X1272Y4800D01*
X1300Y4786D01*
X1314Y4772D01*
X1328Y4744D01*
X1328Y4632D01*
X1469Y4941D02*
X1469Y4997D01*
X1455Y5025D01*
X1441Y5039D01*
X1399Y5067D01*
X1342Y5082D01*
X1230Y5082D01*
X1202Y5067D01*
X1188Y5053D01*
X1174Y5025D01*
X1174Y4969D01*
X1188Y4941D01*
X1202Y4927D01*
X1230Y4913D01*
X1300Y4913D01*
X1328Y4927D01*
X1342Y4941D01*
X1357Y4969D01*
X1357Y5025D01*
X1342Y5053D01*
X1328Y5067D01*
X1300Y5082D01*
X719Y6436D02*
X719Y6267D01*
X719Y6352D02*
X424Y6352D01*
X466Y6324D01*
X494Y6296D01*
X508Y6267D01*
X719Y6563D02*
X424Y6563D01*
X719Y6732D02*
X550Y6605D01*
X424Y6732D02*
X592Y6563D01*
X21150Y11130D02*
X21052Y11271D01*
X20982Y11130D02*
X20982Y11425D01*
X21094Y11425D01*
X21122Y11411D01*
X21136Y11397D01*
X21150Y11369D01*
X21150Y11327D01*
X21136Y11299D01*
X21122Y11285D01*
X21094Y11271D01*
X20982Y11271D01*
X21432Y11130D02*
X21263Y11130D01*
X21347Y11130D02*
X21347Y11425D01*
X21319Y11383D01*
X21291Y11355D01*
X21263Y11341D01*
X21275Y10597D02*
X21289Y10611D01*
X21317Y10625D01*
X21387Y10625D01*
X21415Y10611D01*
X21429Y10597D01*
X21443Y10569D01*
X21443Y10541D01*
X21429Y10499D01*
X21260Y10330D01*
X21443Y10330D01*
X21626Y10625D02*
X21654Y10625D01*
X21682Y10611D01*
X21696Y10597D01*
X21710Y10569D01*
X21724Y10513D01*
X21724Y10442D01*
X21710Y10386D01*
X21696Y10358D01*
X21682Y10344D01*
X21654Y10330D01*
X21626Y10330D01*
X21598Y10344D01*
X21584Y10358D01*
X21570Y10386D01*
X21556Y10442D01*
X21556Y10513D01*
X21570Y10569D01*
X21584Y10597D01*
X21598Y10611D01*
X21626Y10625D01*
X23150Y730D02*
X23052Y871D01*
X22982Y730D02*
X22982Y1025D01*
X23094Y1025D01*
X23122Y1011D01*
X23136Y997D01*
X23150Y969D01*
X23150Y927D01*
X23136Y899D01*
X23122Y885D01*
X23094Y871D01*
X22982Y871D01*
X23263Y997D02*
X23277Y1011D01*
X23305Y1025D01*
X23375Y1025D01*
X23403Y1011D01*
X23417Y997D01*
X23432Y969D01*
X23432Y941D01*
X23417Y899D01*
X23249Y730D01*
X23432Y730D01*
X22267Y1527D02*
X22267Y1330D01*
X22197Y1639D02*
X22127Y1428D01*
X22310Y1428D01*
X22422Y1330D02*
X22422Y1625D01*
X22591Y1330D02*
X22464Y1499D01*
X22591Y1625D02*
X22422Y1457D01*
X22689Y1625D02*
X22886Y1625D01*
X22760Y1330D01*
X10569Y13200D02*
X10428Y13102D01*
X10569Y13032D02*
X10274Y13032D01*
X10274Y13144D01*
X10288Y13172D01*
X10302Y13186D01*
X10330Y13200D01*
X10372Y13200D01*
X10400Y13186D01*
X10414Y13172D01*
X10428Y13144D01*
X10428Y13032D01*
X10274Y13299D02*
X10274Y13482D01*
X10386Y13383D01*
X10386Y13425D01*
X10400Y13453D01*
X10414Y13467D01*
X10442Y13482D01*
X10513Y13482D01*
X10541Y13467D01*
X10555Y13453D01*
X10569Y13425D01*
X10569Y13341D01*
X10555Y13313D01*
X10541Y13299D01*
X11169Y12103D02*
X11169Y11934D01*
X11169Y12018D02*
X10874Y12018D01*
X10916Y11990D01*
X10944Y11962D01*
X10958Y11934D01*
X10874Y12285D02*
X10874Y12314D01*
X10888Y12342D01*
X10902Y12356D01*
X10930Y12370D01*
X10986Y12384D01*
X11057Y12384D01*
X11113Y12370D01*
X11141Y12356D01*
X11155Y12342D01*
X11169Y12314D01*
X11169Y12285D01*
X11155Y12257D01*
X11141Y12243D01*
X11113Y12229D01*
X11057Y12215D01*
X10986Y12215D01*
X10930Y12229D01*
X10902Y12243D01*
X10888Y12257D01*
X10874Y12285D01*
X10874Y12567D02*
X10874Y12595D01*
X10888Y12623D01*
X10902Y12637D01*
X10930Y12651D01*
X10986Y12665D01*
X11057Y12665D01*
X11113Y12651D01*
X11141Y12637D01*
X11155Y12623D01*
X11169Y12595D01*
X11169Y12567D01*
X11155Y12539D01*
X11141Y12524D01*
X11113Y12510D01*
X11057Y12496D01*
X10986Y12496D01*
X10930Y12510D01*
X10902Y12524D01*
X10888Y12539D01*
X10874Y12567D01*
X2450Y2980D02*
X2352Y3121D01*
X2282Y2980D02*
X2282Y3275D01*
X2394Y3275D01*
X2422Y3261D01*
X2436Y3247D01*
X2450Y3219D01*
X2450Y3177D01*
X2436Y3149D01*
X2422Y3135D01*
X2394Y3121D01*
X2282Y3121D01*
X2549Y3275D02*
X2746Y3275D01*
X2619Y2980D01*
X2035Y3847D02*
X2050Y3861D01*
X2078Y3875D01*
X2148Y3875D01*
X2176Y3861D01*
X2190Y3847D01*
X2204Y3819D01*
X2204Y3791D01*
X2190Y3749D01*
X2021Y3580D01*
X2204Y3580D01*
X2331Y3608D02*
X2345Y3594D01*
X2331Y3580D01*
X2317Y3594D01*
X2331Y3608D01*
X2331Y3580D01*
X2443Y3875D02*
X2640Y3875D01*
X2514Y3580D01*
X2753Y3580D02*
X2753Y3875D01*
X2851Y3664D01*
X2949Y3875D01*
X2949Y3580D01*
X6150Y2930D02*
X6052Y3071D01*
X5982Y2930D02*
X5982Y3225D01*
X6094Y3225D01*
X6122Y3211D01*
X6136Y3197D01*
X6150Y3169D01*
X6150Y3127D01*
X6136Y3099D01*
X6122Y3085D01*
X6094Y3071D01*
X5982Y3071D01*
X6417Y3225D02*
X6277Y3225D01*
X6263Y3085D01*
X6277Y3099D01*
X6305Y3113D01*
X6375Y3113D01*
X6403Y3099D01*
X6417Y3085D01*
X6432Y3057D01*
X6432Y2986D01*
X6417Y2958D01*
X6403Y2944D01*
X6375Y2930D01*
X6305Y2930D01*
X6277Y2944D01*
X6263Y2958D01*
X6155Y3680D02*
X5986Y3680D01*
X6071Y3680D02*
X6071Y3975D01*
X6043Y3933D01*
X6014Y3905D01*
X5986Y3891D01*
X6422Y3975D02*
X6282Y3975D01*
X6267Y3835D01*
X6282Y3849D01*
X6310Y3863D01*
X6380Y3863D01*
X6408Y3849D01*
X6422Y3835D01*
X6436Y3807D01*
X6436Y3736D01*
X6422Y3708D01*
X6408Y3694D01*
X6380Y3680D01*
X6310Y3680D01*
X6282Y3694D01*
X6267Y3708D01*
X6619Y3975D02*
X6647Y3975D01*
X6675Y3961D01*
X6689Y3947D01*
X6703Y3919D01*
X6717Y3863D01*
X6717Y3792D01*
X6703Y3736D01*
X6689Y3708D01*
X6675Y3694D01*
X6647Y3680D01*
X6619Y3680D01*
X6591Y3694D01*
X6577Y3708D01*
X6563Y3736D01*
X6549Y3792D01*
X6549Y3863D01*
X6563Y3919D01*
X6577Y3947D01*
X6591Y3961D01*
X6619Y3975D01*
X6844Y3680D02*
X6844Y3975D01*
X7013Y3680D02*
X6886Y3849D01*
X7013Y3975D02*
X6844Y3807D01*
X8019Y5200D02*
X7878Y5102D01*
X8019Y5032D02*
X7724Y5032D01*
X7724Y5144D01*
X7738Y5172D01*
X7752Y5186D01*
X7780Y5200D01*
X7822Y5200D01*
X7850Y5186D01*
X7864Y5172D01*
X7878Y5144D01*
X7878Y5032D01*
X7822Y5453D02*
X8019Y5453D01*
X7710Y5383D02*
X7921Y5313D01*
X7921Y5496D01*
X7222Y6017D02*
X7419Y6017D01*
X7110Y5947D02*
X7321Y5877D01*
X7321Y6060D01*
X7419Y6172D02*
X7124Y6172D01*
X7419Y6341D02*
X7250Y6214D01*
X7124Y6341D02*
X7292Y6172D01*
X7124Y6439D02*
X7124Y6636D01*
X7419Y6510D01*
X20182Y530D02*
X20182Y825D01*
X20294Y825D01*
X20322Y811D01*
X20336Y797D01*
X20350Y769D01*
X20350Y727D01*
X20336Y699D01*
X20322Y685D01*
X20294Y671D01*
X20182Y671D01*
X20463Y797D02*
X20477Y811D01*
X20505Y825D01*
X20575Y825D01*
X20603Y811D01*
X20617Y797D01*
X20632Y769D01*
X20632Y741D01*
X20617Y699D01*
X20449Y530D01*
X20632Y530D01*
X16275Y461D02*
X16246Y475D01*
X16204Y475D01*
X16162Y461D01*
X16134Y433D01*
X16120Y405D01*
X16106Y349D01*
X16106Y307D01*
X16120Y250D01*
X16134Y222D01*
X16162Y194D01*
X16204Y180D01*
X16232Y180D01*
X16275Y194D01*
X16289Y208D01*
X16289Y307D01*
X16232Y307D01*
X16415Y180D02*
X16415Y475D01*
X16584Y180D01*
X16584Y475D01*
X16724Y180D02*
X16724Y475D01*
X16795Y475D01*
X16837Y461D01*
X16865Y433D01*
X16879Y405D01*
X16893Y349D01*
X16893Y307D01*
X16879Y250D01*
X16865Y222D01*
X16837Y194D01*
X16795Y180D01*
X16724Y180D01*
X17338Y180D02*
X17239Y321D01*
X17169Y180D02*
X17169Y475D01*
X17282Y475D01*
X17310Y461D01*
X17324Y447D01*
X17338Y419D01*
X17338Y377D01*
X17324Y349D01*
X17310Y335D01*
X17282Y321D01*
X17169Y321D01*
X17450Y194D02*
X17492Y180D01*
X17563Y180D01*
X17591Y194D01*
X17605Y208D01*
X17619Y236D01*
X17619Y264D01*
X17605Y292D01*
X17591Y307D01*
X17563Y321D01*
X17507Y335D01*
X17478Y349D01*
X17464Y363D01*
X17450Y391D01*
X17450Y419D01*
X17464Y447D01*
X17478Y461D01*
X17507Y475D01*
X17577Y475D01*
X17619Y461D01*
X17703Y475D02*
X17872Y475D01*
X17788Y180D02*
X17788Y475D01*
X18262Y475D02*
X18431Y475D01*
X18346Y180D02*
X18346Y475D01*
X18515Y194D02*
X18557Y180D01*
X18628Y180D01*
X18656Y194D01*
X18670Y208D01*
X18684Y236D01*
X18684Y264D01*
X18670Y292D01*
X18656Y307D01*
X18628Y321D01*
X18571Y335D01*
X18543Y349D01*
X18529Y363D01*
X18515Y391D01*
X18515Y419D01*
X18529Y447D01*
X18543Y461D01*
X18571Y475D01*
X18642Y475D01*
X18684Y461D01*
X18768Y475D02*
X18937Y475D01*
X18853Y180D02*
X18853Y475D01*
X19310Y292D02*
X19535Y292D01*
X19423Y180D02*
X19423Y405D01*
X19634Y475D02*
X19732Y180D01*
X19831Y475D01*
X3421Y8252D02*
X3393Y8266D01*
X3365Y8294D01*
X3323Y8336D01*
X3295Y8350D01*
X3267Y8350D01*
X3281Y8280D02*
X3253Y8294D01*
X3225Y8322D01*
X3210Y8378D01*
X3210Y8477D01*
X3225Y8533D01*
X3253Y8561D01*
X3281Y8575D01*
X3337Y8575D01*
X3365Y8561D01*
X3393Y8533D01*
X3407Y8477D01*
X3407Y8378D01*
X3393Y8322D01*
X3365Y8294D01*
X3337Y8280D01*
X3281Y8280D01*
X3689Y8280D02*
X3520Y8280D01*
X3604Y8280D02*
X3604Y8575D01*
X3576Y8533D01*
X3548Y8505D01*
X3520Y8491D01*
X7415Y8744D02*
X7457Y8730D01*
X7528Y8730D01*
X7556Y8744D01*
X7570Y8758D01*
X7584Y8786D01*
X7584Y8814D01*
X7570Y8842D01*
X7556Y8857D01*
X7528Y8871D01*
X7471Y8885D01*
X7443Y8899D01*
X7429Y8913D01*
X7415Y8941D01*
X7415Y8969D01*
X7429Y8997D01*
X7443Y9011D01*
X7471Y9025D01*
X7542Y9025D01*
X7584Y9011D01*
X5172Y8680D02*
X5172Y8975D01*
X5242Y8975D01*
X5285Y8961D01*
X5313Y8933D01*
X5327Y8905D01*
X5341Y8849D01*
X5341Y8807D01*
X5327Y8750D01*
X5313Y8722D01*
X5285Y8694D01*
X5242Y8680D01*
X5172Y8680D01*
X4177Y9011D02*
X4149Y9025D01*
X4107Y9025D01*
X4064Y9011D01*
X4036Y8983D01*
X4022Y8955D01*
X4008Y8899D01*
X4008Y8857D01*
X4022Y8800D01*
X4036Y8772D01*
X4064Y8744D01*
X4107Y8730D01*
X4135Y8730D01*
X4177Y8744D01*
X4191Y8758D01*
X4191Y8857D01*
X4135Y8857D01*
%LPC*%
G54D18*
X27000Y11250D03*
G54D19*
X27000Y10250D03*
X27000Y9250D03*
X27000Y8250D03*
X27000Y7250D03*
X27000Y6250D03*
X27000Y5250D03*
X27000Y4250D03*
X27000Y3250D03*
X27000Y2250D03*
G54D18*
X26000Y11250D03*
G54D19*
X26000Y10250D03*
X26000Y9250D03*
X26000Y8250D03*
X26000Y7250D03*
X26000Y6250D03*
X26000Y5250D03*
X26000Y4250D03*
X26000Y3250D03*
X26000Y2250D03*
G54D18*
X10000Y11250D03*
G54D19*
X10000Y10250D03*
X10000Y9250D03*
X10000Y8250D03*
X10000Y7250D03*
X10000Y6250D03*
X10000Y5250D03*
X10000Y4250D03*
X10000Y3250D03*
X10000Y2250D03*
G54D18*
X9000Y11250D03*
G54D19*
X9000Y10250D03*
X9000Y9250D03*
X9000Y8250D03*
X9000Y7250D03*
X9000Y6250D03*
X9000Y5250D03*
X9000Y4250D03*
X9000Y3250D03*
X9000Y2250D03*
G54D18*
X28750Y13500D03*
G54D19*
X27750Y13500D03*
X26750Y13500D03*
G54D20*
X750Y13500D03*
G54D21*
X2750Y13500D03*
G54D18*
X3000Y4750D03*
G54D19*
X4000Y4750D03*
X5000Y4750D03*
X6000Y4750D03*
X6000Y7750D03*
X5000Y7750D03*
X4000Y7750D03*
X3000Y7750D03*
G54D18*
X21500Y5250D03*
G54D19*
X20500Y5250D03*
X19500Y5250D03*
X18500Y5250D03*
X17500Y5250D03*
X16500Y5250D03*
X15500Y5250D03*
X14500Y5250D03*
X13500Y5250D03*
X12500Y5250D03*
X12500Y2250D03*
X13500Y2250D03*
X14500Y2250D03*
X15500Y2250D03*
X16500Y2250D03*
X17500Y2250D03*
X18500Y2250D03*
X19500Y2250D03*
X20500Y2250D03*
X21500Y2250D03*
G54D18*
X21500Y9500D03*
G54D19*
X20500Y9500D03*
X19500Y9500D03*
X18500Y9500D03*
X17500Y9500D03*
X16500Y9500D03*
X15500Y9500D03*
X14500Y9500D03*
X13500Y9500D03*
X12500Y9500D03*
X12500Y6500D03*
X13500Y6500D03*
X14500Y6500D03*
X15500Y6500D03*
X16500Y6500D03*
X17500Y6500D03*
X18500Y6500D03*
X19500Y6500D03*
X20500Y6500D03*
X21500Y6500D03*
G54D18*
X3000Y12000D03*
G54D19*
X3000Y9000D03*
G54D18*
X14500Y13500D03*
G54D19*
X13500Y13500D03*
X12500Y13500D03*
X12500Y10500D03*
X13500Y10500D03*
X14500Y10500D03*
G54D22*
X1250Y10500D03*
G54D23*
X1250Y9500D03*
G54D19*
X4000Y2500D03*
X5000Y2500D03*
G54D18*
X6000Y1250D03*
G54D19*
X3000Y1250D03*
X1750Y6750D03*
X1750Y5750D03*
G54D24*
X4750Y11250D03*
G54D25*
X6750Y11250D03*
G54D19*
X7500Y2500D03*
X7500Y1500D03*
X7500Y14250D03*
X8500Y14250D03*
X23250Y3250D03*
X23250Y4250D03*
X23250Y7500D03*
X23250Y8500D03*
G54D22*
X17000Y12250D03*
G54D23*
X17000Y13250D03*
X18000Y12250D03*
X18000Y13250D03*
X19000Y12250D03*
X19000Y13250D03*
X20000Y12250D03*
X20000Y13250D03*
X21000Y12250D03*
X21000Y13250D03*
X22000Y12250D03*
X22000Y13250D03*
X23000Y12250D03*
X23000Y13250D03*
G54D22*
X6000Y13750D03*
G54D23*
X5000Y13750D03*
G54D22*
X31500Y8250D03*
G54D23*
X31500Y7250D03*
X30500Y8250D03*
X30500Y7250D03*
X29500Y8250D03*
X29500Y7250D03*
X28500Y8250D03*
X28500Y7250D03*
G54D22*
X31500Y11500D03*
G54D23*
X31500Y10500D03*
X30500Y11500D03*
X30500Y10500D03*
X29500Y11500D03*
X29500Y10500D03*
X28500Y11500D03*
X28500Y10500D03*
G54D22*
X31500Y5000D03*
G54D23*
X31500Y4000D03*
X30500Y5000D03*
X30500Y4000D03*
X29500Y5000D03*
X29500Y4000D03*
X28500Y5000D03*
X28500Y4000D03*
G54D19*
X650Y8000D03*
X650Y5000D03*
X20000Y10500D03*
X23000Y10500D03*
X21000Y1500D03*
X24000Y1500D03*
X11100Y13800D03*
X11100Y10800D03*
X1000Y3750D03*
X4000Y3750D03*
X8000Y3750D03*
X5000Y3750D03*
X7250Y4750D03*
X7250Y7750D03*
G54D18*
X19500Y1000D03*
G54D19*
X18500Y1000D03*
X17500Y1000D03*
X16500Y1000D03*
G54D24*
X4750Y9250D03*
X5750Y9250D03*
G54D25*
X6750Y9250D03*
M02*
