G04 (created by PCBNEW (2012-nov-02)-testing) date Mon 07 Jan 2013 06:01:39 PM PST*
%MOIN*%
G04 Gerber Fmt 3.4, Leading zero omitted, Abs format*
%FSLAX34Y34*%
G01*
G70*
G90*
G04 APERTURE LIST*
%ADD10C,0.006*%
%ADD11C,0.01*%
%ADD12C,0.0059*%
%ADD13R,0.055X0.055*%
%ADD14C,0.055*%
%ADD15R,0.075X0.075*%
%ADD16C,0.075*%
%ADD17R,0.06X0.06*%
%ADD18C,0.06*%
%ADD19C,0.2*%
%ADD20C,0.07*%
%ADD21R,0.07X0.07*%
%ADD22C,0.045*%
%ADD23C,0.035*%
%ADD24C,0.02*%
%ADD25C,0.012*%
G04 APERTURE END LIST*
G54D10*
X-60000Y55250D02*
X97350Y55250D01*
X97350Y-53680D01*
X-60000Y-53680D01*
X-60000Y55250D01*
X-59300Y54550D02*
X96650Y54550D01*
X96650Y-52980D01*
X-59300Y-52980D01*
X-59300Y54550D01*
X-37530Y55250D02*
X-37530Y54550D01*
X-48617Y54697D02*
X-48902Y54697D01*
X-48760Y54697D02*
X-48760Y55197D01*
X-48807Y55126D01*
X-48855Y55078D01*
X-48902Y55054D01*
X-37530Y-53680D02*
X-37530Y-52980D01*
X-48617Y-53532D02*
X-48902Y-53532D01*
X-48760Y-53532D02*
X-48760Y-53032D01*
X-48807Y-53103D01*
X-48855Y-53151D01*
X-48902Y-53175D01*
X-15060Y55250D02*
X-15060Y54550D01*
X-26432Y55150D02*
X-26409Y55173D01*
X-26361Y55197D01*
X-26242Y55197D01*
X-26194Y55173D01*
X-26170Y55150D01*
X-26147Y55102D01*
X-26147Y55054D01*
X-26170Y54983D01*
X-26456Y54697D01*
X-26147Y54697D01*
X-15060Y-53680D02*
X-15060Y-52980D01*
X-26432Y-53080D02*
X-26409Y-53056D01*
X-26361Y-53032D01*
X-26242Y-53032D01*
X-26194Y-53056D01*
X-26170Y-53080D01*
X-26147Y-53127D01*
X-26147Y-53175D01*
X-26170Y-53246D01*
X-26456Y-53532D01*
X-26147Y-53532D01*
X7410Y55250D02*
X7410Y54550D01*
X-3986Y55197D02*
X-3677Y55197D01*
X-3843Y55007D01*
X-3772Y55007D01*
X-3724Y54983D01*
X-3700Y54959D01*
X-3677Y54911D01*
X-3677Y54792D01*
X-3700Y54745D01*
X-3724Y54721D01*
X-3772Y54697D01*
X-3915Y54697D01*
X-3962Y54721D01*
X-3986Y54745D01*
X7410Y-53680D02*
X7410Y-52980D01*
X-3986Y-53032D02*
X-3677Y-53032D01*
X-3843Y-53222D01*
X-3772Y-53222D01*
X-3724Y-53246D01*
X-3700Y-53270D01*
X-3677Y-53318D01*
X-3677Y-53437D01*
X-3700Y-53484D01*
X-3724Y-53508D01*
X-3772Y-53532D01*
X-3915Y-53532D01*
X-3962Y-53508D01*
X-3986Y-53484D01*
X29880Y55250D02*
X29880Y54550D01*
X18745Y55030D02*
X18745Y54697D01*
X18626Y55221D02*
X18507Y54864D01*
X18816Y54864D01*
X29880Y-53680D02*
X29880Y-52980D01*
X18745Y-53199D02*
X18745Y-53532D01*
X18626Y-53008D02*
X18507Y-53365D01*
X18816Y-53365D01*
X52350Y55250D02*
X52350Y54550D01*
X41239Y55197D02*
X41000Y55197D01*
X40977Y54959D01*
X41000Y54983D01*
X41048Y55007D01*
X41167Y55007D01*
X41215Y54983D01*
X41239Y54959D01*
X41262Y54911D01*
X41262Y54792D01*
X41239Y54745D01*
X41215Y54721D01*
X41167Y54697D01*
X41048Y54697D01*
X41000Y54721D01*
X40977Y54745D01*
X52350Y-53680D02*
X52350Y-52980D01*
X41239Y-53032D02*
X41000Y-53032D01*
X40977Y-53270D01*
X41000Y-53246D01*
X41048Y-53222D01*
X41167Y-53222D01*
X41215Y-53246D01*
X41239Y-53270D01*
X41262Y-53318D01*
X41262Y-53437D01*
X41239Y-53484D01*
X41215Y-53508D01*
X41167Y-53532D01*
X41048Y-53532D01*
X41000Y-53508D01*
X40977Y-53484D01*
X74820Y55250D02*
X74820Y54550D01*
X63685Y55197D02*
X63590Y55197D01*
X63542Y55173D01*
X63518Y55150D01*
X63470Y55078D01*
X63447Y54983D01*
X63447Y54792D01*
X63470Y54745D01*
X63494Y54721D01*
X63542Y54697D01*
X63637Y54697D01*
X63685Y54721D01*
X63709Y54745D01*
X63732Y54792D01*
X63732Y54911D01*
X63709Y54959D01*
X63685Y54983D01*
X63637Y55007D01*
X63542Y55007D01*
X63494Y54983D01*
X63470Y54959D01*
X63447Y54911D01*
X74820Y-53680D02*
X74820Y-52980D01*
X63685Y-53032D02*
X63590Y-53032D01*
X63542Y-53056D01*
X63518Y-53080D01*
X63470Y-53151D01*
X63447Y-53246D01*
X63447Y-53437D01*
X63470Y-53484D01*
X63494Y-53508D01*
X63542Y-53532D01*
X63637Y-53532D01*
X63685Y-53508D01*
X63709Y-53484D01*
X63732Y-53437D01*
X63732Y-53318D01*
X63709Y-53270D01*
X63685Y-53246D01*
X63637Y-53222D01*
X63542Y-53222D01*
X63494Y-53246D01*
X63470Y-53270D01*
X63447Y-53318D01*
X85893Y55197D02*
X86226Y55197D01*
X86012Y54697D01*
X85893Y-53032D02*
X86226Y-53032D01*
X86012Y-53532D01*
X-60000Y33470D02*
X-59300Y33470D01*
X-59769Y44300D02*
X-59530Y44300D01*
X-59816Y44157D02*
X-59649Y44657D01*
X-59483Y44157D01*
X97350Y33470D02*
X96650Y33470D01*
X96880Y44300D02*
X97119Y44300D01*
X96833Y44157D02*
X97000Y44657D01*
X97166Y44157D01*
X-60000Y11690D02*
X-59300Y11690D01*
X-59614Y22639D02*
X-59542Y22615D01*
X-59519Y22591D01*
X-59495Y22544D01*
X-59495Y22472D01*
X-59519Y22425D01*
X-59542Y22401D01*
X-59590Y22377D01*
X-59780Y22377D01*
X-59780Y22877D01*
X-59614Y22877D01*
X-59566Y22853D01*
X-59542Y22830D01*
X-59519Y22782D01*
X-59519Y22734D01*
X-59542Y22687D01*
X-59566Y22663D01*
X-59614Y22639D01*
X-59780Y22639D01*
X97350Y11690D02*
X96650Y11690D01*
X97035Y22639D02*
X97107Y22615D01*
X97130Y22591D01*
X97154Y22544D01*
X97154Y22472D01*
X97130Y22425D01*
X97107Y22401D01*
X97059Y22377D01*
X96869Y22377D01*
X96869Y22877D01*
X97035Y22877D01*
X97083Y22853D01*
X97107Y22830D01*
X97130Y22782D01*
X97130Y22734D01*
X97107Y22687D01*
X97083Y22663D01*
X97035Y22639D01*
X96869Y22639D01*
X-60000Y-10090D02*
X-59300Y-10090D01*
X-59495Y645D02*
X-59519Y621D01*
X-59590Y597D01*
X-59638Y597D01*
X-59709Y621D01*
X-59757Y669D01*
X-59780Y716D01*
X-59804Y811D01*
X-59804Y883D01*
X-59780Y978D01*
X-59757Y1026D01*
X-59709Y1073D01*
X-59638Y1097D01*
X-59590Y1097D01*
X-59519Y1073D01*
X-59495Y1050D01*
X97350Y-10090D02*
X96650Y-10090D01*
X97154Y645D02*
X97130Y621D01*
X97059Y597D01*
X97011Y597D01*
X96940Y621D01*
X96892Y669D01*
X96869Y716D01*
X96845Y811D01*
X96845Y883D01*
X96869Y978D01*
X96892Y1026D01*
X96940Y1073D01*
X97011Y1097D01*
X97059Y1097D01*
X97130Y1073D01*
X97154Y1050D01*
X-60000Y-31870D02*
X-59300Y-31870D01*
X-59780Y-21182D02*
X-59780Y-20682D01*
X-59661Y-20682D01*
X-59590Y-20706D01*
X-59542Y-20753D01*
X-59519Y-20801D01*
X-59495Y-20896D01*
X-59495Y-20968D01*
X-59519Y-21063D01*
X-59542Y-21110D01*
X-59590Y-21158D01*
X-59661Y-21182D01*
X-59780Y-21182D01*
X97350Y-31870D02*
X96650Y-31870D01*
X96869Y-21182D02*
X96869Y-20682D01*
X96988Y-20682D01*
X97059Y-20706D01*
X97107Y-20753D01*
X97130Y-20801D01*
X97154Y-20896D01*
X97154Y-20968D01*
X97130Y-21063D01*
X97107Y-21110D01*
X97059Y-21158D01*
X96988Y-21182D01*
X96869Y-21182D01*
X-59757Y-42700D02*
X-59590Y-42700D01*
X-59519Y-42962D02*
X-59757Y-42962D01*
X-59757Y-42462D01*
X-59519Y-42462D01*
X96892Y-42700D02*
X97059Y-42700D01*
X97130Y-42962D02*
X96892Y-42962D01*
X96892Y-42462D01*
X97130Y-42462D01*
X63800Y-51422D02*
X63875Y-50822D01*
X64017Y-50822D01*
X64100Y-50851D01*
X64150Y-50908D01*
X64171Y-50965D01*
X64185Y-51080D01*
X64175Y-51165D01*
X64132Y-51280D01*
X64096Y-51337D01*
X64032Y-51394D01*
X63942Y-51422D01*
X63800Y-51422D01*
X64657Y-51422D02*
X64696Y-51108D01*
X64675Y-51051D01*
X64621Y-51022D01*
X64507Y-51022D01*
X64446Y-51051D01*
X64660Y-51394D02*
X64600Y-51422D01*
X64457Y-51422D01*
X64403Y-51394D01*
X64382Y-51337D01*
X64389Y-51280D01*
X64425Y-51222D01*
X64485Y-51194D01*
X64628Y-51194D01*
X64689Y-51165D01*
X64907Y-51022D02*
X65135Y-51022D01*
X65017Y-50822D02*
X64953Y-51337D01*
X64975Y-51394D01*
X65028Y-51422D01*
X65085Y-51422D01*
X65517Y-51394D02*
X65457Y-51422D01*
X65342Y-51422D01*
X65289Y-51394D01*
X65267Y-51337D01*
X65296Y-51108D01*
X65332Y-51051D01*
X65392Y-51022D01*
X65507Y-51022D01*
X65560Y-51051D01*
X65582Y-51108D01*
X65575Y-51165D01*
X65282Y-51222D01*
X65807Y-51365D02*
X65832Y-51394D01*
X65800Y-51422D01*
X65775Y-51394D01*
X65807Y-51365D01*
X65800Y-51422D01*
X65846Y-51051D02*
X65871Y-51080D01*
X65839Y-51108D01*
X65814Y-51080D01*
X65846Y-51051D01*
X65839Y-51108D01*
X66671Y-51080D02*
X66617Y-51051D01*
X66592Y-51022D01*
X66571Y-50965D01*
X66575Y-50937D01*
X66610Y-50880D01*
X66642Y-50851D01*
X66703Y-50822D01*
X66817Y-50822D01*
X66871Y-50851D01*
X66896Y-50880D01*
X66917Y-50937D01*
X66914Y-50965D01*
X66878Y-51022D01*
X66846Y-51051D01*
X66785Y-51080D01*
X66671Y-51080D01*
X66610Y-51108D01*
X66578Y-51137D01*
X66542Y-51194D01*
X66528Y-51308D01*
X66550Y-51365D01*
X66575Y-51394D01*
X66628Y-51422D01*
X66742Y-51422D01*
X66803Y-51394D01*
X66835Y-51365D01*
X66871Y-51308D01*
X66885Y-51194D01*
X66864Y-51137D01*
X66839Y-51108D01*
X66785Y-51080D01*
X67621Y-51022D02*
X67557Y-51537D01*
X67521Y-51594D01*
X67460Y-51622D01*
X67432Y-51622D01*
X67646Y-50822D02*
X67614Y-50851D01*
X67639Y-50880D01*
X67671Y-50851D01*
X67646Y-50822D01*
X67639Y-50880D01*
X68114Y-51422D02*
X68153Y-51108D01*
X68132Y-51051D01*
X68078Y-51022D01*
X67964Y-51022D01*
X67903Y-51051D01*
X68117Y-51394D02*
X68057Y-51422D01*
X67914Y-51422D01*
X67860Y-51394D01*
X67839Y-51337D01*
X67846Y-51280D01*
X67882Y-51222D01*
X67942Y-51194D01*
X68085Y-51194D01*
X68146Y-51165D01*
X68450Y-51022D02*
X68400Y-51422D01*
X68442Y-51080D02*
X68475Y-51051D01*
X68535Y-51022D01*
X68621Y-51022D01*
X68675Y-51051D01*
X68696Y-51108D01*
X68657Y-51422D01*
X69439Y-50880D02*
X69471Y-50851D01*
X69532Y-50822D01*
X69675Y-50822D01*
X69728Y-50851D01*
X69753Y-50880D01*
X69775Y-50937D01*
X69767Y-50994D01*
X69728Y-51080D01*
X69342Y-51422D01*
X69714Y-51422D01*
X70160Y-50822D02*
X70217Y-50822D01*
X70271Y-50851D01*
X70296Y-50880D01*
X70317Y-50937D01*
X70332Y-51051D01*
X70314Y-51194D01*
X70271Y-51308D01*
X70235Y-51365D01*
X70203Y-51394D01*
X70142Y-51422D01*
X70085Y-51422D01*
X70032Y-51394D01*
X70007Y-51365D01*
X69985Y-51308D01*
X69971Y-51194D01*
X69989Y-51051D01*
X70032Y-50937D01*
X70067Y-50880D01*
X70100Y-50851D01*
X70160Y-50822D01*
X70857Y-51422D02*
X70514Y-51422D01*
X70685Y-51422D02*
X70760Y-50822D01*
X70692Y-50908D01*
X70628Y-50965D01*
X70567Y-50994D01*
X71132Y-50822D02*
X71503Y-50822D01*
X71275Y-51051D01*
X71360Y-51051D01*
X71414Y-51080D01*
X71439Y-51108D01*
X71460Y-51165D01*
X71442Y-51308D01*
X71407Y-51365D01*
X71375Y-51394D01*
X71314Y-51422D01*
X71142Y-51422D01*
X71089Y-51394D01*
X71064Y-51365D01*
X55392Y-52622D02*
X55392Y-52022D01*
X55735Y-52622D02*
X55478Y-52280D01*
X55735Y-52022D02*
X55392Y-52365D01*
X55992Y-52622D02*
X55992Y-52222D01*
X55992Y-52022D02*
X55964Y-52051D01*
X55992Y-52080D01*
X56021Y-52051D01*
X55992Y-52022D01*
X55992Y-52080D01*
X56621Y-52565D02*
X56592Y-52594D01*
X56507Y-52622D01*
X56450Y-52622D01*
X56364Y-52594D01*
X56307Y-52537D01*
X56278Y-52480D01*
X56250Y-52365D01*
X56250Y-52280D01*
X56278Y-52165D01*
X56307Y-52108D01*
X56364Y-52051D01*
X56450Y-52022D01*
X56507Y-52022D01*
X56592Y-52051D01*
X56621Y-52080D01*
X57135Y-52622D02*
X57135Y-52308D01*
X57107Y-52251D01*
X57050Y-52222D01*
X56935Y-52222D01*
X56878Y-52251D01*
X57135Y-52594D02*
X57078Y-52622D01*
X56935Y-52622D01*
X56878Y-52594D01*
X56850Y-52537D01*
X56850Y-52480D01*
X56878Y-52422D01*
X56935Y-52394D01*
X57078Y-52394D01*
X57135Y-52365D01*
X57678Y-52622D02*
X57678Y-52022D01*
X57678Y-52594D02*
X57621Y-52622D01*
X57507Y-52622D01*
X57450Y-52594D01*
X57421Y-52565D01*
X57392Y-52508D01*
X57392Y-52337D01*
X57421Y-52280D01*
X57450Y-52251D01*
X57507Y-52222D01*
X57621Y-52222D01*
X57678Y-52251D01*
X58421Y-52308D02*
X58621Y-52308D01*
X58707Y-52622D02*
X58421Y-52622D01*
X58421Y-52022D01*
X58707Y-52022D01*
X58964Y-52565D02*
X58992Y-52594D01*
X58964Y-52622D01*
X58935Y-52594D01*
X58964Y-52565D01*
X58964Y-52622D01*
X59249Y-52622D02*
X59249Y-52022D01*
X59392Y-52022D01*
X59478Y-52051D01*
X59535Y-52108D01*
X59564Y-52165D01*
X59592Y-52280D01*
X59592Y-52365D01*
X59564Y-52480D01*
X59535Y-52537D01*
X59478Y-52594D01*
X59392Y-52622D01*
X59249Y-52622D01*
X59849Y-52565D02*
X59878Y-52594D01*
X59849Y-52622D01*
X59821Y-52594D01*
X59849Y-52565D01*
X59849Y-52622D01*
X60107Y-52451D02*
X60392Y-52451D01*
X60049Y-52622D02*
X60249Y-52022D01*
X60449Y-52622D01*
X60649Y-52565D02*
X60678Y-52594D01*
X60649Y-52622D01*
X60621Y-52594D01*
X60649Y-52565D01*
X60649Y-52622D01*
X88942Y-51422D02*
X88778Y-51137D01*
X88600Y-51422D02*
X88675Y-50822D01*
X88903Y-50822D01*
X88957Y-50851D01*
X88982Y-50880D01*
X89003Y-50937D01*
X88992Y-51022D01*
X88957Y-51080D01*
X88925Y-51108D01*
X88864Y-51137D01*
X88635Y-51137D01*
X89432Y-51394D02*
X89371Y-51422D01*
X89257Y-51422D01*
X89203Y-51394D01*
X89182Y-51337D01*
X89210Y-51108D01*
X89246Y-51051D01*
X89307Y-51022D01*
X89421Y-51022D01*
X89475Y-51051D01*
X89496Y-51108D01*
X89489Y-51165D01*
X89196Y-51222D01*
X89707Y-51022D02*
X89800Y-51422D01*
X89992Y-51022D01*
X90178Y-51365D02*
X90203Y-51394D01*
X90171Y-51422D01*
X90146Y-51394D01*
X90178Y-51365D01*
X90171Y-51422D01*
X90217Y-51051D02*
X90242Y-51080D01*
X90210Y-51108D01*
X90185Y-51080D01*
X90217Y-51051D01*
X90210Y-51108D01*
X55364Y-51394D02*
X55450Y-51422D01*
X55592Y-51422D01*
X55650Y-51394D01*
X55678Y-51365D01*
X55707Y-51308D01*
X55707Y-51251D01*
X55678Y-51194D01*
X55650Y-51165D01*
X55592Y-51137D01*
X55478Y-51108D01*
X55421Y-51080D01*
X55392Y-51051D01*
X55364Y-50994D01*
X55364Y-50937D01*
X55392Y-50880D01*
X55421Y-50851D01*
X55478Y-50822D01*
X55621Y-50822D01*
X55707Y-50851D01*
X55964Y-51422D02*
X55964Y-51022D01*
X55964Y-50822D02*
X55935Y-50851D01*
X55964Y-50880D01*
X55992Y-50851D01*
X55964Y-50822D01*
X55964Y-50880D01*
X56192Y-51022D02*
X56507Y-51022D01*
X56192Y-51422D01*
X56507Y-51422D01*
X56964Y-51394D02*
X56907Y-51422D01*
X56792Y-51422D01*
X56735Y-51394D01*
X56707Y-51337D01*
X56707Y-51108D01*
X56735Y-51051D01*
X56792Y-51022D01*
X56907Y-51022D01*
X56964Y-51051D01*
X56992Y-51108D01*
X56992Y-51165D01*
X56707Y-51222D01*
X57250Y-51365D02*
X57278Y-51394D01*
X57250Y-51422D01*
X57221Y-51394D01*
X57250Y-51365D01*
X57250Y-51422D01*
X57250Y-51051D02*
X57278Y-51080D01*
X57250Y-51108D01*
X57221Y-51080D01*
X57250Y-51051D01*
X57250Y-51108D01*
X57964Y-51251D02*
X58250Y-51251D01*
X57907Y-51422D02*
X58107Y-50822D01*
X58307Y-51422D01*
X58450Y-50822D02*
X58821Y-50822D01*
X58621Y-51051D01*
X58707Y-51051D01*
X58764Y-51080D01*
X58792Y-51108D01*
X58821Y-51165D01*
X58821Y-51308D01*
X58792Y-51365D01*
X58764Y-51394D01*
X58707Y-51422D01*
X58535Y-51422D01*
X58478Y-51394D01*
X58450Y-51365D01*
X88592Y-52622D02*
X88592Y-52022D01*
X89135Y-52622D02*
X89135Y-52022D01*
X89135Y-52594D02*
X89078Y-52622D01*
X88964Y-52622D01*
X88907Y-52594D01*
X88878Y-52565D01*
X88850Y-52508D01*
X88850Y-52337D01*
X88878Y-52280D01*
X88907Y-52251D01*
X88964Y-52222D01*
X89078Y-52222D01*
X89135Y-52251D01*
X89421Y-52565D02*
X89450Y-52594D01*
X89421Y-52622D01*
X89392Y-52594D01*
X89421Y-52565D01*
X89421Y-52622D01*
X89421Y-52251D02*
X89450Y-52280D01*
X89421Y-52308D01*
X89392Y-52280D01*
X89421Y-52251D01*
X89421Y-52308D01*
X90478Y-52622D02*
X90135Y-52622D01*
X90307Y-52622D02*
X90307Y-52022D01*
X90249Y-52108D01*
X90192Y-52165D01*
X90135Y-52194D01*
X91164Y-51994D02*
X90650Y-52765D01*
X91678Y-52622D02*
X91335Y-52622D01*
X91507Y-52622D02*
X91507Y-52022D01*
X91449Y-52108D01*
X91392Y-52165D01*
X91335Y-52194D01*
X55389Y-49622D02*
X55732Y-49622D01*
X55485Y-50222D02*
X55560Y-49622D01*
X55857Y-50222D02*
X55907Y-49822D01*
X55932Y-49622D02*
X55900Y-49651D01*
X55925Y-49680D01*
X55957Y-49651D01*
X55932Y-49622D01*
X55925Y-49680D01*
X56107Y-49822D02*
X56335Y-49822D01*
X56217Y-49622D02*
X56153Y-50137D01*
X56175Y-50194D01*
X56228Y-50222D01*
X56285Y-50222D01*
X56571Y-50222D02*
X56517Y-50194D01*
X56496Y-50137D01*
X56560Y-49622D01*
X57032Y-50194D02*
X56971Y-50222D01*
X56857Y-50222D01*
X56803Y-50194D01*
X56782Y-50137D01*
X56810Y-49908D01*
X56846Y-49851D01*
X56907Y-49822D01*
X57021Y-49822D01*
X57075Y-49851D01*
X57096Y-49908D01*
X57089Y-49965D01*
X56796Y-50022D01*
X57321Y-50165D02*
X57346Y-50194D01*
X57314Y-50222D01*
X57289Y-50194D01*
X57321Y-50165D01*
X57314Y-50222D01*
X57360Y-49851D02*
X57385Y-49880D01*
X57353Y-49908D01*
X57328Y-49880D01*
X57360Y-49851D01*
X57353Y-49908D01*
X55592Y-47508D02*
X55392Y-47508D01*
X55392Y-47822D02*
X55392Y-47222D01*
X55678Y-47222D01*
X55907Y-47822D02*
X55907Y-47422D01*
X55907Y-47222D02*
X55878Y-47251D01*
X55907Y-47280D01*
X55935Y-47251D01*
X55907Y-47222D01*
X55907Y-47280D01*
X56278Y-47822D02*
X56221Y-47794D01*
X56192Y-47737D01*
X56192Y-47222D01*
X56735Y-47794D02*
X56678Y-47822D01*
X56564Y-47822D01*
X56507Y-47794D01*
X56478Y-47737D01*
X56478Y-47508D01*
X56507Y-47451D01*
X56564Y-47422D01*
X56678Y-47422D01*
X56735Y-47451D01*
X56764Y-47508D01*
X56764Y-47565D01*
X56478Y-47622D01*
X57021Y-47765D02*
X57050Y-47794D01*
X57021Y-47822D01*
X56992Y-47794D01*
X57021Y-47765D01*
X57021Y-47822D01*
X57021Y-47451D02*
X57050Y-47480D01*
X57021Y-47508D01*
X56992Y-47480D01*
X57021Y-47451D01*
X57021Y-47508D01*
X58050Y-47822D02*
X57764Y-47822D01*
X57764Y-47222D01*
X58507Y-47794D02*
X58450Y-47822D01*
X58335Y-47822D01*
X58278Y-47794D01*
X58250Y-47765D01*
X58221Y-47708D01*
X58221Y-47537D01*
X58250Y-47480D01*
X58278Y-47451D01*
X58335Y-47422D01*
X58450Y-47422D01*
X58507Y-47451D01*
X59021Y-47822D02*
X59021Y-47222D01*
X59021Y-47794D02*
X58964Y-47822D01*
X58850Y-47822D01*
X58792Y-47794D01*
X58764Y-47765D01*
X58735Y-47708D01*
X58735Y-47537D01*
X58764Y-47480D01*
X58792Y-47451D01*
X58850Y-47422D01*
X58964Y-47422D01*
X59021Y-47451D01*
X59964Y-47508D02*
X60050Y-47537D01*
X60078Y-47565D01*
X60107Y-47622D01*
X60107Y-47708D01*
X60078Y-47765D01*
X60050Y-47794D01*
X59992Y-47822D01*
X59764Y-47822D01*
X59764Y-47222D01*
X59964Y-47222D01*
X60021Y-47251D01*
X60050Y-47280D01*
X60078Y-47337D01*
X60078Y-47394D01*
X60050Y-47451D01*
X60021Y-47480D01*
X59964Y-47508D01*
X59764Y-47508D01*
X60450Y-47822D02*
X60392Y-47794D01*
X60364Y-47765D01*
X60335Y-47708D01*
X60335Y-47537D01*
X60364Y-47480D01*
X60392Y-47451D01*
X60450Y-47422D01*
X60535Y-47422D01*
X60592Y-47451D01*
X60621Y-47480D01*
X60650Y-47537D01*
X60650Y-47708D01*
X60621Y-47765D01*
X60592Y-47794D01*
X60535Y-47822D01*
X60450Y-47822D01*
X60992Y-47822D02*
X60935Y-47794D01*
X60907Y-47765D01*
X60878Y-47708D01*
X60878Y-47537D01*
X60907Y-47480D01*
X60935Y-47451D01*
X60992Y-47422D01*
X61078Y-47422D01*
X61135Y-47451D01*
X61164Y-47480D01*
X61192Y-47537D01*
X61192Y-47708D01*
X61164Y-47765D01*
X61135Y-47794D01*
X61078Y-47822D01*
X60992Y-47822D01*
X61421Y-47794D02*
X61478Y-47822D01*
X61592Y-47822D01*
X61650Y-47794D01*
X61678Y-47737D01*
X61678Y-47708D01*
X61650Y-47651D01*
X61592Y-47622D01*
X61507Y-47622D01*
X61450Y-47594D01*
X61421Y-47537D01*
X61421Y-47508D01*
X61450Y-47451D01*
X61507Y-47422D01*
X61592Y-47422D01*
X61650Y-47451D01*
X61850Y-47422D02*
X62078Y-47422D01*
X61935Y-47222D02*
X61935Y-47737D01*
X61964Y-47794D01*
X62021Y-47822D01*
X62078Y-47822D01*
X62507Y-47794D02*
X62450Y-47822D01*
X62335Y-47822D01*
X62278Y-47794D01*
X62250Y-47737D01*
X62250Y-47508D01*
X62278Y-47451D01*
X62335Y-47422D01*
X62450Y-47422D01*
X62507Y-47451D01*
X62535Y-47508D01*
X62535Y-47565D01*
X62250Y-47622D01*
X62792Y-47822D02*
X62792Y-47422D01*
X62792Y-47537D02*
X62821Y-47480D01*
X62850Y-47451D01*
X62907Y-47422D01*
X62964Y-47422D01*
X63107Y-47222D02*
X63478Y-47222D01*
X63278Y-47451D01*
X63364Y-47451D01*
X63421Y-47480D01*
X63450Y-47508D01*
X63478Y-47565D01*
X63478Y-47708D01*
X63450Y-47765D01*
X63421Y-47794D01*
X63364Y-47822D01*
X63192Y-47822D01*
X63135Y-47794D01*
X63107Y-47765D01*
X63735Y-47765D02*
X63764Y-47794D01*
X63735Y-47822D01*
X63707Y-47794D01*
X63735Y-47765D01*
X63735Y-47822D01*
X64021Y-47822D02*
X64021Y-47222D01*
X64078Y-47594D02*
X64250Y-47822D01*
X64250Y-47422D02*
X64021Y-47651D01*
X64507Y-47822D02*
X64507Y-47422D01*
X64507Y-47222D02*
X64478Y-47251D01*
X64507Y-47280D01*
X64535Y-47251D01*
X64507Y-47222D01*
X64507Y-47280D01*
X65050Y-47794D02*
X64992Y-47822D01*
X64878Y-47822D01*
X64821Y-47794D01*
X64792Y-47765D01*
X64764Y-47708D01*
X64764Y-47537D01*
X64792Y-47480D01*
X64821Y-47451D01*
X64878Y-47422D01*
X64992Y-47422D01*
X65050Y-47451D01*
X65564Y-47822D02*
X65564Y-47508D01*
X65535Y-47451D01*
X65478Y-47422D01*
X65364Y-47422D01*
X65307Y-47451D01*
X65564Y-47794D02*
X65507Y-47822D01*
X65364Y-47822D01*
X65307Y-47794D01*
X65278Y-47737D01*
X65278Y-47680D01*
X65307Y-47622D01*
X65364Y-47594D01*
X65507Y-47594D01*
X65564Y-47565D01*
X66107Y-47822D02*
X66107Y-47222D01*
X66107Y-47794D02*
X66050Y-47822D01*
X65935Y-47822D01*
X65878Y-47794D01*
X65850Y-47765D01*
X65821Y-47708D01*
X65821Y-47537D01*
X65850Y-47480D01*
X65878Y-47451D01*
X65935Y-47422D01*
X66050Y-47422D01*
X66107Y-47451D01*
X66250Y-47880D02*
X66707Y-47880D01*
X66850Y-47422D02*
X66850Y-48022D01*
X66850Y-47451D02*
X66907Y-47422D01*
X67021Y-47422D01*
X67078Y-47451D01*
X67107Y-47480D01*
X67135Y-47537D01*
X67135Y-47708D01*
X67107Y-47765D01*
X67078Y-47794D01*
X67021Y-47822D01*
X66907Y-47822D01*
X66850Y-47794D01*
X67650Y-47794D02*
X67592Y-47822D01*
X67478Y-47822D01*
X67421Y-47794D01*
X67392Y-47765D01*
X67364Y-47708D01*
X67364Y-47537D01*
X67392Y-47480D01*
X67421Y-47451D01*
X67478Y-47422D01*
X67592Y-47422D01*
X67650Y-47451D01*
X67907Y-47822D02*
X67907Y-47222D01*
X67907Y-47451D02*
X67964Y-47422D01*
X68078Y-47422D01*
X68135Y-47451D01*
X68164Y-47480D01*
X68192Y-47537D01*
X68192Y-47708D01*
X68164Y-47765D01*
X68135Y-47794D01*
X68078Y-47822D01*
X67964Y-47822D01*
X67907Y-47794D01*
X55364Y-48994D02*
X55450Y-49022D01*
X55592Y-49022D01*
X55650Y-48994D01*
X55678Y-48965D01*
X55707Y-48908D01*
X55707Y-48851D01*
X55678Y-48794D01*
X55650Y-48765D01*
X55592Y-48737D01*
X55478Y-48708D01*
X55421Y-48680D01*
X55392Y-48651D01*
X55364Y-48594D01*
X55364Y-48537D01*
X55392Y-48480D01*
X55421Y-48451D01*
X55478Y-48422D01*
X55621Y-48422D01*
X55707Y-48451D01*
X55964Y-49022D02*
X55964Y-48422D01*
X56221Y-49022D02*
X56221Y-48708D01*
X56192Y-48651D01*
X56135Y-48622D01*
X56050Y-48622D01*
X55992Y-48651D01*
X55964Y-48680D01*
X56735Y-48994D02*
X56678Y-49022D01*
X56564Y-49022D01*
X56507Y-48994D01*
X56478Y-48937D01*
X56478Y-48708D01*
X56507Y-48651D01*
X56564Y-48622D01*
X56678Y-48622D01*
X56735Y-48651D01*
X56764Y-48708D01*
X56764Y-48765D01*
X56478Y-48822D01*
X57250Y-48994D02*
X57192Y-49022D01*
X57078Y-49022D01*
X57021Y-48994D01*
X56992Y-48937D01*
X56992Y-48708D01*
X57021Y-48651D01*
X57078Y-48622D01*
X57192Y-48622D01*
X57250Y-48651D01*
X57278Y-48708D01*
X57278Y-48765D01*
X56992Y-48822D01*
X57450Y-48622D02*
X57678Y-48622D01*
X57535Y-48422D02*
X57535Y-48937D01*
X57564Y-48994D01*
X57621Y-49022D01*
X57678Y-49022D01*
X57878Y-48965D02*
X57907Y-48994D01*
X57878Y-49022D01*
X57850Y-48994D01*
X57878Y-48965D01*
X57878Y-49022D01*
X57878Y-48651D02*
X57907Y-48680D01*
X57878Y-48708D01*
X57850Y-48680D01*
X57878Y-48651D01*
X57878Y-48708D01*
X54650Y-46980D02*
X54650Y-52980D01*
X54650Y-46980D02*
X96650Y-46980D01*
X54650Y-46980D02*
X96650Y-46980D01*
X54650Y-49380D02*
X96650Y-49380D01*
X87850Y-50580D02*
X87850Y-52980D01*
X54650Y-51780D02*
X96650Y-51780D01*
X54650Y-50580D02*
X96650Y-50580D01*
X61250Y-50580D02*
X61250Y-51780D01*
G54D11*
X34416Y16250D02*
G75*
G03X34416Y16250I-666J0D01*
G74*
G01*
X32750Y16250D02*
X34750Y16250D01*
X33750Y17250D02*
X33750Y15250D01*
X-583Y-1250D02*
G75*
G03X-583Y-1250I-666J0D01*
G74*
G01*
X-2250Y-1250D02*
X-250Y-1250D01*
X-1250Y-250D02*
X-1250Y-2250D01*
G54D12*
X32500Y0D02*
X0Y0D01*
X0Y0D02*
X0Y15000D01*
X32500Y15000D02*
X32500Y0D01*
X0Y15000D02*
X32500Y15000D01*
G54D13*
X27000Y11250D03*
G54D14*
X27000Y10250D03*
X27000Y9250D03*
X27000Y8250D03*
X27000Y7250D03*
X27000Y6250D03*
X27000Y5250D03*
X27000Y4250D03*
X27000Y3250D03*
X27000Y2250D03*
G54D13*
X26000Y11250D03*
G54D14*
X26000Y10250D03*
X26000Y9250D03*
X26000Y8250D03*
X26000Y7250D03*
X26000Y6250D03*
X26000Y5250D03*
X26000Y4250D03*
X26000Y3250D03*
X26000Y2250D03*
G54D13*
X10000Y11250D03*
G54D14*
X10000Y10250D03*
X10000Y9250D03*
X10000Y8250D03*
X10000Y7250D03*
X10000Y6250D03*
X10000Y5250D03*
X10000Y4250D03*
X10000Y3250D03*
X10000Y2250D03*
G54D13*
X9000Y11250D03*
G54D14*
X9000Y10250D03*
X9000Y9250D03*
X9000Y8250D03*
X9000Y7250D03*
X9000Y6250D03*
X9000Y5250D03*
X9000Y4250D03*
X9000Y3250D03*
X9000Y2250D03*
G54D13*
X28750Y13500D03*
G54D14*
X27750Y13500D03*
X26750Y13500D03*
G54D15*
X750Y13500D03*
G54D16*
X2750Y13500D03*
G54D13*
X3000Y4750D03*
G54D14*
X4000Y4750D03*
X5000Y4750D03*
X6000Y4750D03*
X6000Y7750D03*
X5000Y7750D03*
X4000Y7750D03*
X3000Y7750D03*
G54D13*
X21500Y5250D03*
G54D14*
X20500Y5250D03*
X19500Y5250D03*
X18500Y5250D03*
X17500Y5250D03*
X16500Y5250D03*
X15500Y5250D03*
X14500Y5250D03*
X13500Y5250D03*
X12500Y5250D03*
X12500Y2250D03*
X13500Y2250D03*
X14500Y2250D03*
X15500Y2250D03*
X16500Y2250D03*
X17500Y2250D03*
X18500Y2250D03*
X19500Y2250D03*
X20500Y2250D03*
X21500Y2250D03*
G54D13*
X21500Y9500D03*
G54D14*
X20500Y9500D03*
X19500Y9500D03*
X18500Y9500D03*
X17500Y9500D03*
X16500Y9500D03*
X15500Y9500D03*
X14500Y9500D03*
X13500Y9500D03*
X12500Y9500D03*
X12500Y6500D03*
X13500Y6500D03*
X14500Y6500D03*
X15500Y6500D03*
X16500Y6500D03*
X17500Y6500D03*
X18500Y6500D03*
X19500Y6500D03*
X20500Y6500D03*
X21500Y6500D03*
G54D13*
X3000Y12000D03*
G54D14*
X3000Y9000D03*
G54D13*
X14500Y13500D03*
G54D14*
X13500Y13500D03*
X12500Y13500D03*
X12500Y10500D03*
X13500Y10500D03*
X14500Y10500D03*
G54D17*
X1250Y10500D03*
G54D18*
X1250Y9500D03*
G54D14*
X4000Y2500D03*
X5000Y2500D03*
G54D13*
X6000Y1250D03*
G54D14*
X3000Y1250D03*
X1750Y6750D03*
X1750Y5750D03*
G54D19*
X31250Y1250D03*
G54D20*
X4750Y11250D03*
G54D21*
X6750Y11250D03*
G54D14*
X7500Y2500D03*
X7500Y1500D03*
X7500Y14250D03*
X8500Y14250D03*
X23250Y3250D03*
X23250Y4250D03*
X23250Y7500D03*
X23250Y8500D03*
G54D19*
X1250Y1250D03*
G54D17*
X17000Y12250D03*
G54D18*
X17000Y13250D03*
X18000Y12250D03*
X18000Y13250D03*
X19000Y12250D03*
X19000Y13250D03*
X20000Y12250D03*
X20000Y13250D03*
X21000Y12250D03*
X21000Y13250D03*
X22000Y12250D03*
X22000Y13250D03*
X23000Y12250D03*
X23000Y13250D03*
G54D17*
X6000Y13750D03*
G54D18*
X5000Y13750D03*
G54D17*
X31500Y8250D03*
G54D18*
X31500Y7250D03*
X30500Y8250D03*
X30500Y7250D03*
X29500Y8250D03*
X29500Y7250D03*
X28500Y8250D03*
X28500Y7250D03*
G54D17*
X31500Y11500D03*
G54D18*
X31500Y10500D03*
X30500Y11500D03*
X30500Y10500D03*
X29500Y11500D03*
X29500Y10500D03*
X28500Y11500D03*
X28500Y10500D03*
G54D17*
X31500Y5000D03*
G54D18*
X31500Y4000D03*
X30500Y5000D03*
X30500Y4000D03*
X29500Y5000D03*
X29500Y4000D03*
X28500Y5000D03*
X28500Y4000D03*
G54D14*
X650Y8000D03*
X650Y5000D03*
X20000Y10500D03*
X23000Y10500D03*
X21000Y1500D03*
X24000Y1500D03*
X11100Y13800D03*
X11100Y10800D03*
X1000Y3750D03*
X4000Y3750D03*
X8000Y3750D03*
X5000Y3750D03*
X7250Y4750D03*
X7250Y7750D03*
G54D13*
X19500Y1000D03*
G54D14*
X18500Y1000D03*
X17500Y1000D03*
X16500Y1000D03*
G54D20*
X4750Y9250D03*
X5750Y9250D03*
G54D21*
X6750Y9250D03*
G54D22*
X19437Y8174D03*
X20151Y8096D03*
G54D23*
X22328Y9545D03*
X22587Y8449D03*
X23504Y5196D03*
X18000Y6911D03*
X29980Y9609D03*
X11683Y9044D03*
G54D22*
X11626Y1340D03*
X29000Y2750D03*
G54D23*
X21050Y8286D03*
X16018Y9045D03*
X28724Y6407D03*
X19299Y14237D03*
G54D24*
X21500Y5250D02*
X21500Y5745D01*
X22995Y4250D02*
X21995Y5250D01*
X23250Y4250D02*
X22995Y4250D01*
X21500Y5250D02*
X21995Y5250D01*
X21004Y6240D02*
X21500Y5745D01*
X21004Y6716D02*
X21004Y6240D01*
X20671Y7049D02*
X21004Y6716D01*
X20562Y7049D02*
X20671Y7049D01*
X19437Y8174D02*
X20562Y7049D01*
X6000Y12570D02*
X6000Y13750D01*
X6750Y11820D02*
X6000Y12570D01*
X6750Y11250D02*
X6750Y11820D01*
X21500Y6747D02*
X20151Y8096D01*
X21500Y6500D02*
X21500Y6747D01*
G54D25*
X18500Y9750D02*
X21000Y12250D01*
X18500Y9500D02*
X18500Y9750D01*
X16000Y4750D02*
X13500Y2250D01*
X16000Y5394D02*
X16000Y4750D01*
X16650Y6044D02*
X16000Y5394D01*
X17044Y6044D02*
X16650Y6044D01*
X17500Y6500D02*
X17044Y6044D01*
X13500Y5500D02*
X13500Y5250D01*
X14500Y6500D02*
X13500Y5500D01*
X15500Y13178D02*
X15500Y9500D01*
X16186Y13865D02*
X15500Y13178D01*
X17384Y13865D02*
X16186Y13865D01*
X18000Y13250D02*
X17384Y13865D01*
X15000Y4750D02*
X12500Y2250D01*
X15000Y5406D02*
X15000Y4750D01*
X15423Y5830D02*
X15000Y5406D01*
X15830Y5830D02*
X15423Y5830D01*
X16500Y6500D02*
X15830Y5830D01*
X18519Y10519D02*
X17500Y9500D01*
X18519Y12703D02*
X18519Y10519D01*
X19000Y13184D02*
X18519Y12703D01*
X19000Y13250D02*
X19000Y13184D01*
X19955Y2794D02*
X20500Y2250D01*
X19955Y6044D02*
X19955Y2794D01*
X19500Y6500D02*
X19955Y6044D01*
X22328Y8708D02*
X22587Y8449D01*
X22328Y9545D02*
X22328Y8708D01*
X18000Y7340D02*
X18000Y6911D01*
X19249Y8589D02*
X18000Y7340D01*
X20231Y8589D02*
X19249Y8589D01*
X23504Y5315D02*
X20231Y8589D01*
X23504Y5196D02*
X23504Y5315D01*
X29980Y11019D02*
X29500Y11500D01*
X29980Y9609D02*
X29980Y11019D01*
X13044Y9044D02*
X11683Y9044D01*
X13500Y9500D02*
X13044Y9044D01*
G54D24*
X3495Y11504D02*
X5750Y9250D01*
X3000Y11504D02*
X3495Y11504D01*
X3000Y12000D02*
X3000Y11504D01*
G54D25*
X2544Y4955D02*
X1750Y5750D01*
X2544Y4750D02*
X2544Y4955D01*
X3000Y4750D02*
X2544Y4750D01*
X26113Y10794D02*
X26000Y10794D01*
X26455Y10453D02*
X26113Y10794D01*
X26455Y5148D02*
X26455Y10453D01*
X26838Y4764D02*
X26455Y5148D01*
X27484Y4764D02*
X26838Y4764D01*
X27749Y4500D02*
X27484Y4764D01*
X30000Y4500D02*
X27749Y4500D01*
X30500Y4000D02*
X30000Y4500D01*
X26000Y11250D02*
X26000Y10794D01*
X26500Y150D02*
X13100Y150D01*
X13100Y150D02*
X11626Y1340D01*
X29000Y2750D02*
X26500Y150D01*
X27544Y5794D02*
X27000Y5250D01*
X27544Y8544D02*
X27544Y5794D01*
X29500Y10500D02*
X27544Y8544D01*
X10562Y8687D02*
X10000Y9250D01*
X15660Y8687D02*
X10562Y8687D01*
X16018Y9045D02*
X15660Y8687D01*
X25564Y3772D02*
X21050Y8286D01*
X28272Y3772D02*
X25564Y3772D01*
X28500Y4000D02*
X28272Y3772D01*
X28724Y7025D02*
X28724Y6407D01*
X28500Y7250D02*
X28724Y7025D01*
X17000Y12250D02*
X17480Y12250D01*
X18480Y13418D02*
X19299Y14237D01*
X18480Y13018D02*
X18480Y13418D01*
X18191Y12730D02*
X18480Y13018D01*
X17780Y12730D02*
X18191Y12730D01*
X17480Y12430D02*
X17780Y12730D01*
X17480Y12250D02*
X17480Y12430D01*
G54D10*
G36*
X32320Y1723D02*
X32242Y1911D01*
X31970Y2184D01*
X31970Y4093D01*
X31970Y7343D01*
X31970Y10593D01*
X31970Y10593D01*
X31970Y11233D01*
X31970Y11833D01*
X31944Y11896D01*
X31896Y11944D01*
X31833Y11969D01*
X31766Y11970D01*
X31166Y11970D01*
X31103Y11944D01*
X31055Y11896D01*
X31030Y11833D01*
X31029Y11766D01*
X31029Y11166D01*
X31055Y11103D01*
X31103Y11055D01*
X31166Y11030D01*
X31233Y11029D01*
X31833Y11029D01*
X31896Y11055D01*
X31944Y11103D01*
X31969Y11166D01*
X31970Y11233D01*
X31970Y10593D01*
X31898Y10765D01*
X31766Y10898D01*
X31593Y10969D01*
X31406Y10970D01*
X31234Y10898D01*
X31101Y10766D01*
X31030Y10593D01*
X31029Y10406D01*
X31101Y10234D01*
X31233Y10101D01*
X31406Y10030D01*
X31593Y10029D01*
X31765Y10101D01*
X31898Y10233D01*
X31969Y10406D01*
X31970Y10593D01*
X31970Y7343D01*
X31970Y7343D01*
X31970Y7983D01*
X31970Y8583D01*
X31944Y8646D01*
X31896Y8694D01*
X31833Y8719D01*
X31766Y8720D01*
X31166Y8720D01*
X31103Y8694D01*
X31055Y8646D01*
X31030Y8583D01*
X31029Y8516D01*
X31029Y7916D01*
X31055Y7853D01*
X31103Y7805D01*
X31166Y7780D01*
X31233Y7779D01*
X31833Y7779D01*
X31896Y7805D01*
X31944Y7853D01*
X31969Y7916D01*
X31970Y7983D01*
X31970Y7343D01*
X31898Y7515D01*
X31766Y7648D01*
X31593Y7719D01*
X31406Y7720D01*
X31234Y7648D01*
X31101Y7516D01*
X31030Y7343D01*
X31029Y7156D01*
X31101Y6984D01*
X31233Y6851D01*
X31406Y6780D01*
X31593Y6779D01*
X31765Y6851D01*
X31898Y6983D01*
X31969Y7156D01*
X31970Y7343D01*
X31970Y4093D01*
X31970Y4093D01*
X31970Y4733D01*
X31970Y5333D01*
X31944Y5396D01*
X31896Y5444D01*
X31833Y5469D01*
X31766Y5470D01*
X31166Y5470D01*
X31103Y5444D01*
X31055Y5396D01*
X31030Y5333D01*
X31029Y5266D01*
X31029Y4666D01*
X31055Y4603D01*
X31103Y4555D01*
X31166Y4530D01*
X31233Y4529D01*
X31833Y4529D01*
X31896Y4555D01*
X31944Y4603D01*
X31969Y4666D01*
X31970Y4733D01*
X31970Y4093D01*
X31898Y4265D01*
X31766Y4398D01*
X31593Y4469D01*
X31406Y4470D01*
X31234Y4398D01*
X31101Y4266D01*
X31030Y4093D01*
X31029Y3906D01*
X31101Y3734D01*
X31233Y3601D01*
X31406Y3530D01*
X31593Y3529D01*
X31765Y3601D01*
X31898Y3733D01*
X31969Y3906D01*
X31970Y4093D01*
X31970Y2184D01*
X31913Y2241D01*
X31483Y2419D01*
X31018Y2420D01*
X30970Y2400D01*
X30970Y4093D01*
X30970Y5093D01*
X30970Y7343D01*
X30970Y8343D01*
X30898Y8515D01*
X30766Y8648D01*
X30593Y8719D01*
X30406Y8720D01*
X30234Y8648D01*
X30101Y8516D01*
X30030Y8343D01*
X30029Y8156D01*
X30101Y7984D01*
X30233Y7851D01*
X30406Y7780D01*
X30593Y7779D01*
X30765Y7851D01*
X30898Y7983D01*
X30969Y8156D01*
X30970Y8343D01*
X30970Y7343D01*
X30898Y7515D01*
X30766Y7648D01*
X30593Y7719D01*
X30406Y7720D01*
X30234Y7648D01*
X30101Y7516D01*
X30030Y7343D01*
X30029Y7156D01*
X30101Y6984D01*
X30233Y6851D01*
X30406Y6780D01*
X30593Y6779D01*
X30765Y6851D01*
X30898Y6983D01*
X30969Y7156D01*
X30970Y7343D01*
X30970Y5093D01*
X30898Y5265D01*
X30766Y5398D01*
X30593Y5469D01*
X30406Y5470D01*
X30234Y5398D01*
X30101Y5266D01*
X30030Y5093D01*
X30029Y4906D01*
X30101Y4734D01*
X30233Y4601D01*
X30406Y4530D01*
X30593Y4529D01*
X30765Y4601D01*
X30898Y4733D01*
X30969Y4906D01*
X30970Y5093D01*
X30970Y4093D01*
X30898Y4265D01*
X30766Y4398D01*
X30593Y4469D01*
X30406Y4470D01*
X30370Y4454D01*
X30162Y4662D01*
X30088Y4712D01*
X30000Y4730D01*
X29894Y4730D01*
X29898Y4733D01*
X29969Y4906D01*
X29970Y5093D01*
X29970Y7343D01*
X29970Y8343D01*
X29898Y8515D01*
X29766Y8648D01*
X29593Y8719D01*
X29406Y8720D01*
X29234Y8648D01*
X29101Y8516D01*
X29030Y8343D01*
X29029Y8156D01*
X29101Y7984D01*
X29233Y7851D01*
X29406Y7780D01*
X29593Y7779D01*
X29765Y7851D01*
X29898Y7983D01*
X29969Y8156D01*
X29970Y8343D01*
X29970Y7343D01*
X29898Y7515D01*
X29766Y7648D01*
X29593Y7719D01*
X29406Y7720D01*
X29234Y7648D01*
X29101Y7516D01*
X29030Y7343D01*
X29029Y7156D01*
X29101Y6984D01*
X29233Y6851D01*
X29406Y6780D01*
X29593Y6779D01*
X29765Y6851D01*
X29898Y6983D01*
X29969Y7156D01*
X29970Y7343D01*
X29970Y5093D01*
X29898Y5265D01*
X29766Y5398D01*
X29593Y5469D01*
X29406Y5470D01*
X29234Y5398D01*
X29101Y5266D01*
X29069Y5187D01*
X29069Y6476D01*
X29016Y6602D01*
X28954Y6665D01*
X28954Y7025D01*
X28941Y7088D01*
X28969Y7156D01*
X28970Y7343D01*
X28970Y8343D01*
X28898Y8515D01*
X28766Y8648D01*
X28593Y8719D01*
X28406Y8720D01*
X28234Y8648D01*
X28101Y8516D01*
X28030Y8343D01*
X28029Y8156D01*
X28101Y7984D01*
X28233Y7851D01*
X28406Y7780D01*
X28593Y7779D01*
X28765Y7851D01*
X28898Y7983D01*
X28969Y8156D01*
X28970Y8343D01*
X28970Y7343D01*
X28898Y7515D01*
X28766Y7648D01*
X28593Y7719D01*
X28406Y7720D01*
X28234Y7648D01*
X28101Y7516D01*
X28030Y7343D01*
X28029Y7156D01*
X28101Y6984D01*
X28233Y6851D01*
X28406Y6780D01*
X28494Y6780D01*
X28494Y6665D01*
X28431Y6603D01*
X28379Y6476D01*
X28378Y6339D01*
X28431Y6212D01*
X28528Y6115D01*
X28655Y6062D01*
X28792Y6062D01*
X28919Y6115D01*
X29016Y6212D01*
X29068Y6338D01*
X29069Y6476D01*
X29069Y5187D01*
X29030Y5093D01*
X29029Y4906D01*
X29101Y4734D01*
X29105Y4730D01*
X28894Y4730D01*
X28898Y4733D01*
X28969Y4906D01*
X28970Y5093D01*
X28898Y5265D01*
X28766Y5398D01*
X28593Y5469D01*
X28406Y5470D01*
X28234Y5398D01*
X28101Y5266D01*
X28030Y5093D01*
X28029Y4906D01*
X28101Y4734D01*
X28105Y4730D01*
X27845Y4730D01*
X27647Y4927D01*
X27572Y4977D01*
X27484Y4994D01*
X27374Y4994D01*
X27377Y4997D01*
X27444Y5161D01*
X27445Y5338D01*
X27435Y5360D01*
X27707Y5632D01*
X27757Y5706D01*
X27757Y5706D01*
X27774Y5794D01*
X27774Y8449D01*
X29370Y10044D01*
X29406Y10030D01*
X29593Y10029D01*
X29750Y10094D01*
X29750Y9867D01*
X29687Y9804D01*
X29635Y9678D01*
X29635Y9540D01*
X29687Y9413D01*
X29784Y9316D01*
X29911Y9264D01*
X30048Y9264D01*
X30175Y9316D01*
X30272Y9413D01*
X30325Y9540D01*
X30325Y9677D01*
X30272Y9804D01*
X30210Y9867D01*
X30210Y10125D01*
X30233Y10101D01*
X30406Y10030D01*
X30593Y10029D01*
X30765Y10101D01*
X30898Y10233D01*
X30969Y10406D01*
X30970Y10593D01*
X30970Y11593D01*
X30898Y11765D01*
X30766Y11898D01*
X30593Y11969D01*
X30406Y11970D01*
X30234Y11898D01*
X30101Y11766D01*
X30030Y11593D01*
X30029Y11406D01*
X30101Y11234D01*
X30233Y11101D01*
X30406Y11030D01*
X30593Y11029D01*
X30765Y11101D01*
X30898Y11233D01*
X30969Y11406D01*
X30970Y11593D01*
X30970Y10593D01*
X30898Y10765D01*
X30766Y10898D01*
X30593Y10969D01*
X30406Y10970D01*
X30234Y10898D01*
X30210Y10874D01*
X30210Y11019D01*
X30210Y11019D01*
X30210Y11019D01*
X30192Y11107D01*
X30142Y11182D01*
X30142Y11182D01*
X29955Y11370D01*
X29969Y11406D01*
X29970Y11593D01*
X29898Y11765D01*
X29766Y11898D01*
X29593Y11969D01*
X29406Y11970D01*
X29234Y11898D01*
X29225Y11889D01*
X29225Y13264D01*
X29225Y13735D01*
X29224Y13814D01*
X29194Y13888D01*
X29138Y13944D01*
X29064Y13975D01*
X28850Y13975D01*
X28800Y13925D01*
X28800Y13550D01*
X29175Y13550D01*
X29225Y13600D01*
X29225Y13735D01*
X29225Y13264D01*
X29225Y13400D01*
X29175Y13450D01*
X28800Y13450D01*
X28800Y13075D01*
X28850Y13025D01*
X29064Y13024D01*
X29138Y13055D01*
X29194Y13111D01*
X29224Y13185D01*
X29225Y13264D01*
X29225Y11889D01*
X29101Y11766D01*
X29030Y11593D01*
X29029Y11406D01*
X29101Y11234D01*
X29233Y11101D01*
X29406Y11030D01*
X29593Y11029D01*
X29629Y11045D01*
X29750Y10924D01*
X29750Y10905D01*
X29593Y10969D01*
X29406Y10970D01*
X29234Y10898D01*
X29101Y10766D01*
X29030Y10593D01*
X29029Y10406D01*
X29045Y10370D01*
X28970Y10295D01*
X28970Y10593D01*
X28970Y11593D01*
X28898Y11765D01*
X28766Y11898D01*
X28700Y11925D01*
X28700Y13075D01*
X28700Y13450D01*
X28700Y13550D01*
X28700Y13925D01*
X28650Y13975D01*
X28435Y13975D01*
X28361Y13944D01*
X28305Y13888D01*
X28275Y13814D01*
X28274Y13735D01*
X28275Y13600D01*
X28325Y13550D01*
X28700Y13550D01*
X28700Y13450D01*
X28325Y13450D01*
X28275Y13400D01*
X28274Y13264D01*
X28275Y13185D01*
X28305Y13111D01*
X28361Y13055D01*
X28435Y13024D01*
X28650Y13025D01*
X28700Y13075D01*
X28700Y11925D01*
X28593Y11969D01*
X28406Y11970D01*
X28234Y11898D01*
X28195Y11859D01*
X28195Y13588D01*
X28127Y13751D01*
X28002Y13877D01*
X27838Y13944D01*
X27661Y13945D01*
X27498Y13877D01*
X27372Y13752D01*
X27305Y13588D01*
X27304Y13411D01*
X27372Y13248D01*
X27497Y13122D01*
X27661Y13055D01*
X27838Y13054D01*
X28001Y13122D01*
X28127Y13247D01*
X28194Y13411D01*
X28195Y13588D01*
X28195Y11859D01*
X28101Y11766D01*
X28030Y11593D01*
X28029Y11406D01*
X28101Y11234D01*
X28233Y11101D01*
X28406Y11030D01*
X28593Y11029D01*
X28765Y11101D01*
X28898Y11233D01*
X28969Y11406D01*
X28970Y11593D01*
X28970Y10593D01*
X28898Y10765D01*
X28766Y10898D01*
X28593Y10969D01*
X28406Y10970D01*
X28234Y10898D01*
X28101Y10766D01*
X28030Y10593D01*
X28029Y10406D01*
X28101Y10234D01*
X28233Y10101D01*
X28406Y10030D01*
X28593Y10029D01*
X28765Y10101D01*
X28898Y10233D01*
X28969Y10406D01*
X28970Y10593D01*
X28970Y10295D01*
X27475Y8800D01*
X27475Y10935D01*
X27475Y11564D01*
X27444Y11638D01*
X27388Y11694D01*
X27314Y11724D01*
X27235Y11725D01*
X27195Y11725D01*
X27195Y13588D01*
X27127Y13751D01*
X27002Y13877D01*
X26838Y13944D01*
X26661Y13945D01*
X26498Y13877D01*
X26372Y13752D01*
X26305Y13588D01*
X26304Y13411D01*
X26372Y13248D01*
X26497Y13122D01*
X26661Y13055D01*
X26838Y13054D01*
X27001Y13122D01*
X27127Y13247D01*
X27194Y13411D01*
X27195Y13588D01*
X27195Y11725D01*
X27100Y11725D01*
X27050Y11675D01*
X27050Y11300D01*
X27425Y11300D01*
X27475Y11350D01*
X27475Y11564D01*
X27475Y10935D01*
X27475Y11150D01*
X27425Y11200D01*
X27050Y11200D01*
X27050Y10825D01*
X27100Y10775D01*
X27235Y10774D01*
X27314Y10775D01*
X27388Y10805D01*
X27444Y10861D01*
X27475Y10935D01*
X27475Y8800D01*
X27382Y8707D01*
X27332Y8632D01*
X27318Y8561D01*
X27252Y8627D01*
X27088Y8694D01*
X26911Y8695D01*
X26748Y8627D01*
X26685Y8564D01*
X26685Y8935D01*
X26747Y8872D01*
X26911Y8805D01*
X27088Y8804D01*
X27251Y8872D01*
X27377Y8997D01*
X27444Y9161D01*
X27445Y9338D01*
X27377Y9501D01*
X27252Y9627D01*
X27088Y9694D01*
X26911Y9695D01*
X26748Y9627D01*
X26685Y9564D01*
X26685Y9935D01*
X26747Y9872D01*
X26911Y9805D01*
X27088Y9804D01*
X27251Y9872D01*
X27377Y9997D01*
X27444Y10161D01*
X27445Y10338D01*
X27377Y10501D01*
X27252Y10627D01*
X27088Y10694D01*
X26950Y10695D01*
X26950Y10825D01*
X26950Y11200D01*
X26950Y11300D01*
X26950Y11675D01*
X26900Y11725D01*
X26764Y11725D01*
X26685Y11724D01*
X26611Y11694D01*
X26555Y11638D01*
X26524Y11564D01*
X26525Y11350D01*
X26575Y11300D01*
X26950Y11300D01*
X26950Y11200D01*
X26575Y11200D01*
X26525Y11150D01*
X26524Y10935D01*
X26555Y10861D01*
X26611Y10805D01*
X26685Y10775D01*
X26764Y10774D01*
X26900Y10775D01*
X26950Y10825D01*
X26950Y10695D01*
X26911Y10695D01*
X26748Y10627D01*
X26665Y10544D01*
X26617Y10616D01*
X26617Y10616D01*
X26387Y10846D01*
X26419Y10878D01*
X26444Y10941D01*
X26445Y11008D01*
X26445Y11558D01*
X26419Y11621D01*
X26371Y11669D01*
X26308Y11694D01*
X26241Y11695D01*
X25691Y11695D01*
X25628Y11669D01*
X25580Y11621D01*
X25555Y11558D01*
X25554Y11491D01*
X25554Y10941D01*
X25580Y10878D01*
X25628Y10830D01*
X25691Y10805D01*
X25758Y10804D01*
X25770Y10804D01*
X25770Y10794D01*
X25787Y10706D01*
X25820Y10657D01*
X25748Y10627D01*
X25622Y10502D01*
X25555Y10338D01*
X25554Y10161D01*
X25622Y9998D01*
X25747Y9872D01*
X25911Y9805D01*
X26088Y9804D01*
X26225Y9861D01*
X26225Y9638D01*
X26088Y9694D01*
X25911Y9695D01*
X25748Y9627D01*
X25622Y9502D01*
X25555Y9338D01*
X25554Y9161D01*
X25622Y8998D01*
X25747Y8872D01*
X25911Y8805D01*
X26088Y8804D01*
X26225Y8861D01*
X26225Y8638D01*
X26088Y8694D01*
X25911Y8695D01*
X25748Y8627D01*
X25622Y8502D01*
X25555Y8338D01*
X25554Y8161D01*
X25622Y7998D01*
X25747Y7872D01*
X25911Y7805D01*
X26088Y7804D01*
X26225Y7861D01*
X26225Y7638D01*
X26088Y7694D01*
X25911Y7695D01*
X25748Y7627D01*
X25622Y7502D01*
X25555Y7338D01*
X25554Y7161D01*
X25622Y6998D01*
X25747Y6872D01*
X25911Y6805D01*
X26088Y6804D01*
X26225Y6861D01*
X26225Y6638D01*
X26088Y6694D01*
X25911Y6695D01*
X25748Y6627D01*
X25622Y6502D01*
X25555Y6338D01*
X25554Y6161D01*
X25622Y5998D01*
X25747Y5872D01*
X25911Y5805D01*
X26088Y5804D01*
X26225Y5861D01*
X26225Y5638D01*
X26088Y5694D01*
X25911Y5695D01*
X25748Y5627D01*
X25622Y5502D01*
X25555Y5338D01*
X25554Y5161D01*
X25622Y4998D01*
X25747Y4872D01*
X25911Y4805D01*
X26088Y4804D01*
X26251Y4872D01*
X26328Y4949D01*
X26675Y4602D01*
X26675Y4602D01*
X26704Y4583D01*
X26622Y4502D01*
X26555Y4338D01*
X26554Y4161D01*
X26620Y4002D01*
X26379Y4002D01*
X26444Y4161D01*
X26445Y4338D01*
X26377Y4501D01*
X26252Y4627D01*
X26088Y4694D01*
X25911Y4695D01*
X25748Y4627D01*
X25622Y4502D01*
X25555Y4338D01*
X25554Y4161D01*
X25593Y4069D01*
X23730Y5932D01*
X23730Y8436D01*
X23717Y8624D01*
X23669Y8742D01*
X23590Y8769D01*
X23519Y8698D01*
X23519Y8840D01*
X23492Y8919D01*
X23470Y8926D01*
X23470Y12343D01*
X23470Y13343D01*
X23398Y13515D01*
X23266Y13648D01*
X23093Y13719D01*
X22906Y13720D01*
X22734Y13648D01*
X22601Y13516D01*
X22530Y13343D01*
X22529Y13156D01*
X22601Y12984D01*
X22733Y12851D01*
X22906Y12780D01*
X23093Y12779D01*
X23265Y12851D01*
X23398Y12983D01*
X23469Y13156D01*
X23470Y13343D01*
X23470Y12343D01*
X23398Y12515D01*
X23266Y12648D01*
X23093Y12719D01*
X22906Y12720D01*
X22734Y12648D01*
X22601Y12516D01*
X22530Y12343D01*
X22529Y12156D01*
X22601Y11984D01*
X22733Y11851D01*
X22906Y11780D01*
X23093Y11779D01*
X23265Y11851D01*
X23398Y11983D01*
X23469Y12156D01*
X23470Y12343D01*
X23470Y8926D01*
X23445Y8935D01*
X23445Y10588D01*
X23377Y10751D01*
X23252Y10877D01*
X23088Y10944D01*
X22911Y10945D01*
X22748Y10877D01*
X22622Y10752D01*
X22555Y10588D01*
X22554Y10411D01*
X22622Y10248D01*
X22747Y10122D01*
X22911Y10055D01*
X23088Y10054D01*
X23251Y10122D01*
X23377Y10247D01*
X23444Y10411D01*
X23445Y10588D01*
X23445Y8935D01*
X23313Y8980D01*
X23125Y8967D01*
X23007Y8919D01*
X22980Y8840D01*
X23250Y8570D01*
X23519Y8840D01*
X23519Y8698D01*
X23320Y8500D01*
X23590Y8230D01*
X23669Y8257D01*
X23730Y8436D01*
X23730Y5932D01*
X23695Y5967D01*
X23695Y7588D01*
X23627Y7751D01*
X23519Y7859D01*
X23519Y8159D01*
X23250Y8429D01*
X23179Y8358D01*
X23179Y8500D01*
X22909Y8769D01*
X22830Y8742D01*
X22818Y8706D01*
X22783Y8742D01*
X22656Y8794D01*
X22568Y8794D01*
X22558Y8803D01*
X22558Y9287D01*
X22621Y9349D01*
X22673Y9476D01*
X22673Y9613D01*
X22621Y9740D01*
X22524Y9837D01*
X22504Y9845D01*
X22504Y13180D01*
X22493Y13378D01*
X22439Y13507D01*
X22358Y13537D01*
X22287Y13467D01*
X22287Y13608D01*
X22257Y13689D01*
X22069Y13754D01*
X21871Y13743D01*
X21742Y13689D01*
X21712Y13608D01*
X22000Y13320D01*
X22287Y13608D01*
X22287Y13467D01*
X22070Y13250D01*
X22358Y12962D01*
X22439Y12992D01*
X22504Y13180D01*
X22504Y9845D01*
X22470Y9859D01*
X22470Y12343D01*
X22398Y12515D01*
X22287Y12626D01*
X22287Y12891D01*
X22000Y13179D01*
X21929Y13108D01*
X21929Y13250D01*
X21641Y13537D01*
X21560Y13507D01*
X21495Y13319D01*
X21506Y13121D01*
X21560Y12992D01*
X21641Y12962D01*
X21929Y13250D01*
X21929Y13108D01*
X21712Y12891D01*
X21742Y12810D01*
X21930Y12745D01*
X22128Y12756D01*
X22257Y12810D01*
X22287Y12891D01*
X22287Y12626D01*
X22266Y12648D01*
X22093Y12719D01*
X21906Y12720D01*
X21734Y12648D01*
X21601Y12516D01*
X21530Y12343D01*
X21529Y12156D01*
X21601Y11984D01*
X21733Y11851D01*
X21906Y11780D01*
X22093Y11779D01*
X22265Y11851D01*
X22398Y11983D01*
X22469Y12156D01*
X22470Y12343D01*
X22470Y9859D01*
X22397Y9890D01*
X22260Y9890D01*
X22133Y9837D01*
X22036Y9740D01*
X21983Y9614D01*
X21983Y9476D01*
X22036Y9349D01*
X22098Y9287D01*
X22098Y8708D01*
X22116Y8620D01*
X22166Y8546D01*
X22242Y8469D01*
X22242Y8381D01*
X22295Y8254D01*
X22392Y8157D01*
X22518Y8104D01*
X22656Y8104D01*
X22782Y8157D01*
X22869Y8243D01*
X22909Y8230D01*
X23179Y8500D01*
X23179Y8358D01*
X22980Y8159D01*
X23007Y8080D01*
X23186Y8019D01*
X23374Y8032D01*
X23492Y8080D01*
X23519Y8159D01*
X23519Y7859D01*
X23502Y7877D01*
X23338Y7944D01*
X23161Y7945D01*
X22998Y7877D01*
X22872Y7752D01*
X22805Y7588D01*
X22804Y7411D01*
X22872Y7248D01*
X22997Y7122D01*
X23161Y7055D01*
X23338Y7054D01*
X23501Y7122D01*
X23627Y7247D01*
X23694Y7411D01*
X23695Y7588D01*
X23695Y5967D01*
X21975Y7687D01*
X21975Y9264D01*
X21975Y9735D01*
X21974Y9814D01*
X21944Y9888D01*
X21888Y9944D01*
X21814Y9975D01*
X21600Y9975D01*
X21550Y9925D01*
X21550Y9550D01*
X21925Y9550D01*
X21975Y9600D01*
X21975Y9735D01*
X21975Y9264D01*
X21975Y9400D01*
X21925Y9450D01*
X21550Y9450D01*
X21550Y9075D01*
X21600Y9025D01*
X21814Y9024D01*
X21888Y9055D01*
X21944Y9111D01*
X21974Y9185D01*
X21975Y9264D01*
X21975Y7687D01*
X21470Y8192D01*
X21470Y12343D01*
X21470Y13343D01*
X21398Y13515D01*
X21266Y13648D01*
X21093Y13719D01*
X20906Y13720D01*
X20734Y13648D01*
X20601Y13516D01*
X20530Y13343D01*
X20529Y13156D01*
X20601Y12984D01*
X20733Y12851D01*
X20906Y12780D01*
X21093Y12779D01*
X21265Y12851D01*
X21398Y12983D01*
X21469Y13156D01*
X21470Y13343D01*
X21470Y12343D01*
X21398Y12515D01*
X21266Y12648D01*
X21093Y12719D01*
X20906Y12720D01*
X20734Y12648D01*
X20601Y12516D01*
X20530Y12343D01*
X20529Y12156D01*
X20545Y12120D01*
X20451Y12027D01*
X20504Y12180D01*
X20493Y12378D01*
X20470Y12434D01*
X20470Y13343D01*
X20398Y13515D01*
X20266Y13648D01*
X20093Y13719D01*
X19906Y13720D01*
X19734Y13648D01*
X19644Y13558D01*
X19644Y14306D01*
X19591Y14433D01*
X19494Y14530D01*
X19368Y14582D01*
X19230Y14582D01*
X19103Y14530D01*
X19006Y14433D01*
X18954Y14306D01*
X18954Y14218D01*
X18325Y13589D01*
X18266Y13648D01*
X18093Y13719D01*
X17906Y13720D01*
X17870Y13704D01*
X17547Y14027D01*
X17472Y14077D01*
X17384Y14095D01*
X16186Y14095D01*
X16186Y14095D01*
X16098Y14077D01*
X16024Y14027D01*
X16024Y14027D01*
X15337Y13340D01*
X15287Y13266D01*
X15270Y13178D01*
X15270Y9886D01*
X15248Y9877D01*
X15122Y9752D01*
X15055Y9588D01*
X15054Y9411D01*
X15122Y9248D01*
X15247Y9122D01*
X15411Y9055D01*
X15588Y9054D01*
X15674Y9090D01*
X15673Y9025D01*
X15565Y8917D01*
X14945Y8917D01*
X14945Y9588D01*
X14945Y10588D01*
X14945Y10588D01*
X14945Y13258D01*
X14945Y13808D01*
X14919Y13871D01*
X14871Y13919D01*
X14808Y13944D01*
X14741Y13945D01*
X14191Y13945D01*
X14128Y13919D01*
X14080Y13871D01*
X14055Y13808D01*
X14054Y13741D01*
X14054Y13191D01*
X14080Y13128D01*
X14128Y13080D01*
X14191Y13055D01*
X14258Y13054D01*
X14808Y13054D01*
X14871Y13080D01*
X14919Y13128D01*
X14944Y13191D01*
X14945Y13258D01*
X14945Y10588D01*
X14877Y10751D01*
X14752Y10877D01*
X14588Y10944D01*
X14411Y10945D01*
X14248Y10877D01*
X14122Y10752D01*
X14055Y10588D01*
X14054Y10411D01*
X14122Y10248D01*
X14247Y10122D01*
X14411Y10055D01*
X14588Y10054D01*
X14751Y10122D01*
X14877Y10247D01*
X14944Y10411D01*
X14945Y10588D01*
X14945Y9588D01*
X14877Y9751D01*
X14752Y9877D01*
X14588Y9944D01*
X14411Y9945D01*
X14248Y9877D01*
X14122Y9752D01*
X14055Y9588D01*
X14054Y9411D01*
X14122Y9248D01*
X14247Y9122D01*
X14411Y9055D01*
X14588Y9054D01*
X14751Y9122D01*
X14877Y9247D01*
X14944Y9411D01*
X14945Y9588D01*
X14945Y8917D01*
X13242Y8917D01*
X13389Y9064D01*
X13411Y9055D01*
X13588Y9054D01*
X13751Y9122D01*
X13877Y9247D01*
X13944Y9411D01*
X13945Y9588D01*
X13945Y10588D01*
X13945Y13588D01*
X13877Y13751D01*
X13752Y13877D01*
X13588Y13944D01*
X13411Y13945D01*
X13248Y13877D01*
X13122Y13752D01*
X13055Y13588D01*
X13054Y13411D01*
X13122Y13248D01*
X13247Y13122D01*
X13411Y13055D01*
X13588Y13054D01*
X13751Y13122D01*
X13877Y13247D01*
X13944Y13411D01*
X13945Y13588D01*
X13945Y10588D01*
X13877Y10751D01*
X13752Y10877D01*
X13588Y10944D01*
X13411Y10945D01*
X13248Y10877D01*
X13122Y10752D01*
X13055Y10588D01*
X13054Y10411D01*
X13122Y10248D01*
X13247Y10122D01*
X13411Y10055D01*
X13588Y10054D01*
X13751Y10122D01*
X13877Y10247D01*
X13944Y10411D01*
X13945Y10588D01*
X13945Y9588D01*
X13877Y9751D01*
X13752Y9877D01*
X13588Y9944D01*
X13411Y9945D01*
X13248Y9877D01*
X13122Y9752D01*
X13055Y9588D01*
X13054Y9411D01*
X13064Y9389D01*
X12949Y9274D01*
X12925Y9274D01*
X12980Y9436D01*
X12967Y9624D01*
X12945Y9679D01*
X12945Y10588D01*
X12945Y13588D01*
X12877Y13751D01*
X12752Y13877D01*
X12588Y13944D01*
X12411Y13945D01*
X12248Y13877D01*
X12122Y13752D01*
X12055Y13588D01*
X12054Y13411D01*
X12122Y13248D01*
X12247Y13122D01*
X12411Y13055D01*
X12588Y13054D01*
X12751Y13122D01*
X12877Y13247D01*
X12944Y13411D01*
X12945Y13588D01*
X12945Y10588D01*
X12877Y10751D01*
X12752Y10877D01*
X12588Y10944D01*
X12411Y10945D01*
X12248Y10877D01*
X12122Y10752D01*
X12055Y10588D01*
X12054Y10411D01*
X12122Y10248D01*
X12247Y10122D01*
X12411Y10055D01*
X12588Y10054D01*
X12751Y10122D01*
X12877Y10247D01*
X12944Y10411D01*
X12945Y10588D01*
X12945Y9679D01*
X12919Y9742D01*
X12840Y9769D01*
X12769Y9698D01*
X12769Y9840D01*
X12742Y9919D01*
X12563Y9980D01*
X12375Y9967D01*
X12257Y9919D01*
X12230Y9840D01*
X12500Y9570D01*
X12769Y9840D01*
X12769Y9698D01*
X12606Y9535D01*
X12570Y9500D01*
X12500Y9429D01*
X12429Y9500D01*
X12393Y9535D01*
X12159Y9769D01*
X12080Y9742D01*
X12019Y9563D01*
X12032Y9375D01*
X12073Y9274D01*
X11941Y9274D01*
X11879Y9337D01*
X11752Y9389D01*
X11615Y9389D01*
X11580Y9375D01*
X11580Y10736D01*
X11567Y10924D01*
X11545Y10979D01*
X11545Y13888D01*
X11477Y14051D01*
X11352Y14177D01*
X11188Y14244D01*
X11011Y14245D01*
X10848Y14177D01*
X10722Y14052D01*
X10655Y13888D01*
X10654Y13711D01*
X10722Y13548D01*
X10847Y13422D01*
X11011Y13355D01*
X11188Y13354D01*
X11351Y13422D01*
X11477Y13547D01*
X11544Y13711D01*
X11545Y13888D01*
X11545Y10979D01*
X11519Y11042D01*
X11440Y11069D01*
X11369Y10998D01*
X11369Y11140D01*
X11342Y11219D01*
X11163Y11280D01*
X10975Y11267D01*
X10857Y11219D01*
X10830Y11140D01*
X11100Y10870D01*
X11369Y11140D01*
X11369Y10998D01*
X11170Y10800D01*
X11440Y10530D01*
X11519Y10557D01*
X11580Y10736D01*
X11580Y9375D01*
X11488Y9337D01*
X11391Y9240D01*
X11369Y9188D01*
X11369Y10459D01*
X11100Y10729D01*
X11029Y10658D01*
X11029Y10800D01*
X10759Y11069D01*
X10680Y11042D01*
X10619Y10863D01*
X10632Y10675D01*
X10680Y10557D01*
X10759Y10530D01*
X11029Y10800D01*
X11029Y10658D01*
X10830Y10459D01*
X10857Y10380D01*
X11036Y10319D01*
X11224Y10332D01*
X11342Y10380D01*
X11369Y10459D01*
X11369Y9188D01*
X11338Y9113D01*
X11338Y8976D01*
X11363Y8917D01*
X10658Y8917D01*
X10480Y9095D01*
X10480Y10186D01*
X10467Y10374D01*
X10445Y10430D01*
X10445Y11008D01*
X10445Y11558D01*
X10419Y11621D01*
X10371Y11669D01*
X10308Y11694D01*
X10241Y11695D01*
X9691Y11695D01*
X9628Y11669D01*
X9580Y11621D01*
X9555Y11558D01*
X9554Y11491D01*
X9554Y10941D01*
X9580Y10878D01*
X9628Y10830D01*
X9691Y10805D01*
X9758Y10804D01*
X10308Y10804D01*
X10371Y10830D01*
X10419Y10878D01*
X10444Y10941D01*
X10445Y11008D01*
X10445Y10430D01*
X10419Y10492D01*
X10340Y10519D01*
X10269Y10448D01*
X10269Y10590D01*
X10242Y10669D01*
X10063Y10730D01*
X9875Y10717D01*
X9757Y10669D01*
X9730Y10590D01*
X10000Y10320D01*
X10269Y10590D01*
X10269Y10448D01*
X10070Y10250D01*
X10340Y9980D01*
X10419Y10007D01*
X10480Y10186D01*
X10480Y9095D01*
X10435Y9139D01*
X10444Y9161D01*
X10445Y9338D01*
X10377Y9501D01*
X10269Y9609D01*
X10269Y9909D01*
X10000Y10179D01*
X9929Y10108D01*
X9929Y10250D01*
X9659Y10519D01*
X9580Y10492D01*
X9519Y10313D01*
X9532Y10125D01*
X9580Y10007D01*
X9659Y9980D01*
X9929Y10250D01*
X9929Y10108D01*
X9730Y9909D01*
X9757Y9830D01*
X9936Y9769D01*
X10124Y9782D01*
X10242Y9830D01*
X10269Y9909D01*
X10269Y9609D01*
X10252Y9627D01*
X10088Y9694D01*
X9911Y9695D01*
X9748Y9627D01*
X9622Y9502D01*
X9555Y9338D01*
X9554Y9161D01*
X9622Y8998D01*
X9747Y8872D01*
X9911Y8805D01*
X10088Y8804D01*
X10110Y8814D01*
X10400Y8524D01*
X10400Y8524D01*
X10474Y8474D01*
X10562Y8457D01*
X15660Y8457D01*
X15748Y8474D01*
X15748Y8474D01*
X15823Y8524D01*
X15999Y8700D01*
X16087Y8700D01*
X16214Y8752D01*
X16311Y8849D01*
X16363Y8976D01*
X16364Y9074D01*
X16411Y9055D01*
X16588Y9054D01*
X16751Y9122D01*
X16877Y9247D01*
X16944Y9411D01*
X16945Y9588D01*
X16877Y9751D01*
X16752Y9877D01*
X16588Y9944D01*
X16411Y9945D01*
X16248Y9877D01*
X16122Y9752D01*
X16055Y9588D01*
X16054Y9411D01*
X16063Y9390D01*
X15950Y9390D01*
X15933Y9383D01*
X15944Y9411D01*
X15945Y9588D01*
X15877Y9751D01*
X15752Y9877D01*
X15730Y9886D01*
X15730Y13082D01*
X16282Y13635D01*
X16536Y13635D01*
X16491Y13590D01*
X16400Y13369D01*
X16399Y13131D01*
X16491Y12910D01*
X16659Y12741D01*
X16711Y12720D01*
X16666Y12720D01*
X16603Y12694D01*
X16555Y12646D01*
X16530Y12583D01*
X16529Y12516D01*
X16529Y11916D01*
X16555Y11853D01*
X16603Y11805D01*
X16666Y11780D01*
X16733Y11779D01*
X17333Y11779D01*
X17396Y11805D01*
X17444Y11853D01*
X17469Y11916D01*
X17470Y11983D01*
X17470Y12020D01*
X17480Y12020D01*
X17568Y12037D01*
X17576Y12043D01*
X17601Y11984D01*
X17733Y11851D01*
X17906Y11780D01*
X18093Y11779D01*
X18265Y11851D01*
X18289Y11875D01*
X18289Y10615D01*
X17610Y9935D01*
X17588Y9944D01*
X17411Y9945D01*
X17248Y9877D01*
X17122Y9752D01*
X17055Y9588D01*
X17054Y9411D01*
X17122Y9248D01*
X17247Y9122D01*
X17411Y9055D01*
X17588Y9054D01*
X17751Y9122D01*
X17877Y9247D01*
X17944Y9411D01*
X17945Y9588D01*
X17935Y9610D01*
X18682Y10357D01*
X18682Y10357D01*
X18682Y10357D01*
X18732Y10431D01*
X18749Y10519D01*
X18749Y10519D01*
X18749Y10519D01*
X18749Y11844D01*
X18906Y11780D01*
X19093Y11779D01*
X19265Y11851D01*
X19398Y11983D01*
X19469Y12156D01*
X19470Y12343D01*
X19398Y12515D01*
X19266Y12648D01*
X19093Y12719D01*
X18906Y12720D01*
X18829Y12687D01*
X18921Y12780D01*
X19093Y12779D01*
X19265Y12851D01*
X19398Y12983D01*
X19469Y13156D01*
X19470Y13343D01*
X19398Y13515D01*
X19266Y13648D01*
X19102Y13716D01*
X19279Y13892D01*
X19367Y13892D01*
X19494Y13945D01*
X19591Y14042D01*
X19644Y14168D01*
X19644Y14306D01*
X19644Y13558D01*
X19601Y13516D01*
X19530Y13343D01*
X19529Y13156D01*
X19601Y12984D01*
X19733Y12851D01*
X19906Y12780D01*
X20093Y12779D01*
X20265Y12851D01*
X20398Y12983D01*
X20469Y13156D01*
X20470Y13343D01*
X20470Y12434D01*
X20439Y12507D01*
X20358Y12537D01*
X20287Y12467D01*
X20287Y12608D01*
X20257Y12689D01*
X20069Y12754D01*
X19871Y12743D01*
X19742Y12689D01*
X19712Y12608D01*
X20000Y12320D01*
X20287Y12608D01*
X20287Y12467D01*
X20106Y12285D01*
X20070Y12250D01*
X20000Y12179D01*
X19964Y12143D01*
X19929Y12108D01*
X19929Y12250D01*
X19641Y12537D01*
X19560Y12507D01*
X19495Y12319D01*
X19506Y12121D01*
X19560Y11992D01*
X19641Y11962D01*
X19929Y12250D01*
X19929Y12108D01*
X19712Y11891D01*
X19742Y11810D01*
X19930Y11745D01*
X20128Y11756D01*
X20218Y11794D01*
X18340Y9915D01*
X18248Y9877D01*
X18122Y9752D01*
X18055Y9588D01*
X18054Y9411D01*
X18122Y9248D01*
X18247Y9122D01*
X18411Y9055D01*
X18588Y9054D01*
X18751Y9122D01*
X18877Y9247D01*
X18944Y9411D01*
X18945Y9588D01*
X18877Y9751D01*
X18852Y9776D01*
X19554Y10479D01*
X19554Y10411D01*
X19622Y10248D01*
X19747Y10122D01*
X19911Y10055D01*
X20088Y10054D01*
X20251Y10122D01*
X20377Y10247D01*
X20444Y10411D01*
X20445Y10588D01*
X20377Y10751D01*
X20252Y10877D01*
X20088Y10944D01*
X20020Y10944D01*
X20870Y11794D01*
X20906Y11780D01*
X21093Y11779D01*
X21265Y11851D01*
X21398Y11983D01*
X21469Y12156D01*
X21470Y12343D01*
X21470Y8192D01*
X21450Y8212D01*
X21450Y9075D01*
X21450Y9450D01*
X21450Y9550D01*
X21450Y9925D01*
X21400Y9975D01*
X21185Y9975D01*
X21111Y9944D01*
X21055Y9888D01*
X21025Y9814D01*
X21024Y9735D01*
X21025Y9600D01*
X21075Y9550D01*
X21450Y9550D01*
X21450Y9450D01*
X21075Y9450D01*
X21025Y9400D01*
X21024Y9264D01*
X21025Y9185D01*
X21055Y9111D01*
X21111Y9055D01*
X21185Y9024D01*
X21400Y9025D01*
X21450Y9075D01*
X21450Y8212D01*
X21395Y8266D01*
X21395Y8354D01*
X21343Y8481D01*
X21246Y8578D01*
X21119Y8631D01*
X20982Y8631D01*
X20945Y8616D01*
X20945Y9588D01*
X20877Y9751D01*
X20752Y9877D01*
X20588Y9944D01*
X20411Y9945D01*
X20248Y9877D01*
X20122Y9752D01*
X20055Y9588D01*
X20054Y9411D01*
X20122Y9248D01*
X20247Y9122D01*
X20411Y9055D01*
X20588Y9054D01*
X20751Y9122D01*
X20877Y9247D01*
X20944Y9411D01*
X20945Y9588D01*
X20945Y8616D01*
X20855Y8579D01*
X20758Y8482D01*
X20730Y8415D01*
X20393Y8752D01*
X20319Y8801D01*
X20231Y8819D01*
X19945Y8819D01*
X19945Y9588D01*
X19877Y9751D01*
X19752Y9877D01*
X19588Y9944D01*
X19411Y9945D01*
X19248Y9877D01*
X19122Y9752D01*
X19055Y9588D01*
X19054Y9411D01*
X19122Y9248D01*
X19247Y9122D01*
X19411Y9055D01*
X19588Y9054D01*
X19751Y9122D01*
X19877Y9247D01*
X19944Y9411D01*
X19945Y9588D01*
X19945Y8819D01*
X19249Y8819D01*
X19249Y8819D01*
X19161Y8801D01*
X19086Y8752D01*
X19086Y8752D01*
X17837Y7502D01*
X17787Y7428D01*
X17770Y7340D01*
X17770Y7169D01*
X17707Y7106D01*
X17655Y6980D01*
X17655Y6917D01*
X17588Y6944D01*
X17411Y6945D01*
X17248Y6877D01*
X17122Y6752D01*
X17055Y6588D01*
X17054Y6411D01*
X17064Y6389D01*
X16949Y6274D01*
X16888Y6274D01*
X16944Y6411D01*
X16945Y6588D01*
X16877Y6751D01*
X16752Y6877D01*
X16588Y6944D01*
X16411Y6945D01*
X16248Y6877D01*
X16122Y6752D01*
X16055Y6588D01*
X16054Y6411D01*
X16064Y6389D01*
X15734Y6060D01*
X15600Y6060D01*
X15751Y6122D01*
X15877Y6247D01*
X15944Y6411D01*
X15945Y6588D01*
X15877Y6751D01*
X15752Y6877D01*
X15588Y6944D01*
X15411Y6945D01*
X15248Y6877D01*
X15122Y6752D01*
X15055Y6588D01*
X15054Y6411D01*
X15122Y6248D01*
X15247Y6122D01*
X15406Y6056D01*
X15335Y6042D01*
X15260Y5992D01*
X15260Y5992D01*
X14945Y5676D01*
X14945Y6588D01*
X14877Y6751D01*
X14752Y6877D01*
X14588Y6944D01*
X14411Y6945D01*
X14248Y6877D01*
X14122Y6752D01*
X14055Y6588D01*
X14054Y6411D01*
X14064Y6389D01*
X13945Y6270D01*
X13945Y6588D01*
X13877Y6751D01*
X13752Y6877D01*
X13588Y6944D01*
X13411Y6945D01*
X13248Y6877D01*
X13122Y6752D01*
X13055Y6588D01*
X13054Y6411D01*
X13122Y6248D01*
X13247Y6122D01*
X13411Y6055D01*
X13588Y6054D01*
X13751Y6122D01*
X13877Y6247D01*
X13944Y6411D01*
X13945Y6588D01*
X13945Y6270D01*
X13340Y5665D01*
X13248Y5627D01*
X13122Y5502D01*
X13055Y5338D01*
X13054Y5161D01*
X13122Y4998D01*
X13247Y4872D01*
X13411Y4805D01*
X13588Y4804D01*
X13751Y4872D01*
X13877Y4997D01*
X13944Y5161D01*
X13945Y5338D01*
X13877Y5501D01*
X13852Y5526D01*
X14389Y6064D01*
X14411Y6055D01*
X14588Y6054D01*
X14751Y6122D01*
X14877Y6247D01*
X14944Y6411D01*
X14945Y6588D01*
X14945Y5676D01*
X14837Y5569D01*
X14826Y5552D01*
X14752Y5627D01*
X14588Y5694D01*
X14411Y5695D01*
X14248Y5627D01*
X14122Y5502D01*
X14055Y5338D01*
X14054Y5161D01*
X14122Y4998D01*
X14247Y4872D01*
X14411Y4805D01*
X14588Y4804D01*
X14751Y4872D01*
X14770Y4890D01*
X14770Y4845D01*
X12945Y3020D01*
X12945Y5338D01*
X12945Y6588D01*
X12877Y6751D01*
X12752Y6877D01*
X12588Y6944D01*
X12411Y6945D01*
X12248Y6877D01*
X12122Y6752D01*
X12055Y6588D01*
X12054Y6411D01*
X12122Y6248D01*
X12247Y6122D01*
X12411Y6055D01*
X12588Y6054D01*
X12751Y6122D01*
X12877Y6247D01*
X12944Y6411D01*
X12945Y6588D01*
X12945Y5338D01*
X12877Y5501D01*
X12752Y5627D01*
X12588Y5694D01*
X12411Y5695D01*
X12248Y5627D01*
X12122Y5502D01*
X12055Y5338D01*
X12054Y5161D01*
X12122Y4998D01*
X12247Y4872D01*
X12411Y4805D01*
X12588Y4804D01*
X12751Y4872D01*
X12877Y4997D01*
X12944Y5161D01*
X12945Y5338D01*
X12945Y3020D01*
X12610Y2685D01*
X12588Y2694D01*
X12411Y2695D01*
X12248Y2627D01*
X12122Y2502D01*
X12055Y2338D01*
X12054Y2161D01*
X12122Y1998D01*
X12247Y1872D01*
X12411Y1805D01*
X12588Y1804D01*
X12751Y1872D01*
X12877Y1997D01*
X12944Y2161D01*
X12945Y2338D01*
X12935Y2360D01*
X15162Y4587D01*
X15212Y4661D01*
X15212Y4661D01*
X15230Y4750D01*
X15230Y4890D01*
X15247Y4872D01*
X15411Y4805D01*
X15588Y4804D01*
X15751Y4872D01*
X15770Y4890D01*
X15770Y4845D01*
X13610Y2685D01*
X13588Y2694D01*
X13411Y2695D01*
X13248Y2627D01*
X13122Y2502D01*
X13055Y2338D01*
X13054Y2161D01*
X13122Y1998D01*
X13247Y1872D01*
X13411Y1805D01*
X13588Y1804D01*
X13751Y1872D01*
X13877Y1997D01*
X13944Y2161D01*
X13945Y2338D01*
X13935Y2360D01*
X16162Y4587D01*
X16212Y4661D01*
X16212Y4661D01*
X16230Y4750D01*
X16230Y4890D01*
X16247Y4872D01*
X16411Y4805D01*
X16588Y4804D01*
X16751Y4872D01*
X16877Y4997D01*
X16944Y5161D01*
X16945Y5338D01*
X16877Y5501D01*
X16752Y5627D01*
X16614Y5684D01*
X16745Y5814D01*
X17044Y5814D01*
X17132Y5832D01*
X17132Y5832D01*
X17207Y5882D01*
X17389Y6064D01*
X17411Y6055D01*
X17588Y6054D01*
X17751Y6122D01*
X17877Y6247D01*
X17944Y6411D01*
X17945Y6566D01*
X18055Y6566D01*
X18054Y6411D01*
X18122Y6248D01*
X18247Y6122D01*
X18411Y6055D01*
X18588Y6054D01*
X18751Y6122D01*
X18877Y6247D01*
X18944Y6411D01*
X18945Y6588D01*
X18877Y6751D01*
X18752Y6877D01*
X18588Y6944D01*
X18411Y6945D01*
X18345Y6917D01*
X18345Y6979D01*
X18292Y7106D01*
X18230Y7169D01*
X18230Y7244D01*
X19053Y8068D01*
X19102Y7951D01*
X19213Y7839D01*
X19358Y7779D01*
X19450Y7779D01*
X20295Y6934D01*
X20257Y6919D01*
X20230Y6840D01*
X20464Y6606D01*
X20500Y6570D01*
X20570Y6500D01*
X20500Y6429D01*
X20464Y6393D01*
X20429Y6358D01*
X20429Y6500D01*
X20159Y6769D01*
X20080Y6742D01*
X20019Y6563D01*
X20032Y6375D01*
X20080Y6257D01*
X20159Y6230D01*
X20429Y6500D01*
X20429Y6358D01*
X20230Y6159D01*
X20257Y6080D01*
X20436Y6019D01*
X20624Y6032D01*
X20742Y6080D01*
X20751Y6106D01*
X20771Y6087D01*
X20781Y6097D01*
X20813Y6049D01*
X21175Y5688D01*
X21128Y5669D01*
X21080Y5621D01*
X21055Y5558D01*
X21054Y5491D01*
X21054Y4941D01*
X21080Y4878D01*
X21128Y4830D01*
X21191Y4805D01*
X21258Y4804D01*
X21808Y4804D01*
X21871Y4830D01*
X21919Y4878D01*
X21938Y4924D01*
X22804Y4059D01*
X22863Y4019D01*
X22872Y3998D01*
X22997Y3872D01*
X23161Y3805D01*
X23338Y3804D01*
X23501Y3872D01*
X23627Y3997D01*
X23694Y4161D01*
X23695Y4338D01*
X23627Y4501D01*
X23502Y4627D01*
X23338Y4694D01*
X23161Y4695D01*
X22999Y4627D01*
X22186Y5440D01*
X22098Y5499D01*
X21995Y5520D01*
X21945Y5520D01*
X21945Y5558D01*
X21919Y5621D01*
X21871Y5669D01*
X21808Y5694D01*
X21770Y5695D01*
X21770Y5745D01*
X21769Y5745D01*
X21770Y5745D01*
X21765Y5765D01*
X21749Y5848D01*
X21749Y5848D01*
X21690Y5936D01*
X21690Y5936D01*
X21572Y6054D01*
X21588Y6054D01*
X21751Y6122D01*
X21877Y6247D01*
X21944Y6411D01*
X21945Y6550D01*
X23180Y5314D01*
X23160Y5265D01*
X23159Y5128D01*
X23212Y5001D01*
X23309Y4904D01*
X23436Y4851D01*
X23573Y4851D01*
X23700Y4903D01*
X23797Y5000D01*
X23849Y5127D01*
X23849Y5161D01*
X25401Y3610D01*
X25476Y3560D01*
X25476Y3560D01*
X25564Y3542D01*
X25663Y3542D01*
X25622Y3502D01*
X25555Y3338D01*
X25554Y3161D01*
X25622Y2998D01*
X25747Y2872D01*
X25911Y2805D01*
X26088Y2804D01*
X26251Y2872D01*
X26377Y2997D01*
X26444Y3161D01*
X26445Y3338D01*
X26377Y3501D01*
X26336Y3542D01*
X26663Y3542D01*
X26622Y3502D01*
X26555Y3338D01*
X26554Y3161D01*
X26622Y2998D01*
X26747Y2872D01*
X26911Y2805D01*
X27088Y2804D01*
X27251Y2872D01*
X27377Y2997D01*
X27444Y3161D01*
X27445Y3338D01*
X27377Y3501D01*
X27336Y3542D01*
X28272Y3542D01*
X28342Y3556D01*
X28406Y3530D01*
X28593Y3529D01*
X28765Y3601D01*
X28898Y3733D01*
X28969Y3906D01*
X28970Y4093D01*
X28898Y4265D01*
X28894Y4270D01*
X29105Y4270D01*
X29101Y4266D01*
X29030Y4093D01*
X29029Y3906D01*
X29101Y3734D01*
X29233Y3601D01*
X29406Y3530D01*
X29593Y3529D01*
X29765Y3601D01*
X29898Y3733D01*
X29969Y3906D01*
X29970Y4093D01*
X29898Y4265D01*
X29894Y4270D01*
X29904Y4270D01*
X30044Y4129D01*
X30030Y4093D01*
X30029Y3906D01*
X30101Y3734D01*
X30233Y3601D01*
X30406Y3530D01*
X30593Y3529D01*
X30765Y3601D01*
X30898Y3733D01*
X30969Y3906D01*
X30970Y4093D01*
X30970Y2400D01*
X30588Y2242D01*
X30258Y1913D01*
X30080Y1483D01*
X30079Y1018D01*
X30257Y588D01*
X30586Y258D01*
X30777Y179D01*
X26847Y179D01*
X28941Y2355D01*
X29078Y2354D01*
X29223Y2414D01*
X29334Y2525D01*
X29394Y2671D01*
X29395Y2828D01*
X29335Y2973D01*
X29224Y3084D01*
X29078Y3144D01*
X28921Y3145D01*
X28776Y3085D01*
X28665Y2974D01*
X28605Y2828D01*
X28604Y2671D01*
X28605Y2669D01*
X27445Y1463D01*
X27445Y2338D01*
X27377Y2501D01*
X27252Y2627D01*
X27088Y2694D01*
X26911Y2695D01*
X26748Y2627D01*
X26622Y2502D01*
X26555Y2338D01*
X26554Y2161D01*
X26622Y1998D01*
X26747Y1872D01*
X26911Y1805D01*
X27088Y1804D01*
X27251Y1872D01*
X27377Y1997D01*
X27444Y2161D01*
X27445Y2338D01*
X27445Y1463D01*
X26445Y424D01*
X26445Y2338D01*
X26377Y2501D01*
X26252Y2627D01*
X26088Y2694D01*
X25911Y2695D01*
X25748Y2627D01*
X25622Y2502D01*
X25555Y2338D01*
X25554Y2161D01*
X25622Y1998D01*
X25747Y1872D01*
X25911Y1805D01*
X26088Y1804D01*
X26251Y1872D01*
X26377Y1997D01*
X26444Y2161D01*
X26445Y2338D01*
X26445Y424D01*
X26402Y380D01*
X24480Y380D01*
X24480Y1436D01*
X24467Y1624D01*
X24419Y1742D01*
X24340Y1769D01*
X24269Y1698D01*
X24269Y1840D01*
X24242Y1919D01*
X24063Y1980D01*
X23875Y1967D01*
X23757Y1919D01*
X23730Y1840D01*
X24000Y1570D01*
X24269Y1840D01*
X24269Y1698D01*
X24070Y1500D01*
X24340Y1230D01*
X24419Y1257D01*
X24480Y1436D01*
X24480Y380D01*
X24269Y380D01*
X24269Y1159D01*
X24000Y1429D01*
X23929Y1358D01*
X23929Y1500D01*
X23730Y1699D01*
X23730Y3186D01*
X23717Y3374D01*
X23669Y3492D01*
X23590Y3519D01*
X23519Y3448D01*
X23519Y3590D01*
X23492Y3669D01*
X23313Y3730D01*
X23125Y3717D01*
X23007Y3669D01*
X22980Y3590D01*
X23250Y3320D01*
X23519Y3590D01*
X23519Y3448D01*
X23320Y3250D01*
X23590Y2980D01*
X23669Y3007D01*
X23730Y3186D01*
X23730Y1699D01*
X23659Y1769D01*
X23580Y1742D01*
X23519Y1563D01*
X23532Y1375D01*
X23580Y1257D01*
X23659Y1230D01*
X23929Y1500D01*
X23929Y1358D01*
X23730Y1159D01*
X23757Y1080D01*
X23936Y1019D01*
X24124Y1032D01*
X24242Y1080D01*
X24269Y1159D01*
X24269Y380D01*
X23519Y380D01*
X23519Y2909D01*
X23250Y3179D01*
X23179Y3108D01*
X23179Y3250D01*
X22909Y3519D01*
X22830Y3492D01*
X22769Y3313D01*
X22782Y3125D01*
X22830Y3007D01*
X22909Y2980D01*
X23179Y3250D01*
X23179Y3108D01*
X22980Y2909D01*
X23007Y2830D01*
X23186Y2769D01*
X23374Y2782D01*
X23492Y2830D01*
X23519Y2909D01*
X23519Y380D01*
X21980Y380D01*
X21980Y2186D01*
X21967Y2374D01*
X21919Y2492D01*
X21840Y2519D01*
X21769Y2448D01*
X21769Y2590D01*
X21742Y2669D01*
X21563Y2730D01*
X21375Y2717D01*
X21257Y2669D01*
X21230Y2590D01*
X21500Y2320D01*
X21769Y2590D01*
X21769Y2448D01*
X21570Y2250D01*
X21840Y1980D01*
X21919Y2007D01*
X21980Y2186D01*
X21980Y380D01*
X21769Y380D01*
X21769Y1909D01*
X21535Y2143D01*
X21500Y2179D01*
X21429Y2250D01*
X21393Y2285D01*
X21159Y2519D01*
X21080Y2492D01*
X21019Y2313D01*
X21032Y2125D01*
X21080Y2007D01*
X21106Y1998D01*
X21087Y1978D01*
X21144Y1921D01*
X21088Y1944D01*
X20911Y1945D01*
X20762Y1883D01*
X20877Y1997D01*
X20944Y2161D01*
X20945Y2338D01*
X20877Y2501D01*
X20752Y2627D01*
X20588Y2694D01*
X20411Y2695D01*
X20389Y2685D01*
X20185Y2890D01*
X20185Y4935D01*
X20247Y4872D01*
X20411Y4805D01*
X20588Y4804D01*
X20751Y4872D01*
X20877Y4997D01*
X20944Y5161D01*
X20945Y5338D01*
X20877Y5501D01*
X20752Y5627D01*
X20588Y5694D01*
X20411Y5695D01*
X20248Y5627D01*
X20185Y5564D01*
X20185Y6044D01*
X20167Y6132D01*
X20167Y6132D01*
X20117Y6207D01*
X19935Y6389D01*
X19944Y6411D01*
X19945Y6588D01*
X19877Y6751D01*
X19752Y6877D01*
X19588Y6944D01*
X19411Y6945D01*
X19248Y6877D01*
X19122Y6752D01*
X19055Y6588D01*
X19054Y6411D01*
X19122Y6248D01*
X19247Y6122D01*
X19411Y6055D01*
X19588Y6054D01*
X19610Y6064D01*
X19725Y5949D01*
X19725Y5638D01*
X19588Y5694D01*
X19411Y5695D01*
X19248Y5627D01*
X19122Y5502D01*
X19055Y5338D01*
X19054Y5161D01*
X19122Y4998D01*
X19247Y4872D01*
X19411Y4805D01*
X19588Y4804D01*
X19725Y4861D01*
X19725Y2794D01*
X19742Y2706D01*
X19792Y2632D01*
X20064Y2360D01*
X20055Y2338D01*
X20054Y2161D01*
X20122Y1998D01*
X20247Y1872D01*
X20411Y1805D01*
X20588Y1804D01*
X20737Y1866D01*
X20622Y1752D01*
X20555Y1588D01*
X20554Y1411D01*
X20622Y1248D01*
X20747Y1122D01*
X20911Y1055D01*
X21088Y1054D01*
X21251Y1122D01*
X21377Y1247D01*
X21444Y1411D01*
X21445Y1588D01*
X21377Y1751D01*
X21319Y1809D01*
X21436Y1769D01*
X21624Y1782D01*
X21742Y1830D01*
X21769Y1909D01*
X21769Y380D01*
X19945Y380D01*
X19945Y2338D01*
X19877Y2501D01*
X19752Y2627D01*
X19588Y2694D01*
X19411Y2695D01*
X19248Y2627D01*
X19122Y2502D01*
X19055Y2338D01*
X19054Y2161D01*
X19122Y1998D01*
X19247Y1872D01*
X19411Y1805D01*
X19588Y1804D01*
X19751Y1872D01*
X19877Y1997D01*
X19944Y2161D01*
X19945Y2338D01*
X19945Y380D01*
X19945Y380D01*
X19945Y758D01*
X19945Y1308D01*
X19919Y1371D01*
X19871Y1419D01*
X19808Y1444D01*
X19741Y1445D01*
X19191Y1445D01*
X19128Y1419D01*
X19080Y1371D01*
X19055Y1308D01*
X19054Y1241D01*
X19054Y691D01*
X19080Y628D01*
X19128Y580D01*
X19191Y555D01*
X19258Y554D01*
X19808Y554D01*
X19871Y580D01*
X19919Y628D01*
X19944Y691D01*
X19945Y758D01*
X19945Y380D01*
X18945Y380D01*
X18945Y1088D01*
X18945Y2338D01*
X18945Y5338D01*
X18877Y5501D01*
X18752Y5627D01*
X18588Y5694D01*
X18411Y5695D01*
X18248Y5627D01*
X18122Y5502D01*
X18055Y5338D01*
X18054Y5161D01*
X18122Y4998D01*
X18247Y4872D01*
X18411Y4805D01*
X18588Y4804D01*
X18751Y4872D01*
X18877Y4997D01*
X18944Y5161D01*
X18945Y5338D01*
X18945Y2338D01*
X18877Y2501D01*
X18752Y2627D01*
X18588Y2694D01*
X18411Y2695D01*
X18248Y2627D01*
X18122Y2502D01*
X18055Y2338D01*
X18054Y2161D01*
X18122Y1998D01*
X18247Y1872D01*
X18411Y1805D01*
X18588Y1804D01*
X18751Y1872D01*
X18877Y1997D01*
X18944Y2161D01*
X18945Y2338D01*
X18945Y1088D01*
X18877Y1251D01*
X18752Y1377D01*
X18588Y1444D01*
X18411Y1445D01*
X18248Y1377D01*
X18122Y1252D01*
X18055Y1088D01*
X18054Y911D01*
X18122Y748D01*
X18247Y622D01*
X18411Y555D01*
X18588Y554D01*
X18751Y622D01*
X18877Y747D01*
X18944Y911D01*
X18945Y1088D01*
X18945Y380D01*
X17945Y380D01*
X17945Y1088D01*
X17945Y2338D01*
X17945Y5338D01*
X17877Y5501D01*
X17752Y5627D01*
X17588Y5694D01*
X17411Y5695D01*
X17248Y5627D01*
X17122Y5502D01*
X17055Y5338D01*
X17054Y5161D01*
X17122Y4998D01*
X17247Y4872D01*
X17411Y4805D01*
X17588Y4804D01*
X17751Y4872D01*
X17877Y4997D01*
X17944Y5161D01*
X17945Y5338D01*
X17945Y2338D01*
X17877Y2501D01*
X17752Y2627D01*
X17588Y2694D01*
X17411Y2695D01*
X17248Y2627D01*
X17122Y2502D01*
X17055Y2338D01*
X17054Y2161D01*
X17122Y1998D01*
X17247Y1872D01*
X17411Y1805D01*
X17588Y1804D01*
X17751Y1872D01*
X17877Y1997D01*
X17944Y2161D01*
X17945Y2338D01*
X17945Y1088D01*
X17877Y1251D01*
X17752Y1377D01*
X17588Y1444D01*
X17411Y1445D01*
X17248Y1377D01*
X17122Y1252D01*
X17055Y1088D01*
X17054Y911D01*
X17122Y748D01*
X17247Y622D01*
X17411Y555D01*
X17588Y554D01*
X17751Y622D01*
X17877Y747D01*
X17944Y911D01*
X17945Y1088D01*
X17945Y380D01*
X16980Y380D01*
X16980Y936D01*
X16967Y1124D01*
X16945Y1179D01*
X16945Y2338D01*
X16877Y2501D01*
X16752Y2627D01*
X16588Y2694D01*
X16411Y2695D01*
X16248Y2627D01*
X16122Y2502D01*
X16055Y2338D01*
X16054Y2161D01*
X16122Y1998D01*
X16247Y1872D01*
X16411Y1805D01*
X16588Y1804D01*
X16751Y1872D01*
X16877Y1997D01*
X16944Y2161D01*
X16945Y2338D01*
X16945Y1179D01*
X16919Y1242D01*
X16840Y1269D01*
X16769Y1198D01*
X16769Y1340D01*
X16742Y1419D01*
X16563Y1480D01*
X16375Y1467D01*
X16257Y1419D01*
X16230Y1340D01*
X16500Y1070D01*
X16769Y1340D01*
X16769Y1198D01*
X16570Y1000D01*
X16840Y730D01*
X16919Y757D01*
X16980Y936D01*
X16980Y380D01*
X16769Y380D01*
X16769Y659D01*
X16500Y929D01*
X16429Y858D01*
X16429Y1000D01*
X16159Y1269D01*
X16080Y1242D01*
X16019Y1063D01*
X16032Y875D01*
X16080Y757D01*
X16159Y730D01*
X16429Y1000D01*
X16429Y858D01*
X16230Y659D01*
X16257Y580D01*
X16436Y519D01*
X16624Y532D01*
X16742Y580D01*
X16769Y659D01*
X16769Y380D01*
X15945Y380D01*
X15945Y2338D01*
X15877Y2501D01*
X15752Y2627D01*
X15588Y2694D01*
X15411Y2695D01*
X15248Y2627D01*
X15122Y2502D01*
X15055Y2338D01*
X15054Y2161D01*
X15122Y1998D01*
X15247Y1872D01*
X15411Y1805D01*
X15588Y1804D01*
X15751Y1872D01*
X15877Y1997D01*
X15944Y2161D01*
X15945Y2338D01*
X15945Y380D01*
X14945Y380D01*
X14945Y2338D01*
X14877Y2501D01*
X14752Y2627D01*
X14588Y2694D01*
X14411Y2695D01*
X14248Y2627D01*
X14122Y2502D01*
X14055Y2338D01*
X14054Y2161D01*
X14122Y1998D01*
X14247Y1872D01*
X14411Y1805D01*
X14588Y1804D01*
X14751Y1872D01*
X14877Y1997D01*
X14944Y2161D01*
X14945Y2338D01*
X14945Y380D01*
X13182Y380D01*
X12021Y1317D01*
X12021Y1418D01*
X11961Y1563D01*
X11850Y1675D01*
X11705Y1735D01*
X11548Y1735D01*
X11402Y1675D01*
X11291Y1564D01*
X11231Y1419D01*
X11231Y1262D01*
X11291Y1116D01*
X11402Y1005D01*
X11547Y945D01*
X11704Y945D01*
X11734Y957D01*
X12698Y179D01*
X10445Y179D01*
X10445Y2338D01*
X10445Y3338D01*
X10445Y4338D01*
X10445Y5338D01*
X10445Y6338D01*
X10445Y7338D01*
X10445Y8338D01*
X10377Y8501D01*
X10252Y8627D01*
X10088Y8694D01*
X9911Y8695D01*
X9748Y8627D01*
X9622Y8502D01*
X9555Y8338D01*
X9554Y8161D01*
X9622Y7998D01*
X9747Y7872D01*
X9911Y7805D01*
X10088Y7804D01*
X10251Y7872D01*
X10377Y7997D01*
X10444Y8161D01*
X10445Y8338D01*
X10445Y7338D01*
X10377Y7501D01*
X10252Y7627D01*
X10088Y7694D01*
X9911Y7695D01*
X9748Y7627D01*
X9622Y7502D01*
X9555Y7338D01*
X9554Y7161D01*
X9622Y6998D01*
X9747Y6872D01*
X9911Y6805D01*
X10088Y6804D01*
X10251Y6872D01*
X10377Y6997D01*
X10444Y7161D01*
X10445Y7338D01*
X10445Y6338D01*
X10377Y6501D01*
X10252Y6627D01*
X10088Y6694D01*
X9911Y6695D01*
X9748Y6627D01*
X9622Y6502D01*
X9555Y6338D01*
X9554Y6161D01*
X9622Y5998D01*
X9747Y5872D01*
X9911Y5805D01*
X10088Y5804D01*
X10251Y5872D01*
X10377Y5997D01*
X10444Y6161D01*
X10445Y6338D01*
X10445Y5338D01*
X10377Y5501D01*
X10252Y5627D01*
X10088Y5694D01*
X9911Y5695D01*
X9748Y5627D01*
X9622Y5502D01*
X9555Y5338D01*
X9554Y5161D01*
X9622Y4998D01*
X9747Y4872D01*
X9911Y4805D01*
X10088Y4804D01*
X10251Y4872D01*
X10377Y4997D01*
X10444Y5161D01*
X10445Y5338D01*
X10445Y4338D01*
X10377Y4501D01*
X10252Y4627D01*
X10088Y4694D01*
X9911Y4695D01*
X9748Y4627D01*
X9622Y4502D01*
X9555Y4338D01*
X9554Y4161D01*
X9622Y3998D01*
X9747Y3872D01*
X9911Y3805D01*
X10088Y3804D01*
X10251Y3872D01*
X10377Y3997D01*
X10444Y4161D01*
X10445Y4338D01*
X10445Y3338D01*
X10377Y3501D01*
X10252Y3627D01*
X10088Y3694D01*
X9911Y3695D01*
X9748Y3627D01*
X9622Y3502D01*
X9555Y3338D01*
X9554Y3161D01*
X9622Y2998D01*
X9747Y2872D01*
X9911Y2805D01*
X10088Y2804D01*
X10251Y2872D01*
X10377Y2997D01*
X10444Y3161D01*
X10445Y3338D01*
X10445Y2338D01*
X10377Y2501D01*
X10252Y2627D01*
X10088Y2694D01*
X9911Y2695D01*
X9748Y2627D01*
X9622Y2502D01*
X9555Y2338D01*
X9554Y2161D01*
X9622Y1998D01*
X9747Y1872D01*
X9911Y1805D01*
X10088Y1804D01*
X10251Y1872D01*
X10377Y1997D01*
X10444Y2161D01*
X10445Y2338D01*
X10445Y179D01*
X9445Y179D01*
X9445Y2338D01*
X9445Y3338D01*
X9445Y4338D01*
X9445Y5338D01*
X9445Y6338D01*
X9445Y7338D01*
X9445Y8338D01*
X9445Y9338D01*
X9445Y10338D01*
X9445Y10338D01*
X9445Y11008D01*
X9445Y11558D01*
X9419Y11621D01*
X9371Y11669D01*
X9308Y11694D01*
X9241Y11695D01*
X8980Y11695D01*
X8980Y14186D01*
X8967Y14374D01*
X8919Y14492D01*
X8840Y14519D01*
X8769Y14448D01*
X8769Y14590D01*
X8742Y14669D01*
X8563Y14730D01*
X8375Y14717D01*
X8257Y14669D01*
X8230Y14590D01*
X8500Y14320D01*
X8769Y14590D01*
X8769Y14448D01*
X8570Y14250D01*
X8840Y13980D01*
X8919Y14007D01*
X8980Y14186D01*
X8980Y11695D01*
X8769Y11695D01*
X8769Y13909D01*
X8500Y14179D01*
X8429Y14108D01*
X8429Y14250D01*
X8159Y14519D01*
X8080Y14492D01*
X8019Y14313D01*
X8032Y14125D01*
X8080Y14007D01*
X8159Y13980D01*
X8429Y14250D01*
X8429Y14108D01*
X8230Y13909D01*
X8257Y13830D01*
X8436Y13769D01*
X8624Y13782D01*
X8742Y13830D01*
X8769Y13909D01*
X8769Y11695D01*
X8691Y11695D01*
X8628Y11669D01*
X8580Y11621D01*
X8555Y11558D01*
X8554Y11491D01*
X8554Y10941D01*
X8580Y10878D01*
X8628Y10830D01*
X8691Y10805D01*
X8758Y10804D01*
X9308Y10804D01*
X9371Y10830D01*
X9419Y10878D01*
X9444Y10941D01*
X9445Y11008D01*
X9445Y10338D01*
X9377Y10501D01*
X9252Y10627D01*
X9088Y10694D01*
X8911Y10695D01*
X8748Y10627D01*
X8622Y10502D01*
X8555Y10338D01*
X8554Y10161D01*
X8622Y9998D01*
X8747Y9872D01*
X8911Y9805D01*
X9088Y9804D01*
X9251Y9872D01*
X9377Y9997D01*
X9444Y10161D01*
X9445Y10338D01*
X9445Y9338D01*
X9377Y9501D01*
X9252Y9627D01*
X9088Y9694D01*
X8911Y9695D01*
X8748Y9627D01*
X8622Y9502D01*
X8555Y9338D01*
X8554Y9161D01*
X8622Y8998D01*
X8747Y8872D01*
X8911Y8805D01*
X9088Y8804D01*
X9251Y8872D01*
X9377Y8997D01*
X9444Y9161D01*
X9445Y9338D01*
X9445Y8338D01*
X9377Y8501D01*
X9252Y8627D01*
X9088Y8694D01*
X8911Y8695D01*
X8748Y8627D01*
X8622Y8502D01*
X8555Y8338D01*
X8554Y8161D01*
X8622Y7998D01*
X8747Y7872D01*
X8911Y7805D01*
X9088Y7804D01*
X9251Y7872D01*
X9377Y7997D01*
X9444Y8161D01*
X9445Y8338D01*
X9445Y7338D01*
X9377Y7501D01*
X9252Y7627D01*
X9088Y7694D01*
X8911Y7695D01*
X8748Y7627D01*
X8622Y7502D01*
X8555Y7338D01*
X8554Y7161D01*
X8622Y6998D01*
X8747Y6872D01*
X8911Y6805D01*
X9088Y6804D01*
X9251Y6872D01*
X9377Y6997D01*
X9444Y7161D01*
X9445Y7338D01*
X9445Y6338D01*
X9377Y6501D01*
X9252Y6627D01*
X9088Y6694D01*
X8911Y6695D01*
X8748Y6627D01*
X8622Y6502D01*
X8555Y6338D01*
X8554Y6161D01*
X8622Y5998D01*
X8747Y5872D01*
X8911Y5805D01*
X9088Y5804D01*
X9251Y5872D01*
X9377Y5997D01*
X9444Y6161D01*
X9445Y6338D01*
X9445Y5338D01*
X9377Y5501D01*
X9252Y5627D01*
X9088Y5694D01*
X8911Y5695D01*
X8748Y5627D01*
X8622Y5502D01*
X8555Y5338D01*
X8554Y5161D01*
X8622Y4998D01*
X8747Y4872D01*
X8911Y4805D01*
X9088Y4804D01*
X9251Y4872D01*
X9377Y4997D01*
X9444Y5161D01*
X9445Y5338D01*
X9445Y4338D01*
X9377Y4501D01*
X9252Y4627D01*
X9088Y4694D01*
X8911Y4695D01*
X8748Y4627D01*
X8622Y4502D01*
X8555Y4338D01*
X8554Y4161D01*
X8622Y3998D01*
X8747Y3872D01*
X8911Y3805D01*
X9088Y3804D01*
X9251Y3872D01*
X9377Y3997D01*
X9444Y4161D01*
X9445Y4338D01*
X9445Y3338D01*
X9377Y3501D01*
X9252Y3627D01*
X9088Y3694D01*
X8911Y3695D01*
X8748Y3627D01*
X8622Y3502D01*
X8555Y3338D01*
X8554Y3161D01*
X8622Y2998D01*
X8747Y2872D01*
X8911Y2805D01*
X9088Y2804D01*
X9251Y2872D01*
X9377Y2997D01*
X9444Y3161D01*
X9445Y3338D01*
X9445Y2338D01*
X9377Y2501D01*
X9252Y2627D01*
X9088Y2694D01*
X8911Y2695D01*
X8748Y2627D01*
X8622Y2502D01*
X8555Y2338D01*
X8554Y2161D01*
X8622Y1998D01*
X8747Y1872D01*
X8911Y1805D01*
X9088Y1804D01*
X9251Y1872D01*
X9377Y1997D01*
X9444Y2161D01*
X9445Y2338D01*
X9445Y179D01*
X8445Y179D01*
X8445Y3838D01*
X8377Y4001D01*
X8252Y4127D01*
X8088Y4194D01*
X7945Y4195D01*
X7945Y14338D01*
X7877Y14501D01*
X7752Y14627D01*
X7588Y14694D01*
X7411Y14695D01*
X7248Y14627D01*
X7122Y14502D01*
X7055Y14338D01*
X7054Y14161D01*
X7122Y13998D01*
X7247Y13872D01*
X7411Y13805D01*
X7588Y13804D01*
X7751Y13872D01*
X7877Y13997D01*
X7944Y14161D01*
X7945Y14338D01*
X7945Y4195D01*
X7911Y4195D01*
X7748Y4127D01*
X7695Y4074D01*
X7695Y4838D01*
X7695Y7838D01*
X7627Y8001D01*
X7502Y8127D01*
X7338Y8194D01*
X7270Y8194D01*
X7270Y8933D01*
X7270Y9633D01*
X7270Y10933D01*
X7270Y11633D01*
X7244Y11696D01*
X7196Y11744D01*
X7133Y11769D01*
X7066Y11770D01*
X7020Y11770D01*
X7020Y11820D01*
X7019Y11820D01*
X7020Y11820D01*
X7015Y11840D01*
X6999Y11923D01*
X6999Y11923D01*
X6940Y12011D01*
X6940Y12011D01*
X6270Y12681D01*
X6270Y13279D01*
X6333Y13279D01*
X6396Y13305D01*
X6444Y13353D01*
X6469Y13416D01*
X6470Y13483D01*
X6470Y14083D01*
X6444Y14146D01*
X6396Y14194D01*
X6333Y14219D01*
X6266Y14220D01*
X5666Y14220D01*
X5603Y14194D01*
X5555Y14146D01*
X5530Y14083D01*
X5529Y14016D01*
X5529Y13416D01*
X5555Y13353D01*
X5603Y13305D01*
X5666Y13280D01*
X5730Y13279D01*
X5730Y12570D01*
X5750Y12466D01*
X5809Y12379D01*
X6418Y11770D01*
X6366Y11770D01*
X6303Y11744D01*
X6255Y11696D01*
X6230Y11633D01*
X6229Y11566D01*
X6229Y10866D01*
X6255Y10803D01*
X6303Y10755D01*
X6366Y10730D01*
X6433Y10729D01*
X7133Y10729D01*
X7196Y10755D01*
X7244Y10803D01*
X7269Y10866D01*
X7270Y10933D01*
X7270Y9633D01*
X7244Y9696D01*
X7196Y9744D01*
X7133Y9769D01*
X7066Y9770D01*
X6366Y9770D01*
X6303Y9744D01*
X6255Y9696D01*
X6230Y9633D01*
X6229Y9566D01*
X6229Y9450D01*
X6191Y9544D01*
X6044Y9690D01*
X5853Y9769D01*
X5647Y9770D01*
X5622Y9759D01*
X5504Y9876D01*
X5504Y13680D01*
X5493Y13878D01*
X5439Y14007D01*
X5358Y14037D01*
X5287Y13967D01*
X5287Y14108D01*
X5257Y14189D01*
X5069Y14254D01*
X4871Y14243D01*
X4742Y14189D01*
X4712Y14108D01*
X5000Y13820D01*
X5287Y14108D01*
X5287Y13967D01*
X5070Y13750D01*
X5358Y13462D01*
X5439Y13492D01*
X5504Y13680D01*
X5504Y9876D01*
X5287Y10093D01*
X5287Y13391D01*
X5000Y13679D01*
X4929Y13608D01*
X4929Y13750D01*
X4641Y14037D01*
X4560Y14007D01*
X4495Y13819D01*
X4506Y13621D01*
X4560Y13492D01*
X4641Y13462D01*
X4929Y13750D01*
X4929Y13608D01*
X4712Y13391D01*
X4742Y13310D01*
X4930Y13245D01*
X5128Y13256D01*
X5257Y13310D01*
X5287Y13391D01*
X5287Y10093D01*
X4651Y10730D01*
X4852Y10729D01*
X5044Y10808D01*
X5190Y10955D01*
X5269Y11146D01*
X5270Y11352D01*
X5191Y11544D01*
X5044Y11690D01*
X4853Y11769D01*
X4647Y11770D01*
X4455Y11691D01*
X4309Y11544D01*
X4230Y11353D01*
X4229Y11151D01*
X3686Y11695D01*
X3598Y11754D01*
X3495Y11774D01*
X3445Y11774D01*
X3445Y12308D01*
X3419Y12371D01*
X3371Y12419D01*
X3308Y12444D01*
X3295Y12444D01*
X3295Y13607D01*
X3212Y13808D01*
X3059Y13961D01*
X2858Y14044D01*
X2642Y14045D01*
X2441Y13962D01*
X2288Y13809D01*
X2205Y13608D01*
X2204Y13392D01*
X2287Y13191D01*
X2440Y13038D01*
X2641Y12955D01*
X2857Y12954D01*
X3058Y13037D01*
X3211Y13190D01*
X3294Y13391D01*
X3295Y13607D01*
X3295Y12444D01*
X3241Y12445D01*
X2691Y12445D01*
X2628Y12419D01*
X2580Y12371D01*
X2555Y12308D01*
X2554Y12241D01*
X2554Y11691D01*
X2580Y11628D01*
X2628Y11580D01*
X2691Y11555D01*
X2730Y11554D01*
X2730Y11504D01*
X2750Y11401D01*
X2809Y11313D01*
X2896Y11255D01*
X3000Y11234D01*
X3383Y11234D01*
X4848Y9769D01*
X4647Y9770D01*
X4455Y9691D01*
X4309Y9544D01*
X4230Y9353D01*
X4229Y9147D01*
X4308Y8955D01*
X4455Y8809D01*
X4646Y8730D01*
X4852Y8729D01*
X5044Y8808D01*
X5190Y8955D01*
X5250Y9098D01*
X5308Y8955D01*
X5455Y8809D01*
X5646Y8730D01*
X5852Y8729D01*
X6044Y8808D01*
X6190Y8955D01*
X6229Y9049D01*
X6229Y8866D01*
X6255Y8803D01*
X6303Y8755D01*
X6366Y8730D01*
X6433Y8729D01*
X7133Y8729D01*
X7196Y8755D01*
X7244Y8803D01*
X7269Y8866D01*
X7270Y8933D01*
X7270Y8194D01*
X7161Y8195D01*
X6998Y8127D01*
X6872Y8002D01*
X6805Y7838D01*
X6804Y7661D01*
X6872Y7498D01*
X6997Y7372D01*
X7161Y7305D01*
X7338Y7304D01*
X7501Y7372D01*
X7627Y7497D01*
X7694Y7661D01*
X7695Y7838D01*
X7695Y4838D01*
X7627Y5001D01*
X7502Y5127D01*
X7338Y5194D01*
X7161Y5195D01*
X6998Y5127D01*
X6872Y5002D01*
X6805Y4838D01*
X6804Y4661D01*
X6872Y4498D01*
X6997Y4372D01*
X7161Y4305D01*
X7338Y4304D01*
X7501Y4372D01*
X7627Y4497D01*
X7694Y4661D01*
X7695Y4838D01*
X7695Y4074D01*
X7622Y4002D01*
X7555Y3838D01*
X7554Y3661D01*
X7622Y3498D01*
X7747Y3372D01*
X7911Y3305D01*
X8088Y3304D01*
X8251Y3372D01*
X8377Y3497D01*
X8444Y3661D01*
X8445Y3838D01*
X8445Y179D01*
X7980Y179D01*
X7980Y1436D01*
X7967Y1624D01*
X7945Y1679D01*
X7945Y2588D01*
X7877Y2751D01*
X7752Y2877D01*
X7588Y2944D01*
X7411Y2945D01*
X7248Y2877D01*
X7122Y2752D01*
X7055Y2588D01*
X7054Y2411D01*
X7122Y2248D01*
X7247Y2122D01*
X7411Y2055D01*
X7588Y2054D01*
X7751Y2122D01*
X7877Y2247D01*
X7944Y2411D01*
X7945Y2588D01*
X7945Y1679D01*
X7919Y1742D01*
X7840Y1769D01*
X7769Y1698D01*
X7769Y1840D01*
X7742Y1919D01*
X7563Y1980D01*
X7375Y1967D01*
X7257Y1919D01*
X7230Y1840D01*
X7500Y1570D01*
X7769Y1840D01*
X7769Y1698D01*
X7570Y1500D01*
X7840Y1230D01*
X7919Y1257D01*
X7980Y1436D01*
X7980Y179D01*
X7769Y179D01*
X7769Y1159D01*
X7500Y1429D01*
X7429Y1358D01*
X7429Y1500D01*
X7159Y1769D01*
X7080Y1742D01*
X7019Y1563D01*
X7032Y1375D01*
X7080Y1257D01*
X7159Y1230D01*
X7429Y1500D01*
X7429Y1358D01*
X7230Y1159D01*
X7257Y1080D01*
X7436Y1019D01*
X7624Y1032D01*
X7742Y1080D01*
X7769Y1159D01*
X7769Y179D01*
X6475Y179D01*
X6475Y1014D01*
X6475Y1485D01*
X6474Y1564D01*
X6445Y1636D01*
X6445Y4838D01*
X6445Y7838D01*
X6377Y8001D01*
X6252Y8127D01*
X6088Y8194D01*
X5911Y8195D01*
X5748Y8127D01*
X5622Y8002D01*
X5555Y7838D01*
X5554Y7661D01*
X5622Y7498D01*
X5747Y7372D01*
X5911Y7305D01*
X6088Y7304D01*
X6251Y7372D01*
X6377Y7497D01*
X6444Y7661D01*
X6445Y7838D01*
X6445Y4838D01*
X6377Y5001D01*
X6252Y5127D01*
X6088Y5194D01*
X5911Y5195D01*
X5748Y5127D01*
X5622Y5002D01*
X5555Y4838D01*
X5554Y4661D01*
X5622Y4498D01*
X5747Y4372D01*
X5911Y4305D01*
X6088Y4304D01*
X6251Y4372D01*
X6377Y4497D01*
X6444Y4661D01*
X6445Y4838D01*
X6445Y1636D01*
X6444Y1638D01*
X6388Y1694D01*
X6314Y1725D01*
X6100Y1725D01*
X6050Y1675D01*
X6050Y1300D01*
X6425Y1300D01*
X6475Y1350D01*
X6475Y1485D01*
X6475Y1014D01*
X6475Y1150D01*
X6425Y1200D01*
X6050Y1200D01*
X6050Y825D01*
X6100Y775D01*
X6314Y774D01*
X6388Y805D01*
X6444Y861D01*
X6474Y935D01*
X6475Y1014D01*
X6475Y179D01*
X5950Y179D01*
X5950Y825D01*
X5950Y1200D01*
X5950Y1300D01*
X5950Y1675D01*
X5900Y1725D01*
X5685Y1725D01*
X5611Y1694D01*
X5555Y1638D01*
X5525Y1564D01*
X5524Y1485D01*
X5525Y1350D01*
X5575Y1300D01*
X5950Y1300D01*
X5950Y1200D01*
X5575Y1200D01*
X5525Y1150D01*
X5524Y1014D01*
X5525Y935D01*
X5555Y861D01*
X5611Y805D01*
X5685Y774D01*
X5900Y775D01*
X5950Y825D01*
X5950Y179D01*
X5480Y179D01*
X5480Y2436D01*
X5467Y2624D01*
X5445Y2679D01*
X5445Y3838D01*
X5445Y4838D01*
X5445Y7838D01*
X5377Y8001D01*
X5252Y8127D01*
X5088Y8194D01*
X4911Y8195D01*
X4748Y8127D01*
X4622Y8002D01*
X4555Y7838D01*
X4554Y7661D01*
X4622Y7498D01*
X4747Y7372D01*
X4911Y7305D01*
X5088Y7304D01*
X5251Y7372D01*
X5377Y7497D01*
X5444Y7661D01*
X5445Y7838D01*
X5445Y4838D01*
X5377Y5001D01*
X5252Y5127D01*
X5088Y5194D01*
X4911Y5195D01*
X4748Y5127D01*
X4622Y5002D01*
X4555Y4838D01*
X4554Y4661D01*
X4622Y4498D01*
X4747Y4372D01*
X4911Y4305D01*
X5088Y4304D01*
X5251Y4372D01*
X5377Y4497D01*
X5444Y4661D01*
X5445Y4838D01*
X5445Y3838D01*
X5377Y4001D01*
X5252Y4127D01*
X5088Y4194D01*
X4911Y4195D01*
X4748Y4127D01*
X4622Y4002D01*
X4555Y3838D01*
X4554Y3661D01*
X4622Y3498D01*
X4747Y3372D01*
X4911Y3305D01*
X5088Y3304D01*
X5251Y3372D01*
X5377Y3497D01*
X5444Y3661D01*
X5445Y3838D01*
X5445Y2679D01*
X5419Y2742D01*
X5340Y2769D01*
X5269Y2698D01*
X5269Y2840D01*
X5242Y2919D01*
X5063Y2980D01*
X4875Y2967D01*
X4757Y2919D01*
X4730Y2840D01*
X5000Y2570D01*
X5269Y2840D01*
X5269Y2698D01*
X5070Y2500D01*
X5340Y2230D01*
X5419Y2257D01*
X5480Y2436D01*
X5480Y179D01*
X5269Y179D01*
X5269Y2159D01*
X5000Y2429D01*
X4929Y2358D01*
X4929Y2500D01*
X4659Y2769D01*
X4580Y2742D01*
X4519Y2563D01*
X4532Y2375D01*
X4580Y2257D01*
X4659Y2230D01*
X4929Y2500D01*
X4929Y2358D01*
X4730Y2159D01*
X4757Y2080D01*
X4936Y2019D01*
X5124Y2032D01*
X5242Y2080D01*
X5269Y2159D01*
X5269Y179D01*
X4445Y179D01*
X4445Y2588D01*
X4445Y3838D01*
X4445Y4838D01*
X4445Y7838D01*
X4377Y8001D01*
X4252Y8127D01*
X4088Y8194D01*
X3911Y8195D01*
X3748Y8127D01*
X3622Y8002D01*
X3575Y7887D01*
X3575Y9113D01*
X3487Y9325D01*
X3326Y9487D01*
X3114Y9574D01*
X2886Y9575D01*
X2674Y9487D01*
X2512Y9326D01*
X2425Y9114D01*
X2424Y8886D01*
X2512Y8674D01*
X2673Y8512D01*
X2885Y8425D01*
X3113Y8424D01*
X3325Y8512D01*
X3487Y8673D01*
X3574Y8885D01*
X3575Y9113D01*
X3575Y7887D01*
X3555Y7838D01*
X3554Y7661D01*
X3622Y7498D01*
X3747Y7372D01*
X3911Y7305D01*
X4088Y7304D01*
X4251Y7372D01*
X4377Y7497D01*
X4444Y7661D01*
X4445Y7838D01*
X4445Y4838D01*
X4377Y5001D01*
X4252Y5127D01*
X4088Y5194D01*
X3911Y5195D01*
X3748Y5127D01*
X3622Y5002D01*
X3555Y4838D01*
X3554Y4661D01*
X3622Y4498D01*
X3747Y4372D01*
X3911Y4305D01*
X4088Y4304D01*
X4251Y4372D01*
X4377Y4497D01*
X4444Y4661D01*
X4445Y4838D01*
X4445Y3838D01*
X4377Y4001D01*
X4252Y4127D01*
X4088Y4194D01*
X3911Y4195D01*
X3748Y4127D01*
X3622Y4002D01*
X3555Y3838D01*
X3554Y3661D01*
X3622Y3498D01*
X3747Y3372D01*
X3911Y3305D01*
X4088Y3304D01*
X4251Y3372D01*
X4377Y3497D01*
X4444Y3661D01*
X4445Y3838D01*
X4445Y2588D01*
X4377Y2751D01*
X4252Y2877D01*
X4088Y2944D01*
X3911Y2945D01*
X3748Y2877D01*
X3622Y2752D01*
X3555Y2588D01*
X3554Y2411D01*
X3622Y2248D01*
X3747Y2122D01*
X3911Y2055D01*
X4088Y2054D01*
X4251Y2122D01*
X4377Y2247D01*
X4444Y2411D01*
X4445Y2588D01*
X4445Y179D01*
X3480Y179D01*
X3480Y7686D01*
X3467Y7874D01*
X3419Y7992D01*
X3340Y8019D01*
X3269Y7948D01*
X3269Y8090D01*
X3242Y8169D01*
X3063Y8230D01*
X2875Y8217D01*
X2757Y8169D01*
X2730Y8090D01*
X3000Y7820D01*
X3269Y8090D01*
X3269Y7948D01*
X3070Y7750D01*
X3340Y7480D01*
X3419Y7507D01*
X3480Y7686D01*
X3480Y179D01*
X3445Y179D01*
X3445Y1338D01*
X3445Y1338D01*
X3445Y4508D01*
X3445Y5058D01*
X3419Y5121D01*
X3371Y5169D01*
X3308Y5194D01*
X3269Y5195D01*
X3269Y7409D01*
X3000Y7679D01*
X2929Y7608D01*
X2929Y7750D01*
X2659Y8019D01*
X2580Y7992D01*
X2519Y7813D01*
X2532Y7625D01*
X2580Y7507D01*
X2659Y7480D01*
X2929Y7750D01*
X2929Y7608D01*
X2730Y7409D01*
X2757Y7330D01*
X2936Y7269D01*
X3124Y7282D01*
X3242Y7330D01*
X3269Y7409D01*
X3269Y5195D01*
X3241Y5195D01*
X2691Y5195D01*
X2648Y5177D01*
X2230Y5595D01*
X2230Y6686D01*
X2217Y6874D01*
X2169Y6992D01*
X2090Y7019D01*
X2019Y6948D01*
X2019Y7090D01*
X1992Y7169D01*
X1850Y7217D01*
X1850Y9618D01*
X1758Y9839D01*
X1596Y10002D01*
X1663Y10030D01*
X1719Y10086D01*
X1750Y10160D01*
X1750Y10839D01*
X1719Y10913D01*
X1663Y10969D01*
X1589Y10999D01*
X1510Y11000D01*
X1350Y11000D01*
X1325Y10975D01*
X1325Y13164D01*
X1325Y13835D01*
X1324Y13914D01*
X1294Y13988D01*
X1238Y14044D01*
X1164Y14075D01*
X850Y14075D01*
X800Y14025D01*
X800Y13550D01*
X1275Y13550D01*
X1325Y13600D01*
X1325Y13835D01*
X1325Y13164D01*
X1325Y13400D01*
X1275Y13450D01*
X800Y13450D01*
X800Y12975D01*
X850Y12925D01*
X1164Y12924D01*
X1238Y12955D01*
X1294Y13011D01*
X1324Y13085D01*
X1325Y13164D01*
X1325Y10975D01*
X1300Y10950D01*
X1300Y10550D01*
X1700Y10550D01*
X1750Y10600D01*
X1750Y10839D01*
X1750Y10160D01*
X1750Y10400D01*
X1700Y10450D01*
X1350Y10450D01*
X1300Y10450D01*
X1200Y10450D01*
X1200Y10550D01*
X1200Y10950D01*
X1150Y11000D01*
X989Y11000D01*
X910Y10999D01*
X836Y10969D01*
X780Y10913D01*
X749Y10839D01*
X750Y10600D01*
X800Y10550D01*
X1200Y10550D01*
X1200Y10450D01*
X1150Y10450D01*
X800Y10450D01*
X750Y10400D01*
X749Y10160D01*
X780Y10086D01*
X836Y10030D01*
X904Y10002D01*
X741Y9840D01*
X650Y9619D01*
X649Y9381D01*
X741Y9160D01*
X909Y8991D01*
X1130Y8900D01*
X1368Y8899D01*
X1589Y8991D01*
X1758Y9159D01*
X1849Y9380D01*
X1850Y9618D01*
X1850Y7217D01*
X1813Y7230D01*
X1625Y7217D01*
X1507Y7169D01*
X1480Y7090D01*
X1750Y6820D01*
X2019Y7090D01*
X2019Y6948D01*
X1820Y6750D01*
X2090Y6480D01*
X2169Y6507D01*
X2230Y6686D01*
X2230Y5595D01*
X2185Y5639D01*
X2194Y5661D01*
X2195Y5838D01*
X2127Y6001D01*
X2019Y6109D01*
X2019Y6409D01*
X1750Y6679D01*
X1679Y6608D01*
X1679Y6750D01*
X1409Y7019D01*
X1330Y6992D01*
X1269Y6813D01*
X1282Y6625D01*
X1330Y6507D01*
X1409Y6480D01*
X1679Y6750D01*
X1679Y6608D01*
X1480Y6409D01*
X1507Y6330D01*
X1686Y6269D01*
X1874Y6282D01*
X1992Y6330D01*
X2019Y6409D01*
X2019Y6109D01*
X2002Y6127D01*
X1838Y6194D01*
X1661Y6195D01*
X1498Y6127D01*
X1372Y6002D01*
X1305Y5838D01*
X1304Y5661D01*
X1372Y5498D01*
X1497Y5372D01*
X1661Y5305D01*
X1838Y5304D01*
X1860Y5314D01*
X2314Y4859D01*
X2314Y4750D01*
X2332Y4661D01*
X2382Y4587D01*
X2456Y4537D01*
X2544Y4520D01*
X2554Y4520D01*
X2554Y4441D01*
X2580Y4378D01*
X2628Y4330D01*
X2691Y4305D01*
X2758Y4304D01*
X3308Y4304D01*
X3371Y4330D01*
X3419Y4378D01*
X3444Y4441D01*
X3445Y4508D01*
X3445Y1338D01*
X3377Y1501D01*
X3252Y1627D01*
X3088Y1694D01*
X2911Y1695D01*
X2748Y1627D01*
X2622Y1502D01*
X2555Y1338D01*
X2554Y1161D01*
X2622Y998D01*
X2747Y872D01*
X2911Y805D01*
X3088Y804D01*
X3251Y872D01*
X3377Y997D01*
X3444Y1161D01*
X3445Y1338D01*
X3445Y179D01*
X1723Y179D01*
X1911Y257D01*
X2241Y586D01*
X2419Y1016D01*
X2420Y1481D01*
X2242Y1911D01*
X1913Y2241D01*
X1575Y2381D01*
X1575Y3863D01*
X1487Y4075D01*
X1326Y4237D01*
X1195Y4291D01*
X1195Y5088D01*
X1127Y5251D01*
X1002Y5377D01*
X838Y5444D01*
X661Y5445D01*
X498Y5377D01*
X372Y5252D01*
X305Y5088D01*
X304Y4911D01*
X372Y4748D01*
X497Y4622D01*
X661Y4555D01*
X838Y4554D01*
X1001Y4622D01*
X1127Y4747D01*
X1194Y4911D01*
X1195Y5088D01*
X1195Y4291D01*
X1114Y4324D01*
X886Y4325D01*
X674Y4237D01*
X512Y4076D01*
X425Y3864D01*
X424Y3636D01*
X512Y3424D01*
X673Y3262D01*
X885Y3175D01*
X1113Y3174D01*
X1325Y3262D01*
X1487Y3423D01*
X1574Y3635D01*
X1575Y3863D01*
X1575Y2381D01*
X1483Y2419D01*
X1018Y2420D01*
X588Y2242D01*
X258Y1913D01*
X179Y1722D01*
X179Y7874D01*
X262Y7674D01*
X423Y7512D01*
X635Y7425D01*
X863Y7424D01*
X1075Y7512D01*
X1237Y7673D01*
X1324Y7885D01*
X1325Y8113D01*
X1237Y8325D01*
X1076Y8487D01*
X864Y8574D01*
X636Y8575D01*
X424Y8487D01*
X262Y8326D01*
X179Y8125D01*
X179Y13074D01*
X205Y13011D01*
X261Y12955D01*
X335Y12924D01*
X650Y12925D01*
X700Y12975D01*
X700Y13400D01*
X700Y13450D01*
X700Y13550D01*
X700Y13600D01*
X700Y14025D01*
X650Y14075D01*
X335Y14075D01*
X261Y14044D01*
X205Y13988D01*
X179Y13925D01*
X179Y14820D01*
X32320Y14820D01*
X32320Y1723D01*
X32320Y1723D01*
G37*
G54D11*
X32320Y1723D02*
X32242Y1911D01*
X31970Y2184D01*
X31970Y4093D01*
X31970Y7343D01*
X31970Y10593D01*
X31970Y10593D01*
X31970Y11233D01*
X31970Y11833D01*
X31944Y11896D01*
X31896Y11944D01*
X31833Y11969D01*
X31766Y11970D01*
X31166Y11970D01*
X31103Y11944D01*
X31055Y11896D01*
X31030Y11833D01*
X31029Y11766D01*
X31029Y11166D01*
X31055Y11103D01*
X31103Y11055D01*
X31166Y11030D01*
X31233Y11029D01*
X31833Y11029D01*
X31896Y11055D01*
X31944Y11103D01*
X31969Y11166D01*
X31970Y11233D01*
X31970Y10593D01*
X31898Y10765D01*
X31766Y10898D01*
X31593Y10969D01*
X31406Y10970D01*
X31234Y10898D01*
X31101Y10766D01*
X31030Y10593D01*
X31029Y10406D01*
X31101Y10234D01*
X31233Y10101D01*
X31406Y10030D01*
X31593Y10029D01*
X31765Y10101D01*
X31898Y10233D01*
X31969Y10406D01*
X31970Y10593D01*
X31970Y7343D01*
X31970Y7343D01*
X31970Y7983D01*
X31970Y8583D01*
X31944Y8646D01*
X31896Y8694D01*
X31833Y8719D01*
X31766Y8720D01*
X31166Y8720D01*
X31103Y8694D01*
X31055Y8646D01*
X31030Y8583D01*
X31029Y8516D01*
X31029Y7916D01*
X31055Y7853D01*
X31103Y7805D01*
X31166Y7780D01*
X31233Y7779D01*
X31833Y7779D01*
X31896Y7805D01*
X31944Y7853D01*
X31969Y7916D01*
X31970Y7983D01*
X31970Y7343D01*
X31898Y7515D01*
X31766Y7648D01*
X31593Y7719D01*
X31406Y7720D01*
X31234Y7648D01*
X31101Y7516D01*
X31030Y7343D01*
X31029Y7156D01*
X31101Y6984D01*
X31233Y6851D01*
X31406Y6780D01*
X31593Y6779D01*
X31765Y6851D01*
X31898Y6983D01*
X31969Y7156D01*
X31970Y7343D01*
X31970Y4093D01*
X31970Y4093D01*
X31970Y4733D01*
X31970Y5333D01*
X31944Y5396D01*
X31896Y5444D01*
X31833Y5469D01*
X31766Y5470D01*
X31166Y5470D01*
X31103Y5444D01*
X31055Y5396D01*
X31030Y5333D01*
X31029Y5266D01*
X31029Y4666D01*
X31055Y4603D01*
X31103Y4555D01*
X31166Y4530D01*
X31233Y4529D01*
X31833Y4529D01*
X31896Y4555D01*
X31944Y4603D01*
X31969Y4666D01*
X31970Y4733D01*
X31970Y4093D01*
X31898Y4265D01*
X31766Y4398D01*
X31593Y4469D01*
X31406Y4470D01*
X31234Y4398D01*
X31101Y4266D01*
X31030Y4093D01*
X31029Y3906D01*
X31101Y3734D01*
X31233Y3601D01*
X31406Y3530D01*
X31593Y3529D01*
X31765Y3601D01*
X31898Y3733D01*
X31969Y3906D01*
X31970Y4093D01*
X31970Y2184D01*
X31913Y2241D01*
X31483Y2419D01*
X31018Y2420D01*
X30970Y2400D01*
X30970Y4093D01*
X30970Y5093D01*
X30970Y7343D01*
X30970Y8343D01*
X30898Y8515D01*
X30766Y8648D01*
X30593Y8719D01*
X30406Y8720D01*
X30234Y8648D01*
X30101Y8516D01*
X30030Y8343D01*
X30029Y8156D01*
X30101Y7984D01*
X30233Y7851D01*
X30406Y7780D01*
X30593Y7779D01*
X30765Y7851D01*
X30898Y7983D01*
X30969Y8156D01*
X30970Y8343D01*
X30970Y7343D01*
X30898Y7515D01*
X30766Y7648D01*
X30593Y7719D01*
X30406Y7720D01*
X30234Y7648D01*
X30101Y7516D01*
X30030Y7343D01*
X30029Y7156D01*
X30101Y6984D01*
X30233Y6851D01*
X30406Y6780D01*
X30593Y6779D01*
X30765Y6851D01*
X30898Y6983D01*
X30969Y7156D01*
X30970Y7343D01*
X30970Y5093D01*
X30898Y5265D01*
X30766Y5398D01*
X30593Y5469D01*
X30406Y5470D01*
X30234Y5398D01*
X30101Y5266D01*
X30030Y5093D01*
X30029Y4906D01*
X30101Y4734D01*
X30233Y4601D01*
X30406Y4530D01*
X30593Y4529D01*
X30765Y4601D01*
X30898Y4733D01*
X30969Y4906D01*
X30970Y5093D01*
X30970Y4093D01*
X30898Y4265D01*
X30766Y4398D01*
X30593Y4469D01*
X30406Y4470D01*
X30370Y4454D01*
X30162Y4662D01*
X30088Y4712D01*
X30000Y4730D01*
X29894Y4730D01*
X29898Y4733D01*
X29969Y4906D01*
X29970Y5093D01*
X29970Y7343D01*
X29970Y8343D01*
X29898Y8515D01*
X29766Y8648D01*
X29593Y8719D01*
X29406Y8720D01*
X29234Y8648D01*
X29101Y8516D01*
X29030Y8343D01*
X29029Y8156D01*
X29101Y7984D01*
X29233Y7851D01*
X29406Y7780D01*
X29593Y7779D01*
X29765Y7851D01*
X29898Y7983D01*
X29969Y8156D01*
X29970Y8343D01*
X29970Y7343D01*
X29898Y7515D01*
X29766Y7648D01*
X29593Y7719D01*
X29406Y7720D01*
X29234Y7648D01*
X29101Y7516D01*
X29030Y7343D01*
X29029Y7156D01*
X29101Y6984D01*
X29233Y6851D01*
X29406Y6780D01*
X29593Y6779D01*
X29765Y6851D01*
X29898Y6983D01*
X29969Y7156D01*
X29970Y7343D01*
X29970Y5093D01*
X29898Y5265D01*
X29766Y5398D01*
X29593Y5469D01*
X29406Y5470D01*
X29234Y5398D01*
X29101Y5266D01*
X29069Y5187D01*
X29069Y6476D01*
X29016Y6602D01*
X28954Y6665D01*
X28954Y7025D01*
X28941Y7088D01*
X28969Y7156D01*
X28970Y7343D01*
X28970Y8343D01*
X28898Y8515D01*
X28766Y8648D01*
X28593Y8719D01*
X28406Y8720D01*
X28234Y8648D01*
X28101Y8516D01*
X28030Y8343D01*
X28029Y8156D01*
X28101Y7984D01*
X28233Y7851D01*
X28406Y7780D01*
X28593Y7779D01*
X28765Y7851D01*
X28898Y7983D01*
X28969Y8156D01*
X28970Y8343D01*
X28970Y7343D01*
X28898Y7515D01*
X28766Y7648D01*
X28593Y7719D01*
X28406Y7720D01*
X28234Y7648D01*
X28101Y7516D01*
X28030Y7343D01*
X28029Y7156D01*
X28101Y6984D01*
X28233Y6851D01*
X28406Y6780D01*
X28494Y6780D01*
X28494Y6665D01*
X28431Y6603D01*
X28379Y6476D01*
X28378Y6339D01*
X28431Y6212D01*
X28528Y6115D01*
X28655Y6062D01*
X28792Y6062D01*
X28919Y6115D01*
X29016Y6212D01*
X29068Y6338D01*
X29069Y6476D01*
X29069Y5187D01*
X29030Y5093D01*
X29029Y4906D01*
X29101Y4734D01*
X29105Y4730D01*
X28894Y4730D01*
X28898Y4733D01*
X28969Y4906D01*
X28970Y5093D01*
X28898Y5265D01*
X28766Y5398D01*
X28593Y5469D01*
X28406Y5470D01*
X28234Y5398D01*
X28101Y5266D01*
X28030Y5093D01*
X28029Y4906D01*
X28101Y4734D01*
X28105Y4730D01*
X27845Y4730D01*
X27647Y4927D01*
X27572Y4977D01*
X27484Y4994D01*
X27374Y4994D01*
X27377Y4997D01*
X27444Y5161D01*
X27445Y5338D01*
X27435Y5360D01*
X27707Y5632D01*
X27757Y5706D01*
X27757Y5706D01*
X27774Y5794D01*
X27774Y8449D01*
X29370Y10044D01*
X29406Y10030D01*
X29593Y10029D01*
X29750Y10094D01*
X29750Y9867D01*
X29687Y9804D01*
X29635Y9678D01*
X29635Y9540D01*
X29687Y9413D01*
X29784Y9316D01*
X29911Y9264D01*
X30048Y9264D01*
X30175Y9316D01*
X30272Y9413D01*
X30325Y9540D01*
X30325Y9677D01*
X30272Y9804D01*
X30210Y9867D01*
X30210Y10125D01*
X30233Y10101D01*
X30406Y10030D01*
X30593Y10029D01*
X30765Y10101D01*
X30898Y10233D01*
X30969Y10406D01*
X30970Y10593D01*
X30970Y11593D01*
X30898Y11765D01*
X30766Y11898D01*
X30593Y11969D01*
X30406Y11970D01*
X30234Y11898D01*
X30101Y11766D01*
X30030Y11593D01*
X30029Y11406D01*
X30101Y11234D01*
X30233Y11101D01*
X30406Y11030D01*
X30593Y11029D01*
X30765Y11101D01*
X30898Y11233D01*
X30969Y11406D01*
X30970Y11593D01*
X30970Y10593D01*
X30898Y10765D01*
X30766Y10898D01*
X30593Y10969D01*
X30406Y10970D01*
X30234Y10898D01*
X30210Y10874D01*
X30210Y11019D01*
X30210Y11019D01*
X30210Y11019D01*
X30192Y11107D01*
X30142Y11182D01*
X30142Y11182D01*
X29955Y11370D01*
X29969Y11406D01*
X29970Y11593D01*
X29898Y11765D01*
X29766Y11898D01*
X29593Y11969D01*
X29406Y11970D01*
X29234Y11898D01*
X29225Y11889D01*
X29225Y13264D01*
X29225Y13735D01*
X29224Y13814D01*
X29194Y13888D01*
X29138Y13944D01*
X29064Y13975D01*
X28850Y13975D01*
X28800Y13925D01*
X28800Y13550D01*
X29175Y13550D01*
X29225Y13600D01*
X29225Y13735D01*
X29225Y13264D01*
X29225Y13400D01*
X29175Y13450D01*
X28800Y13450D01*
X28800Y13075D01*
X28850Y13025D01*
X29064Y13024D01*
X29138Y13055D01*
X29194Y13111D01*
X29224Y13185D01*
X29225Y13264D01*
X29225Y11889D01*
X29101Y11766D01*
X29030Y11593D01*
X29029Y11406D01*
X29101Y11234D01*
X29233Y11101D01*
X29406Y11030D01*
X29593Y11029D01*
X29629Y11045D01*
X29750Y10924D01*
X29750Y10905D01*
X29593Y10969D01*
X29406Y10970D01*
X29234Y10898D01*
X29101Y10766D01*
X29030Y10593D01*
X29029Y10406D01*
X29045Y10370D01*
X28970Y10295D01*
X28970Y10593D01*
X28970Y11593D01*
X28898Y11765D01*
X28766Y11898D01*
X28700Y11925D01*
X28700Y13075D01*
X28700Y13450D01*
X28700Y13550D01*
X28700Y13925D01*
X28650Y13975D01*
X28435Y13975D01*
X28361Y13944D01*
X28305Y13888D01*
X28275Y13814D01*
X28274Y13735D01*
X28275Y13600D01*
X28325Y13550D01*
X28700Y13550D01*
X28700Y13450D01*
X28325Y13450D01*
X28275Y13400D01*
X28274Y13264D01*
X28275Y13185D01*
X28305Y13111D01*
X28361Y13055D01*
X28435Y13024D01*
X28650Y13025D01*
X28700Y13075D01*
X28700Y11925D01*
X28593Y11969D01*
X28406Y11970D01*
X28234Y11898D01*
X28195Y11859D01*
X28195Y13588D01*
X28127Y13751D01*
X28002Y13877D01*
X27838Y13944D01*
X27661Y13945D01*
X27498Y13877D01*
X27372Y13752D01*
X27305Y13588D01*
X27304Y13411D01*
X27372Y13248D01*
X27497Y13122D01*
X27661Y13055D01*
X27838Y13054D01*
X28001Y13122D01*
X28127Y13247D01*
X28194Y13411D01*
X28195Y13588D01*
X28195Y11859D01*
X28101Y11766D01*
X28030Y11593D01*
X28029Y11406D01*
X28101Y11234D01*
X28233Y11101D01*
X28406Y11030D01*
X28593Y11029D01*
X28765Y11101D01*
X28898Y11233D01*
X28969Y11406D01*
X28970Y11593D01*
X28970Y10593D01*
X28898Y10765D01*
X28766Y10898D01*
X28593Y10969D01*
X28406Y10970D01*
X28234Y10898D01*
X28101Y10766D01*
X28030Y10593D01*
X28029Y10406D01*
X28101Y10234D01*
X28233Y10101D01*
X28406Y10030D01*
X28593Y10029D01*
X28765Y10101D01*
X28898Y10233D01*
X28969Y10406D01*
X28970Y10593D01*
X28970Y10295D01*
X27475Y8800D01*
X27475Y10935D01*
X27475Y11564D01*
X27444Y11638D01*
X27388Y11694D01*
X27314Y11724D01*
X27235Y11725D01*
X27195Y11725D01*
X27195Y13588D01*
X27127Y13751D01*
X27002Y13877D01*
X26838Y13944D01*
X26661Y13945D01*
X26498Y13877D01*
X26372Y13752D01*
X26305Y13588D01*
X26304Y13411D01*
X26372Y13248D01*
X26497Y13122D01*
X26661Y13055D01*
X26838Y13054D01*
X27001Y13122D01*
X27127Y13247D01*
X27194Y13411D01*
X27195Y13588D01*
X27195Y11725D01*
X27100Y11725D01*
X27050Y11675D01*
X27050Y11300D01*
X27425Y11300D01*
X27475Y11350D01*
X27475Y11564D01*
X27475Y10935D01*
X27475Y11150D01*
X27425Y11200D01*
X27050Y11200D01*
X27050Y10825D01*
X27100Y10775D01*
X27235Y10774D01*
X27314Y10775D01*
X27388Y10805D01*
X27444Y10861D01*
X27475Y10935D01*
X27475Y8800D01*
X27382Y8707D01*
X27332Y8632D01*
X27318Y8561D01*
X27252Y8627D01*
X27088Y8694D01*
X26911Y8695D01*
X26748Y8627D01*
X26685Y8564D01*
X26685Y8935D01*
X26747Y8872D01*
X26911Y8805D01*
X27088Y8804D01*
X27251Y8872D01*
X27377Y8997D01*
X27444Y9161D01*
X27445Y9338D01*
X27377Y9501D01*
X27252Y9627D01*
X27088Y9694D01*
X26911Y9695D01*
X26748Y9627D01*
X26685Y9564D01*
X26685Y9935D01*
X26747Y9872D01*
X26911Y9805D01*
X27088Y9804D01*
X27251Y9872D01*
X27377Y9997D01*
X27444Y10161D01*
X27445Y10338D01*
X27377Y10501D01*
X27252Y10627D01*
X27088Y10694D01*
X26950Y10695D01*
X26950Y10825D01*
X26950Y11200D01*
X26950Y11300D01*
X26950Y11675D01*
X26900Y11725D01*
X26764Y11725D01*
X26685Y11724D01*
X26611Y11694D01*
X26555Y11638D01*
X26524Y11564D01*
X26525Y11350D01*
X26575Y11300D01*
X26950Y11300D01*
X26950Y11200D01*
X26575Y11200D01*
X26525Y11150D01*
X26524Y10935D01*
X26555Y10861D01*
X26611Y10805D01*
X26685Y10775D01*
X26764Y10774D01*
X26900Y10775D01*
X26950Y10825D01*
X26950Y10695D01*
X26911Y10695D01*
X26748Y10627D01*
X26665Y10544D01*
X26617Y10616D01*
X26617Y10616D01*
X26387Y10846D01*
X26419Y10878D01*
X26444Y10941D01*
X26445Y11008D01*
X26445Y11558D01*
X26419Y11621D01*
X26371Y11669D01*
X26308Y11694D01*
X26241Y11695D01*
X25691Y11695D01*
X25628Y11669D01*
X25580Y11621D01*
X25555Y11558D01*
X25554Y11491D01*
X25554Y10941D01*
X25580Y10878D01*
X25628Y10830D01*
X25691Y10805D01*
X25758Y10804D01*
X25770Y10804D01*
X25770Y10794D01*
X25787Y10706D01*
X25820Y10657D01*
X25748Y10627D01*
X25622Y10502D01*
X25555Y10338D01*
X25554Y10161D01*
X25622Y9998D01*
X25747Y9872D01*
X25911Y9805D01*
X26088Y9804D01*
X26225Y9861D01*
X26225Y9638D01*
X26088Y9694D01*
X25911Y9695D01*
X25748Y9627D01*
X25622Y9502D01*
X25555Y9338D01*
X25554Y9161D01*
X25622Y8998D01*
X25747Y8872D01*
X25911Y8805D01*
X26088Y8804D01*
X26225Y8861D01*
X26225Y8638D01*
X26088Y8694D01*
X25911Y8695D01*
X25748Y8627D01*
X25622Y8502D01*
X25555Y8338D01*
X25554Y8161D01*
X25622Y7998D01*
X25747Y7872D01*
X25911Y7805D01*
X26088Y7804D01*
X26225Y7861D01*
X26225Y7638D01*
X26088Y7694D01*
X25911Y7695D01*
X25748Y7627D01*
X25622Y7502D01*
X25555Y7338D01*
X25554Y7161D01*
X25622Y6998D01*
X25747Y6872D01*
X25911Y6805D01*
X26088Y6804D01*
X26225Y6861D01*
X26225Y6638D01*
X26088Y6694D01*
X25911Y6695D01*
X25748Y6627D01*
X25622Y6502D01*
X25555Y6338D01*
X25554Y6161D01*
X25622Y5998D01*
X25747Y5872D01*
X25911Y5805D01*
X26088Y5804D01*
X26225Y5861D01*
X26225Y5638D01*
X26088Y5694D01*
X25911Y5695D01*
X25748Y5627D01*
X25622Y5502D01*
X25555Y5338D01*
X25554Y5161D01*
X25622Y4998D01*
X25747Y4872D01*
X25911Y4805D01*
X26088Y4804D01*
X26251Y4872D01*
X26328Y4949D01*
X26675Y4602D01*
X26675Y4602D01*
X26704Y4583D01*
X26622Y4502D01*
X26555Y4338D01*
X26554Y4161D01*
X26620Y4002D01*
X26379Y4002D01*
X26444Y4161D01*
X26445Y4338D01*
X26377Y4501D01*
X26252Y4627D01*
X26088Y4694D01*
X25911Y4695D01*
X25748Y4627D01*
X25622Y4502D01*
X25555Y4338D01*
X25554Y4161D01*
X25593Y4069D01*
X23730Y5932D01*
X23730Y8436D01*
X23717Y8624D01*
X23669Y8742D01*
X23590Y8769D01*
X23519Y8698D01*
X23519Y8840D01*
X23492Y8919D01*
X23470Y8926D01*
X23470Y12343D01*
X23470Y13343D01*
X23398Y13515D01*
X23266Y13648D01*
X23093Y13719D01*
X22906Y13720D01*
X22734Y13648D01*
X22601Y13516D01*
X22530Y13343D01*
X22529Y13156D01*
X22601Y12984D01*
X22733Y12851D01*
X22906Y12780D01*
X23093Y12779D01*
X23265Y12851D01*
X23398Y12983D01*
X23469Y13156D01*
X23470Y13343D01*
X23470Y12343D01*
X23398Y12515D01*
X23266Y12648D01*
X23093Y12719D01*
X22906Y12720D01*
X22734Y12648D01*
X22601Y12516D01*
X22530Y12343D01*
X22529Y12156D01*
X22601Y11984D01*
X22733Y11851D01*
X22906Y11780D01*
X23093Y11779D01*
X23265Y11851D01*
X23398Y11983D01*
X23469Y12156D01*
X23470Y12343D01*
X23470Y8926D01*
X23445Y8935D01*
X23445Y10588D01*
X23377Y10751D01*
X23252Y10877D01*
X23088Y10944D01*
X22911Y10945D01*
X22748Y10877D01*
X22622Y10752D01*
X22555Y10588D01*
X22554Y10411D01*
X22622Y10248D01*
X22747Y10122D01*
X22911Y10055D01*
X23088Y10054D01*
X23251Y10122D01*
X23377Y10247D01*
X23444Y10411D01*
X23445Y10588D01*
X23445Y8935D01*
X23313Y8980D01*
X23125Y8967D01*
X23007Y8919D01*
X22980Y8840D01*
X23250Y8570D01*
X23519Y8840D01*
X23519Y8698D01*
X23320Y8500D01*
X23590Y8230D01*
X23669Y8257D01*
X23730Y8436D01*
X23730Y5932D01*
X23695Y5967D01*
X23695Y7588D01*
X23627Y7751D01*
X23519Y7859D01*
X23519Y8159D01*
X23250Y8429D01*
X23179Y8358D01*
X23179Y8500D01*
X22909Y8769D01*
X22830Y8742D01*
X22818Y8706D01*
X22783Y8742D01*
X22656Y8794D01*
X22568Y8794D01*
X22558Y8803D01*
X22558Y9287D01*
X22621Y9349D01*
X22673Y9476D01*
X22673Y9613D01*
X22621Y9740D01*
X22524Y9837D01*
X22504Y9845D01*
X22504Y13180D01*
X22493Y13378D01*
X22439Y13507D01*
X22358Y13537D01*
X22287Y13467D01*
X22287Y13608D01*
X22257Y13689D01*
X22069Y13754D01*
X21871Y13743D01*
X21742Y13689D01*
X21712Y13608D01*
X22000Y13320D01*
X22287Y13608D01*
X22287Y13467D01*
X22070Y13250D01*
X22358Y12962D01*
X22439Y12992D01*
X22504Y13180D01*
X22504Y9845D01*
X22470Y9859D01*
X22470Y12343D01*
X22398Y12515D01*
X22287Y12626D01*
X22287Y12891D01*
X22000Y13179D01*
X21929Y13108D01*
X21929Y13250D01*
X21641Y13537D01*
X21560Y13507D01*
X21495Y13319D01*
X21506Y13121D01*
X21560Y12992D01*
X21641Y12962D01*
X21929Y13250D01*
X21929Y13108D01*
X21712Y12891D01*
X21742Y12810D01*
X21930Y12745D01*
X22128Y12756D01*
X22257Y12810D01*
X22287Y12891D01*
X22287Y12626D01*
X22266Y12648D01*
X22093Y12719D01*
X21906Y12720D01*
X21734Y12648D01*
X21601Y12516D01*
X21530Y12343D01*
X21529Y12156D01*
X21601Y11984D01*
X21733Y11851D01*
X21906Y11780D01*
X22093Y11779D01*
X22265Y11851D01*
X22398Y11983D01*
X22469Y12156D01*
X22470Y12343D01*
X22470Y9859D01*
X22397Y9890D01*
X22260Y9890D01*
X22133Y9837D01*
X22036Y9740D01*
X21983Y9614D01*
X21983Y9476D01*
X22036Y9349D01*
X22098Y9287D01*
X22098Y8708D01*
X22116Y8620D01*
X22166Y8546D01*
X22242Y8469D01*
X22242Y8381D01*
X22295Y8254D01*
X22392Y8157D01*
X22518Y8104D01*
X22656Y8104D01*
X22782Y8157D01*
X22869Y8243D01*
X22909Y8230D01*
X23179Y8500D01*
X23179Y8358D01*
X22980Y8159D01*
X23007Y8080D01*
X23186Y8019D01*
X23374Y8032D01*
X23492Y8080D01*
X23519Y8159D01*
X23519Y7859D01*
X23502Y7877D01*
X23338Y7944D01*
X23161Y7945D01*
X22998Y7877D01*
X22872Y7752D01*
X22805Y7588D01*
X22804Y7411D01*
X22872Y7248D01*
X22997Y7122D01*
X23161Y7055D01*
X23338Y7054D01*
X23501Y7122D01*
X23627Y7247D01*
X23694Y7411D01*
X23695Y7588D01*
X23695Y5967D01*
X21975Y7687D01*
X21975Y9264D01*
X21975Y9735D01*
X21974Y9814D01*
X21944Y9888D01*
X21888Y9944D01*
X21814Y9975D01*
X21600Y9975D01*
X21550Y9925D01*
X21550Y9550D01*
X21925Y9550D01*
X21975Y9600D01*
X21975Y9735D01*
X21975Y9264D01*
X21975Y9400D01*
X21925Y9450D01*
X21550Y9450D01*
X21550Y9075D01*
X21600Y9025D01*
X21814Y9024D01*
X21888Y9055D01*
X21944Y9111D01*
X21974Y9185D01*
X21975Y9264D01*
X21975Y7687D01*
X21470Y8192D01*
X21470Y12343D01*
X21470Y13343D01*
X21398Y13515D01*
X21266Y13648D01*
X21093Y13719D01*
X20906Y13720D01*
X20734Y13648D01*
X20601Y13516D01*
X20530Y13343D01*
X20529Y13156D01*
X20601Y12984D01*
X20733Y12851D01*
X20906Y12780D01*
X21093Y12779D01*
X21265Y12851D01*
X21398Y12983D01*
X21469Y13156D01*
X21470Y13343D01*
X21470Y12343D01*
X21398Y12515D01*
X21266Y12648D01*
X21093Y12719D01*
X20906Y12720D01*
X20734Y12648D01*
X20601Y12516D01*
X20530Y12343D01*
X20529Y12156D01*
X20545Y12120D01*
X20451Y12027D01*
X20504Y12180D01*
X20493Y12378D01*
X20470Y12434D01*
X20470Y13343D01*
X20398Y13515D01*
X20266Y13648D01*
X20093Y13719D01*
X19906Y13720D01*
X19734Y13648D01*
X19644Y13558D01*
X19644Y14306D01*
X19591Y14433D01*
X19494Y14530D01*
X19368Y14582D01*
X19230Y14582D01*
X19103Y14530D01*
X19006Y14433D01*
X18954Y14306D01*
X18954Y14218D01*
X18325Y13589D01*
X18266Y13648D01*
X18093Y13719D01*
X17906Y13720D01*
X17870Y13704D01*
X17547Y14027D01*
X17472Y14077D01*
X17384Y14095D01*
X16186Y14095D01*
X16186Y14095D01*
X16098Y14077D01*
X16024Y14027D01*
X16024Y14027D01*
X15337Y13340D01*
X15287Y13266D01*
X15270Y13178D01*
X15270Y9886D01*
X15248Y9877D01*
X15122Y9752D01*
X15055Y9588D01*
X15054Y9411D01*
X15122Y9248D01*
X15247Y9122D01*
X15411Y9055D01*
X15588Y9054D01*
X15674Y9090D01*
X15673Y9025D01*
X15565Y8917D01*
X14945Y8917D01*
X14945Y9588D01*
X14945Y10588D01*
X14945Y10588D01*
X14945Y13258D01*
X14945Y13808D01*
X14919Y13871D01*
X14871Y13919D01*
X14808Y13944D01*
X14741Y13945D01*
X14191Y13945D01*
X14128Y13919D01*
X14080Y13871D01*
X14055Y13808D01*
X14054Y13741D01*
X14054Y13191D01*
X14080Y13128D01*
X14128Y13080D01*
X14191Y13055D01*
X14258Y13054D01*
X14808Y13054D01*
X14871Y13080D01*
X14919Y13128D01*
X14944Y13191D01*
X14945Y13258D01*
X14945Y10588D01*
X14877Y10751D01*
X14752Y10877D01*
X14588Y10944D01*
X14411Y10945D01*
X14248Y10877D01*
X14122Y10752D01*
X14055Y10588D01*
X14054Y10411D01*
X14122Y10248D01*
X14247Y10122D01*
X14411Y10055D01*
X14588Y10054D01*
X14751Y10122D01*
X14877Y10247D01*
X14944Y10411D01*
X14945Y10588D01*
X14945Y9588D01*
X14877Y9751D01*
X14752Y9877D01*
X14588Y9944D01*
X14411Y9945D01*
X14248Y9877D01*
X14122Y9752D01*
X14055Y9588D01*
X14054Y9411D01*
X14122Y9248D01*
X14247Y9122D01*
X14411Y9055D01*
X14588Y9054D01*
X14751Y9122D01*
X14877Y9247D01*
X14944Y9411D01*
X14945Y9588D01*
X14945Y8917D01*
X13242Y8917D01*
X13389Y9064D01*
X13411Y9055D01*
X13588Y9054D01*
X13751Y9122D01*
X13877Y9247D01*
X13944Y9411D01*
X13945Y9588D01*
X13945Y10588D01*
X13945Y13588D01*
X13877Y13751D01*
X13752Y13877D01*
X13588Y13944D01*
X13411Y13945D01*
X13248Y13877D01*
X13122Y13752D01*
X13055Y13588D01*
X13054Y13411D01*
X13122Y13248D01*
X13247Y13122D01*
X13411Y13055D01*
X13588Y13054D01*
X13751Y13122D01*
X13877Y13247D01*
X13944Y13411D01*
X13945Y13588D01*
X13945Y10588D01*
X13877Y10751D01*
X13752Y10877D01*
X13588Y10944D01*
X13411Y10945D01*
X13248Y10877D01*
X13122Y10752D01*
X13055Y10588D01*
X13054Y10411D01*
X13122Y10248D01*
X13247Y10122D01*
X13411Y10055D01*
X13588Y10054D01*
X13751Y10122D01*
X13877Y10247D01*
X13944Y10411D01*
X13945Y10588D01*
X13945Y9588D01*
X13877Y9751D01*
X13752Y9877D01*
X13588Y9944D01*
X13411Y9945D01*
X13248Y9877D01*
X13122Y9752D01*
X13055Y9588D01*
X13054Y9411D01*
X13064Y9389D01*
X12949Y9274D01*
X12925Y9274D01*
X12980Y9436D01*
X12967Y9624D01*
X12945Y9679D01*
X12945Y10588D01*
X12945Y13588D01*
X12877Y13751D01*
X12752Y13877D01*
X12588Y13944D01*
X12411Y13945D01*
X12248Y13877D01*
X12122Y13752D01*
X12055Y13588D01*
X12054Y13411D01*
X12122Y13248D01*
X12247Y13122D01*
X12411Y13055D01*
X12588Y13054D01*
X12751Y13122D01*
X12877Y13247D01*
X12944Y13411D01*
X12945Y13588D01*
X12945Y10588D01*
X12877Y10751D01*
X12752Y10877D01*
X12588Y10944D01*
X12411Y10945D01*
X12248Y10877D01*
X12122Y10752D01*
X12055Y10588D01*
X12054Y10411D01*
X12122Y10248D01*
X12247Y10122D01*
X12411Y10055D01*
X12588Y10054D01*
X12751Y10122D01*
X12877Y10247D01*
X12944Y10411D01*
X12945Y10588D01*
X12945Y9679D01*
X12919Y9742D01*
X12840Y9769D01*
X12769Y9698D01*
X12769Y9840D01*
X12742Y9919D01*
X12563Y9980D01*
X12375Y9967D01*
X12257Y9919D01*
X12230Y9840D01*
X12500Y9570D01*
X12769Y9840D01*
X12769Y9698D01*
X12606Y9535D01*
X12570Y9500D01*
X12500Y9429D01*
X12429Y9500D01*
X12393Y9535D01*
X12159Y9769D01*
X12080Y9742D01*
X12019Y9563D01*
X12032Y9375D01*
X12073Y9274D01*
X11941Y9274D01*
X11879Y9337D01*
X11752Y9389D01*
X11615Y9389D01*
X11580Y9375D01*
X11580Y10736D01*
X11567Y10924D01*
X11545Y10979D01*
X11545Y13888D01*
X11477Y14051D01*
X11352Y14177D01*
X11188Y14244D01*
X11011Y14245D01*
X10848Y14177D01*
X10722Y14052D01*
X10655Y13888D01*
X10654Y13711D01*
X10722Y13548D01*
X10847Y13422D01*
X11011Y13355D01*
X11188Y13354D01*
X11351Y13422D01*
X11477Y13547D01*
X11544Y13711D01*
X11545Y13888D01*
X11545Y10979D01*
X11519Y11042D01*
X11440Y11069D01*
X11369Y10998D01*
X11369Y11140D01*
X11342Y11219D01*
X11163Y11280D01*
X10975Y11267D01*
X10857Y11219D01*
X10830Y11140D01*
X11100Y10870D01*
X11369Y11140D01*
X11369Y10998D01*
X11170Y10800D01*
X11440Y10530D01*
X11519Y10557D01*
X11580Y10736D01*
X11580Y9375D01*
X11488Y9337D01*
X11391Y9240D01*
X11369Y9188D01*
X11369Y10459D01*
X11100Y10729D01*
X11029Y10658D01*
X11029Y10800D01*
X10759Y11069D01*
X10680Y11042D01*
X10619Y10863D01*
X10632Y10675D01*
X10680Y10557D01*
X10759Y10530D01*
X11029Y10800D01*
X11029Y10658D01*
X10830Y10459D01*
X10857Y10380D01*
X11036Y10319D01*
X11224Y10332D01*
X11342Y10380D01*
X11369Y10459D01*
X11369Y9188D01*
X11338Y9113D01*
X11338Y8976D01*
X11363Y8917D01*
X10658Y8917D01*
X10480Y9095D01*
X10480Y10186D01*
X10467Y10374D01*
X10445Y10430D01*
X10445Y11008D01*
X10445Y11558D01*
X10419Y11621D01*
X10371Y11669D01*
X10308Y11694D01*
X10241Y11695D01*
X9691Y11695D01*
X9628Y11669D01*
X9580Y11621D01*
X9555Y11558D01*
X9554Y11491D01*
X9554Y10941D01*
X9580Y10878D01*
X9628Y10830D01*
X9691Y10805D01*
X9758Y10804D01*
X10308Y10804D01*
X10371Y10830D01*
X10419Y10878D01*
X10444Y10941D01*
X10445Y11008D01*
X10445Y10430D01*
X10419Y10492D01*
X10340Y10519D01*
X10269Y10448D01*
X10269Y10590D01*
X10242Y10669D01*
X10063Y10730D01*
X9875Y10717D01*
X9757Y10669D01*
X9730Y10590D01*
X10000Y10320D01*
X10269Y10590D01*
X10269Y10448D01*
X10070Y10250D01*
X10340Y9980D01*
X10419Y10007D01*
X10480Y10186D01*
X10480Y9095D01*
X10435Y9139D01*
X10444Y9161D01*
X10445Y9338D01*
X10377Y9501D01*
X10269Y9609D01*
X10269Y9909D01*
X10000Y10179D01*
X9929Y10108D01*
X9929Y10250D01*
X9659Y10519D01*
X9580Y10492D01*
X9519Y10313D01*
X9532Y10125D01*
X9580Y10007D01*
X9659Y9980D01*
X9929Y10250D01*
X9929Y10108D01*
X9730Y9909D01*
X9757Y9830D01*
X9936Y9769D01*
X10124Y9782D01*
X10242Y9830D01*
X10269Y9909D01*
X10269Y9609D01*
X10252Y9627D01*
X10088Y9694D01*
X9911Y9695D01*
X9748Y9627D01*
X9622Y9502D01*
X9555Y9338D01*
X9554Y9161D01*
X9622Y8998D01*
X9747Y8872D01*
X9911Y8805D01*
X10088Y8804D01*
X10110Y8814D01*
X10400Y8524D01*
X10400Y8524D01*
X10474Y8474D01*
X10562Y8457D01*
X15660Y8457D01*
X15748Y8474D01*
X15748Y8474D01*
X15823Y8524D01*
X15999Y8700D01*
X16087Y8700D01*
X16214Y8752D01*
X16311Y8849D01*
X16363Y8976D01*
X16364Y9074D01*
X16411Y9055D01*
X16588Y9054D01*
X16751Y9122D01*
X16877Y9247D01*
X16944Y9411D01*
X16945Y9588D01*
X16877Y9751D01*
X16752Y9877D01*
X16588Y9944D01*
X16411Y9945D01*
X16248Y9877D01*
X16122Y9752D01*
X16055Y9588D01*
X16054Y9411D01*
X16063Y9390D01*
X15950Y9390D01*
X15933Y9383D01*
X15944Y9411D01*
X15945Y9588D01*
X15877Y9751D01*
X15752Y9877D01*
X15730Y9886D01*
X15730Y13082D01*
X16282Y13635D01*
X16536Y13635D01*
X16491Y13590D01*
X16400Y13369D01*
X16399Y13131D01*
X16491Y12910D01*
X16659Y12741D01*
X16711Y12720D01*
X16666Y12720D01*
X16603Y12694D01*
X16555Y12646D01*
X16530Y12583D01*
X16529Y12516D01*
X16529Y11916D01*
X16555Y11853D01*
X16603Y11805D01*
X16666Y11780D01*
X16733Y11779D01*
X17333Y11779D01*
X17396Y11805D01*
X17444Y11853D01*
X17469Y11916D01*
X17470Y11983D01*
X17470Y12020D01*
X17480Y12020D01*
X17568Y12037D01*
X17576Y12043D01*
X17601Y11984D01*
X17733Y11851D01*
X17906Y11780D01*
X18093Y11779D01*
X18265Y11851D01*
X18289Y11875D01*
X18289Y10615D01*
X17610Y9935D01*
X17588Y9944D01*
X17411Y9945D01*
X17248Y9877D01*
X17122Y9752D01*
X17055Y9588D01*
X17054Y9411D01*
X17122Y9248D01*
X17247Y9122D01*
X17411Y9055D01*
X17588Y9054D01*
X17751Y9122D01*
X17877Y9247D01*
X17944Y9411D01*
X17945Y9588D01*
X17935Y9610D01*
X18682Y10357D01*
X18682Y10357D01*
X18682Y10357D01*
X18732Y10431D01*
X18749Y10519D01*
X18749Y10519D01*
X18749Y10519D01*
X18749Y11844D01*
X18906Y11780D01*
X19093Y11779D01*
X19265Y11851D01*
X19398Y11983D01*
X19469Y12156D01*
X19470Y12343D01*
X19398Y12515D01*
X19266Y12648D01*
X19093Y12719D01*
X18906Y12720D01*
X18829Y12687D01*
X18921Y12780D01*
X19093Y12779D01*
X19265Y12851D01*
X19398Y12983D01*
X19469Y13156D01*
X19470Y13343D01*
X19398Y13515D01*
X19266Y13648D01*
X19102Y13716D01*
X19279Y13892D01*
X19367Y13892D01*
X19494Y13945D01*
X19591Y14042D01*
X19644Y14168D01*
X19644Y14306D01*
X19644Y13558D01*
X19601Y13516D01*
X19530Y13343D01*
X19529Y13156D01*
X19601Y12984D01*
X19733Y12851D01*
X19906Y12780D01*
X20093Y12779D01*
X20265Y12851D01*
X20398Y12983D01*
X20469Y13156D01*
X20470Y13343D01*
X20470Y12434D01*
X20439Y12507D01*
X20358Y12537D01*
X20287Y12467D01*
X20287Y12608D01*
X20257Y12689D01*
X20069Y12754D01*
X19871Y12743D01*
X19742Y12689D01*
X19712Y12608D01*
X20000Y12320D01*
X20287Y12608D01*
X20287Y12467D01*
X20106Y12285D01*
X20070Y12250D01*
X20000Y12179D01*
X19964Y12143D01*
X19929Y12108D01*
X19929Y12250D01*
X19641Y12537D01*
X19560Y12507D01*
X19495Y12319D01*
X19506Y12121D01*
X19560Y11992D01*
X19641Y11962D01*
X19929Y12250D01*
X19929Y12108D01*
X19712Y11891D01*
X19742Y11810D01*
X19930Y11745D01*
X20128Y11756D01*
X20218Y11794D01*
X18340Y9915D01*
X18248Y9877D01*
X18122Y9752D01*
X18055Y9588D01*
X18054Y9411D01*
X18122Y9248D01*
X18247Y9122D01*
X18411Y9055D01*
X18588Y9054D01*
X18751Y9122D01*
X18877Y9247D01*
X18944Y9411D01*
X18945Y9588D01*
X18877Y9751D01*
X18852Y9776D01*
X19554Y10479D01*
X19554Y10411D01*
X19622Y10248D01*
X19747Y10122D01*
X19911Y10055D01*
X20088Y10054D01*
X20251Y10122D01*
X20377Y10247D01*
X20444Y10411D01*
X20445Y10588D01*
X20377Y10751D01*
X20252Y10877D01*
X20088Y10944D01*
X20020Y10944D01*
X20870Y11794D01*
X20906Y11780D01*
X21093Y11779D01*
X21265Y11851D01*
X21398Y11983D01*
X21469Y12156D01*
X21470Y12343D01*
X21470Y8192D01*
X21450Y8212D01*
X21450Y9075D01*
X21450Y9450D01*
X21450Y9550D01*
X21450Y9925D01*
X21400Y9975D01*
X21185Y9975D01*
X21111Y9944D01*
X21055Y9888D01*
X21025Y9814D01*
X21024Y9735D01*
X21025Y9600D01*
X21075Y9550D01*
X21450Y9550D01*
X21450Y9450D01*
X21075Y9450D01*
X21025Y9400D01*
X21024Y9264D01*
X21025Y9185D01*
X21055Y9111D01*
X21111Y9055D01*
X21185Y9024D01*
X21400Y9025D01*
X21450Y9075D01*
X21450Y8212D01*
X21395Y8266D01*
X21395Y8354D01*
X21343Y8481D01*
X21246Y8578D01*
X21119Y8631D01*
X20982Y8631D01*
X20945Y8616D01*
X20945Y9588D01*
X20877Y9751D01*
X20752Y9877D01*
X20588Y9944D01*
X20411Y9945D01*
X20248Y9877D01*
X20122Y9752D01*
X20055Y9588D01*
X20054Y9411D01*
X20122Y9248D01*
X20247Y9122D01*
X20411Y9055D01*
X20588Y9054D01*
X20751Y9122D01*
X20877Y9247D01*
X20944Y9411D01*
X20945Y9588D01*
X20945Y8616D01*
X20855Y8579D01*
X20758Y8482D01*
X20730Y8415D01*
X20393Y8752D01*
X20319Y8801D01*
X20231Y8819D01*
X19945Y8819D01*
X19945Y9588D01*
X19877Y9751D01*
X19752Y9877D01*
X19588Y9944D01*
X19411Y9945D01*
X19248Y9877D01*
X19122Y9752D01*
X19055Y9588D01*
X19054Y9411D01*
X19122Y9248D01*
X19247Y9122D01*
X19411Y9055D01*
X19588Y9054D01*
X19751Y9122D01*
X19877Y9247D01*
X19944Y9411D01*
X19945Y9588D01*
X19945Y8819D01*
X19249Y8819D01*
X19249Y8819D01*
X19161Y8801D01*
X19086Y8752D01*
X19086Y8752D01*
X17837Y7502D01*
X17787Y7428D01*
X17770Y7340D01*
X17770Y7169D01*
X17707Y7106D01*
X17655Y6980D01*
X17655Y6917D01*
X17588Y6944D01*
X17411Y6945D01*
X17248Y6877D01*
X17122Y6752D01*
X17055Y6588D01*
X17054Y6411D01*
X17064Y6389D01*
X16949Y6274D01*
X16888Y6274D01*
X16944Y6411D01*
X16945Y6588D01*
X16877Y6751D01*
X16752Y6877D01*
X16588Y6944D01*
X16411Y6945D01*
X16248Y6877D01*
X16122Y6752D01*
X16055Y6588D01*
X16054Y6411D01*
X16064Y6389D01*
X15734Y6060D01*
X15600Y6060D01*
X15751Y6122D01*
X15877Y6247D01*
X15944Y6411D01*
X15945Y6588D01*
X15877Y6751D01*
X15752Y6877D01*
X15588Y6944D01*
X15411Y6945D01*
X15248Y6877D01*
X15122Y6752D01*
X15055Y6588D01*
X15054Y6411D01*
X15122Y6248D01*
X15247Y6122D01*
X15406Y6056D01*
X15335Y6042D01*
X15260Y5992D01*
X15260Y5992D01*
X14945Y5676D01*
X14945Y6588D01*
X14877Y6751D01*
X14752Y6877D01*
X14588Y6944D01*
X14411Y6945D01*
X14248Y6877D01*
X14122Y6752D01*
X14055Y6588D01*
X14054Y6411D01*
X14064Y6389D01*
X13945Y6270D01*
X13945Y6588D01*
X13877Y6751D01*
X13752Y6877D01*
X13588Y6944D01*
X13411Y6945D01*
X13248Y6877D01*
X13122Y6752D01*
X13055Y6588D01*
X13054Y6411D01*
X13122Y6248D01*
X13247Y6122D01*
X13411Y6055D01*
X13588Y6054D01*
X13751Y6122D01*
X13877Y6247D01*
X13944Y6411D01*
X13945Y6588D01*
X13945Y6270D01*
X13340Y5665D01*
X13248Y5627D01*
X13122Y5502D01*
X13055Y5338D01*
X13054Y5161D01*
X13122Y4998D01*
X13247Y4872D01*
X13411Y4805D01*
X13588Y4804D01*
X13751Y4872D01*
X13877Y4997D01*
X13944Y5161D01*
X13945Y5338D01*
X13877Y5501D01*
X13852Y5526D01*
X14389Y6064D01*
X14411Y6055D01*
X14588Y6054D01*
X14751Y6122D01*
X14877Y6247D01*
X14944Y6411D01*
X14945Y6588D01*
X14945Y5676D01*
X14837Y5569D01*
X14826Y5552D01*
X14752Y5627D01*
X14588Y5694D01*
X14411Y5695D01*
X14248Y5627D01*
X14122Y5502D01*
X14055Y5338D01*
X14054Y5161D01*
X14122Y4998D01*
X14247Y4872D01*
X14411Y4805D01*
X14588Y4804D01*
X14751Y4872D01*
X14770Y4890D01*
X14770Y4845D01*
X12945Y3020D01*
X12945Y5338D01*
X12945Y6588D01*
X12877Y6751D01*
X12752Y6877D01*
X12588Y6944D01*
X12411Y6945D01*
X12248Y6877D01*
X12122Y6752D01*
X12055Y6588D01*
X12054Y6411D01*
X12122Y6248D01*
X12247Y6122D01*
X12411Y6055D01*
X12588Y6054D01*
X12751Y6122D01*
X12877Y6247D01*
X12944Y6411D01*
X12945Y6588D01*
X12945Y5338D01*
X12877Y5501D01*
X12752Y5627D01*
X12588Y5694D01*
X12411Y5695D01*
X12248Y5627D01*
X12122Y5502D01*
X12055Y5338D01*
X12054Y5161D01*
X12122Y4998D01*
X12247Y4872D01*
X12411Y4805D01*
X12588Y4804D01*
X12751Y4872D01*
X12877Y4997D01*
X12944Y5161D01*
X12945Y5338D01*
X12945Y3020D01*
X12610Y2685D01*
X12588Y2694D01*
X12411Y2695D01*
X12248Y2627D01*
X12122Y2502D01*
X12055Y2338D01*
X12054Y2161D01*
X12122Y1998D01*
X12247Y1872D01*
X12411Y1805D01*
X12588Y1804D01*
X12751Y1872D01*
X12877Y1997D01*
X12944Y2161D01*
X12945Y2338D01*
X12935Y2360D01*
X15162Y4587D01*
X15212Y4661D01*
X15212Y4661D01*
X15230Y4750D01*
X15230Y4890D01*
X15247Y4872D01*
X15411Y4805D01*
X15588Y4804D01*
X15751Y4872D01*
X15770Y4890D01*
X15770Y4845D01*
X13610Y2685D01*
X13588Y2694D01*
X13411Y2695D01*
X13248Y2627D01*
X13122Y2502D01*
X13055Y2338D01*
X13054Y2161D01*
X13122Y1998D01*
X13247Y1872D01*
X13411Y1805D01*
X13588Y1804D01*
X13751Y1872D01*
X13877Y1997D01*
X13944Y2161D01*
X13945Y2338D01*
X13935Y2360D01*
X16162Y4587D01*
X16212Y4661D01*
X16212Y4661D01*
X16230Y4750D01*
X16230Y4890D01*
X16247Y4872D01*
X16411Y4805D01*
X16588Y4804D01*
X16751Y4872D01*
X16877Y4997D01*
X16944Y5161D01*
X16945Y5338D01*
X16877Y5501D01*
X16752Y5627D01*
X16614Y5684D01*
X16745Y5814D01*
X17044Y5814D01*
X17132Y5832D01*
X17132Y5832D01*
X17207Y5882D01*
X17389Y6064D01*
X17411Y6055D01*
X17588Y6054D01*
X17751Y6122D01*
X17877Y6247D01*
X17944Y6411D01*
X17945Y6566D01*
X18055Y6566D01*
X18054Y6411D01*
X18122Y6248D01*
X18247Y6122D01*
X18411Y6055D01*
X18588Y6054D01*
X18751Y6122D01*
X18877Y6247D01*
X18944Y6411D01*
X18945Y6588D01*
X18877Y6751D01*
X18752Y6877D01*
X18588Y6944D01*
X18411Y6945D01*
X18345Y6917D01*
X18345Y6979D01*
X18292Y7106D01*
X18230Y7169D01*
X18230Y7244D01*
X19053Y8068D01*
X19102Y7951D01*
X19213Y7839D01*
X19358Y7779D01*
X19450Y7779D01*
X20295Y6934D01*
X20257Y6919D01*
X20230Y6840D01*
X20464Y6606D01*
X20500Y6570D01*
X20570Y6500D01*
X20500Y6429D01*
X20464Y6393D01*
X20429Y6358D01*
X20429Y6500D01*
X20159Y6769D01*
X20080Y6742D01*
X20019Y6563D01*
X20032Y6375D01*
X20080Y6257D01*
X20159Y6230D01*
X20429Y6500D01*
X20429Y6358D01*
X20230Y6159D01*
X20257Y6080D01*
X20436Y6019D01*
X20624Y6032D01*
X20742Y6080D01*
X20751Y6106D01*
X20771Y6087D01*
X20781Y6097D01*
X20813Y6049D01*
X21175Y5688D01*
X21128Y5669D01*
X21080Y5621D01*
X21055Y5558D01*
X21054Y5491D01*
X21054Y4941D01*
X21080Y4878D01*
X21128Y4830D01*
X21191Y4805D01*
X21258Y4804D01*
X21808Y4804D01*
X21871Y4830D01*
X21919Y4878D01*
X21938Y4924D01*
X22804Y4059D01*
X22863Y4019D01*
X22872Y3998D01*
X22997Y3872D01*
X23161Y3805D01*
X23338Y3804D01*
X23501Y3872D01*
X23627Y3997D01*
X23694Y4161D01*
X23695Y4338D01*
X23627Y4501D01*
X23502Y4627D01*
X23338Y4694D01*
X23161Y4695D01*
X22999Y4627D01*
X22186Y5440D01*
X22098Y5499D01*
X21995Y5520D01*
X21945Y5520D01*
X21945Y5558D01*
X21919Y5621D01*
X21871Y5669D01*
X21808Y5694D01*
X21770Y5695D01*
X21770Y5745D01*
X21769Y5745D01*
X21770Y5745D01*
X21765Y5765D01*
X21749Y5848D01*
X21749Y5848D01*
X21690Y5936D01*
X21690Y5936D01*
X21572Y6054D01*
X21588Y6054D01*
X21751Y6122D01*
X21877Y6247D01*
X21944Y6411D01*
X21945Y6550D01*
X23180Y5314D01*
X23160Y5265D01*
X23159Y5128D01*
X23212Y5001D01*
X23309Y4904D01*
X23436Y4851D01*
X23573Y4851D01*
X23700Y4903D01*
X23797Y5000D01*
X23849Y5127D01*
X23849Y5161D01*
X25401Y3610D01*
X25476Y3560D01*
X25476Y3560D01*
X25564Y3542D01*
X25663Y3542D01*
X25622Y3502D01*
X25555Y3338D01*
X25554Y3161D01*
X25622Y2998D01*
X25747Y2872D01*
X25911Y2805D01*
X26088Y2804D01*
X26251Y2872D01*
X26377Y2997D01*
X26444Y3161D01*
X26445Y3338D01*
X26377Y3501D01*
X26336Y3542D01*
X26663Y3542D01*
X26622Y3502D01*
X26555Y3338D01*
X26554Y3161D01*
X26622Y2998D01*
X26747Y2872D01*
X26911Y2805D01*
X27088Y2804D01*
X27251Y2872D01*
X27377Y2997D01*
X27444Y3161D01*
X27445Y3338D01*
X27377Y3501D01*
X27336Y3542D01*
X28272Y3542D01*
X28342Y3556D01*
X28406Y3530D01*
X28593Y3529D01*
X28765Y3601D01*
X28898Y3733D01*
X28969Y3906D01*
X28970Y4093D01*
X28898Y4265D01*
X28894Y4270D01*
X29105Y4270D01*
X29101Y4266D01*
X29030Y4093D01*
X29029Y3906D01*
X29101Y3734D01*
X29233Y3601D01*
X29406Y3530D01*
X29593Y3529D01*
X29765Y3601D01*
X29898Y3733D01*
X29969Y3906D01*
X29970Y4093D01*
X29898Y4265D01*
X29894Y4270D01*
X29904Y4270D01*
X30044Y4129D01*
X30030Y4093D01*
X30029Y3906D01*
X30101Y3734D01*
X30233Y3601D01*
X30406Y3530D01*
X30593Y3529D01*
X30765Y3601D01*
X30898Y3733D01*
X30969Y3906D01*
X30970Y4093D01*
X30970Y2400D01*
X30588Y2242D01*
X30258Y1913D01*
X30080Y1483D01*
X30079Y1018D01*
X30257Y588D01*
X30586Y258D01*
X30777Y179D01*
X26847Y179D01*
X28941Y2355D01*
X29078Y2354D01*
X29223Y2414D01*
X29334Y2525D01*
X29394Y2671D01*
X29395Y2828D01*
X29335Y2973D01*
X29224Y3084D01*
X29078Y3144D01*
X28921Y3145D01*
X28776Y3085D01*
X28665Y2974D01*
X28605Y2828D01*
X28604Y2671D01*
X28605Y2669D01*
X27445Y1463D01*
X27445Y2338D01*
X27377Y2501D01*
X27252Y2627D01*
X27088Y2694D01*
X26911Y2695D01*
X26748Y2627D01*
X26622Y2502D01*
X26555Y2338D01*
X26554Y2161D01*
X26622Y1998D01*
X26747Y1872D01*
X26911Y1805D01*
X27088Y1804D01*
X27251Y1872D01*
X27377Y1997D01*
X27444Y2161D01*
X27445Y2338D01*
X27445Y1463D01*
X26445Y424D01*
X26445Y2338D01*
X26377Y2501D01*
X26252Y2627D01*
X26088Y2694D01*
X25911Y2695D01*
X25748Y2627D01*
X25622Y2502D01*
X25555Y2338D01*
X25554Y2161D01*
X25622Y1998D01*
X25747Y1872D01*
X25911Y1805D01*
X26088Y1804D01*
X26251Y1872D01*
X26377Y1997D01*
X26444Y2161D01*
X26445Y2338D01*
X26445Y424D01*
X26402Y380D01*
X24480Y380D01*
X24480Y1436D01*
X24467Y1624D01*
X24419Y1742D01*
X24340Y1769D01*
X24269Y1698D01*
X24269Y1840D01*
X24242Y1919D01*
X24063Y1980D01*
X23875Y1967D01*
X23757Y1919D01*
X23730Y1840D01*
X24000Y1570D01*
X24269Y1840D01*
X24269Y1698D01*
X24070Y1500D01*
X24340Y1230D01*
X24419Y1257D01*
X24480Y1436D01*
X24480Y380D01*
X24269Y380D01*
X24269Y1159D01*
X24000Y1429D01*
X23929Y1358D01*
X23929Y1500D01*
X23730Y1699D01*
X23730Y3186D01*
X23717Y3374D01*
X23669Y3492D01*
X23590Y3519D01*
X23519Y3448D01*
X23519Y3590D01*
X23492Y3669D01*
X23313Y3730D01*
X23125Y3717D01*
X23007Y3669D01*
X22980Y3590D01*
X23250Y3320D01*
X23519Y3590D01*
X23519Y3448D01*
X23320Y3250D01*
X23590Y2980D01*
X23669Y3007D01*
X23730Y3186D01*
X23730Y1699D01*
X23659Y1769D01*
X23580Y1742D01*
X23519Y1563D01*
X23532Y1375D01*
X23580Y1257D01*
X23659Y1230D01*
X23929Y1500D01*
X23929Y1358D01*
X23730Y1159D01*
X23757Y1080D01*
X23936Y1019D01*
X24124Y1032D01*
X24242Y1080D01*
X24269Y1159D01*
X24269Y380D01*
X23519Y380D01*
X23519Y2909D01*
X23250Y3179D01*
X23179Y3108D01*
X23179Y3250D01*
X22909Y3519D01*
X22830Y3492D01*
X22769Y3313D01*
X22782Y3125D01*
X22830Y3007D01*
X22909Y2980D01*
X23179Y3250D01*
X23179Y3108D01*
X22980Y2909D01*
X23007Y2830D01*
X23186Y2769D01*
X23374Y2782D01*
X23492Y2830D01*
X23519Y2909D01*
X23519Y380D01*
X21980Y380D01*
X21980Y2186D01*
X21967Y2374D01*
X21919Y2492D01*
X21840Y2519D01*
X21769Y2448D01*
X21769Y2590D01*
X21742Y2669D01*
X21563Y2730D01*
X21375Y2717D01*
X21257Y2669D01*
X21230Y2590D01*
X21500Y2320D01*
X21769Y2590D01*
X21769Y2448D01*
X21570Y2250D01*
X21840Y1980D01*
X21919Y2007D01*
X21980Y2186D01*
X21980Y380D01*
X21769Y380D01*
X21769Y1909D01*
X21535Y2143D01*
X21500Y2179D01*
X21429Y2250D01*
X21393Y2285D01*
X21159Y2519D01*
X21080Y2492D01*
X21019Y2313D01*
X21032Y2125D01*
X21080Y2007D01*
X21106Y1998D01*
X21087Y1978D01*
X21144Y1921D01*
X21088Y1944D01*
X20911Y1945D01*
X20762Y1883D01*
X20877Y1997D01*
X20944Y2161D01*
X20945Y2338D01*
X20877Y2501D01*
X20752Y2627D01*
X20588Y2694D01*
X20411Y2695D01*
X20389Y2685D01*
X20185Y2890D01*
X20185Y4935D01*
X20247Y4872D01*
X20411Y4805D01*
X20588Y4804D01*
X20751Y4872D01*
X20877Y4997D01*
X20944Y5161D01*
X20945Y5338D01*
X20877Y5501D01*
X20752Y5627D01*
X20588Y5694D01*
X20411Y5695D01*
X20248Y5627D01*
X20185Y5564D01*
X20185Y6044D01*
X20167Y6132D01*
X20167Y6132D01*
X20117Y6207D01*
X19935Y6389D01*
X19944Y6411D01*
X19945Y6588D01*
X19877Y6751D01*
X19752Y6877D01*
X19588Y6944D01*
X19411Y6945D01*
X19248Y6877D01*
X19122Y6752D01*
X19055Y6588D01*
X19054Y6411D01*
X19122Y6248D01*
X19247Y6122D01*
X19411Y6055D01*
X19588Y6054D01*
X19610Y6064D01*
X19725Y5949D01*
X19725Y5638D01*
X19588Y5694D01*
X19411Y5695D01*
X19248Y5627D01*
X19122Y5502D01*
X19055Y5338D01*
X19054Y5161D01*
X19122Y4998D01*
X19247Y4872D01*
X19411Y4805D01*
X19588Y4804D01*
X19725Y4861D01*
X19725Y2794D01*
X19742Y2706D01*
X19792Y2632D01*
X20064Y2360D01*
X20055Y2338D01*
X20054Y2161D01*
X20122Y1998D01*
X20247Y1872D01*
X20411Y1805D01*
X20588Y1804D01*
X20737Y1866D01*
X20622Y1752D01*
X20555Y1588D01*
X20554Y1411D01*
X20622Y1248D01*
X20747Y1122D01*
X20911Y1055D01*
X21088Y1054D01*
X21251Y1122D01*
X21377Y1247D01*
X21444Y1411D01*
X21445Y1588D01*
X21377Y1751D01*
X21319Y1809D01*
X21436Y1769D01*
X21624Y1782D01*
X21742Y1830D01*
X21769Y1909D01*
X21769Y380D01*
X19945Y380D01*
X19945Y2338D01*
X19877Y2501D01*
X19752Y2627D01*
X19588Y2694D01*
X19411Y2695D01*
X19248Y2627D01*
X19122Y2502D01*
X19055Y2338D01*
X19054Y2161D01*
X19122Y1998D01*
X19247Y1872D01*
X19411Y1805D01*
X19588Y1804D01*
X19751Y1872D01*
X19877Y1997D01*
X19944Y2161D01*
X19945Y2338D01*
X19945Y380D01*
X19945Y380D01*
X19945Y758D01*
X19945Y1308D01*
X19919Y1371D01*
X19871Y1419D01*
X19808Y1444D01*
X19741Y1445D01*
X19191Y1445D01*
X19128Y1419D01*
X19080Y1371D01*
X19055Y1308D01*
X19054Y1241D01*
X19054Y691D01*
X19080Y628D01*
X19128Y580D01*
X19191Y555D01*
X19258Y554D01*
X19808Y554D01*
X19871Y580D01*
X19919Y628D01*
X19944Y691D01*
X19945Y758D01*
X19945Y380D01*
X18945Y380D01*
X18945Y1088D01*
X18945Y2338D01*
X18945Y5338D01*
X18877Y5501D01*
X18752Y5627D01*
X18588Y5694D01*
X18411Y5695D01*
X18248Y5627D01*
X18122Y5502D01*
X18055Y5338D01*
X18054Y5161D01*
X18122Y4998D01*
X18247Y4872D01*
X18411Y4805D01*
X18588Y4804D01*
X18751Y4872D01*
X18877Y4997D01*
X18944Y5161D01*
X18945Y5338D01*
X18945Y2338D01*
X18877Y2501D01*
X18752Y2627D01*
X18588Y2694D01*
X18411Y2695D01*
X18248Y2627D01*
X18122Y2502D01*
X18055Y2338D01*
X18054Y2161D01*
X18122Y1998D01*
X18247Y1872D01*
X18411Y1805D01*
X18588Y1804D01*
X18751Y1872D01*
X18877Y1997D01*
X18944Y2161D01*
X18945Y2338D01*
X18945Y1088D01*
X18877Y1251D01*
X18752Y1377D01*
X18588Y1444D01*
X18411Y1445D01*
X18248Y1377D01*
X18122Y1252D01*
X18055Y1088D01*
X18054Y911D01*
X18122Y748D01*
X18247Y622D01*
X18411Y555D01*
X18588Y554D01*
X18751Y622D01*
X18877Y747D01*
X18944Y911D01*
X18945Y1088D01*
X18945Y380D01*
X17945Y380D01*
X17945Y1088D01*
X17945Y2338D01*
X17945Y5338D01*
X17877Y5501D01*
X17752Y5627D01*
X17588Y5694D01*
X17411Y5695D01*
X17248Y5627D01*
X17122Y5502D01*
X17055Y5338D01*
X17054Y5161D01*
X17122Y4998D01*
X17247Y4872D01*
X17411Y4805D01*
X17588Y4804D01*
X17751Y4872D01*
X17877Y4997D01*
X17944Y5161D01*
X17945Y5338D01*
X17945Y2338D01*
X17877Y2501D01*
X17752Y2627D01*
X17588Y2694D01*
X17411Y2695D01*
X17248Y2627D01*
X17122Y2502D01*
X17055Y2338D01*
X17054Y2161D01*
X17122Y1998D01*
X17247Y1872D01*
X17411Y1805D01*
X17588Y1804D01*
X17751Y1872D01*
X17877Y1997D01*
X17944Y2161D01*
X17945Y2338D01*
X17945Y1088D01*
X17877Y1251D01*
X17752Y1377D01*
X17588Y1444D01*
X17411Y1445D01*
X17248Y1377D01*
X17122Y1252D01*
X17055Y1088D01*
X17054Y911D01*
X17122Y748D01*
X17247Y622D01*
X17411Y555D01*
X17588Y554D01*
X17751Y622D01*
X17877Y747D01*
X17944Y911D01*
X17945Y1088D01*
X17945Y380D01*
X16980Y380D01*
X16980Y936D01*
X16967Y1124D01*
X16945Y1179D01*
X16945Y2338D01*
X16877Y2501D01*
X16752Y2627D01*
X16588Y2694D01*
X16411Y2695D01*
X16248Y2627D01*
X16122Y2502D01*
X16055Y2338D01*
X16054Y2161D01*
X16122Y1998D01*
X16247Y1872D01*
X16411Y1805D01*
X16588Y1804D01*
X16751Y1872D01*
X16877Y1997D01*
X16944Y2161D01*
X16945Y2338D01*
X16945Y1179D01*
X16919Y1242D01*
X16840Y1269D01*
X16769Y1198D01*
X16769Y1340D01*
X16742Y1419D01*
X16563Y1480D01*
X16375Y1467D01*
X16257Y1419D01*
X16230Y1340D01*
X16500Y1070D01*
X16769Y1340D01*
X16769Y1198D01*
X16570Y1000D01*
X16840Y730D01*
X16919Y757D01*
X16980Y936D01*
X16980Y380D01*
X16769Y380D01*
X16769Y659D01*
X16500Y929D01*
X16429Y858D01*
X16429Y1000D01*
X16159Y1269D01*
X16080Y1242D01*
X16019Y1063D01*
X16032Y875D01*
X16080Y757D01*
X16159Y730D01*
X16429Y1000D01*
X16429Y858D01*
X16230Y659D01*
X16257Y580D01*
X16436Y519D01*
X16624Y532D01*
X16742Y580D01*
X16769Y659D01*
X16769Y380D01*
X15945Y380D01*
X15945Y2338D01*
X15877Y2501D01*
X15752Y2627D01*
X15588Y2694D01*
X15411Y2695D01*
X15248Y2627D01*
X15122Y2502D01*
X15055Y2338D01*
X15054Y2161D01*
X15122Y1998D01*
X15247Y1872D01*
X15411Y1805D01*
X15588Y1804D01*
X15751Y1872D01*
X15877Y1997D01*
X15944Y2161D01*
X15945Y2338D01*
X15945Y380D01*
X14945Y380D01*
X14945Y2338D01*
X14877Y2501D01*
X14752Y2627D01*
X14588Y2694D01*
X14411Y2695D01*
X14248Y2627D01*
X14122Y2502D01*
X14055Y2338D01*
X14054Y2161D01*
X14122Y1998D01*
X14247Y1872D01*
X14411Y1805D01*
X14588Y1804D01*
X14751Y1872D01*
X14877Y1997D01*
X14944Y2161D01*
X14945Y2338D01*
X14945Y380D01*
X13182Y380D01*
X12021Y1317D01*
X12021Y1418D01*
X11961Y1563D01*
X11850Y1675D01*
X11705Y1735D01*
X11548Y1735D01*
X11402Y1675D01*
X11291Y1564D01*
X11231Y1419D01*
X11231Y1262D01*
X11291Y1116D01*
X11402Y1005D01*
X11547Y945D01*
X11704Y945D01*
X11734Y957D01*
X12698Y179D01*
X10445Y179D01*
X10445Y2338D01*
X10445Y3338D01*
X10445Y4338D01*
X10445Y5338D01*
X10445Y6338D01*
X10445Y7338D01*
X10445Y8338D01*
X10377Y8501D01*
X10252Y8627D01*
X10088Y8694D01*
X9911Y8695D01*
X9748Y8627D01*
X9622Y8502D01*
X9555Y8338D01*
X9554Y8161D01*
X9622Y7998D01*
X9747Y7872D01*
X9911Y7805D01*
X10088Y7804D01*
X10251Y7872D01*
X10377Y7997D01*
X10444Y8161D01*
X10445Y8338D01*
X10445Y7338D01*
X10377Y7501D01*
X10252Y7627D01*
X10088Y7694D01*
X9911Y7695D01*
X9748Y7627D01*
X9622Y7502D01*
X9555Y7338D01*
X9554Y7161D01*
X9622Y6998D01*
X9747Y6872D01*
X9911Y6805D01*
X10088Y6804D01*
X10251Y6872D01*
X10377Y6997D01*
X10444Y7161D01*
X10445Y7338D01*
X10445Y6338D01*
X10377Y6501D01*
X10252Y6627D01*
X10088Y6694D01*
X9911Y6695D01*
X9748Y6627D01*
X9622Y6502D01*
X9555Y6338D01*
X9554Y6161D01*
X9622Y5998D01*
X9747Y5872D01*
X9911Y5805D01*
X10088Y5804D01*
X10251Y5872D01*
X10377Y5997D01*
X10444Y6161D01*
X10445Y6338D01*
X10445Y5338D01*
X10377Y5501D01*
X10252Y5627D01*
X10088Y5694D01*
X9911Y5695D01*
X9748Y5627D01*
X9622Y5502D01*
X9555Y5338D01*
X9554Y5161D01*
X9622Y4998D01*
X9747Y4872D01*
X9911Y4805D01*
X10088Y4804D01*
X10251Y4872D01*
X10377Y4997D01*
X10444Y5161D01*
X10445Y5338D01*
X10445Y4338D01*
X10377Y4501D01*
X10252Y4627D01*
X10088Y4694D01*
X9911Y4695D01*
X9748Y4627D01*
X9622Y4502D01*
X9555Y4338D01*
X9554Y4161D01*
X9622Y3998D01*
X9747Y3872D01*
X9911Y3805D01*
X10088Y3804D01*
X10251Y3872D01*
X10377Y3997D01*
X10444Y4161D01*
X10445Y4338D01*
X10445Y3338D01*
X10377Y3501D01*
X10252Y3627D01*
X10088Y3694D01*
X9911Y3695D01*
X9748Y3627D01*
X9622Y3502D01*
X9555Y3338D01*
X9554Y3161D01*
X9622Y2998D01*
X9747Y2872D01*
X9911Y2805D01*
X10088Y2804D01*
X10251Y2872D01*
X10377Y2997D01*
X10444Y3161D01*
X10445Y3338D01*
X10445Y2338D01*
X10377Y2501D01*
X10252Y2627D01*
X10088Y2694D01*
X9911Y2695D01*
X9748Y2627D01*
X9622Y2502D01*
X9555Y2338D01*
X9554Y2161D01*
X9622Y1998D01*
X9747Y1872D01*
X9911Y1805D01*
X10088Y1804D01*
X10251Y1872D01*
X10377Y1997D01*
X10444Y2161D01*
X10445Y2338D01*
X10445Y179D01*
X9445Y179D01*
X9445Y2338D01*
X9445Y3338D01*
X9445Y4338D01*
X9445Y5338D01*
X9445Y6338D01*
X9445Y7338D01*
X9445Y8338D01*
X9445Y9338D01*
X9445Y10338D01*
X9445Y10338D01*
X9445Y11008D01*
X9445Y11558D01*
X9419Y11621D01*
X9371Y11669D01*
X9308Y11694D01*
X9241Y11695D01*
X8980Y11695D01*
X8980Y14186D01*
X8967Y14374D01*
X8919Y14492D01*
X8840Y14519D01*
X8769Y14448D01*
X8769Y14590D01*
X8742Y14669D01*
X8563Y14730D01*
X8375Y14717D01*
X8257Y14669D01*
X8230Y14590D01*
X8500Y14320D01*
X8769Y14590D01*
X8769Y14448D01*
X8570Y14250D01*
X8840Y13980D01*
X8919Y14007D01*
X8980Y14186D01*
X8980Y11695D01*
X8769Y11695D01*
X8769Y13909D01*
X8500Y14179D01*
X8429Y14108D01*
X8429Y14250D01*
X8159Y14519D01*
X8080Y14492D01*
X8019Y14313D01*
X8032Y14125D01*
X8080Y14007D01*
X8159Y13980D01*
X8429Y14250D01*
X8429Y14108D01*
X8230Y13909D01*
X8257Y13830D01*
X8436Y13769D01*
X8624Y13782D01*
X8742Y13830D01*
X8769Y13909D01*
X8769Y11695D01*
X8691Y11695D01*
X8628Y11669D01*
X8580Y11621D01*
X8555Y11558D01*
X8554Y11491D01*
X8554Y10941D01*
X8580Y10878D01*
X8628Y10830D01*
X8691Y10805D01*
X8758Y10804D01*
X9308Y10804D01*
X9371Y10830D01*
X9419Y10878D01*
X9444Y10941D01*
X9445Y11008D01*
X9445Y10338D01*
X9377Y10501D01*
X9252Y10627D01*
X9088Y10694D01*
X8911Y10695D01*
X8748Y10627D01*
X8622Y10502D01*
X8555Y10338D01*
X8554Y10161D01*
X8622Y9998D01*
X8747Y9872D01*
X8911Y9805D01*
X9088Y9804D01*
X9251Y9872D01*
X9377Y9997D01*
X9444Y10161D01*
X9445Y10338D01*
X9445Y9338D01*
X9377Y9501D01*
X9252Y9627D01*
X9088Y9694D01*
X8911Y9695D01*
X8748Y9627D01*
X8622Y9502D01*
X8555Y9338D01*
X8554Y9161D01*
X8622Y8998D01*
X8747Y8872D01*
X8911Y8805D01*
X9088Y8804D01*
X9251Y8872D01*
X9377Y8997D01*
X9444Y9161D01*
X9445Y9338D01*
X9445Y8338D01*
X9377Y8501D01*
X9252Y8627D01*
X9088Y8694D01*
X8911Y8695D01*
X8748Y8627D01*
X8622Y8502D01*
X8555Y8338D01*
X8554Y8161D01*
X8622Y7998D01*
X8747Y7872D01*
X8911Y7805D01*
X9088Y7804D01*
X9251Y7872D01*
X9377Y7997D01*
X9444Y8161D01*
X9445Y8338D01*
X9445Y7338D01*
X9377Y7501D01*
X9252Y7627D01*
X9088Y7694D01*
X8911Y7695D01*
X8748Y7627D01*
X8622Y7502D01*
X8555Y7338D01*
X8554Y7161D01*
X8622Y6998D01*
X8747Y6872D01*
X8911Y6805D01*
X9088Y6804D01*
X9251Y6872D01*
X9377Y6997D01*
X9444Y7161D01*
X9445Y7338D01*
X9445Y6338D01*
X9377Y6501D01*
X9252Y6627D01*
X9088Y6694D01*
X8911Y6695D01*
X8748Y6627D01*
X8622Y6502D01*
X8555Y6338D01*
X8554Y6161D01*
X8622Y5998D01*
X8747Y5872D01*
X8911Y5805D01*
X9088Y5804D01*
X9251Y5872D01*
X9377Y5997D01*
X9444Y6161D01*
X9445Y6338D01*
X9445Y5338D01*
X9377Y5501D01*
X9252Y5627D01*
X9088Y5694D01*
X8911Y5695D01*
X8748Y5627D01*
X8622Y5502D01*
X8555Y5338D01*
X8554Y5161D01*
X8622Y4998D01*
X8747Y4872D01*
X8911Y4805D01*
X9088Y4804D01*
X9251Y4872D01*
X9377Y4997D01*
X9444Y5161D01*
X9445Y5338D01*
X9445Y4338D01*
X9377Y4501D01*
X9252Y4627D01*
X9088Y4694D01*
X8911Y4695D01*
X8748Y4627D01*
X8622Y4502D01*
X8555Y4338D01*
X8554Y4161D01*
X8622Y3998D01*
X8747Y3872D01*
X8911Y3805D01*
X9088Y3804D01*
X9251Y3872D01*
X9377Y3997D01*
X9444Y4161D01*
X9445Y4338D01*
X9445Y3338D01*
X9377Y3501D01*
X9252Y3627D01*
X9088Y3694D01*
X8911Y3695D01*
X8748Y3627D01*
X8622Y3502D01*
X8555Y3338D01*
X8554Y3161D01*
X8622Y2998D01*
X8747Y2872D01*
X8911Y2805D01*
X9088Y2804D01*
X9251Y2872D01*
X9377Y2997D01*
X9444Y3161D01*
X9445Y3338D01*
X9445Y2338D01*
X9377Y2501D01*
X9252Y2627D01*
X9088Y2694D01*
X8911Y2695D01*
X8748Y2627D01*
X8622Y2502D01*
X8555Y2338D01*
X8554Y2161D01*
X8622Y1998D01*
X8747Y1872D01*
X8911Y1805D01*
X9088Y1804D01*
X9251Y1872D01*
X9377Y1997D01*
X9444Y2161D01*
X9445Y2338D01*
X9445Y179D01*
X8445Y179D01*
X8445Y3838D01*
X8377Y4001D01*
X8252Y4127D01*
X8088Y4194D01*
X7945Y4195D01*
X7945Y14338D01*
X7877Y14501D01*
X7752Y14627D01*
X7588Y14694D01*
X7411Y14695D01*
X7248Y14627D01*
X7122Y14502D01*
X7055Y14338D01*
X7054Y14161D01*
X7122Y13998D01*
X7247Y13872D01*
X7411Y13805D01*
X7588Y13804D01*
X7751Y13872D01*
X7877Y13997D01*
X7944Y14161D01*
X7945Y14338D01*
X7945Y4195D01*
X7911Y4195D01*
X7748Y4127D01*
X7695Y4074D01*
X7695Y4838D01*
X7695Y7838D01*
X7627Y8001D01*
X7502Y8127D01*
X7338Y8194D01*
X7270Y8194D01*
X7270Y8933D01*
X7270Y9633D01*
X7270Y10933D01*
X7270Y11633D01*
X7244Y11696D01*
X7196Y11744D01*
X7133Y11769D01*
X7066Y11770D01*
X7020Y11770D01*
X7020Y11820D01*
X7019Y11820D01*
X7020Y11820D01*
X7015Y11840D01*
X6999Y11923D01*
X6999Y11923D01*
X6940Y12011D01*
X6940Y12011D01*
X6270Y12681D01*
X6270Y13279D01*
X6333Y13279D01*
X6396Y13305D01*
X6444Y13353D01*
X6469Y13416D01*
X6470Y13483D01*
X6470Y14083D01*
X6444Y14146D01*
X6396Y14194D01*
X6333Y14219D01*
X6266Y14220D01*
X5666Y14220D01*
X5603Y14194D01*
X5555Y14146D01*
X5530Y14083D01*
X5529Y14016D01*
X5529Y13416D01*
X5555Y13353D01*
X5603Y13305D01*
X5666Y13280D01*
X5730Y13279D01*
X5730Y12570D01*
X5750Y12466D01*
X5809Y12379D01*
X6418Y11770D01*
X6366Y11770D01*
X6303Y11744D01*
X6255Y11696D01*
X6230Y11633D01*
X6229Y11566D01*
X6229Y10866D01*
X6255Y10803D01*
X6303Y10755D01*
X6366Y10730D01*
X6433Y10729D01*
X7133Y10729D01*
X7196Y10755D01*
X7244Y10803D01*
X7269Y10866D01*
X7270Y10933D01*
X7270Y9633D01*
X7244Y9696D01*
X7196Y9744D01*
X7133Y9769D01*
X7066Y9770D01*
X6366Y9770D01*
X6303Y9744D01*
X6255Y9696D01*
X6230Y9633D01*
X6229Y9566D01*
X6229Y9450D01*
X6191Y9544D01*
X6044Y9690D01*
X5853Y9769D01*
X5647Y9770D01*
X5622Y9759D01*
X5504Y9876D01*
X5504Y13680D01*
X5493Y13878D01*
X5439Y14007D01*
X5358Y14037D01*
X5287Y13967D01*
X5287Y14108D01*
X5257Y14189D01*
X5069Y14254D01*
X4871Y14243D01*
X4742Y14189D01*
X4712Y14108D01*
X5000Y13820D01*
X5287Y14108D01*
X5287Y13967D01*
X5070Y13750D01*
X5358Y13462D01*
X5439Y13492D01*
X5504Y13680D01*
X5504Y9876D01*
X5287Y10093D01*
X5287Y13391D01*
X5000Y13679D01*
X4929Y13608D01*
X4929Y13750D01*
X4641Y14037D01*
X4560Y14007D01*
X4495Y13819D01*
X4506Y13621D01*
X4560Y13492D01*
X4641Y13462D01*
X4929Y13750D01*
X4929Y13608D01*
X4712Y13391D01*
X4742Y13310D01*
X4930Y13245D01*
X5128Y13256D01*
X5257Y13310D01*
X5287Y13391D01*
X5287Y10093D01*
X4651Y10730D01*
X4852Y10729D01*
X5044Y10808D01*
X5190Y10955D01*
X5269Y11146D01*
X5270Y11352D01*
X5191Y11544D01*
X5044Y11690D01*
X4853Y11769D01*
X4647Y11770D01*
X4455Y11691D01*
X4309Y11544D01*
X4230Y11353D01*
X4229Y11151D01*
X3686Y11695D01*
X3598Y11754D01*
X3495Y11774D01*
X3445Y11774D01*
X3445Y12308D01*
X3419Y12371D01*
X3371Y12419D01*
X3308Y12444D01*
X3295Y12444D01*
X3295Y13607D01*
X3212Y13808D01*
X3059Y13961D01*
X2858Y14044D01*
X2642Y14045D01*
X2441Y13962D01*
X2288Y13809D01*
X2205Y13608D01*
X2204Y13392D01*
X2287Y13191D01*
X2440Y13038D01*
X2641Y12955D01*
X2857Y12954D01*
X3058Y13037D01*
X3211Y13190D01*
X3294Y13391D01*
X3295Y13607D01*
X3295Y12444D01*
X3241Y12445D01*
X2691Y12445D01*
X2628Y12419D01*
X2580Y12371D01*
X2555Y12308D01*
X2554Y12241D01*
X2554Y11691D01*
X2580Y11628D01*
X2628Y11580D01*
X2691Y11555D01*
X2730Y11554D01*
X2730Y11504D01*
X2750Y11401D01*
X2809Y11313D01*
X2896Y11255D01*
X3000Y11234D01*
X3383Y11234D01*
X4848Y9769D01*
X4647Y9770D01*
X4455Y9691D01*
X4309Y9544D01*
X4230Y9353D01*
X4229Y9147D01*
X4308Y8955D01*
X4455Y8809D01*
X4646Y8730D01*
X4852Y8729D01*
X5044Y8808D01*
X5190Y8955D01*
X5250Y9098D01*
X5308Y8955D01*
X5455Y8809D01*
X5646Y8730D01*
X5852Y8729D01*
X6044Y8808D01*
X6190Y8955D01*
X6229Y9049D01*
X6229Y8866D01*
X6255Y8803D01*
X6303Y8755D01*
X6366Y8730D01*
X6433Y8729D01*
X7133Y8729D01*
X7196Y8755D01*
X7244Y8803D01*
X7269Y8866D01*
X7270Y8933D01*
X7270Y8194D01*
X7161Y8195D01*
X6998Y8127D01*
X6872Y8002D01*
X6805Y7838D01*
X6804Y7661D01*
X6872Y7498D01*
X6997Y7372D01*
X7161Y7305D01*
X7338Y7304D01*
X7501Y7372D01*
X7627Y7497D01*
X7694Y7661D01*
X7695Y7838D01*
X7695Y4838D01*
X7627Y5001D01*
X7502Y5127D01*
X7338Y5194D01*
X7161Y5195D01*
X6998Y5127D01*
X6872Y5002D01*
X6805Y4838D01*
X6804Y4661D01*
X6872Y4498D01*
X6997Y4372D01*
X7161Y4305D01*
X7338Y4304D01*
X7501Y4372D01*
X7627Y4497D01*
X7694Y4661D01*
X7695Y4838D01*
X7695Y4074D01*
X7622Y4002D01*
X7555Y3838D01*
X7554Y3661D01*
X7622Y3498D01*
X7747Y3372D01*
X7911Y3305D01*
X8088Y3304D01*
X8251Y3372D01*
X8377Y3497D01*
X8444Y3661D01*
X8445Y3838D01*
X8445Y179D01*
X7980Y179D01*
X7980Y1436D01*
X7967Y1624D01*
X7945Y1679D01*
X7945Y2588D01*
X7877Y2751D01*
X7752Y2877D01*
X7588Y2944D01*
X7411Y2945D01*
X7248Y2877D01*
X7122Y2752D01*
X7055Y2588D01*
X7054Y2411D01*
X7122Y2248D01*
X7247Y2122D01*
X7411Y2055D01*
X7588Y2054D01*
X7751Y2122D01*
X7877Y2247D01*
X7944Y2411D01*
X7945Y2588D01*
X7945Y1679D01*
X7919Y1742D01*
X7840Y1769D01*
X7769Y1698D01*
X7769Y1840D01*
X7742Y1919D01*
X7563Y1980D01*
X7375Y1967D01*
X7257Y1919D01*
X7230Y1840D01*
X7500Y1570D01*
X7769Y1840D01*
X7769Y1698D01*
X7570Y1500D01*
X7840Y1230D01*
X7919Y1257D01*
X7980Y1436D01*
X7980Y179D01*
X7769Y179D01*
X7769Y1159D01*
X7500Y1429D01*
X7429Y1358D01*
X7429Y1500D01*
X7159Y1769D01*
X7080Y1742D01*
X7019Y1563D01*
X7032Y1375D01*
X7080Y1257D01*
X7159Y1230D01*
X7429Y1500D01*
X7429Y1358D01*
X7230Y1159D01*
X7257Y1080D01*
X7436Y1019D01*
X7624Y1032D01*
X7742Y1080D01*
X7769Y1159D01*
X7769Y179D01*
X6475Y179D01*
X6475Y1014D01*
X6475Y1485D01*
X6474Y1564D01*
X6445Y1636D01*
X6445Y4838D01*
X6445Y7838D01*
X6377Y8001D01*
X6252Y8127D01*
X6088Y8194D01*
X5911Y8195D01*
X5748Y8127D01*
X5622Y8002D01*
X5555Y7838D01*
X5554Y7661D01*
X5622Y7498D01*
X5747Y7372D01*
X5911Y7305D01*
X6088Y7304D01*
X6251Y7372D01*
X6377Y7497D01*
X6444Y7661D01*
X6445Y7838D01*
X6445Y4838D01*
X6377Y5001D01*
X6252Y5127D01*
X6088Y5194D01*
X5911Y5195D01*
X5748Y5127D01*
X5622Y5002D01*
X5555Y4838D01*
X5554Y4661D01*
X5622Y4498D01*
X5747Y4372D01*
X5911Y4305D01*
X6088Y4304D01*
X6251Y4372D01*
X6377Y4497D01*
X6444Y4661D01*
X6445Y4838D01*
X6445Y1636D01*
X6444Y1638D01*
X6388Y1694D01*
X6314Y1725D01*
X6100Y1725D01*
X6050Y1675D01*
X6050Y1300D01*
X6425Y1300D01*
X6475Y1350D01*
X6475Y1485D01*
X6475Y1014D01*
X6475Y1150D01*
X6425Y1200D01*
X6050Y1200D01*
X6050Y825D01*
X6100Y775D01*
X6314Y774D01*
X6388Y805D01*
X6444Y861D01*
X6474Y935D01*
X6475Y1014D01*
X6475Y179D01*
X5950Y179D01*
X5950Y825D01*
X5950Y1200D01*
X5950Y1300D01*
X5950Y1675D01*
X5900Y1725D01*
X5685Y1725D01*
X5611Y1694D01*
X5555Y1638D01*
X5525Y1564D01*
X5524Y1485D01*
X5525Y1350D01*
X5575Y1300D01*
X5950Y1300D01*
X5950Y1200D01*
X5575Y1200D01*
X5525Y1150D01*
X5524Y1014D01*
X5525Y935D01*
X5555Y861D01*
X5611Y805D01*
X5685Y774D01*
X5900Y775D01*
X5950Y825D01*
X5950Y179D01*
X5480Y179D01*
X5480Y2436D01*
X5467Y2624D01*
X5445Y2679D01*
X5445Y3838D01*
X5445Y4838D01*
X5445Y7838D01*
X5377Y8001D01*
X5252Y8127D01*
X5088Y8194D01*
X4911Y8195D01*
X4748Y8127D01*
X4622Y8002D01*
X4555Y7838D01*
X4554Y7661D01*
X4622Y7498D01*
X4747Y7372D01*
X4911Y7305D01*
X5088Y7304D01*
X5251Y7372D01*
X5377Y7497D01*
X5444Y7661D01*
X5445Y7838D01*
X5445Y4838D01*
X5377Y5001D01*
X5252Y5127D01*
X5088Y5194D01*
X4911Y5195D01*
X4748Y5127D01*
X4622Y5002D01*
X4555Y4838D01*
X4554Y4661D01*
X4622Y4498D01*
X4747Y4372D01*
X4911Y4305D01*
X5088Y4304D01*
X5251Y4372D01*
X5377Y4497D01*
X5444Y4661D01*
X5445Y4838D01*
X5445Y3838D01*
X5377Y4001D01*
X5252Y4127D01*
X5088Y4194D01*
X4911Y4195D01*
X4748Y4127D01*
X4622Y4002D01*
X4555Y3838D01*
X4554Y3661D01*
X4622Y3498D01*
X4747Y3372D01*
X4911Y3305D01*
X5088Y3304D01*
X5251Y3372D01*
X5377Y3497D01*
X5444Y3661D01*
X5445Y3838D01*
X5445Y2679D01*
X5419Y2742D01*
X5340Y2769D01*
X5269Y2698D01*
X5269Y2840D01*
X5242Y2919D01*
X5063Y2980D01*
X4875Y2967D01*
X4757Y2919D01*
X4730Y2840D01*
X5000Y2570D01*
X5269Y2840D01*
X5269Y2698D01*
X5070Y2500D01*
X5340Y2230D01*
X5419Y2257D01*
X5480Y2436D01*
X5480Y179D01*
X5269Y179D01*
X5269Y2159D01*
X5000Y2429D01*
X4929Y2358D01*
X4929Y2500D01*
X4659Y2769D01*
X4580Y2742D01*
X4519Y2563D01*
X4532Y2375D01*
X4580Y2257D01*
X4659Y2230D01*
X4929Y2500D01*
X4929Y2358D01*
X4730Y2159D01*
X4757Y2080D01*
X4936Y2019D01*
X5124Y2032D01*
X5242Y2080D01*
X5269Y2159D01*
X5269Y179D01*
X4445Y179D01*
X4445Y2588D01*
X4445Y3838D01*
X4445Y4838D01*
X4445Y7838D01*
X4377Y8001D01*
X4252Y8127D01*
X4088Y8194D01*
X3911Y8195D01*
X3748Y8127D01*
X3622Y8002D01*
X3575Y7887D01*
X3575Y9113D01*
X3487Y9325D01*
X3326Y9487D01*
X3114Y9574D01*
X2886Y9575D01*
X2674Y9487D01*
X2512Y9326D01*
X2425Y9114D01*
X2424Y8886D01*
X2512Y8674D01*
X2673Y8512D01*
X2885Y8425D01*
X3113Y8424D01*
X3325Y8512D01*
X3487Y8673D01*
X3574Y8885D01*
X3575Y9113D01*
X3575Y7887D01*
X3555Y7838D01*
X3554Y7661D01*
X3622Y7498D01*
X3747Y7372D01*
X3911Y7305D01*
X4088Y7304D01*
X4251Y7372D01*
X4377Y7497D01*
X4444Y7661D01*
X4445Y7838D01*
X4445Y4838D01*
X4377Y5001D01*
X4252Y5127D01*
X4088Y5194D01*
X3911Y5195D01*
X3748Y5127D01*
X3622Y5002D01*
X3555Y4838D01*
X3554Y4661D01*
X3622Y4498D01*
X3747Y4372D01*
X3911Y4305D01*
X4088Y4304D01*
X4251Y4372D01*
X4377Y4497D01*
X4444Y4661D01*
X4445Y4838D01*
X4445Y3838D01*
X4377Y4001D01*
X4252Y4127D01*
X4088Y4194D01*
X3911Y4195D01*
X3748Y4127D01*
X3622Y4002D01*
X3555Y3838D01*
X3554Y3661D01*
X3622Y3498D01*
X3747Y3372D01*
X3911Y3305D01*
X4088Y3304D01*
X4251Y3372D01*
X4377Y3497D01*
X4444Y3661D01*
X4445Y3838D01*
X4445Y2588D01*
X4377Y2751D01*
X4252Y2877D01*
X4088Y2944D01*
X3911Y2945D01*
X3748Y2877D01*
X3622Y2752D01*
X3555Y2588D01*
X3554Y2411D01*
X3622Y2248D01*
X3747Y2122D01*
X3911Y2055D01*
X4088Y2054D01*
X4251Y2122D01*
X4377Y2247D01*
X4444Y2411D01*
X4445Y2588D01*
X4445Y179D01*
X3480Y179D01*
X3480Y7686D01*
X3467Y7874D01*
X3419Y7992D01*
X3340Y8019D01*
X3269Y7948D01*
X3269Y8090D01*
X3242Y8169D01*
X3063Y8230D01*
X2875Y8217D01*
X2757Y8169D01*
X2730Y8090D01*
X3000Y7820D01*
X3269Y8090D01*
X3269Y7948D01*
X3070Y7750D01*
X3340Y7480D01*
X3419Y7507D01*
X3480Y7686D01*
X3480Y179D01*
X3445Y179D01*
X3445Y1338D01*
X3445Y1338D01*
X3445Y4508D01*
X3445Y5058D01*
X3419Y5121D01*
X3371Y5169D01*
X3308Y5194D01*
X3269Y5195D01*
X3269Y7409D01*
X3000Y7679D01*
X2929Y7608D01*
X2929Y7750D01*
X2659Y8019D01*
X2580Y7992D01*
X2519Y7813D01*
X2532Y7625D01*
X2580Y7507D01*
X2659Y7480D01*
X2929Y7750D01*
X2929Y7608D01*
X2730Y7409D01*
X2757Y7330D01*
X2936Y7269D01*
X3124Y7282D01*
X3242Y7330D01*
X3269Y7409D01*
X3269Y5195D01*
X3241Y5195D01*
X2691Y5195D01*
X2648Y5177D01*
X2230Y5595D01*
X2230Y6686D01*
X2217Y6874D01*
X2169Y6992D01*
X2090Y7019D01*
X2019Y6948D01*
X2019Y7090D01*
X1992Y7169D01*
X1850Y7217D01*
X1850Y9618D01*
X1758Y9839D01*
X1596Y10002D01*
X1663Y10030D01*
X1719Y10086D01*
X1750Y10160D01*
X1750Y10839D01*
X1719Y10913D01*
X1663Y10969D01*
X1589Y10999D01*
X1510Y11000D01*
X1350Y11000D01*
X1325Y10975D01*
X1325Y13164D01*
X1325Y13835D01*
X1324Y13914D01*
X1294Y13988D01*
X1238Y14044D01*
X1164Y14075D01*
X850Y14075D01*
X800Y14025D01*
X800Y13550D01*
X1275Y13550D01*
X1325Y13600D01*
X1325Y13835D01*
X1325Y13164D01*
X1325Y13400D01*
X1275Y13450D01*
X800Y13450D01*
X800Y12975D01*
X850Y12925D01*
X1164Y12924D01*
X1238Y12955D01*
X1294Y13011D01*
X1324Y13085D01*
X1325Y13164D01*
X1325Y10975D01*
X1300Y10950D01*
X1300Y10550D01*
X1700Y10550D01*
X1750Y10600D01*
X1750Y10839D01*
X1750Y10160D01*
X1750Y10400D01*
X1700Y10450D01*
X1350Y10450D01*
X1300Y10450D01*
X1200Y10450D01*
X1200Y10550D01*
X1200Y10950D01*
X1150Y11000D01*
X989Y11000D01*
X910Y10999D01*
X836Y10969D01*
X780Y10913D01*
X749Y10839D01*
X750Y10600D01*
X800Y10550D01*
X1200Y10550D01*
X1200Y10450D01*
X1150Y10450D01*
X800Y10450D01*
X750Y10400D01*
X749Y10160D01*
X780Y10086D01*
X836Y10030D01*
X904Y10002D01*
X741Y9840D01*
X650Y9619D01*
X649Y9381D01*
X741Y9160D01*
X909Y8991D01*
X1130Y8900D01*
X1368Y8899D01*
X1589Y8991D01*
X1758Y9159D01*
X1849Y9380D01*
X1850Y9618D01*
X1850Y7217D01*
X1813Y7230D01*
X1625Y7217D01*
X1507Y7169D01*
X1480Y7090D01*
X1750Y6820D01*
X2019Y7090D01*
X2019Y6948D01*
X1820Y6750D01*
X2090Y6480D01*
X2169Y6507D01*
X2230Y6686D01*
X2230Y5595D01*
X2185Y5639D01*
X2194Y5661D01*
X2195Y5838D01*
X2127Y6001D01*
X2019Y6109D01*
X2019Y6409D01*
X1750Y6679D01*
X1679Y6608D01*
X1679Y6750D01*
X1409Y7019D01*
X1330Y6992D01*
X1269Y6813D01*
X1282Y6625D01*
X1330Y6507D01*
X1409Y6480D01*
X1679Y6750D01*
X1679Y6608D01*
X1480Y6409D01*
X1507Y6330D01*
X1686Y6269D01*
X1874Y6282D01*
X1992Y6330D01*
X2019Y6409D01*
X2019Y6109D01*
X2002Y6127D01*
X1838Y6194D01*
X1661Y6195D01*
X1498Y6127D01*
X1372Y6002D01*
X1305Y5838D01*
X1304Y5661D01*
X1372Y5498D01*
X1497Y5372D01*
X1661Y5305D01*
X1838Y5304D01*
X1860Y5314D01*
X2314Y4859D01*
X2314Y4750D01*
X2332Y4661D01*
X2382Y4587D01*
X2456Y4537D01*
X2544Y4520D01*
X2554Y4520D01*
X2554Y4441D01*
X2580Y4378D01*
X2628Y4330D01*
X2691Y4305D01*
X2758Y4304D01*
X3308Y4304D01*
X3371Y4330D01*
X3419Y4378D01*
X3444Y4441D01*
X3445Y4508D01*
X3445Y1338D01*
X3377Y1501D01*
X3252Y1627D01*
X3088Y1694D01*
X2911Y1695D01*
X2748Y1627D01*
X2622Y1502D01*
X2555Y1338D01*
X2554Y1161D01*
X2622Y998D01*
X2747Y872D01*
X2911Y805D01*
X3088Y804D01*
X3251Y872D01*
X3377Y997D01*
X3444Y1161D01*
X3445Y1338D01*
X3445Y179D01*
X1723Y179D01*
X1911Y257D01*
X2241Y586D01*
X2419Y1016D01*
X2420Y1481D01*
X2242Y1911D01*
X1913Y2241D01*
X1575Y2381D01*
X1575Y3863D01*
X1487Y4075D01*
X1326Y4237D01*
X1195Y4291D01*
X1195Y5088D01*
X1127Y5251D01*
X1002Y5377D01*
X838Y5444D01*
X661Y5445D01*
X498Y5377D01*
X372Y5252D01*
X305Y5088D01*
X304Y4911D01*
X372Y4748D01*
X497Y4622D01*
X661Y4555D01*
X838Y4554D01*
X1001Y4622D01*
X1127Y4747D01*
X1194Y4911D01*
X1195Y5088D01*
X1195Y4291D01*
X1114Y4324D01*
X886Y4325D01*
X674Y4237D01*
X512Y4076D01*
X425Y3864D01*
X424Y3636D01*
X512Y3424D01*
X673Y3262D01*
X885Y3175D01*
X1113Y3174D01*
X1325Y3262D01*
X1487Y3423D01*
X1574Y3635D01*
X1575Y3863D01*
X1575Y2381D01*
X1483Y2419D01*
X1018Y2420D01*
X588Y2242D01*
X258Y1913D01*
X179Y1722D01*
X179Y7874D01*
X262Y7674D01*
X423Y7512D01*
X635Y7425D01*
X863Y7424D01*
X1075Y7512D01*
X1237Y7673D01*
X1324Y7885D01*
X1325Y8113D01*
X1237Y8325D01*
X1076Y8487D01*
X864Y8574D01*
X636Y8575D01*
X424Y8487D01*
X262Y8326D01*
X179Y8125D01*
X179Y13074D01*
X205Y13011D01*
X261Y12955D01*
X335Y12924D01*
X650Y12925D01*
X700Y12975D01*
X700Y13400D01*
X700Y13450D01*
X700Y13550D01*
X700Y13600D01*
X700Y14025D01*
X650Y14075D01*
X335Y14075D01*
X261Y14044D01*
X205Y13988D01*
X179Y13925D01*
X179Y14820D01*
X32320Y14820D01*
X32320Y1723D01*
M02*
