G04 (created by PCBNEW (2012-nov-02)-testing) date Mon 07 Jan 2013 06:01:45 PM PST*
%MOIN*%
G04 Gerber Fmt 3.4, Leading zero omitted, Abs format*
%FSLAX34Y34*%
G01*
G70*
G90*
G04 APERTURE LIST*
%ADD10C,0.005*%
%ADD11C,0.0059*%
%ADD12C,0.00787402*%
%ADD13C,0.011811*%
G04 APERTURE END LIST*
G54D10*
G54D11*
X32500Y0D02*
X0Y0D01*
X0Y0D02*
X0Y15000D01*
X32500Y15000D02*
X32500Y0D01*
X0Y15000D02*
X32500Y15000D01*
G54D12*
X11501Y1465D02*
X11751Y1215D01*
X11751Y1465D02*
X11501Y1215D01*
X11558Y9169D02*
X11808Y8919D01*
X11808Y9169D02*
X11558Y8919D01*
X15893Y9170D02*
X16143Y8920D01*
X16143Y9170D02*
X15893Y8920D01*
X17875Y7036D02*
X18125Y6786D01*
X18125Y7036D02*
X17875Y6786D01*
X19174Y14362D02*
X19424Y14112D01*
X19424Y14362D02*
X19174Y14112D01*
X19312Y8299D02*
X19562Y8049D01*
X19562Y8299D02*
X19312Y8049D01*
X20026Y8221D02*
X20276Y7971D01*
X20276Y8221D02*
X20026Y7971D01*
X20925Y8411D02*
X21175Y8161D01*
X21175Y8411D02*
X20925Y8161D01*
X22203Y9670D02*
X22453Y9420D01*
X22453Y9670D02*
X22203Y9420D01*
X22462Y8574D02*
X22712Y8324D01*
X22712Y8574D02*
X22462Y8324D01*
X23379Y5321D02*
X23629Y5071D01*
X23629Y5321D02*
X23379Y5071D01*
X28599Y6532D02*
X28849Y6282D01*
X28849Y6532D02*
X28599Y6282D01*
X28875Y2875D02*
X29125Y2625D01*
X29125Y2875D02*
X28875Y2625D01*
X29855Y9734D02*
X30105Y9484D01*
X30105Y9734D02*
X29855Y9484D01*
X810Y8000D02*
G75*
G03X810Y8000I-160J0D01*
G74*
G01*
X810Y5000D02*
G75*
G03X810Y5000I-160J0D01*
G74*
G01*
X910Y13500D02*
G75*
G03X910Y13500I-160J0D01*
G74*
G01*
X1160Y3750D02*
G75*
G03X1160Y3750I-160J0D01*
G74*
G01*
X1410Y10500D02*
G75*
G03X1410Y10500I-160J0D01*
G74*
G01*
X1410Y9500D02*
G75*
G03X1410Y9500I-160J0D01*
G74*
G01*
X1910Y6750D02*
G75*
G03X1910Y6750I-160J0D01*
G74*
G01*
X1910Y5750D02*
G75*
G03X1910Y5750I-160J0D01*
G74*
G01*
X2910Y13500D02*
G75*
G03X2910Y13500I-160J0D01*
G74*
G01*
X3160Y12000D02*
G75*
G03X3160Y12000I-160J0D01*
G74*
G01*
X3160Y9000D02*
G75*
G03X3160Y9000I-160J0D01*
G74*
G01*
X3160Y7750D02*
G75*
G03X3160Y7750I-160J0D01*
G74*
G01*
X3160Y4750D02*
G75*
G03X3160Y4750I-160J0D01*
G74*
G01*
X3160Y1250D02*
G75*
G03X3160Y1250I-160J0D01*
G74*
G01*
X4160Y7750D02*
G75*
G03X4160Y7750I-160J0D01*
G74*
G01*
X4160Y4750D02*
G75*
G03X4160Y4750I-160J0D01*
G74*
G01*
X4160Y3750D02*
G75*
G03X4160Y3750I-160J0D01*
G74*
G01*
X4160Y2500D02*
G75*
G03X4160Y2500I-160J0D01*
G74*
G01*
X5160Y13750D02*
G75*
G03X5160Y13750I-160J0D01*
G74*
G01*
X5160Y7750D02*
G75*
G03X5160Y7750I-160J0D01*
G74*
G01*
X5160Y4750D02*
G75*
G03X5160Y4750I-160J0D01*
G74*
G01*
X5160Y3750D02*
G75*
G03X5160Y3750I-160J0D01*
G74*
G01*
X5160Y2500D02*
G75*
G03X5160Y2500I-160J0D01*
G74*
G01*
X6160Y13750D02*
G75*
G03X6160Y13750I-160J0D01*
G74*
G01*
X6160Y7750D02*
G75*
G03X6160Y7750I-160J0D01*
G74*
G01*
X6160Y4750D02*
G75*
G03X6160Y4750I-160J0D01*
G74*
G01*
X6160Y1250D02*
G75*
G03X6160Y1250I-160J0D01*
G74*
G01*
X7410Y7750D02*
G75*
G03X7410Y7750I-160J0D01*
G74*
G01*
X7410Y4750D02*
G75*
G03X7410Y4750I-160J0D01*
G74*
G01*
X7660Y14250D02*
G75*
G03X7660Y14250I-160J0D01*
G74*
G01*
X7660Y2500D02*
G75*
G03X7660Y2500I-160J0D01*
G74*
G01*
X7660Y1500D02*
G75*
G03X7660Y1500I-160J0D01*
G74*
G01*
X8160Y3750D02*
G75*
G03X8160Y3750I-160J0D01*
G74*
G01*
X8660Y14250D02*
G75*
G03X8660Y14250I-160J0D01*
G74*
G01*
X9160Y11250D02*
G75*
G03X9160Y11250I-160J0D01*
G74*
G01*
X9160Y10250D02*
G75*
G03X9160Y10250I-160J0D01*
G74*
G01*
X9160Y9250D02*
G75*
G03X9160Y9250I-160J0D01*
G74*
G01*
X9160Y8250D02*
G75*
G03X9160Y8250I-160J0D01*
G74*
G01*
X9160Y7250D02*
G75*
G03X9160Y7250I-160J0D01*
G74*
G01*
X9160Y6250D02*
G75*
G03X9160Y6250I-160J0D01*
G74*
G01*
X9160Y5250D02*
G75*
G03X9160Y5250I-160J0D01*
G74*
G01*
X9160Y4250D02*
G75*
G03X9160Y4250I-160J0D01*
G74*
G01*
X9160Y3250D02*
G75*
G03X9160Y3250I-160J0D01*
G74*
G01*
X9160Y2250D02*
G75*
G03X9160Y2250I-160J0D01*
G74*
G01*
X10160Y11250D02*
G75*
G03X10160Y11250I-160J0D01*
G74*
G01*
X10160Y10250D02*
G75*
G03X10160Y10250I-160J0D01*
G74*
G01*
X10160Y9250D02*
G75*
G03X10160Y9250I-160J0D01*
G74*
G01*
X10160Y8250D02*
G75*
G03X10160Y8250I-160J0D01*
G74*
G01*
X10160Y7250D02*
G75*
G03X10160Y7250I-160J0D01*
G74*
G01*
X10160Y6250D02*
G75*
G03X10160Y6250I-160J0D01*
G74*
G01*
X10160Y5250D02*
G75*
G03X10160Y5250I-160J0D01*
G74*
G01*
X10160Y4250D02*
G75*
G03X10160Y4250I-160J0D01*
G74*
G01*
X10160Y3250D02*
G75*
G03X10160Y3250I-160J0D01*
G74*
G01*
X10160Y2250D02*
G75*
G03X10160Y2250I-160J0D01*
G74*
G01*
X11260Y13800D02*
G75*
G03X11260Y13800I-160J0D01*
G74*
G01*
X11260Y10800D02*
G75*
G03X11260Y10800I-160J0D01*
G74*
G01*
X12660Y13500D02*
G75*
G03X12660Y13500I-160J0D01*
G74*
G01*
X12660Y10500D02*
G75*
G03X12660Y10500I-160J0D01*
G74*
G01*
X12660Y9500D02*
G75*
G03X12660Y9500I-160J0D01*
G74*
G01*
X12660Y6500D02*
G75*
G03X12660Y6500I-160J0D01*
G74*
G01*
X12660Y5250D02*
G75*
G03X12660Y5250I-160J0D01*
G74*
G01*
X12660Y2250D02*
G75*
G03X12660Y2250I-160J0D01*
G74*
G01*
X13660Y13500D02*
G75*
G03X13660Y13500I-160J0D01*
G74*
G01*
X13660Y10500D02*
G75*
G03X13660Y10500I-160J0D01*
G74*
G01*
X13660Y9500D02*
G75*
G03X13660Y9500I-160J0D01*
G74*
G01*
X13660Y6500D02*
G75*
G03X13660Y6500I-160J0D01*
G74*
G01*
X13660Y5250D02*
G75*
G03X13660Y5250I-160J0D01*
G74*
G01*
X13660Y2250D02*
G75*
G03X13660Y2250I-160J0D01*
G74*
G01*
X14660Y13500D02*
G75*
G03X14660Y13500I-160J0D01*
G74*
G01*
X14660Y10500D02*
G75*
G03X14660Y10500I-160J0D01*
G74*
G01*
X14660Y9500D02*
G75*
G03X14660Y9500I-160J0D01*
G74*
G01*
X14660Y6500D02*
G75*
G03X14660Y6500I-160J0D01*
G74*
G01*
X14660Y5250D02*
G75*
G03X14660Y5250I-160J0D01*
G74*
G01*
X14660Y2250D02*
G75*
G03X14660Y2250I-160J0D01*
G74*
G01*
X15660Y9500D02*
G75*
G03X15660Y9500I-160J0D01*
G74*
G01*
X15660Y6500D02*
G75*
G03X15660Y6500I-160J0D01*
G74*
G01*
X15660Y5250D02*
G75*
G03X15660Y5250I-160J0D01*
G74*
G01*
X15660Y2250D02*
G75*
G03X15660Y2250I-160J0D01*
G74*
G01*
X16660Y9500D02*
G75*
G03X16660Y9500I-160J0D01*
G74*
G01*
X16660Y6500D02*
G75*
G03X16660Y6500I-160J0D01*
G74*
G01*
X16660Y5250D02*
G75*
G03X16660Y5250I-160J0D01*
G74*
G01*
X16660Y2250D02*
G75*
G03X16660Y2250I-160J0D01*
G74*
G01*
X16660Y1000D02*
G75*
G03X16660Y1000I-160J0D01*
G74*
G01*
X17660Y9500D02*
G75*
G03X17660Y9500I-160J0D01*
G74*
G01*
X17660Y6500D02*
G75*
G03X17660Y6500I-160J0D01*
G74*
G01*
X17660Y5250D02*
G75*
G03X17660Y5250I-160J0D01*
G74*
G01*
X17660Y2250D02*
G75*
G03X17660Y2250I-160J0D01*
G74*
G01*
X17660Y1000D02*
G75*
G03X17660Y1000I-160J0D01*
G74*
G01*
X18660Y9500D02*
G75*
G03X18660Y9500I-160J0D01*
G74*
G01*
X18660Y6500D02*
G75*
G03X18660Y6500I-160J0D01*
G74*
G01*
X18660Y5250D02*
G75*
G03X18660Y5250I-160J0D01*
G74*
G01*
X18660Y2250D02*
G75*
G03X18660Y2250I-160J0D01*
G74*
G01*
X18660Y1000D02*
G75*
G03X18660Y1000I-160J0D01*
G74*
G01*
X19660Y9500D02*
G75*
G03X19660Y9500I-160J0D01*
G74*
G01*
X19660Y6500D02*
G75*
G03X19660Y6500I-160J0D01*
G74*
G01*
X19660Y5250D02*
G75*
G03X19660Y5250I-160J0D01*
G74*
G01*
X19660Y2250D02*
G75*
G03X19660Y2250I-160J0D01*
G74*
G01*
X19660Y1000D02*
G75*
G03X19660Y1000I-160J0D01*
G74*
G01*
X20160Y10500D02*
G75*
G03X20160Y10500I-160J0D01*
G74*
G01*
X20660Y9500D02*
G75*
G03X20660Y9500I-160J0D01*
G74*
G01*
X20660Y6500D02*
G75*
G03X20660Y6500I-160J0D01*
G74*
G01*
X20660Y5250D02*
G75*
G03X20660Y5250I-160J0D01*
G74*
G01*
X20660Y2250D02*
G75*
G03X20660Y2250I-160J0D01*
G74*
G01*
X21160Y1500D02*
G75*
G03X21160Y1500I-160J0D01*
G74*
G01*
X21660Y9500D02*
G75*
G03X21660Y9500I-160J0D01*
G74*
G01*
X21660Y6500D02*
G75*
G03X21660Y6500I-160J0D01*
G74*
G01*
X21660Y5250D02*
G75*
G03X21660Y5250I-160J0D01*
G74*
G01*
X21660Y2250D02*
G75*
G03X21660Y2250I-160J0D01*
G74*
G01*
X23160Y10500D02*
G75*
G03X23160Y10500I-160J0D01*
G74*
G01*
X23410Y8500D02*
G75*
G03X23410Y8500I-160J0D01*
G74*
G01*
X23410Y7500D02*
G75*
G03X23410Y7500I-160J0D01*
G74*
G01*
X23410Y4250D02*
G75*
G03X23410Y4250I-160J0D01*
G74*
G01*
X23410Y3250D02*
G75*
G03X23410Y3250I-160J0D01*
G74*
G01*
X24160Y1500D02*
G75*
G03X24160Y1500I-160J0D01*
G74*
G01*
X26160Y11250D02*
G75*
G03X26160Y11250I-160J0D01*
G74*
G01*
X26160Y10250D02*
G75*
G03X26160Y10250I-160J0D01*
G74*
G01*
X26160Y9250D02*
G75*
G03X26160Y9250I-160J0D01*
G74*
G01*
X26160Y8250D02*
G75*
G03X26160Y8250I-160J0D01*
G74*
G01*
X26160Y7250D02*
G75*
G03X26160Y7250I-160J0D01*
G74*
G01*
X26160Y6250D02*
G75*
G03X26160Y6250I-160J0D01*
G74*
G01*
X26160Y5250D02*
G75*
G03X26160Y5250I-160J0D01*
G74*
G01*
X26160Y4250D02*
G75*
G03X26160Y4250I-160J0D01*
G74*
G01*
X26160Y3250D02*
G75*
G03X26160Y3250I-160J0D01*
G74*
G01*
X26160Y2250D02*
G75*
G03X26160Y2250I-160J0D01*
G74*
G01*
X26910Y13500D02*
G75*
G03X26910Y13500I-160J0D01*
G74*
G01*
X27160Y11250D02*
G75*
G03X27160Y11250I-160J0D01*
G74*
G01*
X27160Y10250D02*
G75*
G03X27160Y10250I-160J0D01*
G74*
G01*
X27160Y9250D02*
G75*
G03X27160Y9250I-160J0D01*
G74*
G01*
X27160Y8250D02*
G75*
G03X27160Y8250I-160J0D01*
G74*
G01*
X27160Y7250D02*
G75*
G03X27160Y7250I-160J0D01*
G74*
G01*
X27160Y6250D02*
G75*
G03X27160Y6250I-160J0D01*
G74*
G01*
X27160Y5250D02*
G75*
G03X27160Y5250I-160J0D01*
G74*
G01*
X27160Y4250D02*
G75*
G03X27160Y4250I-160J0D01*
G74*
G01*
X27160Y3250D02*
G75*
G03X27160Y3250I-160J0D01*
G74*
G01*
X27160Y2250D02*
G75*
G03X27160Y2250I-160J0D01*
G74*
G01*
X27910Y13500D02*
G75*
G03X27910Y13500I-160J0D01*
G74*
G01*
X28910Y13500D02*
G75*
G03X28910Y13500I-160J0D01*
G74*
G01*
X17000Y13430D02*
X17000Y13070D01*
X16820Y13250D02*
X17180Y13250D01*
X17000Y12430D02*
X17000Y12070D01*
X16820Y12250D02*
X17180Y12250D01*
X18000Y13430D02*
X18000Y13070D01*
X17820Y13250D02*
X18180Y13250D01*
X18000Y12430D02*
X18000Y12070D01*
X17820Y12250D02*
X18180Y12250D01*
X19000Y13430D02*
X19000Y13070D01*
X18820Y13250D02*
X19180Y13250D01*
X19000Y12430D02*
X19000Y12070D01*
X18820Y12250D02*
X19180Y12250D01*
X20000Y13430D02*
X20000Y13070D01*
X19820Y13250D02*
X20180Y13250D01*
X20000Y12430D02*
X20000Y12070D01*
X19820Y12250D02*
X20180Y12250D01*
X21000Y13430D02*
X21000Y13070D01*
X20820Y13250D02*
X21180Y13250D01*
X21000Y12430D02*
X21000Y12070D01*
X20820Y12250D02*
X21180Y12250D01*
X22000Y13430D02*
X22000Y13070D01*
X21820Y13250D02*
X22180Y13250D01*
X22000Y12430D02*
X22000Y12070D01*
X21820Y12250D02*
X22180Y12250D01*
X23000Y13430D02*
X23000Y13070D01*
X22820Y13250D02*
X23180Y13250D01*
X23000Y12430D02*
X23000Y12070D01*
X22820Y12250D02*
X23180Y12250D01*
X4891Y11108D02*
X4891Y11391D01*
X4608Y11391D01*
X4608Y11108D01*
X4891Y11108D01*
X4891Y9108D02*
X4891Y9391D01*
X4608Y9391D01*
X4608Y9108D01*
X4891Y9108D01*
X5891Y9108D02*
X5891Y9391D01*
X5608Y9391D01*
X5608Y9108D01*
X5891Y9108D01*
X6891Y11108D02*
X6891Y11391D01*
X6608Y11391D01*
X6608Y11108D01*
X6891Y11108D01*
X6891Y9108D02*
X6891Y9391D01*
X6608Y9391D01*
X6608Y9108D01*
X6891Y9108D01*
X28641Y11358D02*
X28641Y11641D01*
X28358Y11641D01*
X28358Y11358D01*
X28641Y11358D01*
X28641Y10358D02*
X28641Y10641D01*
X28358Y10641D01*
X28358Y10358D01*
X28641Y10358D01*
X28641Y8108D02*
X28641Y8391D01*
X28358Y8391D01*
X28358Y8108D01*
X28641Y8108D01*
X28641Y7108D02*
X28641Y7391D01*
X28358Y7391D01*
X28358Y7108D01*
X28641Y7108D01*
X28641Y4858D02*
X28641Y5141D01*
X28358Y5141D01*
X28358Y4858D01*
X28641Y4858D01*
X28641Y3858D02*
X28641Y4141D01*
X28358Y4141D01*
X28358Y3858D01*
X28641Y3858D01*
X29641Y11358D02*
X29641Y11641D01*
X29358Y11641D01*
X29358Y11358D01*
X29641Y11358D01*
X29641Y10358D02*
X29641Y10641D01*
X29358Y10641D01*
X29358Y10358D01*
X29641Y10358D01*
X29641Y8108D02*
X29641Y8391D01*
X29358Y8391D01*
X29358Y8108D01*
X29641Y8108D01*
X29641Y7108D02*
X29641Y7391D01*
X29358Y7391D01*
X29358Y7108D01*
X29641Y7108D01*
X29641Y4858D02*
X29641Y5141D01*
X29358Y5141D01*
X29358Y4858D01*
X29641Y4858D01*
X29641Y3858D02*
X29641Y4141D01*
X29358Y4141D01*
X29358Y3858D01*
X29641Y3858D01*
X30641Y11358D02*
X30641Y11641D01*
X30358Y11641D01*
X30358Y11358D01*
X30641Y11358D01*
X30641Y10358D02*
X30641Y10641D01*
X30358Y10641D01*
X30358Y10358D01*
X30641Y10358D01*
X30641Y8108D02*
X30641Y8391D01*
X30358Y8391D01*
X30358Y8108D01*
X30641Y8108D01*
X30641Y7108D02*
X30641Y7391D01*
X30358Y7391D01*
X30358Y7108D01*
X30641Y7108D01*
X30641Y4858D02*
X30641Y5141D01*
X30358Y5141D01*
X30358Y4858D01*
X30641Y4858D01*
X30641Y3858D02*
X30641Y4141D01*
X30358Y4141D01*
X30358Y3858D01*
X30641Y3858D01*
X31641Y11358D02*
X31641Y11641D01*
X31358Y11641D01*
X31358Y11358D01*
X31641Y11358D01*
X31641Y10358D02*
X31641Y10641D01*
X31358Y10641D01*
X31358Y10358D01*
X31641Y10358D01*
X31641Y8108D02*
X31641Y8391D01*
X31358Y8391D01*
X31358Y8108D01*
X31641Y8108D01*
X31641Y7108D02*
X31641Y7391D01*
X31358Y7391D01*
X31358Y7108D01*
X31641Y7108D01*
X31641Y4858D02*
X31641Y5141D01*
X31358Y5141D01*
X31358Y4858D01*
X31641Y4858D01*
X31641Y3858D02*
X31641Y4141D01*
X31358Y4141D01*
X31358Y3858D01*
X31641Y3858D01*
X1250Y700D02*
X1800Y1250D01*
X1250Y1800D01*
X700Y1250D01*
X1250Y700D01*
X31250Y700D02*
X31800Y1250D01*
X31250Y1800D01*
X30700Y1250D01*
X31250Y700D01*
G54D13*
X1039Y-1806D02*
X1039Y-625D01*
X1320Y-625D01*
X1489Y-681D01*
X1601Y-794D01*
X1657Y-906D01*
X1714Y-1131D01*
X1714Y-1300D01*
X1657Y-1525D01*
X1601Y-1638D01*
X1489Y-1750D01*
X1320Y-1806D01*
X1039Y-1806D01*
X2220Y-1806D02*
X2220Y-1019D01*
X2220Y-1244D02*
X2276Y-1131D01*
X2332Y-1075D01*
X2445Y-1019D01*
X2557Y-1019D01*
X2951Y-1806D02*
X2951Y-1019D01*
X2951Y-625D02*
X2895Y-681D01*
X2951Y-738D01*
X3007Y-681D01*
X2951Y-625D01*
X2951Y-738D01*
X3682Y-1806D02*
X3570Y-1750D01*
X3513Y-1638D01*
X3513Y-625D01*
X4301Y-1806D02*
X4188Y-1750D01*
X4132Y-1638D01*
X4132Y-625D01*
X5651Y-1806D02*
X5651Y-625D01*
X6044Y-1469D01*
X6438Y-625D01*
X6438Y-1806D01*
X7507Y-1806D02*
X7507Y-1188D01*
X7450Y-1075D01*
X7338Y-1019D01*
X7113Y-1019D01*
X7000Y-1075D01*
X7507Y-1750D02*
X7394Y-1806D01*
X7113Y-1806D01*
X7000Y-1750D01*
X6944Y-1638D01*
X6944Y-1525D01*
X7000Y-1413D01*
X7113Y-1356D01*
X7394Y-1356D01*
X7507Y-1300D01*
X8069Y-1019D02*
X8069Y-2200D01*
X8069Y-1075D02*
X8181Y-1019D01*
X8406Y-1019D01*
X8519Y-1075D01*
X8575Y-1131D01*
X8631Y-1244D01*
X8631Y-1581D01*
X8575Y-1694D01*
X8519Y-1750D01*
X8406Y-1806D01*
X8181Y-1806D01*
X8069Y-1750D01*
X9138Y-1694D02*
X9194Y-1750D01*
X9138Y-1806D01*
X9081Y-1750D01*
X9138Y-1694D01*
X9138Y-1806D01*
X9138Y-1075D02*
X9194Y-1131D01*
X9138Y-1188D01*
X9081Y-1131D01*
X9138Y-1075D01*
X9138Y-1188D01*
X-279Y-3684D02*
X-29Y-3934D01*
X-29Y-3684D02*
X-279Y-3934D01*
X1264Y-3105D02*
X1376Y-3105D01*
X1489Y-3162D01*
X1545Y-3218D01*
X1601Y-3330D01*
X1657Y-3555D01*
X1657Y-3837D01*
X1601Y-4062D01*
X1545Y-4174D01*
X1489Y-4230D01*
X1376Y-4287D01*
X1264Y-4287D01*
X1151Y-4230D01*
X1095Y-4174D01*
X1039Y-4062D01*
X982Y-3837D01*
X982Y-3555D01*
X1039Y-3330D01*
X1095Y-3218D01*
X1151Y-3162D01*
X1264Y-3105D01*
X2163Y-4174D02*
X2220Y-4230D01*
X2163Y-4287D01*
X2107Y-4230D01*
X2163Y-4174D01*
X2163Y-4287D01*
X3232Y-3105D02*
X3007Y-3105D01*
X2895Y-3162D01*
X2838Y-3218D01*
X2726Y-3387D01*
X2670Y-3612D01*
X2670Y-4062D01*
X2726Y-4174D01*
X2782Y-4230D01*
X2895Y-4287D01*
X3120Y-4287D01*
X3232Y-4230D01*
X3288Y-4174D01*
X3345Y-4062D01*
X3345Y-3780D01*
X3288Y-3668D01*
X3232Y-3612D01*
X3120Y-3555D01*
X2895Y-3555D01*
X2782Y-3612D01*
X2726Y-3668D01*
X2670Y-3780D01*
X4357Y-3499D02*
X4357Y-4287D01*
X4076Y-3049D02*
X3795Y-3893D01*
X4526Y-3893D01*
X4976Y-4287D02*
X4976Y-3499D01*
X4976Y-3612D02*
X5032Y-3555D01*
X5144Y-3499D01*
X5313Y-3499D01*
X5426Y-3555D01*
X5482Y-3668D01*
X5482Y-4287D01*
X5482Y-3668D02*
X5538Y-3555D01*
X5651Y-3499D01*
X5819Y-3499D01*
X5932Y-3555D01*
X5988Y-3668D01*
X5988Y-4287D01*
X6550Y-4287D02*
X6550Y-3499D01*
X6550Y-3612D02*
X6607Y-3555D01*
X6719Y-3499D01*
X6888Y-3499D01*
X7000Y-3555D01*
X7057Y-3668D01*
X7057Y-4287D01*
X7057Y-3668D02*
X7113Y-3555D01*
X7225Y-3499D01*
X7394Y-3499D01*
X7507Y-3555D01*
X7563Y-3668D01*
X7563Y-4287D01*
X9869Y-3049D02*
X8856Y-4568D01*
X11387Y-3105D02*
X11500Y-3105D01*
X11612Y-3162D01*
X11669Y-3218D01*
X11725Y-3330D01*
X11781Y-3555D01*
X11781Y-3837D01*
X11725Y-4062D01*
X11669Y-4174D01*
X11612Y-4230D01*
X11500Y-4287D01*
X11387Y-4287D01*
X11275Y-4230D01*
X11219Y-4174D01*
X11162Y-4062D01*
X11106Y-3837D01*
X11106Y-3555D01*
X11162Y-3330D01*
X11219Y-3218D01*
X11275Y-3162D01*
X11387Y-3105D01*
X12287Y-4174D02*
X12343Y-4230D01*
X12287Y-4287D01*
X12231Y-4230D01*
X12287Y-4174D01*
X12287Y-4287D01*
X13075Y-3105D02*
X13187Y-3105D01*
X13300Y-3162D01*
X13356Y-3218D01*
X13412Y-3330D01*
X13468Y-3555D01*
X13468Y-3837D01*
X13412Y-4062D01*
X13356Y-4174D01*
X13300Y-4230D01*
X13187Y-4287D01*
X13075Y-4287D01*
X12962Y-4230D01*
X12906Y-4174D01*
X12850Y-4062D01*
X12793Y-3837D01*
X12793Y-3555D01*
X12850Y-3330D01*
X12906Y-3218D01*
X12962Y-3162D01*
X13075Y-3105D01*
X13918Y-3218D02*
X13974Y-3162D01*
X14087Y-3105D01*
X14368Y-3105D01*
X14481Y-3162D01*
X14537Y-3218D01*
X14593Y-3330D01*
X14593Y-3443D01*
X14537Y-3612D01*
X13862Y-4287D01*
X14593Y-4287D01*
X15662Y-3105D02*
X15099Y-3105D01*
X15043Y-3668D01*
X15099Y-3612D01*
X15212Y-3555D01*
X15493Y-3555D01*
X15606Y-3612D01*
X15662Y-3668D01*
X15718Y-3780D01*
X15718Y-4062D01*
X15662Y-4174D01*
X15606Y-4230D01*
X15493Y-4287D01*
X15212Y-4287D01*
X15099Y-4230D01*
X15043Y-4174D01*
X16168Y-3105D02*
X16168Y-3330D01*
X16618Y-3105D02*
X16618Y-3330D01*
X18361Y-4737D02*
X18305Y-4680D01*
X18193Y-4512D01*
X18136Y-4399D01*
X18080Y-4230D01*
X18024Y-3949D01*
X18024Y-3724D01*
X18080Y-3443D01*
X18136Y-3274D01*
X18193Y-3162D01*
X18305Y-2993D01*
X18361Y-2937D01*
X19430Y-4287D02*
X18755Y-4287D01*
X19093Y-4287D02*
X19093Y-3105D01*
X18980Y-3274D01*
X18868Y-3387D01*
X18755Y-3443D01*
X20442Y-3499D02*
X20442Y-4287D01*
X20161Y-3049D02*
X19880Y-3893D01*
X20611Y-3893D01*
X21961Y-4287D02*
X21961Y-3105D01*
X22467Y-4287D02*
X22467Y-3668D01*
X22411Y-3555D01*
X22298Y-3499D01*
X22130Y-3499D01*
X22017Y-3555D01*
X21961Y-3612D01*
X23198Y-4287D02*
X23086Y-4230D01*
X23030Y-4174D01*
X22973Y-4062D01*
X22973Y-3724D01*
X23030Y-3612D01*
X23086Y-3555D01*
X23198Y-3499D01*
X23367Y-3499D01*
X23480Y-3555D01*
X23536Y-3612D01*
X23592Y-3724D01*
X23592Y-4062D01*
X23536Y-4174D01*
X23480Y-4230D01*
X23367Y-4287D01*
X23198Y-4287D01*
X24267Y-4287D02*
X24154Y-4230D01*
X24098Y-4118D01*
X24098Y-3105D01*
X25167Y-4230D02*
X25054Y-4287D01*
X24829Y-4287D01*
X24717Y-4230D01*
X24661Y-4118D01*
X24661Y-3668D01*
X24717Y-3555D01*
X24829Y-3499D01*
X25054Y-3499D01*
X25167Y-3555D01*
X25223Y-3668D01*
X25223Y-3780D01*
X24661Y-3893D01*
X25673Y-4230D02*
X25786Y-4287D01*
X26010Y-4287D01*
X26123Y-4230D01*
X26179Y-4118D01*
X26179Y-4062D01*
X26123Y-3949D01*
X26010Y-3893D01*
X25842Y-3893D01*
X25729Y-3837D01*
X25673Y-3724D01*
X25673Y-3668D01*
X25729Y-3555D01*
X25842Y-3499D01*
X26010Y-3499D01*
X26123Y-3555D01*
X26573Y-4737D02*
X26629Y-4680D01*
X26742Y-4512D01*
X26798Y-4399D01*
X26854Y-4230D01*
X26910Y-3949D01*
X26910Y-3724D01*
X26854Y-3443D01*
X26798Y-3274D01*
X26742Y-3162D01*
X26629Y-2993D01*
X26573Y-2937D01*
G54D12*
X-29Y-5368D02*
G75*
G03X-29Y-5368I-160J0D01*
G74*
G01*
G54D13*
X1264Y-4665D02*
X1376Y-4665D01*
X1489Y-4721D01*
X1545Y-4777D01*
X1601Y-4890D01*
X1657Y-5114D01*
X1657Y-5396D01*
X1601Y-5621D01*
X1545Y-5733D01*
X1489Y-5789D01*
X1376Y-5846D01*
X1264Y-5846D01*
X1151Y-5789D01*
X1095Y-5733D01*
X1039Y-5621D01*
X982Y-5396D01*
X982Y-5114D01*
X1039Y-4890D01*
X1095Y-4777D01*
X1151Y-4721D01*
X1264Y-4665D01*
X2163Y-5733D02*
X2220Y-5789D01*
X2163Y-5846D01*
X2107Y-5789D01*
X2163Y-5733D01*
X2163Y-5846D01*
X2895Y-5171D02*
X2782Y-5114D01*
X2726Y-5058D01*
X2670Y-4946D01*
X2670Y-4890D01*
X2726Y-4777D01*
X2782Y-4721D01*
X2895Y-4665D01*
X3120Y-4665D01*
X3232Y-4721D01*
X3288Y-4777D01*
X3345Y-4890D01*
X3345Y-4946D01*
X3288Y-5058D01*
X3232Y-5114D01*
X3120Y-5171D01*
X2895Y-5171D01*
X2782Y-5227D01*
X2726Y-5283D01*
X2670Y-5396D01*
X2670Y-5621D01*
X2726Y-5733D01*
X2782Y-5789D01*
X2895Y-5846D01*
X3120Y-5846D01*
X3232Y-5789D01*
X3288Y-5733D01*
X3345Y-5621D01*
X3345Y-5396D01*
X3288Y-5283D01*
X3232Y-5227D01*
X3120Y-5171D01*
X4469Y-5846D02*
X3795Y-5846D01*
X4132Y-5846D02*
X4132Y-4665D01*
X4019Y-4833D01*
X3907Y-4946D01*
X3795Y-5002D01*
X4976Y-5846D02*
X4976Y-5058D01*
X4976Y-5171D02*
X5032Y-5114D01*
X5144Y-5058D01*
X5313Y-5058D01*
X5426Y-5114D01*
X5482Y-5227D01*
X5482Y-5846D01*
X5482Y-5227D02*
X5538Y-5114D01*
X5651Y-5058D01*
X5819Y-5058D01*
X5932Y-5114D01*
X5988Y-5227D01*
X5988Y-5846D01*
X6550Y-5846D02*
X6550Y-5058D01*
X6550Y-5171D02*
X6607Y-5114D01*
X6719Y-5058D01*
X6888Y-5058D01*
X7000Y-5114D01*
X7057Y-5227D01*
X7057Y-5846D01*
X7057Y-5227D02*
X7113Y-5114D01*
X7225Y-5058D01*
X7394Y-5058D01*
X7507Y-5114D01*
X7563Y-5227D01*
X7563Y-5846D01*
X9869Y-4608D02*
X8856Y-6127D01*
X11387Y-4665D02*
X11500Y-4665D01*
X11612Y-4721D01*
X11669Y-4777D01*
X11725Y-4890D01*
X11781Y-5114D01*
X11781Y-5396D01*
X11725Y-5621D01*
X11669Y-5733D01*
X11612Y-5789D01*
X11500Y-5846D01*
X11387Y-5846D01*
X11275Y-5789D01*
X11219Y-5733D01*
X11162Y-5621D01*
X11106Y-5396D01*
X11106Y-5114D01*
X11162Y-4890D01*
X11219Y-4777D01*
X11275Y-4721D01*
X11387Y-4665D01*
X12287Y-5733D02*
X12343Y-5789D01*
X12287Y-5846D01*
X12231Y-5789D01*
X12287Y-5733D01*
X12287Y-5846D01*
X13075Y-4665D02*
X13187Y-4665D01*
X13300Y-4721D01*
X13356Y-4777D01*
X13412Y-4890D01*
X13468Y-5114D01*
X13468Y-5396D01*
X13412Y-5621D01*
X13356Y-5733D01*
X13300Y-5789D01*
X13187Y-5846D01*
X13075Y-5846D01*
X12962Y-5789D01*
X12906Y-5733D01*
X12850Y-5621D01*
X12793Y-5396D01*
X12793Y-5114D01*
X12850Y-4890D01*
X12906Y-4777D01*
X12962Y-4721D01*
X13075Y-4665D01*
X13862Y-4665D02*
X14593Y-4665D01*
X14199Y-5114D01*
X14368Y-5114D01*
X14481Y-5171D01*
X14537Y-5227D01*
X14593Y-5339D01*
X14593Y-5621D01*
X14537Y-5733D01*
X14481Y-5789D01*
X14368Y-5846D01*
X14031Y-5846D01*
X13918Y-5789D01*
X13862Y-5733D01*
X15043Y-4777D02*
X15099Y-4721D01*
X15212Y-4665D01*
X15493Y-4665D01*
X15606Y-4721D01*
X15662Y-4777D01*
X15718Y-4890D01*
X15718Y-5002D01*
X15662Y-5171D01*
X14987Y-5846D01*
X15718Y-5846D01*
X16168Y-4665D02*
X16168Y-4890D01*
X16618Y-4665D02*
X16618Y-4890D01*
X18361Y-6296D02*
X18305Y-6239D01*
X18193Y-6071D01*
X18136Y-5958D01*
X18080Y-5789D01*
X18024Y-5508D01*
X18024Y-5283D01*
X18080Y-5002D01*
X18136Y-4833D01*
X18193Y-4721D01*
X18305Y-4552D01*
X18361Y-4496D01*
X19430Y-5846D02*
X18755Y-5846D01*
X19093Y-5846D02*
X19093Y-4665D01*
X18980Y-4833D01*
X18868Y-4946D01*
X18755Y-5002D01*
X19824Y-4665D02*
X20555Y-4665D01*
X20161Y-5114D01*
X20330Y-5114D01*
X20442Y-5171D01*
X20499Y-5227D01*
X20555Y-5339D01*
X20555Y-5621D01*
X20499Y-5733D01*
X20442Y-5789D01*
X20330Y-5846D01*
X19992Y-5846D01*
X19880Y-5789D01*
X19824Y-5733D01*
X20949Y-4665D02*
X21736Y-4665D01*
X21230Y-5846D01*
X23086Y-5846D02*
X23086Y-4665D01*
X23592Y-5846D02*
X23592Y-5227D01*
X23536Y-5114D01*
X23423Y-5058D01*
X23255Y-5058D01*
X23142Y-5114D01*
X23086Y-5171D01*
X24323Y-5846D02*
X24211Y-5789D01*
X24154Y-5733D01*
X24098Y-5621D01*
X24098Y-5283D01*
X24154Y-5171D01*
X24211Y-5114D01*
X24323Y-5058D01*
X24492Y-5058D01*
X24604Y-5114D01*
X24661Y-5171D01*
X24717Y-5283D01*
X24717Y-5621D01*
X24661Y-5733D01*
X24604Y-5789D01*
X24492Y-5846D01*
X24323Y-5846D01*
X25392Y-5846D02*
X25279Y-5789D01*
X25223Y-5677D01*
X25223Y-4665D01*
X26292Y-5789D02*
X26179Y-5846D01*
X25954Y-5846D01*
X25842Y-5789D01*
X25786Y-5677D01*
X25786Y-5227D01*
X25842Y-5114D01*
X25954Y-5058D01*
X26179Y-5058D01*
X26292Y-5114D01*
X26348Y-5227D01*
X26348Y-5339D01*
X25786Y-5452D01*
X26798Y-5789D02*
X26910Y-5846D01*
X27135Y-5846D01*
X27248Y-5789D01*
X27304Y-5677D01*
X27304Y-5621D01*
X27248Y-5508D01*
X27135Y-5452D01*
X26967Y-5452D01*
X26854Y-5396D01*
X26798Y-5283D01*
X26798Y-5227D01*
X26854Y-5114D01*
X26967Y-5058D01*
X27135Y-5058D01*
X27248Y-5114D01*
X27698Y-6296D02*
X27754Y-6239D01*
X27867Y-6071D01*
X27923Y-5958D01*
X27979Y-5789D01*
X28035Y-5508D01*
X28035Y-5283D01*
X27979Y-5002D01*
X27923Y-4833D01*
X27867Y-4721D01*
X27754Y-4552D01*
X27698Y-4496D01*
X-209Y-6747D02*
X-209Y-7107D01*
X-389Y-6927D02*
X-29Y-6927D01*
X1264Y-6224D02*
X1376Y-6224D01*
X1489Y-6280D01*
X1545Y-6336D01*
X1601Y-6449D01*
X1657Y-6674D01*
X1657Y-6955D01*
X1601Y-7180D01*
X1545Y-7292D01*
X1489Y-7348D01*
X1376Y-7405D01*
X1264Y-7405D01*
X1151Y-7348D01*
X1095Y-7292D01*
X1039Y-7180D01*
X982Y-6955D01*
X982Y-6674D01*
X1039Y-6449D01*
X1095Y-6336D01*
X1151Y-6280D01*
X1264Y-6224D01*
X2163Y-7292D02*
X2220Y-7348D01*
X2163Y-7405D01*
X2107Y-7348D01*
X2163Y-7292D01*
X2163Y-7405D01*
X2782Y-7405D02*
X3007Y-7405D01*
X3120Y-7348D01*
X3176Y-7292D01*
X3288Y-7123D01*
X3345Y-6899D01*
X3345Y-6449D01*
X3288Y-6336D01*
X3232Y-6280D01*
X3120Y-6224D01*
X2895Y-6224D01*
X2782Y-6280D01*
X2726Y-6336D01*
X2670Y-6449D01*
X2670Y-6730D01*
X2726Y-6842D01*
X2782Y-6899D01*
X2895Y-6955D01*
X3120Y-6955D01*
X3232Y-6899D01*
X3288Y-6842D01*
X3345Y-6730D01*
X4469Y-7405D02*
X3795Y-7405D01*
X4132Y-7405D02*
X4132Y-6224D01*
X4019Y-6392D01*
X3907Y-6505D01*
X3795Y-6561D01*
X4976Y-7405D02*
X4976Y-6617D01*
X4976Y-6730D02*
X5032Y-6674D01*
X5144Y-6617D01*
X5313Y-6617D01*
X5426Y-6674D01*
X5482Y-6786D01*
X5482Y-7405D01*
X5482Y-6786D02*
X5538Y-6674D01*
X5651Y-6617D01*
X5819Y-6617D01*
X5932Y-6674D01*
X5988Y-6786D01*
X5988Y-7405D01*
X6550Y-7405D02*
X6550Y-6617D01*
X6550Y-6730D02*
X6607Y-6674D01*
X6719Y-6617D01*
X6888Y-6617D01*
X7000Y-6674D01*
X7057Y-6786D01*
X7057Y-7405D01*
X7057Y-6786D02*
X7113Y-6674D01*
X7225Y-6617D01*
X7394Y-6617D01*
X7507Y-6674D01*
X7563Y-6786D01*
X7563Y-7405D01*
X9869Y-6167D02*
X8856Y-7686D01*
X11387Y-6224D02*
X11500Y-6224D01*
X11612Y-6280D01*
X11669Y-6336D01*
X11725Y-6449D01*
X11781Y-6674D01*
X11781Y-6955D01*
X11725Y-7180D01*
X11669Y-7292D01*
X11612Y-7348D01*
X11500Y-7405D01*
X11387Y-7405D01*
X11275Y-7348D01*
X11219Y-7292D01*
X11162Y-7180D01*
X11106Y-6955D01*
X11106Y-6674D01*
X11162Y-6449D01*
X11219Y-6336D01*
X11275Y-6280D01*
X11387Y-6224D01*
X12287Y-7292D02*
X12343Y-7348D01*
X12287Y-7405D01*
X12231Y-7348D01*
X12287Y-7292D01*
X12287Y-7405D01*
X13075Y-6224D02*
X13187Y-6224D01*
X13300Y-6280D01*
X13356Y-6336D01*
X13412Y-6449D01*
X13468Y-6674D01*
X13468Y-6955D01*
X13412Y-7180D01*
X13356Y-7292D01*
X13300Y-7348D01*
X13187Y-7405D01*
X13075Y-7405D01*
X12962Y-7348D01*
X12906Y-7292D01*
X12850Y-7180D01*
X12793Y-6955D01*
X12793Y-6674D01*
X12850Y-6449D01*
X12906Y-6336D01*
X12962Y-6280D01*
X13075Y-6224D01*
X13862Y-6224D02*
X14593Y-6224D01*
X14199Y-6674D01*
X14368Y-6674D01*
X14481Y-6730D01*
X14537Y-6786D01*
X14593Y-6899D01*
X14593Y-7180D01*
X14537Y-7292D01*
X14481Y-7348D01*
X14368Y-7405D01*
X14031Y-7405D01*
X13918Y-7348D01*
X13862Y-7292D01*
X15606Y-6224D02*
X15381Y-6224D01*
X15268Y-6280D01*
X15212Y-6336D01*
X15099Y-6505D01*
X15043Y-6730D01*
X15043Y-7180D01*
X15099Y-7292D01*
X15156Y-7348D01*
X15268Y-7405D01*
X15493Y-7405D01*
X15606Y-7348D01*
X15662Y-7292D01*
X15718Y-7180D01*
X15718Y-6899D01*
X15662Y-6786D01*
X15606Y-6730D01*
X15493Y-6674D01*
X15268Y-6674D01*
X15156Y-6730D01*
X15099Y-6786D01*
X15043Y-6899D01*
X16168Y-6224D02*
X16168Y-6449D01*
X16618Y-6224D02*
X16618Y-6449D01*
X18361Y-7855D02*
X18305Y-7798D01*
X18193Y-7630D01*
X18136Y-7517D01*
X18080Y-7348D01*
X18024Y-7067D01*
X18024Y-6842D01*
X18080Y-6561D01*
X18136Y-6392D01*
X18193Y-6280D01*
X18305Y-6111D01*
X18361Y-6055D01*
X19430Y-7405D02*
X18755Y-7405D01*
X19093Y-7405D02*
X19093Y-6224D01*
X18980Y-6392D01*
X18868Y-6505D01*
X18755Y-6561D01*
X20442Y-6617D02*
X20442Y-7405D01*
X20161Y-6167D02*
X19880Y-7011D01*
X20611Y-7011D01*
X21961Y-7405D02*
X21961Y-6224D01*
X22467Y-7405D02*
X22467Y-6786D01*
X22411Y-6674D01*
X22298Y-6617D01*
X22130Y-6617D01*
X22017Y-6674D01*
X21961Y-6730D01*
X23198Y-7405D02*
X23086Y-7348D01*
X23030Y-7292D01*
X22973Y-7180D01*
X22973Y-6842D01*
X23030Y-6730D01*
X23086Y-6674D01*
X23198Y-6617D01*
X23367Y-6617D01*
X23480Y-6674D01*
X23536Y-6730D01*
X23592Y-6842D01*
X23592Y-7180D01*
X23536Y-7292D01*
X23480Y-7348D01*
X23367Y-7405D01*
X23198Y-7405D01*
X24267Y-7405D02*
X24154Y-7348D01*
X24098Y-7236D01*
X24098Y-6224D01*
X25167Y-7348D02*
X25054Y-7405D01*
X24829Y-7405D01*
X24717Y-7348D01*
X24661Y-7236D01*
X24661Y-6786D01*
X24717Y-6674D01*
X24829Y-6617D01*
X25054Y-6617D01*
X25167Y-6674D01*
X25223Y-6786D01*
X25223Y-6899D01*
X24661Y-7011D01*
X25673Y-7348D02*
X25786Y-7405D01*
X26010Y-7405D01*
X26123Y-7348D01*
X26179Y-7236D01*
X26179Y-7180D01*
X26123Y-7067D01*
X26010Y-7011D01*
X25842Y-7011D01*
X25729Y-6955D01*
X25673Y-6842D01*
X25673Y-6786D01*
X25729Y-6674D01*
X25842Y-6617D01*
X26010Y-6617D01*
X26123Y-6674D01*
X26573Y-7855D02*
X26629Y-7798D01*
X26742Y-7630D01*
X26798Y-7517D01*
X26854Y-7348D01*
X26910Y-7067D01*
X26910Y-6842D01*
X26854Y-6561D01*
X26798Y-6392D01*
X26742Y-6280D01*
X26629Y-6111D01*
X26573Y-6055D01*
G54D12*
X-88Y-8627D02*
X-88Y-8344D01*
X-370Y-8344D01*
X-370Y-8627D01*
X-88Y-8627D01*
G54D13*
X1657Y-8964D02*
X982Y-8964D01*
X1320Y-8964D02*
X1320Y-7783D01*
X1207Y-7951D01*
X1095Y-8064D01*
X982Y-8120D01*
X2163Y-8851D02*
X2220Y-8908D01*
X2163Y-8964D01*
X2107Y-8908D01*
X2163Y-8851D01*
X2163Y-8964D01*
X2951Y-7783D02*
X3063Y-7783D01*
X3176Y-7839D01*
X3232Y-7895D01*
X3288Y-8008D01*
X3345Y-8233D01*
X3345Y-8514D01*
X3288Y-8739D01*
X3232Y-8851D01*
X3176Y-8908D01*
X3063Y-8964D01*
X2951Y-8964D01*
X2838Y-8908D01*
X2782Y-8851D01*
X2726Y-8739D01*
X2670Y-8514D01*
X2670Y-8233D01*
X2726Y-8008D01*
X2782Y-7895D01*
X2838Y-7839D01*
X2951Y-7783D01*
X3795Y-7895D02*
X3851Y-7839D01*
X3963Y-7783D01*
X4244Y-7783D01*
X4357Y-7839D01*
X4413Y-7895D01*
X4469Y-8008D01*
X4469Y-8120D01*
X4413Y-8289D01*
X3738Y-8964D01*
X4469Y-8964D01*
X4976Y-8964D02*
X4976Y-8176D01*
X4976Y-8289D02*
X5032Y-8233D01*
X5144Y-8176D01*
X5313Y-8176D01*
X5426Y-8233D01*
X5482Y-8345D01*
X5482Y-8964D01*
X5482Y-8345D02*
X5538Y-8233D01*
X5651Y-8176D01*
X5819Y-8176D01*
X5932Y-8233D01*
X5988Y-8345D01*
X5988Y-8964D01*
X6550Y-8964D02*
X6550Y-8176D01*
X6550Y-8289D02*
X6607Y-8233D01*
X6719Y-8176D01*
X6888Y-8176D01*
X7000Y-8233D01*
X7057Y-8345D01*
X7057Y-8964D01*
X7057Y-8345D02*
X7113Y-8233D01*
X7225Y-8176D01*
X7394Y-8176D01*
X7507Y-8233D01*
X7563Y-8345D01*
X7563Y-8964D01*
X9869Y-7726D02*
X8856Y-9245D01*
X11387Y-7783D02*
X11500Y-7783D01*
X11612Y-7839D01*
X11669Y-7895D01*
X11725Y-8008D01*
X11781Y-8233D01*
X11781Y-8514D01*
X11725Y-8739D01*
X11669Y-8851D01*
X11612Y-8908D01*
X11500Y-8964D01*
X11387Y-8964D01*
X11275Y-8908D01*
X11219Y-8851D01*
X11162Y-8739D01*
X11106Y-8514D01*
X11106Y-8233D01*
X11162Y-8008D01*
X11219Y-7895D01*
X11275Y-7839D01*
X11387Y-7783D01*
X12287Y-8851D02*
X12343Y-8908D01*
X12287Y-8964D01*
X12231Y-8908D01*
X12287Y-8851D01*
X12287Y-8964D01*
X13075Y-7783D02*
X13187Y-7783D01*
X13300Y-7839D01*
X13356Y-7895D01*
X13412Y-8008D01*
X13468Y-8233D01*
X13468Y-8514D01*
X13412Y-8739D01*
X13356Y-8851D01*
X13300Y-8908D01*
X13187Y-8964D01*
X13075Y-8964D01*
X12962Y-8908D01*
X12906Y-8851D01*
X12850Y-8739D01*
X12793Y-8514D01*
X12793Y-8233D01*
X12850Y-8008D01*
X12906Y-7895D01*
X12962Y-7839D01*
X13075Y-7783D01*
X14481Y-8176D02*
X14481Y-8964D01*
X14199Y-7726D02*
X13918Y-8570D01*
X14649Y-8570D01*
X15324Y-7783D02*
X15437Y-7783D01*
X15549Y-7839D01*
X15606Y-7895D01*
X15662Y-8008D01*
X15718Y-8233D01*
X15718Y-8514D01*
X15662Y-8739D01*
X15606Y-8851D01*
X15549Y-8908D01*
X15437Y-8964D01*
X15324Y-8964D01*
X15212Y-8908D01*
X15156Y-8851D01*
X15099Y-8739D01*
X15043Y-8514D01*
X15043Y-8233D01*
X15099Y-8008D01*
X15156Y-7895D01*
X15212Y-7839D01*
X15324Y-7783D01*
X16168Y-7783D02*
X16168Y-8008D01*
X16618Y-7783D02*
X16618Y-8008D01*
X18361Y-9414D02*
X18305Y-9357D01*
X18193Y-9189D01*
X18136Y-9076D01*
X18080Y-8908D01*
X18024Y-8626D01*
X18024Y-8401D01*
X18080Y-8120D01*
X18136Y-7951D01*
X18193Y-7839D01*
X18305Y-7670D01*
X18361Y-7614D01*
X18755Y-7895D02*
X18811Y-7839D01*
X18924Y-7783D01*
X19205Y-7783D01*
X19318Y-7839D01*
X19374Y-7895D01*
X19430Y-8008D01*
X19430Y-8120D01*
X19374Y-8289D01*
X18699Y-8964D01*
X19430Y-8964D01*
X19992Y-8964D02*
X20217Y-8964D01*
X20330Y-8908D01*
X20386Y-8851D01*
X20499Y-8683D01*
X20555Y-8458D01*
X20555Y-8008D01*
X20499Y-7895D01*
X20442Y-7839D01*
X20330Y-7783D01*
X20105Y-7783D01*
X19992Y-7839D01*
X19936Y-7895D01*
X19880Y-8008D01*
X19880Y-8289D01*
X19936Y-8401D01*
X19992Y-8458D01*
X20105Y-8514D01*
X20330Y-8514D01*
X20442Y-8458D01*
X20499Y-8401D01*
X20555Y-8289D01*
X21961Y-8964D02*
X21961Y-7783D01*
X22467Y-8964D02*
X22467Y-8345D01*
X22411Y-8233D01*
X22298Y-8176D01*
X22130Y-8176D01*
X22017Y-8233D01*
X21961Y-8289D01*
X23198Y-8964D02*
X23086Y-8908D01*
X23030Y-8851D01*
X22973Y-8739D01*
X22973Y-8401D01*
X23030Y-8289D01*
X23086Y-8233D01*
X23198Y-8176D01*
X23367Y-8176D01*
X23480Y-8233D01*
X23536Y-8289D01*
X23592Y-8401D01*
X23592Y-8739D01*
X23536Y-8851D01*
X23480Y-8908D01*
X23367Y-8964D01*
X23198Y-8964D01*
X24267Y-8964D02*
X24154Y-8908D01*
X24098Y-8795D01*
X24098Y-7783D01*
X25167Y-8908D02*
X25054Y-8964D01*
X24829Y-8964D01*
X24717Y-8908D01*
X24661Y-8795D01*
X24661Y-8345D01*
X24717Y-8233D01*
X24829Y-8176D01*
X25054Y-8176D01*
X25167Y-8233D01*
X25223Y-8345D01*
X25223Y-8458D01*
X24661Y-8570D01*
X25673Y-8908D02*
X25786Y-8964D01*
X26010Y-8964D01*
X26123Y-8908D01*
X26179Y-8795D01*
X26179Y-8739D01*
X26123Y-8626D01*
X26010Y-8570D01*
X25842Y-8570D01*
X25729Y-8514D01*
X25673Y-8401D01*
X25673Y-8345D01*
X25729Y-8233D01*
X25842Y-8176D01*
X26010Y-8176D01*
X26123Y-8233D01*
X26573Y-9414D02*
X26629Y-9357D01*
X26742Y-9189D01*
X26798Y-9076D01*
X26854Y-8908D01*
X26910Y-8626D01*
X26910Y-8401D01*
X26854Y-8120D01*
X26798Y-7951D01*
X26742Y-7839D01*
X26629Y-7670D01*
X26573Y-7614D01*
G54D12*
X-579Y-10595D02*
X-29Y-10045D01*
X-579Y-9495D01*
X-1129Y-10045D01*
X-579Y-10595D01*
G54D13*
X982Y-9454D02*
X1039Y-9398D01*
X1151Y-9342D01*
X1432Y-9342D01*
X1545Y-9398D01*
X1601Y-9454D01*
X1657Y-9567D01*
X1657Y-9679D01*
X1601Y-9848D01*
X926Y-10523D01*
X1657Y-10523D01*
X2163Y-10410D02*
X2220Y-10467D01*
X2163Y-10523D01*
X2107Y-10467D01*
X2163Y-10410D01*
X2163Y-10523D01*
X2613Y-9342D02*
X3401Y-9342D01*
X2895Y-10523D01*
X3907Y-10523D02*
X4132Y-10523D01*
X4244Y-10467D01*
X4301Y-10410D01*
X4413Y-10242D01*
X4469Y-10017D01*
X4469Y-9567D01*
X4413Y-9454D01*
X4357Y-9398D01*
X4244Y-9342D01*
X4019Y-9342D01*
X3907Y-9398D01*
X3851Y-9454D01*
X3795Y-9567D01*
X3795Y-9848D01*
X3851Y-9960D01*
X3907Y-10017D01*
X4019Y-10073D01*
X4244Y-10073D01*
X4357Y-10017D01*
X4413Y-9960D01*
X4469Y-9848D01*
X4976Y-10523D02*
X4976Y-9735D01*
X4976Y-9848D02*
X5032Y-9792D01*
X5144Y-9735D01*
X5313Y-9735D01*
X5426Y-9792D01*
X5482Y-9904D01*
X5482Y-10523D01*
X5482Y-9904D02*
X5538Y-9792D01*
X5651Y-9735D01*
X5819Y-9735D01*
X5932Y-9792D01*
X5988Y-9904D01*
X5988Y-10523D01*
X6550Y-10523D02*
X6550Y-9735D01*
X6550Y-9848D02*
X6607Y-9792D01*
X6719Y-9735D01*
X6888Y-9735D01*
X7000Y-9792D01*
X7057Y-9904D01*
X7057Y-10523D01*
X7057Y-9904D02*
X7113Y-9792D01*
X7225Y-9735D01*
X7394Y-9735D01*
X7507Y-9792D01*
X7563Y-9904D01*
X7563Y-10523D01*
X9869Y-9285D02*
X8856Y-10804D01*
X11387Y-9342D02*
X11500Y-9342D01*
X11612Y-9398D01*
X11669Y-9454D01*
X11725Y-9567D01*
X11781Y-9792D01*
X11781Y-10073D01*
X11725Y-10298D01*
X11669Y-10410D01*
X11612Y-10467D01*
X11500Y-10523D01*
X11387Y-10523D01*
X11275Y-10467D01*
X11219Y-10410D01*
X11162Y-10298D01*
X11106Y-10073D01*
X11106Y-9792D01*
X11162Y-9567D01*
X11219Y-9454D01*
X11275Y-9398D01*
X11387Y-9342D01*
X12287Y-10410D02*
X12343Y-10467D01*
X12287Y-10523D01*
X12231Y-10467D01*
X12287Y-10410D01*
X12287Y-10523D01*
X13468Y-10523D02*
X12793Y-10523D01*
X13131Y-10523D02*
X13131Y-9342D01*
X13018Y-9510D01*
X12906Y-9623D01*
X12793Y-9679D01*
X14593Y-10523D02*
X13918Y-10523D01*
X14256Y-10523D02*
X14256Y-9342D01*
X14143Y-9510D01*
X14031Y-9623D01*
X13918Y-9679D01*
X15324Y-9342D02*
X15437Y-9342D01*
X15549Y-9398D01*
X15606Y-9454D01*
X15662Y-9567D01*
X15718Y-9792D01*
X15718Y-10073D01*
X15662Y-10298D01*
X15606Y-10410D01*
X15549Y-10467D01*
X15437Y-10523D01*
X15324Y-10523D01*
X15212Y-10467D01*
X15156Y-10410D01*
X15099Y-10298D01*
X15043Y-10073D01*
X15043Y-9792D01*
X15099Y-9567D01*
X15156Y-9454D01*
X15212Y-9398D01*
X15324Y-9342D01*
X16168Y-9342D02*
X16168Y-9567D01*
X16618Y-9342D02*
X16618Y-9567D01*
X18361Y-10973D02*
X18305Y-10917D01*
X18193Y-10748D01*
X18136Y-10635D01*
X18080Y-10467D01*
X18024Y-10185D01*
X18024Y-9960D01*
X18080Y-9679D01*
X18136Y-9510D01*
X18193Y-9398D01*
X18305Y-9229D01*
X18361Y-9173D01*
X18755Y-9454D02*
X18811Y-9398D01*
X18924Y-9342D01*
X19205Y-9342D01*
X19318Y-9398D01*
X19374Y-9454D01*
X19430Y-9567D01*
X19430Y-9679D01*
X19374Y-9848D01*
X18699Y-10523D01*
X19430Y-10523D01*
X20836Y-10523D02*
X20836Y-9342D01*
X21342Y-10523D02*
X21342Y-9904D01*
X21286Y-9792D01*
X21174Y-9735D01*
X21005Y-9735D01*
X20892Y-9792D01*
X20836Y-9848D01*
X22073Y-10523D02*
X21961Y-10467D01*
X21905Y-10410D01*
X21849Y-10298D01*
X21849Y-9960D01*
X21905Y-9848D01*
X21961Y-9792D01*
X22073Y-9735D01*
X22242Y-9735D01*
X22355Y-9792D01*
X22411Y-9848D01*
X22467Y-9960D01*
X22467Y-10298D01*
X22411Y-10410D01*
X22355Y-10467D01*
X22242Y-10523D01*
X22073Y-10523D01*
X23142Y-10523D02*
X23030Y-10467D01*
X22973Y-10354D01*
X22973Y-9342D01*
X24042Y-10467D02*
X23930Y-10523D01*
X23705Y-10523D01*
X23592Y-10467D01*
X23536Y-10354D01*
X23536Y-9904D01*
X23592Y-9792D01*
X23705Y-9735D01*
X23930Y-9735D01*
X24042Y-9792D01*
X24098Y-9904D01*
X24098Y-10017D01*
X23536Y-10129D01*
X24548Y-10467D02*
X24661Y-10523D01*
X24886Y-10523D01*
X24998Y-10467D01*
X25054Y-10354D01*
X25054Y-10298D01*
X24998Y-10185D01*
X24886Y-10129D01*
X24717Y-10129D01*
X24604Y-10073D01*
X24548Y-9960D01*
X24548Y-9904D01*
X24604Y-9792D01*
X24717Y-9735D01*
X24886Y-9735D01*
X24998Y-9792D01*
X25448Y-10973D02*
X25504Y-10917D01*
X25617Y-10748D01*
X25673Y-10635D01*
X25729Y-10467D01*
X25786Y-10185D01*
X25786Y-9960D01*
X25729Y-9679D01*
X25673Y-9510D01*
X25617Y-9398D01*
X25504Y-9229D01*
X25448Y-9173D01*
M02*
