M48
;DRILL file {Pcbnew (2012-nov-02)-testing} date Mon 07 Jan 2013 06:01:48 PM PST
;FORMAT={-:-/ absolute / inch / decimal}
FMAT,2
INCH,TZ
T1C0.025
T2C0.032
T3C0.036
T4C0.040
T5C0.110
%
G90
G05
M72
T1
X1.1626Y0.134
X1.1684Y0.9045
X1.6019Y0.9045
X1.8Y0.6911
X1.9299Y1.4238
X1.9437Y0.8175
X2.0151Y0.8096
X2.1051Y0.8286
X2.2329Y0.9545
X2.2588Y0.845
X2.3505Y0.5196
X2.8724Y0.6408
X2.9Y0.275
X2.998Y0.9609
T2
X0.065Y0.8
X0.065Y0.5
X0.075Y1.35
X0.1Y0.375
X0.125Y1.05
X0.125Y0.95
X0.175Y0.675
X0.175Y0.575
X0.275Y1.35
X0.3Y1.2
X0.3Y0.9
X0.3Y0.775
X0.3Y0.475
X0.3Y0.125
X0.4Y0.775
X0.4Y0.475
X0.4Y0.375
X0.4Y0.25
X0.5Y1.375
X0.5Y0.775
X0.5Y0.475
X0.5Y0.375
X0.5Y0.25
X0.6Y1.375
X0.6Y0.775
X0.6Y0.475
X0.6Y0.125
X0.725Y0.775
X0.725Y0.475
X0.75Y1.425
X0.75Y0.25
X0.75Y0.15
X0.8Y0.375
X0.85Y1.425
X0.9Y1.125
X0.9Y1.025
X0.9Y0.925
X0.9Y0.825
X0.9Y0.725
X0.9Y0.625
X0.9Y0.525
X0.9Y0.425
X0.9Y0.325
X0.9Y0.225
X1.Y1.125
X1.Y1.025
X1.Y0.925
X1.Y0.825
X1.Y0.725
X1.Y0.625
X1.Y0.525
X1.Y0.425
X1.Y0.325
X1.Y0.225
X1.11Y1.38
X1.11Y1.08
X1.25Y1.35
X1.25Y1.05
X1.25Y0.95
X1.25Y0.65
X1.25Y0.525
X1.25Y0.225
X1.35Y1.35
X1.35Y1.05
X1.35Y0.95
X1.35Y0.65
X1.35Y0.525
X1.35Y0.225
X1.45Y1.35
X1.45Y1.05
X1.45Y0.95
X1.45Y0.65
X1.45Y0.525
X1.45Y0.225
X1.55Y0.95
X1.55Y0.65
X1.55Y0.525
X1.55Y0.225
X1.65Y0.95
X1.65Y0.65
X1.65Y0.525
X1.65Y0.225
X1.65Y0.1
X1.75Y0.95
X1.75Y0.65
X1.75Y0.525
X1.75Y0.225
X1.75Y0.1
X1.85Y0.95
X1.85Y0.65
X1.85Y0.525
X1.85Y0.225
X1.85Y0.1
X1.95Y0.95
X1.95Y0.65
X1.95Y0.525
X1.95Y0.225
X1.95Y0.1
X2.Y1.05
X2.05Y0.95
X2.05Y0.65
X2.05Y0.525
X2.05Y0.225
X2.1Y0.15
X2.15Y0.95
X2.15Y0.65
X2.15Y0.525
X2.15Y0.225
X2.3Y1.05
X2.325Y0.85
X2.325Y0.75
X2.325Y0.425
X2.325Y0.325
X2.4Y0.15
X2.6Y1.125
X2.6Y1.025
X2.6Y0.925
X2.6Y0.825
X2.6Y0.725
X2.6Y0.625
X2.6Y0.525
X2.6Y0.425
X2.6Y0.325
X2.6Y0.225
X2.675Y1.35
X2.7Y1.125
X2.7Y1.025
X2.7Y0.925
X2.7Y0.825
X2.7Y0.725
X2.7Y0.625
X2.7Y0.525
X2.7Y0.425
X2.7Y0.325
X2.7Y0.225
X2.775Y1.35
X2.875Y1.35
T3
X1.7Y1.325
X1.7Y1.225
X1.8Y1.325
X1.8Y1.225
X1.9Y1.325
X1.9Y1.225
X2.Y1.325
X2.Y1.225
X2.1Y1.325
X2.1Y1.225
X2.2Y1.325
X2.2Y1.225
X2.3Y1.325
X2.3Y1.225
T4
X0.475Y1.125
X0.475Y0.925
X0.575Y0.925
X0.675Y1.125
X0.675Y0.925
X2.85Y1.15
X2.85Y1.05
X2.85Y0.825
X2.85Y0.725
X2.85Y0.5
X2.85Y0.4
X2.95Y1.15
X2.95Y1.05
X2.95Y0.825
X2.95Y0.725
X2.95Y0.5
X2.95Y0.4
X3.05Y1.15
X3.05Y1.05
X3.05Y0.825
X3.05Y0.725
X3.05Y0.5
X3.05Y0.4
X3.15Y1.15
X3.15Y1.05
X3.15Y0.825
X3.15Y0.725
X3.15Y0.5
X3.15Y0.4
T5
X0.125Y0.125
X3.125Y0.125
T0
M30
